<svg xmlns="http://www.w3.org/2000/svg" width="32" height="33" viewBox="0 0 32 33" fill="none">
  <path d="M28.1323 12.7933C27.579 12.7933 27.1323 12.34 27.1323 11.7933V9.68652C27.1323 7.37985 25.2563 5.5 22.9416 5.5H21.2656C20.7123 5.5 20.2656 5.04667 20.2656 4.5C20.2656 3.95333 20.7123 3.5 21.2656 3.5H22.9416C26.3603 3.5 29.1323 6.27319 29.1323 9.68652V11.7933C29.1323 12.34 28.6843 12.7933 28.1323 12.7933Z" fill="white" fill-opacity="0.2"/>
  <path d="M4.13281 12.7933C3.57948 12.7933 3.13281 12.34 3.13281 11.7933V9.68652C3.13281 6.27319 5.90348 3.5 9.32215 3.5H11.0422C11.5942 3.5 12.0422 3.95333 12.0422 4.5C12.0422 5.04667 11.5942 5.5 11.0422 5.5H9.32215C7.00748 5.5 5.13281 7.37985 5.13281 9.68652V11.7933C5.13281 12.34 4.68481 12.7933 4.13281 12.7933Z" fill="white" fill-opacity="0.2"/>
  <path d="M4.13281 20.2061C4.68481 20.2061 5.13281 20.6594 5.13281 21.2061V23.3129C5.13281 25.6195 7.00748 27.4994 9.32215 27.4994H10.9995C11.5515 27.4994 11.9995 27.9527 11.9995 28.4994C11.9995 29.0461 11.5515 29.4994 10.9995 29.4994H9.32215C5.90348 29.4994 3.13281 26.7262 3.13281 23.3129V21.2061C3.13281 20.6594 3.57948 20.2061 4.13281 20.2061Z" fill="white" fill-opacity="0.2"/>
  <path d="M28.1294 20.2061C28.6814 20.2061 29.1294 20.6594 29.1294 21.2061V23.3129C29.1294 26.7262 26.3574 29.4994 22.9387 29.4994H21.2188C20.6668 29.4994 20.2188 29.0461 20.2188 28.4994C20.2188 27.9527 20.6668 27.4994 21.2188 27.4994H22.9387C25.2534 27.4994 27.1294 25.6195 27.1294 23.3129V21.2061C27.1294 20.6594 27.5761 20.2061 28.1294 20.2061Z" fill="white" fill-opacity="0.2"/>
  <path fill-rule="evenodd" clip-rule="evenodd" d="M10.7171 11.8212H10.7185L14.7811 9.47449C15.6158 8.98116 16.6438 8.98116 17.4784 9.47449L21.5411 11.8212C22.3758 12.3012 22.8891 13.1945 22.8891 14.1545V18.8479C22.8891 19.8075 22.3762 20.7005 21.5408 21.1807L17.4771 23.5279C17.0639 23.7655 16.6036 23.8855 16.1431 23.8879H16.1318H16.1235C15.6603 23.8869 15.1974 23.7669 14.7824 23.5279L10.7171 21.1812C9.88097 20.7009 9.36914 19.8071 9.36914 18.8479V14.1545C9.36914 13.6922 9.48818 13.2454 9.70482 12.8527C9.71631 12.8286 9.72886 12.8047 9.74247 12.7811C9.76218 12.7469 9.78362 12.7142 9.80658 12.6832C10.0342 12.3338 10.3435 12.0361 10.7171 11.8212ZM15.1318 17.0561L11.3691 14.8836V18.8479C11.3691 19.0879 11.5024 19.3279 11.7171 19.4479H11.7185L15.1318 21.4195V17.0561ZM20.8891 14.8797L17.1318 17.0492V21.4165L20.5424 19.4479C20.7571 19.3279 20.8891 19.0879 20.8891 18.8479V14.8797ZM19.8707 13.1563L16.4771 11.2079C16.2611 11.0746 15.9971 11.0746 15.7811 11.2079L12.3848 13.1585L16.1258 15.3188L19.8707 13.1563Z" fill="white" fill-opacity="0.2"/>
</svg>
