<svg width="16" height="16" viewBox="0 0 16 16" fill="none" xmlns="http://www.w3.org/2000/svg">
<g id="crypto-currency-exchange-transfer 1" clip-path="url(#clip0_3230_7372)">
<g id="Group">
<path id="Vector" d="M10.6667 1.3335L9.33337 2.66683L10.6667 4.00016" stroke="#131920" stroke-linecap="round" stroke-linejoin="round"/>
<path id="Vector_2" d="M13.3334 2.6665H9.33337" stroke="#131920" stroke-linecap="round" stroke-linejoin="round"/>
<path id="Vector_3" d="M14 8.00016C13.9994 7.07435 13.7833 6.16137 13.3689 5.3335" stroke="#131920" stroke-linecap="round" stroke-linejoin="round"/>
<path id="Vector_4" d="M6.66667 2.15381C5.3416 2.45556 4.15827 3.1983 3.31046 4.2604C2.46264 5.32251 2.0006 6.64101 2 8" stroke="#131920" stroke-linecap="round" stroke-linejoin="round"/>
<path id="Vector_5" d="M5.33337 14.6667L6.66671 13.3333L5.33337 12" stroke="#131920" stroke-linecap="round" stroke-linejoin="round"/>
<path id="Vector_6" d="M2.66663 13.3335H6.66663" stroke="#131920" stroke-linecap="round" stroke-linejoin="round"/>
<path id="Vector_7" d="M2 8C2.00057 8.92582 2.21662 9.83879 2.63106 10.6667" stroke="#131920" stroke-linecap="round" stroke-linejoin="round"/>
<path id="Vector_8" d="M9.33337 13.8462C10.6584 13.5444 11.8418 12.8017 12.6896 11.7396C13.5374 10.6775 13.9994 9.35899 14 8" stroke="#131920" stroke-linecap="round" stroke-linejoin="round"/>
<path id="Vector_9" d="M8.70683 5.6263L10.3737 7.29272C10.4666 7.38556 10.5403 7.49579 10.5905 7.61711C10.6408 7.73843 10.6667 7.86847 10.6667 7.99979C10.6667 8.13112 10.6409 8.26116 10.5906 8.3825C10.5404 8.50383 10.4668 8.61408 10.3739 8.70696L8.7075 10.3738C8.61465 10.4667 8.50442 10.5404 8.3831 10.5907C8.26178 10.6409 8.13175 10.6668 8.00042 10.6668C7.8691 10.6669 7.73905 10.641 7.61772 10.5908C7.49638 10.5405 7.38613 10.4669 7.29326 10.374L5.62638 8.70762C5.5335 8.61478 5.45983 8.50455 5.40955 8.38322C5.35928 8.2619 5.33339 8.13187 5.33337 8.00054C5.33336 7.86922 5.3592 7.73918 5.40944 7.61784C5.45968 7.49651 5.53333 7.38625 5.62618 7.29338L7.29259 5.6265C7.38544 5.53363 7.49567 5.45995 7.61699 5.40967C7.73831 5.3594 7.86835 5.33351 7.99967 5.3335C8.131 5.33348 8.26104 5.35933 8.38237 5.40957C8.50371 5.45981 8.61396 5.53345 8.70683 5.6263Z" stroke="#131920" stroke-linecap="round" stroke-linejoin="round"/>
</g>
</g>
<defs>
<clipPath id="clip0_3230_7372">
<rect width="16" height="16" fill="white"/>
</clipPath>
</defs>
</svg>
