<svg width="20" height="20" viewBox="0 0 20 20" fill="none" xmlns="http://www.w3.org/2000/svg">
<path d="M10 20C4.47715 20 -1.95703e-07 15.5228 -4.37114e-07 10C-6.78525e-07 4.47715 4.47715 1.71165e-06 10 1.47023e-06C15.5228 1.22882e-06 20 4.47715 20 10C20 15.5228 15.5228 20 10 20Z" fill="#11C37E" fill-opacity="0.2"/>
<path fill-rule="evenodd" clip-rule="evenodd" d="M12.2168 7.58315L8.06918 14.7671C7.99805 14.8903 7.86494 14.971 7.69913 14.9914C7.53332 15.0118 7.34839 14.9703 7.18503 14.876C7.02167 14.7817 6.89325 14.6423 6.82803 14.4885C6.76282 14.3347 6.76614 14.179 6.83727 14.0558L10.9851 6.87162L7.46126 7.81582C7.37101 7.84001 7.27689 7.84618 7.18425 7.83398C7.09162 7.82179 7.0023 7.79146 6.92138 7.74475C6.84047 7.69803 6.76955 7.63584 6.71267 7.56171C6.65579 7.48759 6.61407 7.40299 6.58989 7.31274C6.56571 7.22249 6.55954 7.12836 6.57173 7.03573C6.58393 6.9431 6.61425 6.85377 6.66097 6.77286C6.70768 6.69194 6.76988 6.62102 6.844 6.56414C6.91813 6.50727 7.00273 6.46555 7.09298 6.44136L12.2747 5.05292C12.3652 5.02872 12.4596 5.02258 12.5525 5.03486C12.6453 5.04714 12.7349 5.0776 12.816 5.12449C12.897 5.171 12.968 5.23314 13.0248 5.30729C13.0816 5.38145 13.1231 5.46615 13.1469 5.55648L14.5354 10.7382C14.5596 10.8285 14.5657 10.9226 14.5535 11.0152C14.5413 11.1079 14.511 11.1972 14.4643 11.2781C14.4176 11.359 14.3554 11.4299 14.2813 11.4868C14.2071 11.5437 14.1225 11.5854 14.0323 11.6096C13.942 11.6338 13.8479 11.64 13.7553 11.6278C13.6626 11.6156 13.5733 11.5852 13.4924 11.5385C13.4115 11.4918 13.3406 11.4296 13.2837 11.3555C13.2268 11.2814 13.1851 11.1968 13.1609 11.1065L12.2168 7.58315Z" fill="#11C37E"/>
</svg>
