<svg width="20" height="20" viewBox="0 0 20 20" fill="none" xmlns="http://www.w3.org/2000/svg">
<g clip-path="url(#clip0_9408_15997)">
<path d="M0 10C0 4.47715 4.47715 0 10 0C15.5228 0 20 4.47715 20 10C20 15.5228 15.5228 20 10 20C4.47715 20 0 15.5228 0 10Z" fill="#F14056" fill-opacity="0.1"/>
<path fill-rule="evenodd" clip-rule="evenodd" d="M11.7606 12.7668L5.89495 6.90111C5.79436 6.80051 5.75087 6.65105 5.77406 6.4856C5.79724 6.32016 5.8852 6.15227 6.01859 6.01889C6.15197 5.88551 6.31985 5.79754 6.4853 5.77436C6.65075 5.75117 6.80021 5.79466 6.9008 5.89526L12.7667 11.7611L12.7667 8.11302C12.7667 8.01959 12.7851 7.92707 12.8209 7.84075C12.8566 7.75443 12.909 7.676 12.9751 7.60993C13.0411 7.54386 13.1196 7.49146 13.2059 7.4557C13.2922 7.41995 13.3847 7.40154 13.4782 7.40154C13.5716 7.40154 13.6641 7.41995 13.7504 7.4557C13.8368 7.49146 13.9152 7.54386 13.9813 7.60993C14.0473 7.676 14.0997 7.75443 14.1355 7.84075C14.1712 7.92707 14.1896 8.01959 14.1896 8.11302L14.1896 13.4776C14.1896 13.5712 14.1711 13.664 14.1352 13.7505C14.0993 13.837 14.0467 13.9156 13.9804 13.9818C13.9145 14.0481 13.8361 14.1005 13.7498 14.1362C13.6635 14.1719 13.5709 14.1901 13.4775 14.1897L8.11295 14.1897C8.01952 14.1897 7.927 14.1713 7.84068 14.1356C7.75436 14.0998 7.67593 14.0474 7.60986 13.9813C7.5438 13.9153 7.49139 13.8368 7.45563 13.7505C7.41988 13.6642 7.40148 13.5717 7.40148 13.4782C7.40148 13.3848 7.41988 13.2923 7.45563 13.206C7.49139 13.1196 7.5438 13.0412 7.60986 12.9751C7.67593 12.9091 7.75436 12.8567 7.84068 12.8209C7.927 12.7852 8.01952 12.7668 8.11295 12.7668L11.7606 12.7668Z" fill="#F14056"/>
</g>
<defs>
<clipPath id="clip0_9408_15997">
<rect width="20" height="20" fill="white" transform="translate(20) rotate(90)"/>
</clipPath>
</defs>
</svg>
