<svg xmlns="http://www.w3.org/2000/svg" width="104" height="113" viewBox="0 0 104 113" fill="none">
  <path d="M6.37451 29.157V17.5342C6.37451 15.325 8.16537 13.5342 10.3745 13.5342H22.8251" stroke="#34A3DA" stroke-width="2" stroke-miterlimit="10" stroke-linecap="round"/>
  <path d="M22.8251 97.4523H10.3745C8.16537 97.4523 6.37451 95.6615 6.37451 93.4523V80.1689" stroke="#34A3DA" stroke-width="2" stroke-miterlimit="10" stroke-linecap="round"/>
  <path d="M73.8374 13.5342H86.2905C88.4997 13.5342 90.2905 15.325 90.2905 17.5342V29.157" stroke="#34A3DA" stroke-width="2" stroke-miterlimit="10" stroke-linecap="round"/>
  <path d="M90.2905 80.1689V93.4523C90.2905 95.6615 88.4997 97.4523 86.2905 97.4523H73.8374" stroke="#34A3DA" stroke-width="2" stroke-miterlimit="10" stroke-linecap="round"/>
  <path d="M94.6987 8.73971C94.4013 8.44228 94.4013 7.96006 94.6987 7.66264L97.6068 4.75455C97.9042 4.45712 98.3864 4.45712 98.6839 4.75455C98.9813 5.05197 98.9813 5.53419 98.6839 5.83162L95.7758 8.73971C95.4783 9.03713 94.9961 9.03713 94.6987 8.73971Z" fill="#5E6175"/>
  <path d="M89.3027 0.902344C89.3027 0.481658 89.6438 0.140625 90.0645 0.140625C90.4851 0.140625 90.8262 0.481658 90.8262 0.902344V5.01563C90.8262 5.43631 90.4851 5.77734 90.0645 5.77734C89.6438 5.77734 89.3027 5.43631 89.3027 5.01562V0.902344Z" fill="#5E6175"/>
  <path d="M97.8164 13.0361C97.8164 12.6154 98.1574 12.2744 98.5781 12.2744H102.691C103.112 12.2744 103.453 12.6154 103.453 13.0361C103.453 13.4568 103.112 13.7979 102.691 13.7979H98.5781C98.1574 13.7979 97.8164 13.4568 97.8164 13.0361Z" fill="#5E6175"/>
  <path d="M7.19466 112.621C6.51731 112.623 5.85544 112.419 5.29603 112.037C4.73662 111.655 4.30585 111.113 4.06032 110.482C3.81479 109.85 3.76599 109.16 3.92034 108.5C4.07469 107.84 4.42496 107.243 4.92513 106.786C5.42529 106.329 6.05194 106.035 6.72274 105.941C7.39353 105.847 8.07708 105.958 8.68355 106.259C9.29002 106.561 9.79104 107.039 10.1208 107.631C10.4505 108.223 10.5935 108.9 10.531 109.575C10.4528 110.406 10.0678 111.179 9.45102 111.742C8.83426 112.305 8.02991 112.619 7.19466 112.621ZM7.18197 107.432C6.88793 107.433 6.59852 107.505 6.33816 107.642C6.0778 107.778 5.85413 107.976 5.68603 108.217C5.51793 108.458 5.41033 108.736 5.3723 109.028C5.33428 109.319 5.36695 109.616 5.46756 109.892C5.56817 110.168 5.73376 110.416 5.95036 110.615C6.16697 110.814 6.42823 110.958 6.7121 111.035C6.99597 111.111 7.29411 111.119 7.58138 111.056C7.86865 110.993 8.1366 110.862 8.36263 110.674C8.65433 110.433 8.86428 110.108 8.96361 109.743C9.06295 109.378 9.0468 108.991 8.91738 108.636C8.78796 108.28 8.55163 107.974 8.24087 107.758C7.93012 107.543 7.5602 107.428 7.18197 107.432Z" fill="#5E6175"/>
  <path d="M87.5792 106.129C87.0614 106.132 86.5548 105.978 86.1262 105.688C85.6975 105.397 85.3667 104.984 85.1775 104.502C84.9882 104.02 84.9493 103.492 85.0658 102.987C85.1823 102.483 85.4488 102.025 85.8302 101.675C86.2117 101.325 86.6902 101.099 87.2028 101.026C87.7154 100.953 88.2381 101.036 88.7022 101.266C89.1662 101.496 89.5498 101.861 89.8026 102.313C90.0554 102.765 90.1654 103.282 90.1183 103.798C90.0608 104.433 89.7688 105.023 89.2993 105.454C88.8298 105.885 88.2165 106.126 87.5792 106.129ZM87.5792 102.526C87.4119 102.526 87.247 102.567 87.0987 102.644C86.9503 102.721 86.8228 102.833 86.7269 102.97C86.631 103.108 86.5696 103.266 86.5479 103.432C86.5262 103.598 86.5448 103.766 86.6021 103.924C86.6594 104.081 86.7538 104.222 86.8772 104.335C87.0006 104.448 87.1495 104.529 87.3111 104.573C87.4728 104.616 87.6425 104.619 87.8058 104.583C87.9692 104.547 88.1214 104.472 88.2495 104.364C88.4167 104.228 88.5371 104.043 88.5939 103.834C88.6507 103.626 88.6411 103.406 88.5665 103.203C88.4918 103.001 88.3558 102.827 88.1775 102.705C87.9991 102.584 87.7873 102.521 87.5716 102.526H87.5792Z" fill="#5E6175"/>
  <path d="M38.7905 70.3211C38.0971 70.3204 37.4323 70.0446 36.942 69.5543C36.4517 69.064 36.176 68.3992 36.1753 67.7058V59.1187C36.1965 58.4396 36.4811 57.7953 36.969 57.3224C37.4569 56.8494 38.1098 56.585 38.7893 56.585C39.4688 56.585 40.1216 56.8494 40.6095 57.3224C41.0974 57.7953 41.3821 58.4396 41.4032 59.1187V67.7058C41.4026 68.3988 41.1272 69.0632 40.6374 69.5534C40.1476 70.0437 39.4835 70.3197 38.7905 70.3211ZM38.7905 58.0295C38.5014 58.0295 38.2241 58.1441 38.0194 58.3483C37.8147 58.5525 37.6994 58.8296 37.6987 59.1187V67.7058C37.6916 67.8535 37.7145 68.001 37.7661 68.1395C37.8177 68.278 37.8969 68.4046 37.9989 68.5116C38.1008 68.6186 38.2234 68.7038 38.3593 68.762C38.4952 68.8202 38.6415 68.8503 38.7893 68.8503C38.9371 68.8503 39.0833 68.8202 39.2192 68.762C39.3551 68.7038 39.4777 68.6186 39.5797 68.5116C39.6816 68.4046 39.7608 68.278 39.8124 68.1395C39.864 68.001 39.8869 67.8535 39.8798 67.7058V59.1187C39.8784 58.8305 39.7632 58.5545 39.5591 58.3509C39.3551 58.1473 39.0788 58.0327 38.7905 58.032V58.0295Z" fill="#5E6175"/>
  <path d="M38.7908 83.6763C38.0979 83.6756 37.4334 83.4002 36.9432 82.9104C36.453 82.4207 36.1769 81.7565 36.1756 81.0636V76.7751C36.1647 76.425 36.2242 76.0762 36.3507 75.7495C36.4771 75.4229 36.6679 75.1249 36.9117 74.8734C37.1555 74.6219 37.4474 74.4219 37.77 74.2853C38.0925 74.1487 38.4393 74.0784 38.7896 74.0784C39.1399 74.0784 39.4866 74.1487 39.8092 74.2853C40.1317 74.4219 40.4236 74.6219 40.6674 74.8734C40.9112 75.1249 41.102 75.4229 41.2284 75.7495C41.3549 76.0762 41.4144 76.425 41.4035 76.7751V81.0686C41.4008 81.7603 41.1245 82.4227 40.635 82.9113C40.1455 83.3999 39.4825 83.6749 38.7908 83.6763ZM38.7908 75.6782C38.5015 75.6789 38.2242 75.7941 38.0195 75.9987C37.8149 76.2033 37.6997 76.4806 37.699 76.77V81.0636C37.7125 81.3437 37.8333 81.6079 38.0364 81.8013C38.2394 81.9948 38.5091 82.1027 38.7896 82.1027C39.07 82.1027 39.3397 81.9948 39.5427 81.8013C39.7458 81.6079 39.8666 81.3437 39.8801 81.0636V76.7751C39.8801 76.486 39.7654 76.2086 39.5612 76.004C39.357 75.7993 39.0799 75.684 38.7908 75.6833V75.6782Z" fill="#5E6175"/>
  <path d="M58.6638 60.3172C57.9708 60.3158 57.3067 60.0398 56.8169 59.5496C56.3272 59.0593 56.0518 58.3949 56.0511 57.7019V51.042C56.0511 46.9389 52.73 43.4781 48.5964 43.5543C46.9082 43.587 45.2828 44.2001 43.9935 45.2905C42.7043 46.3809 41.8299 47.882 41.5175 49.5414C41.4034 50.1362 41.0843 50.6722 40.6157 51.0559C40.1471 51.4396 39.5587 51.6467 38.9531 51.6412C38.5679 51.6407 38.1877 51.5551 37.8395 51.3906C37.4913 51.2262 37.1837 50.9868 36.9387 50.6896C36.6937 50.3925 36.5174 50.0449 36.4223 49.6718C36.3272 49.2986 36.3157 48.909 36.3886 48.5309C36.9394 45.6176 38.5051 42.9939 40.8077 41.126C43.1102 39.2582 46.0003 38.2671 48.9646 38.3289C55.754 38.4584 61.2765 44.1687 61.2765 51.0775V57.7045C61.2758 58.3972 61.0003 59.0614 60.5105 59.5512C60.0207 60.041 59.3565 60.3165 58.6638 60.3172ZM48.7208 42.0359C53.6517 42.0359 57.5745 46.1518 57.5745 51.0471V57.7096C57.5745 57.9985 57.6893 58.2755 57.8936 58.4798C58.0979 58.6841 58.3749 58.7988 58.6638 58.7988C58.9527 58.7988 59.2297 58.6841 59.434 58.4798C59.6383 58.2755 59.7531 57.9985 59.7531 57.7096V51.0826C59.7531 44.9508 54.807 39.8549 48.7208 39.8549C46.1544 39.8512 43.6675 40.7448 41.6904 42.3811C39.7133 44.0174 38.3705 46.2934 37.8943 48.8152C37.8632 48.9748 37.8677 49.1393 37.9077 49.2969C37.9476 49.4545 38.022 49.6013 38.1253 49.7267C38.2556 49.8836 38.4273 50.0008 38.6209 50.0648C38.8146 50.1289 39.0223 50.1374 39.2204 50.0892C39.4186 50.0411 39.5993 49.9383 39.7419 49.7925C39.8845 49.6467 39.9833 49.4638 40.0271 49.2646C40.4122 47.2367 41.4913 45.406 43.079 44.087C44.6668 42.7679 46.6643 42.0427 48.7284 42.0359H48.7208Z" fill="#5E6175"/>
  <path d="M63.2949 83.6763C59.2984 83.6763 56.0586 80.3069 56.0586 76.313V67.3425C56.0586 66.6496 56.3339 65.985 56.8238 65.495C57.3138 65.0051 57.9784 64.7298 58.6713 64.7298C59.3642 64.7298 60.0288 65.0051 60.5187 65.495C61.0087 65.985 61.284 66.6496 61.284 67.3425V76.3663C61.2776 76.8752 61.4589 77.3686 61.7934 77.7522C62.1278 78.1359 62.5919 78.3828 63.0969 78.4458C63.3754 78.4723 63.6565 78.4404 63.922 78.3521C64.1875 78.2637 64.4317 78.121 64.6389 77.9329C64.8461 77.7448 65.0118 77.5156 65.1253 77.2598C65.2388 77.004 65.2977 76.7274 65.2982 76.4476V52.3646C65.2873 52.0144 65.3469 51.6657 65.4733 51.339C65.5998 51.0123 65.7906 50.7144 66.0344 50.4629C66.2782 50.2113 66.57 50.0114 66.8926 49.8748C67.2152 49.7382 67.5619 49.6678 67.9122 49.6678C68.2625 49.6678 68.6092 49.7382 68.9318 49.8748C69.2544 50.0114 69.5462 50.2113 69.79 50.4629C70.0338 50.7144 70.2246 51.0123 70.3511 51.339C70.4775 51.6657 70.5371 52.0144 70.5262 52.3646V76.4476C70.5235 78.3644 69.7607 80.2018 68.4051 81.557C67.0495 82.9121 65.2117 83.6743 63.2949 83.6763ZM58.6637 66.2532C58.3748 66.2532 58.0977 66.368 57.8935 66.5723C57.6892 66.7765 57.5744 67.0536 57.5744 67.3425V76.313C57.5744 79.4462 60.0576 82.0665 63.1096 82.1528C63.8737 82.1756 64.6346 82.0448 65.3473 81.7683C66.06 81.4917 66.7099 81.075 67.2587 80.5428C67.8075 80.0106 68.2439 79.3738 68.5422 78.6699C68.8404 77.966 68.9944 77.2095 68.9951 76.445V52.3646C69.0022 52.2169 68.9793 52.0694 68.9277 51.9309C68.8761 51.7923 68.797 51.6658 68.695 51.5587C68.593 51.4517 68.4704 51.3666 68.3345 51.3083C68.1987 51.2501 68.0524 51.2201 67.9046 51.2201C67.7568 51.2201 67.6105 51.2501 67.4747 51.3083C67.3388 51.3666 67.2162 51.4517 67.1142 51.5587C67.0122 51.6658 66.933 51.7923 66.8815 51.9309C66.8299 52.0694 66.8069 52.2169 66.8141 52.3646V76.4476C66.8135 76.9396 66.7101 77.4261 66.5107 77.8759C66.3112 78.3257 66.0201 78.7289 65.6558 79.0597C65.2916 79.3904 64.8623 79.6415 64.3954 79.7968C63.9285 79.9522 63.4343 80.0083 62.9445 79.9616C62.063 79.8609 61.2498 79.4382 60.6607 78.7747C60.0717 78.1112 59.7484 77.2535 59.7529 76.3663V67.3425C59.7529 67.0536 59.6382 66.7765 59.4339 66.5723C59.2296 66.368 58.9526 66.2532 58.6637 66.2532Z" fill="#5E6175"/>
  <path d="M29.5941 83.8718C28.9012 83.8718 28.2367 83.5965 27.7467 83.1065C27.2567 82.6165 26.9814 81.952 26.9814 81.2591V50.7319C26.9814 38.8872 36.3277 29.0813 48.1318 28.7487C51.807 28.6347 55.4509 29.4571 58.7208 31.1387C61.9907 32.8203 64.7793 35.3058 66.8244 38.3616C67.0156 38.6465 67.1489 38.9663 67.2165 39.3027C67.2841 39.6391 67.2848 39.9856 67.2186 40.3223C67.1523 40.6589 67.0204 40.9793 66.8304 41.265C66.6403 41.5507 66.3959 41.7962 66.1109 41.9874C65.826 42.1786 65.5062 42.3118 65.1698 42.3795C64.8334 42.4471 64.487 42.4478 64.1503 42.3816C63.8136 42.3153 63.4933 42.1834 63.2076 41.9933C62.9219 41.8033 62.6764 41.5588 62.4852 41.2739C61.1075 39.2157 59.2835 37.4946 57.1488 36.2387C55.0141 34.9828 52.6237 34.2244 50.1554 34.0199C47.6871 33.8154 45.2045 34.1701 42.8922 35.0577C40.5799 35.9452 38.4976 37.3427 36.8 39.1462C33.8445 42.276 32.2007 46.4195 32.2068 50.7243V81.2591C32.2068 81.952 31.9316 82.6165 31.4416 83.1065C30.9516 83.5965 30.2871 83.8718 29.5941 83.8718ZM48.7615 30.262C37.3738 30.262 28.5049 39.6565 28.5049 50.7319V81.2591C28.5049 81.548 28.6196 81.825 28.8239 82.0293C29.0282 82.2336 29.3052 82.3483 29.5941 82.3483C29.883 82.3483 30.1601 82.2336 30.3644 82.0293C30.5686 81.825 30.6834 81.548 30.6834 81.2591V50.7268C30.6765 46.0336 32.4694 41.5163 35.693 38.1052C43.6758 29.6323 57.3232 30.8764 63.7496 40.4259C63.8665 40.6021 64.0321 40.7406 64.2263 40.8243C64.4205 40.908 64.6349 40.9333 64.8433 40.8973C65.0517 40.8612 65.245 40.7652 65.3998 40.6211C65.5546 40.477 65.664 40.2909 65.7148 40.0856C65.7526 39.9374 65.7583 39.7828 65.7315 39.6322C65.7048 39.4816 65.6463 39.3384 65.56 39.2122C63.7144 36.4515 61.2151 34.1898 58.2843 32.6283C55.3536 31.0668 52.0823 30.2539 48.7615 30.262Z" fill="#5E6175"/>
  <path d="M48.7617 83.6763C48.0688 83.6756 47.4043 83.4002 46.9141 82.9104C46.4239 82.4207 46.1478 81.7565 46.1465 81.0636V52.8698C46.1677 52.1906 46.4523 51.5464 46.9402 51.0735C47.4281 50.6005 48.081 50.3361 48.7604 50.3361C49.4399 50.3361 50.0928 50.6005 50.5807 51.0735C51.0686 51.5464 51.3532 52.1906 51.3744 52.8698V81.0686C51.3717 81.7603 51.0954 82.4227 50.6059 82.9113C50.1164 83.3999 49.4534 83.6749 48.7617 83.6763ZM48.7617 51.7755C48.4726 51.7755 48.1953 51.8902 47.9906 52.0944C47.7859 52.2986 47.6706 52.5756 47.6699 52.8647V81.0686C47.6834 81.3488 47.8042 81.6129 48.0073 81.8064C48.2103 81.9999 48.48 82.1078 48.7604 82.1078C49.0409 82.1078 49.3106 81.9999 49.5136 81.8064C49.7167 81.6129 49.8375 81.3488 49.851 81.0686V52.8698C49.8503 52.5811 49.7353 52.3045 49.5312 52.1003C49.3271 51.8962 49.0504 51.7812 48.7617 51.7806V51.7755Z" fill="#5E6175"/>
  <path d="M0 100.723C0 99.7713 0.771302 99 1.72275 99C2.6742 99 3.4455 99.7713 3.4455 100.723C3.4455 101.674 2.6742 102.446 1.72275 102.446C0.771302 102.446 0 101.674 0 100.723Z" fill="#34A3DA"/>
</svg>