<svg xmlns="http://www.w3.org/2000/svg" width="92" height="114" viewBox="0 0 92 114" fill="none">
  <path d="M47.4096 60.7476C44.0731 60.7476 40.8115 59.7582 38.0374 57.9046C35.2632 56.0509 33.101 53.4163 31.8242 50.3338C30.5473 47.2513 30.2133 43.8594 30.8642 40.587C31.5151 37.3146 33.1218 34.3088 35.481 31.9495C37.8403 29.5903 40.8461 27.9836 44.1185 27.3327C47.3909 26.6818 50.7828 27.0159 53.8653 28.2927C56.9478 29.5695 59.5824 31.7317 61.4361 34.5059C63.2897 37.2801 64.2791 40.5416 64.2791 43.8781C64.2737 48.3505 62.4947 52.6382 59.3322 55.8007C56.1697 58.9632 51.882 60.7422 47.4096 60.7476ZM47.4096 28.532C44.3744 28.532 41.4074 29.432 38.8837 31.1183C36.3601 32.8045 34.3931 35.2013 33.2316 38.0054C32.0701 40.8095 31.7662 43.8951 32.3584 46.872C32.9505 49.8488 34.4121 52.5832 36.5583 54.7294C38.7044 56.8756 41.4389 58.3372 44.4157 58.9293C47.3926 59.5214 50.4781 59.2175 53.2823 58.056C56.0864 56.8945 58.4831 54.9276 60.1694 52.4039C61.8556 49.8803 62.7557 46.9133 62.7557 43.8781C62.751 39.8095 61.1326 35.9089 58.2557 33.032C55.3788 30.155 51.4782 28.5367 47.4096 28.532Z" fill="#5E6175"/>
  <path d="M49.5685 48.0235C49.4947 49.1133 48.6143 50 47.522 50C46.4297 50 45.5459 49.1137 45.6334 48.025C45.7447 46.6387 45.9699 45.0622 46.3611 44.2983C46.9717 43.1064 47.8566 42.0766 48.9432 41.2938C49.3093 41.0311 49.6019 40.6786 49.7927 40.2703C49.9835 39.862 50.0662 39.4115 50.0328 38.962C49.9995 38.5126 49.8512 38.0792 49.6022 37.7035C49.3533 37.3278 49.0119 37.0224 48.611 36.8166C48.2101 36.6107 47.7629 36.5114 47.3126 36.528C46.8622 36.5446 46.4236 36.6767 46.0389 36.9115C45.6542 37.1464 45.3364 37.4761 45.1158 37.8691C44.7522 38.5168 44.1771 39.1559 43.4344 39.1559H42.8017C41.7091 39.1559 40.7951 38.2507 41.1187 37.2071C41.2553 36.7666 41.4383 36.3399 41.6658 35.9344C42.2179 34.9505 43.0136 34.1249 43.9765 33.5368C44.9393 32.9487 46.0371 32.6178 47.1646 32.5758C48.2921 32.5339 49.4115 32.7823 50.4154 33.2972C51.4193 33.8121 52.2741 34.5763 52.8979 35.5164C53.5216 36.4566 53.8934 37.5413 53.9776 38.6664C54.0617 39.7915 53.8554 40.9194 53.3785 41.9419C52.9015 42.9644 52.1699 43.8472 51.2537 44.5057C50.6759 44.9215 50.2053 45.4687 49.8808 46.1023C49.7185 46.4193 49.6232 47.2166 49.5685 48.0235Z" fill="#34A3DA"/>
  <path d="M45.3887 53.1978C45.3887 52.1005 46.2782 51.2109 47.3755 51.2109C48.4728 51.2109 49.3623 52.1005 49.3623 53.1978C49.3623 54.295 48.4728 55.1846 47.3755 55.1846C46.2782 55.1846 45.3887 54.295 45.3887 53.1978Z" fill="#34A3DA"/>
  <path d="M86.2166 16.5549C85.6553 16.5527 85.1049 16.3998 84.6229 16.1121C84.141 15.8244 83.7452 15.4125 83.4768 14.9194C83.2085 14.4264 83.0776 13.8704 83.0977 13.3094C83.1178 12.7485 83.2883 12.2032 83.5912 11.7307C85.0994 9.39731 88.6973 10.0676 89.2787 12.7768C89.3746 13.2327 89.3676 13.7042 89.2583 14.157C89.149 14.6099 88.9401 15.0326 88.6467 15.3945C88.3534 15.7564 87.9831 16.0484 87.5627 16.2491C87.1423 16.4499 86.6825 16.5543 86.2166 16.5549ZM86.2166 11.817C85.9914 11.8173 85.7687 11.8648 85.563 11.9566C85.3573 12.0485 85.1732 12.1825 85.0226 12.3501C84.8721 12.5176 84.7584 12.7149 84.6891 12.9292C84.6197 13.1435 84.5961 13.37 84.6199 13.594C84.6437 13.818 84.7143 14.0345 84.8272 14.2295C84.94 14.4244 85.0926 14.5935 85.275 14.7257C85.4574 14.8578 85.6655 14.9502 85.8859 14.9968C86.1063 15.0433 86.334 15.0431 86.5543 14.9959C86.9427 14.9129 87.2865 14.689 87.5196 14.3674C87.7526 14.0459 87.8584 13.6494 87.8164 13.2545C87.7744 12.8596 87.5878 12.4942 87.2924 12.2287C86.997 11.9633 86.6137 11.8167 86.2166 11.817Z" fill="#5E6175"/>
  <path d="M74.6232 4.8375C74.2022 4.83774 73.7898 4.7188 73.4336 4.49443C73.0775 4.27006 72.7921 3.94944 72.6106 3.56966C72.429 3.18987 72.3587 2.76645 72.4078 2.34838C72.4568 1.9303 72.6233 1.53466 72.8878 1.20723C73.1523 0.879791 73.5042 0.633945 73.9026 0.498129C74.301 0.362314 74.7298 0.34208 75.1392 0.439769C75.5487 0.537458 75.9221 0.749077 76.2163 1.05014C76.5105 1.35121 76.7135 1.72942 76.8017 2.14102C76.8708 2.46589 76.8666 2.80211 76.7893 3.12514C76.712 3.44817 76.5635 3.74987 76.3548 4.00824C76.1461 4.26661 75.8823 4.47513 75.5827 4.61859C75.2831 4.76206 74.9553 4.83684 74.6232 4.8375ZM74.6232 1.90234C74.5243 1.90254 74.4267 1.92349 74.3364 1.96382C74.2462 2.00416 74.1655 2.06299 74.0995 2.13651C74.0334 2.21002 73.9836 2.29658 73.9531 2.39059C73.9226 2.4846 73.9122 2.58395 73.9226 2.68223C73.933 2.7805 73.9638 2.87551 74.0133 2.96109C74.0627 3.04667 74.1295 3.12093 74.2094 3.17905C74.2893 3.23718 74.3806 3.27787 74.4772 3.2985C74.5738 3.31914 74.6737 3.31925 74.7704 3.29883C74.953 3.25836 75.1124 3.1481 75.2148 2.9916C75.2837 2.8851 75.3226 2.762 75.3274 2.63525C75.3323 2.5085 75.3029 2.38278 75.2424 2.27131C75.1818 2.15985 75.0924 2.06676 74.9834 2.00183C74.8744 1.9369 74.75 1.90253 74.6232 1.90234Z" fill="#5E6175"/>
  <path d="M5.21529 103.742C4.91787 103.444 4.91787 102.962 5.21529 102.665L7.8595 100.02C8.15693 99.723 8.63915 99.723 8.93657 100.02C9.234 100.318 9.234 100.8 8.93657 101.097L6.29236 103.742C5.99494 104.039 5.51272 104.039 5.21529 103.742Z" fill="#5E6175"/>
  <path d="M12.5303 103.549C12.5303 103.128 12.8713 102.787 13.292 102.787C13.7127 102.787 14.0537 103.128 14.0537 103.549V107.289C14.0537 107.709 13.7127 108.05 13.292 108.05C12.8713 108.05 12.5303 107.709 12.5303 107.289V103.549Z" fill="#5E6175"/>
  <path d="M0.785156 96.0076C0.785156 95.5869 1.12619 95.2458 1.54688 95.2458H5.28691C5.7076 95.2458 6.04863 95.5869 6.04863 96.0076C6.04863 96.4283 5.7076 96.7693 5.28691 96.7693H1.54688C1.12619 96.7693 0.785156 96.4283 0.785156 96.0076Z" fill="#5E6175"/>
  <path d="M91.0891 87.7223C91.0891 88.1429 90.748 88.484 90.3273 88.484C89.9067 88.484 89.5656 88.1429 89.5656 87.7223C89.5656 87.3016 89.9067 86.9605 90.3273 86.9605C90.748 86.9605 91.0891 87.3016 91.0891 87.7223ZM91.0891 83.6598C91.0891 84.0804 90.748 84.4215 90.3273 84.4215C89.9067 84.4215 89.5656 84.0804 89.5656 83.6598C89.5656 83.2391 89.9067 82.898 90.3273 82.898C90.748 82.898 91.0891 83.2391 91.0891 83.6598ZM91.0891 79.5973C91.0891 80.0179 90.748 80.359 90.3273 80.359C89.9067 80.359 89.5656 80.0179 89.5656 79.5973C89.5656 79.1766 89.9067 78.8355 90.3273 78.8355C90.748 78.8355 91.0891 79.1766 91.0891 79.5973ZM91.0872 75.5434C91.0935 75.9593 90.7519 76.2965 90.3359 76.2965H90.3054C89.8996 76.2965 89.575 75.9625 89.5633 75.5568C89.5519 75.1602 89.8433 74.8135 90.2385 74.7786L90.2788 74.775C90.7025 74.7376 91.0778 75.0534 91.0861 75.4786C91.0865 75.5003 91.0869 75.5218 91.0872 75.5434ZM89.7314 72.3116C89.3596 72.4355 88.9601 72.233 88.8111 71.8705C88.6624 71.5089 88.803 71.085 89.1531 70.911L89.2002 70.8876C89.5771 70.7001 90.0371 70.8533 90.1995 71.2417C90.213 71.274 90.2264 71.3063 90.2396 71.3387C90.3987 71.7286 90.1808 72.1618 89.7814 72.2949L89.7314 72.3116ZM87.7741 68.801C87.4743 69.0497 87.0316 69.0079 86.7619 68.7268C86.4919 68.4456 86.4683 68.0012 86.7296 67.7118L86.7626 67.6752C87.044 67.3636 87.5272 67.3385 87.8185 67.6409C87.8433 67.6667 87.868 67.6926 87.8926 67.7187C88.1802 68.0227 88.134 68.5024 87.8119 68.7696L87.7741 68.801ZM84.691 66.2258C84.5001 66.5683 84.0686 66.6887 83.7139 66.5216C83.3597 66.3547 83.1778 65.9462 83.3195 65.5813L83.3383 65.5329C83.4906 65.1406 83.9334 64.9439 84.3149 65.1214C84.3469 65.1363 84.3788 65.1513 84.4106 65.1664C84.7902 65.3472 84.9209 65.8132 84.7162 66.1804L84.691 66.2258ZM80.8885 64.9498C80.8344 65.3369 80.4772 65.6047 80.0872 65.5781C79.6966 65.5513 79.3789 65.2364 79.3789 64.8448V64.7923C79.3789 64.3715 79.7205 64.0279 80.1404 64.0549C80.1745 64.0571 80.2085 64.0595 80.2426 64.062C80.6627 64.0927 80.9541 64.4806 80.8958 64.8978L80.8885 64.9498Z" fill="#A9AFC4"/>
  <path d="M68.4941 113.621H26.3279C24.3532 113.619 22.4602 112.833 21.0641 111.436C19.668 110.04 18.8829 108.147 18.8809 106.172V16.6547C18.8829 14.68 19.668 12.7867 21.0641 11.3901C22.4602 9.99358 24.3532 9.20777 26.3279 9.20508H68.4941C70.4688 9.20777 72.3619 9.99358 73.7579 11.3901C75.154 12.7867 75.9392 14.68 75.9412 16.6547V106.172C75.9392 108.147 75.154 110.04 73.7579 111.436C72.3619 112.833 70.4688 113.619 68.4941 113.621ZM26.3279 10.7285C24.7571 10.7305 23.2512 11.3556 22.1406 12.4666C21.0301 13.5776 20.4056 15.0838 20.4043 16.6547V106.172C20.4056 107.743 21.0301 109.249 22.1406 110.36C23.2512 111.471 24.7571 112.096 26.3279 112.098H68.4941C70.065 112.096 71.5709 111.471 72.6815 110.36C73.792 109.249 74.4164 107.743 74.4178 106.172V16.6547C74.4164 15.0838 73.792 13.5776 72.6815 12.4666C71.5709 11.3556 70.065 10.7305 68.4941 10.7285H26.3279Z" fill="#5E6175"/>
  <path d="M77.1344 70.0225H17.6213C13.7902 70.0225 10.6846 73.1281 10.6846 76.9592V90.66C10.6846 94.491 13.7902 97.5967 17.6213 97.5967H77.1344C80.9654 97.5967 84.0711 94.491 84.0711 90.66V76.9592C84.0711 73.1281 80.9654 70.0225 77.1344 70.0225Z" fill="#131822" stroke="#34A3DA" stroke-width="3" stroke-miterlimit="10"/>
  <path d="M25.6094 76.3477H29.4814V91.2748H25.6094V76.3477Z" fill="#5E6175"/>
  <path d="M20.1133 85.8633L33.0402 78.3997L34.9762 81.7529L22.0493 89.2165L20.1133 85.8633Z" fill="#5E6175"/>
  <path d="M20.1123 81.7588L22.0483 78.4056L34.9752 85.8691L33.0392 89.2224L20.1123 81.7588Z" fill="#5E6175"/>
  <path d="M45.4424 76.3477H49.3145V91.2748H45.4424V76.3477Z" fill="#5E6175"/>
  <path d="M39.9434 85.8623L52.8703 78.3987L54.8063 81.7519L41.8794 89.2155L39.9434 85.8623Z" fill="#5E6175"/>
  <path d="M39.9434 81.7576L41.8794 78.4044L54.8063 85.8679L52.8703 89.2211L39.9434 81.7576Z" fill="#5E6175"/>
  <path d="M65.2725 76.3477H69.1445V91.2748H65.2725V76.3477Z" fill="#5E6175"/>
  <path d="M59.7744 85.8623L72.7013 78.3987L74.6374 81.7519L61.7104 89.2155L59.7744 85.8623Z" fill="#5E6175"/>
  <path d="M59.7734 81.7588L61.7095 78.4056L74.6364 85.8691L72.7003 89.2224L59.7734 81.7588Z" fill="#5E6175"/>
  <path d="M0 51.4166C1.96701 51.4166 3.85345 52.198 5.24433 53.5889C6.63521 54.9798 7.4166 56.8662 7.4166 58.8332C7.41727 56.8664 8.19888 54.9804 9.58962 53.5896C10.9804 52.1989 12.8664 51.4173 14.8332 51.4166C13.8592 51.4166 12.8948 51.2248 11.995 50.852C11.0952 50.4793 10.2776 49.933 9.58887 49.2443C8.90018 48.5556 8.35388 47.738 7.98116 46.8382C7.60844 45.9384 7.4166 44.974 7.4166 44C7.4166 44.974 7.22476 45.9384 6.85205 46.8382C6.47933 47.738 5.93302 48.5556 5.24433 49.2443C4.55563 49.933 3.73803 50.4793 2.83821 50.852C1.93839 51.2248 0.973962 51.4166 0 51.4166Z" fill="#34A3DA"/>
  <path d="M82.9619 105.42C83.8252 105.42 84.6532 105.763 85.2636 106.373C85.874 106.984 86.217 107.812 86.217 108.675C86.2177 107.811 86.5612 106.983 87.172 106.373C87.7829 105.763 88.6111 105.42 89.4746 105.42C89.0469 105.42 88.6234 105.336 88.2282 105.173C87.8329 105.009 87.4738 104.77 87.1713 104.467C86.8688 104.165 86.6288 103.806 86.465 103.411C86.3013 103.016 86.217 102.592 86.217 102.165C86.217 103.028 85.874 103.856 85.2636 104.466C84.6532 105.077 83.8252 105.42 82.9619 105.42Z" fill="#34A3DA"/>
</svg>