<svg width="24" height="25" viewBox="0 0 24 25" fill="none" xmlns="http://www.w3.org/2000/svg">
<path fill-rule="evenodd" clip-rule="evenodd" d="M2.80078 8.324C2.80078 5.729 4.89842 3.62207 7.49035 3.62207H17.6122C20.2044 3.62207 22.3008 5.72925 22.3008 8.324V15.2633C22.3008 17.8578 20.2046 19.9662 17.6122 19.9662H16.5439C16.171 19.9662 15.8134 20.1143 15.5495 20.3792L14.1274 21.8051C13.257 22.6793 11.8452 22.6791 10.9746 21.8055L9.55307 20.3792C9.28911 20.1143 8.93153 19.9662 8.55867 19.9662H7.49035C4.89818 19.9662 2.80078 17.858 2.80078 15.2633V8.324ZM7.49035 5.12207C5.73114 5.12207 4.30078 6.55313 4.30078 8.324V15.2633C4.30078 17.0344 5.73138 18.4662 7.49035 18.4662H8.55867C9.33003 18.4662 10.07 18.7729 10.6155 19.3203L12.037 20.7467C12.3221 21.0327 12.7806 21.0321 13.0641 20.7471L14.487 19.3203C14.487 19.3204 14.4871 19.3203 14.487 19.3203C15.0325 18.7731 15.7726 18.4662 16.5439 18.4662H17.6122C19.3709 18.4662 20.8008 17.0346 20.8008 15.2633V8.324C20.8008 6.55289 19.3712 5.12207 17.6122 5.12207H7.49035Z" fill="white" fill-opacity="0.5"/>
<path fill-rule="evenodd" clip-rule="evenodd" d="M8.60938 13.4893C8.60938 13.0751 8.94515 12.7393 9.35938 12.7393H13.0216C13.4359 12.7393 13.7716 13.0751 13.7716 13.4893C13.7716 13.9035 13.4359 14.2393 13.0216 14.2393H9.35938C8.94515 14.2393 8.60938 13.9035 8.60938 13.4893Z" fill="white" fill-opacity="0.5"/>
<path fill-rule="evenodd" clip-rule="evenodd" d="M8.60938 9.66504C8.60938 9.25083 8.94515 8.91504 9.35938 8.91504H15.7421C16.1563 8.91504 16.4921 9.25083 16.4921 9.66504C16.4921 10.0793 16.1563 10.415 15.7421 10.415H9.35938C8.94515 10.415 8.60938 10.0793 8.60938 9.66504Z" fill="white" fill-opacity="0.5"/>
</svg>
