<svg width="16" height="16" viewBox="0 0 16 16" fill="none" xmlns="http://www.w3.org/2000/svg">
<g id="Component 96">
<path id="Star 1" d="M10.1679 2.87501C10.2337 2.7207 10.4633 2.7207 10.5291 2.87501C11.54 5.24465 13.4284 7.13301 15.798 8.14393C15.9523 8.20976 15.9523 8.43934 15.798 8.50517C13.4284 9.51609 11.54 11.4045 10.5291 13.7741C10.4633 13.9284 10.2337 13.9284 10.1679 13.7741C9.15694 11.4045 7.26857 9.51609 4.89893 8.50517C4.74463 8.43934 4.74463 8.20976 4.89893 8.14393C7.26857 7.13301 9.15694 5.24465 10.1679 2.87501Z" fill="white"/>
<path id="Star 2" d="M2.56621 9.48679C2.59758 9.41326 2.707 9.41326 2.73837 9.48679C3.22015 10.6161 4.1201 11.5161 5.24942 11.9978C5.32296 12.0292 5.32296 12.1386 5.24942 12.17C4.1201 12.6518 3.22015 13.5517 2.73837 14.6811C2.707 14.7546 2.59758 14.7546 2.56621 14.6811C2.08443 13.5517 1.18447 12.6518 0.0551536 12.17C-0.0183843 12.1386 -0.0183847 12.0292 0.0551533 11.9978C1.18447 11.5161 2.08443 10.6161 2.56621 9.48679Z" fill="white"/>
<path id="Star 3" d="M4.72422 1.30014C4.74552 1.25021 4.81981 1.25021 4.84111 1.30014C5.16821 2.06688 5.77922 2.67789 6.54595 3.00499C6.59588 3.02628 6.59588 3.10057 6.54595 3.12187C5.77922 3.44897 5.16821 4.05998 4.84111 4.82671C4.81981 4.87664 4.74552 4.87664 4.72422 4.82671C4.39713 4.05998 3.78611 3.44897 3.01938 3.12187C2.96945 3.10057 2.96945 3.02629 3.01938 3.00499C3.78611 2.67789 4.39713 2.06688 4.72422 1.30014Z" fill="white"/>
</g>
</svg>
