<svg width="24" height="25" viewBox="0 0 24 25" fill="none" xmlns="http://www.w3.org/2000/svg">
<g id="Chat 3">
<path id="Vector" fill-rule="evenodd" clip-rule="evenodd" d="M2.5 8.22925C2.5 5.63426 4.59764 3.52734 7.18957 3.52734H17.3114C19.9036 3.52734 22 5.6345 22 8.22925V15.1685C22 17.7631 19.9038 19.8714 17.3114 19.8714H16.2431C15.8702 19.8714 15.5126 20.0196 15.2487 20.2845L13.8266 21.7103C12.9562 22.5845 11.5444 22.5843 10.6738 21.7108L9.25229 20.2845C8.98833 20.0196 8.63075 19.8714 8.25789 19.8714H7.18957C4.5974 19.8714 2.5 17.7633 2.5 15.1685V8.22925ZM7.18957 5.02734C5.43036 5.02734 4 6.45839 4 8.22925V15.1685C4 16.9396 5.4306 18.3714 7.18957 18.3714H8.25789C9.02925 18.3714 9.76919 18.6782 10.3147 19.2256L11.7363 20.6519C12.0213 20.938 12.4798 20.9373 12.7633 20.6524L14.1862 19.2256C14.1862 19.2257 14.1863 19.2255 14.1862 19.2256C14.7318 18.6783 15.4718 18.3714 16.2431 18.3714H17.3114C19.0701 18.3714 20.5 16.9399 20.5 15.1685V8.22925C20.5 6.45815 19.0704 5.02734 17.3114 5.02734H7.18957Z" fill="white" fill-opacity="0.5"/>
<path id="Vector_2" fill-rule="evenodd" clip-rule="evenodd" d="M9.42188 9.83398C9.83608 9.83398 10.1719 10.1698 10.1719 10.584V13.4571C10.1719 13.8713 9.83608 14.2071 9.42188 14.2071C9.00765 14.2071 8.67188 13.8713 8.67188 13.4571V10.584C8.67188 10.1698 9.00765 9.83398 9.42188 9.83398ZM15.0782 9.83398C15.4924 9.83398 15.8282 10.1698 15.8282 10.584V13.4571C15.8282 13.8713 15.4924 14.2071 15.0782 14.2071C14.664 14.2071 14.3282 13.8713 14.3282 13.4571V10.584C14.3282 10.1698 14.664 9.83398 15.0782 9.83398Z" fill="white" fill-opacity="0.5"/>
</g>
</svg>
