<svg width="25" height="26" viewBox="0 0 25 26" fill="none" xmlns="http://www.w3.org/2000/svg">
	<path d="M4.79388 15.6519V10.3477H5.2037L7.80755 15.6519H8.2898V10.3477M11.1846 15.6519V13.4669M11.1846 13.4669V10.3477H14.0777M11.1846 13.4669H13.5955M16.6487 10.3477H18.5775M18.5775 10.3477H20.5063M18.5775 10.3477V15.6519M1.64258 8.7359V17.2641C1.64258 18.5045 2.3043 19.6506 3.37848 20.2708L10.7641 24.5349C11.8383 25.155 13.1617 25.155 14.2359 24.5349L21.6216 20.2708C22.6957 19.6506 23.3575 18.5045 23.3575 17.2641V8.7359C23.3575 7.49555 22.6957 6.34941 21.6216 5.72923L14.2359 1.46513C13.1617 0.844956 11.8383 0.844955 10.7641 1.46513L3.37848 5.72923C2.3043 6.34941 1.64258 7.49554 1.64258 8.7359Z" stroke="white" stroke-width="2" stroke-linecap="square" />
</svg>
