<svg width="24" height="25" viewBox="0 0 24 25" fill="none" xmlns="http://www.w3.org/2000/svg">
<g id="Chat 1">
<path id="Vector" fill-rule="evenodd" clip-rule="evenodd" d="M8.35402 20.1045L9.45339 21.2039C9.89995 21.6504 10.6238 21.6504 11.0704 21.2039L12.1697 20.1045C12.483 19.7912 12.9072 19.6161 13.3499 19.6161H14.1768C15.859 19.6161 17.223 18.2521 17.223 16.569V11.22C17.223 9.53784 15.859 8.17383 14.1768 8.17383H6.3479C4.66479 8.17383 3.30078 9.53784 3.30078 11.22V16.569C3.30078 18.2521 4.66479 19.6161 6.3479 19.6161H7.17389C7.61656 19.6161 8.04074 19.7912 8.35402 20.1045Z" stroke="white" stroke-opacity="0.5" stroke-width="1.5" stroke-linecap="round" stroke-linejoin="round"/>
<path id="Vector_2" d="M7.37891 8.17409V7.39577C7.37891 5.7146 8.74096 4.35352 10.4289 4.35352H18.2579C19.939 4.35352 21.3011 5.7146 21.3011 7.39577V12.7457C21.3011 14.4337 19.939 15.7948 18.2579 15.7948H17.4319C17.3618 15.7948 17.2927 15.8026 17.2227 15.8094" stroke="white" stroke-opacity="0.5" stroke-width="1.5" stroke-linecap="round" stroke-linejoin="round"/>
<path id="Vector_3" d="M12.4541 14.0254V14.0952M12.737 14.0404C12.737 14.1975 12.6095 14.3249 12.4524 14.3249C12.2953 14.3249 12.168 14.1975 12.168 14.0404C12.168 13.8832 12.2953 13.7559 12.4524 13.7559C12.6095 13.7559 12.737 13.8832 12.737 14.0404Z" stroke="white" stroke-opacity="0.5" stroke-width="1.5" stroke-linecap="round" stroke-linejoin="round"/>
<path id="Vector_4" d="M7.76858 14.0254V14.0952M8.05144 14.0404C8.05144 14.1975 7.92397 14.3249 7.76685 14.3249C7.60972 14.3249 7.48242 14.1975 7.48242 14.0404C7.48242 13.8832 7.60972 13.7559 7.76685 13.7559C7.92397 13.7559 8.05144 13.8832 8.05144 14.0404Z" stroke="white" stroke-opacity="0.5" stroke-width="1.5" stroke-linecap="round" stroke-linejoin="round"/>
</g>
</svg>
