<svg width="24" height="25" viewBox="0 0 24 25" fill="none" xmlns="http://www.w3.org/2000/svg">
<path fill-rule="evenodd" clip-rule="evenodd" d="M3.9902 4.82413C4.97468 3.76793 6.37669 3.17676 8.03216 3.17676H16.4669C18.1262 3.17676 19.5288 3.7676 20.5129 4.82441C21.4913 5.87517 22 7.32565 22 8.95314V16.9004C22 18.5279 21.4913 19.9784 20.5127 21.0292C19.5285 22.086 18.1256 22.6768 16.4659 22.6768H8.03216C6.3728 22.6768 4.97038 22.0859 3.98657 21.0291C3.00842 19.9783 2.5 18.5278 2.5 16.9004V8.95314C2.5 7.32482 3.01117 5.87447 3.9902 4.82413ZM5.08745 5.84688C4.41024 6.57342 4 7.63627 4 8.95314V16.9004C4 18.2182 4.40861 19.2809 5.08451 20.007C5.75475 20.7271 6.74341 21.1768 8.03216 21.1768H16.4659C17.7552 21.1768 18.7444 20.727 19.415 20.0069C20.0912 19.2808 20.5 18.2181 20.5 16.9004V8.95314C20.5 7.63544 20.0912 6.57273 19.4151 5.8466C18.7446 5.12651 17.7556 4.67676 16.4669 4.67676H8.03216C6.74828 4.67676 5.75921 5.12619 5.08745 5.84688Z" fill="white" fill-opacity="0.5"/>
<path fill-rule="evenodd" clip-rule="evenodd" d="M7.56445 10.3213C7.56445 9.90708 7.90024 9.57129 8.31445 9.57129H8.61899C9.03321 9.57129 9.36899 9.90708 9.36899 10.3213C9.36899 10.7355 9.03321 11.0713 8.61899 11.0713H8.31445C7.90024 11.0713 7.56445 10.7355 7.56445 10.3213ZM11.125 10.3213C11.125 9.90708 11.4608 9.57129 11.875 9.57129H16.1853C16.5995 9.57129 16.9353 9.90708 16.9353 10.3213C16.9353 10.7355 16.5995 11.0713 16.1853 11.0713H11.875C11.4608 11.0713 11.125 10.7355 11.125 10.3213ZM7.56445 15.5302C7.56445 15.1159 7.90024 14.7802 8.31445 14.7802H8.61899C9.03321 14.7802 9.36899 15.1159 9.36899 15.5302C9.36899 15.9444 9.03321 16.2802 8.61899 16.2802H8.31445C7.90024 16.2802 7.56445 15.9444 7.56445 15.5302ZM11.125 15.5302C11.125 15.1159 11.4608 14.7802 11.875 14.7802H16.1853C16.5995 14.7802 16.9353 15.1159 16.9353 15.5302C16.9353 15.9444 16.5995 16.2802 16.1853 16.2802H11.875C11.4608 16.2802 11.125 15.9444 11.125 15.5302Z" fill="white" fill-opacity="0.5"/>
</svg>
