<svg width="25" height="24" viewBox="0 0 25 24" fill="none" xmlns="http://www.w3.org/2000/svg">
	<path d="M6.7424 22V14.1212M6.7424 5.0303V2M18.2575 22V18.9697M18.2575 9.87877V2M7.66991 14.1212H5.81363C4.82063 14.1212 4.01514 13.3187 4.01514 12.3284V6.82195C4.01514 5.83155 4.82063 5.0303 5.81363 5.0303H7.66991C8.66411 5.0303 9.46959 5.83155 9.46959 6.82195V12.3284C9.46959 13.3187 8.66411 14.1212 7.66991 14.1212ZM19.185 18.9697H17.3288C16.3357 18.9697 15.5303 18.1672 15.5303 17.1769V11.6705C15.5303 10.68 16.3357 9.87877 17.3288 9.87877H19.185C20.1792 9.87877 20.9847 10.68 20.9847 11.6705V17.1769C20.9847 18.1672 20.1792 18.9697 19.185 18.9697Z" stroke="white" stroke-width="2" stroke-linecap="square" />
</svg>
