<svg width="25" height="24" viewBox="0 0 25 24" fill="none" xmlns="http://www.w3.org/2000/svg">
	<path d="M16.25 10.3327L21.6667 7.83274M15.4173 14.9173L19.5839 19.0839M12.5 7.83333V2M12.5 2C6.97715 2 2.5 6.47715 2.5 12C2.5 17.5228 6.97715 22 12.5 22C18.0228 22 22.5 17.5228 22.5 12C22.5 6.47715 18.0228 2 12.5 2ZM16.5909 11.9998C16.5909 14.2592 14.7593 16.0907 12.5 16.0907C10.2407 16.0907 8.40909 14.2592 8.40909 11.9998C8.40909 9.74048 10.2407 7.90891 12.5 7.90891C14.7593 7.90891 16.5909 9.74048 16.5909 11.9998Z" stroke="white" stroke-width="2" />
</svg>
