<svg width="25" height="24" viewBox="0 0 25 24" fill="none" xmlns="http://www.w3.org/2000/svg">
	<path d="M12.4408 10.8758V7.14793M12.4408 7.14793C13.748 7.14793 14.8076 6.08812 14.8076 4.78093C14.8076 3.47375 13.748 2.41406 12.4408 2.41406C11.1336 2.41406 10.0739 3.47375 10.0739 4.78093C10.0739 6.08812 11.1336 7.14793 12.4408 7.14793ZM14.6893 12.4145L17.9438 11.4677M10.2514 12.4145L6.99695 11.4677M13.8018 15.1359L15.6361 17.4436M11.1389 15.1359L9.30459 17.4436M22.5 10.5798C22.5 11.887 21.4403 12.9467 20.1331 12.9467C18.8259 12.9467 17.7663 11.887 17.7663 10.5798C17.7663 9.27263 18.8259 8.21294 20.1331 8.21294C21.4403 8.21294 22.5 9.27263 22.5 10.5798ZM14.8076 13.1837C14.8076 14.4908 13.748 15.5505 12.4408 15.5505C11.1336 15.5505 10.0739 14.4908 10.0739 13.1837C10.0739 11.8765 11.1336 10.8168 12.4408 10.8168C13.748 10.8168 14.8076 11.8765 14.8076 13.1837ZM7.23374 10.5798C7.23374 11.887 6.17406 12.9467 4.86687 12.9467C3.55968 12.9467 2.5 11.887 2.5 10.5798C2.5 9.27263 3.55968 8.21294 4.86687 8.21294C6.17406 8.21294 7.23374 9.27263 7.23374 10.5798ZM10.0738 19.2187C10.0738 20.5259 9.01409 21.5856 7.7069 21.5856C6.39972 21.5856 5.34003 20.5259 5.34003 19.2187C5.34003 17.9115 6.39972 16.8519 7.7069 16.8519C9.01409 16.8519 10.0738 17.9115 10.0738 19.2187ZM19.5415 19.2187C19.5415 20.5259 18.4818 21.5856 17.1746 21.5856C15.8675 21.5856 14.8078 20.5259 14.8078 19.2187C14.8078 17.9115 15.8675 16.8519 17.1746 16.8519C18.4818 16.8519 19.5415 17.9115 19.5415 19.2187Z" stroke="white" stroke-width="2" stroke-linejoin="round" />
</svg>
