<svg width="20" height="20" viewBox="0 0 20 20" fill="none" xmlns="http://www.w3.org/2000/svg">
<path d="M6.70329 17.4992C4.97626 17.4611 3.6068 16.03 3.64491 14.303V5.54705C3.68545 3.84759 5.07842 2.49273 6.77869 2.50003H11.4878C11.9533 2.50003 12.3984 2.68895 12.7203 3.02462L15.88 6.3157C16.1848 6.63434 16.3559 7.0584 16.3559 7.49866V14.303C16.3673 16.0154 15.0198 17.4302 13.3081 17.5M6.70329 17.4992C6.72842 17.4992 6.75355 17.5 6.77869 17.5H13.3081M6.70329 17.4992C6.72842 17.4992 13.3081 17.5 13.3081 17.5" stroke="white" stroke-width="1.25" stroke-linecap="round" stroke-linejoin="round"/>
<path d="M11.8912 2.55209V4.96263C11.8905 6.13911 12.8431 7.09344 14.0196 7.09587H16.302" stroke="white" stroke-width="1.25" stroke-linecap="round" stroke-linejoin="round"/>
<path d="M7.09628 13.7348H10.8123M7.09628 10.8843H12.7022M7.09628 8.03384H9.54818" stroke="white" stroke-width="1.25" stroke-linecap="round" stroke-linejoin="round"/>
</svg>
