<svg width="20" height="20" viewBox="0 0 20 20" fill="none" xmlns="http://www.w3.org/2000/svg">
<path fill-rule="evenodd" clip-rule="evenodd" d="M13.2917 4.89054V2.59888C13.2917 2.2537 13.5715 1.97388 13.9167 1.97388C14.2618 1.97388 14.5417 2.2537 14.5417 2.59888V4.89054H14.5543C15.5802 4.89054 16.4166 5.71845 16.4166 6.74731V11.783C16.4166 12.8113 15.5807 13.6406 14.5543 13.6406H14.5417V15.9323C14.5417 16.2774 14.2618 16.5573 13.9167 16.5573C13.5715 16.5573 13.2917 16.2774 13.2917 15.9323V13.6406H13.2782C12.2522 13.6406 11.4167 12.811 11.4167 11.783V6.74731C11.4167 5.71872 12.2527 4.89054 13.2782 4.89054H13.2917ZM13.9167 6.14054H13.2782C12.9381 6.14054 12.6667 6.41409 12.6667 6.74731V11.783C12.6667 12.1168 12.9387 12.3906 13.2782 12.3906H13.9167H14.5543C14.8949 12.3906 15.1666 12.1164 15.1666 11.783V6.74731C15.1666 6.41436 14.8954 6.14054 14.5543 6.14054H13.9167Z" fill="white" fill-opacity="0.96"/>
<path fill-rule="evenodd" clip-rule="evenodd" d="M5.375 6.55722V4.26555C5.375 3.92037 5.65483 3.64055 6 3.64055C6.34518 3.64055 6.625 3.92037 6.625 4.26555V6.55722H6.63767C7.66357 6.55722 8.49992 7.38512 8.49992 8.41401V13.4497C8.49992 14.478 7.6641 15.3073 6.63767 15.3073H6.625V17.5989C6.625 17.9441 6.34518 18.2239 6 18.2239C5.65483 18.2239 5.375 17.9441 5.375 17.5989V15.3073H5.36147C4.33558 15.3073 3.5 14.4777 3.5 13.4497V8.41401C3.5 7.38539 4.33612 6.55722 5.36147 6.55722H5.375ZM6 7.80722H5.36147C5.02144 7.80722 4.75 8.08077 4.75 8.41401V13.4497C4.75 13.7834 5.02198 14.0573 5.36147 14.0573H5.9989C5.99926 14.0573 5.99963 14.0573 6 14.0573C6.00037 14.0573 6.00074 14.0573 6.0011 14.0573H6.63767C6.97824 14.0573 7.24995 13.7831 7.24995 13.4497V8.41401C7.24995 8.08103 6.97878 7.80722 6.63767 7.80722H6Z" fill="white" fill-opacity="0.96"/>
</svg>
