<svg width="12" height="12" viewBox="0 0 12 12" fill="none" xmlns="http://www.w3.org/2000/svg">
<rect width="12" height="12" rx="6" fill="#9747FF" fill-opacity="0.1"/>
<g clip-path="url(#clip0_14761_2036)">
<path d="M8.98133 3.7613L8.239 3.01863C8.1547 2.93208 8.05365 2.86361 7.94201 2.81742C7.83036 2.77122 7.71048 2.74827 7.58967 2.74997C7.46905 2.74977 7.3496 2.77354 7.23825 2.81989C7.12689 2.86624 7.02585 2.93425 6.941 3.01997L2.823 7.15697C2.79981 7.18009 2.78141 7.20758 2.76889 7.23784C2.75636 7.2681 2.74994 7.30054 2.75 7.3333V8.99997C2.75 9.06627 2.77634 9.12986 2.82322 9.17674C2.87011 9.22363 2.9337 9.24997 3 9.24997H4.66667C4.73272 9.24989 4.79607 9.22378 4.843 9.1773L8.98 5.05897C9.06536 4.97384 9.13308 4.87272 9.17928 4.76138C9.22549 4.65004 9.24928 4.53068 9.24928 4.41013C9.24928 4.28959 9.22549 4.17022 9.17928 4.05889C9.13308 3.94755 9.06536 3.84642 8.98 3.7613H8.98133ZM4.56333 8.74997H3.25V7.43663L6.24767 4.42497L7.575 5.7523L4.56333 8.74997ZM8.62733 4.70463L7.92933 5.39997L6.6 4.07063L7.295 3.37263C7.33357 3.33363 7.37952 3.3027 7.43017 3.28164C7.48082 3.26058 7.53515 3.24981 7.59 3.24997C7.64479 3.2498 7.69908 3.2605 7.74971 3.28144C7.80035 3.30238 7.84633 3.33315 7.885 3.37197L8.62767 4.11463C8.66643 4.15336 8.69718 4.19935 8.71816 4.24996C8.73914 4.30058 8.74994 4.35484 8.74994 4.40963C8.74994 4.46443 8.73914 4.51868 8.71816 4.5693C8.69718 4.61992 8.6661 4.6659 8.62733 4.70463Z" fill="#9747FF"/>
</g>
<defs>
<clipPath id="clip0_14761_2036">
<rect width="8" height="8" fill="white" transform="translate(2 2)"/>
</clipPath>
</defs>
</svg>
