<svg width="12" height="13" viewBox="0 0 12 13" fill="none" xmlns="http://www.w3.org/2000/svg">
<g id="shield-check 1">
<g id="Group">
<path id="1715783897698-5306065_shield-check" d="M6.009 1.5C4.5961 2.23841 3.07367 2.74487 1.5 3V5.9445C1.5 9.278 4.3335 10.9445 6 11.5C7.6665 10.9445 10.5 9.278 10.5 5.9445V3C8.93107 2.74884 7.41395 2.24212 6.009 1.5ZM7.771 5.765L5.771 7.765C5.73617 7.79985 5.69482 7.82749 5.64931 7.84635C5.6038 7.86521 5.55502 7.87492 5.50575 7.87492C5.45648 7.87492 5.4077 7.86521 5.36219 7.84635C5.31668 7.82749 5.27533 7.79985 5.2405 7.765L4.2405 6.765C4.17222 6.69424 4.13447 6.5995 4.13537 6.50117C4.13627 6.40285 4.17575 6.30881 4.24531 6.23932C4.31488 6.16982 4.40895 6.13043 4.50727 6.12962C4.6056 6.12881 4.70031 6.16666 4.771 6.235L5.506 6.9695L7.2405 5.235C7.31119 5.16666 7.4059 5.12881 7.50423 5.12962C7.60255 5.13043 7.69662 5.16982 7.76619 5.23932C7.83575 5.30881 7.87523 5.40285 7.87613 5.50117C7.87703 5.5995 7.83928 5.69424 7.771 5.765Z" fill="#00FFA3"/>
</g>
</g>
</svg>
