<svg width="12" height="13" viewBox="0 0 12 13" fill="none" xmlns="http://www.w3.org/2000/svg">
<g id="triangle-exclamation 1">
<g id="Group">
<path id="1715783897702-6171984_triangle-exclamation" d="M10.8032 9.076L7.49971 2.9C7.35471 2.62813 7.13856 2.40079 6.87435 2.24226C6.61015 2.08374 6.30782 2 5.99971 2C5.69159 2 5.38927 2.08374 5.12507 2.24226C4.86086 2.40079 4.6447 2.62813 4.49971 2.9L1.19671 9.076C1.06317 9.32741 0.996949 9.6091 1.00448 9.89368C1.01202 10.1783 1.09306 10.456 1.23971 10.7C1.38637 10.944 1.59366 11.1459 1.84143 11.2861C2.08921 11.4263 2.36903 11.5 2.65371 11.5H9.34571C9.63043 11.5001 9.91032 11.4264 10.1582 11.2863C10.406 11.1461 10.6134 10.9443 10.7601 10.7002C10.9068 10.4562 10.9879 10.1784 10.9954 9.8938C11.003 9.60918 10.9368 9.32745 10.8032 9.076ZM5.62471 5.5C5.62471 5.40054 5.66422 5.30516 5.73454 5.23484C5.80487 5.16451 5.90025 5.125 5.99971 5.125C6.09917 5.125 6.19455 5.16451 6.26487 5.23484C6.3352 5.30516 6.37471 5.40054 6.37471 5.5V7.5C6.37471 7.59946 6.3352 7.69484 6.26487 7.76516C6.19455 7.83549 6.09917 7.875 5.99971 7.875C5.90025 7.875 5.80487 7.83549 5.73454 7.76516C5.66422 7.69484 5.62471 7.59946 5.62471 7.5V5.5ZM6.00971 9.5C5.94405 9.50033 5.87897 9.48772 5.81818 9.4629C5.75739 9.43807 5.70209 9.40152 5.65542 9.35532C5.56119 9.26202 5.50787 9.13511 5.50721 9.0025C5.50655 8.86989 5.55859 8.74245 5.65189 8.64821C5.74519 8.55398 5.8721 8.50066 6.00471 8.5H6.00971C6.14232 8.5 6.26949 8.55268 6.36326 8.64645C6.45703 8.74021 6.50971 8.86739 6.50971 9C6.50971 9.13261 6.45703 9.25979 6.36326 9.35355C6.26949 9.44732 6.14232 9.5 6.00971 9.5Z" fill="#FFA500"/>
</g>
</g>
</svg>
