<svg width="16" height="16" viewBox="0 0 16 16" fill="none" xmlns="http://www.w3.org/2000/svg">
<g id="edit-pen 1" clip-path="url(#clip0_3230_7361)">
<g id="Group">
<path id="Vector" d="M12.1167 6.11646L9.88403 3.88379" stroke="#131920" stroke-linecap="round" stroke-linejoin="round"/>
<path id="Vector_2" d="M13.3333 8.6665V9.99984C13.3333 10.8839 12.9821 11.7317 12.357 12.3569C11.7319 12.982 10.884 13.3332 9.99996 13.3332H5.99996C5.1159 13.3332 4.26806 12.982 3.64294 12.3569C3.01782 11.7317 2.66663 10.8839 2.66663 9.99984V5.99984C2.66663 5.11578 3.01782 4.26794 3.64294 3.64281C4.26806 3.01769 5.1159 2.6665 5.99996 2.6665H7.33329" stroke="#131920" stroke-linecap="round" stroke-linejoin="round"/>
<path id="Vector_3" d="M8.44337 9.33415H7.33317C7.15636 9.33415 6.98679 9.26391 6.86177 9.13888C6.73674 9.01386 6.6665 8.84429 6.6665 8.66748V7.55621C6.6665 7.41174 6.69496 7.26869 6.75026 7.13522C6.80555 7.00175 6.88659 6.88048 6.98876 6.77833L10.6378 3.12989C10.9339 2.83381 11.3355 2.66748 11.7543 2.66748C12.173 2.66748 12.5746 2.83381 12.8707 3.12989C13.0173 3.27651 13.1336 3.45057 13.213 3.64214C13.2924 3.83371 13.3332 4.03903 13.3332 4.24639C13.3332 4.45374 13.2924 4.65907 13.213 4.85064C13.1336 5.04221 13.0173 5.21627 12.8707 5.36289L9.22117 9.01199C9.01488 9.21827 8.7351 9.33415 8.44337 9.33415Z" stroke="#131920" stroke-linecap="round" stroke-linejoin="round"/>
</g>
</g>
<defs>
<clipPath id="clip0_3230_7361">
<rect width="16" height="16" fill="white"/>
</clipPath>
</defs>
</svg>
