<svg width="74" height="100" viewBox="0 0 74 100" fill="none" xmlns="http://www.w3.org/2000/svg">
<g id="Airdrop 2">
<path id="Union" fill-rule="evenodd" clip-rule="evenodd" d="M1.4438 30.9455C4.03511 14.0726 18.6808 1.16962 36.3394 1.16962C54.0032 1.16962 68.6488 14.0724 71.2404 30.9455L65.6071 30.9455C63.079 17.1795 50.9458 6.72517 36.3394 6.72517C21.7385 6.72517 9.60489 17.1793 7.07713 30.9455L1.4438 30.9455ZM7.07702 30.9461L7.07713 30.9455L65.6071 30.9455L65.6072 30.946L7.07702 30.9461ZM36.3398 32.7486H6.89271C6.87251 32.429 6.88592 32.1078 6.93481 31.7899L6.9349 31.7893C6.97827 31.5069 7.02566 31.2258 7.07702 30.9461L1.44371 30.9461C1.14535 32.887 1.42973 34.8037 2.16751 36.5178C2.20455 36.6147 2.24687 36.709 2.29411 36.8004C3.07667 38.4807 4.29984 39.9511 5.83672 41.0365L27.7768 59.9965C28.9376 60.9996 30.6917 60.8718 31.6948 59.711C32.6979 58.5503 32.5701 56.7961 31.4093 55.793L11.1716 38.3041H33.5643V54.6587C33.5643 56.1929 34.808 57.4365 36.3421 57.4365C37.8762 57.4365 39.1199 56.1929 39.1199 54.6587V38.3041H61.5034L41.2395 55.7285C40.0762 56.7288 39.9441 58.4826 40.9443 59.6458C41.9445 60.809 43.6984 60.9412 44.8616 59.9409L66.8444 41.0386C68.3822 39.9534 69.6062 38.4826 70.3894 36.8017C70.4371 36.7095 70.4798 36.6143 70.5172 36.5165C71.2546 34.8028 71.5388 32.8865 71.2405 30.946L65.6072 30.946C65.6586 31.2258 65.706 31.5069 65.7494 31.7894L65.7494 31.7899C65.7983 32.1078 65.8117 32.429 65.7915 32.7486H36.3444C36.3436 32.7486 36.3429 32.7486 36.3421 32.7486C36.3413 32.7486 36.3405 32.7486 36.3398 32.7486Z" fill="url(#paint0_linear_7084_66717)"/>
<path id="Vector" d="M24.7964 57.9392L47.7919 57.8948C54.4817 57.8797 58.6527 62.7344 58.6674 69.6199L58.7105 84.228C58.7296 91.1135 54.5777 95.993 47.8879 96.0081L24.8924 96.0526C18.2028 96.0723 14.0314 91.213 14.0122 84.3275L13.9738 69.7239C13.9545 62.8334 18.1259 57.9589 24.7964 57.9392Z" fill="#17181A" stroke="white" stroke-width="6.66667" stroke-miterlimit="10" stroke-linecap="round"/>
<path id="Vector_2" d="M31.0789 72.3684H41.6838" stroke="white" stroke-width="5.55556" stroke-linecap="round" stroke-linejoin="round"/>
</g>
<defs>
<linearGradient id="paint0_linear_7084_66717" x1="48.7184" y1="60.1436" x2="15.7658" y2="0.984686" gradientUnits="userSpaceOnUse">
<stop stop-color="#556DED"/>
<stop offset="1" stop-color="#B630D8"/>
</linearGradient>
</defs>
</svg>
