<?xml version="1.0" encoding="utf-8"?>
<svg viewBox="34.659 0 112.341 112.375" fill="none" xmlns="http://www.w3.org/2000/svg">
  <defs>

    <clipPath id="clip0_5459_6770">
      <rect width="112" height="112" fill="white" transform="translate(35)"/>
    </clipPath>
    <linearGradient id="paint0_linear_5459_6770" x1="13.5" y1="-12" x2="149.858" y2="109.476" gradientUnits="userSpaceOnUse">
      <stop stop-color="#FF00C7"/>
      <stop offset="1" stop-color="#00A3FF"/>
    </linearGradient>
    <linearGradient id="paint1_linear_5459_6770" x1="103.782" y1="45.9667" x2="98.0985" y2="61.1502" gradientUnits="userSpaceOnUse">
      <stop stop-color="#5B607B"/>
      <stop offset="1" stop-color="#30333F"/>
    </linearGradient>
  </defs>
  <g clip-path="url(#clip0_5459_6770)" filter="url(#filter0_dddd_5459_6770)" transform="matrix(1, 0, 0, 1, 0, -1.7763568394002505e-15)">
    <path d="M109.667 14H72.3333C59.4467 14 49 24.4467 49 37.3334V74.6667C49 87.5534 59.4467 98 72.3333 98H109.667C122.553 98 133 87.5534 133 74.6667V37.3334C133 24.4467 122.553 14 109.667 14Z" fill="#17181A" stroke="url(#paint0_linear_5459_6770)" stroke-width="6" stroke-linecap="round" stroke-linejoin="round"/>
    <path d="M67.667 42V70" stroke="white" stroke-width="6" stroke-linecap="round" stroke-linejoin="round"/>
    <path d="M86.333 42L93.7334 49.4004" stroke="#4D5167" stroke-width="6" stroke-linecap="round" stroke-linejoin="round"/>
    <path d="M114.333 70.0001L106.933 62.5997" stroke="#343744" stroke-width="6" stroke-linecap="round" stroke-linejoin="round"/>
    <path d="M86.333 70.0001L93.7334 62.5997" stroke="#313340" stroke-width="6" stroke-linecap="round" stroke-linejoin="round"/>
    <path d="M114.333 42L106.933 49.4004" stroke="#5B607B" stroke-width="6" stroke-linecap="round" stroke-linejoin="round"/>
    <path d="M100.333 65.3334C105.488 65.3334 109.667 61.1547 109.667 56.0001C109.667 50.8454 105.488 46.6667 100.333 46.6667C95.1787 46.6667 91 50.8454 91 56.0001C91 61.1547 95.1787 65.3334 100.333 65.3334Z" fill="#17181A" stroke="url(#paint1_linear_5459_6770)" stroke-width="6" stroke-linecap="round" stroke-linejoin="round"/>
  </g>
</svg>
