<svg width="20" height="20" viewBox="0 0 20 20" fill="none" xmlns="http://www.w3.org/2000/svg">
  <g clip-path="url(#clip0_5834_28947)">
    <path d="M12.8774 9.28906C12.0943 10.0139 11.0666 10.4166 9.9995 10.4166C8.93244 10.4166 7.90467 10.0139 7.12158 9.28906" stroke="white" stroke-linecap="round" stroke-linejoin="round"/>
    <path d="M2.5 17.0826C2.50001 17.1607 2.52198 17.2373 2.56341 17.3035C2.60483 17.3697 2.66404 17.423 2.73428 17.4572C2.80452 17.4914 2.88296 17.5052 2.96064 17.4969C3.03833 17.4887 3.11213 17.4587 3.17363 17.4106L6.25 15H15C15.663 15 16.2989 14.7366 16.7678 14.2678C17.2366 13.7989 17.5 13.163 17.5 12.5V5C17.5 4.33696 17.2366 3.70107 16.7678 3.23223C16.2989 2.76339 15.663 2.5 15 2.5H5C4.33696 2.5 3.70107 2.76339 3.23223 3.23223C2.76339 3.70107 2.5 4.33696 2.5 5V17.0826Z" stroke="white" stroke-linecap="round" stroke-linejoin="round"/>
  </g>
  <defs>
    <clipPath id="clip0_5834_28947">
      <rect width="20" height="20" fill="white"/>
    </clipPath>
  </defs>
</svg>
