<svg width="24" height="24" viewBox="0 0 24 24" fill="none" xmlns="http://www.w3.org/2000/svg">
<g id="Property 1=Default">
<path id="Vector" fill-rule="evenodd" clip-rule="evenodd" d="M21.1143 12.0723C18.3744 12.9605 16.2267 15.1082 15.3384 17.8493C14.4501 15.1082 12.3024 12.9605 9.56252 12.0723C12.3024 11.184 14.4501 9.03627 15.3384 6.29639C16.2267 9.03627 18.3744 11.184 21.1143 12.0723Z" stroke="white" stroke-opacity="0.96" stroke-width="1.5" stroke-linecap="round" stroke-linejoin="round"/>
<path id="Vector_2" fill-rule="evenodd" clip-rule="evenodd" d="M8.9834 5.56871C8.02756 5.87858 7.27832 6.62783 6.96842 7.58409C6.65852 6.62783 5.90927 5.87858 4.95343 5.56871C5.90927 5.2588 6.65852 4.50955 6.96842 3.55371C7.27832 4.50955 8.02756 5.2588 8.9834 5.56871Z" fill="white" fill-opacity="0.96" stroke="white" stroke-opacity="0.96" stroke-width="1.5" stroke-linecap="round" stroke-linejoin="round"/>
<path id="Vector_3" fill-rule="evenodd" clip-rule="evenodd" d="M9.09276 17.4563C7.67476 17.916 6.56326 19.0275 6.10352 20.4462C5.64377 19.0275 4.53225 17.916 3.11424 17.4563C4.53225 16.9966 5.64377 15.885 6.10352 14.467C6.56326 15.885 7.67476 16.9966 9.09276 17.4563Z" stroke="white" stroke-opacity="0.96" stroke-width="1.5" stroke-linecap="round" stroke-linejoin="round"/>
</g>
</svg>
