<?xml version="1.0" encoding="utf-8"?>
<svg viewBox="21.634 -3.485 145.623 122.452" fill="none" xmlns="http://www.w3.org/2000/svg">
  <defs>

    <linearGradient id="paint0_linear_5459_6804" x1="41" y1="33" x2="66.0936" y2="131.24" gradientUnits="userSpaceOnUse">
      <stop stop-color="#FF00C7"/>
      <stop offset="1" stop-color="#00A3FF"/>
    </linearGradient>
    <linearGradient id="paint1_linear_5459_6804" x1="62.1149" y1="23.2333" x2="36.3222" y2="46.2023" gradientUnits="userSpaceOnUse">
      <stop stop-color="#5B607B"/>
      <stop offset="1" stop-color="#30333F"/>
    </linearGradient>
    <linearGradient id="paint2_linear_5459_6804" x1="130.782" y1="31.0542" x2="105.964" y2="54.1155" gradientUnits="userSpaceOnUse">
      <stop stop-color="#5B607B"/>
      <stop offset="1" stop-color="#30333F"/>
    </linearGradient>
  </defs>
  <g id="candlestick-chart 1" filter="url(#filter0_dddd_5459_6804)">
    <g id="Group">
      <path id="Vector" d="M58.666 14.6V23.9333" stroke="#585D76" stroke-width="6" stroke-miterlimit="10" stroke-linecap="round"/>
      <path id="Vector_2" d="M58.666 78.7333V99.7333" stroke="#313340" stroke-width="6" stroke-miterlimit="10" stroke-linecap="round"/>
      <path id="Vector_3" d="M93 90L92.9998 99.4" stroke="white" stroke-width="6" stroke-miterlimit="10" stroke-linecap="round"/>
      <path id="Vector_4" d="M93 49.9333V26.6" stroke="white" stroke-width="6" stroke-miterlimit="10" stroke-linecap="round"/>
      <path id="Vector_5" d="M127.333 84.1333V98.1333" stroke="#313340" stroke-width="6" stroke-miterlimit="10" stroke-linecap="round"/>
      <path id="Vector_6" d="M127.333 38.6667V13" stroke="#595E78" stroke-width="6" stroke-miterlimit="10" stroke-linecap="round"/>
      <path id="Vector_7" d="M94.3327 51.3333H91.666C87.2477 51.3333 83.666 54.9151 83.666 59.3333V80.6667C83.666 85.085 87.2477 88.6667 91.666 88.6667H94.3327C98.751 88.6667 102.333 85.085 102.333 80.6667V59.3333C102.333 54.9151 98.751 51.3333 94.3327 51.3333Z" fill="#17181A" stroke="url(#paint0_linear_5459_6804)" stroke-width="6" stroke-linecap="round" stroke-linejoin="round"/>
      <path id="Vector_8" d="M59.9997 25.3333H57.333C52.9147 25.3333 49.333 28.9151 49.333 33.3333V73.3333C49.333 77.7516 52.9147 81.3333 57.333 81.3333H59.9997C64.418 81.3333 67.9997 77.7516 67.9997 73.3333V33.3333C67.9997 28.9151 64.418 25.3333 59.9997 25.3333Z" fill="#17181A" stroke="url(#paint1_linear_5459_6804)" stroke-width="6" stroke-linecap="round" stroke-linejoin="round"/>
      <path id="Vector_9" d="M128.667 33.0667H126C121.582 33.0667 118 36.6484 118 41.0667V78.7333C118 83.1516 121.582 86.7333 126 86.7333H128.667C133.085 86.7333 136.667 83.1516 136.667 78.7333V41.0667C136.667 36.6484 133.085 33.0667 128.667 33.0667Z" fill="#17181A" stroke="url(#paint2_linear_5459_6804)" stroke-width="6" stroke-linecap="round" stroke-linejoin="round"/>
    </g>
  </g>
</svg>
