<?xml version="1.0" encoding="utf-8"?>
<svg viewBox="44.096 6.236 101.798 99.6" fill="none" xmlns="http://www.w3.org/2000/svg">
  <defs>
    <linearGradient id="paint0_linear_7084_66768" x1="-6.2" y1="-25.8372" x2="188.806" y2="140.694" gradientUnits="userSpaceOnUse">
      <stop stop-color="#FF00C7"/>
      <stop offset="1" stop-color="#00A3FF"/>
    </linearGradient>
    <linearGradient id="paint1_linear_7084_66768" x1="103.482" y1="31.9808" x2="89.7082" y2="68.7778" gradientUnits="userSpaceOnUse">
      <stop stop-color="#5B607B"/>
      <stop offset="1" stop-color="#30333F"/>
    </linearGradient>
  </defs>
  <g filter="url(#filter0_dddd_7084_66768)" transform="matrix(0.9999999999999999, 0, 0, 0.9999999999999999, 0, 1.7763568394002505e-15)">
    <path d="M49 56C49 30.5949 69.5949 10 95 10C120.405 10 141 30.5949 141 56C141 81.4051 120.405 102 95 102C69.5949 102 49 81.4051 49 56Z" fill="#17181A"/>
    <path d="M49 56C49 30.5949 69.5949 10 95 10C120.405 10 141 30.5949 141 56C141 81.4051 120.405 102 95 102C69.5949 102 49 81.4051 49 56Z" stroke="url(#paint0_linear_7084_66768)" stroke-width="6" stroke-linecap="round" stroke-linejoin="round"/>
    <path d="M73.9111 77.5096C76.4353 80.0339 79.972 78.6026 83.0521 77.5096C86.1323 76.4167 91.8951 73.6346 94.2797 73.6346C96.6643 73.6346 104.315 76.3173 106.998 77.4103C109.68 78.5032 113.664 79.8848 116.188 77.3606C118.713 74.8364 117.331 70.8526 116.238 68.1699C115.145 65.4872 112.462 57.8365 112.462 55.4519C112.462 53.0673 115.245 47.3044 116.337 44.2243C117.43 41.1442 118.862 37.6075 116.337 35.0833C113.813 32.559 110.277 33.9903 107.196 35.0833C104.116 36.1762 98.3534 38.9583 95.9688 38.9583C93.5842 38.9583 85.9335 36.2756 83.2508 35.1826C80.5681 34.0897 76.5843 32.7081 74.0601 35.2323C71.5359 37.7565 72.9175 41.7403 74.0104 44.423C75.1034 47.1057 77.7861 54.7564 77.7861 57.141C77.7861 59.5256 75.004 65.2885 73.9111 68.3686C72.8181 71.4487 71.3868 74.9854 73.9111 77.5096Z" fill="#17181A" stroke="url(#paint1_linear_7084_66768)" stroke-width="6" stroke-linecap="round" stroke-linejoin="round"/>
    <path d="M65 56C65 59.5698 68.5129 61.0585 71.4637 62.4637C74.4145 63.8688 80.4567 65.9765 82.1429 67.6627C83.829 69.3489 87.3419 76.6557 88.466 79.3255C89.5902 81.9953 91.4302 85.7892 95 85.7892C98.5698 85.7892 100.41 81.9953 101.534 79.3255C102.658 76.6557 106.171 69.3489 107.857 67.6627C109.543 65.9765 115.585 63.8688 118.536 62.4637C121.487 61.0585 125 59.5698 125 56C125 52.4302 121.487 50.9414 118.536 49.5363C115.585 48.1311 109.543 46.0234 107.857 44.3372C106.171 42.651 102.658 35.3442 101.534 32.6744C100.41 30.0046 98.5698 26.2107 95 26.2107C91.4302 26.2107 89.5902 30.0046 88.466 32.6744C87.3419 35.3442 83.829 42.651 82.1429 44.3372C80.4567 46.0234 74.4145 48.1311 71.4637 49.5363C68.5129 50.9414 65 52.4301 65 56Z" stroke="white" stroke-opacity="0.96" stroke-width="6" stroke-linecap="round" stroke-linejoin="round"/>
  </g>
</svg>