<svg width="20" height="20" viewBox="0 0 20 20" fill="none" xmlns="http://www.w3.org/2000/svg">
<g id="Group 1171277641">
<path id="Vector" d="M14.2337 3.44928L14.0655 2.97844L14.2337 3.44928C14.2797 3.43284 14.3253 3.41646 14.3706 3.4002C14.8549 3.22625 15.2972 3.06739 15.7149 3.0199C16.1427 2.97126 16.4766 3.0477 16.7577 3.33075C17.0395 3.61455 17.1163 3.95342 17.0677 4.38704C17.0204 4.8089 16.8623 5.25535 16.6897 5.74276C16.6735 5.78843 16.6572 5.83446 16.6409 5.88086C16.5357 6.17949 16.3877 6.54162 16.2249 6.93996C16.1087 7.22411 15.9851 7.52668 15.864 7.83778C15.7236 8.19874 15.5907 8.56247 15.4923 8.8917C15.3972 9.20999 15.3208 9.53929 15.3208 9.81603C15.3208 10.0819 15.3907 10.4442 15.4804 10.8125C15.5735 11.1946 15.7002 11.6302 15.8365 12.0633C16.109 12.9286 16.428 13.8084 16.6158 14.2729C16.7968 14.7201 16.978 15.2221 17.0257 15.6979C17.0725 16.1643 16.9861 16.5383 16.708 16.8183C16.4308 17.0975 16.062 17.1837 15.6015 17.1369C15.1305 17.0889 14.6331 16.9069 14.189 16.7247C13.7276 16.5354 12.8537 16.2141 11.9944 15.9397C11.5643 15.8023 11.1315 15.6747 10.7518 15.5809C10.3861 15.4905 10.0253 15.4198 9.75989 15.4198C9.48348 15.4198 9.15532 15.4972 8.83918 15.593C8.51194 15.6921 8.15053 15.8261 7.79204 15.9675C7.48281 16.0896 7.18226 16.2141 6.9001 16.3311C6.50475 16.495 6.14551 16.6439 5.8491 16.7498C5.80309 16.7662 5.75746 16.7826 5.7122 16.7989C5.22789 16.9728 4.78558 17.1317 4.36787 17.1792C3.94014 17.2278 3.60619 17.1514 3.32514 16.8683C3.04332 16.5845 2.96647 16.2457 3.01508 15.812C3.06237 15.3902 3.22048 14.9437 3.3931 14.4563C3.40927 14.4106 3.42558 14.3646 3.44192 14.3182C3.54714 14.0196 3.69514 13.6575 3.85795 13.2591C3.97407 12.975 4.09773 12.6724 4.21877 12.3613C4.3592 12.0003 4.49215 11.6366 4.5905 11.3074C4.68558 10.9891 4.76201 10.6598 4.76201 10.383C4.76201 10.1172 4.69214 9.75491 4.60238 9.38653C4.50928 9.00447 4.38262 8.56882 4.24627 8.13575C3.97385 7.27051 3.65484 6.39063 3.46697 5.92622C3.28605 5.479 3.10486 4.97702 3.05709 4.50121C3.01026 4.03473 3.09674 3.66082 3.37481 3.38078C3.65205 3.10159 4.02077 3.01532 4.48135 3.06222C4.95228 3.11016 5.44967 3.29215 5.8938 3.47438C6.35517 3.66367 7.22908 3.98501 8.08842 4.25942C8.51855 4.39676 8.95134 4.52438 9.33099 4.6182C9.69675 4.70859 10.0575 4.77925 10.3229 4.77925C10.5993 4.77925 10.9275 4.70189 11.2436 4.60611C11.5709 4.50697 11.9323 4.37299 12.2908 4.23153C12.6 4.10952 12.9005 3.98494 13.1827 3.86799C13.5781 3.70411 13.9373 3.55521 14.2337 3.44928Z" stroke="white" stroke-linecap="round" stroke-linejoin="round"/>
<path id="Vector_2" d="M2.37077 11.719C2.32667 11.6978 2.28287 11.6769 2.23942 11.6562C1.77495 11.4343 1.35043 11.2316 1.02143 10.9675C0.684165 10.6967 0.500001 10.403 0.500001 10C0.500001 9.597 0.684165 9.30325 1.02143 9.03251C1.35043 8.76841 1.77495 8.56567 2.23942 8.34385C2.28287 8.3231 2.32667 8.30218 2.37077 8.28103C2.65474 8.14485 3.01332 7.99432 3.40794 7.82866C3.68958 7.71043 3.98957 7.5845 4.2939 7.45057C4.64672 7.29531 4.99632 7.13269 5.29729 6.96979C5.58817 6.81234 5.87414 6.63353 6.06908 6.43721C6.2562 6.24877 6.46134 5.94251 6.65648 5.61818C6.85894 5.28168 7.07528 4.8834 7.28294 4.48006C7.69785 3.67423 8.09008 2.82487 8.28332 2.36268C8.46945 1.91749 8.69371 1.43376 8.99371 1.06368C9.2877 0.701018 9.60954 0.500003 10 0.500003C10.3905 0.500003 10.7123 0.701018 11.0063 1.06368C11.3063 1.43376 11.5305 1.91749 11.7167 2.36268C11.9099 2.82487 12.3021 3.67423 12.7171 4.48006C12.9247 4.8834 13.1411 5.28168 13.3435 5.61818C13.5387 5.94251 13.7438 6.24877 13.9309 6.43721C14.1259 6.63353 14.4118 6.81235 14.7027 6.96979C15.0037 7.1327 15.3533 7.29531 15.7061 7.45057C16.0104 7.5845 16.3104 7.71043 16.5921 7.82866C16.9867 7.99432 17.3453 8.14485 17.6292 8.28103C17.6733 8.30218 17.7171 8.3231 17.7606 8.34385C18.225 8.56567 18.6496 8.76841 18.9786 9.03252C19.3158 9.30326 19.5 9.59701 19.5 10C19.5 10.403 19.3158 10.6968 18.9786 10.9675C18.6496 11.2316 18.2251 11.4343 17.7606 11.6561C17.7171 11.6769 17.6733 11.6978 17.6292 11.719C17.3452 11.8552 16.9867 12.0057 16.592 12.1713C16.3104 12.2896 16.0104 12.4155 15.7061 12.5494C15.3533 12.7047 15.0037 12.8673 14.7027 13.0302C14.4118 13.1877 14.1259 13.3665 13.9309 13.5628C13.7438 13.7512 13.5387 14.0575 13.3435 14.3818C13.1411 14.7183 12.9247 15.1166 12.7171 15.5199C12.3021 16.3258 11.9099 17.1751 11.7167 17.6373C11.5305 18.0825 11.3063 18.5662 11.0063 18.9363C10.7123 19.299 10.3905 19.5 10 19.5C9.60954 19.5 9.28769 19.299 8.99371 18.9363C8.69371 18.5662 8.46945 18.0825 8.28332 17.6373C8.09008 17.1751 7.69785 16.3258 7.28294 15.5199C7.07528 15.1166 6.85894 14.7183 6.65648 14.3818C6.46134 14.0575 6.2562 13.7512 6.06908 13.5628C5.87414 13.3665 5.58817 13.1877 5.29729 13.0302C4.99632 12.8673 4.64671 12.7047 4.2939 12.5494C3.98957 12.4155 3.68958 12.2896 3.40794 12.1713C3.01333 12.0057 2.65474 11.8552 2.37077 11.719Z" stroke="white" stroke-linecap="round" stroke-linejoin="round"/>
</g>
</svg>
