<svg width="16" height="16" viewBox="0 0 16 16" fill="none" xmlns="http://www.w3.org/2000/svg">
<path d="M7.99618 14.0992C4.07454 14.7367 2.21998 12.6503 1.9482 9.72208C1.92436 9.57552 1.94052 9.42524 1.99498 9.2871C2.04943 9.14896 2.1466 9.03583 2.25761 8.93721C3.07136 8.21429 3.4285 8.01387 4.75069 8.01387H11.2417C12.8644 8.01387 12.8644 5.98544 11.2417 5.98544H10.6737C10.5993 5.98483 10.5265 5.96373 10.4633 5.92446C10.4 5.8852 10.3488 5.82927 10.3153 5.76283C10.2818 5.69638 10.2672 5.62199 10.2732 5.54781C10.2791 5.47362 10.3054 5.40251 10.3492 5.34229C10.5921 5.01702 10.9121 4.75722 11.2803 4.58623C11.6485 4.41525 12.0535 4.33843 12.4587 4.36269C12.4536 4.00699 12.5443 3.65647 12.7212 3.34785C12.8981 3.03923 13.1548 2.78386 13.4643 2.6085C13.5258 2.57075 13.5962 2.55009 13.6683 2.54866C13.7404 2.54723 13.8116 2.56509 13.8745 2.60038C13.9374 2.63566 13.9898 2.68711 14.0262 2.7494C14.0626 2.81168 14.0816 2.88255 14.0815 2.95469V9.22931C14.0429 9.91191 13.8563 10.578 13.5346 11.1813C13.2129 11.7846 12.7639 12.3107 12.2186 12.7231" stroke="white" stroke-linecap="round" stroke-linejoin="round"/>
<path d="M2.01172 10.0423H4.34523C6.37366 10.0423 5.14302 12.3571 8.80778 12.0707C8.80778 12.0707 8.93435 12.9454 10.4305 13.6935C12.0533 14.5048 12.8646 13.6935 12.8646 13.6935L11.2419 11.2594" fill="#1D262F"/>
<path d="M2.01172 10.0423H4.34523C6.37366 10.0423 5.14302 12.3571 8.80778 12.0707C8.80778 12.0707 8.93435 12.9454 10.4305 13.6935C12.0533 14.5048 12.8646 13.6935 12.8646 13.6935L11.2419 11.2594" stroke="white" stroke-linecap="round" stroke-linejoin="round"/>
<path d="M3.12891 5.26563C3.12891 4.83525 3.29987 4.4225 3.6042 4.11817C3.90852 3.81385 4.32127 3.64288 4.75165 3.64288C5.18203 3.64288 5.59478 3.81385 5.89911 4.11817C6.20343 4.4225 6.3744 4.83525 6.3744 5.26563" stroke="white" stroke-linecap="round" stroke-linejoin="round"/>
<path d="M9.61854 3.55134C9.61854 3.12096 9.44757 2.7082 9.14325 2.40388C8.83892 2.09956 8.42617 1.92859 7.99579 1.92859C7.56541 1.92859 7.15266 2.09956 6.84834 2.40388C6.54401 2.7082 6.37305 3.12096 6.37305 3.55134V6.39114" stroke="white" stroke-linecap="round" stroke-linejoin="round"/>
<path d="M7.92941 9.85716C7.92941 9.81771 7.96139 9.78573 8.00084 9.78573C8.04029 9.78573 8.07227 9.81771 8.07227 9.85716C8.07227 9.89661 8.04029 9.92859 8.00084 9.92859C7.96139 9.92859 7.92941 9.89661 7.92941 9.85716Z" fill="white" stroke="white"/>
</svg>
