<svg width="24" height="24" viewBox="0 0 24 24" fill="none" xmlns="http://www.w3.org/2000/svg">
<g clip-path="url(#clip0_7348_12378)">
<path d="M8.46402 8.464C6.51102 10.417 6.51102 13.582 8.46402 15.535C10.417 17.488 13.582 17.488 15.535 15.535C17.488 13.582 17.488 10.416 15.535 8.464C14.559 7.488 13.28 7 12 7" stroke="white" stroke-linecap="round" stroke-linejoin="round"/>
<path d="M5.63601 5.63601C2.12101 9.15101 2.12101 14.849 5.63601 18.364C9.15101 21.879 14.849 21.879 18.364 18.364C21.879 14.849 21.879 9.15101 18.364 5.63601C15.737 3.00901 11.89 2.34701 8.64701 3.64701" stroke="white" stroke-linecap="round" stroke-linejoin="round"/>
<path d="M5.64001 5.64001L12 12" stroke="white" stroke-linecap="round" stroke-linejoin="round"/>
</g>
<defs>
<clipPath id="clip0_7348_12378">
<rect width="24" height="24" fill="white"/>
</clipPath>
</defs>
</svg>
