<svg width="24" height="24" viewBox="0 0 24 24" fill="none" xmlns="http://www.w3.org/2000/svg">
<g clip-path="url(#clip0_7348_12404)">
<path d="M13 21H7C5.89543 21 5 20.1046 5 19V12C5 10.8954 5.89543 10 7 10H17C18.1046 10 19 10.8954 19 12V13" stroke="white" stroke-linecap="round" stroke-linejoin="round"/>
<path d="M15 17.9181V16.5859C15 16.3125 15.1777 16.0709 15.4386 15.9894L17.3136 15.4034C17.435 15.3655 17.565 15.3655 17.6864 15.4034L19.5614 15.9894C19.8223 16.0709 20 16.3125 20 16.5859V17.9181C20 19.2207 19.192 20.3867 17.9723 20.8441L17.6098 20.9801C17.539 21.0066 17.461 21.0066 17.3903 20.9801L17.0278 20.8441C15.8081 20.3867 15 19.2207 15 17.9181Z" stroke="white" stroke-linecap="round" stroke-linejoin="round"/>
<path d="M8 10V7C8 4.79086 9.79086 3 12 3C14.2091 3 16 4.79086 16 7V10" stroke="white" stroke-linecap="round" stroke-linejoin="round"/>
</g>
<defs>
<clipPath id="clip0_7348_12404">
<rect width="24" height="24" fill="white"/>
</clipPath>
</defs>
</svg>
