<svg width="24" height="24" viewBox="0 0 24 24" fill="none" xmlns="http://www.w3.org/2000/svg">
<g clip-path="url(#clip0_7348_12372)">
<path d="M4.00003 19C3.99784 18.4769 4.0987 17.9585 4.29686 17.4744C4.49501 16.9903 4.78658 16.5499 5.15492 16.1785C5.52326 15.807 5.96114 15.5118 6.44358 15.3096C6.92602 15.1074 7.44357 15.0022 7.96667 15C7.97778 15 7.9889 15 8.00003 15H10.3111" stroke="white" stroke-linecap="round" stroke-linejoin="round"/>
<path fill-rule="evenodd" clip-rule="evenodd" d="M13 16.4904C13.0485 17.4911 13.4474 18.4428 14.127 19.1788C14.6698 19.8093 15.3174 20.3412 16.0414 20.7511C16.3508 20.9237 16.7012 21.0093 17.0554 20.9989C17.4096 20.9885 17.7543 20.8823 18.0531 20.6918C18.7093 20.2723 19.2993 19.7574 19.8036 19.164C20.4958 18.4354 20.9179 17.492 21 16.4904C21.0048 15.8946 20.782 15.3193 20.3771 14.8821C20.1846 14.6724 19.951 14.5045 19.6909 14.3889C19.4307 14.2733 19.1496 14.2124 18.8649 14.2101C18.5094 14.1853 18.1534 14.2505 17.8298 14.3998C17.5062 14.5491 17.2255 14.7777 17.0138 15.0643L17.0001 15.0843L16.9862 15.0643C16.7933 14.7929 16.5367 14.573 16.239 14.4241C15.9412 14.2751 15.6114 14.2017 15.2785 14.2101C14.9777 14.205 14.679 14.2605 14.4001 14.3733C14.1213 14.4861 13.868 14.6539 13.6553 14.8667C13.4427 15.0795 13.2751 15.333 13.1625 15.6119C13.0499 15.8909 12.9946 16.1897 13 16.4904Z" stroke="white" stroke-linecap="round" stroke-linejoin="round"/>
<path d="M12 11.5C14.3472 11.5 16.25 9.59721 16.25 7.25C16.25 4.90279 14.3472 3 12 3C9.65279 3 7.75 4.90279 7.75 7.25C7.75 9.59721 9.65279 11.5 12 11.5Z" stroke="white" stroke-linecap="round" stroke-linejoin="round"/>
</g>
<defs>
<clipPath id="clip0_7348_12372">
<rect width="24" height="24" fill="white"/>
</clipPath>
</defs>
</svg>
