<svg xmlns="http://www.w3.org/2000/svg" width="24" height="24" viewBox="0 0 24 24" fill="none">
  <path d="M3 18.0029C3 15.7939 4.791 14.0029 7 14.0029H11C13.209 14.0029 15 15.7939 15 18.0029" stroke="white" stroke-linecap="round" stroke-linejoin="round"/>
  <path d="M15.9995 4.65332C17.3805 4.65332 18.4995 5.77232 18.4995 7.15332C18.4995 8.53432 17.3805 9.65332 15.9995 9.65332" stroke="white" stroke-linecap="round" stroke-linejoin="round"/>
  <path d="M11.405 4.99808C12.7332 6.32625 12.7332 8.47965 11.405 9.80782C10.0768 11.136 7.92342 11.136 6.59525 9.80782C5.26708 8.47965 5.26708 6.32625 6.59525 4.99808C7.92342 3.66991 10.0768 3.66991 11.405 4.99808Z" stroke="white" stroke-linecap="round" stroke-linejoin="round"/>
  <path d="M17.0005 13.002C19.2095 13.002 21.0005 14.793 21.0005 17.002" stroke="white" stroke-linecap="round" stroke-linejoin="round"/>
</svg>
