<svg width="24" height="24" viewBox="0 0 24 24" fill="none" xmlns="http://www.w3.org/2000/svg">
<rect width="24" height="24" rx="4" fill="url(#paint0_linear_7776_2814)"/>
<g clip-path="url(#clip0_7776_2814)">
<path fill-rule="evenodd" clip-rule="evenodd" d="M19.2188 11.6365C15.9487 10.7935 13.3935 8.2383 12.5505 4.9683L12.1875 3.56055L11.8245 4.9683C10.9815 8.2383 8.42629 10.7935 5.15629 11.6365L3.74854 11.9995L5.15629 12.3633C8.42629 13.2063 10.9815 15.7615 11.8245 19.0308L12.1875 20.4393L12.5505 19.0308C13.3935 15.7615 15.9487 13.2063 19.2188 12.3633L20.6265 11.9995L19.2188 11.6365Z" fill="black"/>
<path fill-rule="evenodd" clip-rule="evenodd" d="M17.2505 8.81025C17.2505 7.93875 18.206 6.936 19.1247 6.936C18.2405 6.936 17.2505 5.92275 17.2505 5.0625C17.2505 5.92275 16.2695 6.936 15.377 6.936C16.2357 6.936 17.2505 7.9335 17.2505 8.81025Z" fill="black"/>
</g>
<defs>
<linearGradient id="paint0_linear_7776_2814" x1="39.3628" y1="-10.1952" x2="-17.1456" y2="6.08803" gradientUnits="userSpaceOnUse">
<stop stop-color="#E09501"/>
<stop offset="1" stop-color="#FFDA6C"/>
</linearGradient>
<clipPath id="clip0_7776_2814">
<rect width="18" height="18" fill="white" transform="translate(3 3)"/>
</clipPath>
</defs>
</svg>
