<svg xmlns="http://www.w3.org/2000/svg" width="87" height="87" viewBox="0 0 87 87" fill="none">
  <path fill-rule="evenodd" clip-rule="evenodd" d="M24.0004 36.2996C30.9592 36.2996 36.6004 30.6584 36.6004 23.6996C36.6004 16.7408 30.9592 11.0996 24.0004 11.0996C17.0416 11.0996 11.4004 16.7408 11.4004 23.6996C11.4004 30.6584 17.0416 36.2996 24.0004 36.2996Z" stroke="#4C5059" stroke-width="4" stroke-linecap="round" stroke-linejoin="round"/>
  <path fill-rule="evenodd" clip-rule="evenodd" d="M63.6 50.7002C56.6412 50.7002 51 56.3414 51 63.3002C51 70.259 56.6412 75.9002 63.6 75.9002C70.5588 75.9002 76.2 70.259 76.2 63.3002C76.2 56.3414 70.5588 50.7002 63.6 50.7002Z" stroke="#4C5059" stroke-width="4" stroke-linecap="round" stroke-linejoin="round"/>
  <path fill-rule="evenodd" clip-rule="evenodd" d="M20.0759 75.9025C15.2843 75.9025 11.3999 72.0181 11.3999 67.2229C11.3999 62.4313 15.2843 58.5469 20.0759 58.5469C24.8675 58.5469 28.7519 62.4313 28.7519 67.2229C28.7519 72.0181 24.8675 75.9025 20.0759 75.9025Z" stroke="#4C5059" stroke-width="4" stroke-linecap="round" stroke-linejoin="round"/>
  <path fill-rule="evenodd" clip-rule="evenodd" d="M67.5227 28.4552C62.7311 28.4552 58.8467 24.5708 58.8467 19.7792C58.8467 14.984 62.7311 11.0996 67.5227 11.0996C72.3143 11.0996 76.1987 14.984 76.1987 19.7792C76.1987 24.5708 72.3143 28.4552 67.5227 28.4552Z" stroke="#4C5059" stroke-width="4" stroke-linecap="round" stroke-linejoin="round"/>
</svg>
