<svg xmlns="http://www.w3.org/2000/svg" width="87" height="87" viewBox="0 0 87 87" fill="none">
  <path d="M76.1978 57.5844H58.1161C53.9613 57.5844 50.5957 54.2187 50.5957 50.064C50.5957 45.9096 53.9613 42.5439 58.1161 42.5439H76.1978" stroke="#4C5059" stroke-width="4" stroke-linecap="round" stroke-linejoin="round"/>
  <path fill-rule="evenodd" clip-rule="evenodd" d="M59.7628 22.5439H27.8382C18.7585 22.5439 11.4004 29.9021 11.4004 38.9816V61.1742C11.4004 70.2537 18.7585 77.6118 27.8382 77.6118H59.7628C68.8424 77.6118 76.2004 70.2537 76.2004 61.1742V38.9816C76.2004 29.9021 68.8424 22.5439 59.7628 22.5439Z" stroke="#4C5059" stroke-width="4" stroke-linecap="round" stroke-linejoin="round"/>
  <path d="M29.811 45.6748V54.4188" stroke="#4C5059" stroke-width="4" stroke-linecap="round" stroke-linejoin="round"/>
  <path d="M66.4273 23.8672L60.8386 14.9276C57.388 9.40898 50.1074 7.7501 44.6221 11.1711L26.5769 22.4774L26.54 22.5142H26.5068" stroke="#4C5059" stroke-width="4" stroke-linecap="round" stroke-linejoin="round"/>
</svg>
