<svg xmlns="http://www.w3.org/2000/svg" width="16" height="16" viewBox="0 0 16 16" fill="none">
  <g clip-path="url(#clip0_wallet_star)">
    <!-- Wallet body -->
    <path
      d="M13.3333 9.66669V11.6667C13.3333 12.1087 13.1577 12.5326 12.8452 12.8452C12.5326 13.1578 12.1087 13.3334 11.6667 13.3334H3.66667C3.22464 13.3334 2.80072 13.1578 2.48816 12.8452C2.17559 12.5326 2 12.1087 2 11.6667V4.33335C2 3.89133 2.17559 3.4674 2.48816 3.15484C2.80072 2.84228 3.22464 2.66669 3.66667 2.66669H11.6667C12.1087 2.66669 12.5326 2.84228 12.8452 3.15484C13.1577 3.4674 13.3333 3.89133 13.3333 4.33335V6.33335"
      stroke="currentColor"
      stroke-linecap="round"
      stroke-linejoin="round"
    />

    <!-- Wallet side pocket -->
    <path
      d="M12.3337 6.33337H13.3337C13.5105 6.33337 13.68 6.40361 13.8051 6.52864C13.9301 6.65366 14.0003 6.82323 14.0003 7.00004V9.00004C14.0003 9.17685 13.9301 9.34642 13.8051 9.47144C13.68 9.59647 13.5105 9.66671 13.3337 9.66671H12.3337C11.8916 9.66671 11.4677 9.49111 11.1551 9.17855C10.8426 8.86599 10.667 8.44207 10.667 8.00004C10.667 7.55801 10.8426 7.13409 11.1551 6.82153C11.4677 6.50897 11.8916 6.33337 12.3337 6.33337Z"
      stroke="currentColor"
      stroke-linecap="round"
      stroke-linejoin="round"
    />

    <!-- Vertically centered outlined star -->
    <path
      d="M6.6667 5.8L7.3 7.2L8.8 7.4L7.7334 8.4667L8 9.9334L6.6667 9.2L5.3334 9.9334L5.6 8.4667L4.5334 7.4L6.0334 7.2L6.6667 5.8Z"
      stroke="currentColor"
      stroke-linejoin="round"
    />
  </g>

  <defs>
    <clipPath id="clip0_wallet_star">
      <rect width="16" height="16" fill="currentColor" />
    </clipPath>
  </defs>
</svg>
