<svg xmlns="http://www.w3.org/2000/svg" width="10" height="8" viewBox="0 0 10 8" fill="none">
  <g clip-path="url(#clip0_16226_29802)">
    <path d="M1.89859 5.89519C1.95403 5.83975 2.03027 5.8074 2.11112 5.8074H9.44357C9.57756 5.8074 9.64455 5.96911 9.54983 6.06383L8.10137 7.5123C8.04592 7.56774 7.96969 7.60009 7.88883 7.60009H0.556388C0.422399 7.60009 0.355404 7.43838 0.45012 7.34366L1.89859 5.89519Z" fill="url(#paint0_linear_16226_29802)"/>
    <path d="M1.89786 0.487383C1.95561 0.431939 2.03185 0.399597 2.11039 0.399597H9.44283C9.57682 0.399597 9.64382 0.561308 9.5491 0.656025L8.10063 2.10449C8.04519 2.15994 7.96895 2.19228 7.8881 2.19228H0.555655C0.421666 2.19228 0.354672 2.03057 0.449388 1.93585L1.89786 0.487383Z" fill="url(#paint1_linear_16226_29802)"/>
    <path d="M8.10137 3.17385C8.04592 3.1184 7.96969 3.08606 7.88883 3.08606H0.556388C0.422399 3.08606 0.355404 3.24777 0.45012 3.34249L1.89859 4.79096C1.95403 4.8464 2.03027 4.87874 2.11112 4.87874H9.44357C9.57756 4.87874 9.64455 4.71703 9.54983 4.62232L8.10137 3.17385Z" fill="url(#paint2_linear_16226_29802)"/>
  </g>
  <defs>
    <linearGradient id="paint0_linear_16226_29802" x1="8.74311" y1="-0.465954" x2="3.66847" y2="9.25401" gradientUnits="userSpaceOnUse">
      <stop stop-color="#00FFA3"/>
      <stop offset="1" stop-color="#DC1FFF"/>
    </linearGradient>
    <linearGradient id="paint1_linear_16226_29802" x1="6.52347" y1="-1.62413" x2="1.44883" y2="8.09583" gradientUnits="userSpaceOnUse">
      <stop stop-color="#00FFA3"/>
      <stop offset="1" stop-color="#DC1FFF"/>
    </linearGradient>
    <linearGradient id="paint2_linear_16226_29802" x1="7.62659" y1="-1.04885" x2="2.55195" y2="8.67112" gradientUnits="userSpaceOnUse">
      <stop stop-color="#00FFA3"/>
      <stop offset="1" stop-color="#DC1FFF"/>
    </linearGradient>
    <clipPath id="clip0_16226_29802">
      <rect width="9.1875" height="7.20076" fill="white" transform="translate(0.40625 0.399597)"/>
    </clipPath>
  </defs>
</svg>
