<svg xmlns="http://www.w3.org/2000/svg" width="12" height="13" viewBox="0 0 12 13" fill="none">
  <path fill-rule="evenodd" clip-rule="evenodd" d="M8.61292 6.7859H8.61092C8.40392 6.7859 8.23592 6.6179 8.23592 6.4109C8.23592 6.2039 8.40392 6.0359 8.61092 6.0359C8.81792 6.0359 8.98692 6.2039 8.98692 6.4109C8.98692 6.6179 8.81992 6.7859 8.61292 6.7859ZM8.32342 5.5459C7.98292 5.5459 7.70642 5.8239 7.70642 6.1659V6.7109C7.70642 7.0524 7.98292 7.3309 8.32342 7.3309H10.5999C10.6828 7.3309 10.7499 7.26375 10.7499 7.1809V5.6959C10.7499 5.61305 10.6828 5.5459 10.5999 5.5459H8.32342Z" fill="currentColor"/>
  <path fill-rule="evenodd" clip-rule="evenodd" d="M6.95625 6.7107V6.1657C6.95625 5.4102 7.56975 4.7957 8.32325 4.7957H10.5981C10.6814 4.7957 10.7491 4.72774 10.744 4.64463C10.6553 3.22388 9.4735 2.0957 8.03225 2.0957H3.96774C2.46924 2.0957 1.25024 3.3157 1.25024 4.8157V8.1857C1.25024 9.6857 2.46924 10.9062 3.96774 10.9062H8.03225C9.5432 10.9062 10.6733 9.6831 10.7464 8.2307C10.7506 8.14795 10.6831 8.0807 10.6002 8.0807H8.32325C7.56975 8.0807 6.95625 7.4662 6.95625 6.7107Z" fill="currentColor"/>
</svg>
