<svg xmlns="http://www.w3.org/2000/svg" width="16" height="16" viewBox="0 0 16 16" fill="none">
  <g clip-path="url(#clip0_16226_26219)">
    <path d="M13.3333 9.66666V11.6667C13.3333 12.1087 13.1577 12.5326 12.8452 12.8452C12.5326 13.1577 12.1087 13.3333 11.6667 13.3333H3.66667C3.22464 13.3333 2.80072 13.1577 2.48816 12.8452C2.17559 12.5326 2 12.1087 2 11.6667V4.33332C2 3.8913 2.17559 3.46737 2.48816 3.15481C2.80072 2.84225 3.22464 2.66666 3.66667 2.66666H11.6667C12.1087 2.66666 12.5326 2.84225 12.8452 3.15481C13.1577 3.46737 13.3333 3.8913 13.3333 4.33332V6.33332" stroke="white" stroke-opacity="0.5" stroke-linecap="round" stroke-linejoin="round"/>
    <path d="M12.3334 6.33334H13.3334C13.5102 6.33334 13.6797 6.40358 13.8048 6.52861C13.9298 6.65363 14 6.8232 14 7.00001V9.00001C14 9.17682 13.9298 9.34639 13.8048 9.47141C13.6797 9.59644 13.5102 9.66668 13.3334 9.66668H12.3334C11.8913 9.66668 11.4674 9.49108 11.1548 9.17852C10.8423 8.86596 10.6667 8.44204 10.6667 8.00001C10.6667 7.55798 10.8423 7.13406 11.1548 6.8215C11.4674 6.50894 11.8913 6.33334 12.3334 6.33334Z" stroke="white" stroke-opacity="0.5" stroke-linecap="round" stroke-linejoin="round"/>
    <path d="M4.66669 5.33334V10.6667" stroke="white" stroke-opacity="0.5" stroke-linecap="round" stroke-linejoin="round"/>
  </g>
  <defs>
    <clipPath id="clip0_16226_26219">
      <rect width="16" height="16" fill="white"/>
    </clipPath>
  </defs>
</svg>
