<svg width="20" height="20" viewBox="0 0 20 20" fill="none" xmlns="http://www.w3.org/2000/svg">
<g clip-path="url(#clip0_9408_16005)">
<path d="M0 10C0 4.47715 4.47715 0 10 0C15.5228 0 20 4.47715 20 10C20 15.5228 15.5228 20 10 20C4.47715 20 0 15.5228 0 10Z" fill="white" fill-opacity="0.1"/>
<g clip-path="url(#clip1_9408_16005)">
<path d="M9.99996 15.3333C12.9455 15.3333 15.3333 12.9455 15.3333 9.99996C15.3333 7.05444 12.9455 4.66663 9.99996 4.66663C7.05444 4.66663 4.66663 7.05444 4.66663 9.99996C4.66663 12.9455 7.05444 15.3333 9.99996 15.3333Z" stroke="white" stroke-linecap="round" stroke-linejoin="round"/>
<path d="M11.0332 9.19995H9.19983" stroke="white" stroke-linecap="round" stroke-linejoin="round"/>
<path d="M11.0332 10.7999H9.19983" stroke="white" stroke-linecap="round" stroke-linejoin="round"/>
</g>
</g>
<defs>
<clipPath id="clip0_9408_16005">
<rect width="20" height="20" fill="white" transform="translate(20) rotate(90)"/>
</clipPath>
<clipPath id="clip1_9408_16005">
<rect width="16" height="16" fill="white" transform="translate(2 2)"/>
</clipPath>
</defs>
</svg>
