<svg width="110" height="110" viewBox="0 0 110 110" fill="none" xmlns="http://www.w3.org/2000/svg">
<path d="M99.9564 48.2668L101.012 47.7973C101.364 47.6799 101.364 47.2103 101.012 47.0929L99.9564 46.6234C98.6661 46.0365 97.6104 44.98 97.0239 43.6888L96.5546 42.6323C96.4373 42.2801 95.9681 42.2801 95.8508 42.6323L95.3816 43.6888C94.7951 44.98 93.7394 46.0365 92.4491 46.6234L91.3934 47.0929C91.0415 47.2103 91.0415 47.6799 91.3934 47.7973L92.4491 48.2668C93.7394 48.8537 94.7951 49.9102 95.3816 51.2014L95.8508 52.2579C95.9681 52.6101 96.4373 52.6101 96.5546 52.2579L97.0239 51.2014C97.4931 49.9102 98.5488 48.8537 99.9564 48.2668Z" fill="url(#paint0_linear_5500_7005)"/>
<path d="M92.2668 65.2L92.9706 64.8478C93.2052 64.7305 93.2052 64.4957 92.9706 64.3783L92.2668 64.1435C91.3284 63.7914 90.6245 63.0871 90.2726 62.148L89.9207 61.4437C89.8034 61.2089 89.5688 61.2089 89.4515 61.4437L89.2169 62.148C88.7477 63.0871 88.0439 63.7914 87.2228 64.1435L86.4017 64.4957C86.2844 64.4957 86.2844 64.8478 86.4017 64.8478L87.1055 65.2C88.0439 65.5522 88.7477 66.2565 89.2169 67.1956L89.5688 67.8999C89.6861 68.1346 89.9207 68.1346 90.038 67.8999L90.2726 67.1956C90.6245 66.2565 91.3284 65.5522 92.2668 65.2Z" fill="url(#paint1_linear_5500_7005)"/>
<path d="M23.9709 77.7971L25.0266 77.3275C25.3785 77.2101 25.3785 76.7406 25.0266 76.6232L23.9709 76.1537C22.6805 75.5667 21.6248 74.5103 21.0383 73.219L20.5691 72.1626C20.4518 71.8104 19.9826 71.8104 19.8653 72.1626L19.3961 73.219C18.8096 74.5103 17.7539 75.5667 16.4636 76.1537L15.4078 76.6232C15.0559 76.7406 15.0559 77.2101 15.4078 77.3275L16.4636 77.7971C17.7539 78.384 18.8096 79.4405 19.3961 80.7317L19.8653 81.7882C19.9826 82.1404 20.4518 82.1404 20.5691 81.7882L21.0383 80.7317C21.5075 79.4405 22.5632 78.384 23.9709 77.7971Z" fill="url(#paint2_linear_5500_7005)"/>
<path d="M24.3962 25.3343L25.1 24.9821C25.3346 24.8647 25.3346 24.63 25.1 24.5126L24.3962 24.2778C23.4578 23.9257 22.754 23.2213 22.4021 22.2822L22.0502 21.5779C21.9329 21.3432 21.6983 21.3432 21.581 21.5779L21.3464 22.2822C20.8772 23.2213 20.1734 23.9257 19.3523 24.2778L18.5312 24.63C18.4139 24.63 18.4139 24.9821 18.5312 24.9821L19.235 25.3343C20.1734 25.6864 20.8772 26.3908 21.3464 27.3298L21.6983 28.0342C21.8156 28.2689 22.0502 28.2689 22.1675 28.0342L22.4021 27.3298C22.754 26.3908 23.4578 25.6864 24.3962 25.3343Z" fill="url(#paint3_linear_5500_7005)"/>
<path d="M33.428 17.0495L34.0145 16.8148C34.1318 16.6974 34.1318 16.58 34.0145 16.4626L33.428 16.2278C32.7242 15.9931 32.255 15.4061 31.9031 14.7018L31.6685 14.1149C31.5512 13.9975 31.4339 13.9975 31.3166 14.1149L31.082 14.7018C30.8474 15.4061 30.2609 15.8757 29.5571 16.2278L29.2052 16.4626C28.9706 16.58 28.9706 16.8148 29.2052 16.8148L29.7917 17.0495C30.4955 17.2843 30.9647 17.8712 31.3166 18.5756L31.5512 19.1625C31.6685 19.2799 31.7858 19.2799 31.9031 19.1625L32.1377 18.5756C32.255 17.8712 32.8415 17.2843 33.428 17.0495Z" fill="url(#paint4_linear_5500_7005)"/>
<path d="M27.6958 102.575C27.4369 102.575 27.1781 102.488 26.9193 102.315C26.229 101.884 25.9702 100.934 26.4016 100.243C26.833 99.5525 27.6958 99.2935 28.386 99.6389C28.386 99.6389 28.4723 99.6389 28.4723 99.7252C29.1625 100.157 29.4214 101.107 28.99 101.797C28.6449 102.315 28.2135 102.575 27.6958 102.575Z" fill="url(#paint5_linear_5500_7005)"/>
<path d="M40.3793 108.014C40.2067 108.014 40.1204 108.014 39.9479 107.928C38.3086 107.41 36.583 106.892 34.9436 106.287C34.1671 105.942 33.822 105.079 34.0808 104.301C34.426 103.524 35.2888 103.179 36.0653 103.438C37.6183 104.042 39.1714 104.561 40.8107 104.992C41.5872 105.251 42.1049 106.028 41.846 106.892C41.5872 107.582 40.9832 108.014 40.3793 108.014Z" fill="url(#paint6_linear_5500_7005)"/>
<path d="M54.9604 110C53.4937 110 51.9406 109.914 50.3876 109.827C49.5248 109.741 48.9208 109.05 49.0071 108.187C49.0934 107.323 49.7836 106.719 50.6464 106.805C52.0269 106.892 53.4937 106.978 54.9604 106.978C83.6055 106.978 106.901 83.6656 106.901 55C106.901 54.1365 107.591 53.4458 108.454 53.4458C109.317 53.4458 110.007 54.1365 110.007 55C109.921 85.3061 85.2448 110 54.9604 110Z" fill="url(#paint7_linear_5500_7005)"/>
<path d="M91.112 17.0959C90.7669 17.0959 90.3355 16.9232 90.0766 16.6642C89.4727 16.0598 89.4727 15.11 89.9903 14.5056C90.5943 13.9012 91.4571 13.8149 92.0611 14.4193L92.1473 14.5056C92.7513 15.11 92.7513 16.0598 92.1473 16.6642C91.8885 17.0095 91.5434 17.0959 91.112 17.0959Z" fill="url(#paint8_linear_5500_7005)"/>
<path d="M84.3819 11.8289C84.1231 11.8289 83.778 11.7425 83.5191 11.5698C81.2759 10.102 78.9463 8.80687 76.6167 7.68442C75.8402 7.33906 75.4951 6.47563 75.8402 5.69855C76.1853 4.92147 77.0481 4.5761 77.8246 4.92147C80.3268 6.04392 82.8289 7.4254 85.1585 8.97956C85.8487 9.41127 86.0213 10.361 85.5899 11.0518C85.331 11.6562 84.8996 11.8289 84.3819 11.8289Z" fill="url(#paint9_linear_5500_7005)"/>
<path d="M1.55304 56.5542C0.690241 56.5542 0 55.8634 0 55C0 24.6939 24.6761 0 54.9605 0C59.5333 0 64.1062 0.604396 68.4202 1.6405C69.1967 1.81319 69.7144 2.67661 69.5418 3.45369C69.3693 4.23077 68.5065 4.74882 67.7299 4.57614C63.5885 3.54003 59.2745 3.02198 54.9605 3.02198C26.3155 3.02198 3.01981 26.3344 3.01981 55C3.01981 55.8634 2.32956 56.5542 1.55304 56.5542Z" fill="url(#paint10_linear_5500_7005)"/>
<defs>
<linearGradient id="paint0_linear_5500_7005" x1="78.7699" y1="56.5374" x2="105.183" y2="58.0306" gradientUnits="userSpaceOnUse">
<stop stop-color="#FF00C7"/>
<stop offset="1" stop-color="#00A3FF"/>
</linearGradient>
<linearGradient id="paint1_linear_5500_7005" x1="77.9907" y1="70.7684" x2="95.7772" y2="71.7782" gradientUnits="userSpaceOnUse">
<stop stop-color="#FF00C7"/>
<stop offset="1" stop-color="#00A3FF"/>
</linearGradient>
<linearGradient id="paint2_linear_5500_7005" x1="2.78436" y1="86.0677" x2="29.1977" y2="87.5609" gradientUnits="userSpaceOnUse">
<stop stop-color="#FF00C7"/>
<stop offset="1" stop-color="#00A3FF"/>
</linearGradient>
<linearGradient id="paint3_linear_5500_7005" x1="10.1201" y1="30.9026" x2="27.9067" y2="31.9125" gradientUnits="userSpaceOnUse">
<stop stop-color="#FF00C7"/>
<stop offset="1" stop-color="#00A3FF"/>
</linearGradient>
<linearGradient id="paint4_linear_5500_7005" x1="22.8495" y1="21.3162" x2="36.0585" y2="22.042" gradientUnits="userSpaceOnUse">
<stop stop-color="#FF00C7"/>
<stop offset="1" stop-color="#00A3FF"/>
</linearGradient>
<linearGradient id="paint5_linear_5500_7005" x1="22.5239" y1="103.796" x2="30.3613" y2="104.228" gradientUnits="userSpaceOnUse">
<stop stop-color="#FF00C7"/>
<stop offset="1" stop-color="#00A3FF"/>
</linearGradient>
<linearGradient id="paint6_linear_5500_7005" x1="24.3515" y1="109.857" x2="44.8389" y2="111.826" gradientUnits="userSpaceOnUse">
<stop stop-color="#FF00C7"/>
<stop offset="1" stop-color="#00A3FF"/>
</linearGradient>
<linearGradient id="paint7_linear_5500_7005" x1="-25.3154" y1="132.365" x2="133.416" y2="142.052" gradientUnits="userSpaceOnUse">
<stop stop-color="#FF00C7"/>
<stop offset="1" stop-color="#00A3FF"/>
</linearGradient>
<linearGradient id="paint8_linear_5500_7005" x1="85.9725" y1="18.3175" x2="93.7525" y2="18.7432" gradientUnits="userSpaceOnUse">
<stop stop-color="#FF00C7"/>
<stop offset="1" stop-color="#00A3FF"/>
</linearGradient>
<linearGradient id="paint9_linear_5500_7005" x1="63.3809" y1="14.6133" x2="89.6322" y2="16.7475" gradientUnits="userSpaceOnUse">
<stop stop-color="#FF00C7"/>
<stop offset="1" stop-color="#00A3FF"/>
</linearGradient>
<linearGradient id="paint10_linear_5500_7005" x1="-84.7496" y1="78.9188" x2="96.0698" y2="91.5034" gradientUnits="userSpaceOnUse">
<stop stop-color="#FF00C7"/>
<stop offset="1" stop-color="#00A3FF"/>
</linearGradient>
</defs>
</svg>
