<svg xmlns="http://www.w3.org/2000/svg" width="40" height="40" viewBox="0 0 40 40" fill="none">
  <g clip-path="url(#clip0_289_14179)">
    <path opacity="0.6" d="M20 6.66663V9.99996C22.1951 10.0004 24.329 10.7231 26.0727 12.0566C27.8163 13.3901 29.0728 15.2603 29.6482 17.3786C30.2236 19.4969 30.086 21.7458 29.2567 23.7782C28.4273 25.8106 26.9523 27.5136 25.0591 28.6246C23.1659 29.7356 20.9597 30.1928 18.781 29.9256C16.6022 29.6585 14.5718 28.6819 13.0031 27.1465C11.4343 25.6111 10.4144 23.6021 10.1006 21.4296C9.78678 19.257 10.1965 17.0416 11.2666 15.125L8.35664 13.4983C6.92942 16.0536 6.38267 19.0076 6.80074 21.9045C7.2188 24.8013 8.57846 27.4802 10.67 29.5277C12.7615 31.5752 15.4686 32.8776 18.3737 33.2341C21.2788 33.5905 24.2205 32.9811 26.7449 31.4999C29.2693 30.0187 31.2362 27.748 32.3422 25.0381C33.4481 22.3282 33.6317 19.3297 32.8645 16.5051C32.0973 13.6806 30.4221 11.1869 28.0972 9.40889C25.7722 7.63084 22.9269 6.6672 20 6.66663Z" fill="white"/>
  </g>
  <defs>
    <clipPath id="clip0_289_14179">
      <rect width="40" height="40" fill="white"/>
    </clipPath>
  </defs>
</svg>
