<svg width="32" height="32" viewBox="0 0 32 32" fill="none" xmlns="http://www.w3.org/2000/svg">
<rect width="32" height="32" rx="16" fill="#F0B90B"/>
<path d="M8.79281 15.9999L8.80435 20.2307L12.3992 22.3461V24.823L6.7005 21.4807V14.7627L8.79281 15.9999ZM8.79281 11.7692V14.2345L6.69922 12.9961V10.5307L8.79281 9.29223L10.8967 10.5307L8.79281 11.7692ZM13.9005 10.5307L15.9941 9.29223L18.0979 10.5307L15.9941 11.7692L13.9005 10.5307Z" fill="white"/>
<path d="M10.3056 19.3538V16.8768L12.3992 18.1153V20.5807L10.3056 19.3538ZM13.9005 23.2333L15.9941 24.4717L18.0979 23.2333V25.6986L15.9941 26.9371L13.9005 25.6986V23.2333ZM21.1005 10.5307L23.1941 9.29223L25.2979 10.5307V12.9961L23.1941 14.2345V11.7692L21.1005 10.5307ZM23.1941 20.2307L23.2056 15.9999L25.2992 14.7615V21.4794L19.6005 24.8217V22.3448L23.1941 20.2307Z" fill="white"/>
<path d="M21.6928 19.3538L19.5992 20.5807V18.1153L21.6928 16.8768V19.3538Z" fill="white"/>
<path d="M21.6928 12.6461L21.7043 15.123L18.0992 17.2384V21.4794L16.0056 22.7063L13.912 21.4794V17.2384L10.3069 15.123V12.6461L12.4095 11.4076L15.9928 13.5333L19.5979 11.4076L21.7018 12.6461H21.6928ZM10.3056 8.41659L15.9941 5.06274L21.6928 8.41659L19.5992 9.65505L15.9941 7.52941L12.3992 9.65505L10.3056 8.41659Z" fill="white"/>
</svg>
