<svg xmlns="http://www.w3.org/2000/svg" width="28" height="28" viewBox="0 0 28 28" fill="none">
  <g clip-path="url(#clip0_919_7531)">
    <path d="M21 3.5H7C5.067 3.5 3.5 5.067 3.5 7V21C3.5 22.933 5.067 24.5 7 24.5H21C22.933 24.5 24.5 22.933 24.5 21V7C24.5 5.067 22.933 3.5 21 3.5Z" stroke="currentcolor" stroke-linecap="round" stroke-linejoin="round"/>
    <path d="M14 3.5V24.5" stroke="currentcolor" stroke-linecap="round" stroke-linejoin="round"/>
    <path d="M8.75016 7.5835C8.75016 7.89292 8.62725 8.18966 8.40845 8.40845C8.18966 8.62725 7.89292 8.75016 7.5835 8.75016C7.89292 8.75016 8.18966 8.87308 8.40845 9.09187C8.62725 9.31066 8.75016 9.60741 8.75016 9.91683C8.75016 9.60741 8.87308 9.31066 9.09187 9.09187C9.31066 8.87308 9.60741 8.75016 9.91683 8.75016C9.60741 8.75016 9.31066 8.62725 9.09187 8.40845C8.87308 8.18966 8.75016 7.89292 8.75016 7.5835Z" stroke="currentcolor" stroke-linecap="round" stroke-linejoin="round"/>
    <path d="M19.2502 17.5C19.2502 17.8094 19.1272 18.1062 18.9085 18.325C18.6897 18.5438 18.3929 18.6667 18.0835 18.6667C18.3929 18.6667 18.6897 18.7896 18.9085 19.0084C19.1272 19.2272 19.2502 19.5239 19.2502 19.8333C19.2502 19.5239 19.3731 19.2272 19.5919 19.0084C19.8107 18.7896 20.1074 18.6667 20.4168 18.6667C20.1074 18.6667 19.8107 18.5438 19.5919 18.325C19.3731 18.1062 19.2502 17.8094 19.2502 17.5Z" stroke="currentcolor" stroke-linecap="round" stroke-linejoin="round"/>
  </g>
  <defs>
    <clipPath id="clip0_919_7531">
      <rect width="28" height="28" fill="white"/>
    </clipPath>
  </defs>
</svg>
