<svg width="16" height="16" viewBox="0 0 16 16" fill="none" xmlns="http://www.w3.org/2000/svg">
<g clip-path="url(#clip0_9159_18003)">
<path d="M14 8C14 4.68629 11.3137 2 8 2C4.68629 2 2 4.68629 2 8C2 11.3137 4.68629 14 8 14C11.3137 14 14 11.3137 14 8Z" stroke="white" stroke-miterlimit="10"/>
<path d="M9.33334 2.15002V5.66669" stroke="white" stroke-linecap="round" stroke-linejoin="round"/>
<path d="M9.33334 8.33331V13.8506" stroke="white" stroke-linecap="round" stroke-linejoin="round"/>
<path d="M10.6327 7.29932L13.5693 10.236" stroke="white" stroke-linecap="round" stroke-linejoin="round"/>
<path d="M9.33333 8.33335C10.0697 8.33335 10.6667 7.7364 10.6667 7.00002C10.6667 6.26364 10.0697 5.66669 9.33333 5.66669C8.59695 5.66669 8 6.26364 8 7.00002C8 7.7364 8.59695 8.33335 9.33333 8.33335Z" stroke="white" stroke-miterlimit="10"/>
<path d="M8.03333 7.29669L5.99933 9.33269" stroke="white" stroke-linecap="round" stroke-linejoin="round"/>
<path d="M5.99933 9.33267L4.66666 8" stroke="white" stroke-linecap="round" stroke-linejoin="round"/>
<path d="M4.66666 8L2.43066 10.236" stroke="white" stroke-linecap="round" stroke-linejoin="round"/>
</g>
<defs>
<clipPath id="clip0_9159_18003">
<rect width="16" height="16" fill="white"/>
</clipPath>
</defs>
</svg>
