<svg width="206" height="295" viewBox="0 0 206 295" fill="none" xmlns="http://www.w3.org/2000/svg">
<path d="M50.1364 284.324L49.2694 286.126L49.2787 286.131L50.1364 284.324ZM14.483 254.778L12.8421 255.922L12.848 255.93L14.483 254.778ZM0.5625 211.881V209.881H-1.50933L-1.43626 211.951L0.5625 211.881ZM51.6989 211.881L53.6926 211.722L53.5464 209.881H51.6989V211.881ZM67.1818 241.142L65.9248 242.698L65.9344 242.705L67.1818 241.142ZM128.545 245.261L129.56 246.985L128.545 245.261ZM147.58 225.517L145.828 224.552L147.58 225.517ZM154.398 196.682L152.398 196.665L152.398 196.682L152.398 196.699L154.398 196.682ZM147.438 167.42L145.689 168.392L147.438 167.42ZM127.977 147.392L126.951 149.109L126.958 149.113L126.966 149.117L127.977 147.392ZM99.5682 140.006L99.5464 142.006L99.5573 142.006H99.5682V140.006ZM73.858 144.835L73.126 142.974L73.858 144.835ZM53.8296 157.903L53.5055 159.877L54.576 160.053L55.3071 159.251L53.8296 157.903ZM6.24432 150.091L4.25451 149.889L4.06497 151.76L5.9203 152.064L6.24432 150.091ZM21.4432 0.0909004V-1.9091H19.6356L19.4534 -0.110718L21.4432 0.0909004ZM190.193 0.0909004H192.193V-1.9091H190.193V0.0909004ZM190.193 44.125V46.125H192.193V44.125H190.193ZM65.0511 44.125V42.125H63.2567L63.0628 43.909L65.0511 44.125ZM56.6705 121.256L54.6822 121.04L54.4414 123.256H56.6705V121.256ZM58.375 121.256V123.256H59.2994L59.8983 122.552L58.375 121.256ZM81.2443 105.489L82.0236 107.331L82.0311 107.327L82.0386 107.324L81.2443 105.489ZM160.79 111.597L159.757 113.31L159.766 113.315L160.79 111.597ZM193.46 145.688L191.707 146.65V146.65L193.46 145.688ZM192.04 246.824L190.318 245.806L190.316 245.809L192.04 246.824ZM155.25 282.193L156.208 283.949L156.211 283.947L155.25 282.193ZM100.989 292.977C82.3033 292.977 65.6521 289.475 50.994 282.517L49.2787 286.131C64.5449 293.377 81.7952 296.977 100.989 296.977V292.977ZM51.0033 282.522C36.3214 275.459 24.7117 265.824 16.1179 253.626L12.848 255.93C21.8678 268.733 34.0271 278.794 49.2694 286.126L51.0033 282.522ZM16.1238 253.635C7.64458 241.469 3.11668 227.547 2.56126 211.81L-1.43626 211.951C-0.85531 228.411 3.89709 243.088 12.8422 255.922L16.1238 253.635ZM0.5625 213.881H51.6989V209.881H0.5625V213.881ZM49.7051 212.039C50.6959 224.522 56.1263 234.78 65.9248 242.698L68.4389 239.586C59.4874 232.353 54.5958 223.103 53.6926 211.722L49.7051 212.039ZM65.9344 242.705C75.6988 250.497 87.4195 254.364 100.989 254.364V250.364C88.232 250.364 77.4149 246.749 68.4293 239.579L65.9344 242.705ZM100.989 254.364C111.629 254.364 121.171 251.919 129.56 246.985L127.531 243.538C119.821 248.073 110.993 250.364 100.989 250.364V254.364ZM129.56 246.985C137.928 242.062 144.524 235.214 149.332 226.482L145.828 224.552C141.355 232.676 135.261 238.991 127.531 243.538L129.56 246.985ZM149.332 226.482C154.157 217.718 156.495 207.76 156.398 196.664L152.398 196.699C152.49 207.194 150.283 216.46 145.828 224.552L149.332 226.482ZM156.398 196.699C156.495 185.413 154.109 175.311 149.186 166.449L145.689 168.392C150.236 176.575 152.49 185.981 152.398 196.665L156.398 196.699ZM149.186 166.449C144.281 157.621 137.543 150.681 128.989 145.667L126.966 149.117C134.889 153.762 141.124 160.175 145.689 168.392L149.186 166.449ZM129.003 145.675C120.42 140.545 110.588 138.006 99.5682 138.006V142.006C109.95 142.006 119.057 144.391 126.951 149.109L129.003 145.675ZM99.5899 138.006C90.6098 137.908 81.7843 139.569 73.126 142.974L74.5899 146.696C82.7876 143.473 91.1023 141.914 99.5464 142.006L99.5899 138.006ZM73.126 142.974C64.4801 146.374 57.5257 150.884 52.352 156.555L55.3071 159.251C59.9819 154.127 66.3797 149.925 74.5899 146.696L73.126 142.974ZM54.1536 155.93L6.56834 148.117L5.9203 152.064L53.5055 159.877L54.1536 155.93ZM8.23413 150.293L23.433 0.292519L19.4534 -0.110718L4.25451 149.889L8.23413 150.293ZM21.4432 2.0909H190.193V-1.9091H21.4432V2.0909ZM188.193 0.0909004V44.125H192.193V0.0909004H188.193ZM190.193 42.125H65.0511V46.125H190.193V42.125ZM63.0628 43.909L54.6822 121.04L58.6588 121.472L67.0394 44.341L63.0628 43.909ZM56.6705 123.256H58.375V119.256H56.6705V123.256ZM59.8983 122.552C65.0449 116.502 72.3834 111.409 82.0236 107.331L80.465 103.647C70.4083 107.901 62.5005 113.32 56.8517 119.96L59.8983 122.552ZM82.0386 107.324C91.6135 103.181 102.135 101.097 113.631 101.097V97.0966C101.641 97.0966 90.5721 99.2734 80.4501 103.653L82.0386 107.324ZM113.631 101.097C130.915 101.097 146.271 105.181 159.757 113.309L161.822 109.884C147.657 101.346 131.574 97.0966 113.631 97.0966V101.097ZM159.766 113.315C173.277 121.366 183.919 132.465 191.707 146.65L195.213 144.725C187.092 129.933 175.954 118.305 161.814 109.878L159.766 113.315ZM191.707 146.65C199.48 160.807 203.392 177.041 203.392 195.403H207.392C207.392 176.456 203.35 159.545 195.213 144.725L191.707 146.65ZM203.392 195.403C203.392 214.305 199.02 231.087 190.318 245.806L193.761 247.842C202.863 232.447 207.392 214.948 207.392 195.403H203.392ZM190.316 245.809C181.698 260.45 169.703 271.989 154.289 280.439L156.211 283.947C172.236 275.162 184.768 263.122 193.763 247.838L190.316 245.809ZM154.292 280.437C139.004 288.777 121.255 292.977 100.989 292.977V296.977C121.82 296.977 140.246 292.655 156.208 283.949L154.292 280.437Z" fill="url(#paint0_linear_19_394)"/>
<defs>
<linearGradient id="paint0_linear_19_394" x1="101" y1="-54" x2="101" y2="346" gradientUnits="userSpaceOnUse">
<stop stop-color="white"/>
<stop offset="1" stop-color="#2F2F2F" stop-opacity="0"/>
</linearGradient>
</defs>
</svg>
