<svg width="121" height="293" viewBox="0 0 121 293" fill="none" xmlns="http://www.w3.org/2000/svg">
<path d="M70.2 82.2H72.2V80.2H70.2V82.2ZM70.2 293H68.2V295H70.2V293ZM120.2 293V295H122.2V293H120.2ZM120.2 0.599998H122.2V-1.4H120.2V0.599998ZM75.8 0.599998V-1.4H74.3075L73.8827 0.0307999L75.8 0.599998ZM0.6 42.2V40.2H-1.4V42.2H0.6ZM0.6 82.2H-1.4V84.2H0.6V82.2ZM68.2 82.2V293H72.2V82.2H68.2ZM70.2 295H120.2V291H70.2V295ZM122.2 293V0.599998H118.2V293H122.2ZM120.2 -1.4H75.8V2.6H120.2V-1.4ZM73.8827 0.0307999C70.1976 12.4438 63.5647 22.3913 52.1647 29.2888C40.6976 36.2269 24.208 40.2 0.6 40.2V44.2C24.592 44.2 41.9024 40.1731 54.2353 32.7112C66.6353 25.2086 73.8024 14.3562 77.7173 1.1692L73.8827 0.0307999ZM-1.4 42.2V82.2H2.6V42.2H-1.4ZM0.6 84.2H70.2V80.2H0.6V84.2Z" fill="url(#paint0_linear_77_275)"/>
<defs>
<linearGradient id="paint0_linear_77_275" x1="69" y1="-83" x2="69" y2="317" gradientUnits="userSpaceOnUse">
<stop stop-color="white"/>
<stop offset="1" stop-color="#2F2F2F" stop-opacity="0"/>
</linearGradient>
</defs>
</svg>
