<svg width="206" height="299" viewBox="0 0 206 299" fill="none" xmlns="http://www.w3.org/2000/svg">
<path d="M103.2 149L103.333 147.004L103.325 147.004L103.317 147.003L103.2 149ZM50.4 199.8H52.4V197.8H50.4V199.8ZM9.53674e-07 199.8V197.8H-2V199.8H9.53674e-07ZM132 107.8L130.621 106.352L127.96 108.886L131.533 109.745L132 107.8ZM199.2 43.8L200.579 45.2483L201.2 44.6571V43.8H199.2ZM199.2 0.599998H201.2V-1.4H199.2V0.599998ZM13.6 0.599998V-1.4H11.6V0.599998H13.6ZM13.6 45.8H11.6V47.8H13.6V45.8ZM132.4 45.8L133.782 47.2458L137.387 43.8H132.4V45.8ZM60 115L58.6181 113.554L58 114.145V115H60ZM60 148.6H58V150.6H60V148.6ZM81.2 150.6C91.2097 150.6 96.351 150.601 103.083 150.997L103.317 147.003C96.449 146.599 91.1903 146.6 81.2 146.6V150.6ZM103.067 150.996C120.696 152.171 133.276 157.926 141.45 166.528C149.625 175.13 153.6 186.797 153.6 200.2H157.6C157.6 186.003 153.375 173.27 144.35 163.772C135.324 154.274 121.704 148.229 103.333 147.004L103.067 150.996ZM153.6 200.2C153.6 215.725 148.275 228.284 139.309 236.963C130.335 245.65 117.56 250.6 102.4 250.6V254.6C118.44 254.6 132.265 249.35 142.091 239.837C151.926 230.316 157.6 216.675 157.6 200.2H153.6ZM102.4 250.6C87.0055 250.6 74.5565 245.931 65.9603 237.382C57.3672 228.836 52.4 216.191 52.4 199.8H48.4C48.4 217.009 53.6328 230.764 63.1397 240.218C72.6435 249.669 86.1945 254.6 102.4 254.6V250.6ZM50.4 197.8H9.53674e-07V201.8H50.4V197.8ZM-2 199.8C-2 231.097 9.09025 256.248 27.6871 273.564C46.2658 290.863 72.1803 300.2 101.6 300.2V296.2C73.0197 296.2 48.1342 287.137 30.4129 270.636C12.7098 254.152 2 230.103 2 199.8H-2ZM101.6 300.2C131.223 300.2 157.819 290.662 177.035 273.439C196.272 256.197 208 231.349 208 201H204C204 230.251 192.728 254.003 174.365 270.461C155.981 286.938 130.377 296.2 101.6 296.2V300.2ZM208 201C208 149.563 174.852 116.044 132.467 105.855L131.533 109.745C172.348 119.556 204 151.637 204 201H208ZM133.379 109.248L200.579 45.2483L197.821 42.3517L130.621 106.352L133.379 109.248ZM201.2 43.8V0.599998H197.2V43.8H201.2ZM199.2 -1.4H13.6V2.6H199.2V-1.4ZM11.6 0.599998V45.8H15.6V0.599998H11.6ZM13.6 47.8H132.4V43.8H13.6V47.8ZM131.018 44.3542L58.6181 113.554L61.3819 116.446L133.782 47.2458L131.018 44.3542ZM58 115V148.6H62V115H58ZM60 150.6H81.2V146.6H60V150.6Z" fill="url(#paint0_linear_77_393)"/>
<defs>
<linearGradient id="paint0_linear_77_393" x1="106" y1="-83" x2="106" y2="317" gradientUnits="userSpaceOnUse">
<stop stop-color="white"/>
<stop offset="1" stop-color="#2F2F2F" stop-opacity="0"/>
</linearGradient>
</defs>
</svg>
