<svg width="108" height="260" viewBox="0 0 108 260" fill="none" xmlns="http://www.w3.org/2000/svg">
<path d="M89.9365 5.38782C89.9365 5.38782 112.943 46.8021 83.7424 77.7684C54.6679 108.735 11.4353 113.14 14.9748 149.016C14.9748 149.016 36.8439 135.421 56.8168 122.707C76.7898 109.993 135.95 57.7536 89.9365 5.5137V5.38782Z" fill="#0758A4"/>
<path d="M17.7951 -83C23.3461 -75.6207 30.5371 -67.9869 39.7466 -60.0987C94.3731 -13.2783 112.666 16.1116 105.601 53.2626C105.601 53.2626 105.727 15.3483 36.4665 -39.1059C17.1643 -54.2462 6.06242 -69.2592 0.00683594 -83H17.9213H17.7951Z" fill="#399CF8"/>
<path d="M82.6518 189.689C82.6518 189.689 87.87 205.674 50.07 217.912C12.3973 230.149 18.8882 259.496 18.8882 259.496L26.5246 249.131L35.5609 259.371C35.5609 259.371 32.6337 245.01 53.2518 238.142C80.4882 229.026 90.9245 217.912 92.1972 203.051C93.3427 188.066 82.7791 189.564 82.7791 189.564L82.6518 189.689Z" fill="#0758A4"/>
<path d="M85.261 218.985C85.261 218.985 94.5532 200.779 69.9486 188.383C45.344 175.988 -1.11677 176.504 14.0648 134.281C14.0648 134.281 22.1791 154.295 52.9348 161.526C83.6905 168.628 103.584 193.807 85.261 218.985Z" fill="#399CF8"/>
</svg>
