<svg xmlns="http://www.w3.org/2000/svg" width="16" height="16" viewBox="0 0 16 16" fill="none">
  <g clip-path="url(#clip0_1664_7161)">
    <path d="M8.00033 8C6.35566 8 5.01166 6.65667 5.01166 5.01133C5.01166 3.366 6.35566 2 8.00033 2C9.64499 2 10.989 3.34333 10.989 4.98867C10.989 6.634 9.64499 8 8.00033 8ZM12.667 14H3.33366C2.96699 14 2.66699 13.7 2.66699 13.3333V12.6667C2.66699 11.2 3.86699 10 5.33366 10H10.667C12.1337 10 13.3337 11.2 13.3337 12.6667V13.3333C13.3337 13.7 13.0337 14 12.667 14Z" fill="white"/>
  </g>
  <defs>
    <clipPath id="clip0_1664_7161">
      <rect width="16" height="16" fill="white"/>
    </clipPath>
  </defs>
</svg>
