<svg width="20" height="12" viewBox="0 0 20 12" fill="none" xmlns="http://www.w3.org/2000/svg">
  <g id="Frame 1171278840">
  <path d="M0 2.14286C0 0.95939 0.95939 0 2.14286 0H14C17.3137 0 20 2.68629 20 6C20 9.31371 17.3137 12 14 12H2.14286C0.959389 12 0 11.0406 0 9.85714V2.14286Z" fill="url(#paint0_linear_3206_142152)"/>
  <path id="Pro" d="M6.40674 6.524L6.40675 6.52401L6.40801 6.52331C6.79949 6.30736 7.08948 6.02706 7.27162 5.68076C7.45068 5.3403 7.54041 4.97737 7.54041 4.59336C7.54041 4.17452 7.44029 3.79271 7.23879 3.45036C7.04233 3.10485 6.7417 2.83546 6.34275 2.64073C5.94787 2.43766 5.46846 2.33873 4.90884 2.33873H2.44067H2.33898V2.44043V9.66886V9.77055H2.44067H3.61305H3.71475V9.66886V6.83758H4.90884C5.50914 6.83758 6.01041 6.73534 6.40674 6.524ZM11.3221 3.84451V3.74282H11.2204C10.8151 3.74282 10.4576 3.82921 10.1518 4.00588C9.94904 4.12095 9.77349 4.26844 9.62526 4.44763V3.93812V3.83642H9.52356H8.35118H8.24949V3.93812V9.66886V9.77055H8.35118H9.52356H9.62526V9.66886V6.65268C9.62526 6.07883 9.74103 5.70417 9.94501 5.49744C10.1599 5.28668 10.4799 5.17348 10.9222 5.17348H11.2204H11.3221V5.07179V3.84451ZM13.0494 9.4865L13.0504 9.4871C13.4988 9.739 13.9995 9.86416 14.5503 9.86416C15.1077 9.86416 15.6183 9.73911 16.0798 9.48775L16.0803 9.48749C16.5491 9.22887 16.9191 8.86547 17.1888 8.39887C17.4593 7.93093 17.5932 7.39642 17.5932 6.79829C17.5932 6.20062 17.4629 5.66648 17.1996 5.19872C16.937 4.73213 16.5774 4.37165 16.1215 4.11954C15.6665 3.86787 15.1591 3.74282 14.6017 3.74282C14.0443 3.74282 13.5369 3.86787 13.0819 4.11954C12.626 4.37165 12.2664 4.73213 12.0038 5.19872C11.7405 5.66648 11.6102 6.20062 11.6102 6.79829C11.6102 7.40219 11.7368 7.93948 11.9929 8.40723L11.9932 8.40781C12.2488 8.86734 12.6012 9.2275 13.0494 9.4865ZM15.3449 8.42507L15.344 8.42562C15.0988 8.56266 14.8348 8.63111 14.5503 8.63111C14.1045 8.63111 13.7376 8.47573 13.4422 8.16441C13.1563 7.84906 13.0065 7.39845 13.0065 6.79829C13.0065 6.39416 13.0798 6.06142 13.2209 5.79549L13.2214 5.7946C13.3643 5.51874 13.5535 5.31582 13.788 5.18107C14.033 5.04422 14.2968 4.97587 14.5811 4.97587C14.8656 4.97587 15.1296 5.04432 15.3748 5.18136C15.6167 5.31655 15.8128 5.52006 15.9623 5.79625L15.9628 5.79715C16.1101 6.0627 16.1866 6.39481 16.1866 6.79829C16.1866 7.201 16.107 7.53647 15.9529 7.80912C15.7968 8.08546 15.594 8.28946 15.3449 8.42507ZM5.83706 5.39261C5.64385 5.5693 5.34093 5.66693 4.90884 5.66693H3.71475V3.50938H4.90884C5.33802 3.50938 5.64091 3.60552 5.83606 3.77993C6.02902 3.95239 6.13379 4.21695 6.13379 4.59336C6.13379 4.9466 6.03115 5.20823 5.83706 5.39261Z" fill="#1D262F" stroke="#1D262F" stroke-width="0.20339"/>
  </g>
  <defs>
  <linearGradient id="paint0_linear_3206_142152" x1="32.8024" y1="-5.09761" x2="-8.6395" y2="14.8053" gradientUnits="userSpaceOnUse">
  <stop stop-color="#E09501"/>
  <stop offset="1" stop-color="#FFDA6C"/>
  </linearGradient>
  </defs>
  </svg>
