<svg xmlns="http://www.w3.org/2000/svg" width="160" height="160" viewBox="0 0 160 160" fill="none">
  <path fill-rule="evenodd" clip-rule="evenodd" d="M106.333 39.1243V20.791C106.333 18.0296 108.572 15.791 111.333 15.791C114.095 15.791 116.333 18.0296 116.333 20.791V39.1243H116.435C124.642 39.1243 131.333 45.7476 131.333 53.9785V94.264C131.333 102.491 124.646 109.125 116.435 109.125H116.333V127.458C116.333 130.219 114.095 132.458 111.333 132.458C108.572 132.458 106.333 130.219 106.333 127.458V109.125H106.226C98.0182 109.125 91.3335 102.488 91.3335 94.264V53.9785C91.3335 45.7498 98.0222 39.1243 106.226 39.1243H106.333ZM111.333 49.1244H106.226C103.505 49.1244 101.333 51.3128 101.333 53.9785V94.264C101.333 96.934 103.51 99.1247 106.226 99.1247H111.333H116.435C119.159 99.1247 121.333 96.9314 121.333 94.264V53.9785C121.333 51.3149 119.163 49.1244 116.435 49.1244H111.333Z" fill="url(#paint0_linear_1743_2858)"/>
  <path fill-rule="evenodd" clip-rule="evenodd" d="M43 52.4578V34.1245C43 31.3631 45.2386 29.1245 48 29.1245C50.7614 29.1245 53 31.3631 53 34.1245V52.4578H53.1013C61.3085 52.4578 67.9993 59.0811 67.9993 67.3122V107.598C67.9993 115.824 61.3128 122.458 53.1013 122.458H53V140.792C53 143.553 50.7614 145.792 48 145.792C45.2386 145.792 43 143.553 43 140.792V122.458H42.8917C34.6847 122.458 28 115.822 28 107.598V67.3122C28 59.0832 34.6889 52.4578 42.8917 52.4578H43ZM48 62.4578H42.8917C40.1715 62.4578 38 64.6462 38 67.3122V107.598C38 110.268 40.1758 112.458 42.8917 112.458H47.9912C47.9941 112.458 47.9971 112.458 48 112.458C48.0029 112.458 48.0059 112.458 48.0088 112.458H53.1013C55.8259 112.458 57.9996 110.265 57.9996 107.598V67.3122C57.9996 64.6484 55.8302 62.4578 53.1013 62.4578H48Z" fill="url(#paint1_linear_1743_2858)"/>
  <defs>
    <linearGradient id="paint0_linear_1743_2858" x1="118.723" y1="11.416" x2="64.834" y2="60.7752" gradientUnits="userSpaceOnUse">
      <stop stop-color="#33353F"/>
      <stop offset="1" stop-color="#262830"/>
    </linearGradient>
    <linearGradient id="paint1_linear_1743_2858" x1="55.3894" y1="24.7495" x2="1.50051" y2="74.1087" gradientUnits="userSpaceOnUse">
      <stop stop-color="#33353F"/>
      <stop offset="1" stop-color="#262830"/>
    </linearGradient>
  </defs>
</svg>
