<svg width="15" height="16" viewBox="0 0 15 16" fill="none"
    xmlns="http://www.w3.org/2000/svg">
    <g clip-path="url(#clip0_748_42193)">
        <circle cx="7.5" cy="7.5" r="6.5" fill="white" fill-opacity="0.05"/>
        <path d="M10.2142 10.7142L10.2142 6.23001C10.2187 6.17275 10.2112 6.1152 10.1923 6.06096C10.1735 6.00673 10.1436 5.95697 10.1046 5.91483C10.0656 5.87269 10.0183 5.83906 9.96565 5.81607C9.91303 5.79307 9.85622 5.7812 9.7988 5.7812C9.74137 5.7812 9.68457 5.79307 9.63195 5.81607C9.57933 5.83906 9.53203 5.87269 9.49302 5.91483C9.45401 5.95697 9.42413 6.00673 9.40526 6.06096C9.3864 6.1152 9.37894 6.17275 9.38337 6.23001L9.37748 9.2411L4.95806 4.82169C4.87992 4.74355 4.77394 4.69965 4.66344 4.69965C4.55293 4.69965 4.44695 4.74355 4.36881 4.82169C4.29067 4.89983 4.24677 5.00581 4.24677 5.11631C4.24677 5.22682 4.29067 5.3328 4.36881 5.41094L8.84126 9.88339L5.72999 9.88339C5.67273 9.87896 5.61518 9.88642 5.56094 9.90528C5.50671 9.92415 5.45695 9.95403 5.41481 9.99304C5.37267 10.032 5.33904 10.0793 5.31605 10.132C5.29305 10.1846 5.28118 10.2414 5.28118 10.2988C5.28118 10.3562 5.29305 10.413 5.31605 10.4657C5.33904 10.5183 5.37267 10.5656 5.41481 10.6046C5.45695 10.6436 5.50671 10.6735 5.56094 10.6924C5.61518 10.7112 5.67273 10.7187 5.72999 10.7142L10.2142 10.7142Z" fill="currentColor"/>
    </g>
    <defs>
        <clipPath id="clip0_748_42193">
            <rect width="15" height="15" fill="white" transform="translate(0 0.5)"/>
        </clipPath>
    </defs>
</svg>
