<svg width="22" height="22" viewBox="0 0 22 22" fill="none"
    xmlns="http://www.w3.org/2000/svg">
    <path fill-rule="evenodd" clip-rule="evenodd" d="M12.3558 18.1121H14.4219C17.2649 18.1121 19.174 16.1122 19.174 13.134V12.3755C19.6645 12.1273 20.0001 11.603 20.0001 10.9954V9.21197C20.0001 8.60499 19.6651 8.08112 19.1657 7.8326V7.07376C19.1657 4.38128 17.5707 2.442 15.1327 2.14765C14.8682 2.10436 14.612 2.0957 14.4137 2.0957H6.9757C6.71123 2.0957 6.45507 2.12168 6.23193 2.15631C3.79391 2.47664 2.22363 4.40725 2.22363 7.07376V8.80526C2.22363 9.16022 2.50462 9.45457 2.84347 9.45457C3.18231 9.45457 3.4633 9.16022 3.4633 8.80526V7.07376C3.4633 5.06522 4.57899 3.68002 6.39717 3.43761C6.58726 3.41163 6.77735 3.39433 6.9757 3.39433H14.4137H14.4139C14.5874 3.39433 14.761 3.39433 14.9592 3.42894C16.7939 3.65403 17.9261 5.04791 17.9261 7.07376V7.67959H16.8266C16.2068 7.67959 15.62 7.93065 15.2068 8.38085C14.7109 8.89164 14.463 9.5929 14.5291 10.3115C14.5921 11.1041 15.0427 11.7847 15.6833 12.1754C16.0503 12.3993 16.4797 12.528 16.9343 12.528H17.9343V13.134C17.9343 15.3676 16.5542 16.8134 14.4219 16.8134H12.3558C12.017 16.8134 11.736 17.1078 11.736 17.4627C11.736 17.8177 12.017 18.1121 12.3558 18.1121ZM16.8044 8.97863C16.8119 8.97848 16.8194 8.97841 16.8269 8.97841H18.5318C18.6627 8.98818 18.7605 9.083 18.7605 9.21197V10.9954C18.7605 11.1253 18.6613 11.2292 18.5539 11.2292H16.934C16.339 11.2292 15.8101 10.7703 15.7687 10.1989C15.7357 9.86994 15.8514 9.54096 16.0911 9.29855C16.2745 9.09807 16.5271 8.98625 16.8044 8.97863ZM10.7029 14.3107V16.0697C10.7029 17.9138 9.09958 19.4115 7.12437 19.4115C5.15743 19.4115 3.5459 17.9138 3.5459 16.0697V14.3107V14.3036V11.9299C3.5459 10.8059 4.14147 9.81067 5.05384 9.20472C5.63841 8.81648 6.35303 8.58808 7.12437 8.58808C8.05826 8.58808 8.95084 8.92572 9.62024 9.53174C10.3145 10.1724 10.7029 11.0208 10.7029 11.9299V14.3036V14.3107ZM5.85932 10.2124C6.22429 10.0064 6.6587 9.8867 7.12437 9.8867C7.37036 9.8867 7.60912 9.91948 7.83516 9.98214C8.20055 10.0845 8.53132 10.2666 8.80208 10.5181C9.22357 10.9077 9.45496 11.4098 9.45496 11.9379C9.45496 12.2409 9.38056 12.5267 9.2318 12.7778C8.8599 13.4271 8.04999 13.8339 7.12437 13.8339C6.19876 13.8339 5.38884 13.4271 5.00867 12.7691C4.85991 12.5094 4.78557 12.2323 4.78557 11.9293C4.78557 11.5779 4.88797 11.2381 5.08061 10.9378L5.85932 10.2124ZM7.12437 15.1239C6.2425 15.1239 5.4201 14.849 4.78695 14.3731C4.82879 15.4205 5.81436 16.1996 7.12437 16.1996C8.43514 16.1996 9.42114 15.4196 9.46192 14.3713C8.83072 14.8483 8.00736 15.1239 7.12437 15.1239ZM5.0004 16.9182C5.36404 17.6281 6.18223 18.1129 7.12437 18.1129C8.06652 18.1129 8.88471 17.6194 9.24835 16.9182C8.66157 17.2904 7.93429 17.5069 7.12437 17.5069C6.31446 17.5069 5.58718 17.2904 5.0004 16.9182Z" fill="white" fill-opacity="0.4"/>
</svg>
