<svg width="20" height="20" viewBox="0 0 20 20" fill="none" xmlns="http://www.w3.org/2000/svg">
<g clip-path="url(#clip0_1261_3290)">
<path d="M4.99515 10.8333V7.5C4.99515 4.73833 7.23598 2.5 10.0001 2.5C12.7643 2.5 15.0051 4.73833 15.0051 7.5V10.8333C15.0051 11.655 15.3785 12.4325 16.0193 12.9475L16.2768 13.1542C17.041 13.7675 16.6068 15 15.6268 15H4.37348C3.39348 15 2.95931 13.7675 3.72348 13.1542L3.98098 12.9475C4.62265 12.4325 4.99515 11.655 4.99515 10.8333Z" stroke="white" stroke-linecap="round" stroke-linejoin="round"/>
<path d="M8.75 17.5H11.25" stroke="white" stroke-linecap="round" stroke-linejoin="round"/>
<path d="M8.27904 11.2864L8.2791 11.2865L8.28283 11.2827L10.0001 9.56578L11.7157 11.2811C11.752 11.3194 11.7954 11.3502 11.8435 11.3716C11.8926 11.3935 11.9456 11.4052 11.9993 11.4062C12.053 11.4071 12.1063 11.3972 12.1562 11.3771C12.206 11.357 12.2512 11.3271 12.2892 11.2891L12.1831 11.183L12.2892 11.2891C12.3272 11.2511 12.3571 11.2059 12.3772 11.156C12.3974 11.1062 12.4072 11.0529 12.4063 10.9992C12.4053 10.9455 12.3936 10.8925 12.3717 10.8434C12.3503 10.7953 12.3195 10.7518 12.2812 10.7156L10.5659 9L12.2829 7.28272L12.2829 7.28279L12.2865 7.27893C12.3572 7.2031 12.3956 7.10281 12.3938 6.99918C12.392 6.89555 12.35 6.79668 12.2767 6.72339C12.2034 6.65011 12.1046 6.60813 12.0009 6.6063C11.8973 6.60447 11.797 6.64294 11.7212 6.71359L11.7211 6.71352L11.7174 6.71726L10.0001 8.43422L8.28283 6.71726L8.2829 6.71719L8.27904 6.71359C8.20321 6.64294 8.10292 6.60447 7.99929 6.6063C7.89566 6.60813 7.79679 6.65011 7.7235 6.72339C7.65022 6.79668 7.60824 6.89555 7.60641 6.99918C7.60458 7.10281 7.64305 7.2031 7.7137 7.27893L7.71364 7.27899L7.71737 7.28272L9.43433 9L7.71737 10.7173L7.7173 10.7172L7.7137 10.7211C7.64305 10.7969 7.60458 10.8972 7.60641 11.0008C7.60824 11.1044 7.65022 11.2033 7.7235 11.2766C7.79679 11.3499 7.89566 11.3919 7.99929 11.3937C8.10292 11.3955 8.20321 11.3571 8.27904 11.2864Z" fill="white" stroke="white" stroke-width="0.3"/>
</g>
<defs>
<clipPath id="clip0_1261_3290">
<rect width="20" height="20" fill="white"/>
</clipPath>
</defs>
</svg>
