<svg xmlns="http://www.w3.org/2000/svg" width="12" height="14" viewBox="0 0 12 14" fill="none">
  <path d="M10.2593 5.19727L9.86446 10.7817C9.78283 11.9369 8.85177 12.8319 7.72984 12.8319H3.86249C2.74121 12.8319 1.80952 11.9369 1.72791 10.7811L1.33301 5.19727" stroke="currentcolor" stroke-opacity="0.96" stroke-linecap="round" stroke-linejoin="round"/>
  <path fill-rule="evenodd" clip-rule="evenodd" d="M7.16454 0.333013H4.50588C3.90238 0.331333 3.3892 0.74759 3.2395 1.32419C3.23692 1.33414 3.23464 1.34417 3.23268 1.35426L2.98985 2.60124H0.5C0.223858 2.60124 0 2.82509 0 3.10124C0 3.37738 0.223858 3.60124 0.5 3.60124H11.1667C11.4428 3.60124 11.6667 3.37738 11.6667 3.10124C11.6667 2.82509 11.4428 2.60124 11.1667 2.60124H8.67839L8.433 1.35336C8.43111 1.34371 8.42892 1.33411 8.42646 1.32458C8.27764 0.749446 7.76613 0.333013 7.16454 0.333013ZM7.65924 2.60124L7.45525 1.56386C7.41254 1.41811 7.28812 1.33301 7.16454 1.33301H4.5051H4.50333C4.37852 1.33257 4.25384 1.41751 4.21067 1.56374L4.00864 2.60124H7.65924Z" fill="currentcolor" fill-opacity="0.96"/>
  <path d="M4.66699 6.6875V9.6931M6.8484 6.6875V9.6931" stroke="currentcolor" stroke-opacity="0.96" stroke-linecap="round" stroke-linejoin="round"/>
</svg>
