<svg xmlns="http://www.w3.org/2000/svg" width="22" height="22" viewBox="0 0 22 22" fill="none">
  <path d="M15.806 5.114C15.5924 5.114 15.3836 5.17734 15.206 5.29601C15.0284 5.41468 14.89 5.58336 14.8082 5.7807C14.7265 5.97805 14.7051 6.1952 14.7468 6.4047C14.7884 6.6142 14.8913 6.80663 15.0423 6.95768C15.1934 7.10872 15.3858 7.21158 15.5953 7.25325C15.8048 7.29492 16.022 7.27353 16.2193 7.19179C16.4166 7.11005 16.5853 6.97162 16.704 6.79402C16.8227 6.61641 16.886 6.4076 16.886 6.194C16.886 5.90757 16.7722 5.63286 16.5697 5.43032C16.3671 5.22779 16.0924 5.114 15.806 5.114ZM19.946 7.292C19.9285 6.54527 19.7886 5.80646 19.532 5.105C19.3032 4.50482 18.947 3.96135 18.488 3.512C18.0423 3.05068 17.4976 2.69676 16.895 2.477C16.1954 2.21254 15.4558 2.06949 14.708 2.054C13.754 2 13.448 2 11 2C8.552 2 8.246 2 7.292 2.054C6.54424 2.06949 5.80461 2.21254 5.105 2.477C4.50351 2.69898 3.95924 3.0526 3.512 3.512C3.05068 3.95766 2.69676 4.5024 2.477 5.105C2.21254 5.80461 2.06949 6.54424 2.054 7.292C2 8.246 2 8.552 2 11C2 13.448 2 13.754 2.054 14.708C2.06949 15.4558 2.21254 16.1954 2.477 16.895C2.69676 17.4976 3.05068 18.0423 3.512 18.488C3.95924 18.9474 4.50351 19.301 5.105 19.523C5.80461 19.7875 6.54424 19.9305 7.292 19.946C8.246 20 8.552 20 11 20C13.448 20 13.754 20 14.708 19.946C15.4558 19.9305 16.1954 19.7875 16.895 19.523C17.4976 19.3032 18.0423 18.9493 18.488 18.488C18.949 18.0403 19.3055 17.4964 19.532 16.895C19.7886 16.1935 19.9285 15.4547 19.946 14.708C19.946 13.754 20 13.448 20 11C20 8.552 20 8.246 19.946 7.292ZM18.326 14.6C18.3194 15.1713 18.216 15.7373 18.02 16.274C17.8763 16.6657 17.6455 17.0196 17.345 17.309C17.0531 17.6065 16.6999 17.8368 16.31 17.984C15.7733 18.18 15.2073 18.2834 14.636 18.29C13.736 18.335 13.403 18.344 11.036 18.344C8.669 18.344 8.336 18.344 7.436 18.29C6.8428 18.3011 6.25214 18.2098 5.69 18.02C5.3172 17.8653 4.98022 17.6355 4.7 17.345C4.40128 17.0559 4.17336 16.7017 4.034 16.31C3.81427 15.7656 3.6924 15.1867 3.674 14.6C3.674 13.7 3.62 13.367 3.62 11C3.62 8.633 3.62 8.3 3.674 7.4C3.67803 6.81595 3.78466 6.23715 3.989 5.69C4.14744 5.31012 4.39064 4.97149 4.7 4.7C4.97343 4.39055 5.31136 4.14479 5.69 3.98C6.2386 3.78204 6.8168 3.67857 7.4 3.674C8.3 3.674 8.633 3.62 11 3.62C13.367 3.62 13.7 3.62 14.6 3.674C15.1713 3.68055 15.7373 3.78402 16.274 3.98C16.683 4.13179 17.0501 4.37856 17.345 4.7C17.6399 4.97646 17.8704 5.31446 18.02 5.69C18.22 6.23804 18.3236 6.8166 18.326 7.4C18.371 8.3 18.38 8.633 18.38 11C18.38 13.367 18.371 13.7 18.326 14.6ZM11 6.383C10.0872 6.38478 9.19547 6.65707 8.43739 7.16548C7.67931 7.67388 7.08894 8.39558 6.74087 9.23938C6.3928 10.0832 6.30265 11.0112 6.48181 11.9062C6.66098 12.8013 7.10141 13.6231 7.74747 14.2679C8.39352 14.9127 9.21621 15.3515 10.1116 15.5289C11.0069 15.7064 11.9348 15.6144 12.7779 15.2647C13.621 14.915 14.3416 14.3232 14.8485 13.5641C15.3554 12.8051 15.626 11.9128 15.626 11C15.6272 10.3926 15.5083 9.79095 15.2761 9.22966C15.0439 8.66838 14.7031 8.15853 14.2732 7.72945C13.8433 7.30036 13.3328 6.96051 12.771 6.72944C12.2093 6.49836 11.6074 6.38063 11 6.383ZM11 13.997C10.4072 13.997 9.82781 13.8212 9.33496 13.4919C8.8421 13.1626 8.45797 12.6945 8.23113 12.1469C8.0043 11.5993 7.94495 10.9967 8.06059 10.4153C8.17623 9.83395 8.46166 9.29994 8.8808 8.8808C9.29994 8.46166 9.83395 8.17623 10.4153 8.06059C10.9967 7.94495 11.5993 8.0043 12.1469 8.23113C12.6945 8.45797 13.1626 8.8421 13.4919 9.33496C13.8212 9.82781 13.997 10.4072 13.997 11C13.997 11.3936 13.9195 11.7833 13.7689 12.1469C13.6183 12.5105 13.3975 12.8409 13.1192 13.1192C12.8409 13.3975 12.5105 13.6183 12.1469 13.7689C11.7833 13.9195 11.3936 13.997 11 13.997Z" fill="white"/>
</svg>
