<svg width="24" height="24" viewBox="0 0 24 24" fill="none" xmlns="http://www.w3.org/2000/svg">
<path d="M6.65548 6.4122H2.64045C2.46226 6.4122 2.31787 6.55665 2.31787 6.73478V19.6334C2.31787 19.8116 2.46226 19.9559 2.64045 19.9559H6.65548C6.83368 19.9559 6.97807 19.8116 6.97807 19.6334V6.73478C6.97807 6.55665 6.83368 6.4122 6.65548 6.4122Z" fill="white" fill-opacity="0.96"/>
<path d="M4.64942 0C3.18852 0 2 1.18723 2 2.64652C2 4.10645 3.18852 5.29413 4.64942 5.29413C6.10916 5.29413 7.29671 4.10639 7.29671 2.64652C7.29677 1.18723 6.10916 0 4.64942 0Z" fill="white" fill-opacity="0.96"/>
<path d="M16.8682 6.09158C15.2556 6.09158 14.0635 6.78481 13.3405 7.57249V6.73474C13.3405 6.55662 13.1961 6.41216 13.0179 6.41216H9.1728C8.99461 6.41216 8.85022 6.55662 8.85022 6.73474V19.6333C8.85022 19.8115 8.99461 19.9559 9.1728 19.9559H13.1791C13.3573 19.9559 13.5016 19.8115 13.5016 19.6333V13.2515C13.5016 11.101 14.0858 10.2632 15.5849 10.2632C17.2175 10.2632 17.3473 11.6063 17.3473 13.3622V19.6334C17.3473 19.8116 17.4916 19.956 17.6698 19.956H21.6776C21.8558 19.956 22.0002 19.8116 22.0002 19.6334V12.5583C22.0002 9.36055 21.3904 6.09158 16.8682 6.09158Z" fill="white" fill-opacity="0.96"/>
</svg>
