<svg width="76" height="42" viewBox="0 0 76 42" fill="none" xmlns="http://www.w3.org/2000/svg">
<path d="M73.9994 38.2999C75.104 38.2999 76.0049 37.4038 75.9468 36.3008C75.6778 31.1941 74.3803 26.1869 72.1245 21.5822C69.8687 16.9776 66.7075 12.8834 62.8373 9.54091C62.0013 8.81893 60.7411 8.98158 60.0641 9.85436L55.9944 15.101C55.3174 15.9738 55.4817 17.2248 56.3027 17.9638C58.8984 20.3 61.0277 23.116 62.5695 26.2632C64.1112 29.4104 65.0313 32.8188 65.2864 36.3017C65.367 37.4033 66.2548 38.2999 67.3594 38.2999H73.9994Z" fill="#00FFA3"/>
<path d="M53.5864 5.84921C54.0647 4.85354 53.647 3.65347 52.6276 3.22826C47.9079 1.25968 42.8326 0.261297 37.7052 0.300997C32.5778 0.340696 27.5186 1.41754 22.8299 3.45897C21.8172 3.89991 21.4182 5.10631 21.9118 6.09446L24.879 12.0346C25.3727 13.0227 26.5715 13.4163 27.5931 12.9961C30.8229 11.6679 34.2831 10.9678 37.7876 10.9407C41.292 10.9135 44.7627 11.5599 48.0127 12.838C49.0406 13.2423 50.2333 12.8302 50.7115 11.8346L53.5864 5.84921Z" fill="#FFA500"/>
<path d="M16.0031 9.80141C15.3282 8.927 14.0684 8.76133 13.2307 9.48129C9.35247 12.8145 6.18145 16.9011 3.91459 21.5003C1.64773 26.0995 0.338172 31.1035 0.056875 36.2096C-0.0038844 37.3125 0.894878 38.2107 1.99944 38.2134L8.63943 38.2294C9.74399 38.232 10.634 37.3375 10.7173 36.2361C10.9807 32.7538 11.909 29.3477 13.4583 26.2042C15.0077 23.0607 17.1437 20.2498 19.745 17.9198C20.5678 17.1829 20.7351 15.9322 20.0602 15.0578L16.0031 9.80141Z" fill="#F14056"/>
<path fill-rule="evenodd" clip-rule="evenodd" d="M36 9.5L35.0075 35.3048C35.0025 35.3692 35 35.4343 35 35.5C35 36.8807 36.1193 38 37.5 38C38.8807 38 40 36.8807 40 35.5C40 35.4343 39.9975 35.3692 39.9925 35.3048L39 9.5C39 8.67157 38.3284 8 37.5 8C36.6716 8 36 8.67157 36 9.5Z" fill="white" style="transition: transform 0.8s; transform: rotate(var(--rotate)); transform-origin: 37.5px 35.9px;"/>
<circle cx="37.6096" cy="36.6096" r="4.60957" fill="url(#paint0_radial_6_10)"/>
<circle cx="37.5365" cy="36.5365" r="1.53652" fill="white"/>
<defs>
<radialGradient id="paint0_radial_6_10" cx="0" cy="0" r="1" gradientUnits="userSpaceOnUse" gradientTransform="translate(37.6096 36.6096) rotate(90) scale(4.60957)">
<stop stop-color="#F2F2F2"/>
<stop offset="1" stop-color="#DBDBDB"/>
</radialGradient>
</defs>
</svg>
