<svg width="16" height="16" viewBox="0 0 16 16" fill="none" xmlns="http://www.w3.org/2000/svg">
<g id="Mailbox Archive New One Click 1" clip-path="url(#clip0_9756_1835)">
<g id="Group">
<path id="Vector" d="M4.21934 6.33267L3.28601 6.33334" stroke="white" stroke-linecap="round" stroke-linejoin="round"/>
<path id="Vector_2" d="M11.2193 3.06668L10.5593 3.72668" stroke="white" stroke-linecap="round" stroke-linejoin="round"/>
<path id="Vector_3" d="M7.95267 1.66666V2.59999" stroke="white" stroke-linecap="round" stroke-linejoin="round"/>
<path id="Vector_4" d="M4.686 3.06668L5.34534 3.72668" stroke="white" stroke-linecap="round" stroke-linejoin="round"/>
<path id="Vector_5" d="M12.6193 6.33334L11.686 6.33267" stroke="white" stroke-linecap="round" stroke-linejoin="round"/>
<path id="Vector_6" d="M14 8.66666V12.3333C14 12.8638 13.7893 13.3725 13.4142 13.7475C13.0391 14.1226 12.5304 14.3333 12 14.3333H4C3.46957 14.3333 2.96086 14.1226 2.58579 13.7475C2.21071 13.3725 2 12.8638 2 12.3333V8.66666" stroke="white" stroke-linecap="round" stroke-linejoin="round"/>
<path id="Vector_7" d="M2 10.3333H4.92133C5.04504 10.3333 5.1663 10.3678 5.27156 10.4328C5.37682 10.4978 5.46191 10.5907 5.51733 10.7013L5.81533 11.298C5.87071 11.4088 5.95587 11.502 6.06127 11.5672C6.16666 11.6323 6.28811 11.6667 6.412 11.6667H9.58733C9.71122 11.6667 9.83267 11.6323 9.93807 11.5672C10.0435 11.502 10.1286 11.4088 10.184 11.298L10.482 10.702C10.5374 10.5912 10.6225 10.498 10.7279 10.4329C10.8333 10.3677 10.9548 10.3333 11.0787 10.3333H14" stroke="white" stroke-linecap="round" stroke-linejoin="round"/>
<path id="Vector_8" d="M7.22266 6.22267L7.99999 5.444V8.556" stroke="white" stroke-linecap="round" stroke-linejoin="round"/>
<path id="Vector_9" d="M7.22467 8.55801H8.77534" stroke="white" stroke-linecap="round" stroke-linejoin="round"/>
</g>
</g>
<defs>
<clipPath id="clip0_9756_1835">
<rect width="16" height="16" fill="white"/>
</clipPath>
</defs>
</svg>
