<svg width="14" height="10" viewBox="0 0 14 10" fill="none" xmlns="http://www.w3.org/2000/svg">
<path d="M0.66672 4.99994C0.66672 4.91154 0.701839 4.82675 0.764351 4.76424C0.826863 4.70173 0.911648 4.66661 1.00005 4.66661L12.1954 4.66661L8.09739 0.569279C8.0348 0.506688 7.99963 0.421796 7.99963 0.333279C7.99963 0.244762 8.0348 0.15987 8.09739 0.0972791C8.12838 0.0662866 8.16517 0.0417028 8.20567 0.0249305C8.24616 0.00815729 8.28956 -0.000475371 8.33339 -0.000475367C8.42191 -0.000475359 8.5068 0.0346876 8.56939 0.0972791L13.2361 4.76395C13.2671 4.79491 13.2917 4.83169 13.3085 4.87219C13.3253 4.91269 13.334 4.9561 13.334 4.99995C13.334 5.04379 13.3253 5.0872 13.3085 5.1277C13.2917 5.1682 13.2671 5.20498 13.2361 5.23595L8.56939 9.90261C8.5384 9.9336 8.5016 9.95819 8.46111 9.97496C8.42062 9.99173 8.37722 10.0004 8.33339 10.0004C8.28956 10.0004 8.24616 9.99173 8.20567 9.97496C8.16517 9.95819 8.12838 9.9336 8.09739 9.90261C8.0664 9.87162 8.04181 9.83483 8.02504 9.79433C8.00827 9.75384 7.99963 9.71044 7.99963 9.66661C7.99963 9.62278 8.00827 9.57938 8.02504 9.53889C8.04181 9.4984 8.0664 9.4616 8.09739 9.43061L12.1954 5.33328L1.00005 5.33328C0.911648 5.33328 0.826863 5.29816 0.764351 5.23565C0.701839 5.17313 0.66672 5.08835 0.66672 4.99994Z" fill="#00A3FF"/>
</svg>
