<svg width="16" height="16" viewBox="0 0 16 16" fill="none" xmlns="http://www.w3.org/2000/svg">
<g clip-path="url(#clip0_7889_34601)">
<path d="M8.66667 11.3333H12C12.2626 11.3334 12.5227 11.2816 12.7654 11.1811C13.008 11.0806 13.2285 10.9333 13.4143 10.7476C13.6 10.5619 13.7473 10.3414 13.8478 10.0987C13.9483 9.85606 14 9.59598 14 9.33333V4C14 3.73735 13.9483 3.47727 13.8478 3.23461C13.7473 2.99195 13.6 2.77147 13.4143 2.58575C13.2285 2.40003 13.008 2.25271 12.7654 2.15221C12.5227 2.0517 12.2626 1.99998 12 2H4C3.73735 1.99998 3.47727 2.0517 3.23461 2.15221C2.99195 2.25271 2.77147 2.40003 2.58575 2.58575C2.40003 2.77147 2.25271 2.99195 2.15221 3.23461C2.0517 3.47727 1.99998 3.73735 2 4V9.33333C1.99998 9.59598 2.0517 9.85606 2.15221 10.0987C2.25271 10.3414 2.40003 10.5619 2.58575 10.7476C2.77147 10.9333 2.99195 11.0806 3.23461 11.1811C3.47727 11.2816 3.73735 11.3334 4 11.3333H5.33333V14L8.66667 11.3333Z" stroke="#F6F6F6" stroke-linecap="round" stroke-linejoin="round"/>
</g>
<defs>
<clipPath id="clip0_7889_34601">
<rect width="16" height="16" fill="white"/>
</clipPath>
</defs>
</svg>
