<svg width="16" height="16" viewBox="0 0 16 16" fill="none" xmlns="http://www.w3.org/2000/svg">
<g id="arrow-up-small 1">
<g id="Group">
<path id="1715783897735-2001112_arrow-up-small" d="M11.1379 5.8047C11.0129 5.92968 10.8434 5.99989 10.6666 5.99989C10.4898 5.99989 10.3203 5.92968 10.1953 5.8047L8.66661 4.27604V13.3334C8.66661 13.5102 8.59637 13.6798 8.47135 13.8048C8.34633 13.9298 8.17676 14 7.99995 14C7.82314 14 7.65357 13.9298 7.52854 13.8048C7.40352 13.6798 7.33328 13.5102 7.33328 13.3334V4.27604L5.80461 5.8047C5.67888 5.92614 5.51048 5.99334 5.33568 5.99182C5.16088 5.9903 4.99367 5.92019 4.87007 5.79658C4.74646 5.67298 4.67635 5.50577 4.67483 5.33097C4.67331 5.15617 4.74051 4.98777 4.86195 4.86204L7.52861 2.19537C7.59054 2.13329 7.66411 2.08403 7.7451 2.05042C7.82609 2.01681 7.91292 1.99951 8.00061 1.99951C8.0883 1.99951 8.17513 2.01681 8.25612 2.05042C8.33712 2.08403 8.41068 2.13329 8.47261 2.19537L11.1393 4.86204C11.2641 4.98723 11.3341 5.15687 11.3338 5.33365C11.3336 5.51042 11.2631 5.67986 11.1379 5.8047Z" fill="white" fill-opacity="0.7"/>
</g>
</g>
</svg>
