<svg width="14" height="14" viewBox="0 0 14 14" fill="none" xmlns="http://www.w3.org/2000/svg">
<g id="cap 1" clip-path="url(#clip0_2673_3378)">
<g id="Group">
<path id="Vector" d="M11.7895 9.03916C8.70871 7.84176 5.29119 7.84176 2.21045 9.03916" stroke="#838C95" stroke-linecap="round" stroke-linejoin="round"/>
<path id="Vector_2" d="M2.33327 8.43614L1.7826 10.7941C1.73444 11.0051 1.74458 11.2253 1.81195 11.4309C1.87931 11.6366 2.00137 11.8201 2.16503 11.9617C2.3287 12.1034 2.52781 12.1978 2.74104 12.2349C2.95427 12.2721 3.17358 12.2505 3.37548 12.1725C5.71971 11.338 8.28013 11.338 10.6244 12.1725C10.8263 12.2505 11.0456 12.2721 11.2588 12.235C11.472 12.1978 11.6712 12.1034 11.8348 11.9618C11.9985 11.8202 12.1206 11.6367 12.1879 11.431C12.2553 11.2253 12.2654 11.0052 12.2173 10.7941C12.0193 9.94631 11.8236 9.10837 11.6666 8.43604" stroke="#838C95" stroke-linecap="round" stroke-linejoin="round"/>
<path id="Vector_3" d="M11.6666 8.43617V6.41667C11.6666 5.17899 11.1749 3.992 10.2998 3.11684C9.42458 2.24167 8.2376 1.75 6.99992 1.75C5.76224 1.75 4.57526 2.24167 3.70009 3.11684C2.82492 3.992 2.33325 5.17899 2.33325 6.41667V8.43629" stroke="#838C95" stroke-linecap="round" stroke-linejoin="round"/>
<path id="Vector_4" d="M5.25 8.2448V5.94096C5.25001 4.52564 5.76458 3.15859 6.69783 2.09455L7 1.75" stroke="#838C95" stroke-linecap="round" stroke-linejoin="round"/>
<path id="Vector_5" d="M8.75 8.2448V5.94096C8.74999 4.52564 8.23542 3.15859 7.30217 2.09455L7 1.75" stroke="#838C95" stroke-linecap="round" stroke-linejoin="round"/>
</g>
</g>
<defs>
<clipPath id="clip0_2673_3378">
<rect width="14" height="14" fill="white"/>
</clipPath>
</defs>
</svg>
