<svg width="25" height="25" viewBox="0 0 25 25" fill="none" xmlns="http://www.w3.org/2000/svg">
<path fill-rule="evenodd" clip-rule="evenodd" d="M15.4315 21.0811C15.5882 19.5098 14.6979 17.8635 14.2912 17.4442C16.1865 17.233 18.1772 16.515 18.1772 13.2215C18.1772 12.3789 17.8532 11.5694 17.2724 10.9583C17.5468 10.2218 17.5273 9.40743 17.2179 8.68451C17.2179 8.68451 16.5057 8.47338 14.8584 9.5777C13.4758 9.20213 12.0183 9.20213 10.6357 9.5777C8.98849 8.47338 8.27627 8.68451 8.27627 8.68451C7.96686 9.40743 7.94741 10.2218 8.22276 10.9583C7.63703 11.5733 7.31303 12.3906 7.31692 13.239C7.31692 16.5091 9.30859 17.2184 11.203 17.4539C10.7963 17.8723 9.90405 19.5069 10.0607 21.0782C6.4033 19.9408 3.75 16.515 3.75 12.4888C3.75 7.515 7.77616 3.48883 12.75 3.48883C17.7141 3.48883 21.75 7.515 21.75 12.4888C21.75 16.515 19.0879 19.935 15.4315 21.0811Z" stroke="white" stroke-width="1.5" stroke-linecap="round" stroke-linejoin="round"/>
</svg>
