<svg width="20" height="20" viewBox="0 0 20 20" fill="none" xmlns="http://www.w3.org/2000/svg">
<g id="social-network_6487987 1">
<path id="Vector" d="M17.9345 12.9572C18.1066 12.2899 18.1939 11.6015 18.1939 10.9062C18.1939 9.33959 17.7502 7.81656 16.9106 6.50195C16.0935 5.22272 14.9415 4.19627 13.5789 3.53368C13.3896 3.4416 13.1614 3.52046 13.0693 3.70983M17.9345 12.9572L13.5352 3.62361C13.3955 3.55568 13.2272 3.61387 13.1593 3.75354L13.0694 3.7098C13.0694 3.70981 13.0693 3.70982 13.0693 3.70983M17.9345 12.9572C18.5496 13.3459 18.9597 14.0318 18.9597 14.8125C18.9597 16.0222 17.9757 17.0063 16.766 17.0063C15.5563 17.0063 14.5722 16.0222 14.5722 14.8125C14.5722 13.6028 15.5563 12.6188 16.766 12.6188C16.9221 12.6188 17.0744 12.6353 17.2215 12.6665C17.3608 12.0928 17.4314 11.5024 17.4314 10.9062C17.4314 8.0369 15.8278 5.47512 13.2455 4.2194C13.0562 4.12734 12.9772 3.89923 13.0693 3.70983M17.9345 12.9572L13.0693 3.70983M2.23444 11.8459L2.23472 11.8459C2.44473 11.8311 2.603 11.6487 2.58813 11.4387C2.57538 11.2586 2.5689 11.0794 2.5689 10.9062C2.5689 7.57108 4.74799 4.69102 7.9143 3.77195C8.20061 4.65042 9.02687 5.28743 10.0002 5.28743C11.2099 5.28743 12.1939 4.30338 12.1939 3.09366C12.1939 1.88393 11.2099 0.9 10.0002 0.9C8.81848 0.9 7.85232 1.83899 7.80815 3.01003C6.16278 3.46695 4.67912 4.44374 3.6037 5.78522C2.44461 7.23101 1.8064 9.04957 1.8064 10.9062C1.8064 11.0975 1.81348 11.2948 1.8275 11.4926L1.92725 11.4855L1.8275 11.4926C1.84175 11.6935 2.00913 11.8469 2.20755 11.8469C2.21663 11.8469 2.22565 11.8465 2.23444 11.8459ZM14.168 17.0594L14.168 17.0594C12.9361 17.8955 11.4951 18.3375 10.0002 18.3375C8.06173 18.3375 6.25362 17.6087 4.86558 16.2774C5.21486 15.8889 5.42809 15.3752 5.42809 14.8125C5.42809 13.6027 4.44404 12.6187 3.23432 12.6187C2.02459 12.6187 1.04062 13.6028 1.04062 14.8125C1.04062 16.0222 2.02463 17.0063 3.23436 17.0063C3.60424 17.0063 3.95287 16.9137 4.25884 16.7513C4.96834 17.4493 5.78787 18.0059 6.6991 18.4076C7.7415 18.8671 8.85233 19.1 10.0002 19.1C11.6481 19.1 13.2375 18.6125 14.5963 17.6903C14.7705 17.5721 14.8158 17.335 14.6976 17.1608L14.6976 17.1607C14.5793 16.9865 14.3422 16.9412 14.168 17.0594ZM10.0002 1.6625C10.7893 1.6625 11.4314 2.30465 11.4314 3.09373C11.4314 3.88282 10.7893 4.525 10.0002 4.525C9.21106 4.525 8.56891 3.88285 8.56891 3.09373C8.56891 2.30461 9.21105 1.6625 10.0002 1.6625ZM1.80312 14.8125C1.80312 14.0234 2.44524 13.3813 3.23436 13.3813C4.02348 13.3813 4.66562 14.0234 4.66562 14.8125C4.66562 15.6016 4.02347 16.2438 3.23436 16.2438C2.44524 16.2438 1.80312 15.6016 1.80312 14.8125ZM16.766 16.2437C15.9769 16.2437 15.3347 15.6016 15.3347 14.8125C15.3347 14.0234 15.9769 13.3812 16.766 13.3812C17.5551 13.3812 18.1972 14.0233 18.1972 14.8125C18.1972 15.6016 17.5551 16.2437 16.766 16.2437ZM5.66385 10.9062C5.66385 13.2974 7.60902 15.2426 10.0002 15.2426C12.3913 15.2426 14.3365 13.2974 14.3365 10.9062C14.3365 8.51507 12.3913 6.56989 10.0002 6.56989C7.60902 6.56989 5.66385 8.51507 5.66385 10.9062ZM7.66112 13.6058C7.87008 12.4893 8.84393 11.6689 10.0002 11.6689C11.1564 11.6689 12.1303 12.4893 12.3393 13.6058C11.7118 14.1502 10.8939 14.4801 10.0002 14.4801C9.10648 14.4801 8.28856 14.1502 7.66112 13.6058ZM8.98502 9.89123C8.98502 9.33154 9.44049 8.87604 10.0002 8.87604C10.5599 8.87604 11.0154 9.33154 11.0154 9.89123C11.0154 10.4509 10.5599 10.9064 10.0002 10.9064C9.44049 10.9064 8.98502 10.4509 8.98502 9.89123ZM13.574 10.9062C13.574 11.6591 13.3399 12.3581 12.9407 12.9349C12.6381 12.1321 12.02 11.4944 11.2427 11.1611C11.5725 10.8384 11.7779 10.3885 11.7779 9.89119C11.7779 8.9109 10.9805 8.1135 10.0002 8.1135C9.01985 8.1135 8.22248 8.91086 8.22248 9.89119C8.22248 10.3885 8.42788 10.8384 8.75768 11.1611C7.9803 11.4944 7.36216 12.1321 7.05964 12.9349C6.66044 12.3582 6.42631 11.6591 6.42631 10.9062C6.42631 8.93571 8.02963 7.33239 10.0001 7.33239C11.9707 7.33239 13.574 8.93571 13.574 10.9062Z" fill="#838C95" stroke="#838C95" stroke-width="0.2"/>
</g>
</svg>
