<svg xmlns="http://www.w3.org/2000/svg" width="6" height="25" viewBox="0 0 6 25" fill="none">
  <path d="M3 0L0.113249 5H5.88675L3 0ZM2.5 24C2.5 24.2761 2.72386 24.5 3 24.5C3.27614 24.5 3.5 24.2761 3.5 24H2.5ZM2.5 1C2.5 1.27614 2.72386 1.5 3 1.5C3.27614 1.5 3.5 1.27614 3.5 1H2.5ZM3.5 7C3.5 6.72386 3.27614 6.5 3 6.5C2.72386 6.5 2.5 6.72386 2.5 7H3.5ZM2.5 9C2.5 9.27614 2.72386 9.5 3 9.5C3.27614 9.5 3.5 9.27614 3.5 9H2.5ZM3.5 15C3.5 14.7239 3.27614 14.5 3 14.5C2.72386 14.5 2.5 14.7239 2.5 15H3.5ZM2.5 17C2.5 17.2761 2.72386 17.5 3 17.5C3.27614 17.5 3.5 17.2761 3.5 17H2.5ZM3.5 23C3.5 22.7239 3.27614 22.5 3 22.5C2.72386 22.5 2.5 22.7239 2.5 23H3.5ZM2.5 7V9H3.5V7H2.5ZM2.5 15V17H3.5V15H2.5ZM2.5 23V24H3.5V23H2.5Z" fill="currentcolor"/>
</svg>
