<svg width="231" height="245" viewBox="0 0 231 245" fill="none"
    xmlns="http://www.w3.org/2000/svg">
    <g style="mix-blend-mode:lighten" opacity="0.3" filter="url(#filter0_f_309_2298)">
        <path d="M115.725 112.199C143.188 112.199 165.451 100.71 165.451 86.5379C165.451 72.3655 143.188 60.8765 115.725 60.8765C88.2628 60.8765 66 72.3655 66 86.5379C66 100.71 88.2628 112.199 115.725 112.199Z" fill="#34A3DA"/>
    </g>
    <g style="mix-blend-mode:lighten" opacity="0.3" filter="url(#filter1_f_309_2298)">
        <path d="M115.5 184.228C146.152 184.228 171 171.622 171 156.072C171 140.522 146.152 127.916 115.5 127.916C84.8482 127.916 60 140.522 60 156.072C60 171.622 84.8482 184.228 115.5 184.228Z" fill="#AF49FF"/>
    </g>
    <path d="M115.004 195.563C113.279 195.563 111.635 195.216 110.405 194.503L56.6934 163.464C55.4909 162.77 54.8289 161.806 54.8289 160.746C54.8289 159.475 55.7837 158.195 57.4455 157.235L109.653 127.07C112.774 125.267 117.521 125.069 120.228 126.638L173.94 157.677C175.143 158.371 175.805 159.335 175.805 160.395C175.805 161.666 174.85 162.946 173.188 163.906L120.98 194.071C119.273 195.058 117.08 195.563 115.004 195.563ZM115.63 125.781C113.59 125.781 111.432 126.277 109.752 127.251L57.5446 157.415C55.9458 158.339 55.0315 159.556 55.0315 160.751C55.0315 161.733 55.6576 162.635 56.7925 163.293L110.505 194.332C113.157 195.865 117.81 195.671 120.881 193.899L173.089 163.735C174.688 162.811 175.602 161.594 175.602 160.399C175.602 159.417 174.976 158.515 173.841 157.857L120.129 126.818C118.927 126.124 117.319 125.786 115.63 125.786V125.781Z" fill="white" fill-opacity="0.8"/>
    <g style="mix-blend-mode:lighten" opacity="0.5" filter="url(#filter2_f_309_2298)">
        <path d="M61.1431 159.304C63.3818 159.304 65.1965 157.488 65.1965 155.247C65.1965 153.007 63.3818 151.19 61.1431 151.19C58.9045 151.19 57.0897 153.007 57.0897 155.247C57.0897 157.488 58.9045 159.304 61.1431 159.304Z" fill="#34A3DA"/>
    </g>
    <path d="M62.3005 155.247C62.3005 155.887 61.7826 156.406 61.1431 156.406C60.5035 156.406 59.9856 155.887 59.9856 155.247C59.9856 154.607 60.5035 154.089 61.1431 154.089C61.7826 154.089 62.3005 154.607 62.3005 155.247Z" fill="white"/>
    <path d="M61.8005 155.247C61.8005 155.612 61.5061 155.906 61.1431 155.906C60.7801 155.906 60.4856 155.612 60.4856 155.247C60.4856 154.883 60.7801 154.589 61.1431 154.589C61.5061 154.589 61.8005 154.883 61.8005 155.247Z" stroke="white" stroke-opacity="0.8"/>
    <g style="mix-blend-mode:lighten" opacity="0.5" filter="url(#filter3_f_309_2298)">
        <path d="M149.867 181.319C152.106 181.319 153.921 179.502 153.921 177.262C153.921 175.021 152.106 173.205 149.867 173.205C147.629 173.205 145.814 175.021 145.814 177.262C145.814 179.502 147.629 181.319 149.867 181.319Z" fill="#34A3DA"/>
    </g>
    <path d="M149.867 178.42C150.507 178.42 151.025 177.902 151.025 177.262C151.025 176.622 150.507 176.104 149.867 176.104C149.228 176.104 148.71 176.622 148.71 177.262C148.71 177.902 149.228 178.42 149.867 178.42Z" fill="white"/>
    <path d="M150.525 177.262C150.525 177.626 150.23 177.92 149.867 177.92C149.505 177.92 149.21 177.626 149.21 177.262C149.21 176.898 149.505 176.604 149.867 176.604C150.23 176.604 150.525 176.898 150.525 177.262Z" stroke="white" stroke-opacity="0.8"/>
    <g style="mix-blend-mode:lighten" opacity="0.5" filter="url(#filter4_f_309_2298)">
        <path d="M157.384 176.883C159.623 176.883 161.438 175.067 161.438 172.826C161.438 170.586 159.623 168.77 157.384 168.77C155.146 168.77 153.331 170.586 153.331 172.826C153.331 175.067 155.146 176.883 157.384 176.883Z" fill="#34A3DA"/>
    </g>
    <path d="M158.537 172.826C158.537 173.466 158.019 173.985 157.38 173.985C156.74 173.985 156.222 173.466 156.222 172.826C156.222 172.186 156.74 171.668 157.38 171.668C158.019 171.668 158.537 172.186 158.537 172.826Z" fill="white"/>
    <path d="M158.037 172.826C158.037 173.191 157.743 173.485 157.38 173.485C157.017 173.485 156.722 173.191 156.722 172.826C156.722 172.462 157.017 172.168 157.38 172.168C157.743 172.168 158.037 172.462 158.037 172.826Z" stroke="white" stroke-opacity="0.8"/>
    <g style="mix-blend-mode:lighten" opacity="0.5" filter="url(#filter5_f_309_2298)">
        <path d="M164.901 172.52C167.14 172.52 168.955 170.704 168.955 168.463C168.955 166.223 167.14 164.406 164.901 164.406C162.663 164.406 160.848 166.223 160.848 168.463C160.848 170.704 162.663 172.52 164.901 172.52Z" fill="#34A3DA"/>
    </g>
    <path d="M166.054 168.463C166.054 169.103 165.536 169.622 164.897 169.622C164.257 169.622 163.739 169.103 163.739 168.463C163.739 167.823 164.257 167.305 164.897 167.305C165.536 167.305 166.054 167.823 166.054 168.463Z" fill="white"/>
    <path d="M165.554 168.463C165.554 168.827 165.26 169.122 164.897 169.122C164.534 169.122 164.239 168.827 164.239 168.463C164.239 168.099 164.534 167.805 164.897 167.805C165.26 167.805 165.554 168.099 165.554 168.463Z" stroke="white" stroke-opacity="0.8"/>
    <path d="M110.198 185.574L71.9161 163.455C69.0066 161.774 69.3714 158.84 72.7313 156.897L109.383 135.72C112.743 133.778 117.823 133.57 120.733 135.252L159.015 157.37C161.924 159.052 161.559 161.986 158.199 163.929L121.548 185.105C118.188 187.048 113.108 187.255 110.198 185.574Z" fill="#0A0E2D"/>
    <path d="M165.856 137.776V129.856H145.436L121.296 115.905C118.075 114.044 112.446 114.278 108.725 116.428L85.486 129.856H65.0524V138.227H65.0704C64.9803 139.489 65.6829 140.701 67.2277 141.598L109.626 166.097C112.846 167.958 118.476 167.724 122.196 165.574L162.789 142.117C164.933 140.877 165.968 139.272 165.851 137.776H165.856Z" fill="#312A91"/>
    <path opacity="0.5" d="M165.856 137.776V129.856H145.436L121.296 115.905C118.075 114.044 112.446 114.278 108.725 116.428L85.486 129.856H65.0524V138.227H65.0704C64.9803 139.489 65.6829 140.701 67.2277 141.598L109.626 166.097C112.846 167.958 118.476 167.724 122.196 165.574L162.789 142.117C164.933 140.877 165.968 139.272 165.851 137.776H165.856Z" fill="url(#paint0_linear_309_2298)"/>
    <path d="M121.3 115.905C119.751 115.008 117.647 114.603 115.463 114.657V167.341C117.823 167.282 120.269 166.687 122.205 165.574L162.798 142.117C164.942 140.877 165.977 139.272 165.86 137.776V129.856H145.44L121.3 115.905Z" fill="url(#paint1_linear_309_2298)"/>
    <path d="M109.635 157.726L67.2369 133.228C64.0167 131.366 64.4175 128.116 68.1376 125.966L108.73 102.509C112.45 100.359 118.08 100.124 121.3 101.986L163.699 126.484C166.919 128.346 166.518 131.596 162.798 133.746L122.205 157.203C118.485 159.353 112.856 159.588 109.635 157.726Z" fill="#312A91"/>
    <path opacity="0.5" d="M109.635 157.726L67.2369 133.228C64.0167 131.366 64.4175 128.116 68.1376 125.966L108.73 102.509C112.45 100.359 118.08 100.124 121.3 101.986L163.699 126.484C166.919 128.346 166.518 131.596 162.798 133.746L122.205 157.203C118.485 159.353 112.856 159.588 109.635 157.726Z" fill="url(#paint2_linear_309_2298)"/>
    <path d="M110.766 152.312L76.6045 132.574C74.0103 131.073 74.3346 128.454 77.3296 126.723L110.036 107.823C113.036 106.092 117.566 105.903 120.165 107.404L154.326 127.142C156.92 128.643 156.596 131.262 153.601 132.993L120.895 151.893C117.895 153.624 113.364 153.813 110.766 152.312Z" fill="#34A3DA"/>
    <path d="M77.3297 129.279L110.036 110.379C113.036 108.648 117.566 108.459 120.165 109.96L154.326 129.698C154.966 130.068 155.43 130.51 155.718 130.983C156.47 129.599 156.038 128.125 154.326 127.138L120.165 107.399C117.571 105.898 113.036 106.088 110.036 107.819L77.3297 126.719C75.0733 128.021 74.3302 129.829 75.2129 131.285C75.6048 130.568 76.3074 129.869 77.3297 129.279Z" fill="#42E8E0"/>
    <path opacity="0.5" d="M111.058 157.726L68.6599 133.228C65.4397 131.366 64.6696 128.63 69.5607 125.966L110.153 102.509C111.982 101.45 114.274 100.859 116.513 100.751C113.851 100.629 110.95 101.224 108.73 102.509L68.1375 125.966C64.4174 128.116 64.012 131.366 67.2367 133.228L109.635 157.726C111.275 158.673 113.531 159.074 115.846 158.961C114.049 158.88 112.356 158.475 111.058 157.726Z" fill="url(#paint3_linear_309_2298)"/>
    <path opacity="0.5" d="M162.798 137.285L122.205 160.742C118.485 162.892 112.855 163.126 109.635 161.265L67.2367 136.766C65.6874 135.874 64.9848 134.657 65.0794 133.395H65.0614V135.13H65.0794C64.9893 136.392 65.6919 137.605 67.2367 138.502L109.635 163C112.855 164.862 118.485 164.627 122.205 162.477L162.798 139.02C164.942 137.78 165.978 136.176 165.86 134.679V132.944C165.982 134.44 164.946 136.045 162.798 137.285Z" fill="url(#paint4_linear_309_2298)"/>
    <path d="M155.434 134.977C155.898 135.242 155.898 135.68 155.434 135.946C154.97 136.212 154.223 136.212 153.759 135.946C153.295 135.68 153.295 135.247 153.759 134.977C154.223 134.706 154.97 134.711 155.434 134.977Z" fill="#FCCC6B"/>
    <path d="M158.042 133.467C158.506 133.732 158.506 134.165 158.042 134.436C157.578 134.706 156.83 134.702 156.366 134.436C155.903 134.17 155.903 133.732 156.366 133.467C156.83 133.201 157.578 133.201 158.042 133.467Z" fill="#FCCC6B"/>
    <path d="M160.654 131.961C161.118 132.227 161.118 132.664 160.654 132.93C160.19 133.196 159.443 133.196 158.979 132.93C158.515 132.664 158.515 132.231 158.979 131.961C159.443 131.69 160.19 131.695 160.654 131.961Z" fill="#FCCC6B"/>
    <path opacity="0.5" d="M111.779 147.53L84.9816 132.047C82.9459 130.87 83.2026 128.815 85.5536 127.458L111.207 112.633C113.558 111.276 117.116 111.127 119.152 112.304L145.949 127.787C147.985 128.964 147.728 131.019 145.377 132.376L119.724 147.201C117.373 148.558 113.815 148.707 111.779 147.53Z" fill="#0B0244"/>
    <path opacity="0.5" d="M165.856 129.856C165.865 129.707 165.869 129.554 165.856 129.41V107.282L130.731 107.44L121.296 101.99C118.075 100.129 112.446 100.363 108.725 102.513L99.9566 107.58L65.0569 107.733V129.86H65.0749C64.9848 131.123 65.6874 132.335 67.2322 133.232L109.631 157.731C112.851 159.592 118.481 159.358 122.201 157.208L162.793 133.75C164.725 132.633 165.757 131.222 165.856 129.856Z" fill="white" fill-opacity="0.4"/>
    <path d="M165.856 107.282V99.3625H145.436L121.296 85.4116C118.075 83.55 112.446 83.7844 108.725 85.9345L85.486 99.3625H65.0524V107.733H65.0704C64.9803 108.995 65.6829 110.208 67.2277 111.105L109.626 135.603C112.846 137.465 118.476 137.23 122.196 135.08L162.789 111.623C164.933 110.383 165.968 108.779 165.851 107.282H165.856Z" fill="#312A91"/>
    <path opacity="0.5" d="M165.856 107.282V99.3625H145.436L121.296 85.4116C118.075 83.55 112.446 83.7844 108.725 85.9345L85.486 99.3625H65.0524V107.733H65.0704C64.9803 108.995 65.6829 110.208 67.2277 111.105L109.626 135.603C112.846 137.465 118.476 137.23 122.196 135.08L162.789 111.623C164.933 110.383 165.968 108.779 165.851 107.282H165.856Z" fill="url(#paint5_linear_309_2298)"/>
    <path d="M121.3 85.4116C119.751 84.5146 117.647 84.1089 115.463 84.163V136.847C117.823 136.789 120.269 136.198 122.205 135.08L162.798 111.623C164.942 110.383 165.977 108.779 165.86 107.282V99.3624H145.44L121.3 85.4116Z" fill="url(#paint6_linear_309_2298)"/>
    <path d="M109.635 127.228L67.2369 102.73C64.0167 100.868 64.4175 97.6181 68.1376 95.468L108.73 72.0107C112.45 69.8606 118.08 69.6262 121.3 71.4878L163.699 95.9863C166.919 97.8479 166.518 101.098 162.798 103.248L122.205 126.705C118.485 128.855 112.856 129.09 109.635 127.228Z" fill="#312A91"/>
    <path opacity="0.5" d="M109.635 127.228L67.2369 102.73C64.0167 100.868 64.4175 97.6181 68.1376 95.468L108.73 72.0107C112.45 69.8606 118.08 69.6262 121.3 71.4878L163.699 95.9863C166.919 97.8479 166.518 101.098 162.798 103.248L122.205 126.705C118.485 128.855 112.856 129.09 109.635 127.228Z" fill="url(#paint7_linear_309_2298)"/>
    <path opacity="0.5" d="M111.058 127.228L68.6599 102.73C65.4397 100.868 64.6696 98.132 69.5607 95.4681L110.153 72.0108C111.982 70.9515 114.274 70.361 116.513 70.2528C113.851 70.1311 110.95 70.7261 108.73 72.0108L68.1375 95.4681C64.4174 97.6182 64.012 100.868 67.2367 102.73L109.635 127.228C111.275 128.175 113.531 128.576 115.846 128.463C114.049 128.382 112.356 127.977 111.058 127.228Z" fill="url(#paint8_linear_309_2298)"/>
    <path opacity="0.5" d="M162.798 106.791L122.205 130.248C118.485 132.398 112.855 132.633 109.635 130.771L67.2367 106.273C65.6874 105.38 64.9848 104.163 65.0794 102.901H65.0614V104.636H65.0794C64.9893 105.898 65.6919 107.111 67.2367 108.008L109.635 132.507C112.855 134.368 118.485 134.134 122.205 131.984L162.798 108.526C164.942 107.287 165.978 105.682 165.86 104.186V102.45C165.982 103.947 164.946 105.551 162.798 106.791Z" fill="url(#paint9_linear_309_2298)"/>
    <path opacity="0.2" d="M112.094 101.134C112.977 101.643 112.977 102.468 112.094 102.978C111.212 103.487 109.788 103.487 108.906 102.978C108.023 102.468 108.023 101.643 108.906 101.134C109.784 100.625 111.212 100.625 112.094 101.134Z" fill="#34A3DA"/>
    <path opacity="0.6" d="M117.062 98.2624C117.945 98.7717 117.945 99.5966 117.062 100.106C116.179 100.615 114.756 100.615 113.873 100.106C112.99 99.5966 112.99 98.7717 113.873 98.2624C114.751 97.753 116.179 97.753 117.062 98.2624Z" fill="#34A3DA"/>
    <path d="M122.025 95.3913C122.908 95.9006 122.908 96.7255 122.025 97.2349C121.142 97.7442 119.719 97.7442 118.836 97.2349C117.954 96.7255 117.954 95.9006 118.836 95.3913C119.719 94.8819 121.142 94.8819 122.025 95.3913Z" fill="#34A3DA"/>
    <path opacity="0.5" d="M115.188 121.21C113.617 121.21 112.112 120.89 110.995 120.246L79.6446 102.13C78.5052 101.472 77.8746 100.543 77.8746 99.5201C77.8746 98.3076 78.7619 97.0996 80.3112 96.2071L110.324 78.862C113.157 77.2258 117.472 77.05 119.935 78.4744L151.286 96.5902C152.426 97.2483 153.056 98.1769 153.056 99.2001C153.056 100.413 152.169 101.621 150.62 102.513L120.606 119.858C119.062 120.751 117.075 121.21 115.188 121.21ZM111.311 119.691C113.599 121.017 117.625 120.841 120.287 119.304L150.3 101.959C151.642 101.183 152.417 100.174 152.417 99.2001C152.417 98.4158 151.903 97.6855 150.971 97.1446L119.62 79.0288C117.332 77.7036 113.306 77.8794 110.644 79.4164L80.6309 96.7615C79.2843 97.5368 78.5142 98.542 78.5142 99.5201C78.5142 100.304 79.0276 101.035 79.9644 101.576L111.315 119.691H111.311Z" fill="#0B0244"/>
    <path d="M115.004 133.562C113.279 133.562 111.635 133.215 110.405 132.502L56.6934 101.463C55.4909 100.769 54.8289 99.8046 54.8289 98.7453C54.8289 97.4742 55.7837 96.1941 57.4455 95.2339L109.653 65.0694C112.774 63.2664 117.521 63.0681 120.228 64.6367L173.94 95.6757C175.143 96.3699 175.805 97.3345 175.805 98.3937C175.805 99.6649 174.85 100.945 173.188 101.905L120.98 132.07C119.273 133.057 117.08 133.562 115.004 133.562ZM115.63 63.7803C113.59 63.7803 111.432 64.2761 109.752 65.2497L57.5446 95.4142C55.9458 96.3383 55.0315 97.5553 55.0315 98.7498C55.0315 99.7325 55.6576 100.634 56.7925 101.292L110.505 132.331C113.157 133.864 117.814 133.67 120.881 131.898L173.089 101.734C174.688 100.81 175.602 99.5928 175.602 98.3983C175.602 97.4156 174.976 96.5141 173.841 95.856L120.129 64.817C118.927 64.1228 117.319 63.7848 115.63 63.7848V63.7803Z" fill="white" fill-opacity="0.8"/>
    <g opacity="0.5" filter="url(#filter6_f_309_2298)">
        <path d="M102.019 73.638C104.258 73.638 106.073 71.8217 106.073 69.5812C106.073 67.3407 104.258 65.5244 102.019 65.5244C99.7808 65.5244 97.9661 67.3407 97.9661 69.5812C97.9661 71.8217 99.7808 73.638 102.019 73.638Z" fill="#34A3DA"/>
    </g>
    <path d="M103.177 69.5813C103.177 70.2214 102.659 70.7397 102.019 70.7397C101.38 70.7397 100.862 70.2214 100.862 69.5813C100.862 68.9412 101.38 68.4229 102.019 68.4229C102.659 68.4229 103.177 68.9412 103.177 69.5813Z" fill="white"/>
    <path d="M102.677 69.5813C102.677 69.9456 102.382 70.2397 102.019 70.2397C101.656 70.2397 101.362 69.9456 101.362 69.5813C101.362 69.217 101.656 68.9229 102.019 68.9229C102.382 68.9229 102.677 69.217 102.677 69.5813Z" stroke="white" stroke-opacity="0.8"/>
    <g opacity="0.5" filter="url(#filter7_f_309_2298)">
        <path d="M61.1431 97.307C63.3818 97.307 65.1965 95.4907 65.1965 93.2502C65.1965 91.0096 63.3818 89.1934 61.1431 89.1934C58.9045 89.1934 57.0897 91.0096 57.0897 93.2502C57.0897 95.4907 58.9045 97.307 61.1431 97.307Z" fill="#34A3DA"/>
    </g>
    <path d="M61.1431 94.4087C61.7823 94.4087 62.3005 93.89 62.3005 93.2502C62.3005 92.6104 61.7823 92.0918 61.1431 92.0918C60.5038 92.0918 59.9856 92.6104 59.9856 93.2502C59.9856 93.89 60.5038 94.4087 61.1431 94.4087Z" fill="white"/>
    <path d="M61.8005 93.2502C61.8005 93.6143 61.5058 93.9087 61.1431 93.9087C60.7803 93.9087 60.4856 93.6143 60.4856 93.2502C60.4856 92.8862 60.7803 92.5918 61.1431 92.5918C61.5058 92.5918 61.8005 92.8862 61.8005 93.2502Z" stroke="white" stroke-opacity="0.8"/>
    <g opacity="0.5" filter="url(#filter8_f_309_2298)">
        <path d="M151.419 119.007C153.488 118.15 154.47 115.777 153.613 113.707C152.756 111.637 150.385 110.654 148.317 111.511C146.249 112.369 145.267 114.742 146.123 116.812C146.98 118.882 149.351 119.865 151.419 119.007Z" fill="#34A3DA"/>
    </g>
    <path d="M151.025 115.26C151.025 115.901 150.507 116.419 149.868 116.419C149.228 116.419 148.71 115.901 148.71 115.26C148.71 114.62 149.228 114.102 149.868 114.102C150.507 114.102 151.025 114.62 151.025 115.26Z" fill="white"/>
    <path d="M150.525 115.26C150.525 115.625 150.231 115.919 149.868 115.919C149.505 115.919 149.21 115.625 149.21 115.26C149.21 114.896 149.505 114.602 149.868 114.602C150.231 114.602 150.525 114.896 150.525 115.26Z" stroke="white" stroke-opacity="0.8"/>
    <g opacity="0.5" filter="url(#filter9_f_309_2298)">
        <path d="M157.384 114.887C159.623 114.887 161.438 113.07 161.438 110.83C161.438 108.589 159.623 106.773 157.384 106.773C155.146 106.773 153.331 108.589 153.331 110.83C153.331 113.07 155.146 114.887 157.384 114.887Z" fill="#34A3DA"/>
    </g>
    <path d="M157.384 111.988C158.024 111.988 158.542 111.47 158.542 110.83C158.542 110.19 158.024 109.671 157.384 109.671C156.745 109.671 156.227 110.19 156.227 110.83C156.227 111.47 156.745 111.988 157.384 111.988Z" fill="white"/>
    <path d="M158.042 110.83C158.042 111.194 157.747 111.488 157.384 111.488C157.022 111.488 156.727 111.194 156.727 110.83C156.727 110.466 157.022 110.171 157.384 110.171C157.747 110.171 158.042 110.466 158.042 110.83Z" stroke="white" stroke-opacity="0.8"/>
    <g opacity="0.5" filter="url(#filter10_f_309_2298)">
        <path d="M164.901 110.518C167.14 110.518 168.955 108.702 168.955 106.462C168.955 104.221 167.14 102.405 164.901 102.405C162.663 102.405 160.848 104.221 160.848 106.462C160.848 108.702 162.663 110.518 164.901 110.518Z" fill="#34A3DA"/>
    </g>
    <path d="M166.054 106.462C166.054 107.102 165.536 107.62 164.897 107.62C164.257 107.62 163.739 107.102 163.739 106.462C163.739 105.822 164.257 105.303 164.897 105.303C165.536 105.303 166.054 105.822 166.054 106.462Z" fill="white"/>
    <path d="M165.554 106.462C165.554 106.826 165.26 107.12 164.897 107.12C164.534 107.12 164.239 106.826 164.239 106.462C164.239 106.097 164.534 105.803 164.897 105.803C165.26 105.803 165.554 106.097 165.554 106.462Z" stroke="white" stroke-opacity="0.8"/>
    <defs>
        <filter id="filter0_f_309_2298" x="6" y="0.876465" width="219.451" height="171.323" filterUnits="userSpaceOnUse" color-interpolation-filters="sRGB">
            <feFlood flood-opacity="0" result="BackgroundImageFix"/>
            <feBlend mode="normal" in="SourceGraphic" in2="BackgroundImageFix" result="shape"/>
            <feGaussianBlur stdDeviation="30" result="effect1_foregroundBlur_309_2298"/>
        </filter>
        <filter id="filter1_f_309_2298" x="0" y="67.9155" width="231" height="176.313" filterUnits="userSpaceOnUse" color-interpolation-filters="sRGB">
            <feFlood flood-opacity="0" result="BackgroundImageFix"/>
            <feBlend mode="normal" in="SourceGraphic" in2="BackgroundImageFix" result="shape"/>
            <feGaussianBlur stdDeviation="30" result="effect1_foregroundBlur_309_2298"/>
        </filter>
        <filter id="filter2_f_309_2298" x="49.0897" y="143.19" width="24.1068" height="24.1138" filterUnits="userSpaceOnUse" color-interpolation-filters="sRGB">
            <feFlood flood-opacity="0" result="BackgroundImageFix"/>
            <feBlend mode="normal" in="SourceGraphic" in2="BackgroundImageFix" result="shape"/>
            <feGaussianBlur stdDeviation="4" result="effect1_foregroundBlur_309_2298"/>
        </filter>
        <filter id="filter3_f_309_2298" x="137.814" y="165.205" width="24.1068" height="24.1138" filterUnits="userSpaceOnUse" color-interpolation-filters="sRGB">
            <feFlood flood-opacity="0" result="BackgroundImageFix"/>
            <feBlend mode="normal" in="SourceGraphic" in2="BackgroundImageFix" result="shape"/>
            <feGaussianBlur stdDeviation="4" result="effect1_foregroundBlur_309_2298"/>
        </filter>
        <filter id="filter4_f_309_2298" x="145.331" y="160.77" width="24.1068" height="24.1138" filterUnits="userSpaceOnUse" color-interpolation-filters="sRGB">
            <feFlood flood-opacity="0" result="BackgroundImageFix"/>
            <feBlend mode="normal" in="SourceGraphic" in2="BackgroundImageFix" result="shape"/>
            <feGaussianBlur stdDeviation="4" result="effect1_foregroundBlur_309_2298"/>
        </filter>
        <filter id="filter5_f_309_2298" x="152.848" y="156.406" width="24.1068" height="24.1138" filterUnits="userSpaceOnUse" color-interpolation-filters="sRGB">
            <feFlood flood-opacity="0" result="BackgroundImageFix"/>
            <feBlend mode="normal" in="SourceGraphic" in2="BackgroundImageFix" result="shape"/>
            <feGaussianBlur stdDeviation="4" result="effect1_foregroundBlur_309_2298"/>
        </filter>
        <filter id="filter6_f_309_2298" x="89.9661" y="57.5244" width="24.1068" height="24.1138" filterUnits="userSpaceOnUse" color-interpolation-filters="sRGB">
            <feFlood flood-opacity="0" result="BackgroundImageFix"/>
            <feBlend mode="normal" in="SourceGraphic" in2="BackgroundImageFix" result="shape"/>
            <feGaussianBlur stdDeviation="4" result="effect1_foregroundBlur_309_2298"/>
        </filter>
        <filter id="filter7_f_309_2298" x="49.0897" y="81.1934" width="24.1068" height="24.1138" filterUnits="userSpaceOnUse" color-interpolation-filters="sRGB">
            <feFlood flood-opacity="0" result="BackgroundImageFix"/>
            <feBlend mode="normal" in="SourceGraphic" in2="BackgroundImageFix" result="shape"/>
            <feGaussianBlur stdDeviation="4" result="effect1_foregroundBlur_309_2298"/>
        </filter>
        <filter id="filter8_f_309_2298" x="137.814" y="103.202" width="24.1089" height="24.1157" filterUnits="userSpaceOnUse" color-interpolation-filters="sRGB">
            <feFlood flood-opacity="0" result="BackgroundImageFix"/>
            <feBlend mode="normal" in="SourceGraphic" in2="BackgroundImageFix" result="shape"/>
            <feGaussianBlur stdDeviation="4" result="effect1_foregroundBlur_309_2298"/>
        </filter>
        <filter id="filter9_f_309_2298" x="145.331" y="98.7729" width="24.1068" height="24.1138" filterUnits="userSpaceOnUse" color-interpolation-filters="sRGB">
            <feFlood flood-opacity="0" result="BackgroundImageFix"/>
            <feBlend mode="normal" in="SourceGraphic" in2="BackgroundImageFix" result="shape"/>
            <feGaussianBlur stdDeviation="4" result="effect1_foregroundBlur_309_2298"/>
        </filter>
        <filter id="filter10_f_309_2298" x="152.848" y="94.4048" width="24.1068" height="24.1138" filterUnits="userSpaceOnUse" color-interpolation-filters="sRGB">
            <feFlood flood-opacity="0" result="BackgroundImageFix"/>
            <feBlend mode="normal" in="SourceGraphic" in2="BackgroundImageFix" result="shape"/>
            <feGaussianBlur stdDeviation="4" result="effect1_foregroundBlur_309_2298"/>
        </filter>
        <linearGradient id="paint0_linear_309_2298" x1="42.7767" y1="141.003" x2="143.585" y2="141.003" gradientUnits="userSpaceOnUse">
            <stop stop-color="#42E8E0"/>
            <stop offset="0.1" stop-color="#3CC9CD"/>
            <stop offset="0.34" stop-color="#2F87A5"/>
            <stop offset="0.56" stop-color="#255285"/>
            <stop offset="0.75" stop-color="#1E2C6E"/>
            <stop offset="0.91" stop-color="#191560"/>
            <stop offset="1" stop-color="#180D5B"/>
        </linearGradient>
        <linearGradient id="paint1_linear_309_2298" x1="115.463" y1="140.999" x2="165.865" y2="140.999" gradientUnits="userSpaceOnUse">
            <stop stop-color="#2B237C"/>
            <stop offset="1" stop-color="#180D5B"/>
        </linearGradient>
        <linearGradient id="paint2_linear_309_2298" x1="65.057" y1="129.856" x2="165.874" y2="129.856" gradientUnits="userSpaceOnUse">
            <stop stop-color="#42E8E0"/>
            <stop offset="0.1" stop-color="#3CC9CD"/>
            <stop offset="0.34" stop-color="#2F87A5"/>
            <stop offset="0.56" stop-color="#255285"/>
            <stop offset="0.75" stop-color="#1E2C6E"/>
            <stop offset="0.91" stop-color="#191560"/>
            <stop offset="1" stop-color="#180D5B"/>
        </linearGradient>
        <linearGradient id="paint3_linear_309_2298" x1="65.0569" y1="129.856" x2="116.513" y2="129.856" gradientUnits="userSpaceOnUse">
            <stop stop-color="#42E8E0"/>
            <stop offset="0.1" stop-color="#3CC9CD"/>
            <stop offset="0.34" stop-color="#2F87A5"/>
            <stop offset="0.56" stop-color="#255285"/>
            <stop offset="0.75" stop-color="#1E2C6E"/>
            <stop offset="0.91" stop-color="#191560"/>
            <stop offset="1" stop-color="#180D5B"/>
        </linearGradient>
        <linearGradient id="paint4_linear_309_2298" x1="78.7709" y1="159.214" x2="163.196" y2="104.079" gradientUnits="userSpaceOnUse">
            <stop stop-color="#42E8E0"/>
            <stop offset="0.1" stop-color="#3CC9CD"/>
            <stop offset="0.34" stop-color="#2F87A5"/>
            <stop offset="0.56" stop-color="#255285"/>
            <stop offset="0.75" stop-color="#1E2C6E"/>
            <stop offset="0.91" stop-color="#191560"/>
            <stop offset="1" stop-color="#180D5B"/>
        </linearGradient>
        <linearGradient id="paint5_linear_309_2298" x1="27" y1="110.505" x2="27.4503" y2="110.505" gradientUnits="userSpaceOnUse">
            <stop stop-color="#42E8E0"/>
            <stop offset="0.1" stop-color="#3CC9CD"/>
            <stop offset="0.34" stop-color="#2F87A5"/>
            <stop offset="0.56" stop-color="#255285"/>
            <stop offset="0.75" stop-color="#1E2C6E"/>
            <stop offset="0.91" stop-color="#191560"/>
            <stop offset="1" stop-color="#180D5B"/>
        </linearGradient>
        <linearGradient id="paint6_linear_309_2298" x1="27" y1="110.501" x2="27.4503" y2="110.501" gradientUnits="userSpaceOnUse">
            <stop stop-color="#2B237C"/>
            <stop offset="1" stop-color="#180D5B"/>
        </linearGradient>
        <linearGradient id="paint7_linear_309_2298" x1="65.057" y1="99.358" x2="165.874" y2="99.358" gradientUnits="userSpaceOnUse">
            <stop stop-color="#42E8E0"/>
            <stop offset="0.1" stop-color="#3CC9CD"/>
            <stop offset="0.34" stop-color="#2F87A5"/>
            <stop offset="0.56" stop-color="#255285"/>
            <stop offset="0.75" stop-color="#1E2C6E"/>
            <stop offset="0.91" stop-color="#191560"/>
            <stop offset="1" stop-color="#180D5B"/>
        </linearGradient>
        <linearGradient id="paint8_linear_309_2298" x1="65.0569" y1="99.3626" x2="116.513" y2="99.3626" gradientUnits="userSpaceOnUse">
            <stop stop-color="#42E8E0"/>
            <stop offset="0.1" stop-color="#3CC9CD"/>
            <stop offset="0.34" stop-color="#2F87A5"/>
            <stop offset="0.56" stop-color="#255285"/>
            <stop offset="0.75" stop-color="#1E2C6E"/>
            <stop offset="0.91" stop-color="#191560"/>
            <stop offset="1" stop-color="#180D5B"/>
        </linearGradient>
        <linearGradient id="paint9_linear_309_2298" x1="78.7709" y1="128.72" x2="163.196" y2="73.581" gradientUnits="userSpaceOnUse">
            <stop stop-color="#42E8E0"/>
            <stop offset="0.1" stop-color="#3CC9CD"/>
            <stop offset="0.34" stop-color="#2F87A5"/>
            <stop offset="0.56" stop-color="#255285"/>
            <stop offset="0.75" stop-color="#1E2C6E"/>
            <stop offset="0.91" stop-color="#191560"/>
            <stop offset="1" stop-color="#180D5B"/>
        </linearGradient>
    </defs>
</svg>
