<svg width="32" height="32" viewBox="0 0 32 32" fill="none" xmlns="http://www.w3.org/2000/svg">
<rect width="32" height="32" fill="white" fill-opacity="0.05"/>
<g clip-path="url(#clip0_1239_5699)">
<path d="M16.0009 13.5V12.6667" stroke="white" stroke-linecap="round" stroke-linejoin="round"/>
<path d="M16.0009 18.5V19.3333" stroke="white" stroke-linecap="round" stroke-linejoin="round"/>
<path d="M14.5551 17.9047C14.7686 18.2719 15.1599 18.4992 15.5846 18.5028H16.4979C17.1443 18.5023 17.6679 17.9779 17.6674 17.3315C17.667 16.7951 17.302 16.3276 16.7817 16.1971L15.2198 15.8048C14.5928 15.6475 14.212 15.0117 14.3693 14.3847C14.4998 13.8645 14.9673 13.4995 15.5036 13.499H16.417C16.8409 13.502 17.2318 13.7282 17.4455 14.0943" stroke="white" stroke-linecap="round" stroke-linejoin="round"/>
<path d="M16 8.5V8.5C20.1421 8.5 23.5 11.8579 23.5 16C23.5 20.1421 20.1421 23.5 16 23.5C11.8579 23.5 8.5 20.1421 8.5 16V16C8.5 11.8579 11.8579 8.5 16 8.5" stroke="white" stroke-linecap="round" stroke-linejoin="round"/>
<path d="M16 8.5V8.5C20.1421 8.5 23.5 11.8579 23.5 16C23.5 20.1421 20.1421 23.5 16 23.5C11.8579 23.5 8.5 20.1421 8.5 16V16C8.5 11.8579 11.8579 8.5 16 8.5" stroke="white" stroke-linecap="round" stroke-linejoin="round"/>
</g>
<defs>
<clipPath id="clip0_1239_5699">
<rect width="20" height="20" fill="white" transform="translate(6 6)"/>
</clipPath>
</defs>
</svg>
