<svg width="32" height="32" viewBox="0 0 32 32" fill="none" xmlns="http://www.w3.org/2000/svg">
<rect width="32" height="32" fill="white" fill-opacity="0.05"/>
<g clip-path="url(#clip0_1239_5804)">
<path d="M23.5 16C23.5 11.8579 20.1421 8.5 16 8.5C11.8579 8.5 8.5 11.8579 8.5 16C8.5 20.1421 11.8579 23.5 16 23.5C20.1421 23.5 23.5 20.1421 23.5 16Z" stroke="white" stroke-miterlimit="10"/>
<path d="M17.6666 8.6875V13.0833" stroke="white" stroke-linecap="round" stroke-linejoin="round"/>
<path d="M17.6666 16.4167V23.3133" stroke="white" stroke-linecap="round" stroke-linejoin="round"/>
<path d="M19.2909 15.1242L22.9617 18.795" stroke="white" stroke-linecap="round" stroke-linejoin="round"/>
<path d="M17.6667 16.4167C18.5871 16.4167 19.3333 15.6705 19.3333 14.75C19.3333 13.8295 18.5871 13.0833 17.6667 13.0833C16.7462 13.0833 16 13.8295 16 14.75C16 15.6705 16.7462 16.4167 17.6667 16.4167Z" stroke="white" stroke-miterlimit="10"/>
<path d="M16.0416 15.1208L13.4991 17.6658" stroke="white" stroke-linecap="round" stroke-linejoin="round"/>
<path d="M13.4992 17.6658L11.8334 16" stroke="white" stroke-linecap="round" stroke-linejoin="round"/>
<path d="M11.8333 16L9.03833 18.795" stroke="white" stroke-linecap="round" stroke-linejoin="round"/>
</g>
<defs>
<clipPath id="clip0_1239_5804">
<rect width="20" height="20" fill="white" transform="translate(6 6)"/>
</clipPath>
</defs>
</svg>
