<svg width="81" height="80" viewBox="0 0 81 80" fill="none" xmlns="http://www.w3.org/2000/svg">
<circle cx="40.5" cy="40" r="40" fill="white" fill-opacity="0.1"/>
<path d="M40.7139 54.6615C44.5386 54.6747 48.3676 53.0691 51.0954 49.833C55.1769 44.9913 55.3053 37.7258 51.3858 32.7524C46.2832 26.2758 36.8585 25.8703 31.2133 31.5346C27.0866 35.6738 26.1953 41.8064 28.5074 46.8224C28.6999 47.3039 29.4453 48.627 29.9457 49.4979C30.2301 49.9926 30.201 50.603 29.8727 51.0683C29.5431 51.5337 29.1259 52.1295 28.8006 52.6184C28.2186 53.4921 28.8371 54.663 29.8844 54.6615L30.6964 54.6612C34.2579 54.6597 39.4729 54.6575 40.7139 54.6615Z" stroke="white" stroke-width="2.25" stroke-linecap="round" stroke-linejoin="round"/>
<path d="M40.4131 46.9043V46.9145" stroke="white" stroke-width="2.25" stroke-linecap="round" stroke-linejoin="round"/>
<path d="M40.4108 43.5324C40.3948 42.3015 41.5108 41.7789 42.3422 41.3032C43.3531 40.744 44.0401 39.8527 44.0401 38.616C44.0401 36.7835 42.5624 35.3125 40.7479 35.3125C38.9215 35.3125 37.457 36.7835 37.457 38.616" stroke="white" stroke-width="2.25" stroke-linecap="round" stroke-linejoin="round"/>
</svg>
