<svg width="90" height="73" viewBox="0 0 90 73" fill="none" xmlns="http://www.w3.org/2000/svg">
<circle cx="44.3242" cy="44.3243" r="44.5592" fill="url(#paint0_linear_6_19)"/>
<path d="M82.7373 44.3243C82.7373 65.5392 65.5391 82.7373 44.3242 82.7373C23.1092 82.7373 5.91113 65.5392 5.91113 44.3243C5.91113 23.1093 23.1092 5.91122 44.3242 5.91122C65.5391 5.91122 82.7373 23.1093 82.7373 44.3243ZM16.6668 44.3243C16.6668 59.599 29.0494 71.9817 44.3242 71.9817C59.599 71.9817 71.9816 59.599 71.9816 44.3243C71.9816 29.0495 59.599 16.6669 44.3242 16.6669C29.0494 16.6669 16.6668 29.0495 16.6668 44.3243Z" fill="url(#paint1_linear_6_19)"/>
<path d="M71.4863 71.4864C75.0533 67.9194 77.8828 63.6848 79.8132 59.0243C81.7437 54.3638 82.7372 49.3687 82.7372 44.3243C82.7372 39.2798 81.7437 34.2847 79.8132 29.6242C77.8828 24.9637 75.0533 20.7291 71.4863 17.1621L63.8809 24.7675C66.4492 27.3358 68.4864 30.3847 69.8763 33.7402C71.2662 37.0958 71.9816 40.6922 71.9816 44.3243C71.9816 47.9563 71.2662 51.5527 69.8763 54.9083C68.4864 58.2638 66.4492 61.3128 63.8809 63.881L71.4863 71.4864Z" fill="url(#paint2_linear_6_19)"/>
<path d="M17.1621 71.4864C13.5951 67.9194 10.7656 63.6848 8.83515 59.0243C6.90471 54.3638 5.91113 49.3687 5.91113 44.3243C5.91113 39.2798 6.90471 34.2847 8.83515 29.6242C10.7656 24.9637 13.5951 20.7291 17.1621 17.1621L24.7675 24.7675C22.1992 27.3358 20.162 30.3847 18.7721 33.7402C17.3822 37.0958 16.6668 40.6922 16.6668 44.3243C16.6668 47.9563 17.3822 51.5527 18.7721 54.9083C20.162 58.2638 22.1992 61.3128 24.7675 63.881L17.1621 71.4864Z" fill="url(#paint3_linear_6_19)"/>
<path d="M71.4862 17.1621C67.9192 13.5952 63.6846 10.7657 59.0241 8.83524C54.3636 6.9048 49.3686 5.91122 44.3241 5.91122C39.2796 5.91122 34.2845 6.9048 29.6241 8.83524C24.9636 10.7657 20.7289 13.5952 17.162 17.1621L24.7674 24.7675C27.3356 22.1993 30.3845 20.1621 33.7401 18.7722C37.0956 17.3823 40.6921 16.6669 44.3241 16.6669C47.9561 16.6669 51.5526 17.3823 54.9081 18.7722C58.2637 20.1621 61.3126 22.1993 63.8808 24.7675L71.4862 17.1621Z" fill="#FFA500"/>
<path fill-rule="evenodd" clip-rule="evenodd" d="M43 17.5L42.0075 43.3048C42.0025 43.3692 42 43.4343 42 43.5C42 44.8807 43.1193 46 44.5 46C45.8807 46 47 44.8807 47 43.5C47 43.4343 46.9975 43.3692 46.9925 43.3048L46 17.5C46 16.6716 45.3284 16 44.5 16C43.6716 16 43 16.6716 43 17.5Z" fill="white" style="transition: transform 0.3s; transform: rotate(var(--rotate)); transform-origin: 49.5% 60.5%;" />
<circle cx="44.3242" cy="44.3243" r="4.60957" fill="url(#paint4_radial_6_19)"/>
<circle cx="44.3243" cy="44.3243" r="1.53652" fill="white"/>
<rect x="31.4175" y="55.4558" width="25.8136" height="4.91687" rx="1.22922" fill="#272F39"/>
<defs>
<linearGradient id="paint0_linear_6_19" x1="44.3242" y1="-82.2467" x2="44.3242" y2="88.8835" gradientUnits="userSpaceOnUse">
<stop stop-color="#1D242D"/>
<stop offset="1" stop-color="#2A2A2A" stop-opacity="0"/>
</linearGradient>
<linearGradient id="paint1_linear_6_19" x1="44.3242" y1="5.91122" x2="44.3242" y2="72.7499" gradientUnits="userSpaceOnUse">
<stop stop-color="#2C2C2C"/>
<stop offset="1" stop-color="#2C2C2C" stop-opacity="0"/>
</linearGradient>
<linearGradient id="paint2_linear_6_19" x1="71.4863" y1="17.1621" x2="71.4863" y2="67.5642" gradientUnits="userSpaceOnUse">
<stop stop-color="#00FFA3"/>
<stop offset="1" stop-color="#1E1E1E" stop-opacity="0"/>
</linearGradient>
<linearGradient id="paint3_linear_6_19" x1="17.1621" y1="17.1621" x2="17.1621" y2="67.5642" gradientUnits="userSpaceOnUse">
<stop stop-color="#F14056"/>
<stop offset="1" stop-color="#1E1E1E" stop-opacity="0"/>
</linearGradient>
<radialGradient id="paint4_radial_6_19" cx="0" cy="0" r="1" gradientUnits="userSpaceOnUse" gradientTransform="translate(44.3242 44.3243) rotate(90) scale(4.60957)">
<stop stop-color="#F2F2F2"/>
<stop offset="1" stop-color="#DBDBDB"/>
</radialGradient>
</defs>
</svg>
