<svg xmlns="http://www.w3.org/2000/svg" width="16" height="16" viewBox="0 0 16 16" fill="none">
  <g opacity="0.2">
    <path fill-rule="evenodd" clip-rule="evenodd" d="M13.0399 7.38253C12.8132 6.90913 12.4265 6.5225 11.9465 6.28917C11.7999 6.2225 11.6465 6.16917 11.4665 6.13583C11.1999 6.08917 10.8799 6.06917 10.4665 6.06917C10.2665 6.0625 10.0465 6.0625 9.79987 6.0625H6.1999C5.95323 6.0625 5.73323 6.0625 5.53323 6.06917C5.1199 6.06917 4.7999 6.08917 4.53323 6.13583C4.35323 6.16917 4.1999 6.2225 4.05323 6.28917C3.57323 6.5225 3.18656 6.90913 2.9599 7.3892C2.72656 7.8692 2.72656 8.42247 2.72656 9.53587V10.9559C2.72656 12.0692 2.72656 12.6225 2.9599 13.1091C3.19323 13.5891 3.5799 13.9758 4.05323 14.1958C4.53323 14.4292 5.08656 14.4292 6.1999 14.4292H9.79987C10.9132 14.4292 11.4665 14.4292 11.9465 14.1958C12.4199 13.9758 12.8065 13.5891 13.0399 13.1091C13.2732 12.6225 13.2732 12.0692 13.2732 10.9559V9.53587C13.2732 8.42247 13.2732 7.8692 13.0399 7.38253Z" fill="white"/>
    <path d="M11.4665 6.13698V4.99031C11.4465 3.09698 9.8932 1.57031 7.99987 1.57031H7.95987C6.0732 1.59698 4.56654 3.09031 4.5332 4.98365V6.13698C4.79987 6.09031 5.11987 6.07031 5.5332 6.07031V4.99031C5.55987 3.65031 6.62654 2.59031 7.9732 2.57031H7.99987C9.34654 2.57031 10.4465 3.65698 10.4665 4.99698V6.07031C10.8799 6.07031 11.1999 6.09031 11.4665 6.13698Z" fill="white"/>
    <path d="M8.5 10.9564C8.5 11.2324 8.276 11.4564 8 11.4564C7.724 11.4564 7.5 11.2324 7.5 10.9564V9.50977C7.5 9.23377 7.724 9.00977 8 9.00977C8.276 9.00977 8.5 9.23377 8.5 9.50977V10.9564Z" fill="black"/>
  </g>
</svg>
