<svg width="20" height="20" viewBox="0 0 20 20" fill="none" xmlns="http://www.w3.org/2000/svg">
<g id="chart-circle 1" clip-path="url(#clip0_7184_1781)">
<g id="Group">
<path id="Vector" d="M17.5 10C17.5 5.85786 14.1421 2.5 10 2.5C5.85786 2.5 2.5 5.85786 2.5 10C2.5 14.1421 5.85786 17.5 10 17.5C14.1421 17.5 17.5 14.1421 17.5 10Z" stroke="#838C95" stroke-miterlimit="10"/>
<path id="Vector_2" d="M11.6665 2.6875V7.08333" stroke="#838C95" stroke-linecap="round" stroke-linejoin="round"/>
<path id="Vector_3" d="M11.6665 10.4167V17.3134" stroke="#838C95" stroke-linecap="round" stroke-linejoin="round"/>
<path id="Vector_4" d="M13.291 9.12415L16.9618 12.795" stroke="#838C95" stroke-linecap="round" stroke-linejoin="round"/>
<path id="Vector_5" d="M11.6667 10.4166C12.5871 10.4166 13.3333 9.67045 13.3333 8.74998C13.3333 7.82951 12.5871 7.08331 11.6667 7.08331C10.7462 7.08331 10 7.82951 10 8.74998C10 9.67045 10.7462 10.4166 11.6667 10.4166Z" stroke="#838C95" stroke-miterlimit="10"/>
<path id="Vector_6" d="M10.0415 9.12085L7.49902 11.6658" stroke="#838C95" stroke-linecap="round" stroke-linejoin="round"/>
<path id="Vector_7" d="M7.49933 11.6658L5.8335 10" stroke="#838C95" stroke-linecap="round" stroke-linejoin="round"/>
<path id="Vector_8" d="M5.83357 10L3.03857 12.795" stroke="#838C95" stroke-linecap="round" stroke-linejoin="round"/>
</g>
</g>
<defs>
<clipPath id="clip0_7184_1781">
<rect width="20" height="20" fill="white"/>
</clipPath>
</defs>
</svg>
