<svg width="480" height="480" viewBox="0 0 480 480" fill="none" xmlns="http://www.w3.org/2000/svg">
<g clip-path="url(#clip0_7095_1373)">
<rect width="416" height="408" transform="translate(52 20)" fill="url(#paint0_linear_7095_1373)"/>
<line x1="52" y1="384.5" x2="468" y2="384.5" stroke="white" stroke-opacity="0.03"/>
<line x1="52" y1="332.5" x2="468" y2="332.5" stroke="white" stroke-opacity="0.03"/>
<line x1="52" y1="280.5" x2="468" y2="280.5" stroke="white" stroke-opacity="0.03"/>
<line x1="52" y1="228.5" x2="468" y2="228.5" stroke="white" stroke-opacity="0.03"/>
<line x1="52" y1="176.5" x2="468" y2="176.5" stroke="white" stroke-opacity="0.03"/>
<line x1="52" y1="124.5" x2="468" y2="124.5" stroke="white" stroke-opacity="0.03"/>
<line x1="52" y1="72.5001" x2="468" y2="72.5" stroke="white" stroke-opacity="0.03"/>
<line x1="52" y1="20.5001" x2="468" y2="20.5" stroke="white" stroke-opacity="0.03"/>
<line x1="103.5" y1="21" x2="103.5" y2="428" stroke="white" stroke-opacity="0.03"/>
<line x1="155.5" y1="21" x2="155.5" y2="428" stroke="white" stroke-opacity="0.03"/>
<line x1="207.5" y1="21" x2="207.5" y2="428" stroke="white" stroke-opacity="0.03"/>
<line x1="259.5" y1="21" x2="259.5" y2="428" stroke="white" stroke-opacity="0.03"/>
<line x1="311.5" y1="21" x2="311.5" y2="428" stroke="white" stroke-opacity="0.03"/>
<line x1="363.5" y1="21" x2="363.5" y2="428" stroke="white" stroke-opacity="0.03"/>
<line x1="415.5" y1="21" x2="415.5" y2="428" stroke="white" stroke-opacity="0.03"/>
<line x1="467.5" y1="21" x2="467.5" y2="428" stroke="white" stroke-opacity="0.03"/>
</g>
<g clip-path="url(#clip1_7095_1373)">
<rect x="52" y="436" width="8.00004" height="428" rx="4.00002" transform="rotate(-180 52 436)" fill="url(#paint1_linear_7095_1373)"/>
<rect x="52" y="20" width="415" height="408" fill="#D9D9D9"/>
</g>
<rect x="44" y="436" width="7.99998" height="428" rx="3.99999" transform="rotate(-90 44 436)" fill="url(#paint2_linear_7095_1373)"/>
<path d="M35 17L48 4L61 17" stroke="#008F5C" stroke-width="8" stroke-linecap="round" stroke-linejoin="round"/>
<path d="M463 419L476 432L463 445" stroke="#008F5C" stroke-width="8" stroke-linecap="round" stroke-linejoin="round"/>
<rect x="79" y="25" width="28" height="61" rx="14" transform="rotate(90 79 25)" fill="#333F4D"/>
<path d="M28.7133 38.812C28.7133 37.996 28.8973 37.264 29.2653 36.616C29.6333 35.96 30.1333 35.448 30.7653 35.08C31.4053 34.712 32.1133 34.528 32.8893 34.528C33.8013 34.528 34.5973 34.748 35.2773 35.188C35.9573 35.628 36.4533 36.252 36.7653 37.06H35.4573C35.2253 36.556 34.8893 36.168 34.4493 35.896C34.0173 35.624 33.4973 35.488 32.8893 35.488C32.3053 35.488 31.7813 35.624 31.3173 35.896C30.8533 36.168 30.4893 36.556 30.2253 37.06C29.9613 37.556 29.8293 38.14 29.8293 38.812C29.8293 39.476 29.9613 40.06 30.2253 40.564C30.4893 41.06 30.8533 41.444 31.3173 41.716C31.7813 41.988 32.3053 42.124 32.8893 42.124C33.4973 42.124 34.0173 41.992 34.4493 41.728C34.8893 41.456 35.2253 41.068 35.4573 40.564H36.7653C36.4533 41.364 35.9573 41.984 35.2773 42.424C34.5973 42.856 33.8013 43.072 32.8893 43.072C32.1133 43.072 31.4053 42.892 30.7653 42.532C30.1333 42.164 29.6333 41.656 29.2653 41.008C28.8973 40.36 28.7133 39.628 28.7133 38.812ZM41.6548 36.304C42.1508 36.304 42.5988 36.412 42.9988 36.628C43.3988 36.836 43.7108 37.152 43.9348 37.576C44.1668 38 44.2828 38.516 44.2828 39.124V43H43.2028V39.28C43.2028 38.624 43.0388 38.124 42.7108 37.78C42.3828 37.428 41.9348 37.252 41.3668 37.252C40.7908 37.252 40.3308 37.432 39.9868 37.792C39.6508 38.152 39.4828 38.676 39.4828 39.364V43H38.3908V34.12H39.4828V37.36C39.6988 37.024 39.9948 36.764 40.3708 36.58C40.7548 36.396 41.1828 36.304 41.6548 36.304ZM52.0666 39.46C52.0666 39.668 52.0546 39.888 52.0306 40.12H46.7746C46.8146 40.768 47.0346 41.276 47.4346 41.644C47.8426 42.004 48.3346 42.184 48.9106 42.184C49.3826 42.184 49.7746 42.076 50.0866 41.86C50.4066 41.636 50.6306 41.34 50.7586 40.972H51.9346C51.7586 41.604 51.4066 42.12 50.8786 42.52C50.3506 42.912 49.6946 43.108 48.9106 43.108C48.2866 43.108 47.7266 42.968 47.2306 42.688C46.7426 42.408 46.3586 42.012 46.0786 41.5C45.7986 40.98 45.6586 40.38 45.6586 39.7C45.6586 39.02 45.7946 38.424 46.0666 37.912C46.3386 37.4 46.7186 37.008 47.2066 36.736C47.7026 36.456 48.2706 36.316 48.9106 36.316C49.5346 36.316 50.0866 36.452 50.5666 36.724C51.0466 36.996 51.4146 37.372 51.6706 37.852C51.9346 38.324 52.0666 38.86 52.0666 39.46ZM50.9386 39.232C50.9386 38.816 50.8466 38.46 50.6626 38.164C50.4786 37.86 50.2266 37.632 49.9066 37.48C49.5946 37.32 49.2466 37.24 48.8626 37.24C48.3106 37.24 47.8386 37.416 47.4466 37.768C47.0626 38.12 46.8426 38.608 46.7866 39.232H50.9386ZM53.1 39.688C53.1 39.016 53.236 38.428 53.508 37.924C53.78 37.412 54.152 37.016 54.624 36.736C55.104 36.456 55.636 36.316 56.22 36.316C56.796 36.316 57.296 36.44 57.72 36.688C58.144 36.936 58.46 37.248 58.668 37.624V36.424H59.772V43H58.668V41.776C58.452 42.16 58.128 42.48 57.696 42.736C57.272 42.984 56.776 43.108 56.208 43.108C55.624 43.108 55.096 42.964 54.624 42.676C54.152 42.388 53.78 41.984 53.508 41.464C53.236 40.944 53.1 40.352 53.1 39.688ZM58.668 39.7C58.668 39.204 58.568 38.772 58.368 38.404C58.168 38.036 57.896 37.756 57.552 37.564C57.216 37.364 56.844 37.264 56.436 37.264C56.028 37.264 55.656 37.36 55.32 37.552C54.984 37.744 54.716 38.024 54.516 38.392C54.316 38.76 54.216 39.192 54.216 39.688C54.216 40.192 54.316 40.632 54.516 41.008C54.716 41.376 54.984 41.66 55.32 41.86C55.656 42.052 56.028 42.148 56.436 42.148C56.844 42.148 57.216 42.052 57.552 41.86C57.896 41.66 58.168 41.376 58.368 41.008C58.568 40.632 58.668 40.196 58.668 39.7ZM62.7094 37.636C62.9254 37.26 63.2454 36.948 63.6694 36.7C64.1014 36.444 64.6014 36.316 65.1694 36.316C65.7534 36.316 66.2814 36.456 66.7534 36.736C67.2334 37.016 67.6094 37.412 67.8814 37.924C68.1534 38.428 68.2894 39.016 68.2894 39.688C68.2894 40.352 68.1534 40.944 67.8814 41.464C67.6094 41.984 67.2334 42.388 66.7534 42.676C66.2814 42.964 65.7534 43.108 65.1694 43.108C64.6094 43.108 64.1134 42.984 63.6814 42.736C63.2574 42.48 62.9334 42.164 62.7094 41.788V46.12H61.6174V36.424H62.7094V37.636ZM67.1734 39.688C67.1734 39.192 67.0734 38.76 66.8734 38.392C66.6734 38.024 66.4014 37.744 66.0574 37.552C65.7214 37.36 65.3494 37.264 64.9414 37.264C64.5414 37.264 64.1694 37.364 63.8254 37.564C63.4894 37.756 63.2174 38.04 63.0094 38.416C62.8094 38.784 62.7094 39.212 62.7094 39.7C62.7094 40.196 62.8094 40.632 63.0094 41.008C63.2174 41.376 63.4894 41.66 63.8254 41.86C64.1694 42.052 64.5414 42.148 64.9414 42.148C65.3494 42.148 65.7214 42.052 66.0574 41.86C66.4014 41.66 66.6734 41.376 66.8734 41.008C67.0734 40.632 67.1734 40.192 67.1734 39.688Z" fill="white"/>
<rect x="455" y="418" width="28" height="61" rx="14" transform="rotate(90 455 418)" fill="#333F4D"/>
<path d="M410.692 431.692C410.996 431.74 411.272 431.864 411.52 432.064C411.776 432.264 411.976 432.512 412.12 432.808C412.272 433.104 412.348 433.42 412.348 433.756C412.348 434.18 412.24 434.564 412.024 434.908C411.808 435.244 411.492 435.512 411.076 435.712C410.668 435.904 410.184 436 409.624 436H406.504V427.636H409.504C410.072 427.636 410.556 427.732 410.956 427.924C411.356 428.108 411.656 428.36 411.856 428.68C412.056 429 412.156 429.36 412.156 429.76C412.156 430.256 412.02 430.668 411.748 430.996C411.484 431.316 411.132 431.548 410.692 431.692ZM407.596 431.248H409.432C409.944 431.248 410.34 431.128 410.62 430.888C410.9 430.648 411.04 430.316 411.04 429.892C411.04 429.468 410.9 429.136 410.62 428.896C410.34 428.656 409.936 428.536 409.408 428.536H407.596V431.248ZM409.528 435.1C410.072 435.1 410.496 434.972 410.8 434.716C411.104 434.46 411.256 434.104 411.256 433.648C411.256 433.184 411.096 432.82 410.776 432.556C410.456 432.284 410.028 432.148 409.492 432.148H407.596V435.1H409.528ZM419.695 429.424V436H418.603V435.028C418.395 435.364 418.103 435.628 417.727 435.82C417.359 436.004 416.951 436.096 416.503 436.096C415.991 436.096 415.531 435.992 415.123 435.784C414.715 435.568 414.391 435.248 414.151 434.824C413.919 434.4 413.803 433.884 413.803 433.276V429.424H414.883V433.132C414.883 433.78 415.047 434.28 415.375 434.632C415.703 434.976 416.151 435.148 416.719 435.148C417.303 435.148 417.763 434.968 418.099 434.608C418.435 434.248 418.603 433.724 418.603 433.036V429.424H419.695ZM422.631 427.12V436H421.539V427.12H422.631ZM425.584 427.12V436H424.492V427.12H425.584ZM428.009 428.356C427.801 428.356 427.625 428.284 427.481 428.14C427.337 427.996 427.265 427.82 427.265 427.612C427.265 427.404 427.337 427.228 427.481 427.084C427.625 426.94 427.801 426.868 428.009 426.868C428.209 426.868 428.377 426.94 428.513 427.084C428.657 427.228 428.729 427.404 428.729 427.612C428.729 427.82 428.657 427.996 428.513 428.14C428.377 428.284 428.209 428.356 428.009 428.356ZM428.537 429.424V436H427.445V429.424H428.537ZM432.727 436.108C432.223 436.108 431.771 436.024 431.371 435.856C430.971 435.68 430.655 435.44 430.423 435.136C430.191 434.824 430.063 434.468 430.039 434.068H431.167C431.199 434.396 431.351 434.664 431.623 434.872C431.903 435.08 432.267 435.184 432.715 435.184C433.131 435.184 433.459 435.092 433.699 434.908C433.939 434.724 434.059 434.492 434.059 434.212C434.059 433.924 433.931 433.712 433.675 433.576C433.419 433.432 433.023 433.292 432.487 433.156C431.999 433.028 431.599 432.9 431.287 432.772C430.983 432.636 430.719 432.44 430.495 432.184C430.279 431.92 430.171 431.576 430.171 431.152C430.171 430.816 430.271 430.508 430.471 430.228C430.671 429.948 430.955 429.728 431.323 429.568C431.691 429.4 432.111 429.316 432.583 429.316C433.311 429.316 433.899 429.5 434.347 429.868C434.795 430.236 435.035 430.74 435.067 431.38H433.975C433.951 431.036 433.811 430.76 433.555 430.552C433.307 430.344 432.971 430.24 432.547 430.24C432.155 430.24 431.843 430.324 431.611 430.492C431.379 430.66 431.263 430.88 431.263 431.152C431.263 431.368 431.331 431.548 431.467 431.692C431.611 431.828 431.787 431.94 431.995 432.028C432.211 432.108 432.507 432.2 432.883 432.304C433.355 432.432 433.739 432.56 434.035 432.688C434.331 432.808 434.583 432.992 434.791 433.24C435.007 433.488 435.119 433.812 435.127 434.212C435.127 434.572 435.027 434.896 434.827 435.184C434.627 435.472 434.343 435.7 433.975 435.868C433.615 436.028 433.199 436.108 432.727 436.108ZM439.932 429.304C440.428 429.304 440.876 429.412 441.276 429.628C441.676 429.836 441.988 430.152 442.212 430.576C442.444 431 442.56 431.516 442.56 432.124V436H441.48V432.28C441.48 431.624 441.316 431.124 440.988 430.78C440.66 430.428 440.212 430.252 439.644 430.252C439.068 430.252 438.608 430.432 438.264 430.792C437.928 431.152 437.76 431.676 437.76 432.364V436H436.668V427.12H437.76V430.36C437.976 430.024 438.272 429.764 438.648 429.58C439.032 429.396 439.46 429.304 439.932 429.304Z" fill="white"/>
<path d="M20 245.317L16.58 247.309L16.58 248.629L20 248.629L20 249.721L11.636 249.721L11.636 247.021C11.636 246.389 11.744 245.857 11.96 245.425C12.176 244.985 12.468 244.657 12.836 244.441C13.204 244.225 13.624 244.117 14.096 244.117C14.672 244.117 15.18 244.285 15.62 244.621C16.06 244.949 16.352 245.445 16.496 246.109L20 244.009L20 245.317ZM15.704 248.629L15.704 247.021C15.704 246.429 15.56 245.985 15.272 245.689C14.976 245.393 14.584 245.245 14.096 245.245C13.6 245.245 13.216 245.393 12.944 245.689C12.672 245.977 12.536 246.421 12.536 247.021L12.536 248.629L15.704 248.629ZM20.084 239.768C20.084 240.32 19.988 240.816 19.796 241.256C19.596 241.688 19.324 242.028 18.98 242.276C18.628 242.524 18.224 242.652 17.768 242.66L17.768 241.496C18.16 241.456 18.492 241.296 18.764 241.016C19.028 240.728 19.16 240.312 19.16 239.768C19.16 239.248 19.032 238.84 18.776 238.544C18.512 238.24 18.176 238.088 17.768 238.088C17.448 238.088 17.188 238.176 16.988 238.352C16.788 238.528 16.636 238.748 16.532 239.012C16.428 239.276 16.316 239.632 16.196 240.08C16.052 240.632 15.908 241.076 15.764 241.412C15.62 241.74 15.396 242.024 15.092 242.264C14.78 242.496 14.364 242.612 13.844 242.612C13.388 242.612 12.984 242.496 12.632 242.264C12.28 242.032 12.008 241.708 11.816 241.292C11.624 240.868 11.528 240.384 11.528 239.84C11.528 239.056 11.724 238.416 12.116 237.92C12.508 237.416 13.028 237.132 13.676 237.068L13.676 238.268C13.356 238.308 13.076 238.476 12.836 238.772C12.588 239.068 12.464 239.46 12.464 239.948C12.464 240.404 12.584 240.776 12.824 241.064C13.056 241.352 13.384 241.496 13.808 241.496C14.112 241.496 14.36 241.412 14.552 241.244C14.744 241.068 14.892 240.856 14.996 240.608C15.092 240.352 15.204 239.996 15.332 239.54C15.484 238.988 15.636 238.544 15.788 238.208C15.932 237.872 16.16 237.584 16.472 237.344C16.776 237.104 17.192 236.984 17.72 236.984C18.128 236.984 18.512 237.092 18.872 237.308C19.232 237.524 19.524 237.844 19.748 238.268C19.972 238.692 20.084 239.192 20.084 239.768ZM11.636 234.285L20 234.285L20 235.377L11.636 235.377L11.636 234.285ZM11.636 218.712L20 221.136L20 222.36L13.268 224.304L20 226.32L20.012 227.532L11.636 229.872L11.636 228.708L18.728 226.884L11.636 224.868L11.636 223.644L18.704 221.724L11.636 219.888L11.636 218.712ZM12.356 216.953C12.356 217.161 12.284 217.337 12.14 217.481C11.996 217.625 11.82 217.697 11.612 217.697C11.404 217.697 11.228 217.625 11.084 217.481C10.94 217.337 10.868 217.161 10.868 216.953C10.868 216.753 10.94 216.585 11.084 216.449C11.228 216.305 11.404 216.233 11.612 216.233C11.82 216.233 11.996 216.305 12.14 216.449C12.284 216.585 12.356 216.753 12.356 216.953ZM13.424 216.425L20 216.425L20 217.517L13.424 217.517L13.424 216.425ZM20.108 212.236C20.108 212.74 20.024 213.192 19.856 213.592C19.68 213.992 19.44 214.308 19.136 214.54C18.824 214.772 18.468 214.9 18.068 214.924L18.068 213.796C18.396 213.764 18.664 213.612 18.872 213.34C19.08 213.06 19.184 212.696 19.184 212.248C19.184 211.832 19.092 211.504 18.908 211.264C18.724 211.024 18.492 210.904 18.212 210.904C17.924 210.904 17.712 211.032 17.576 211.288C17.432 211.544 17.292 211.94 17.156 212.476C17.028 212.964 16.9 213.364 16.772 213.676C16.636 213.98 16.44 214.244 16.184 214.468C15.92 214.684 15.576 214.792 15.152 214.792C14.816 214.792 14.508 214.692 14.228 214.492C13.948 214.292 13.728 214.008 13.568 213.64C13.4 213.272 13.316 212.852 13.316 212.38C13.316 211.652 13.5 211.064 13.868 210.616C14.236 210.168 14.74 209.928 15.38 209.896L15.38 210.988C15.036 211.012 14.76 211.152 14.552 211.408C14.344 211.656 14.24 211.992 14.24 212.416C14.24 212.808 14.324 213.12 14.492 213.352C14.66 213.584 14.88 213.7 15.152 213.7C15.368 213.7 15.548 213.632 15.692 213.496C15.828 213.352 15.94 213.176 16.028 212.968C16.108 212.752 16.2 212.456 16.304 212.08C16.432 211.608 16.56 211.224 16.688 210.928C16.808 210.632 16.992 210.38 17.24 210.172C17.488 209.956 17.812 209.844 18.212 209.836C18.572 209.836 18.896 209.936 19.184 210.136C19.472 210.336 19.7 210.62 19.868 210.988C20.028 211.348 20.108 211.764 20.108 212.236ZM16.46 202.295C16.668 202.295 16.888 202.307 17.12 202.331L17.12 207.587C17.768 207.547 18.276 207.327 18.644 206.927C19.004 206.519 19.184 206.027 19.184 205.451C19.184 204.979 19.076 204.587 18.86 204.275C18.636 203.955 18.34 203.731 17.972 203.603L17.972 202.427C18.604 202.603 19.12 202.955 19.52 203.483C19.912 204.011 20.108 204.667 20.108 205.451C20.108 206.075 19.968 206.635 19.688 207.131C19.408 207.619 19.012 208.003 18.5 208.283C17.98 208.563 17.38 208.703 16.7 208.703C16.02 208.703 15.424 208.567 14.912 208.295C14.4 208.023 14.008 207.643 13.736 207.155C13.456 206.659 13.316 206.091 13.316 205.451C13.316 204.827 13.452 204.275 13.724 203.795C13.996 203.315 14.372 202.947 14.852 202.691C15.324 202.427 15.86 202.295 16.46 202.295ZM16.232 203.423C15.816 203.423 15.46 203.515 15.164 203.699C14.86 203.883 14.632 204.135 14.48 204.455C14.32 204.767 14.24 205.115 14.24 205.499C14.24 206.051 14.416 206.523 14.768 206.915C15.12 207.299 15.608 207.519 16.232 207.575L16.232 203.423ZM20.084 195.002C20.084 195.554 19.988 196.05 19.796 196.49C19.596 196.922 19.324 197.262 18.98 197.51C18.628 197.758 18.224 197.886 17.768 197.894L17.768 196.73C18.16 196.69 18.492 196.53 18.764 196.25C19.028 195.962 19.16 195.546 19.16 195.002C19.16 194.482 19.032 194.074 18.776 193.778C18.512 193.474 18.176 193.322 17.768 193.322C17.448 193.322 17.188 193.41 16.988 193.586C16.788 193.762 16.636 193.982 16.532 194.246C16.428 194.51 16.316 194.866 16.196 195.314C16.052 195.866 15.908 196.31 15.764 196.646C15.62 196.974 15.396 197.258 15.092 197.498C14.78 197.73 14.364 197.846 13.844 197.846C13.388 197.846 12.984 197.73 12.632 197.498C12.28 197.266 12.008 196.942 11.816 196.526C11.624 196.102 11.528 195.618 11.528 195.074C11.528 194.29 11.724 193.65 12.116 193.154C12.508 192.65 13.028 192.366 13.676 192.302L13.676 193.502C13.356 193.542 13.076 193.71 12.836 194.006C12.588 194.302 12.464 194.694 12.464 195.182C12.464 195.638 12.584 196.01 12.824 196.298C13.056 196.586 13.384 196.73 13.808 196.73C14.112 196.73 14.36 196.646 14.552 196.478C14.744 196.302 14.892 196.09 14.996 195.842C15.092 195.586 15.204 195.23 15.332 194.774C15.484 194.222 15.636 193.778 15.788 193.442C15.932 193.106 16.16 192.818 16.472 192.578C16.776 192.338 17.192 192.218 17.72 192.218C18.128 192.218 18.512 192.326 18.872 192.542C19.232 192.758 19.524 193.078 19.748 193.502C19.972 193.926 20.084 194.426 20.084 195.002ZM16.7 191.019C16.02 191.019 15.428 190.883 14.924 190.611C14.412 190.339 14.016 189.963 13.736 189.483C13.456 188.995 13.316 188.439 13.316 187.815C13.316 187.007 13.512 186.343 13.904 185.823C14.296 185.295 14.84 184.947 15.536 184.779L15.536 185.955C15.136 186.067 14.82 186.287 14.588 186.615C14.356 186.935 14.24 187.335 14.24 187.815C14.24 188.439 14.456 188.943 14.888 189.327C15.312 189.711 15.916 189.903 16.7 189.903C17.492 189.903 18.104 189.711 18.536 189.327C18.968 188.943 19.184 188.439 19.184 187.815C19.184 187.335 19.072 186.935 18.848 186.615C18.624 186.295 18.304 186.075 17.888 185.955L17.888 184.779C18.56 184.955 19.1 185.307 19.508 185.835C19.908 186.363 20.108 187.023 20.108 187.815C20.108 188.439 19.968 188.995 19.688 189.483C19.408 189.963 19.012 190.339 18.5 190.611C17.988 190.883 17.388 191.019 16.7 191.019ZM20.108 180.454C20.108 181.07 19.968 181.63 19.688 182.134C19.408 182.63 19.012 183.022 18.5 183.31C17.98 183.59 17.38 183.73 16.7 183.73C16.028 183.73 15.436 183.586 14.924 183.298C14.404 183.002 14.008 182.602 13.736 182.098C13.456 181.594 13.316 181.03 13.316 180.406C13.316 179.782 13.456 179.218 13.736 178.714C14.008 178.21 14.4 177.814 14.912 177.526C15.424 177.23 16.02 177.082 16.7 177.082C17.38 177.082 17.98 177.234 18.5 177.538C19.012 177.834 19.408 178.238 19.688 178.75C19.968 179.262 20.108 179.83 20.108 180.454ZM19.148 180.454C19.148 180.062 19.056 179.694 18.872 179.35C18.688 179.006 18.412 178.73 18.044 178.522C17.676 178.306 17.228 178.198 16.7 178.198C16.172 178.198 15.724 178.302 15.356 178.51C14.988 178.718 14.716 178.99 14.54 179.326C14.356 179.662 14.264 180.026 14.264 180.418C14.264 180.818 14.356 181.186 14.54 181.522C14.716 181.85 14.988 182.114 15.356 182.314C15.724 182.514 16.172 182.614 16.7 182.614C17.236 182.614 17.688 182.518 18.056 182.326C18.424 182.126 18.7 181.862 18.884 181.534C19.06 181.206 19.148 180.846 19.148 180.454ZM14.492 174.554C14.116 174.362 13.824 174.09 13.616 173.738C13.408 173.378 13.304 172.942 13.304 172.43L14.432 172.43L14.432 172.718C14.432 173.942 15.096 174.554 16.424 174.554L20 174.554L20 175.646L13.424 175.646L13.424 174.554L14.492 174.554ZM12.356 170.606C12.356 170.814 12.284 170.99 12.14 171.134C11.996 171.278 11.82 171.35 11.612 171.35C11.404 171.35 11.228 171.278 11.084 171.134C10.94 170.99 10.868 170.814 10.868 170.606C10.868 170.406 10.94 170.238 11.084 170.102C11.228 169.958 11.404 169.886 11.612 169.886C11.82 169.886 11.996 169.958 12.14 170.102C12.284 170.238 12.356 170.406 12.356 170.606ZM13.424 170.078L20 170.078L20 171.17L13.424 171.17L13.424 170.078ZM13.304 165.013C13.304 164.213 13.548 163.565 14.036 163.069C14.516 162.573 15.212 162.325 16.124 162.325L20 162.325L20 163.405L16.28 163.405C15.624 163.405 15.124 163.569 14.78 163.897C14.428 164.225 14.252 164.673 14.252 165.241C14.252 165.817 14.432 166.277 14.792 166.621C15.152 166.957 15.676 167.125 16.364 167.125L20 167.125L20 168.217L13.424 168.217L13.424 167.125L14.36 167.125C14.024 166.909 13.764 166.617 13.58 166.249C13.396 165.873 13.304 165.461 13.304 165.013ZM13.316 157.829C13.316 157.261 13.44 156.765 13.688 156.341C13.936 155.909 14.248 155.589 14.624 155.381L13.424 155.381L13.424 154.277L20.144 154.277C20.744 154.277 21.276 154.405 21.74 154.661C22.212 154.917 22.58 155.285 22.844 155.765C23.108 156.237 23.24 156.789 23.24 157.421C23.24 158.285 23.036 159.005 22.628 159.581C22.22 160.157 21.664 160.497 20.96 160.601L20.96 159.521C21.36 159.401 21.68 159.153 21.92 158.777C22.168 158.401 22.292 157.949 22.292 157.421C22.292 156.821 22.104 156.333 21.728 155.957C21.352 155.573 20.824 155.381 20.144 155.381L18.764 155.381C19.148 155.597 19.468 155.917 19.724 156.341C19.98 156.765 20.108 157.261 20.108 157.829C20.108 158.413 19.964 158.945 19.676 159.425C19.388 159.897 18.984 160.269 18.464 160.541C17.944 160.813 17.352 160.949 16.688 160.949C16.016 160.949 15.428 160.813 14.924 160.541C14.412 160.269 14.016 159.897 13.736 159.425C13.456 158.945 13.316 158.413 13.316 157.829ZM16.7 155.381C16.204 155.381 15.772 155.481 15.404 155.681C15.036 155.881 14.756 156.153 14.564 156.497C14.364 156.833 14.264 157.205 14.264 157.613C14.264 158.021 14.36 158.393 14.552 158.729C14.744 159.065 15.024 159.333 15.392 159.533C15.76 159.733 16.192 159.833 16.688 159.833C17.192 159.833 17.632 159.733 18.008 159.533C18.376 159.333 18.66 159.065 18.86 158.729C19.052 158.393 19.148 158.021 19.148 157.613C19.148 157.205 19.052 156.833 18.86 156.497C18.66 156.153 18.376 155.881 18.008 155.681C17.632 155.481 17.196 155.381 16.7 155.381Z" fill="white"/>
<rect y="291" width="32" height="32" rx="16" transform="rotate(-90 0 291)" fill="url(#paint3_linear_7095_1373)"/>
<path d="M20.3333 279.202L16.7066 281.255L16.7066 282.135L20.3333 282.135L20.3333 284.002L11.0266 284.002L11.0266 280.509C11.0266 279.789 11.1555 279.175 11.4133 278.669C11.6622 278.162 12.0044 277.784 12.44 277.535C12.8666 277.278 13.3466 277.149 13.88 277.149C14.4933 277.149 15.0489 277.327 15.5466 277.682C16.0355 278.038 16.3733 278.567 16.56 279.269L20.3333 277.042L20.3333 279.202ZM15.3066 282.135L15.3066 280.575C15.3066 280.069 15.1866 279.691 14.9466 279.442C14.6978 279.193 14.3555 279.069 13.92 279.069C13.4933 279.069 13.1644 279.193 12.9333 279.442C12.6933 279.691 12.5733 280.069 12.5733 280.575L12.5733 282.135L15.3066 282.135ZM20.4266 272.514C20.4266 273.163 20.3155 273.749 20.0933 274.274C19.8711 274.789 19.5511 275.198 19.1333 275.5C18.7155 275.803 18.2222 275.958 17.6533 275.967L17.6533 273.967C18.0355 273.94 18.3378 273.807 18.56 273.567C18.7822 273.318 18.8933 272.98 18.8933 272.554C18.8933 272.118 18.7911 271.776 18.5866 271.527C18.3733 271.278 18.0978 271.154 17.76 271.154C17.4844 271.154 17.2578 271.238 17.08 271.407C16.9022 271.576 16.7644 271.789 16.6666 272.047C16.56 272.296 16.4444 272.643 16.32 273.087C16.1422 273.692 15.9689 274.185 15.8 274.567C15.6222 274.94 15.36 275.265 15.0133 275.54C14.6578 275.807 14.1866 275.94 13.6 275.94C13.0489 275.94 12.5689 275.803 12.16 275.527C11.7511 275.252 11.44 274.865 11.2266 274.367C11.0044 273.869 10.8933 273.3 10.8933 272.66C10.8933 271.7 11.1289 270.923 11.6 270.327C12.0622 269.723 12.7111 269.389 13.5466 269.327L13.5466 271.38C13.2266 271.398 12.9644 271.536 12.76 271.794C12.5466 272.043 12.44 272.376 12.44 272.794C12.44 273.158 12.5333 273.452 12.72 273.674C12.9066 273.887 13.1778 273.994 13.5333 273.994C13.7822 273.994 13.9911 273.914 14.16 273.754C14.32 273.585 14.4533 273.38 14.56 273.14C14.6578 272.892 14.7733 272.545 14.9066 272.1C15.0844 271.496 15.2622 271.003 15.44 270.62C15.6178 270.238 15.8844 269.909 16.24 269.634C16.5955 269.358 17.0622 269.22 17.64 269.22C18.1378 269.22 18.6 269.349 19.0266 269.607C19.4533 269.865 19.7955 270.243 20.0533 270.74C20.3022 271.238 20.4266 271.829 20.4266 272.514ZM11.0266 266.002L20.3333 266.002L20.3333 267.869L11.0266 267.869L11.0266 266.002Z" fill="white"/>
<path d="M229.824 459.696V468H228.732V461.808L225.972 468H225.204L222.432 461.796V468H221.34V459.696H222.516L225.588 466.56L228.66 459.696H229.824ZM236.62 466.14H232.972L232.3 468H231.148L234.172 459.684H235.432L238.444 468H237.292L236.62 466.14ZM236.308 465.252L234.796 461.028L233.284 465.252H236.308ZM239.354 463.812C239.354 462.996 239.538 462.264 239.906 461.616C240.274 460.96 240.774 460.448 241.406 460.08C242.046 459.712 242.754 459.528 243.53 459.528C244.442 459.528 245.238 459.748 245.918 460.188C246.598 460.628 247.094 461.252 247.406 462.06H246.098C245.866 461.556 245.53 461.168 245.09 460.896C244.658 460.624 244.138 460.488 243.53 460.488C242.946 460.488 242.422 460.624 241.958 460.896C241.494 461.168 241.13 461.556 240.866 462.06C240.602 462.556 240.47 463.14 240.47 463.812C240.47 464.476 240.602 465.06 240.866 465.564C241.13 466.06 241.494 466.444 241.958 466.716C242.422 466.988 242.946 467.124 243.53 467.124C244.138 467.124 244.658 466.992 245.09 466.728C245.53 466.456 245.866 466.068 246.098 465.564H247.406C247.094 466.364 246.598 466.984 245.918 467.424C245.238 467.856 244.442 468.072 243.53 468.072C242.754 468.072 242.046 467.892 241.406 467.532C240.774 467.164 240.274 466.656 239.906 466.008C239.538 465.36 239.354 464.628 239.354 463.812ZM251.635 459.636C252.547 459.636 253.335 459.808 253.999 460.152C254.671 460.488 255.183 460.972 255.535 461.604C255.895 462.236 256.075 462.98 256.075 463.836C256.075 464.692 255.895 465.436 255.535 466.068C255.183 466.692 254.671 467.172 253.999 467.508C253.335 467.836 252.547 468 251.635 468H249.031V459.636H251.635ZM251.635 467.1C252.715 467.1 253.539 466.816 254.107 466.248C254.675 465.672 254.959 464.868 254.959 463.836C254.959 462.796 254.671 461.984 254.095 461.4C253.527 460.816 252.707 460.524 251.635 460.524H250.123V467.1H251.635ZM271.227 459.636L268.803 468H267.579L265.635 461.268L263.619 468L262.407 468.012L260.067 459.636H261.231L263.055 466.728L265.071 459.636H266.295L268.215 466.704L270.051 459.636H271.227ZM272.986 460.356C272.778 460.356 272.602 460.284 272.458 460.14C272.314 459.996 272.242 459.82 272.242 459.612C272.242 459.404 272.314 459.228 272.458 459.084C272.602 458.94 272.778 458.868 272.986 458.868C273.186 458.868 273.354 458.94 273.49 459.084C273.634 459.228 273.706 459.404 273.706 459.612C273.706 459.82 273.634 459.996 273.49 460.14C273.354 460.284 273.186 460.356 272.986 460.356ZM273.514 461.424V468H272.422V461.424H273.514ZM277.703 468.108C277.199 468.108 276.747 468.024 276.347 467.856C275.947 467.68 275.631 467.44 275.399 467.136C275.167 466.824 275.039 466.468 275.015 466.068H276.143C276.175 466.396 276.327 466.664 276.599 466.872C276.879 467.08 277.243 467.184 277.691 467.184C278.107 467.184 278.435 467.092 278.675 466.908C278.915 466.724 279.035 466.492 279.035 466.212C279.035 465.924 278.907 465.712 278.651 465.576C278.395 465.432 277.999 465.292 277.463 465.156C276.975 465.028 276.575 464.9 276.263 464.772C275.959 464.636 275.695 464.44 275.471 464.184C275.255 463.92 275.147 463.576 275.147 463.152C275.147 462.816 275.247 462.508 275.447 462.228C275.647 461.948 275.931 461.728 276.299 461.568C276.667 461.4 277.087 461.316 277.559 461.316C278.287 461.316 278.875 461.5 279.323 461.868C279.771 462.236 280.011 462.74 280.043 463.38H278.951C278.927 463.036 278.787 462.76 278.531 462.552C278.283 462.344 277.947 462.24 277.523 462.24C277.131 462.24 276.819 462.324 276.587 462.492C276.355 462.66 276.239 462.88 276.239 463.152C276.239 463.368 276.307 463.548 276.443 463.692C276.587 463.828 276.763 463.94 276.971 464.028C277.187 464.108 277.483 464.2 277.859 464.304C278.331 464.432 278.715 464.56 279.011 464.688C279.307 464.808 279.559 464.992 279.767 465.24C279.983 465.488 280.095 465.812 280.103 466.212C280.103 466.572 280.003 466.896 279.803 467.184C279.603 467.472 279.319 467.7 278.951 467.868C278.591 468.028 278.175 468.108 277.703 468.108ZM287.645 464.46C287.645 464.668 287.633 464.888 287.609 465.12H282.353C282.393 465.768 282.613 466.276 283.013 466.644C283.421 467.004 283.913 467.184 284.489 467.184C284.961 467.184 285.353 467.076 285.665 466.86C285.985 466.636 286.209 466.34 286.337 465.972H287.513C287.337 466.604 286.985 467.12 286.457 467.52C285.929 467.912 285.273 468.108 284.489 468.108C283.865 468.108 283.305 467.968 282.809 467.688C282.321 467.408 281.937 467.012 281.657 466.5C281.377 465.98 281.237 465.38 281.237 464.7C281.237 464.02 281.373 463.424 281.645 462.912C281.917 462.4 282.297 462.008 282.785 461.736C283.281 461.456 283.849 461.316 284.489 461.316C285.113 461.316 285.665 461.452 286.145 461.724C286.625 461.996 286.993 462.372 287.249 462.852C287.513 463.324 287.645 463.86 287.645 464.46ZM286.517 464.232C286.517 463.816 286.425 463.46 286.241 463.164C286.057 462.86 285.805 462.632 285.485 462.48C285.173 462.32 284.825 462.24 284.441 462.24C283.889 462.24 283.417 462.416 283.025 462.768C282.641 463.12 282.421 463.608 282.365 464.232H286.517ZM294.937 468.084C294.385 468.084 293.889 467.988 293.449 467.796C293.017 467.596 292.677 467.324 292.429 466.98C292.181 466.628 292.053 466.224 292.045 465.768H293.209C293.249 466.16 293.409 466.492 293.689 466.764C293.977 467.028 294.393 467.16 294.937 467.16C295.457 467.16 295.865 467.032 296.161 466.776C296.465 466.512 296.617 466.176 296.617 465.768C296.617 465.448 296.529 465.188 296.353 464.988C296.177 464.788 295.957 464.636 295.693 464.532C295.429 464.428 295.073 464.316 294.625 464.196C294.073 464.052 293.629 463.908 293.293 463.764C292.965 463.62 292.681 463.396 292.441 463.092C292.209 462.78 292.093 462.364 292.093 461.844C292.093 461.388 292.209 460.984 292.441 460.632C292.673 460.28 292.997 460.008 293.413 459.816C293.837 459.624 294.321 459.528 294.865 459.528C295.649 459.528 296.289 459.724 296.785 460.116C297.289 460.508 297.573 461.028 297.637 461.676H296.437C296.397 461.356 296.229 461.076 295.933 460.836C295.637 460.588 295.245 460.464 294.757 460.464C294.301 460.464 293.929 460.584 293.641 460.824C293.353 461.056 293.209 461.384 293.209 461.808C293.209 462.112 293.293 462.36 293.461 462.552C293.637 462.744 293.849 462.892 294.097 462.996C294.353 463.092 294.709 463.204 295.165 463.332C295.717 463.484 296.161 463.636 296.497 463.788C296.833 463.932 297.121 464.16 297.361 464.472C297.601 464.776 297.721 465.192 297.721 465.72C297.721 466.128 297.613 466.512 297.397 466.872C297.181 467.232 296.861 467.524 296.437 467.748C296.013 467.972 295.513 468.084 294.937 468.084ZM298.92 464.7C298.92 464.02 299.056 463.428 299.328 462.924C299.6 462.412 299.976 462.016 300.456 461.736C300.944 461.456 301.5 461.316 302.124 461.316C302.932 461.316 303.596 461.512 304.116 461.904C304.644 462.296 304.992 462.84 305.16 463.536H303.984C303.872 463.136 303.652 462.82 303.324 462.588C303.004 462.356 302.604 462.24 302.124 462.24C301.5 462.24 300.996 462.456 300.612 462.888C300.228 463.312 300.036 463.916 300.036 464.7C300.036 465.492 300.228 466.104 300.612 466.536C300.996 466.968 301.5 467.184 302.124 467.184C302.604 467.184 303.004 467.072 303.324 466.848C303.644 466.624 303.864 466.304 303.984 465.888H305.16C304.984 466.56 304.632 467.1 304.104 467.508C303.576 467.908 302.916 468.108 302.124 468.108C301.5 468.108 300.944 467.968 300.456 467.688C299.976 467.408 299.6 467.012 299.328 466.5C299.056 465.988 298.92 465.388 298.92 464.7ZM309.485 468.108C308.869 468.108 308.309 467.968 307.805 467.688C307.309 467.408 306.917 467.012 306.629 466.5C306.349 465.98 306.209 465.38 306.209 464.7C306.209 464.028 306.353 463.436 306.641 462.924C306.937 462.404 307.337 462.008 307.841 461.736C308.345 461.456 308.909 461.316 309.533 461.316C310.157 461.316 310.721 461.456 311.225 461.736C311.729 462.008 312.125 462.4 312.413 462.912C312.709 463.424 312.857 464.02 312.857 464.7C312.857 465.38 312.705 465.98 312.401 466.5C312.105 467.012 311.701 467.408 311.189 467.688C310.677 467.968 310.109 468.108 309.485 468.108ZM309.485 467.148C309.877 467.148 310.245 467.056 310.589 466.872C310.933 466.688 311.209 466.412 311.417 466.044C311.633 465.676 311.741 465.228 311.741 464.7C311.741 464.172 311.637 463.724 311.429 463.356C311.221 462.988 310.949 462.716 310.613 462.54C310.277 462.356 309.913 462.264 309.521 462.264C309.121 462.264 308.753 462.356 308.417 462.54C308.089 462.716 307.825 462.988 307.625 463.356C307.425 463.724 307.325 464.172 307.325 464.7C307.325 465.236 307.421 465.688 307.613 466.056C307.813 466.424 308.077 466.7 308.405 466.884C308.733 467.06 309.093 467.148 309.485 467.148ZM315.385 462.492C315.577 462.116 315.849 461.824 316.201 461.616C316.561 461.408 316.997 461.304 317.509 461.304V462.432H317.221C315.997 462.432 315.385 463.096 315.385 464.424V468H314.293V461.424H315.385V462.492ZM319.334 460.356C319.126 460.356 318.95 460.284 318.806 460.14C318.662 459.996 318.59 459.82 318.59 459.612C318.59 459.404 318.662 459.228 318.806 459.084C318.95 458.94 319.126 458.868 319.334 458.868C319.534 458.868 319.702 458.94 319.838 459.084C319.982 459.228 320.054 459.404 320.054 459.612C320.054 459.82 319.982 459.996 319.838 460.14C319.702 460.284 319.534 460.356 319.334 460.356ZM319.862 461.424V468H318.77V461.424H319.862ZM324.927 461.304C325.727 461.304 326.375 461.548 326.871 462.036C327.367 462.516 327.615 463.212 327.615 464.124V468H326.535V464.28C326.535 463.624 326.371 463.124 326.043 462.78C325.715 462.428 325.267 462.252 324.699 462.252C324.123 462.252 323.663 462.432 323.319 462.792C322.983 463.152 322.815 463.676 322.815 464.364V468H321.723V461.424H322.815V462.36C323.031 462.024 323.323 461.764 323.691 461.58C324.067 461.396 324.479 461.304 324.927 461.304ZM332.111 461.316C332.679 461.316 333.175 461.44 333.599 461.688C334.031 461.936 334.351 462.248 334.559 462.624V461.424H335.663V468.144C335.663 468.744 335.535 469.276 335.279 469.74C335.023 470.212 334.655 470.58 334.175 470.844C333.703 471.108 333.151 471.24 332.519 471.24C331.655 471.24 330.935 471.036 330.359 470.628C329.783 470.22 329.443 469.664 329.339 468.96H330.419C330.539 469.36 330.787 469.68 331.163 469.92C331.539 470.168 331.991 470.292 332.519 470.292C333.119 470.292 333.607 470.104 333.983 469.728C334.367 469.352 334.559 468.824 334.559 468.144V466.764C334.343 467.148 334.023 467.468 333.599 467.724C333.175 467.98 332.679 468.108 332.111 468.108C331.527 468.108 330.995 467.964 330.515 467.676C330.043 467.388 329.671 466.984 329.399 466.464C329.127 465.944 328.991 465.352 328.991 464.688C328.991 464.016 329.127 463.428 329.399 462.924C329.671 462.412 330.043 462.016 330.515 461.736C330.995 461.456 331.527 461.316 332.111 461.316ZM334.559 464.7C334.559 464.204 334.459 463.772 334.259 463.404C334.059 463.036 333.787 462.756 333.443 462.564C333.107 462.364 332.735 462.264 332.327 462.264C331.919 462.264 331.547 462.36 331.211 462.552C330.875 462.744 330.607 463.024 330.407 463.392C330.207 463.76 330.107 464.192 330.107 464.688C330.107 465.192 330.207 465.632 330.407 466.008C330.607 466.376 330.875 466.66 331.211 466.86C331.547 467.052 331.919 467.148 332.327 467.148C332.735 467.148 333.107 467.052 333.443 466.86C333.787 466.66 334.059 466.376 334.259 466.008C334.459 465.632 334.559 465.196 334.559 464.7Z" fill="white"/>
<rect x="180" y="448" width="32" height="32" rx="16" fill="url(#paint4_linear_7095_1373)"/>
<path d="M190.315 461.749V467.333H189.195V463.701L187.699 467.333H186.851L185.347 463.701V467.333H184.227V461.749H185.499L187.275 465.901L189.051 461.749H190.315ZM194.686 466.269H192.462L192.094 467.333H190.918L192.926 461.741H194.23L196.238 467.333H195.054L194.686 466.269ZM194.382 465.373L193.574 463.037L192.766 465.373H194.382ZM196.557 464.533C196.557 463.984 196.679 463.493 196.925 463.061C197.175 462.624 197.514 462.285 197.941 462.045C198.373 461.8 198.855 461.677 199.389 461.677C200.013 461.677 200.559 461.837 201.029 462.157C201.498 462.477 201.826 462.92 202.013 463.485H200.725C200.597 463.219 200.415 463.019 200.181 462.885C199.951 462.752 199.685 462.685 199.381 462.685C199.055 462.685 198.765 462.763 198.509 462.917C198.258 463.067 198.061 463.28 197.917 463.557C197.778 463.835 197.709 464.16 197.709 464.533C197.709 464.901 197.778 465.227 197.917 465.509C198.061 465.787 198.258 466.003 198.509 466.157C198.765 466.307 199.055 466.381 199.381 466.381C199.685 466.381 199.951 466.315 200.181 466.181C200.415 466.043 200.597 465.84 200.725 465.573H202.013C201.826 466.144 201.498 466.589 201.029 466.909C200.565 467.224 200.018 467.381 199.389 467.381C198.855 467.381 198.373 467.261 197.941 467.021C197.514 466.776 197.175 466.437 196.925 466.005C196.679 465.573 196.557 465.083 196.557 464.533ZM204.761 461.749C205.348 461.749 205.863 461.864 206.305 462.093C206.753 462.323 207.097 462.651 207.337 463.077C207.583 463.499 207.705 463.989 207.705 464.549C207.705 465.109 207.583 465.6 207.337 466.021C207.097 466.437 206.753 466.76 206.305 466.989C205.863 467.219 205.348 467.333 204.761 467.333H202.809V461.749H204.761ZM204.721 466.381C205.308 466.381 205.761 466.221 206.081 465.901C206.401 465.581 206.561 465.131 206.561 464.549C206.561 463.968 206.401 463.515 206.081 463.189C205.761 462.859 205.308 462.693 204.721 462.693H203.929V466.381H204.721Z" fill="white"/>
<defs>
<linearGradient id="paint0_linear_7095_1373" x1="416" y1="-4.0719e-05" x2="78.5088" y2="342.472" gradientUnits="userSpaceOnUse">
<stop stop-color="#006641"/>
<stop offset="1" stop-color="#28323E" stop-opacity="0"/>
</linearGradient>
<linearGradient id="paint1_linear_7095_1373" x1="56" y1="436" x2="56" y2="864" gradientUnits="userSpaceOnUse">
<stop stop-color="#00FFA3"/>
<stop offset="1" stop-color="#008F5C"/>
</linearGradient>
<linearGradient id="paint2_linear_7095_1373" x1="48" y1="436" x2="48" y2="864" gradientUnits="userSpaceOnUse">
<stop stop-color="#00FFA3"/>
<stop offset="1" stop-color="#008F5C"/>
</linearGradient>
<linearGradient id="paint3_linear_7095_1373" x1="-27.5556" y1="351.444" x2="68.5232" y2="331.136" gradientUnits="userSpaceOnUse">
<stop stop-color="#FF00C7"/>
<stop offset="1" stop-color="#00A3FF"/>
</linearGradient>
<linearGradient id="paint4_linear_7095_1373" x1="152.444" y1="508.444" x2="248.523" y2="488.136" gradientUnits="userSpaceOnUse">
<stop stop-color="#FF00C7"/>
<stop offset="1" stop-color="#00A3FF"/>
</linearGradient>
<clipPath id="clip0_7095_1373">
<rect width="416" height="408" fill="white" transform="translate(52 20)"/>
</clipPath>
<clipPath id="clip1_7095_1373">
<rect x="52" y="436" width="8.00004" height="428" rx="4.00002" transform="rotate(-180 52 436)" fill="white"/>
</clipPath>
</defs>
</svg>
