<svg width="449" height="449" viewBox="0 0 449 449" fill="none" xmlns="http://www.w3.org/2000/svg">
<g clip-path="url(#clip0_7086_1135)">
<rect width="416" height="408" transform="translate(21 20)" fill="url(#paint0_linear_7086_1135)"/>
<line x1="21" y1="384.5" x2="437" y2="384.5" stroke="white" stroke-opacity="0.03"/>
<line x1="21" y1="332.5" x2="437" y2="332.5" stroke="white" stroke-opacity="0.03"/>
<line x1="21" y1="280.5" x2="437" y2="280.5" stroke="white" stroke-opacity="0.03"/>
<line x1="21" y1="228.5" x2="437" y2="228.5" stroke="white" stroke-opacity="0.03"/>
<line x1="21" y1="176.5" x2="437" y2="176.5" stroke="white" stroke-opacity="0.03"/>
<line x1="21" y1="124.5" x2="437" y2="124.5" stroke="white" stroke-opacity="0.03"/>
<line x1="21" y1="72.5001" x2="437" y2="72.5" stroke="white" stroke-opacity="0.03"/>
<line x1="21" y1="20.5001" x2="437" y2="20.5" stroke="white" stroke-opacity="0.03"/>
<line x1="72.5" y1="21" x2="72.5" y2="428" stroke="white" stroke-opacity="0.03"/>
<line x1="124.5" y1="21" x2="124.5" y2="428" stroke="white" stroke-opacity="0.03"/>
<line x1="176.5" y1="21" x2="176.5" y2="428" stroke="white" stroke-opacity="0.03"/>
<line x1="228.5" y1="21" x2="228.5" y2="428" stroke="white" stroke-opacity="0.03"/>
<line x1="280.5" y1="21" x2="280.5" y2="428" stroke="white" stroke-opacity="0.03"/>
<line x1="332.5" y1="21" x2="332.5" y2="428" stroke="white" stroke-opacity="0.03"/>
<line x1="384.5" y1="21" x2="384.5" y2="428" stroke="white" stroke-opacity="0.03"/>
<line x1="436.5" y1="21" x2="436.5" y2="428" stroke="white" stroke-opacity="0.03"/>
</g>
<rect x="21" y="436" width="8.00004" height="428" rx="4.00002" transform="rotate(-180 21 436)" fill="url(#paint1_linear_7086_1135)"/>
<rect x="13" y="436" width="7.99998" height="428" rx="3.99999" transform="rotate(-90 13 436)" fill="url(#paint2_linear_7086_1135)"/>
<path d="M4 17L17 4L30 17" stroke="#F14156" stroke-width="8" stroke-linecap="round" stroke-linejoin="round"/>
<path d="M432 419L445 432L432 445" stroke="#F14056" stroke-width="8" stroke-linecap="round" stroke-linejoin="round"/>
<defs>
<linearGradient id="paint0_linear_7086_1135" x1="416" y1="0" x2="73.5311" y2="345.509" gradientUnits="userSpaceOnUse">
<stop stop-color="#601A22"/>
<stop offset="1" stop-color="#28323E" stop-opacity="0"/>
</linearGradient>
<linearGradient id="paint1_linear_7086_1135" x1="25" y1="436" x2="25" y2="864" gradientUnits="userSpaceOnUse">
<stop stop-color="#FF6174"/>
<stop offset="1" stop-color="#F14056"/>
</linearGradient>
<linearGradient id="paint2_linear_7086_1135" x1="17" y1="436" x2="17" y2="864" gradientUnits="userSpaceOnUse">
<stop stop-color="#FF6174"/>
<stop offset="1" stop-color="#F14056"/>
</linearGradient>
<clipPath id="clip0_7086_1135">
<rect width="416" height="408" fill="white" transform="translate(21 20)"/>
</clipPath>
</defs>
</svg>
