<svg width="24" height="26" viewBox="0 0 24 26" fill="none"
    xmlns="http://www.w3.org/2000/svg">
    <path d="M5.5 11.8333H9.83333" stroke="currentColor" stroke-width="1.5" stroke-linecap="round" stroke-linejoin="round"/>
    <path d="M21.5691 12.9166H18.7503C16.8165 12.9166 15.25 14.3715 15.25 16.1666C15.25 17.9617 16.8176 19.4166 18.7492 19.4166H21.5691C21.6601 19.4166 21.7045 19.4166 21.7424 19.4145C22.3274 19.3787 22.7932 18.9465 22.8312 18.4037C22.8333 18.369 22.8333 18.3268 22.8333 18.2434V14.0899C22.8333 14.0065 22.8333 13.9642 22.8312 13.9295C22.7922 13.3868 22.3274 12.9545 21.7424 12.9188C21.7056 12.9166 21.6601 12.9166 21.5691 12.9166Z" stroke="currentColor" stroke-width="1.5"/>
    <path d="M21.7114 12.9167C21.6269 10.8887 21.3561 9.645 20.4797 8.76967C19.3227 7.61169 18.6998 7.50896 15.5 7.5M21.7114 19.4167C21.628 21.4447 21.3561 22.6883 20.4797 23.5637C19.2111 24.8333 18.5846 24.8333 14.4994 24.8333H8.49939C4.41414 24.8333 3.70427 24.8333 2.43568 23.5637C1.16602 22.2951 1.16602 20.2519 1.16602 16.1667C1.16602 12.0814 1.16602 10.0383 2.43568 8.76967C3.55806 7.64633 4.24309 7.51686 7.2154 7.50194" stroke="currentColor" stroke-width="1.5" stroke-linecap="round" stroke-linejoin="round"/>
    <path d="M18.4902 16.1666H18.5002" stroke="currentColor" stroke-width="2" stroke-linecap="round" stroke-linejoin="round"/>
    <path d="M11.1989 0.349052C11.3584 0.164899 11.6441 0.164899 11.8036 0.349053L14.5713 3.54438C14.7396 3.73867 14.6016 4.0408 14.3445 4.0408H13.5513C13.3856 4.0408 13.2513 4.17511 13.2513 4.3408L13.2513 5.59998C13.2513 5.8209 13.0722 5.99998 12.8513 5.99998H10.1513C9.93035 5.99998 9.75127 5.8209 9.75127 5.59998L9.75127 4.3408C9.75127 4.17511 9.61695 4.0408 9.45127 4.0408H8.658C8.40097 4.0408 8.26296 3.73867 8.43124 3.54438L11.1989 0.349052Z" fill="currentColor"/>
</svg>
