<svg width="160" height="160" viewBox="0 0 160 160" fill="none" xmlns="http://www.w3.org/2000/svg">
<g id="Group">
<g id="Layer 2">
<path id="Vector (Stroke)" fill-rule="evenodd" clip-rule="evenodd" d="M94.5389 44.0258C95.953 41.4419 99.194 40.4937 101.778 41.9078C110.573 46.7214 117.523 54.3165 121.54 63.5034C125.556 72.6902 126.412 82.9498 123.972 92.6749C121.533 102.4 115.937 111.041 108.06 117.245C100.184 123.449 90.4718 126.865 80.4458 126.958C70.4199 127.051 60.6463 123.816 52.6561 117.759C44.6659 111.702 38.9104 103.166 36.2914 93.4876C33.6723 83.8093 34.3375 73.5356 38.1829 64.2759C42.0282 55.0162 48.8365 47.2936 57.5411 42.3178C60.0983 40.856 63.3563 41.744 64.8181 44.3012C66.2799 46.8585 65.3918 50.1165 62.8346 51.5783C56.1793 55.3826 50.9739 61.2871 48.0339 68.3668C45.0938 75.4465 44.5852 83.3015 46.5877 90.7013C48.5901 98.101 52.9906 104.628 59.0997 109.258C65.2088 113.889 72.6814 116.363 80.347 116.292C88.0126 116.221 95.4381 113.609 101.46 108.866C107.482 104.123 111.761 97.5155 113.626 90.0799C115.491 82.6444 114.837 74.8002 111.766 67.7762C108.695 60.7522 103.382 54.9451 96.6569 51.2648C94.073 49.8507 93.1248 46.6096 94.5389 44.0258Z" fill="url(#paint0_linear_4380_17055)"/>
<path id="Vector (Stroke)_2" fill-rule="evenodd" clip-rule="evenodd" d="M40.4209 17.2979C42.8717 15.664 46.183 16.3263 47.8169 18.7771L78.5779 64.9188C80.2117 67.3696 79.5495 70.6809 77.0986 72.3148C74.6478 73.9487 71.3365 73.2864 69.7026 70.8356L38.9417 24.6939C37.3078 22.2431 37.9701 18.9318 40.4209 17.2979Z" fill="url(#paint1_linear_4380_17055)"/>
<path id="Vector (Stroke)_3" fill-rule="evenodd" clip-rule="evenodd" d="M118.043 16.4647C120.541 18.0258 121.3 21.3162 119.739 23.814L90.4329 70.7042C88.8718 73.202 85.5814 73.9613 83.0836 72.4002C80.5858 70.839 79.8264 67.5486 81.3876 65.0508L110.694 18.1607C112.255 15.6629 115.545 14.9036 118.043 16.4647Z" fill="url(#paint2_linear_4380_17055)"/>
<path id="Vector (Stroke)_4" fill-rule="evenodd" clip-rule="evenodd" d="M79.9998 71.9999C74.6611 71.9999 70.3332 76.3278 70.3332 81.6666C70.3332 87.0053 74.6611 91.3333 79.9998 91.3333C85.3386 91.3333 89.6665 87.0053 89.6665 81.6666C89.6665 76.3278 85.3386 71.9999 79.9998 71.9999ZM59.6665 81.6666C59.6665 70.4368 68.77 61.3333 79.9998 61.3333C91.2296 61.3333 100.333 70.4368 100.333 81.6666C100.333 92.8964 91.2296 102 79.9998 102C68.77 102 59.6665 92.8964 59.6665 81.6666Z" fill="url(#paint3_linear_4380_17055)"/>
<path id="Vector (Stroke)_5" fill-rule="evenodd" clip-rule="evenodd" d="M25.3332 106.667C25.3332 122.131 37.8692 134.667 53.3332 134.667H106.667C122.13 134.667 134.667 122.131 134.667 106.667V53.3335C134.667 37.8695 122.13 25.3335 106.667 25.3335H53.3332C37.8692 25.3335 25.3332 37.8695 25.3332 53.3335L25.3332 106.667ZM53.3332 145.333C31.9782 145.333 14.6665 128.022 14.6665 106.667L14.6665 53.3335C14.6665 31.9785 31.9782 14.6668 53.3332 14.6668H106.667C128.022 14.6668 145.333 31.9785 145.333 53.3335V106.667C145.333 128.022 128.022 145.333 106.667 145.333H53.3332Z" fill="url(#paint4_linear_4380_17055)"/>
</g>
</g>
<defs>
<linearGradient id="paint0_linear_4380_17055" x1="96.7668" y1="38.0379" x2="71.7607" y2="108.668" gradientUnits="userSpaceOnUse">
<stop stop-color="#33353F"/>
<stop offset="1" stop-color="#262830"/>
</linearGradient>
<linearGradient id="paint1_linear_4380_17055" x1="66.4136" y1="14.2713" x2="45.0109" y2="55.969" gradientUnits="userSpaceOnUse">
<stop stop-color="#33353F"/>
<stop offset="1" stop-color="#262830"/>
</linearGradient>
<linearGradient id="paint2_linear_4380_17055" x1="107.948" y1="13.4949" x2="85.6554" y2="54.8574" gradientUnits="userSpaceOnUse">
<stop stop-color="#33353F"/>
<stop offset="1" stop-color="#262830"/>
</linearGradient>
<linearGradient id="paint3_linear_4380_17055" x1="87.5128" y1="59.8083" x2="75.1311" y2="92.8866" gradientUnits="userSpaceOnUse">
<stop stop-color="#33353F"/>
<stop offset="1" stop-color="#262830"/>
</linearGradient>
<linearGradient id="paint4_linear_4380_17055" x1="9.76651" y1="55.86" x2="116.051" y2="95.6439" gradientUnits="userSpaceOnUse">
<stop stop-color="#33353F"/>
<stop offset="1" stop-color="#262830"/>
</linearGradient>
</defs>
</svg>
