<svg xmlns="http://www.w3.org/2000/svg" width="160" height="160" viewBox="0 0 160 160" fill="none">
  <path fill-rule="evenodd" clip-rule="evenodd" d="M64.0885 15.0259C66.85 15.0259 69.0887 17.2644 69.0887 20.0259V28.4894H90.9147V20.0259C90.9147 17.2644 93.1533 15.0259 95.9147 15.0259C98.676 15.0259 100.915 17.2644 100.915 20.0259V28.4894H101.796C110.651 28.4894 118.205 31.6513 123.517 37.3712C128.717 42.9687 131.408 50.6185 131.483 59.1144H139.997C142.758 59.1144 144.997 61.353 144.997 64.1144C144.997 66.8758 142.758 69.1145 139.997 69.1145H131.485V90.8898H139.997C142.758 90.8898 144.997 93.1285 144.997 95.8898C144.997 98.6512 142.758 100.89 139.997 100.89H131.483C131.415 109.381 128.721 117.031 123.515 122.627C118.202 128.338 110.65 131.497 101.796 131.497H100.915V139.983C100.915 142.745 98.676 144.983 95.9147 144.983C93.1533 144.983 90.9147 142.745 90.9147 139.983V131.497H69.0887V139.983C69.0887 142.745 66.85 144.983 64.0885 144.983C61.3271 144.983 59.0885 142.745 59.0885 139.983V131.497H58.2108C49.3603 131.497 41.8 128.338 36.4762 122.632C31.257 117.039 28.5469 109.388 28.4779 100.89H20C17.2386 100.89 15 98.6512 15 95.8898C15 93.1285 17.2386 90.8898 20 90.8898H28.4766V69.1145H20C17.2386 69.1145 15 66.8758 15 64.1144C15 61.353 17.2386 59.1144 20 59.1144H28.4782C28.5544 50.6054 31.2767 42.9557 36.4928 37.3636C41.8196 31.6528 49.3786 28.4894 58.2108 28.4894H59.0885V20.0259C59.0885 17.2644 61.3271 15.0259 64.0885 15.0259ZM121.485 95.5219C121.476 95.6434 121.471 95.7661 121.471 95.8898C121.471 96.0136 121.476 96.1363 121.485 96.2578V100.556C121.485 107.118 119.454 112.311 116.193 115.816C112.971 119.279 108.179 121.497 101.796 121.497H58.2108C51.8303 121.497 47.0236 119.278 43.788 115.81C40.5159 112.304 38.4766 107.111 38.4766 100.556V59.4821C38.4766 52.9073 40.5258 47.7006 43.8054 44.1846C47.0493 40.7068 51.8574 38.4894 58.2108 38.4894H63.7774C63.8803 38.4957 63.984 38.4989 64.0885 38.4989C64.1931 38.4989 64.2968 38.4957 64.3997 38.4894H95.6035C95.7064 38.4957 95.8102 38.4989 95.9147 38.4989C96.0192 38.4989 96.1229 38.4957 96.2258 38.4894H101.796C108.178 38.4894 112.969 40.7083 116.191 44.177C119.451 47.6874 121.485 52.8938 121.485 59.4821V63.7464C121.476 63.8679 121.471 63.9907 121.471 64.1144C121.471 64.2382 121.476 64.3609 121.485 64.4824V95.5219Z" fill="url(#paint0_linear_1743_3908)"/>
  <path fill-rule="evenodd" clip-rule="evenodd" d="M68.9136 56.7188C70.8903 56.7084 72.6876 57.8639 73.499 59.6666L89.9523 96.222C91.0856 98.7407 89.963 101.701 87.445 102.834C84.927 103.967 81.967 102.845 80.8336 100.327L77.9262 93.8672H60.3324L57.5274 100.279C56.4205 102.809 53.4724 103.962 50.9425 102.855C48.4126 101.748 47.259 98.8 48.3658 96.27L64.3588 59.7147C65.1512 57.9035 66.9363 56.7292 68.9136 56.7188ZM69.0043 74.0454L73.4252 83.8672H64.7073L69.0043 74.0454ZM108.033 63.0599C108.033 60.2985 105.794 58.0599 103.033 58.0599C100.271 58.0599 98.0326 60.2985 98.0326 63.0599V98.2707C98.0326 101.032 100.271 103.271 103.033 103.271C105.794 103.271 108.033 101.032 108.033 98.2707V63.0599Z" fill="url(#paint1_linear_1743_3908)"/>
  <defs>
    <linearGradient id="paint0_linear_1743_3908" x1="104.015" y1="10.1525" x2="64.4559" y2="115.868" gradientUnits="userSpaceOnUse">
      <stop stop-color="#33353F"/>
      <stop offset="1" stop-color="#262830"/>
    </linearGradient>
    <linearGradient id="paint1_linear_1743_3908" x1="89.0898" y1="54.9729" x2="77.5393" y2="94.7985" gradientUnits="userSpaceOnUse">
      <stop stop-color="#33353F"/>
      <stop offset="1" stop-color="#262830"/>
    </linearGradient>
  </defs>
</svg>
