<svg width="160" height="160" viewBox="0 0 160 160" fill="none" xmlns="http://www.w3.org/2000/svg">
<g clip-path="url(#clip0_4448_3470)">
<path d="M83.217 139.151C115.778 139.151 142.176 112.753 142.176 80.0755C142.176 47.3979 115.662 21 83.217 21C50.6557 21 24.2578 47.3979 24.2578 80.0755C24.2578 112.753 50.6557 139.151 83.217 139.151Z" fill="#28323E"/>
<path d="M149.661 61.3581C152.295 61.3581 154.429 59.2234 154.429 56.5902C154.429 53.9569 152.295 51.8223 149.661 51.8223C147.028 51.8223 144.894 53.9569 144.894 56.5902C144.894 59.2234 147.028 61.3581 149.661 61.3581Z" fill="#28323E"/>
<path d="M156.638 42.7518C158.436 42.7518 159.894 41.2939 159.894 39.4956C159.894 37.6973 158.436 36.2395 156.638 36.2395C154.84 36.2395 153.382 37.6973 153.382 39.4956C153.382 41.2939 154.84 42.7518 156.638 42.7518Z" fill="#28323E"/>
<path d="M26.9329 41.3506C28.7312 41.3506 30.189 39.8928 30.189 38.0945C30.189 36.2962 28.7312 34.8384 26.9329 34.8384C25.1346 34.8384 23.6768 36.2962 23.6768 38.0945C23.6768 39.8928 25.1346 41.3506 26.9329 41.3506Z" fill="#28323E"/>
<path d="M7.0471 104.148C10.3868 104.148 13.0942 101.44 13.0942 98.1006C13.0942 94.7608 10.3868 92.0535 7.0471 92.0535C3.70738 92.0535 1 94.7608 1 98.1006C1 101.44 3.70738 104.148 7.0471 104.148Z" fill="#28323E"/>
<g filter="url(#filter0_d_4448_3470)">
<path d="M131.215 135.858H32.5791C30.6577 135.858 29.0811 134.281 29.0811 132.36V108.267C29.0811 106.346 30.6577 104.769 32.5791 104.769H131.215C133.137 104.769 134.713 106.346 134.713 108.267V132.36C134.713 134.281 133.137 135.858 131.215 135.858Z" fill="#5C6479"/>
</g>
<path d="M84.858 116.446H59.9232C58.7408 116.446 57.8047 115.728 57.8047 114.82C57.8047 113.913 58.7408 113.194 59.9232 113.194H84.858C86.0405 113.194 86.9766 113.913 86.9766 114.82C86.9766 115.728 86.0405 116.446 84.858 116.446Z" fill="#C6CDDF"/>
<path d="M115.15 126.349H59.9232C58.7408 126.349 57.8047 125.631 57.8047 124.723C57.8047 123.816 58.7408 123.097 59.9232 123.097H115.15C116.333 123.097 117.269 123.816 117.269 124.723C117.269 125.631 116.333 126.349 115.15 126.349Z" fill="#C6CDDF"/>
<path d="M43.6644 129.059C48.5078 129.059 52.4342 125.132 52.4342 120.289C52.4342 115.445 48.5078 111.519 43.6644 111.519C38.8209 111.519 34.8945 115.445 34.8945 120.289C34.8945 125.132 38.8209 129.059 43.6644 129.059Z" fill="#C6CDDF"/>
<g filter="url(#filter1_d_4448_3470)">
<path d="M134.53 56.5091H35.8936C33.9721 56.5091 32.3955 54.9325 32.3955 53.011V28.9185C32.3955 26.997 33.9721 25.4204 35.8936 25.4204H134.53C136.451 25.4204 138.028 26.997 138.028 28.9185V53.011C138.028 54.9325 136.451 56.5091 134.53 56.5091Z" fill="#5C6479"/>
</g>
<path d="M88.1725 37.097H63.2377C62.0552 37.097 61.1191 36.3785 61.1191 35.4711C61.1191 34.5636 62.0552 33.8452 63.2377 33.8452H88.1725C89.3549 33.8452 90.291 34.5636 90.291 35.4711C90.291 36.3785 89.3549 37.097 88.1725 37.097Z" fill="#C6CDDF"/>
<path d="M118.465 47H63.2377C62.0552 47 61.1191 46.2816 61.1191 45.3742C61.1191 44.4667 62.0552 43.7483 63.2377 43.7483H118.465C119.647 43.7483 120.583 44.4667 120.583 45.3742C120.583 46.2816 119.647 47 118.465 47Z" fill="#C6CDDF"/>
<path d="M46.9788 49.7099C51.8223 49.7099 55.7487 45.7835 55.7487 40.94C55.7487 36.0966 51.8223 32.1702 46.9788 32.1702C42.1354 32.1702 38.209 36.0966 38.209 40.94C38.209 45.7835 42.1354 49.7099 46.9788 49.7099Z" fill="#C6CDDF"/>
<g filter="url(#filter2_d_4448_3470)">
<path d="M119.391 95.9971H20.7051C18.7836 95.9971 17.207 94.4205 17.207 92.499V68.4065C17.207 66.4851 18.7836 64.9084 20.7051 64.9084H119.341C121.263 64.9084 122.839 66.4851 122.839 68.4065V92.499C122.889 94.4698 121.312 95.9971 119.391 95.9971Z" fill="#5C6479"/>
</g>
<path d="M31.8402 89.2475C36.6836 89.2475 40.61 85.3211 40.61 80.4776C40.61 75.6342 36.6836 71.7078 31.8402 71.7078C26.9967 71.7078 23.0703 75.6342 23.0703 80.4776C23.0703 85.3211 26.9967 89.2475 31.8402 89.2475Z" fill="#C6CDDF"/>
<path d="M73.0338 76.5852H48.099C46.9166 76.5852 45.9805 75.8668 45.9805 74.9594C45.9805 74.0519 46.9166 73.3335 48.099 73.3335H73.0338C74.2163 73.3335 75.1524 74.0519 75.1524 74.9594C75.1524 75.8668 74.167 76.5852 73.0338 76.5852Z" fill="#C6CDDF"/>
<path d="M103.326 86.5374H48.099C46.9166 86.5374 45.9805 85.819 45.9805 84.9115C45.9805 84.0041 46.9166 83.2856 48.099 83.2856H103.326C104.509 83.2856 105.445 84.0041 105.445 84.9115C105.396 85.819 104.459 86.5374 103.326 86.5374Z" fill="#C6CDDF"/>
</g>
<defs>
<filter id="filter0_d_4448_3470" x="7.08105" y="93.7693" width="149.633" height="75.0886" filterUnits="userSpaceOnUse" color-interpolation-filters="sRGB">
<feFlood flood-opacity="0" result="BackgroundImageFix"/>
<feColorMatrix in="SourceAlpha" type="matrix" values="0 0 0 0 0 0 0 0 0 0 0 0 0 0 0 0 0 0 127 0" result="hardAlpha"/>
<feOffset dy="11"/>
<feGaussianBlur stdDeviation="11"/>
<feColorMatrix type="matrix" values="0 0 0 0 0 0 0 0 0 0 0 0 0 0 0 0 0 0 0.27 0"/>
<feBlend mode="normal" in2="BackgroundImageFix" result="effect1_dropShadow_4448_3470"/>
<feBlend mode="normal" in="SourceGraphic" in2="effect1_dropShadow_4448_3470" result="shape"/>
</filter>
<filter id="filter1_d_4448_3470" x="10.3955" y="14.4204" width="149.633" height="75.0886" filterUnits="userSpaceOnUse" color-interpolation-filters="sRGB">
<feFlood flood-opacity="0" result="BackgroundImageFix"/>
<feColorMatrix in="SourceAlpha" type="matrix" values="0 0 0 0 0 0 0 0 0 0 0 0 0 0 0 0 0 0 127 0" result="hardAlpha"/>
<feOffset dy="11"/>
<feGaussianBlur stdDeviation="11"/>
<feColorMatrix type="matrix" values="0 0 0 0 0 0 0 0 0 0 0 0 0 0 0 0 0 0 0.27 0"/>
<feBlend mode="normal" in2="BackgroundImageFix" result="effect1_dropShadow_4448_3470"/>
<feBlend mode="normal" in="SourceGraphic" in2="effect1_dropShadow_4448_3470" result="shape"/>
</filter>
<filter id="filter2_d_4448_3470" x="-4.79297" y="53.9084" width="149.634" height="75.0886" filterUnits="userSpaceOnUse" color-interpolation-filters="sRGB">
<feFlood flood-opacity="0" result="BackgroundImageFix"/>
<feColorMatrix in="SourceAlpha" type="matrix" values="0 0 0 0 0 0 0 0 0 0 0 0 0 0 0 0 0 0 127 0" result="hardAlpha"/>
<feOffset dy="11"/>
<feGaussianBlur stdDeviation="11"/>
<feColorMatrix type="matrix" values="0 0 0 0 0 0 0 0 0 0 0 0 0 0 0 0 0 0 0.27 0"/>
<feBlend mode="normal" in2="BackgroundImageFix" result="effect1_dropShadow_4448_3470"/>
<feBlend mode="normal" in="SourceGraphic" in2="effect1_dropShadow_4448_3470" result="shape"/>
</filter>
<clipPath id="clip0_4448_3470">
<rect width="160" height="160" fill="white"/>
</clipPath>
</defs>
</svg>
