
<svg width="21" height="22" viewBox="0 0 21 22" fill="none" xmlns="http://www.w3.org/2000/svg">
<path d="M10.5 0.5C7.71523 0.5 5.04452 1.60624 3.07538 3.57538C1.10625 5.54451 6.38353e-06 8.21523 6.38353e-06 11C-0.00151634 12.3791 0.269398 13.7449 0.797194 15.019C1.32499 16.2931 2.09927 17.4504 3.07558 18.4244L1.07493 20.4251C0.987332 20.5134 0.927796 20.6256 0.903805 20.7476C0.879814 20.8697 0.892438 20.9961 0.940094 21.111C0.98775 21.2258 1.06831 21.3241 1.17164 21.3933C1.27497 21.4625 1.39646 21.4996 1.52084 21.5H10.5068C13.2904 21.4982 15.9594 20.3912 17.927 18.4222C19.8947 16.4533 21 13.7836 21 11C21 8.21523 19.8938 5.54451 17.9246 3.57538C15.9555 1.60624 13.2848 0.5 10.5 0.5Z" fill="#FF4500"/>
<g clip-path="url(#clip0_6617_10453)">
<path d="M16.4911 8.42152C17.849 8.42152 18.9498 9.5223 18.9498 10.8802C18.9498 12.2381 17.849 13.3389 16.4911 13.3389C15.1333 13.3389 14.0325 12.2381 14.0325 10.8802C14.0325 9.5223 15.1333 8.42152 16.4911 8.42152Z" fill="url(#paint0_radial_6617_10453)"/>
<path d="M4.55413 8.42152C5.91202 8.42152 7.01281 9.5223 7.01281 10.8802C7.01281 12.2381 5.91202 13.3389 4.55413 13.3389C3.19625 13.3389 2.09546 12.2381 2.09546 10.8802C2.09546 9.5223 3.19625 8.42152 4.55413 8.42152Z" fill="url(#paint1_radial_6617_10453)"/>
<path d="M10.5287 7.72801C14.4053 7.72801 17.548 10.085 17.548 12.9924C17.548 15.8999 14.4053 18.2568 10.5287 18.2568C6.65213 18.2568 3.50952 15.8999 3.50952 12.9924C3.50952 10.085 6.65213 7.72801 10.5287 7.72801Z" fill="url(#paint2_radial_6617_10453)"/>
<path d="M8.45186 12.4804C8.41287 13.3722 7.82052 13.6943 7.13108 13.6943C6.44164 13.6943 5.91715 13.2393 5.95614 12.3474C5.99514 11.4556 6.58904 10.8656 7.27848 10.8656C7.96793 10.8656 8.49476 11.5886 8.45186 12.4804Z" fill="#842123"/>
<path d="M15.0998 12.3473C15.1388 13.2392 14.6155 13.6958 13.9264 13.6958C13.2374 13.6958 12.6454 13.3721 12.6041 12.4803C12.5628 11.5885 13.0884 10.8651 13.7775 10.8651C14.4665 10.8651 15.0585 11.4551 15.0998 12.3469V12.3473Z" fill="#842123"/>
<path d="M8.45379 12.5583C8.41479 13.3932 7.86144 13.6958 7.21645 13.6958C6.57147 13.6958 6.07973 13.2423 6.11834 12.4089C6.15694 11.5756 6.71068 11.0281 7.35567 11.0281C8.00066 11.0281 8.49239 11.7246 8.45379 12.5595V12.5583Z" fill="url(#paint3_radial_6617_10453)"/>
<path d="M12.6037 12.5583C12.6427 13.3932 13.196 13.6958 13.841 13.6958C14.486 13.6958 14.9777 13.2423 14.9391 12.4089C14.9005 11.5756 14.3468 11.0281 13.7018 11.0281C13.0568 11.0281 12.5651 11.7246 12.6037 12.5595V12.5583Z" fill="url(#paint4_radial_6617_10453)"/>
<path d="M7.75734 11.4979C7.9081 11.4979 8.03031 11.6313 8.03031 11.7958C8.03031 11.9604 7.9081 12.0938 7.75734 12.0938C7.60659 12.0938 7.48438 11.9604 7.48438 11.7958C7.48438 11.6313 7.60659 11.4979 7.75734 11.4979Z" fill="#FFC49C"/>
<path d="M14.2481 11.4979C14.3988 11.4979 14.521 11.6313 14.521 11.7958C14.521 11.9604 14.3988 12.0938 14.2481 12.0938C14.0973 12.0938 13.9751 11.9604 13.9751 11.7958C13.9751 11.6313 14.0973 11.4979 14.2481 11.4979Z" fill="#FFC49C"/>
<path d="M10.5285 14.2909C9.65817 14.2909 8.82405 14.333 8.05272 14.4079C8.02229 14.4105 7.99289 14.4202 7.9669 14.4362C7.9409 14.4522 7.91904 14.4741 7.90307 14.5002C7.88709 14.5262 7.87746 14.5556 7.87493 14.5861C7.87241 14.6165 7.87707 14.6471 7.88854 14.6754C8.11367 15.1881 8.4832 15.6241 8.95201 15.9302C9.42082 16.2364 9.96863 16.3994 10.5285 16.3994C11.0885 16.3994 11.6363 16.2364 12.1051 15.9302C12.5739 15.6241 12.9434 15.1881 13.1686 14.6754C13.18 14.6471 13.1847 14.6165 13.1822 14.5861C13.1796 14.5556 13.17 14.5262 13.154 14.5002C13.1381 14.4741 13.1162 14.4522 13.0902 14.4362C13.0642 14.4202 13.0348 14.4105 13.0044 14.4079C12.233 14.3299 11.3989 14.2909 10.5285 14.2909Z" fill="#BBCFDA"/>
<path d="M10.5287 14.4844C9.70492 14.4833 8.8816 14.5235 8.06185 14.6049C8.03101 14.6078 8.00129 14.618 7.97508 14.6345C7.94888 14.651 7.92692 14.6735 7.91099 14.7C7.89505 14.7266 7.88558 14.7565 7.88333 14.7874C7.88109 14.8183 7.88613 14.8493 7.89806 14.8779C8.11521 15.3969 8.48095 15.8401 8.94929 16.1518C9.41763 16.4636 9.96767 16.6299 10.5303 16.6299C11.0929 16.6299 11.6429 16.4636 12.1113 16.1518C12.5796 15.8401 12.9453 15.3969 13.1625 14.8779C13.1743 14.8493 13.1793 14.8183 13.177 14.7875C13.1747 14.7566 13.1652 14.7267 13.1493 14.7001C13.1334 14.6736 13.1115 14.6512 13.0853 14.6346C13.0592 14.6181 13.0295 14.6079 12.9987 14.6049C12.1786 14.5234 11.3548 14.4832 10.5307 14.4844H10.5287Z" fill="white"/>
<path d="M10.5287 14.3839C9.71744 14.3823 8.90662 14.4213 8.09927 14.5008C8.06911 14.5039 8.04008 14.5139 8.01447 14.5301C7.98887 14.5463 7.9674 14.5683 7.95176 14.5943C7.93613 14.6202 7.92677 14.6495 7.92442 14.6797C7.92206 14.7099 7.92679 14.7403 7.93822 14.7683C8.15167 15.2795 8.51155 15.7161 8.97257 16.0232C9.43359 16.3303 9.97515 16.4941 10.5291 16.4941C11.083 16.4941 11.6246 16.3303 12.0856 16.0232C12.5466 15.7161 12.9065 15.2795 13.12 14.7683C13.1314 14.7403 13.1361 14.7099 13.1338 14.6797C13.1314 14.6495 13.122 14.6202 13.1064 14.5943C13.0908 14.5683 13.0693 14.5463 13.0437 14.5301C13.0181 14.5139 12.9891 14.5039 12.9589 14.5008C12.1514 14.4211 11.3405 14.3821 10.5291 14.3839H10.5287Z" fill="url(#paint5_radial_6617_10453)"/>
<path d="M14.3729 3.52756C15.3352 3.52756 16.1153 4.30762 16.1153 5.26988C16.1153 6.23214 15.3352 7.01221 14.3729 7.01221C13.4107 7.01221 12.6306 6.23214 12.6306 5.26988C12.6306 4.30762 13.4107 3.52756 14.3729 3.52756Z" fill="url(#paint6_radial_6617_10453)"/>
<path d="M10.5036 7.94971C10.295 7.94971 10.1257 7.86236 10.1257 7.72782C10.1266 6.97733 10.4251 6.25781 10.9557 5.72713C11.4864 5.19645 12.2059 4.89795 12.9564 4.89713C13.0566 4.89713 13.1528 4.93694 13.2236 5.0078C13.2945 5.07867 13.3343 5.17478 13.3343 5.275C13.3343 5.37521 13.2945 5.47132 13.2236 5.54219C13.1528 5.61305 13.0566 5.65286 12.9564 5.65286C12.4063 5.65348 11.8788 5.87228 11.4898 6.26127C11.1007 6.65025 10.8818 7.17766 10.8811 7.72782C10.8811 7.86236 10.7118 7.94971 10.5032 7.94971H10.5036Z" fill="url(#paint7_radial_6617_10453)"/>
<path d="M7.99512 12.9715C7.99512 13.2944 7.65157 13.4395 7.2273 13.4395C6.80302 13.4395 6.45947 13.2944 6.45947 12.9715C6.45947 12.6486 6.80302 12.3866 7.2273 12.3866C7.65157 12.3866 7.99512 12.6486 7.99512 12.9715Z" fill="#FF6101"/>
<path d="M14.5974 12.9715C14.5974 13.2944 14.2539 13.4395 13.8296 13.4395C13.4053 13.4395 13.0618 13.2944 13.0618 12.9715C13.0618 12.6486 13.4053 12.3866 13.8296 12.3866C14.2539 12.3866 14.5974 12.6486 14.5974 12.9715Z" fill="#FF6101"/>
</g>
<defs>
<radialGradient id="paint0_radial_6617_10453" cx="0" cy="0" r="1" gradientUnits="userSpaceOnUse" gradientTransform="translate(16.543 9.41642) scale(4.97 4.3239)">
<stop stop-color="#FEFFFF"/>
<stop offset="0.4" stop-color="#FEFFFF"/>
<stop offset="0.51" stop-color="#F9FCFC"/>
<stop offset="0.62" stop-color="#EDF3F5"/>
<stop offset="0.7" stop-color="#DEE9EC"/>
<stop offset="0.72" stop-color="#D8E4E8"/>
<stop offset="0.76" stop-color="#CCD8DF"/>
<stop offset="0.8" stop-color="#C8D5DD"/>
<stop offset="0.83" stop-color="#CCD6DE"/>
<stop offset="0.85" stop-color="#D8DBE2"/>
<stop offset="0.88" stop-color="#EDE3E9"/>
<stop offset="0.9" stop-color="#FFEBEF"/>
</radialGradient>
<radialGradient id="paint1_radial_6617_10453" cx="0" cy="0" r="1" gradientUnits="userSpaceOnUse" gradientTransform="translate(4.606 9.43891) scale(4.96999)">
<stop stop-color="#FEFFFF"/>
<stop offset="0.4" stop-color="#FEFFFF"/>
<stop offset="0.51" stop-color="#F9FCFC"/>
<stop offset="0.62" stop-color="#EDF3F5"/>
<stop offset="0.7" stop-color="#DEE9EC"/>
<stop offset="0.72" stop-color="#D8E4E8"/>
<stop offset="0.76" stop-color="#CCD8DF"/>
<stop offset="0.8" stop-color="#C8D5DD"/>
<stop offset="0.83" stop-color="#CCD6DE"/>
<stop offset="0.85" stop-color="#D8DBE2"/>
<stop offset="0.88" stop-color="#EDE3E9"/>
<stop offset="0.9" stop-color="#FFEBEF"/>
</radialGradient>
<radialGradient id="paint2_radial_6617_10453" cx="0" cy="0" r="1" gradientUnits="userSpaceOnUse" gradientTransform="translate(10.68 8.78819) scale(14.9915 10.494)">
<stop stop-color="#FEFFFF"/>
<stop offset="0.4" stop-color="#FEFFFF"/>
<stop offset="0.51" stop-color="#F9FCFC"/>
<stop offset="0.62" stop-color="#EDF3F5"/>
<stop offset="0.7" stop-color="#DEE9EC"/>
<stop offset="0.72" stop-color="#D8E4E8"/>
<stop offset="0.76" stop-color="#CCD8DF"/>
<stop offset="0.8" stop-color="#C8D5DD"/>
<stop offset="0.83" stop-color="#CCD6DE"/>
<stop offset="0.85" stop-color="#D8DBE2"/>
<stop offset="0.88" stop-color="#EDE3E9"/>
<stop offset="0.9" stop-color="#FFEBEF"/>
</radialGradient>
<radialGradient id="paint3_radial_6617_10453" cx="0" cy="0" r="1" gradientUnits="userSpaceOnUse" gradientTransform="translate(7.34826 12.9277) scale(1.25254 1.82871)">
<stop stop-color="#FF6600"/>
<stop offset="0.5" stop-color="#FF4500"/>
<stop offset="0.7" stop-color="#FC4301"/>
<stop offset="0.82" stop-color="#F43F07"/>
<stop offset="0.92" stop-color="#E53812"/>
<stop offset="1" stop-color="#D4301F"/>
</radialGradient>
<radialGradient id="paint4_radial_6617_10453" cx="0" cy="0" r="1" gradientUnits="userSpaceOnUse" gradientTransform="translate(13.7092 12.9277) rotate(180) scale(1.25254 1.82871)">
<stop stop-color="#FF6600"/>
<stop offset="0.5" stop-color="#FF4500"/>
<stop offset="0.7" stop-color="#FC4301"/>
<stop offset="0.82" stop-color="#F43F07"/>
<stop offset="0.92" stop-color="#E53812"/>
<stop offset="1" stop-color="#D4301F"/>
</radialGradient>
<radialGradient id="paint5_radial_6617_10453" cx="0" cy="0" r="1" gradientUnits="userSpaceOnUse" gradientTransform="translate(10.5158 16.7788) scale(4.41665 2.91499)">
<stop stop-color="#172E35"/>
<stop offset="0.29" stop-color="#0E1C21"/>
<stop offset="0.73" stop-color="#030708"/>
<stop offset="1"/>
</radialGradient>
<radialGradient id="paint6_radial_6617_10453" cx="0" cy="0" r="1" gradientUnits="userSpaceOnUse" gradientTransform="translate(14.4108 3.66235) scale(3.87695 3.79941)">
<stop stop-color="#FEFFFF"/>
<stop offset="0.4" stop-color="#FEFFFF"/>
<stop offset="0.51" stop-color="#F9FCFC"/>
<stop offset="0.62" stop-color="#EDF3F5"/>
<stop offset="0.7" stop-color="#DEE9EC"/>
<stop offset="0.72" stop-color="#D8E4E8"/>
<stop offset="0.76" stop-color="#CCD8DF"/>
<stop offset="0.8" stop-color="#C8D5DD"/>
<stop offset="0.83" stop-color="#CCD6DE"/>
<stop offset="0.85" stop-color="#D8DBE2"/>
<stop offset="0.88" stop-color="#EDE3E9"/>
<stop offset="0.9" stop-color="#FFEBEF"/>
</radialGradient>
<radialGradient id="paint7_radial_6617_10453" cx="0" cy="0" r="1" gradientUnits="userSpaceOnUse" gradientTransform="translate(12.795 7.57574) scale(3.17776)">
<stop offset="0.48" stop-color="#7A9299"/>
<stop offset="0.67" stop-color="#172E35"/>
<stop offset="0.75"/>
<stop offset="0.82" stop-color="#172E35"/>
</radialGradient>
<clipPath id="clip0_6617_10453">
<rect width="16.8543" height="14.7294" fill="white" transform="matrix(1 0 0 -1 2.09546 18.2568)"/>
</clipPath>
</defs>
</svg>
