<svg width="24" height="24" viewBox="0 0 24 24" fill="none" xmlns="http://www.w3.org/2000/svg">
<g clip-path="url(#clip0_9788_1948)">
<path d="M23.908 10.5086C23.8599 10.1228 23.4587 9.84052 23.0783 9.89616C22.6925 9.94284 22.4178 10.2937 22.4659 10.6789C22.518 11.1122 22.5469 11.5523 22.5469 12C22.5469 17.8159 17.8159 22.5469 12 22.5469C8.67216 22.5469 5.54981 20.9543 3.57159 18.3281H4.96875C5.35739 18.3281 5.67188 18.0136 5.67188 17.625C5.67188 17.2364 5.35739 16.9219 4.96875 16.9219H2.15625C1.76761 16.9219 1.45312 17.2364 1.45312 17.625V20.4375C1.45312 20.8261 1.76761 21.1406 2.15625 21.1406C2.54489 21.1406 2.85938 20.8261 2.85938 20.4375V19.6664C5.10984 22.3401 8.44697 24 12 24C18.5904 24 24 18.5911 24 12C24 11.4946 23.9684 10.9968 23.908 10.5086ZM1.53417 13.3211C1.48195 12.8878 1.45312 12.4477 1.45312 12C1.45312 6.18412 6.18412 1.45312 12 1.45312C15.3278 1.45312 18.4502 3.0457 20.4284 5.67188H19.0312C18.6426 5.67188 18.3281 5.98636 18.3281 6.375C18.3281 6.76364 18.6426 7.07812 19.0312 7.07812H21.8438C22.2324 7.07812 22.5469 6.76364 22.5469 6.375V3.5625C22.5469 3.17386 22.2324 2.85938 21.8438 2.85938C21.4551 2.85938 21.1406 3.17386 21.1406 3.5625V4.33359C18.8902 1.65998 15.553 0 12 0C5.40956 0 0 5.40891 0 12C0 12.5054 0.0315938 13.0032 0.0920156 13.4914C0.135937 13.8478 0.484969 14.1094 0.835125 14.1094C0.863953 14.1094 0.892781 14.108 0.921656 14.1039C1.30758 14.0572 1.58222 13.7063 1.53417 13.3211Z" fill="url(#paint0_linear_9788_1948)"/>
<path d="M12 19.7344C8.89772 19.7344 6.375 17.211 6.375 14.1094C6.375 11.2358 10.9233 5.21799 11.4424 4.54097C11.7089 4.19354 12.2911 4.19354 12.5575 4.54097C13.0767 5.21799 17.625 11.2358 17.625 14.1094C17.625 17.211 15.1023 19.7344 12 19.7344Z" fill="url(#paint1_linear_9788_1948)"/>
</g>
<defs>
<linearGradient id="paint0_linear_9788_1948" x1="12" y1="24" x2="12" y2="0" gradientUnits="userSpaceOnUse">
<stop stop-color="#ADDCFF"/>
<stop offset="0.5028" stop-color="#EAF6FF"/>
<stop offset="1" stop-color="#EAF6FF"/>
</linearGradient>
<linearGradient id="paint1_linear_9788_1948" x1="12" y1="4.2804" x2="12" y2="19.7344" gradientUnits="userSpaceOnUse">
<stop stop-color="#F14056"/>
<stop offset="1" stop-color="#FF6174"/>
</linearGradient>
<clipPath id="clip0_9788_1948">
<rect width="24" height="24" fill="white"/>
</clipPath>
</defs>
</svg>
