<svg width="239" height="239" viewBox="0 0 239 239" fill="none" xmlns="http://www.w3.org/2000/svg">
  <g filter="url(#filter0_dddd_1609_16642)" style="rotate: -48deg; transform-origin: center center;">
  <path d="M114.443 113.487C113.614 114.206 112.952 115.098 112.504 116.1C112.056 117.101 111.833 118.189 111.85 119.286C111.867 120.383 112.124 121.463 112.602 122.451C113.081 123.438 113.77 124.309 114.621 125.002C116.113 126.077 117.935 126.595 119.77 126.466C121.605 126.338 123.336 125.571 124.665 124.299C141.259 109.318 158.821 90.6817 171.661 76.477C172.246 75.8593 172.577 75.0434 172.586 74.1925C172.596 73.3416 172.284 72.5185 171.712 71.8879C171.141 71.2573 170.353 70.8657 169.505 70.7916C168.657 70.7174 167.813 70.9661 167.141 71.4879C151.598 82.84 131.108 98.4733 114.443 113.487Z" fill="white"/>
  </g>
  <circle cx="119.324" cy="119.324" r="10.125" fill="url(#paint4_radial_1609_16642)"/>
  <circle cx="119.324" cy="119.324" r="3.375" fill="white"/>
  <defs>
  <radialGradient id="paint4_radial_1609_16642" cx="0" cy="0" r="1" gradientUnits="userSpaceOnUse" gradientTransform="translate(119.324 119.324) rotate(90) scale(10.125)">
  <stop stop-color="#F2F2F2"/>
  <stop offset="1" stop-color="#DBDBDB"/>
  </radialGradient>
  </defs>
  </svg>
