<svg width="239" height="239" viewBox="0 0 239 239" fill="none" xmlns="http://www.w3.org/2000/svg">
  <circle cx="119.324" cy="119.324" r="97.875" fill="url(#paint0_linear_1609_16642)"/>
  <!-- <path d="M69.1211 119.324C69.1211 112.732 70.4196 106.203 72.9426 100.112C75.4655 94.0215 79.1635 88.4871 83.8252 83.8253C88.487 79.1635 94.0214 75.4656 100.112 72.9426C106.203 70.4197 112.731 69.1212 119.324 69.1212C125.917 69.1212 132.445 70.4197 138.536 72.9426C144.627 75.4656 150.161 79.1635 154.823 83.8253C159.485 88.4871 163.183 94.0215 165.706 100.112C168.229 106.203 169.527 112.732 169.527 119.324" stroke="white" stroke-opacity="0.5" stroke-width="0.84375" stroke-linecap="round" stroke-dasharray="6.75 421.88"/> -->
  <path d="M203.699 119.324C203.699 165.923 165.923 203.699 119.324 203.699C72.7252 203.699 34.9492 165.923 34.9492 119.324C34.9492 72.7253 72.7252 34.9493 119.324 34.9493C165.923 34.9493 203.699 72.7253 203.699 119.324ZM58.5742 119.324C58.5742 152.876 85.7729 180.074 119.324 180.074C152.876 180.074 180.074 152.876 180.074 119.324C180.074 85.773 152.876 58.5743 119.324 58.5743C85.7729 58.5743 58.5742 85.773 58.5742 119.324Z" fill="url(#paint1_linear_1609_16642)"/>
  <path d="M178.986 178.986C186.821 171.151 193.036 161.85 197.277 151.613C201.517 141.376 203.699 130.405 203.699 119.324C203.699 108.244 201.517 97.2722 197.277 87.0353C193.036 76.7985 186.821 67.4971 178.986 59.6621L162.281 76.3675C167.922 82.0087 172.397 88.7057 175.45 96.0762C178.503 103.447 180.074 111.346 180.074 119.324C180.074 127.302 178.503 135.202 175.45 142.572C172.397 149.943 167.922 156.64 162.281 162.281L178.986 178.986Z" fill="url(#paint2_linear_1609_16642)"/>
  <path d="M59.6621 178.986C51.8271 171.151 45.6121 161.85 41.3719 151.613C37.1316 141.376 34.9492 130.405 34.9492 119.324C34.9492 108.244 37.1316 97.2722 41.3719 87.0353C45.6121 76.7985 51.8271 67.4971 59.6621 59.6621L76.3675 76.3675C70.7263 82.0087 66.2515 88.7057 63.1985 96.0762C60.1456 103.447 58.5742 111.346 58.5742 119.324C58.5742 127.302 60.1456 135.202 63.1985 142.572C66.2515 149.943 70.7263 156.64 76.3675 162.281L59.6621 178.986Z" fill="url(#paint3_linear_1609_16642)"/>
  <path d="M178.986 59.6621C171.151 51.8272 161.85 45.6122 151.613 41.3719C141.376 37.1317 130.405 34.9493 119.324 34.9493C108.244 34.9493 97.2722 37.1317 87.0353 41.3719C76.7985 45.6122 67.4971 51.8272 59.6621 59.6621L76.3675 76.3675C82.0087 70.7264 88.7057 66.2516 96.0762 63.1986C103.447 60.1456 111.346 58.5743 119.324 58.5743C127.302 58.5743 135.202 60.1456 142.572 63.1986C149.943 66.2516 156.64 70.7264 162.281 76.3675L178.986 59.6621Z" fill="#FFA500"/>
  <rect x="90.9746" y="143.775" width="56.7" height="10.8" rx="2.7" fill="#262D35"/>
  <defs>
  <filter id="filter0_dddd_1609_16642" x="111.005" y="69.935" width="65.8008" height="62.4569" filterUnits="userSpaceOnUse" color-interpolation-filters="sRGB">
  <feFlood flood-opacity="0" result="BackgroundImageFix"/>
  <feColorMatrix in="SourceAlpha" type="matrix" values="0 0 0 0 0 0 0 0 0 0 0 0 0 0 0 0 0 0 127 0" result="hardAlpha"/>
  <feOffset/>
  <feGaussianBlur stdDeviation="0.421875"/>
  <feColorMatrix type="matrix" values="0 0 0 0 0 0 0 0 0 0 0 0 0 0 0 0 0 0 0.18 0"/>
  <feBlend mode="normal" in2="BackgroundImageFix" result="effect1_dropShadow_1609_16642"/>
  <feColorMatrix in="SourceAlpha" type="matrix" values="0 0 0 0 0 0 0 0 0 0 0 0 0 0 0 0 0 0 127 0" result="hardAlpha"/>
  <feOffset dx="0.84375" dy="0.84375"/>
  <feGaussianBlur stdDeviation="0.421875"/>
  <feColorMatrix type="matrix" values="0 0 0 0 0 0 0 0 0 0 0 0 0 0 0 0 0 0 0.16 0"/>
  <feBlend mode="normal" in2="effect1_dropShadow_1609_16642" result="effect2_dropShadow_1609_16642"/>
  <feColorMatrix in="SourceAlpha" type="matrix" values="0 0 0 0 0 0 0 0 0 0 0 0 0 0 0 0 0 0 127 0" result="hardAlpha"/>
  <feOffset dx="0.84375" dy="2.53125"/>
  <feGaussianBlur stdDeviation="0.84375"/>
  <feColorMatrix type="matrix" values="0 0 0 0 0 0 0 0 0 0 0 0 0 0 0 0 0 0 0.09 0"/>
  <feBlend mode="normal" in2="effect2_dropShadow_1609_16642" result="effect3_dropShadow_1609_16642"/>
  <feColorMatrix in="SourceAlpha" type="matrix" values="0 0 0 0 0 0 0 0 0 0 0 0 0 0 0 0 0 0 127 0" result="hardAlpha"/>
  <feOffset dx="2.53125" dy="4.21875"/>
  <feGaussianBlur stdDeviation="0.84375"/>
  <feColorMatrix type="matrix" values="0 0 0 0 0 0 0 0 0 0 0 0 0 0 0 0 0 0 0.03 0"/>
  <feBlend mode="normal" in2="effect3_dropShadow_1609_16642" result="effect4_dropShadow_1609_16642"/>
  <feBlend mode="normal" in="SourceGraphic" in2="effect4_dropShadow_1609_16642" result="shape"/>
  </filter>
  <linearGradient id="paint0_linear_1609_16642" x1="119.324" y1="-158.691" x2="119.324" y2="217.199" gradientUnits="userSpaceOnUse">
  <stop stop-color="#1D262F"/>
  <stop offset="1" stop-color="#2A2A2A" stop-opacity="0"/>
  </linearGradient>
  <linearGradient id="paint1_linear_1609_16642" x1="119.324" y1="34.9493" x2="119.324" y2="181.762" gradientUnits="userSpaceOnUse">
  <stop stop-color="#2C2C2C"/>
  <stop offset="1" stop-color="#2C2C2C" stop-opacity="0"/>
  </linearGradient>
  <linearGradient id="paint2_linear_1609_16642" x1="178.986" y1="59.6621" x2="178.986" y2="170.371" gradientUnits="userSpaceOnUse">
  <stop stop-color="#00FFA3"/>
  <stop offset="1" stop-color="#1E1E1E" stop-opacity="0"/>
  </linearGradient>
  <linearGradient id="paint3_linear_1609_16642" x1="59.6621" y1="59.6621" x2="59.6621" y2="170.371" gradientUnits="userSpaceOnUse">
  <stop stop-color="#F14056"/>
  <stop offset="1" stop-color="#1E1E1E" stop-opacity="0"/>
  </linearGradient>
  <radialGradient id="paint4_radial_1609_16642" cx="0" cy="0" r="1" gradientUnits="userSpaceOnUse" gradientTransform="translate(119.324 119.324) rotate(90) scale(10.125)">
  <stop stop-color="#F2F2F2"/>
  <stop offset="1" stop-color="#DBDBDB"/>
  </radialGradient>
  </defs>
  </svg>
