<svg width="48" height="49" viewBox="0 0 48 49" fill="none" xmlns="http://www.w3.org/2000/svg">
<path d="M7 40.5564V34.9365C7 33.7991 7.28704 32.7534 7.86116 31.7995C8.43396 30.8467 9.19552 30.1194 10.1458 29.6178C12.1775 28.5806 13.4655 27.8025 15.5627 27.2834C17.6599 26.7656 19.7899 26.5067 21.9526 26.5067C24.1154 26.5067 26.2454 26.7656 28.3426 27.2834C30.4398 27.8025 32.1184 28.5806 34.15 29.6178C35.1004 30.1194 35.8618 30.8467 36.4346 31.7995C37.0088 32.7534 37.2958 33.7991 37.2958 34.9365V40.5564H7ZM21.9526 24.4995C19.7899 24.4995 17.9384 23.7135 16.3983 22.1412C14.8582 20.5689 14.0881 18.679 14.0881 16.4712C14.0881 14.2634 14.8582 12.3733 16.3983 10.8011C17.9384 9.22887 19.7899 8.44275 21.9526 8.44275C24.1154 8.44275 25.9668 9.22887 27.507 10.8011C29.0472 12.3733 29.8172 14.2634 29.8172 16.4712C29.8172 18.679 29.0472 20.5689 27.507 22.1412C25.9668 23.7135 24.1154 24.4995 21.9526 24.4995ZM10.9323 36.5423H33.3636V34.9365C33.3636 34.5686 33.2738 34.234 33.0942 33.9331C32.9134 33.6319 32.6754 33.3977 32.3806 33.2305C30.611 32.3273 29.211 31.6497 27.4086 31.1972C25.6064 30.7464 23.7876 30.5208 21.9526 30.5208C20.1176 30.5208 18.2989 30.7464 16.4966 31.1972C14.6943 31.6497 13.6849 32.3273 11.9153 33.2305C11.6204 33.3977 11.3832 33.6319 11.2036 33.9331C11.0227 34.234 10.9323 34.5686 10.9323 34.9365V36.5423ZM21.9526 20.4854C23.034 20.4854 23.96 20.092 24.7308 19.3052C25.5002 18.5198 25.8848 17.5751 25.8848 16.4712C25.8848 15.3673 25.5002 14.4226 24.7308 13.6371C23.96 12.8504 23.034 12.457 21.9526 12.457C20.8713 12.457 19.9459 12.8504 19.1765 13.6371C18.4057 14.4226 18.0204 15.3673 18.0204 16.4712C18.0204 17.5751 18.4057 18.5198 19.1765 19.3052C19.9459 20.092 20.8713 20.4854 21.9526 20.4854Z" fill="white"/>
<path d="M37.5069 15.2897C37.7123 14.9034 38.2877 14.9034 38.4931 15.2897L39.9536 18.0349C40.034 18.1861 40.185 18.2913 40.3598 18.318L43.5327 18.8021C43.9792 18.8702 44.157 19.3951 43.8375 19.7019L41.5671 21.8826C41.4421 22.0027 41.3844 22.173 41.412 22.3407L41.9126 25.385C41.983 25.8134 41.5175 26.1378 41.1146 25.9412L38.251 24.5437C38.0933 24.4667 37.9067 24.4667 37.749 24.5437L34.8854 25.9412C34.4825 26.1378 34.017 25.8134 34.0874 25.385L34.588 22.3407C34.6156 22.173 34.5579 22.0027 34.4328 21.8826L32.1625 19.7019C31.843 19.3951 32.0208 18.8702 32.4673 18.8021L35.6402 18.318C35.815 18.2913 35.966 18.1861 36.0464 18.0349L37.5069 15.2897Z" fill="white"/>
</svg>
