<svg width="29" height="28" viewBox="0 0 29 28" fill="none" xmlns="http://www.w3.org/2000/svg">
<rect x="0.399902" width="28" height="28" rx="14" fill="#00FAAC"/>
<path d="M16.4655 14.4224L15.0667 13.6152V10.6666C15.0667 10.4898 14.9965 10.3202 14.8715 10.1952C14.7464 10.0702 14.5769 9.99992 14.4001 9.99992C14.2233 9.99992 14.0537 10.0702 13.9287 10.1952C13.8036 10.3202 13.7334 10.4898 13.7334 10.6666V13.9999C13.7334 14.117 13.7642 14.232 13.8227 14.3333C13.8812 14.4347 13.9654 14.5189 14.0667 14.5774L15.7988 15.5774C15.8747 15.6212 15.9584 15.6497 16.0452 15.6611C16.1321 15.6726 16.2203 15.6668 16.3049 15.6442C16.3895 15.6215 16.4689 15.5824 16.5383 15.5291C16.6078 15.4758 16.6661 15.4093 16.7099 15.3334C16.7537 15.2576 16.7821 15.1738 16.7935 15.087C16.805 15.0001 16.7992 14.9119 16.7765 14.8273C16.7538 14.7427 16.7146 14.6634 16.6613 14.5939C16.6079 14.5245 16.5414 14.4662 16.4655 14.4224ZM14.4001 7.33325C13.0815 7.33325 11.7926 7.72425 10.6963 8.45679C9.59994 9.18933 8.74546 10.2305 8.24087 11.4487C7.73629 12.6669 7.60426 14.0073 7.8615 15.3005C8.11873 16.5937 8.75367 17.7816 9.68602 18.714C10.6184 19.6463 11.8063 20.2813 13.0995 20.5385C14.3927 20.7957 15.7331 20.6637 16.9513 20.1591C18.1695 19.6545 19.2107 18.8 19.9432 17.7037C20.6757 16.6074 21.0667 15.3185 21.0667 13.9999C21.0648 12.2324 20.3618 10.5379 19.1119 9.28804C17.8621 8.03823 16.1676 7.33522 14.4001 7.33325ZM14.4001 19.3333C13.3452 19.3333 12.3141 19.0205 11.437 18.4344C10.56 17.8484 9.87638 17.0154 9.47271 16.0409C9.06904 15.0664 8.96343 13.994 9.16921 12.9594C9.375 11.9249 9.88295 10.9746 10.6288 10.2287C11.3747 9.4828 12.325 8.97485 13.3596 8.76906C14.3942 8.56328 15.4665 8.66889 16.441 9.07256C17.4156 9.47623 18.2485 10.1598 18.8346 11.0369C19.4206 11.9139 19.7334 12.9451 19.7334 13.9999C19.7318 15.4139 19.1694 16.7695 18.1695 17.7694C17.1697 18.7692 15.8141 19.3316 14.4001 19.3333Z" fill="#03101C"/>
</svg>
