<svg width="24" height="25" viewBox="0 0 24 25" fill="none" xmlns="http://www.w3.org/2000/svg">
<path opacity="0.3" d="M20.8574 22.1494H18.3574C18.0813 22.1494 17.8574 21.9256 17.8574 21.6494V5.82944C17.8574 5.69613 17.9107 5.56834 18.0053 5.47446L20.5053 2.99465C20.8209 2.68164 21.3574 2.90516 21.3574 3.34963V21.6494C21.3574 21.9256 21.1336 22.1494 20.8574 22.1494Z" fill="white" fill-opacity="0.4"/>
<path opacity="0.3" d="M15.3574 22.1494H12.8574C12.5813 22.1494 12.3574 21.9255 12.3574 21.6494V11.3281C12.3574 11.1955 12.4101 11.0683 12.5039 10.9745L15.0039 8.47459C15.3189 8.15962 15.8574 8.3827 15.8574 8.82815V21.6494C15.8574 21.9255 15.6336 22.1494 15.3574 22.1494Z" fill="white" fill-opacity="0.4"/>
<path opacity="0.3" d="M9.85742 22.1495H7.35742C7.08128 22.1495 6.85742 21.9256 6.85742 21.6495V16.8281C6.85742 16.6955 6.9101 16.5683 7.00387 16.4745L9.50387 13.9746C9.81886 13.6596 10.3574 13.8827 10.3574 14.3282V21.6495C10.3574 21.9256 10.1336 22.1495 9.85742 22.1495Z" fill="white" fill-opacity="0.4"/>
<path d="M4.35743 22.1494H2.55764C2.11317 22.1494 1.88964 21.6129 2.20266 21.2973L4.00244 19.4829C4.31683 19.1659 4.85743 19.3886 4.85743 19.835V21.6494C4.85743 21.9256 4.63357 22.1494 4.35743 22.1494Z" fill="white"/>
</svg>
