<svg width="25" height="24" viewBox="0 0 25 24" fill="none" xmlns="http://www.w3.org/2000/svg">
<path d="M15.364 16.9572C15.5483 16.774 15.6518 16.5261 15.6518 16.2677C15.6518 16.0094 15.5483 15.7615 15.364 15.5783L11.86 12.0675L15.364 8.60565C15.5483 8.42243 15.6518 8.17457 15.6518 7.91621C15.6518 7.65786 15.5483 7.41 15.364 7.22677C15.272 7.13511 15.1625 7.06236 15.0419 7.01271C14.9212 6.96306 14.7919 6.9375 14.6612 6.9375C14.5305 6.9375 14.4012 6.96306 14.2805 7.01271C14.1599 7.06236 14.0504 7.13511 13.9584 7.22677L9.76154 11.3732C9.66876 11.4641 9.59513 11.5723 9.54488 11.6914C9.49462 11.8106 9.46875 11.9384 9.46875 12.0675C9.46875 12.1966 9.49462 12.3245 9.54487 12.4436C9.59513 12.5628 9.66876 12.671 9.76154 12.7619L13.9584 16.9572C14.0504 17.0488 14.1599 17.1216 14.2805 17.1712C14.4012 17.2209 14.5305 17.2465 14.6612 17.2465C14.7919 17.2465 14.9212 17.2209 15.0419 17.1712C15.1625 17.1216 15.272 17.0488 15.364 16.9572Z" fill="white" fill-opacity="0.6"/>
</svg>
