<svg width="24" height="24" viewBox="0 0 24 24" fill="none" xmlns="http://www.w3.org/2000/svg">
<path d="M4.42603 19.8644V17.1118C4.42603 16.5547 4.56955 16.0425 4.85661 15.5753C5.14301 15.1086 5.52379 14.7524 5.99894 14.5067C7.01478 13.9987 7.65876 13.6176 8.70737 13.3633C9.75598 13.1097 10.821 12.9829 11.9023 12.9829C12.9837 12.9829 14.0487 13.1097 15.0973 13.3633C16.1459 13.6176 16.9852 13.9987 18.001 14.5067C18.4762 14.7524 18.8569 15.1086 19.1433 15.5753C19.4304 16.0425 19.5739 16.5547 19.5739 17.1118V19.8644H4.42603ZM11.9023 11.9998C10.821 11.9998 9.89525 11.6148 9.12518 10.8447C8.35511 10.0746 7.97007 9.14892 7.97007 8.06754C7.97007 6.98616 8.35511 6.06044 9.12518 5.29036C9.89525 4.52029 10.821 4.13525 11.9023 4.13525C12.9837 4.13525 13.9094 4.52029 14.6795 5.29036C15.4496 6.06044 15.8346 6.98616 15.8346 8.06754C15.8346 9.14892 15.4496 10.0746 14.6795 10.8447C13.9094 11.6148 12.9837 11.9998 11.9023 11.9998ZM6.39217 17.8983H17.6078V17.1118C17.6078 16.9316 17.5629 16.7677 17.4731 16.6203C17.3827 16.4728 17.2637 16.3581 17.1163 16.2762C16.2315 15.8338 15.5315 15.5019 14.6303 15.2803C13.7292 15.0595 12.8198 14.949 11.9023 14.949C10.9848 14.949 10.0755 15.0595 9.17433 15.2803C8.27318 15.5019 7.76847 15.8338 6.8837 16.2762C6.73624 16.3581 6.61762 16.4728 6.52783 16.6203C6.43739 16.7677 6.39217 16.9316 6.39217 17.1118V17.8983ZM11.9023 10.0337C12.443 10.0337 12.906 9.841 13.2914 9.45563C13.6761 9.07093 13.8684 8.60823 13.8684 8.06754C13.8684 7.52685 13.6761 7.06415 13.2914 6.67944C12.906 6.29408 12.443 6.1014 11.9023 6.1014C11.3617 6.1014 10.899 6.29408 10.5143 6.67944C10.1289 7.06415 9.93621 7.52685 9.93621 8.06754C9.93621 8.60823 10.1289 9.07093 10.5143 9.45563C10.899 9.841 11.3617 10.0337 11.9023 10.0337Z" fill="#68717A"/>
</svg>
