<svg width="69" height="24" viewBox="0 0 69 24" fill="none" xmlns="http://www.w3.org/2000/svg">
<rect width="69" height="24" rx="12" fill="url(#paint0_linear_5563_17158)"/>
<path d="M13.6576 14.14C14.4256 13.476 15.0296 12.932 15.4696 12.508C15.9176 12.076 16.2896 11.628 16.5856 11.164C16.8816 10.7 17.0296 10.236 17.0296 9.772C17.0296 9.292 16.9136 8.916 16.6816 8.644C16.4576 8.372 16.1016 8.236 15.6136 8.236C15.1416 8.236 14.7736 8.388 14.5096 8.692C14.2536 8.988 14.1176 9.388 14.1016 9.892H12.7816C12.8056 8.98 13.0776 8.284 13.5976 7.804C14.1256 7.316 14.7936 7.072 15.6016 7.072C16.4736 7.072 17.1536 7.312 17.6416 7.792C18.1376 8.272 18.3856 8.912 18.3856 9.712C18.3856 10.288 18.2376 10.844 17.9416 11.38C17.6536 11.908 17.3056 12.384 16.8976 12.808C16.4976 13.224 15.9856 13.708 15.3616 14.26L14.8216 14.74H18.6256V15.88H12.7936V14.884L13.6576 14.14ZM19.8274 11.512C19.8274 10.128 20.0594 9.048 20.5234 8.272C20.9954 7.488 21.8034 7.096 22.9474 7.096C24.0914 7.096 24.8954 7.488 25.3594 8.272C25.8314 9.048 26.0674 10.128 26.0674 11.512C26.0674 12.912 25.8314 14.008 25.3594 14.8C24.8954 15.584 24.0914 15.976 22.9474 15.976C21.8034 15.976 20.9954 15.584 20.5234 14.8C20.0594 14.008 19.8274 12.912 19.8274 11.512ZM24.7234 11.512C24.7234 10.864 24.6794 10.316 24.5914 9.868C24.5114 9.42 24.3434 9.056 24.0874 8.776C23.8314 8.488 23.4514 8.344 22.9474 8.344C22.4434 8.344 22.0634 8.488 21.8074 8.776C21.5514 9.056 21.3794 9.42 21.2914 9.868C21.2114 10.316 21.1714 10.864 21.1714 11.512C21.1714 12.184 21.2114 12.748 21.2914 13.204C21.3714 13.66 21.5394 14.028 21.7954 14.308C22.0594 14.588 22.4434 14.728 22.9474 14.728C23.4514 14.728 23.8314 14.588 24.0874 14.308C24.3514 14.028 24.5234 13.66 24.6034 13.204C24.6834 12.748 24.7234 12.184 24.7234 11.512ZM27.2989 9.364C27.2989 8.78 27.4669 8.324 27.8029 7.996C28.1469 7.66 28.5869 7.492 29.1229 7.492C29.6589 7.492 30.0949 7.66 30.4309 7.996C30.7749 8.324 30.9469 8.78 30.9469 9.364C30.9469 9.948 30.7749 10.408 30.4309 10.744C30.0949 11.08 29.6589 11.248 29.1229 11.248C28.5869 11.248 28.1469 11.08 27.8029 10.744C27.4669 10.408 27.2989 9.948 27.2989 9.364ZM34.6189 7.648L29.8309 16H28.4869L33.2749 7.648H34.6189ZM29.1229 8.32C28.6189 8.32 28.3669 8.668 28.3669 9.364C28.3669 10.068 28.6189 10.42 29.1229 10.42C29.3629 10.42 29.5469 10.336 29.6749 10.168C29.8109 9.992 29.8789 9.724 29.8789 9.364C29.8789 8.668 29.6269 8.32 29.1229 8.32ZM32.1829 14.272C32.1829 13.688 32.3509 13.232 32.6869 12.904C33.0309 12.568 33.4709 12.4 34.0069 12.4C34.5349 12.4 34.9669 12.568 35.3029 12.904C35.6469 13.232 35.8189 13.688 35.8189 14.272C35.8189 14.856 35.6469 15.316 35.3029 15.652C34.9669 15.988 34.5349 16.156 34.0069 16.156C33.4709 16.156 33.0309 15.988 32.6869 15.652C32.3509 15.316 32.1829 14.856 32.1829 14.272ZM33.9949 13.228C33.4909 13.228 33.2389 13.576 33.2389 14.272C33.2389 14.968 33.4909 15.316 33.9949 15.316C34.4989 15.316 34.7509 14.968 34.7509 14.272C34.7509 13.576 34.4989 13.228 33.9949 13.228ZM44.1435 16.084C43.3675 16.084 42.6515 15.904 41.9955 15.544C41.3475 15.176 40.8315 14.668 40.4475 14.02C40.0715 13.364 39.8835 12.628 39.8835 11.812C39.8835 10.996 40.0715 10.264 40.4475 9.616C40.8315 8.968 41.3475 8.464 41.9955 8.104C42.6515 7.736 43.3675 7.552 44.1435 7.552C44.9275 7.552 45.6435 7.736 46.2915 8.104C46.9475 8.464 47.4635 8.968 47.8395 9.616C48.2155 10.264 48.4035 10.996 48.4035 11.812C48.4035 12.628 48.2155 13.364 47.8395 14.02C47.4635 14.668 46.9475 15.176 46.2915 15.544C45.6435 15.904 44.9275 16.084 44.1435 16.084ZM44.1435 14.896C44.6955 14.896 45.1875 14.772 45.6195 14.524C46.0515 14.268 46.3875 13.908 46.6275 13.444C46.8755 12.972 46.9995 12.428 46.9995 11.812C46.9995 11.196 46.8755 10.656 46.6275 10.192C46.3875 9.728 46.0515 9.372 45.6195 9.124C45.1875 8.876 44.6955 8.752 44.1435 8.752C43.5915 8.752 43.0995 8.876 42.6675 9.124C42.2355 9.372 41.8955 9.728 41.6475 10.192C41.4075 10.656 41.2875 11.196 41.2875 11.812C41.2875 12.428 41.4075 12.972 41.6475 13.444C41.8955 13.908 42.2355 14.268 42.6675 14.524C43.0995 14.772 43.5915 14.896 44.1435 14.896ZM52.5216 10.504H51.2976V16H49.9176V10.504H49.1376V9.388H49.9176V8.92C49.9176 8.16 50.1176 7.608 50.5176 7.264C50.9256 6.912 51.5616 6.736 52.4256 6.736V7.876C52.0096 7.876 51.7176 7.956 51.5496 8.116C51.3816 8.268 51.2976 8.536 51.2976 8.92V9.388H52.5216V10.504ZM56.506 10.504H55.282V16H53.902V10.504H53.122V9.388H53.902V8.92C53.902 8.16 54.102 7.608 54.502 7.264C54.91 6.912 55.546 6.736 56.41 6.736V7.876C55.994 7.876 55.702 7.956 55.534 8.116C55.366 8.268 55.282 8.536 55.282 8.92V9.388H56.506V10.504Z" fill="white"/>
<defs>
<linearGradient id="paint0_linear_5563_17158" x1="-60.5" y1="46.5" x2="116.103" y2="10.6156" gradientUnits="userSpaceOnUse">
<stop stop-color="#FF00C7"/>
<stop offset="1" stop-color="#00A3FF"/>
</linearGradient>
</defs>
</svg>
