<svg width="10" height="10" viewBox="0 0 10 10" xmlns="http://www.w3.org/2000/svg">
<path d="M3.33708 2.70835C3.33708 2.37872 3.43483 2.05649 3.61797 1.7824C3.8011 1.50832 4.0614 1.2947 4.36594 1.16856C4.67049 1.04241 5.0056 1.0094 5.3289 1.07371C5.6522 1.13802 5.94917 1.29676 6.18226 1.52984C6.41535 1.76293 6.57408 2.0599 6.63839 2.3832C6.7027 2.70651 6.6697 3.04162 6.54355 3.34616C6.4174 3.6507 6.20378 3.911 5.9297 4.09414C5.65562 4.27727 5.33339 4.37502 5.00375 4.37502C4.56172 4.37502 4.1378 4.19943 3.82524 3.88687C3.51268 3.57431 3.33708 3.15038 3.33708 2.70835ZM5.83333 5.20835H4.16667C2.475 5.20835 1.875 6.4471 1.875 7.50794C1.875 8.45835 2.37958 8.95835 3.33333 8.95835H6.66667C7.62167 8.95835 8.125 8.45835 8.125 7.50794C8.125 6.4471 7.525 5.20835 5.83333 5.20835Z" stroke="none" />
</svg>
