<svg width="12" height="12" viewBox="0 0 12 12" fill="none" xmlns="http://www.w3.org/2000/svg">
<rect width="12" height="12" rx="6" fill="#00A3FF" fill-opacity="0.1"/>
<path d="M5.91688 4.58603V3.66403C5.91655 3.54825 5.88157 3.43523 5.81646 3.3395C5.75135 3.24376 5.65907 3.16971 5.55151 3.12687C5.44396 3.08402 5.32604 3.07435 5.21294 3.09909C5.09983 3.12383 4.99672 3.18186 4.91688 3.2657L2.93955 5.35536C2.81812 5.48404 2.75049 5.65427 2.75049 5.8312C2.75049 6.00812 2.81812 6.17835 2.93955 6.30703L4.91555 8.39703C4.99537 8.48085 5.09845 8.53886 5.21152 8.56362C5.32459 8.58837 5.44248 8.57872 5.55003 8.53592C5.65757 8.49312 5.74985 8.41912 5.81499 8.32344C5.88013 8.22776 5.91515 8.11478 5.91555 7.99903V7.08336C6.88721 7.10736 7.53188 7.2737 7.83321 7.57903C7.93841 7.70722 8.01578 7.85589 8.06043 8.01559C8.10507 8.17529 8.11601 8.34254 8.09255 8.5067C8.09067 8.5968 8.11927 8.6849 8.17372 8.75671C8.22817 8.82853 8.30528 8.87985 8.39255 8.90236C8.4284 8.91212 8.46539 8.91705 8.50255 8.91703C8.57468 8.91701 8.64549 8.89767 8.70762 8.86104C8.76975 8.8244 8.82095 8.7718 8.85588 8.7087C9.11718 8.23585 9.25294 7.70393 9.25021 7.1637C9.25021 5.56003 8.06921 4.65036 5.91688 4.58603ZM8.57988 8.1217C8.56 7.78694 8.42191 7.47012 8.19021 7.2277C7.75455 6.78603 6.95255 6.58036 5.66688 6.58036C5.60058 6.58036 5.53699 6.6067 5.4901 6.65359C5.44322 6.70047 5.41688 6.76406 5.41688 6.83036V8.00003C5.41673 8.01596 5.41182 8.03148 5.40279 8.04461C5.39376 8.05774 5.38102 8.06787 5.36619 8.0737C5.35137 8.07954 5.33514 8.08082 5.31958 8.07737C5.30402 8.07393 5.28985 8.06591 5.27888 8.05436L3.30288 5.96436C3.269 5.92863 3.25012 5.88127 3.25012 5.83203C3.25012 5.78279 3.269 5.73543 3.30288 5.6997L5.27888 3.60936C5.28956 3.59716 5.30384 3.58868 5.31967 3.58515C5.33549 3.58161 5.35202 3.5832 5.36688 3.5897C5.38211 3.59495 5.39521 3.605 5.40423 3.61835C5.41325 3.6317 5.41769 3.64761 5.41688 3.6637V4.83336C5.41688 4.89967 5.44322 4.96326 5.4901 5.01014C5.53699 5.05702 5.60058 5.08336 5.66688 5.08336C7.07355 5.08336 8.75021 5.44436 8.75021 7.1647C8.75059 7.49127 8.69292 7.81531 8.57988 8.1217Z" fill="#00A3FF"/>
</svg>
