<svg width="12" height="12" viewBox="0 0 12 12" fill="none" xmlns="http://www.w3.org/2000/svg">
<rect width="12" height="12" rx="6" fill="#00FFA3" fill-opacity="0.1"/>
<g clip-path="url(#clip0_14730_5452)">
<path d="M9.16664 6.00001V7.00001C9.16664 7.30943 9.04372 7.60617 8.82493 7.82497C8.60614 8.04376 8.30939 8.16667 7.99997 8.16667H3.40231L4.11797 8.88201C4.14927 8.9133 4.16685 8.95575 4.16685 9.00001C4.16685 9.04427 4.14927 9.08671 4.11797 9.11801C4.08668 9.1493 4.04423 9.16688 3.99997 9.16688C3.95571 9.16688 3.91327 9.1493 3.88197 9.11801L2.88197 8.11801C2.86645 8.10252 2.85414 8.08413 2.84573 8.06388C2.83733 8.04364 2.83301 8.02193 2.83301 8.00001C2.83301 7.97808 2.83733 7.95638 2.84573 7.93613C2.85414 7.91588 2.86645 7.89749 2.88197 7.88201L3.88197 6.88201C3.89747 6.86651 3.91586 6.85422 3.93611 6.84583C3.95636 6.83745 3.97806 6.83313 3.99997 6.83313C4.02189 6.83313 4.04359 6.83745 4.06383 6.84583C4.08408 6.85422 4.10248 6.86651 4.11797 6.88201C4.13347 6.8975 4.14576 6.9159 4.15415 6.93615C4.16253 6.95639 4.16685 6.97809 4.16685 7.00001C4.16685 7.02192 4.16253 7.04362 4.15415 7.06387C4.14576 7.08411 4.13347 7.10251 4.11797 7.11801L3.40231 7.83334H7.99997C8.10941 7.83334 8.21777 7.81179 8.31888 7.76991C8.41998 7.72803 8.51185 7.66664 8.58923 7.58926C8.66661 7.51188 8.72799 7.42001 8.76987 7.31891C8.81175 7.2178 8.83331 7.10944 8.83331 7.00001V6.00001C8.83331 5.9558 8.85086 5.91341 8.88212 5.88216C8.91338 5.8509 8.95577 5.83334 8.99997 5.83334C9.04418 5.83334 9.08657 5.8509 9.11782 5.88216C9.14908 5.91341 9.16664 5.9558 9.16664 6.00001ZM2.99997 6.16667C3.04418 6.16667 3.08657 6.14911 3.11782 6.11786C3.14908 6.0866 3.16664 6.04421 3.16664 6.00001V5.00001C3.16664 4.77899 3.25444 4.56703 3.41072 4.41075C3.567 4.25447 3.77896 4.16667 3.99997 4.16667H8.59764L7.88197 4.88201C7.85068 4.9133 7.8331 4.95575 7.8331 5.00001C7.8331 5.04427 7.85068 5.08671 7.88197 5.11801C7.91327 5.1493 7.95571 5.16688 7.99997 5.16688C8.04423 5.16688 8.08668 5.1493 8.11797 5.11801L9.11797 4.11801C9.13349 4.10253 9.14581 4.08413 9.15421 4.06388C9.16261 4.04364 9.16694 4.02193 9.16694 4.00001C9.16694 3.97808 9.16261 3.95638 9.15421 3.93613C9.14581 3.91588 9.13349 3.89749 9.11797 3.88201L8.11797 2.88201C8.08668 2.85071 8.04423 2.83313 7.99997 2.83313C7.95571 2.83313 7.91327 2.85071 7.88197 2.88201C7.85068 2.9133 7.8331 2.95575 7.8331 3.00001C7.8331 3.04427 7.85068 3.08671 7.88197 3.11801L8.59764 3.83334H3.99997C3.69055 3.83334 3.39381 3.95626 3.17501 4.17505C2.95622 4.39384 2.83331 4.69059 2.83331 5.00001V6.00001C2.83331 6.04421 2.85087 6.0866 2.88212 6.11786C2.91338 6.14911 2.95577 6.16667 2.99997 6.16667Z" fill="#00FFA3"/>
</g>
<defs>
<clipPath id="clip0_14730_5452">
<rect width="8" height="8" fill="white" transform="translate(2 2)"/>
</clipPath>
</defs>
</svg>
