<svg width="16" height="16" viewBox="0 0 16 16" fill="none" xmlns="http://www.w3.org/2000/svg">
<g id="Thunder, Lightning, Fast 1" clip-path="url(#clip0_10254_32454)">
<g id="Group">
<path id="Vector" d="M10.9093 3.75747V6.87081H13.566C13.6434 6.86904 13.7198 6.88857 13.7868 6.92726C13.8539 6.96595 13.9091 7.02231 13.9463 7.09021C13.9835 7.1581 14.0013 7.23491 13.9979 7.31226C13.9944 7.3896 13.9698 7.46451 13.9266 7.52881L10.5493 12.4775C10.4974 12.5534 10.4228 12.6108 10.3362 12.6417C10.2496 12.6725 10.1554 12.675 10.0672 12.6489C9.97906 12.6229 9.90144 12.5695 9.84552 12.4965C9.78959 12.4235 9.75824 12.3347 9.75598 12.2428V9.12747H7.10065C7.02325 9.12924 6.94685 9.10972 6.87978 9.07103C6.81272 9.03234 6.75758 8.97597 6.72036 8.90808C6.68315 8.84018 6.6653 8.76337 6.66876 8.68603C6.67222 8.60868 6.69686 8.53377 6.73998 8.46947L10.116 3.52281C10.1679 3.44692 10.2425 3.38943 10.3291 3.35863C10.4158 3.32782 10.5099 3.32527 10.5981 3.35135C10.6862 3.37743 10.7639 3.43079 10.8198 3.50376C10.8757 3.57674 10.9071 3.66556 10.9093 3.75747Z" stroke="white" stroke-linecap="round" stroke-linejoin="round"/>
<path id="Vector_2" d="M6 12H2.5" stroke="white" stroke-linecap="round" stroke-linejoin="round"/>
<path id="Vector_3" d="M4.25004 8.3335H1.33337" stroke="white" stroke-linecap="round" stroke-linejoin="round"/>
<path id="Vector_4" d="M6 4.6665H2.5" stroke="white" stroke-linecap="round" stroke-linejoin="round"/>
</g>
</g>
<defs>
<clipPath id="clip0_10254_32454">
<rect width="16" height="16" fill="white"/>
</clipPath>
</defs>
</svg>
