<svg width="20" height="20" viewBox="0 0 20 20" fill="none" xmlns="http://www.w3.org/2000/svg">
<g id="icon/Notification">
<path id="Vector" fill-rule="evenodd" clip-rule="evenodd" d="M4.5315 7.97203C4.5315 4.9494 6.98172 2.5 10.0035 2.5C13.0253 2.5 15.4756 4.9494 15.4756 7.97203L15.4764 9.07067C15.4764 9.72092 15.6191 10.3622 15.8963 10.9501L16.2847 11.7754C16.8782 13.037 15.958 14.4876 14.5634 14.4876H5.44364C4.04908 14.4876 3.12883 13.037 3.72233 11.7754L4.1107 10.9501C4.38718 10.3622 4.53069 9.72092 4.53069 9.07067L4.5315 7.97203Z" stroke="black" stroke-width="1.5" stroke-linecap="round" stroke-linejoin="round"/>
<path id="Vector_2" d="M7.41406 14.9141C7.41406 16.3402 8.57024 17.4972 9.9964 17.4972C11.4234 17.4972 12.5796 16.3402 12.5796 14.9141" stroke="black" stroke-width="1.5" stroke-linecap="round" stroke-linejoin="round"/>
</g>
</svg>
