<svg width="26" height="26" viewBox="0 0 26 26" fill="none"
    xmlns="http://www.w3.org/2000/svg">
    <path d="M6.5 11.8334H10.8333" stroke="currentColor" stroke-width="1.5" stroke-linecap="round" stroke-linejoin="round"/>
    <path d="M22.5691 12.9166H19.7503C17.8165 12.9166 16.25 14.3715 16.25 16.1666C16.25 17.9617 17.8176 19.4166 19.7492 19.4166H22.5691C22.6601 19.4166 22.7045 19.4166 22.7424 19.4145C23.3274 19.3787 23.7932 18.9465 23.8312 18.4037C23.8333 18.369 23.8333 18.3268 23.8333 18.2434V14.0899C23.8333 14.0065 23.8333 13.9642 23.8312 13.9295C23.7922 13.3868 23.3274 12.9545 22.7424 12.9188C22.7056 12.9166 22.6601 12.9166 22.5691 12.9166Z" stroke="currentColor" stroke-width="1.5"/>
    <path d="M22.7114 12.9167C22.6269 10.8887 22.3561 9.645 21.4797 8.76967C20.2111 7.5 19.5846 7.5 15.4994 7.5M22.7114 19.4167C22.628 21.4447 22.3561 22.6883 21.4797 23.5637C20.2111 24.8333 19.5846 24.8333 15.4994 24.8333H9.49939C5.41414 24.8333 4.70427 24.8333 3.43568 23.5637C2.16602 22.2951 2.16602 20.2519 2.16602 16.1667C2.16602 12.0814 2.16602 10.0383 3.43568 8.76967C4.53043 7.67398 5.2091 7.52384 8 7.50327" stroke="currentColor" stroke-width="1.5" stroke-linecap="round" stroke-linejoin="round"/>
    <path d="M19.4902 16.1666H19.5002" stroke="currentColor" stroke-width="2" stroke-linecap="round" stroke-linejoin="round"/>
    <path d="M11.3415 5.65095C11.501 5.8351 11.7867 5.8351 11.9462 5.65095L14.7139 2.45562C14.8822 2.26133 14.7441 1.9592 14.4871 1.9592H13.6938C13.5282 1.9592 13.3938 1.82489 13.3938 1.6592L13.3938 0.400018C13.3938 0.179104 13.2148 1.81198e-05 12.9938 1.81198e-05H10.2938C10.0729 1.81198e-05 9.89384 0.179104 9.89384 0.400018L9.89384 1.6592C9.89384 1.82489 9.75953 1.9592 9.59384 1.9592H8.80058C8.54355 1.9592 8.40553 2.26133 8.57382 2.45562L11.3415 5.65095Z" fill="currentColor"/>
</svg>
