<svg width="24" height="24" viewBox="0 0 24 24" fill="none" xmlns="http://www.w3.org/2000/svg">
  <g clip-path="url(#clip0_5875_28136)">
    <path fill-rule="evenodd" clip-rule="evenodd" d="M12 22C6.47667 22 2 17.5233 2 12C2 6.47667 6.47667 2 12 2C17.5233 2 22 6.47667 22 12C22 17.5233 17.5233 22 12 22ZM9.25 9.83301C9.25 8.31379 10.4808 7.08301 12 7.08301C13.5192 7.08301 14.75 8.31379 14.75 9.83301C14.75 11.0272 13.9717 11.6569 13.4302 12.0219L13.4293 12.0225C12.9717 12.33 12.75 12.5773 12.75 13V13.25C12.75 13.6642 12.4142 14 12 14C11.5858 14 11.25 13.6642 11.25 13.25V13C11.25 11.7891 12.0379 11.1504 12.5922 10.7778C13.0384 10.477 13.25 10.2387 13.25 9.83301C13.25 9.14222 12.6908 8.58301 12 8.58301C11.3092 8.58301 10.75 9.14222 10.75 9.83301C10.75 10.2472 10.4142 10.583 10 10.583C9.58579 10.583 9.25 10.2472 9.25 9.83301ZM12 17C12.4142 17 12.75 16.6642 12.75 16.25C12.75 15.8358 12.4142 15.5 12 15.5C11.5858 15.5 11.25 15.8358 11.25 16.25C11.25 16.6642 11.5858 17 12 17Z" fill="white" fill-opacity="0.96"/>
  </g>
  <defs>
    <clipPath id="clip0_5875_28136">
      <rect width="24" height="24" fill="white"/>
    </clipPath>
  </defs>
</svg>
