<svg width="21" height="20" viewBox="0 0 21 20" fill="none" xmlns="http://www.w3.org/2000/svg">
<path id="Vector" d="M3.20075 1.47545H18.3388C19.2968 1.47545 20.0734 2.25205 20.0734 3.21002V5.73304C20.0734 6.69101 19.2968 7.46761 18.3388 7.46761H3.20075C2.24277 7.46761 1.46618 6.69101 1.46618 5.73304V3.21002C1.46618 2.25205 2.24277 1.47545 3.20075 1.47545ZM3.20075 12.829H18.3388C19.2968 12.829 20.0734 13.6056 20.0734 14.5636V17.0866C20.0734 18.0446 19.2968 18.8212 18.3388 18.8212H3.20075C2.24277 18.8212 1.46618 18.0446 1.46618 17.0866V14.5636C1.46618 13.6056 2.24277 12.829 3.20075 12.829Z" stroke="white" stroke-width="1.57688" stroke-linecap="round" stroke-linejoin="round"/>
</svg>
