<svg xmlns="http://www.w3.org/2000/svg" width="16" height="16" viewBox="0 0 16 16" fill="none">
  <path d="M11 8C12.6569 8 14 6.65685 14 5C14 3.34315 12.6569 2 11 2C9.34315 2 8 3.34315 8 5C8 6.65685 9.34315 8 11 8Z" stroke="white"/>
  <path d="M4.83341 11.0001C6.03003 11.0001 7.00008 10.03 7.00008 8.83341C7.00008 7.6368 6.03003 6.66675 4.83341 6.66675C3.6368 6.66675 2.66675 7.6368 2.66675 8.83341C2.66675 10.03 3.6368 11.0001 4.83341 11.0001Z" stroke="white"/>
  <path d="M11.1668 13.6667C12.1794 13.6667 13.0002 12.8459 13.0002 11.8333C13.0002 10.8208 12.1794 10 11.1668 10C10.1543 10 9.3335 10.8208 9.3335 11.8333C9.3335 12.8459 10.1543 13.6667 11.1668 13.6667Z" stroke="white"/>
</svg>
