<svg width="24" height="25" viewBox="0 0 24 25" fill="none" xmlns="http://www.w3.org/2000/svg">
<rect y="0.5" width="24" height="24" rx="12" fill="#50AF95"/>
<path fill-rule="evenodd" clip-rule="evenodd" d="M13.3094 12.945C13.2363 12.9505 12.8583 12.9731 12.0152 12.9731C11.3447 12.9731 10.8686 12.9529 10.7015 12.945C8.11007 12.831 6.17577 12.3799 6.17577 11.8398C6.17577 11.2997 8.11007 10.8492 10.7015 10.7333V12.4957C10.871 12.5079 11.3562 12.5366 12.0268 12.5366C12.8315 12.5366 13.2345 12.5031 13.307 12.4963V10.7346C15.893 10.8498 17.823 11.3009 17.823 11.8398C17.823 12.3787 15.8936 12.8298 13.307 12.9444L13.3094 12.945ZM13.3094 10.5523V8.97523H16.9183V6.57031H7.09262V8.97523H10.7009V10.5517C7.76807 10.6864 5.5625 11.2674 5.5625 11.9635C5.5625 12.6597 7.76807 13.2401 10.7009 13.3754V18.4291H13.3088V13.3736C16.235 13.2389 18.4369 12.6585 18.4369 11.9629C18.4369 11.2674 16.2368 10.687 13.3088 10.5517L13.3094 10.5523Z" fill="white"/>
</svg>
