<svg width="16" height="16" viewBox="0 0 16 16" fill="none" xmlns="http://www.w3.org/2000/svg">
<g id="eye 1">
<g id="Group">
<path id="1715783897697-3588823_eye" d="M9.83338 8.00016C9.83523 8.27039 9.77732 8.53768 9.66379 8.78291C9.55027 9.02814 9.38393 9.24524 9.1767 9.41867C8.96946 9.5921 8.72645 9.71757 8.46505 9.7861C8.20365 9.85464 7.93034 9.86454 7.66467 9.8151C7.399 9.76566 7.14754 9.6581 6.9283 9.50012C6.70906 9.34214 6.52745 9.13764 6.39648 8.90127C6.26551 8.6649 6.18841 8.4025 6.1707 8.13285C6.15299 7.8632 6.19511 7.59297 6.29405 7.3415C6.42409 7.45062 6.58765 7.51181 6.75738 7.51483C6.95819 7.51465 7.15071 7.43481 7.2927 7.29282C7.43469 7.15083 7.51454 6.9583 7.51472 6.7575C7.51169 6.58776 7.45051 6.42421 7.34138 6.29416C7.61863 6.1847 7.91849 6.1449 8.2147 6.17825C8.5109 6.2116 8.79441 6.31709 9.04037 6.48548C9.28633 6.65386 9.48724 6.87999 9.62549 7.14407C9.76375 7.40814 9.83513 7.70209 9.83338 8.00016ZM13.728 8.98483C12.91 10.3542 11.0734 12.6668 8.00005 12.6668C4.92672 12.6668 3.09005 10.3542 2.27205 8.98483C2.09402 8.68724 2 8.34694 2 8.00016C2 7.65338 2.09402 7.31309 2.27205 7.0155C3.09005 5.64616 4.92672 3.3335 8.00005 3.3335C11.0734 3.3335 12.91 5.64616 13.728 7.0155C13.9061 7.31309 14.0001 7.65338 14.0001 8.00016C14.0001 8.34694 13.9061 8.68724 13.728 8.98483ZM10.8334 8.00016C10.8334 7.43978 10.6672 6.89199 10.3559 6.42605C10.0445 5.96011 9.60204 5.59695 9.08432 5.3825C8.5666 5.16806 7.99691 5.11195 7.44729 5.22127C6.89768 5.3306 6.39283 5.60044 5.99658 5.99669C5.60033 6.39294 5.33048 6.89779 5.22116 7.44741C5.11183 7.99702 5.16794 8.56671 5.38239 9.08443C5.59684 9.60216 5.95999 10.0447 6.42593 10.356C6.89187 10.6673 7.43967 10.8335 8.00005 10.8335C8.75122 10.8326 9.47138 10.5338 10.0025 10.0027C10.5337 9.4715 10.8325 8.75134 10.8334 8.00016Z" fill="white" fill-opacity="0.7"/>
</g>
</g>
</svg>
