<svg xmlns="http://www.w3.org/2000/svg" width="70" height="16" viewBox="0 0 70 16" fill="none">
  <g clip-path="url(#clip0_5489_23174)">
    <path d="M12.2319 1.29919C11.1782 0.429654 9.73577 0 7.89439 0H3.31141V0.64448H7.81255C9.37772 0.64448 10.7894 0.961606 11.659 1.71862C12.5285 2.47563 13.173 3.58045 13.173 4.95125C13.173 6.28114 12.6001 7.25297 11.7101 7.99975C10.8201 8.74653 9.20381 9.07389 7.59772 9.07389H2.43164V9.71837H7.63864C9.57209 9.71837 11.0861 9.29895 12.1807 8.4601C13.2651 7.62125 13.8175 6.43459 13.8175 4.91034C13.8175 3.3554 13.2855 2.1585 12.2319 1.29919Z" fill="white"/>
    <path d="M11.8433 2.22054C11.1885 1.71928 10.4418 1.32031 8.31395 1.32031H4.77441V1.94433C4.77441 1.94433 6.36004 1.92388 8.23211 1.94433C10.0428 1.96479 10.7077 2.16939 11.3215 2.61951C12.099 3.19238 12.59 3.90847 12.59 4.90077C12.59 5.86237 12.099 6.53755 11.3113 7.12065C10.5134 7.71398 9.28578 7.71398 8.78452 7.73444C8.60038 7.73444 6.15545 7.73444 6.15545 7.73444V8.35846C6.15545 8.35846 7.36257 8.37892 8.11958 8.35846C9.8382 8.31754 10.8612 8.21524 11.8126 7.50938C12.7026 6.84444 13.1731 5.9749 13.1731 4.87008C13.1731 3.41743 12.4366 2.69111 11.8433 2.22054Z" fill="white"/>
    <path d="M11.5264 3.0486C11.0354 2.74171 10.6057 2.53711 8.56997 2.53711H6.02273V2.9463H8.49836C10.2988 2.9463 10.974 3.26343 11.1888 3.39642C11.598 3.64194 12.13 4.05113 12.13 4.86952C12.13 5.39124 11.8231 6.05618 11.3627 6.31193C10.9433 6.54722 10.1761 6.76204 8.83595 6.76204H0.529297V7.17124H8.85641C10.483 7.17124 11.0354 6.9871 11.6082 6.66998C12.1811 6.35285 12.5698 5.69814 12.5698 4.86952C12.5698 3.92837 12.0481 3.37596 11.5264 3.0486Z" fill="white"/>
    <path d="M13.143 7.58044C12.0893 6.71091 10.6469 6.28125 8.80552 6.28125H5.73656V6.92573H8.71345C10.2786 6.92573 11.6903 7.25309 12.5599 7.99987C13.4294 8.74665 14.0841 9.8617 14.0841 11.2325C14.0841 12.5624 13.5215 13.5342 12.6213 14.281C11.721 15.0278 10.1149 15.3551 8.50886 15.3551H3.34277V15.9996H8.54977C10.4832 15.9996 11.9972 15.5802 13.0918 14.7414C14.1864 13.9025 14.7286 12.7158 14.7286 11.1916C14.7184 9.64688 14.1967 8.44998 13.143 7.58044Z" fill="white"/>
    <path d="M12.7534 8.50179C12.0986 8.01076 11.3519 7.60156 9.22405 7.60156H4.41602V8.22558C4.41602 8.22558 7.27015 8.20513 9.14221 8.22558C10.9529 8.24604 11.6178 8.45064 12.2316 8.90076C13.0091 9.47363 13.5001 10.1897 13.5001 11.182C13.5001 12.1436 13.0091 12.8188 12.2214 13.4019C11.4235 13.9952 10.1959 13.9952 9.69463 14.0157C9.51049 14.0157 7.06555 14.0157 7.06555 14.0157V14.6397C7.06555 14.6397 8.28291 14.6602 9.02969 14.6397C10.7483 14.5988 11.7713 14.4965 12.7227 13.7906C13.6127 13.1257 14.0832 12.2562 14.0832 11.1513C14.0832 9.70892 13.3569 8.97237 12.7534 8.50179Z" fill="white"/>
    <path d="M5.43945 10.6271H9.95082V10.2793H5.43945V10.6271Z" fill="white"/>
    <path d="M7.30078 11.8455H9.91963V11.5488H7.30078V11.8455Z" fill="white"/>
    <path d="M3.34277 10.6271H4.67266V10.2793H3.34277V10.6271Z" fill="white"/>
    <path d="M2.50293 11.8673H6.56419V11.5195H2.50293V11.8673Z" fill="white"/>
    <path d="M3.50586 2.91339H5.09149V2.62695H3.50586V2.91339Z" fill="white"/>
    <path d="M2.41113 5.24923H6.02228V4.92188H2.41113V5.24923Z" fill="white"/>
    <path d="M2.50293 14.5967H6.31867V14.1875H2.50293V14.5967Z" fill="white"/>
    <path d="M1.5625 15.9571H2.51388V15.3535H1.5625V15.9571Z" fill="white"/>
    <path d="M3.93555 4.22579H9.93025V3.89844H3.93555V4.22579Z" fill="white"/>
    <path d="M6.93262 5.24923H9.81744V4.92188H6.93262V5.24923Z" fill="white"/>
    <path d="M12.4366 9.38993C11.9455 9.09327 11.5159 8.88867 9.48013 8.88867H6.24749V9.28764H9.41875C11.2192 9.28764 11.9046 9.59453 12.1092 9.71729C12.5082 9.95258 13.0504 10.3413 13.0504 11.1392C13.0504 11.6507 12.7435 12.285 12.2831 12.5305C11.8637 12.7556 11.0964 12.9602 9.75633 12.9602H1.43945V13.3591H9.76656C11.3931 13.3591 11.9455 13.1852 12.5184 12.8783C13.0913 12.5714 13.4698 11.9474 13.4698 11.1392C13.48 10.2492 12.9583 9.71729 12.4366 9.38993Z" fill="white"/>
    <path d="M20.9682 8.49995V12.152H22.963C23.8224 12.152 24.4975 11.9883 24.9681 11.661C25.4284 11.3643 25.6944 10.8528 25.6842 10.3004C25.6842 9.10351 24.6714 8.49995 22.6561 8.49995H20.9682ZM20.9682 4.15226V7.42582H22.472C23.2802 7.42582 23.9042 7.27237 24.3645 6.95524C24.8146 6.66881 25.0806 6.15732 25.0602 5.62536C25.0602 4.6433 24.2622 4.14203 22.6561 4.14203L20.9682 4.15226ZM19.4951 13.2262V3.07812H23.0653C24.1497 3.07812 25.009 3.29295 25.6433 3.72261C26.2775 4.15226 26.5946 4.7149 26.5946 5.4003C26.6049 5.95272 26.4003 6.4949 26.0218 6.9041C25.633 7.33375 25.1113 7.63042 24.4361 7.81455V7.84524C25.2852 7.92708 25.9604 8.18283 26.4617 8.62271C26.9629 9.04214 27.2391 9.66616 27.2187 10.3209C27.2187 11.1904 26.8299 11.886 26.0627 12.4282C25.2955 12.9704 24.3236 13.2364 23.1472 13.2364H19.4951V13.2262Z" fill="white"/>
    <path d="M28.8562 13.226H30.2884V5.98321H28.8562V13.226ZM29.5825 4.1316C29.3472 4.14183 29.1119 4.05999 28.9278 3.91677C28.7539 3.79401 28.6516 3.58942 28.6618 3.38482C28.6618 3.16999 28.7641 2.9654 28.9278 2.84264C29.1119 2.69942 29.3472 2.61758 29.5825 2.62781C29.828 2.61758 30.0633 2.69942 30.2475 2.84264C30.5441 3.05746 30.6055 3.46666 30.4009 3.76333C30.36 3.8247 30.3088 3.87585 30.2475 3.91677C30.0633 4.07022 29.828 4.14183 29.5825 4.1316Z" fill="white"/>
    <path d="M36.62 13.1539C36.2825 13.3073 35.8323 13.3789 35.2799 13.3789C33.7148 13.3789 32.9271 12.6731 32.9271 11.2511V6.96479H31.3926V5.97249H32.9271V4.20272L34.3592 3.82422V5.97249H36.6098V6.96479H34.3592V11.0465C34.3592 11.5273 34.4615 11.8751 34.6661 12.0899C34.8707 12.3048 35.2083 12.3968 35.6789 12.3968C36.0062 12.4071 36.3336 12.3252 36.6098 12.1513L36.62 13.1539Z" fill="white"/>
    <path d="M49.6428 13.2266H48.3027V6.96591C48.3129 6.36235 48.3436 5.74855 48.4152 5.14499H48.3845C48.3027 5.45189 48.1799 5.75878 48.0367 6.04522L44.0982 13.2164H43.4333L39.505 6.09637C39.3515 5.78947 39.239 5.47235 39.1572 5.13476H39.1265C39.1776 5.73832 39.1981 6.35212 39.1879 6.96591V13.2164H37.8887V3.88672H39.6789L43.2184 10.3929C43.423 10.751 43.6072 11.1295 43.7504 11.5182H43.8015C44.0368 11.0067 44.221 10.6282 44.3539 10.3725L47.9651 3.88672H49.653V13.2266" fill="white"/>
    <path d="M56.926 9.55468L54.7675 9.80019C54.1025 9.8718 53.6013 10.0048 53.2637 10.1992C52.9261 10.3935 52.7522 10.7311 52.7522 11.2119C52.7522 11.5597 52.9261 11.8871 53.2228 12.0815C53.5297 12.3065 53.9491 12.419 54.4708 12.419C55.1869 12.419 55.77 12.2144 56.2304 11.8155C56.6805 11.437 56.9362 10.8743 56.926 10.281V9.55468ZM58.3582 13.2272H56.926V12.0917H56.8953C56.2713 12.9612 55.3506 13.3909 54.1435 13.3909C53.2535 13.3909 52.5578 13.1965 52.0463 12.818C51.5553 12.4702 51.2791 11.8973 51.2893 11.2938C51.2893 9.94341 52.2714 9.15571 54.2458 8.93066L56.926 8.62376C56.926 7.39618 56.3122 6.78238 55.0846 6.78238C54.0412 6.77215 53.0284 7.07905 52.1691 7.67238V6.48572C53.0489 6.0356 54.0616 5.81055 55.2074 5.81055C57.3147 5.81055 58.3582 6.71077 58.3582 8.51123V13.2272Z" fill="white"/>
    <path d="M65.0076 7.14875C64.7518 6.9953 64.3938 6.91346 63.9232 6.91346C63.3299 6.90323 62.7673 7.15898 62.3887 7.61932C61.9796 8.0899 61.775 8.72415 61.775 9.5323V13.2253H60.3428V5.98254H61.775V7.4761H61.8056C61.9898 6.9953 62.3171 6.57587 62.7468 6.27921C63.156 5.99277 63.647 5.84955 64.1585 5.84955C64.4449 5.83932 64.7416 5.87001 65.0178 5.95185L65.0076 7.14875Z" fill="white"/>
    <path d="M69.9999 13.1539C69.6623 13.3073 69.2122 13.3789 68.6598 13.3789C67.0946 13.3789 66.3069 12.6731 66.3069 11.2511V6.96479H64.7725V5.97249H66.3069V4.20272L67.7391 3.82422V5.97249H69.9897V6.96479H67.7391V11.0465C67.7391 11.5273 67.8414 11.8751 68.046 12.0899C68.2506 12.3048 68.5882 12.3968 69.0588 12.3968C69.3861 12.4071 69.7135 12.3252 69.9897 12.1513L69.9999 13.1539Z" fill="white"/>
  </g>
  <defs>
    <clipPath id="clip0_5489_23174">
      <rect width="69.4708" height="16" fill="white" transform="translate(0.529297)"/>
    </clipPath>
  </defs>
</svg>
