<svg xmlns="http://www.w3.org/2000/svg" width="47" height="16" viewBox="0 0 47 16" fill="none">
  <g clip-path="url(#clip0_5489_23163)">
    <path d="M33.6172 12.343V0.0078125H36.023V12.343H33.6172Z" fill="white"/>
    <path d="M5.58223 16.0051H0.425781V3.67188H5.37538C7.77936 3.67188 9.18262 5.0241 9.18262 7.13694C9.18262 8.50645 8.28252 9.38808 7.65823 9.68388C8.40179 10.0296 9.35407 10.8095 9.35407 12.4555C9.35407 14.7566 7.77936 16.0051 5.58223 16.0051ZM5.1853 5.82122H2.82977V8.66203H5.1853C6.20652 8.66203 6.77864 8.08964 6.77864 7.24066C6.77864 6.39168 6.20652 5.82122 5.1853 5.82122ZM5.33997 10.8267H2.82977V13.8577H5.33811C6.43015 13.8577 6.94822 13.1643 6.94822 12.3326C6.94822 11.5009 6.42829 10.8267 5.33997 10.8267Z" fill="white"/>
    <path d="M16.6896 10.9458V16.0051H14.3005V10.9458L10.5977 3.67188H13.2122L15.5118 8.64282L17.7798 3.67188H20.3925L16.6896 10.9458Z" fill="white"/>
    <path d="M27.2072 16.0051H22.0508V3.67188H27.0004C29.4044 3.67188 30.8076 5.0241 30.8076 7.13694C30.8076 8.50645 29.9075 9.38808 29.2832 9.68388C30.0268 10.0296 30.9791 10.8095 30.9791 12.4555C30.9791 14.7566 29.4062 16.0051 27.2072 16.0051ZM26.8103 5.82122H24.4566V8.66203H26.8103C27.8315 8.66203 28.4036 8.08964 28.4036 7.24066C28.4018 6.39168 27.8297 5.82122 26.8103 5.82122ZM26.965 10.8267H24.4566V13.8577H26.965C28.057 13.8577 28.5751 13.1643 28.5751 12.3326C28.5751 11.5009 28.0552 10.8267 26.965 10.8267Z" fill="white"/>
    <path d="M43.7746 5.82121V16.007H41.3687V5.82121H38.1504V3.67188H46.993V5.82121H43.7746Z" fill="white"/>
  </g>
  <defs>
    <clipPath id="clip0_5489_23163">
      <rect width="46.5888" height="16" fill="white" transform="translate(0.411133)"/>
    </clipPath>
  </defs>
</svg>
