<svg xmlns="http://www.w3.org/2000/svg" width="57" height="14" viewBox="0 0 114 26" fill="none">
  <g clip-path="url(#clip0_4773_3035)">
    <mask id="mask0_4773_3035" style="mask-type:luminance" maskUnits="userSpaceOnUse" x="0" y="0" width="114" height="26">
      <path d="M0 0H113.537V26H0V0Z" fill="white"/>
    </mask>
    <g mask="url(#mask0_4773_3035)">
      <path fill-rule="evenodd" clip-rule="evenodd" d="M93.9926 7.72663H97.217V4.50146H93.9926V7.72663ZM76.8542 13.0976C77.4703 11.4634 79.048 10.2999 80.898 10.2999C82.7478 10.2999 84.3255 11.4634 84.9419 13.0976H76.8542ZM80.898 7.3013C76.8563 7.3013 73.5788 10.5791 73.5788 14.6225C73.5788 18.666 76.8563 21.9432 80.898 21.9432C83.6716 21.9432 86.0844 20.4007 87.3264 18.1271L84.6218 16.8147C83.8703 18.0891 82.4844 18.9446 80.898 18.9446C78.8938 18.9446 77.209 17.5799 76.7202 15.7289H85.0757C85.0751 15.7302 85.0749 15.7321 85.0746 15.7337H88.1348C88.1901 15.3712 88.2186 15.0001 88.2186 14.6225C88.2186 10.5791 84.9411 7.3013 80.898 7.3013ZM89.0686 21.5529H92.293V18.3278H89.0686V21.5529ZM93.9926 21.5529H97.217V9.14449H93.9926V21.5529ZM106.217 18.9446C103.83 18.9446 101.895 17.0094 101.895 14.6225C101.895 12.2351 103.83 10.2999 106.217 10.2999C108.603 10.2999 110.538 12.2351 110.538 14.6225C110.538 17.0094 108.603 18.9446 106.217 18.9446ZM106.215 7.3013C102.174 7.3013 98.8961 10.5791 98.8961 14.6225C98.8961 18.666 102.174 21.9432 106.215 21.9432C110.258 21.9432 113.536 18.666 113.536 14.6225C113.536 10.5791 110.258 7.3013 106.215 7.3013ZM38.8005 11.9238V15.2585H43.3089C43.0735 16.2114 42.6081 17.0653 41.9408 17.7474C40.9342 18.7763 39.5385 19.3432 38.0104 19.3432C34.8396 19.3432 32.2597 16.7629 32.2597 13.5912C32.2597 10.4194 34.8396 7.83883 38.0104 7.83883C39.7089 7.83883 41.2701 8.56596 42.3525 9.8201L44.9338 7.71045C43.2224 5.70436 40.6831 4.50389 38.0104 4.50389C33.0012 4.50389 28.9258 8.58053 28.9258 13.5912C28.9258 18.6018 33.0012 22.6782 38.0104 22.6782C40.4426 22.6782 42.6847 21.8016 44.3239 20.1262C45.6993 18.7199 46.611 16.7583 46.7863 14.7932C46.8718 13.8347 46.8796 12.8826 46.8292 11.9238H38.8005ZM55.224 18.9454C52.8374 18.9454 50.9024 17.0097 50.9024 14.6225C50.9024 12.2348 52.8374 10.2996 55.224 10.2996C57.6109 10.2996 59.5459 12.2348 59.5459 14.6225C59.5459 17.0097 57.6109 18.9454 55.224 18.9454ZM59.5464 8.72806C58.3349 7.83964 56.8411 7.31371 55.224 7.31371C51.1823 7.31371 47.9059 10.5912 47.9059 14.6339C47.9059 18.677 51.1823 21.954 55.224 21.954C56.8411 21.954 58.3349 21.4283 59.5464 20.5399V21.5529H62.5425V7.71503H59.5464V8.72806ZM68.9741 4.50173H65.9778V7.72663H64.1819V10.5551H65.9778V17.9569C65.9778 18.7213 66.0737 19.3643 66.2641 19.8689C66.4518 20.3681 66.7387 20.7589 67.0798 21.0642C67.4255 21.3741 67.831 21.6155 68.3118 21.7525C68.8004 21.8901 69.3394 21.9432 69.9092 21.9432C70.4989 21.9432 71.0247 21.882 71.4734 21.7609C71.89 21.649 72.2893 21.4906 72.6609 21.2894V19.0104C72.0699 19.2661 71.5173 19.3586 70.8869 19.388C70.2214 19.4193 69.8278 19.2291 69.5001 18.9168C69.1569 18.5897 68.9741 18.1632 68.9741 17.448V10.5551H72.6609V7.72663H68.9741V4.50173Z" fill="white"/>
    </g>
    <mask id="mask1_4773_3035" style="mask-type:luminance" maskUnits="userSpaceOnUse" x="0" y="0" width="114" height="26">
      <path d="M0 0H113.537V26H0V0Z" fill="white"/>
    </mask>
    <g mask="url(#mask1_4773_3035)">
      <path fill-rule="evenodd" clip-rule="evenodd" d="M12.9972 20.1501C9.0493 20.1501 5.84888 16.9493 5.84888 13.0002C5.84888 9.0514 9.0493 5.84996 12.9972 5.84996V0C5.81895 0 0 5.8203 0 13.0002C0 20.1798 5.81895 26.0001 12.9972 26.0001C20.1751 26.0001 25.9944 20.1798 25.9944 13.0002H20.1455C20.1455 16.9493 16.9451 20.1501 12.9972 20.1501Z" fill="white"/>
    </g>
    <mask id="mask2_4773_3035" style="mask-type:luminance" maskUnits="userSpaceOnUse" x="0" y="0" width="114" height="26">
      <path d="M0 0H113.537V26H0V0Z" fill="white"/>
    </mask>
    <g mask="url(#mask2_4773_3035)">
      <path fill-rule="evenodd" clip-rule="evenodd" d="M12.9961 13.0001H20.1444V5.8501H12.9961V13.0001Z" fill="white"/>
    </g>
  </g>
  <defs>
    <clipPath id="clip0_4773_3035">
      <rect width="113.537" height="26" fill="white"/>
    </clipPath>
  </defs>
</svg>
