<svg xmlns="http://www.w3.org/2000/svg" width="59" height="14" viewBox="0 0 118 28" fill="none">
  <g clip-path="url(#clip0_4773_3027)">
    <path d="M92.6755 14.468C92.6755 13.7641 92.6755 13.1124 92.6495 12.5127C92.6234 11.9131 92.5713 11.3396 92.4931 10.8443C92.4149 10.3229 92.2584 9.85358 92.0238 9.38436C91.8153 8.9151 91.4763 8.49798 91.0852 8.08086C90.5117 7.50733 89.8861 7.0902 89.1822 6.77737C88.4782 6.4906 87.6701 6.30811 86.7577 6.30811C85.8452 6.30811 85.037 6.46453 84.3332 6.77737C83.6293 7.06413 82.9775 7.50733 82.404 8.08086C81.9869 8.49798 81.7001 8.9151 81.4916 9.38436C81.283 9.85358 81.1005 10.3229 81.0223 10.8443C80.9441 11.3657 80.892 11.9131 80.8659 12.5127C80.8398 13.1124 80.8398 13.7641 80.8398 14.468C80.8398 15.1718 80.8398 15.7976 80.8659 16.4233C80.892 17.0228 80.9441 17.5964 81.0223 18.0917C81.1005 18.6131 81.257 19.0824 81.4916 19.5516C81.7001 20.0209 82.039 20.438 82.404 20.8551C82.9775 21.4287 83.6033 21.8458 84.3332 22.1586C85.037 22.4454 85.8452 22.6279 86.7577 22.6279C87.6701 22.6279 88.4522 22.4714 89.1822 22.1586C89.8861 21.8719 90.5378 21.4287 91.0852 20.8551C91.5023 20.438 91.7891 20.0209 92.0238 19.5516C92.2324 19.0824 92.4149 18.6131 92.4931 18.0917C92.5713 17.5703 92.6495 17.0228 92.6495 16.4233C92.6755 15.7715 92.6755 15.1718 92.6755 14.468ZM89.5732 14.468C89.5732 15.224 89.5732 15.8758 89.5472 16.3972C89.5211 16.9186 89.495 17.3096 89.4168 17.6485C89.3647 17.9613 89.2865 18.2481 89.1822 18.4307C89.0779 18.6392 88.9737 18.8478 88.7912 19.0042C88.5825 19.2649 88.2697 19.4734 87.9569 19.6298C87.618 19.7862 87.2269 19.8384 86.7838 19.8645C86.3406 19.8645 85.9755 19.7862 85.6106 19.6298C85.2717 19.4734 84.9849 19.2909 84.7503 19.0042C84.5939 18.8478 84.4896 18.6653 84.3592 18.4307C84.255 18.222 84.1768 17.9613 84.1246 17.6485C84.0725 17.3357 84.0204 16.9186 84.0204 16.3972C83.9943 15.8758 83.9943 15.2501 83.9943 14.468C83.9943 13.712 83.9943 13.0603 84.0204 12.5388C84.0464 12.0174 84.0725 11.6264 84.1246 11.2875C84.1768 10.9486 84.255 10.6879 84.3592 10.5054C84.4635 10.2969 84.5678 10.0882 84.7503 9.93179C84.9588 9.6711 85.2717 9.46257 85.6106 9.30614C85.9495 9.14973 86.3406 9.09759 86.7838 9.07152C87.2269 9.07152 87.5919 9.14973 87.9569 9.30614C88.2697 9.46257 88.5825 9.64506 88.7912 9.93179C88.9476 10.0882 89.0519 10.2708 89.1822 10.5054C89.2865 10.714 89.3647 10.9746 89.4168 11.2875C89.469 11.6003 89.5211 12.0174 89.5472 12.5388C89.5472 13.0603 89.5732 13.712 89.5732 14.468Z" fill="white"/>
    <path d="M117.574 6.72505C117.574 6.56864 117.443 6.46436 117.313 6.46436H114.757C114.601 6.46436 114.497 6.59471 114.497 6.72505V16.2667L108.214 6.54257C108.162 6.49042 108.136 6.46436 108.057 6.46436H105.659C105.529 6.46436 105.398 6.59471 105.398 6.72505C105.398 11.8869 105.398 17.0487 105.398 22.1584C105.398 22.3149 105.529 22.4191 105.659 22.4191H108.214C108.37 22.4191 108.475 22.2888 108.475 22.1584V12.5907L114.757 22.3409C114.809 22.3931 114.835 22.4191 114.914 22.4191H117.313C117.469 22.4191 117.574 22.2888 117.574 22.1584V6.72505Z" fill="white"/>
    <path d="M100.287 6.72505C100.287 6.56864 100.157 6.46436 100.026 6.46436H97.4716C97.3152 6.46436 97.2109 6.59471 97.2109 6.72505V22.1584C97.2109 22.3149 97.3413 22.4191 97.4716 22.4191H100.026C100.183 22.4191 100.287 22.2888 100.287 22.1584V6.72505Z" fill="white"/>
    <path d="M69.4748 14.468C69.4748 13.712 69.4748 13.0603 69.5008 12.5388C69.5269 12.0174 69.553 11.6264 69.6051 11.2875C69.8397 9.90572 70.9086 9.09759 72.2642 9.09759C73.1506 9.09759 73.9327 9.41043 74.4541 10.1664C74.6627 10.4793 74.8452 10.8704 74.9494 11.3135C74.9494 11.3657 74.9755 11.3917 75.0276 11.3917H78.0517C78.1039 11.3917 78.1039 11.3657 78.1039 11.3135C77.791 9.46257 76.7744 7.74196 75.0016 6.90772C74.1934 6.51667 73.2549 6.30811 72.2121 6.30811C70.5175 6.30811 69.0577 6.90772 67.8845 8.05479C67.2067 8.73262 66.7896 9.54077 66.581 10.4533C66.3985 11.3396 66.3203 12.6691 66.3203 14.4158C66.3203 16.1626 66.3985 17.4921 66.581 18.3784C66.7635 19.2909 67.2327 20.0991 67.8845 20.7769C69.0577 21.9501 70.4914 22.5236 72.2121 22.5236C73.2288 22.5236 74.1674 22.3411 75.0016 21.924C76.7483 21.0898 77.791 19.4213 78.1039 17.5181C78.1039 17.466 78.1039 17.4399 78.0517 17.4399H75.0276C74.9755 17.4399 74.9494 17.466 74.9494 17.5181C74.8452 17.9613 74.6887 18.3263 74.4541 18.6653C73.9327 19.3952 73.1506 19.708 72.2642 19.7341C70.9086 19.7341 69.8658 18.926 69.6051 17.5442C69.553 17.2314 69.5008 16.8143 69.5008 16.2929C69.4748 15.8758 69.4748 15.224 69.4748 14.468Z" fill="white"/>
    <path d="M37.459 6.72505C37.459 6.56864 37.3287 6.46436 37.1984 6.46436H34.6435C34.4871 6.46436 34.3828 6.59471 34.3828 6.72505V22.1584C34.3828 22.3149 34.5132 22.4191 34.6435 22.4191H37.1984C37.3548 22.4191 37.459 22.2888 37.459 22.1584V17.6222L39.5447 15.1456L43.7941 22.367C43.8202 22.4191 43.8723 22.4452 43.9505 22.4452H47.0789C47.2092 22.4452 47.2353 22.367 47.1832 22.2366L41.6303 12.8254L46.74 6.69899C46.8443 6.56863 46.7921 6.46436 46.6357 6.46436H43.1944C43.1423 6.46436 43.1162 6.46436 43.0901 6.51649L37.459 13.2165V6.72505Z" fill="white"/>
    <path d="M56.2303 19.812C54.7703 19.812 53.4669 18.4563 53.4669 16.866V6.75093C53.4669 6.59451 53.3365 6.49023 53.2061 6.49023H50.6513C50.4949 6.49023 50.3906 6.62058 50.3906 6.75093V16.8399C50.3906 20.3855 53.0497 22.6275 56.2824 22.6275C59.5151 22.6275 62.1742 20.3855 62.1742 16.8399V6.75093C62.1742 6.59451 62.0438 6.49023 61.9135 6.49023H59.3586C59.2022 6.49023 59.098 6.62058 59.098 6.75093V16.866C58.9676 18.4563 57.6641 19.812 56.2303 19.812Z" fill="white"/>
    <path d="M8.41989 14.4675L16.4234 22.4709L21.4808 17.4133C22.3673 16.527 23.8271 16.527 24.7136 17.4133C25.5999 18.2997 25.5999 19.7597 24.7136 20.646L18.0396 27.3199C17.1533 28.2063 15.6933 28.2063 14.807 27.3199L5.21329 17.7001V23.4355C5.21329 24.6869 4.19658 25.7296 2.91915 25.7296C1.64172 25.7296 0.625 24.7129 0.625 23.4355V5.55154C0.625 4.27411 1.64172 3.25738 2.91915 3.25738C4.19658 3.25738 5.21329 4.27411 5.21329 5.55154V11.2348L14.8331 1.61498C15.7194 0.728601 17.1794 0.728601 18.0657 1.61498L24.7397 8.28887C25.626 9.17525 25.626 10.6351 24.7397 11.5216C23.8532 12.4079 22.3934 12.4079 21.507 11.5216L16.4494 6.46398L8.41989 14.4675ZM16.4494 12.1733C15.172 12.1733 14.1553 13.19 14.1553 14.4675C14.1553 15.7448 15.172 16.7616 16.4494 16.7616C17.7268 16.7616 18.7435 15.7448 18.7435 14.4675C18.7174 13.19 17.7007 12.1733 16.4494 12.1733Z" fill="white"/>
  </g>
  <defs>
    <clipPath id="clip0_4773_3027">
      <rect width="117.793" height="28" fill="white"/>
    </clipPath>
  </defs>
</svg>
