<svg xmlns="http://www.w3.org/2000/svg" width="68" height="16" viewBox="0 0 68 16" fill="none">
  <g clip-path="url(#clip0_5489_23121)">
    <path d="M53.647 8.26825C53.647 7.86605 53.647 7.49363 53.6321 7.15096C53.6172 6.80834 53.5875 6.48061 53.5428 6.19758C53.4981 5.89965 53.4087 5.63146 53.2746 5.36333C53.1555 5.09518 52.9617 4.85682 52.7383 4.61847C52.4106 4.29074 52.0531 4.05238 51.6508 3.87362C51.2486 3.70975 50.7868 3.60547 50.2654 3.60547C49.744 3.60547 49.2822 3.69485 48.88 3.87362C48.4778 4.03749 48.1053 4.29074 47.7776 4.61847C47.5392 4.85682 47.3754 5.09518 47.2562 5.36333C47.137 5.63146 47.0328 5.89965 46.9881 6.19758C46.9434 6.49551 46.9136 6.80834 46.8987 7.15096C46.8838 7.49363 46.8838 7.86605 46.8838 8.26825C46.8838 8.67046 46.8838 9.02803 46.8987 9.38555C46.9136 9.72817 46.9434 10.0559 46.9881 10.3389C47.0328 10.6369 47.1221 10.9051 47.2562 11.1732C47.3754 11.4413 47.569 11.6797 47.7776 11.918C48.1053 12.2458 48.4629 12.4841 48.88 12.6629C49.2822 12.8268 49.744 12.931 50.2654 12.931C50.7868 12.931 51.2337 12.8417 51.6508 12.6629C52.0531 12.499 52.4255 12.2458 52.7383 11.918C52.9766 11.6797 53.1405 11.4413 53.2746 11.1732C53.3938 10.9051 53.4981 10.6369 53.5428 10.3389C53.5875 10.041 53.6321 9.72817 53.6321 9.38555C53.647 9.01314 53.647 8.67046 53.647 8.26825ZM51.8743 8.26825C51.8743 8.70025 51.8743 9.07272 51.8594 9.37066C51.8445 9.66859 51.8296 9.89204 51.7849 10.0857C51.7551 10.2644 51.7104 10.4283 51.6508 10.5326C51.5913 10.6518 51.5317 10.771 51.4274 10.8604C51.3082 11.0093 51.1294 11.1285 50.9507 11.2179C50.757 11.3073 50.5336 11.3371 50.2803 11.352C50.0271 11.352 49.8185 11.3073 49.6099 11.2179C49.4163 11.1285 49.2524 11.0242 49.1183 10.8604C49.0289 10.771 48.9694 10.6667 48.8949 10.5326C48.8353 10.4134 48.7906 10.2644 48.7608 10.0857C48.731 9.90693 48.7012 9.66859 48.7012 9.37066C48.6863 9.07272 48.6863 8.71515 48.6863 8.26825C48.6863 7.83625 48.6863 7.46384 48.7012 7.16585C48.7161 6.86792 48.731 6.64448 48.7608 6.45082C48.7906 6.25717 48.8353 6.1082 48.8949 6.00392C48.9545 5.88475 49.0141 5.76552 49.1183 5.67614C49.2375 5.52718 49.4163 5.40802 49.6099 5.31863C49.8036 5.22925 50.0271 5.19946 50.2803 5.18456C50.5336 5.18456 50.7421 5.22925 50.9507 5.31863C51.1294 5.40802 51.3082 5.5123 51.4274 5.67614C51.5168 5.76552 51.5764 5.86985 51.6508 6.00392C51.7104 6.1231 51.7551 6.27206 51.7849 6.45082C51.8147 6.62958 51.8445 6.86792 51.8594 7.16585C51.8594 7.46384 51.8743 7.83625 51.8743 8.26825Z" fill="white"/>
    <path d="M67.8742 3.84233C67.8742 3.75295 67.7997 3.69336 67.7253 3.69336H66.2649C66.1755 3.69336 66.1159 3.76785 66.1159 3.84233V9.29468L62.5258 3.73805C62.496 3.70826 62.4811 3.69336 62.4364 3.69336H61.066C60.9915 3.69336 60.917 3.76785 60.917 3.84233C60.917 6.79195 60.917 9.74157 60.917 12.6614C60.917 12.7508 60.9915 12.8104 61.066 12.8104H62.5258C62.6152 12.8104 62.6748 12.7359 62.6748 12.6614V7.19415L66.2649 12.7657C66.2946 12.7955 66.3095 12.8104 66.3542 12.8104H67.7253C67.8146 12.8104 67.8742 12.7359 67.8742 12.6614V3.84233Z" fill="white"/>
    <path d="M57.9971 3.84233C57.9971 3.75295 57.9226 3.69336 57.8481 3.69336H56.3882C56.2988 3.69336 56.2393 3.76785 56.2393 3.84233V12.6614C56.2393 12.7508 56.3137 12.8104 56.3882 12.8104H57.8481C57.9375 12.8104 57.9971 12.7359 57.9971 12.6614V3.84233Z" fill="white"/>
    <path d="M40.3885 8.26825C40.3885 7.83625 40.3885 7.46384 40.4034 7.16585C40.4183 6.86792 40.4332 6.64448 40.463 6.45082C40.597 5.66125 41.2078 5.19946 41.9825 5.19946C42.4889 5.19946 42.9359 5.37822 43.2338 5.81021C43.353 5.98903 43.4573 6.21248 43.5169 6.46572C43.5169 6.49551 43.5318 6.51041 43.5616 6.51041H45.2896C45.3194 6.51041 45.3194 6.49551 45.3194 6.46572C45.1406 5.40802 44.5597 4.42481 43.5467 3.94811C43.0849 3.72465 42.5485 3.60547 41.9527 3.60547C40.9843 3.60547 40.1501 3.94811 39.4798 4.60358C39.0924 4.9909 38.8541 5.45271 38.7349 5.97413C38.6306 6.48061 38.5859 7.24034 38.5859 8.23846C38.5859 9.23659 38.6306 9.99631 38.7349 10.5028C38.8392 11.0242 39.1073 11.486 39.4798 11.8733C40.1501 12.5437 40.9694 12.8715 41.9527 12.8715C42.5336 12.8715 43.07 12.7672 43.5467 12.5288C44.5448 12.0521 45.1406 11.0987 45.3194 10.0112C45.3194 9.98141 45.3194 9.96652 45.2896 9.96652H43.5616C43.5318 9.96652 43.5169 9.98141 43.5169 10.0112C43.4573 10.2644 43.3679 10.473 43.2338 10.6667C42.9359 11.0838 42.4889 11.2626 41.9825 11.2775C41.2078 11.2775 40.6119 10.8157 40.463 10.0261C40.4332 9.84735 40.4034 9.609 40.4034 9.31107C40.3885 9.07272 40.3885 8.70025 40.3885 8.26825Z" fill="white"/>
    <path d="M22.0948 3.84233C22.0948 3.75295 22.0203 3.69336 21.9458 3.69336H20.4859C20.3965 3.69336 20.3369 3.76785 20.3369 3.84233V12.6614C20.3369 12.7508 20.4114 12.8104 20.4859 12.8104H21.9458C22.0352 12.8104 22.0948 12.7359 22.0948 12.6614V10.0693L23.2865 8.65407L25.7148 12.7806C25.7297 12.8104 25.7595 12.8253 25.8042 12.8253H27.5918C27.6663 12.8253 27.6812 12.7806 27.6514 12.7061L24.4783 7.32822L27.3982 3.82743C27.4577 3.75295 27.4279 3.69336 27.3386 3.69336H25.3721C25.3423 3.69336 25.3274 3.69336 25.3125 3.72315L22.0948 7.55173V3.84233Z" fill="white"/>
    <path d="M32.8203 11.3214C31.9861 11.3214 31.2412 10.5467 31.2412 9.63799V3.85796C31.2412 3.76857 31.1668 3.70898 31.0922 3.70898H29.6324C29.543 3.70898 29.4834 3.78347 29.4834 3.85796V9.6231C29.4834 11.6491 31.0028 12.9303 32.8501 12.9303C34.6974 12.9303 36.2169 11.6491 36.2169 9.6231V3.85796C36.2169 3.76857 36.1424 3.70898 36.0679 3.70898H34.608C34.5186 3.70898 34.459 3.78347 34.459 3.85796V9.63799C34.3845 10.5467 33.6396 11.3214 32.8203 11.3214Z" fill="white"/>
    <path d="M5.50012 8.26712L10.0735 12.8405L12.9635 9.95049C13.4701 9.444 14.3043 9.444 14.8108 9.95049C15.3173 10.457 15.3173 11.2912 14.8108 11.7977L10.9971 15.6114C10.4906 16.1179 9.65638 16.1179 9.14989 15.6114L3.66778 10.1143V13.3917C3.66778 14.1068 3.0868 14.7027 2.35684 14.7027C1.62688 14.7027 1.0459 14.1217 1.0459 13.3917V3.17231C1.0459 2.44235 1.62688 1.86136 2.35684 1.86136C3.0868 1.86136 3.66778 2.44235 3.66778 3.17231V6.41989L9.16479 0.922844C9.67127 0.416343 10.5055 0.416343 11.012 0.922844L14.8257 4.7365C15.3322 5.243 15.3322 6.07722 14.8257 6.58376C14.3192 7.09024 13.485 7.09024 12.9785 6.58376L10.0884 3.6937L5.50012 8.26712ZM10.0884 6.95617C9.35845 6.95617 8.77748 7.53713 8.77748 8.26712C8.77748 8.99705 9.35845 9.57807 10.0884 9.57807C10.8184 9.57807 11.3993 8.99705 11.3993 8.26712C11.3844 7.53713 10.8035 6.95617 10.0884 6.95617Z" fill="white"/>
  </g>
  <defs>
    <clipPath id="clip0_5489_23121">
      <rect width="67.3103" height="16" fill="white" transform="translate(0.689453)"/>
    </clipPath>
  </defs>
</svg>
