<svg width="80" height="40" viewBox="0 0 169 40" fill="none" xmlns="http://www.w3.org/2000/svg">
<path d="M18.9645 2.03036C27.8304 1.51788 35.7432 7.54466 37.6035 16.2261C38.1108 18.6091 38.1313 21.0742 37.665 23.4674C36.5016 29.3712 32.4735 34.3013 26.9234 36.6228C23.1412 38.2115 18.8159 38.4319 14.8852 37.2634C9.49899 35.6594 5.1634 31.6364 3.16473 26.3835C1.72978 22.6167 1.61703 18.3683 2.84699 14.5298C5.11215 7.42679 11.5233 2.45572 18.9645 2.03036Z" fill="white"/>
<path d="M8.92608 18.6961C8.99783 19.0241 9.03883 19.3572 9.11057 19.6904C9.1567 19.8902 9.21819 19.8441 9.32069 19.757C9.52056 19.593 9.71018 19.4136 9.93054 19.2804C9.99204 19.2906 10.0279 19.3419 10.0587 19.388C10.6429 20.1516 11.4167 20.6179 12.3341 20.8691C12.7543 20.9869 13.1899 21.0638 13.6255 21.1099C13.4872 20.9562 13.3744 20.7871 13.2873 20.5974C13.1387 20.2695 13.1899 19.9773 13.441 19.716C13.7434 19.3982 14.138 19.265 14.5429 19.1625C15.3885 18.9421 16.2494 18.9216 17.1155 18.9831C17.8125 19.0293 18.4992 19.1471 19.1757 19.3367C19.7394 19.4956 20.2878 19.6801 20.7849 19.9978C20.8566 20.0542 20.9028 20.1311 20.9694 20.1875C21.61 20.8742 21.9841 21.6839 22.0097 22.6217C22.0251 23.2675 21.8457 23.8876 21.5229 24.4564C20.9386 25.4814 20.0828 26.2296 19.063 26.7985C18.0277 27.3776 16.8849 27.7363 15.7011 27.8593C13.5897 28.0899 11.6269 27.6287 9.82805 26.5064C8.3316 25.5736 7.17852 24.2976 6.24068 22.8216C5.80507 22.1195 5.42071 21.3867 5.0876 20.6282C5.0466 20.5359 5.03635 20.4335 4.99535 20.3566C5.02097 20.4488 5.07222 20.5462 4.97485 20.6436C4.9441 20.2592 4.97998 19.88 5.00047 19.5007C5.05172 18.4501 5.21572 17.4098 5.48733 16.4002C6.72241 11.834 10.033 8.11853 14.4301 6.36584C15.7523 5.83799 17.1412 5.51 18.5556 5.38188C20.79 5.17689 22.9527 5.469 25.0641 6.21722C24.7413 6.82708 22.9117 8.45677 21.487 9.40486C21.446 8.99487 21.3537 8.59001 21.2103 8.20053C21.2051 8.09803 21.2974 8.06728 21.3537 8.01603C21.651 7.75979 21.9482 7.50868 22.2455 7.25756C22.2762 7.23194 22.307 7.20631 22.3326 7.18069C22.3685 7.14481 22.4248 7.11407 22.4095 7.05769C22.3992 7.00132 22.3326 7.00132 22.2813 6.99107C22.143 6.96032 22.0046 6.94495 21.8611 6.93982C21.6664 6.91932 21.4716 6.8732 21.2769 6.86807C21.1231 6.85782 20.9745 6.82195 20.8259 6.8322C20.749 6.8322 20.6721 6.82708 20.5953 6.81683C20.4672 6.77583 20.3339 6.79633 20.2058 6.79633C20.1289 6.79633 20.052 6.7912 19.9701 6.79633C19.7446 6.80658 19.5242 6.7707 19.2987 6.8117C19.2423 6.82195 19.1911 6.82708 19.1347 6.82708C19.0681 6.82708 19.0066 6.8322 18.94 6.82708C18.858 6.81683 18.7708 6.82708 18.6888 6.8527C18.4531 6.8732 18.2174 6.8937 17.9867 6.9347C17.7049 6.9962 17.4179 7.00644 17.1412 7.07819C16.8849 7.14481 16.6235 7.18069 16.3724 7.26781C16.0393 7.36006 15.7062 7.46255 15.3782 7.5753C14.9016 7.76492 14.4148 7.93916 13.9586 8.18515C12.9286 8.68738 11.9651 9.32286 11.1041 10.0762C10.3047 10.7681 9.58718 11.547 8.96708 12.4029C8.65959 12.8334 8.3726 13.2792 8.12148 13.7456C7.95749 14.0479 7.80375 14.3554 7.66025 14.668C7.55776 14.9089 7.43476 15.1446 7.35276 15.3958C7.25027 15.6469 7.16827 15.9031 7.08627 16.1645C6.9889 16.4258 6.93253 16.6975 6.86078 16.9588C6.83003 17.0613 6.80953 17.1689 6.78391 17.2766C6.75316 17.4047 6.73266 17.5328 6.70704 17.6609C6.66604 17.8762 6.63016 18.0965 6.59942 18.3169C6.55842 18.5424 6.53279 18.7679 6.51742 18.9985C6.48155 19.1471 6.50717 19.306 6.48154 19.4597C6.44055 19.6494 6.46617 19.8441 6.45592 20.0337C6.4508 20.167 6.44567 20.3002 6.4508 20.4335C6.4508 20.4898 6.42517 20.5667 6.48154 20.5923C6.54817 20.6231 6.59429 20.5513 6.64554 20.5154C6.80953 20.3822 6.9684 20.2438 7.12727 20.1055C7.66538 19.6442 8.20861 19.1881 8.74671 18.7269C8.79284 18.6961 8.84408 18.5936 8.92608 18.6961Z" fill="#C0C0C0"/>
<path d="M20.7777 20.0388C20.1422 19.6595 19.4504 19.4443 18.738 19.2752C17.8053 19.0548 16.8418 18.9625 15.8835 19.0138C15.207 19.0497 14.5357 19.1419 13.9104 19.4392C13.8336 19.475 13.7618 19.516 13.6952 19.5621C13.1879 19.9004 13.111 20.3514 13.48 20.8382C13.5568 20.9407 13.6388 21.033 13.7413 21.156C13.4133 21.156 13.1212 21.0945 12.8342 21.0381C12.0604 20.8844 11.3327 20.6179 10.7074 20.1156C10.4051 19.8748 10.1335 19.6083 9.93359 19.27C10.0156 19.1368 10.154 19.0753 10.2821 18.9984C10.5281 18.8959 10.7536 18.7473 10.9996 18.6346C12.0911 18.1323 13.2596 17.8248 14.4537 17.7121C14.9303 17.666 15.4069 17.6198 15.8886 17.6403C17.3031 17.6967 18.7073 17.9427 20.0551 18.3681C20.4036 18.4757 20.7469 18.5987 21.1108 18.7166C21.1108 18.6141 21.0544 18.5526 21.0134 18.4859C20.8699 18.2399 20.7008 18.0042 20.5163 17.7838C20.4497 17.7018 20.3523 17.6352 20.3575 17.5122C20.5471 17.5583 20.7418 17.5993 20.9314 17.6455C20.9827 17.6557 21.0442 17.6865 21.0749 17.6455C21.1211 17.5891 21.0544 17.543 21.0237 17.502C20.7418 17.0817 20.3933 16.723 20.0141 16.3899C20.214 16.272 20.419 16.3694 20.6137 16.395C22.6073 16.6513 24.4214 17.3585 26.005 18.5987C28.1011 20.2437 29.454 22.3654 30.028 24.9791C30.2125 25.8503 30.2688 26.7471 30.2022 27.6337C30.0895 29.1763 29.6026 30.601 28.6904 31.8668C28.6289 31.9488 28.5469 32.0154 28.5059 32.1128C28.3009 32.4203 27.9934 32.6304 27.7167 32.8559C26.2049 34.0859 24.4368 34.7265 22.5355 35.0237C21.0544 35.2594 19.5477 35.2851 18.0615 35.1006C15.7195 34.8136 13.48 33.968 11.5325 32.6355C11.0559 32.3127 10.5896 31.9796 10.1745 31.5798C10.1591 31.5696 10.1591 31.5491 10.1693 31.5337L10.1745 31.5286C10.2616 31.4927 10.318 31.5593 10.3795 31.6003C11.3737 32.3486 12.5062 32.8969 13.7106 33.2198C14.1154 33.3223 14.5203 33.4043 14.9354 33.4658C15.0277 33.5016 15.1302 33.4811 15.2224 33.5016C15.2429 33.5016 15.2634 33.5068 15.2788 33.5119C16.2115 33.6246 17.1442 33.558 18.0667 33.394C20.091 33.0353 21.8949 32.1897 23.4323 30.8214C24.4829 29.8938 25.3132 28.7971 25.7539 27.4441C26.1946 26.0912 26.1331 24.7741 25.513 23.4724C25.3849 24.0566 25.0825 24.5383 24.6982 24.9791C24.3138 25.4096 23.8628 25.7785 23.3606 26.0655C23.3042 26.1014 23.2376 26.1629 23.171 26.1117C23.1146 26.0655 23.1454 25.9887 23.1659 25.9323C23.2889 25.5274 23.3709 25.1123 23.417 24.6921C23.5963 22.924 22.9147 21.5455 21.5054 20.5051C21.2697 20.3309 21.0288 20.1771 20.7777 20.0388Z" fill="#818181"/>
<path d="M14.9392 33.5021C14.4216 33.4508 13.9091 33.3432 13.4069 33.1894C12.4639 32.9025 11.5722 32.4873 10.7471 31.9441C10.5524 31.816 10.3832 31.6418 10.1731 31.5393C10.0501 31.5239 9.99888 31.4009 9.90151 31.3496C7.83108 29.5098 6.41663 27.2498 5.60691 24.6105C5.2123 23.3293 4.99706 21.9969 4.97656 20.6542C4.98169 20.5517 4.98681 20.4543 4.99706 20.2954C5.09956 20.5209 5.17643 20.6952 5.25843 20.8745C6.00152 22.5093 6.95474 23.9955 8.26669 25.2357C9.66064 26.5528 11.2852 27.4343 13.1968 27.7418C15.4363 28.1056 17.5323 27.7161 19.4593 26.5067C20.4227 25.902 21.2068 25.1281 21.6629 24.0673C22.2113 22.781 22.0063 21.5869 21.1658 20.485C21.0941 20.3877 21.0121 20.2954 20.9403 20.2032C21.0377 20.1161 21.0941 20.2185 21.1505 20.2647C21.6476 20.6798 22.0422 21.2025 22.3087 21.797C22.5649 22.3658 22.7033 22.9757 22.7084 23.6009C22.7187 24.2364 22.5752 24.8668 22.2984 25.4407C22.3599 25.4407 22.4163 25.4202 22.4624 25.3792C22.7289 25.2255 22.98 25.0461 23.2158 24.8463C23.2875 24.7848 23.3541 24.6874 23.472 24.7028C23.4105 25.1845 23.3029 25.6611 23.1594 26.1275C23.4669 25.9532 23.7641 25.7585 24.046 25.5381C24.2663 25.3639 24.4457 25.1486 24.6661 24.9692C24.7583 25.0102 24.7583 25.1025 24.7788 25.1794C25.1324 26.4606 24.8762 27.6546 24.2459 28.7821C23.4771 30.1504 22.3497 31.1703 21.0377 31.9954C19.9769 32.6616 18.8136 33.1382 17.5887 33.4047C16.82 33.5789 16.0308 33.6251 15.2467 33.5431C15.1442 33.4867 15.0366 33.5482 14.9392 33.5021Z" fill="#646464"/>
<path d="M34.3084 24.0006C34.2417 22.5349 33.8779 21.1 33.2424 19.7778C32.8273 18.9168 32.3046 18.1122 31.6844 17.3845C31.1258 16.7234 30.4852 16.1597 29.8088 15.6216C29.8703 15.5601 29.9523 15.5703 30.024 15.5806C30.967 15.6882 31.8894 15.9086 32.7812 16.2365C33.0015 16.3185 33.2168 16.4159 33.4218 16.5338C33.4935 16.5697 33.5653 16.6107 33.637 16.6568C33.6524 16.667 33.6626 16.6927 33.6882 16.6875C33.6729 16.667 33.6678 16.6414 33.678 16.6158C33.0733 15.8266 32.3353 15.1655 31.5666 14.5402C30.6492 13.7971 29.6499 13.1617 28.5839 12.6492C27.108 11.9215 25.5244 11.4448 23.8896 11.245C23.7461 11.2245 23.5924 11.245 23.454 11.1937C23.4438 11.0964 23.5257 11.0656 23.5821 11.0195C24.5405 10.22 25.3092 9.27705 25.8524 8.15472C26.0164 7.81648 26.1548 7.46287 26.2675 7.10413C26.2983 7.00164 26.3188 6.88889 26.4213 6.82739C28.1381 7.65249 29.6755 8.80044 30.9567 10.2098C34.3596 13.9509 35.6408 19.1526 34.3698 24.0468C34.334 24.0621 34.3289 24.0263 34.3084 24.0006Z" fill="#C0C0C0"/>
<path d="M28.5036 32.1132C28.5036 31.9646 28.6215 31.8775 28.6984 31.7698C29.4005 30.7705 29.8259 29.6635 30.0462 28.4643C30.1846 27.7212 30.1948 26.973 30.1487 26.2299C30.0718 25.0871 29.7797 23.9853 29.3185 22.9295C28.9803 22.1557 28.5549 21.4228 28.0527 20.7464C27.5146 20.034 26.8893 19.3832 26.1975 18.8194C25.1315 17.938 23.9016 17.2769 22.5794 16.8669C21.8773 16.6414 21.1495 16.4928 20.4167 16.421C20.2835 16.4108 20.1553 16.3749 20.017 16.3852C19.5506 16.0418 19.074 15.7087 18.541 15.4678L18.5461 15.4166C18.7358 15.4166 18.9305 15.4217 19.1201 15.4166C21.8055 15.3704 24.2859 16.0264 26.4486 17.6612C28.6881 19.3576 30.0923 21.5971 30.6151 24.3645C31.0609 26.7219 30.7176 28.9512 29.4056 30.996C29.1494 31.4111 28.8675 31.7955 28.5036 32.1132Z" fill="#646464"/>
<path d="M26.4307 6.82714C26.1642 7.65224 25.826 8.44146 25.3391 9.16406C24.8523 9.89178 24.2578 10.5426 23.5762 11.0961C23.5352 11.1269 23.4993 11.1627 23.4634 11.1986C23.2277 11.3165 23.033 11.501 22.8177 11.6445C22.0234 12.1672 21.1727 12.6079 20.2861 12.9513C20.2656 12.9564 20.2399 12.9615 20.2194 12.9667C20.1784 12.9103 20.2246 12.8898 20.2502 12.8642C20.7524 12.3824 21.065 11.7931 21.2752 11.1371C21.2956 11.05 21.3571 10.9782 21.4391 10.9526C23.0022 10.3325 24.2527 9.30755 25.2725 7.98535C25.3647 7.86748 25.457 7.74448 25.5697 7.59074C25.252 7.58561 25.0111 7.74448 24.7446 7.78548C24.6934 7.79061 24.6268 7.8316 24.6165 7.73423C25.5851 6.60165 26.318 5.27945 26.7587 3.85988C26.7843 3.76763 26.7587 3.64463 26.8868 3.59851C26.8971 3.60364 26.9022 3.61389 26.8971 3.62413C26.8971 3.63438 26.8919 3.63951 26.8919 3.63951C26.8766 4.65422 26.7331 5.66381 26.4666 6.64265C26.4512 6.69902 26.441 6.76052 26.4307 6.82714Z" fill="#646464"/>
<path d="M20.352 17.5174C20.6697 17.8658 20.9465 18.2553 21.1771 18.6704C21.1976 18.7114 21.254 18.7576 21.2027 18.8037C21.1617 18.8396 21.1207 18.7934 21.0797 18.7781C20.0394 18.3886 18.9683 18.0965 17.8716 17.9068C17.3181 17.8095 16.7595 17.7685 16.2009 17.7275C15.6987 17.6967 15.1913 17.7018 14.6891 17.748C13.5411 17.8402 12.4239 18.0862 11.3579 18.5474C11.03 18.6909 10.6968 18.8191 10.3894 19.0087C10.3535 19.0292 10.3125 19.065 10.2715 19.0138C11.194 18.3629 12.2189 17.871 13.3054 17.5584C14.8018 17.1125 16.3239 17.0049 17.8767 17.1227C18.6659 17.1842 19.45 17.3072 20.2187 17.4815C20.27 17.4866 20.311 17.502 20.352 17.5174Z" fill="#646464"/>
<path d="M19.9714 6.74524H20.202C20.325 6.79649 20.4633 6.72987 20.5863 6.78111H20.817C20.8375 6.89386 20.7452 6.93998 20.6837 6.99123C19.6177 7.8932 18.562 8.80029 17.4961 9.69713C17.1425 9.99437 16.794 10.2916 16.4455 10.5888C16.3891 10.6247 16.3481 10.676 16.3225 10.7323C15.8613 10.9066 15.4308 11.1218 15.0925 11.4959C14.9337 11.6753 14.826 11.8803 14.7133 12.0853C14.3956 12.2903 14.1291 12.5619 13.8421 12.8028C13.0836 13.4382 12.3354 14.0891 11.5769 14.7194C11.5154 14.7707 11.4693 14.8476 11.3975 14.8886C11.2694 14.6938 11.2951 14.4786 11.3258 14.2685C11.4232 14.1096 11.5718 14.0122 11.705 13.8944C12.443 13.2691 13.1759 12.6439 13.9087 12.0187C14.6262 11.4088 15.3385 10.799 16.056 10.1942C16.8811 9.49726 17.7011 8.79516 18.5262 8.09306C18.9823 7.70358 19.4384 7.30897 19.9047 6.92973C19.9765 6.88361 20.0226 6.83749 19.9714 6.74524Z" fill="#A9A9A9"/>
<path d="M33.4579 16.5898C32.5559 16.1542 31.5976 15.8826 30.6136 15.7237C30.3471 15.6827 30.0858 15.6263 29.8193 15.6263C29.4759 15.4111 29.1377 15.1805 28.7841 14.9755C27.6412 14.3144 26.3908 13.8634 25.084 13.6533C25.0532 13.643 25.0276 13.6328 25.002 13.6225C25.3914 13.5508 26.729 13.7507 27.6515 14.0069C28.5125 14.2426 29.3427 14.5655 30.137 14.9806C30.055 14.7295 29.9013 14.5655 29.809 14.3656C29.7988 14.3144 29.727 14.2683 29.7732 14.2119C29.8193 14.1555 29.8808 14.217 29.9269 14.2375C30.0601 14.299 30.1883 14.3708 30.3215 14.4323C31.4387 15.0114 32.4944 15.7083 33.4681 16.5078C33.5194 16.5744 33.5194 16.5744 33.4579 16.5898Z" fill="#646464"/>
<path d="M19.9717 6.74505C19.9974 6.80143 20.0691 6.76043 20.105 6.82193C19.8897 7.00642 19.6745 7.19604 19.4592 7.38053C19.0646 7.71364 18.67 8.04676 18.2754 8.37987C17.7168 8.85135 17.1582 9.32796 16.5945 9.79944C16.205 10.1274 15.8258 10.4657 15.4363 10.7988C14.9648 11.1985 14.4882 11.5931 14.0218 11.9929C13.6477 12.3106 13.2787 12.6335 12.9046 12.9512C12.51 13.2843 12.1154 13.6174 11.7208 13.9505L11.3262 14.2837L11.4389 13.7814C11.3774 13.6174 11.5107 13.5457 11.5978 13.4688C11.9565 13.1716 12.3101 12.8641 12.6637 12.5617C13.494 11.8596 14.3191 11.1524 15.1493 10.4503C15.8616 9.84556 16.574 9.24084 17.2863 8.63611C17.9474 8.07238 18.6137 7.51378 19.2696 6.9398C19.3209 6.89367 19.4183 6.84243 19.2748 6.78605C19.5054 6.70406 19.7411 6.76555 19.9717 6.74505Z" fill="#A9A9A9"/>
<path d="M19.2796 6.78586C19.3308 6.79611 19.3923 6.76536 19.4487 6.81148C19.3154 7.01135 19.1156 7.13947 18.9362 7.29322C18.434 7.73395 17.9215 8.16443 17.4141 8.59492C16.9478 8.98953 16.4763 9.37902 16.0099 9.77363C15.5436 10.1682 15.0772 10.5782 14.6057 10.978C14.1342 11.3777 13.6679 11.7621 13.2015 12.1567C12.7352 12.5513 12.2688 12.9561 11.7973 13.361C11.659 13.484 11.4693 13.566 11.4335 13.7761C11.1875 13.8069 11.0542 14.0118 10.8749 14.1451C10.5879 14.3501 10.3675 14.6319 10.1061 14.8626C9.83965 15.0522 9.60391 15.2777 9.35792 15.4878C8.61994 16.113 7.8871 16.7434 7.14912 17.3635C7.04663 17.4506 6.95438 17.5531 6.84163 17.6248C6.79039 17.6556 6.74426 17.7171 6.67252 17.6658C6.66739 17.5326 6.69301 17.3993 6.74939 17.2815C7.11837 17.0457 7.42586 16.7331 7.75898 16.4564C8.67632 15.6877 9.58341 14.9087 10.4956 14.1348C11.4078 13.361 12.3047 12.5923 13.2118 11.8235C14.0984 11.0702 14.985 10.3169 15.8716 9.56351C16.7786 8.79479 17.6857 8.02607 18.5877 7.25222C18.7671 7.09847 18.9567 6.95498 19.1258 6.79099L19.2796 6.78586Z" fill="#A9A9A9"/>
<path d="M21.2748 6.82186C21.4849 6.81674 21.6848 6.87311 21.8898 6.89873C21.9461 7.02173 21.8385 7.06785 21.777 7.12422C21.5208 7.34972 21.2543 7.55983 21.0032 7.79045C20.9775 7.75458 20.9468 7.7187 20.9212 7.68283C20.8648 7.60083 20.8238 7.62133 20.7879 7.6982C20.4856 8.34905 19.9679 8.80004 19.3991 9.19977C18.7636 9.64563 18.0769 10.0197 17.3543 10.317C17.3133 10.2452 17.3133 10.2401 17.3799 10.1735C17.5183 10.03 17.6772 9.91212 17.8258 9.784C18.9174 8.85641 20.0089 7.93394 21.0954 6.9961C21.1569 6.94486 21.2133 6.88336 21.2748 6.82186Z" fill="#A9A9A9"/>
<path d="M21.2739 6.82238C21.2688 6.88387 21.2329 6.94537 21.1817 6.98125C20.4796 7.57572 19.7775 8.17533 19.0754 8.76981C18.5373 9.22591 18.0043 9.68715 17.4662 10.1484C17.4201 10.1894 17.3278 10.2201 17.3534 10.3175C17.0152 10.4764 16.6667 10.6199 16.3131 10.7377C16.1952 10.707 16.2926 10.6609 16.3131 10.6404C16.5232 10.4559 16.7333 10.2714 16.9486 10.092C17.3381 9.75889 17.7327 9.42578 18.1273 9.09267C18.5168 8.76468 18.9063 8.43669 19.2906 8.1087C19.675 7.78072 20.0645 7.4476 20.4488 7.11449C20.5718 7.00687 20.7256 6.92487 20.8076 6.77625C20.9664 6.766 21.1202 6.81725 21.2739 6.82238Z" fill="#A9A9A9"/>
<path d="M18.5527 11.4449C18.9576 11.2451 19.383 11.076 19.7366 10.7838C19.8083 10.7787 19.8032 10.8248 19.7827 10.871C19.4547 12.2239 18.4297 13.1156 17.0409 13.2437C16.7744 13.2694 16.5079 13.3001 16.2363 13.2745C16.2722 13.1771 16.3644 13.1823 16.4413 13.1618C16.7437 13.0798 17.0409 12.9926 17.3228 12.8491C17.8455 12.5775 18.2299 12.1778 18.4502 11.6294C18.4656 11.5577 18.5015 11.4911 18.5527 11.4449Z" fill="#646464"/>
<path d="M18.5486 11.4446C18.3795 12.0903 17.9695 12.5362 17.4007 12.859C17.0368 13.064 16.6319 13.1614 16.2322 13.2741C16.1348 12.9871 16.2425 12.7463 16.4116 12.5259C16.6114 12.2697 16.8882 12.1108 17.1803 11.9776C17.6262 11.7726 18.0823 11.5983 18.5486 11.4446Z" fill="#C0C0C0"/>
<path d="M6.66939 17.6611C6.89488 17.5791 7.0435 17.3843 7.22287 17.2357C7.80197 16.7591 8.37082 16.2722 8.93968 15.7905C9.24204 15.5343 9.53416 15.278 9.83139 15.0167C9.91339 14.9449 9.98514 14.868 10.103 14.8578C9.79552 15.2421 9.50341 15.6368 9.28304 16.0826C8.69369 16.5797 8.10433 17.082 7.52011 17.5842C7.24849 17.8148 6.97175 18.0403 6.70526 18.2812C6.66426 18.317 6.61814 18.3632 6.55664 18.3119C6.56689 18.0967 6.60276 17.8763 6.66939 17.6611Z" fill="#A9A9A9"/>
<path d="M8.92609 18.6961C8.74672 18.7115 8.66472 18.8703 8.54173 18.9677C8.03437 19.3777 7.54751 19.7979 7.05553 20.2233C6.89154 20.3668 6.73267 20.5103 6.55842 20.6435C6.44568 20.7306 6.39955 20.6948 6.40468 20.5615C6.40468 20.4026 6.40468 20.2438 6.40468 20.0798C6.58405 19.885 6.79416 19.7364 6.99403 19.5673C7.56801 19.0804 8.13174 18.5885 8.71597 18.1119C8.76722 18.0709 8.80822 17.994 8.89534 18.0452L8.92609 18.6961Z" fill="#A9A9A9"/>
<path d="M11.3965 14.8991C11.4016 14.8325 11.4375 14.7761 11.4939 14.7403C11.9551 14.3508 12.4163 13.9613 12.8776 13.5718C13.2568 13.2541 13.6309 12.9261 14.0101 12.6032C14.21 12.4341 14.4047 12.2598 14.5995 12.0907C14.6354 12.06 14.6712 12.0343 14.7071 12.0907C14.6661 12.265 14.6149 12.4392 14.62 12.6237C14.415 12.8492 14.1639 13.0286 13.9333 13.2284C13.2158 13.8434 12.4983 14.4533 11.7808 15.0631C11.7501 15.0887 11.7296 15.1195 11.704 15.1502C11.5656 15.1246 11.4477 15.0324 11.3965 14.8991Z" fill="#A9A9A9"/>
<path d="M6.55052 18.3171C6.71452 18.2658 6.81189 18.1223 6.94001 18.0198C7.61648 17.4612 8.27758 16.8924 8.94893 16.3235C9.05655 16.2364 9.1283 16.1031 9.28717 16.0878C9.16418 16.3901 9.06168 16.6976 8.97968 17.0102C8.86181 17 8.80031 17.0922 8.72344 17.1589C8.02647 17.7585 7.32437 18.3478 6.62739 18.9423C6.5864 18.9782 6.5454 19.0294 6.47877 19.0089C6.46852 18.7732 6.49415 18.5426 6.55052 18.3171Z" fill="#A9A9A9"/>
<path d="M11.7017 15.1501C11.6556 15.0629 11.7325 15.0373 11.7786 15.0015C12.3679 14.4992 12.9573 13.997 13.5467 13.4999C13.8798 13.218 14.2129 12.9362 14.5511 12.6543C14.5716 12.644 14.5972 12.6338 14.6229 12.6287C14.6229 12.7875 14.6485 12.9413 14.6946 13.0899C14.4947 13.3256 14.2385 13.4999 14.0079 13.6997C13.4903 14.1456 12.9727 14.5863 12.4448 15.0271C12.4089 15.0527 12.3782 15.0886 12.3679 15.1296C12.1476 15.2116 11.9272 15.2423 11.7017 15.1501Z" fill="#A9A9A9"/>
<path d="M8.88806 18.0504C8.67282 18.1734 8.49858 18.3528 8.30896 18.5116C7.80673 18.9216 7.31474 19.3418 6.82789 19.7672C6.69464 19.8851 6.57165 20.0132 6.40253 20.0901C6.42303 19.8851 6.36153 19.675 6.4384 19.4751C7.19687 18.8294 7.95535 18.1836 8.71894 17.5379C8.77019 17.4918 8.82656 17.4405 8.90344 17.4764L8.88806 18.0504Z" fill="#A9A9A9"/>
<path d="M8.90638 17.4714C8.66039 17.5995 8.4759 17.8045 8.26578 17.9788C7.76867 18.3888 7.28694 18.809 6.79496 19.219C6.68734 19.3112 6.61046 19.4547 6.44647 19.4701C6.46697 19.3164 6.40547 19.1575 6.48747 19.0089C6.96408 18.5989 7.44581 18.1889 7.92754 17.784C8.2504 17.5073 8.57839 17.2357 8.90638 16.9589C9.00888 16.8718 8.98325 16.9692 8.98838 17.0153C8.9525 17.1639 8.932 17.3177 8.90638 17.4714Z" fill="#A9A9A9"/>
<path d="M12.3682 15.1343C12.2964 15.083 12.3477 15.0472 12.3835 15.0113C12.8345 14.632 13.2906 14.2528 13.7416 13.8736C14.0235 13.6378 14.3002 13.397 14.5821 13.1561C14.6128 13.1202 14.6487 13.0997 14.6948 13.0895L14.8076 13.3201C14.7205 13.4585 14.577 13.5405 14.4745 13.6686C13.921 14.2836 13.2958 14.8012 12.5117 15.0984C12.4655 15.1138 12.4194 15.124 12.3682 15.1343Z" fill="#A9A9A9"/>
<path d="M21.0059 7.79552C21.0776 7.58028 21.3031 7.51366 21.4363 7.35991C21.5798 7.19592 21.8105 7.12417 21.8976 6.89868C22.0667 6.89868 22.2256 6.94481 22.3844 6.97043C22.5228 6.99605 22.5331 7.05755 22.4357 7.14467C22.2256 7.32917 22.0154 7.51878 21.8053 7.69815C21.6055 7.86727 21.4056 8.03639 21.2057 8.20551C21.134 8.06714 21.0674 7.92877 21.0059 7.79552Z" fill="#A9A9A9"/>
<path d="M11.5133 16.5593C11.5491 16.6464 11.4466 16.6874 11.4569 16.7642C11.4056 16.5285 11.2775 16.4414 11.0418 16.4875C10.7907 16.5439 10.5652 16.672 10.3961 16.8667C10.3499 16.918 10.2936 16.9641 10.2423 17.0102C10.2013 16.959 10.2423 16.9129 10.2577 16.8667C10.3602 16.5336 10.5857 16.2979 10.8675 16.1083C10.929 16.0621 11.0008 16.0314 11.0777 16.0109C11.4056 15.934 11.585 16.0929 11.5389 16.426C11.544 16.4721 11.5338 16.5183 11.5133 16.5593Z" fill="#C0C0C0"/>
<path d="M11.5124 16.5589C11.5124 16.5077 11.5175 16.4564 11.5175 16.4052C11.5226 16.0721 11.333 15.9439 11.0204 16.0874C10.6616 16.2514 10.4361 16.5435 10.2773 16.8972C10.2414 16.9023 10.2209 16.892 10.2312 16.851C10.3439 16.4308 10.5643 16.0874 10.9281 15.8414C11.0204 15.7799 11.1229 15.7441 11.2254 15.7236C11.3945 15.6877 11.5636 15.7902 11.6046 15.9593C11.661 16.1592 11.6302 16.3795 11.5124 16.5589Z" fill="#646464"/>
<path d="M14.4751 13.6689C14.4085 13.6177 14.47 13.5972 14.5007 13.5716C14.6084 13.4947 14.6699 13.3614 14.8031 13.3204C14.9774 13.5972 15.2541 13.7202 15.5462 13.8227C15.6026 13.8432 15.6641 13.8585 15.7615 13.8842C15.3156 14.002 14.9312 13.9559 14.5776 13.715C14.552 13.6843 14.5161 13.6689 14.4751 13.6689Z" fill="#A9A9A9"/>
<path d="M30.3193 14.4271C30.1758 14.4117 30.0733 14.3144 29.9452 14.2682C29.8939 14.2477 29.8478 14.1862 29.7966 14.2272C29.7556 14.2631 29.8222 14.3144 29.8068 14.3656C29.73 14.299 29.6992 14.1965 29.6582 14.0991C29.8888 14.1914 30.1143 14.2836 30.3193 14.4271Z" fill="#63657D"/>
<path d="M33.4609 16.5902C33.5019 16.5646 33.4609 16.5338 33.4661 16.5031L33.6864 16.626L33.8043 16.7798C33.6608 16.7388 33.5634 16.6568 33.4609 16.5902Z" fill="#263154"/>
<path d="M9.90039 31.3441C10.0183 31.3646 10.0746 31.4825 10.172 31.5337L10.1669 31.5799C10.0593 31.5286 9.96701 31.4466 9.90039 31.3441Z" fill="#424A7F"/>
<path d="M34.3125 24.0005L34.3791 24.0415C34.3894 24.1184 34.3535 24.185 34.3125 24.2772V24.0005Z" fill="#8CB7DE"/>
<path d="M24.6207 7.74438C24.6463 7.80076 24.7078 7.78026 24.7488 7.79563L24.5438 7.87763C24.5284 7.79051 24.5797 7.77001 24.6207 7.74438Z" fill="#5A5D76"/>
<path d="M10.2378 16.8512L10.2839 16.8973C10.2736 16.9332 10.2583 16.9742 10.248 17.0101L10.166 17.1177C10.1865 16.9896 10.1916 16.9127 10.2378 16.8512Z" fill="#4F668A"/>
<path d="M19.7805 10.8657C19.7702 10.835 19.7754 10.794 19.7344 10.7786C19.7446 10.7478 19.7805 10.7068 19.7959 10.7222C19.842 10.7683 19.8215 10.8196 19.7805 10.8657Z" fill="#555A73"/>
<path d="M6.82617 16.9689C6.87742 16.6922 6.93379 16.4154 7.05679 16.1592C7.50777 15.8415 7.90751 15.4622 8.32774 15.1086C9.05546 14.4936 9.78319 13.8787 10.5058 13.2586C11.1669 12.6948 11.828 12.1311 12.4942 11.5674C13.2117 10.9575 13.9292 10.3477 14.6466 9.73781C15.2975 9.18433 15.9535 8.63085 16.6043 8.07225C17.0604 7.68276 17.5268 7.2984 17.9726 6.89866C18.2135 6.84229 18.4544 6.81154 18.7004 6.82179C18.7209 6.80129 18.7516 6.80129 18.7772 6.81154C18.8336 6.90379 18.7619 6.95504 18.7055 7.00628C18.0854 7.52902 17.4704 8.05687 16.8503 8.58473C16.1892 9.14333 15.5332 9.70194 14.8721 10.2657C14.2623 10.7833 13.6575 11.3009 13.0477 11.8185C12.3097 12.4488 11.5666 13.0741 10.8235 13.7044C9.90106 14.4834 8.98372 15.2726 8.06125 16.0516C7.70252 16.3539 7.35403 16.6614 6.99017 16.9535C6.95942 16.9894 6.89792 17.1073 6.82617 16.9689Z" fill="#A9A9A9"/>
<path d="M17.9679 6.89868C17.9012 7.11392 17.6962 7.19592 17.5476 7.32917C17.0608 7.75965 16.5585 8.17476 16.0665 8.59499C15.5131 9.06135 14.9545 9.52771 14.401 9.99919C13.9192 10.4092 13.4478 10.8243 12.966 11.2343C12.4997 11.6289 12.0282 12.0184 11.5618 12.4181C11.0955 12.8178 10.6342 13.2176 10.1679 13.6122C9.70153 14.0068 9.23517 14.4014 8.76369 14.796C8.37933 15.124 8.00009 15.452 7.61573 15.78C7.46199 15.9132 7.30312 16.0413 7.14425 16.1695C7.10837 16.1951 7.07762 16.2105 7.04688 16.1695C7.10325 15.903 7.19037 15.6416 7.31337 15.4007C7.66698 15.1753 7.96422 14.8831 8.28196 14.6166C9.00968 14.0017 9.7374 13.3867 10.46 12.7666C11.2082 12.126 11.9616 11.4854 12.7098 10.8499C13.3299 10.3221 13.95 9.79932 14.565 9.27147C15.3696 8.58987 16.169 7.89802 16.9788 7.22154C17.0403 7.18055 17.0864 7.12417 17.112 7.06268C17.3939 6.94993 17.686 6.95505 17.9679 6.89868Z" fill="#A9A9A9"/>
<path d="M17.1221 7.05261C17.24 7.08336 17.1426 7.12948 17.1221 7.14998C16.9069 7.34473 16.6865 7.53947 16.461 7.72909C16.0715 8.05708 15.6821 8.38506 15.2926 8.71305C14.7237 9.18966 14.1549 9.67139 13.586 10.1531C13.1196 10.5477 12.6584 10.9526 12.1921 11.3472C11.7103 11.7572 11.2286 12.162 10.7469 12.5669C10.2805 12.9615 9.81927 13.3613 9.35291 13.761C8.88655 14.1556 8.42019 14.5502 7.95384 14.9448C7.78472 15.0883 7.6156 15.2318 7.44135 15.3753C7.40548 15.4009 7.36961 15.4676 7.31836 15.3958C7.36961 15.1344 7.50798 14.9038 7.62585 14.6681C8.2562 14.13 8.89168 13.5919 9.52715 13.0486C10.178 12.49 10.834 11.9366 11.4848 11.3831C12.1101 10.8501 12.7302 10.3222 13.3554 9.79439C14.0114 9.23578 14.6725 8.67205 15.3284 8.11345C15.6667 7.82646 15.9998 7.5241 16.3534 7.24223C16.5943 7.12948 16.8608 7.09874 17.1221 7.05261Z" fill="#A9A9A9"/>
<path d="M16.3565 7.24194C16.1105 7.55968 15.7825 7.78005 15.4852 8.04141C15.0958 8.37965 14.7011 8.71276 14.3065 9.04588C13.9222 9.36874 13.5378 9.6916 13.1535 10.0196C12.7691 10.3476 12.3899 10.6756 12.0055 10.9984C11.6211 11.3264 11.2265 11.6544 10.837 11.9824C10.4578 12.3053 10.0837 12.6281 9.70445 12.951C9.22272 13.361 8.74099 13.7658 8.25926 14.1707C8.09014 14.3142 7.9159 14.4577 7.74678 14.6012C7.71603 14.6319 7.67503 14.6524 7.62891 14.6575C7.7519 14.3347 7.90565 14.0272 8.09014 13.7351C8.96648 13.0227 9.82233 12.2796 10.6833 11.5468C11.6826 10.6961 12.682 9.8556 13.6762 8.99975C14.2348 8.51802 14.819 8.05679 15.3622 7.54943C15.68 7.42131 16.0131 7.31882 16.3565 7.24194Z" fill="#A9A9A9"/>
<path d="M15.3588 7.55505C15.3998 7.62168 15.328 7.64218 15.2973 7.67292C14.8719 8.04704 14.4414 8.41602 14.011 8.78501C13.6317 9.10787 13.2525 9.42561 12.8732 9.74847C12.4018 10.1482 11.9303 10.5479 11.4588 10.9426C11.0744 11.2705 10.6952 11.5985 10.3108 11.9214C9.82911 12.3314 9.34738 12.7362 8.87077 13.1411C8.6709 13.3102 8.47103 13.4845 8.27629 13.6536C8.22504 13.7048 8.15842 13.7356 8.0918 13.7458C8.32754 13.2692 8.61453 12.8182 8.93739 12.4031C9.23463 12.1828 9.50625 11.9316 9.78811 11.6959C10.521 11.0758 11.2487 10.4557 11.9764 9.83559C12.5401 9.35386 13.1039 8.87213 13.6676 8.39552C13.7547 8.32378 13.8623 8.27253 13.929 8.17516C14.3799 7.89329 14.8719 7.7293 15.3588 7.55505Z" fill="#A9A9A9"/>
<path d="M23.464 24.6978C23.0796 25.0155 22.6952 25.3384 22.1828 25.5587C22.3314 25.2615 22.4441 24.9489 22.521 24.626C22.8234 23.2936 22.5415 22.079 21.7574 20.9771C21.5627 20.7055 21.3013 20.4954 21.0707 20.2545C21.0348 20.2135 20.9938 20.1674 20.9272 20.1982C20.8554 20.1623 20.8247 20.0957 20.7734 20.0444C20.8042 20.0034 20.8401 20.0239 20.8759 20.0444C21.8035 20.5723 22.5774 21.2539 23.054 22.2327C23.2846 22.7144 23.4281 23.2372 23.4742 23.7702C23.505 24.0776 23.4998 24.3903 23.464 24.6978Z" fill="#A3A3A3"/>
<path d="M6.82687 16.9689C6.98062 17.0253 7.03186 16.8715 7.10874 16.81C7.88771 16.1643 8.65643 15.5083 9.42515 14.8472C10.1529 14.2271 10.8703 13.6019 11.5981 12.9818C12.4078 12.2951 13.2226 11.6135 14.0375 10.9267C14.7652 10.3066 15.4878 9.68141 16.2155 9.06131C16.9996 8.39508 17.7837 7.72373 18.5729 7.05238C18.6549 6.98576 18.7677 6.94988 18.7831 6.82176C18.8292 6.78076 18.8907 6.82689 18.9368 6.78589H19.1315C19.0752 6.99088 18.8753 7.06263 18.7369 7.18562C18.3372 7.54436 17.9221 7.8826 17.5172 8.22596C17.0509 8.62057 16.5794 9.01518 16.113 9.40979C15.7338 9.73266 15.3597 10.0555 14.9804 10.3784C14.4218 10.8499 13.8581 11.3213 13.3046 11.798C12.9254 12.1208 12.5513 12.4437 12.172 12.7665C11.6903 13.1765 11.2086 13.5814 10.7269 13.9862C10.3476 14.3091 9.97351 14.632 9.59427 14.9548C9.20478 15.2828 8.8153 15.6108 8.42581 15.9388C8.03633 16.2668 7.65197 16.605 7.26248 16.933C7.12924 17.0458 6.98574 17.1585 6.84737 17.2713C6.81662 17.2969 6.78587 17.3174 6.75 17.2713C6.75 17.1739 6.77562 17.0663 6.82687 16.9689Z" fill="#A9A9A9"/>
<path d="M13.9322 8.16455C13.9015 8.34904 13.7221 8.39517 13.6094 8.49766C13.2148 8.85128 12.8099 9.18439 12.405 9.52775C11.9336 9.92749 11.4621 10.3221 10.9906 10.7218C10.6114 11.0447 10.2372 11.3676 9.85801 11.6904C9.58127 11.9262 9.30966 12.1619 9.03292 12.3976C9.00217 12.4233 8.97142 12.4438 8.93555 12.3976C9.13541 12.0902 9.36091 11.798 9.6069 11.5213C10.5089 10.4707 11.539 9.5585 12.7177 8.82565C13.1123 8.58479 13.5018 8.33367 13.9322 8.16455Z" fill="#A9A9A9"/>
<path d="M20.5836 6.78606C20.4555 6.77069 20.3222 6.82706 20.1992 6.75019C20.3273 6.76556 20.4606 6.70919 20.5836 6.78606Z" fill="#A9A9A9"/>
<path d="M18.9318 6.78645C18.8908 6.84282 18.8293 6.8172 18.778 6.82232H18.7012C18.7729 6.7557 18.8549 6.7967 18.9318 6.78645Z" fill="#A9A9A9"/>
<path d="M15.2402 33.5376C16.4958 33.594 17.7463 33.3941 18.9199 32.9585C20.0627 32.5434 21.1286 31.9438 22.0767 31.1802C23.0043 30.4268 23.8038 29.5659 24.3368 28.4845C24.6238 27.9054 24.8031 27.2802 24.8595 26.6396C24.9108 26.0605 24.8134 25.5121 24.6545 24.9689C24.6699 24.8357 24.7929 24.7742 24.8646 24.6819C25.1414 24.3181 25.3412 23.9286 25.4284 23.4776C25.4437 23.4161 25.4642 23.3597 25.4899 23.3033C25.6641 23.6518 25.8025 24.0157 25.8998 24.3898C26.0331 24.9177 26.11 25.4558 26.069 25.999C25.9972 26.942 25.7154 27.8593 25.2439 28.6793C24.7724 29.5095 24.1677 30.2167 23.4707 30.8522C22.8557 31.4005 22.1792 31.8772 21.4515 32.2615C20.5752 32.7381 19.6424 33.0917 18.6687 33.3224C18.064 33.4658 17.4439 33.553 16.8238 33.5888C16.5214 33.6042 16.2242 33.6298 15.927 33.6145C15.7066 33.594 15.4709 33.6093 15.2402 33.5376Z" fill="#A3A3A3"/>
<path d="M56.4922 19.8027C56.4922 20.5176 56.4248 21.165 56.29 21.7451C56.1553 22.3193 55.9678 22.8379 55.7275 23.3008C55.4932 23.7578 55.2148 24.1621 54.8926 24.5137C54.5703 24.8594 54.2217 25.1582 53.8467 25.4102C53.4717 25.6562 53.0791 25.8613 52.6689 26.0254C52.2646 26.1836 51.8574 26.3037 51.4473 26.3857C51.541 26.5908 51.6406 26.7988 51.7461 27.0098C51.8574 27.2266 51.9893 27.4404 52.1416 27.6514C52.2939 27.8623 52.4756 28.0732 52.6865 28.2842C52.9033 28.4951 53.1641 28.7031 53.4688 28.9082C53.7793 29.1133 54.1426 29.3125 54.5586 29.5059C54.9805 29.7051 55.4727 29.8955 56.0352 30.0771C56.0879 30.1475 56.1143 30.2207 56.1143 30.2969C56.1143 30.3906 56.0938 30.4551 56.0527 30.4902C55.2676 30.4902 54.4941 30.4111 53.7324 30.2529C52.9766 30.0947 52.2646 29.8486 51.5967 29.5146C50.9346 29.1865 50.334 28.7676 49.7949 28.2578C49.2559 27.7539 48.8105 27.1504 48.459 26.4473C48.0547 26.3828 47.6445 26.2803 47.2285 26.1396C46.8125 25.9932 46.4082 25.8027 46.0156 25.5684C45.623 25.3281 45.2539 25.0381 44.9082 24.6982C44.5625 24.3525 44.2607 23.9453 44.0029 23.4766C43.7451 23.0078 43.54 22.4688 43.3877 21.8594C43.2412 21.25 43.168 20.5645 43.168 19.8027C43.168 18.877 43.2764 18.0654 43.4932 17.3682C43.7158 16.6709 44.0088 16.0703 44.3721 15.5664C44.7354 15.0625 45.1484 14.6465 45.6113 14.3184C46.0801 13.9844 46.5605 13.7207 47.0527 13.5273C47.5449 13.334 48.0312 13.1992 48.5117 13.123C48.998 13.041 49.4375 13 49.8301 13C50.2637 13 50.7266 13.0439 51.2188 13.1318C51.7168 13.2139 52.2119 13.3574 52.7041 13.5625C53.2021 13.7676 53.6768 14.04 54.1279 14.3799C54.585 14.7139 54.9893 15.1328 55.3408 15.6367C55.6924 16.1406 55.9707 16.7354 56.1758 17.4209C56.3867 18.1064 56.4922 18.9004 56.4922 19.8027ZM54.1631 19.8027C54.1631 19.3516 54.1309 18.8857 54.0664 18.4053C54.0078 17.9248 53.9082 17.4561 53.7676 16.999C53.6328 16.542 53.4541 16.1113 53.2314 15.707C53.0088 15.2969 52.7363 14.9395 52.4141 14.6348C52.0918 14.3242 51.7168 14.0781 51.2891 13.8965C50.8613 13.7148 50.375 13.624 49.8301 13.624C49.2793 13.624 48.79 13.7148 48.3623 13.8965C47.9346 14.0781 47.5596 14.3242 47.2373 14.6348C46.915 14.9395 46.6426 15.2969 46.4199 15.707C46.1973 16.1113 46.0156 16.542 45.875 16.999C45.7402 17.4561 45.6406 17.9248 45.5762 18.4053C45.5176 18.8857 45.4883 19.3516 45.4883 19.8027C45.4883 20.2363 45.5176 20.6875 45.5762 21.1562C45.6348 21.625 45.7314 22.0879 45.8662 22.5449C46.001 22.9961 46.1768 23.4268 46.3936 23.8369C46.6162 24.2471 46.8887 24.6074 47.2109 24.918C47.5332 25.2285 47.9082 25.4775 48.3359 25.665C48.7695 25.8467 49.2676 25.9375 49.8301 25.9375C50.3809 25.9375 50.8701 25.8496 51.2979 25.6738C51.7256 25.4922 52.1006 25.249 52.4229 24.9443C52.7451 24.6338 53.0146 24.2764 53.2314 23.8721C53.4541 23.4619 53.6328 23.0312 53.7676 22.5801C53.9082 22.123 54.0078 21.6572 54.0664 21.1826C54.1309 20.708 54.1631 20.248 54.1631 19.8027Z" fill="white"/>
<path d="M58.0566 13.29C59.0469 13.3252 60.0664 13.3428 61.1152 13.3428C62.1699 13.3428 63.1895 13.3252 64.1738 13.29C64.1973 13.3838 64.209 13.4482 64.209 13.4834C64.209 13.5244 64.1973 13.5977 64.1738 13.7031C63.998 13.7207 63.8574 13.7354 63.752 13.7471C63.6465 13.7588 63.5 13.7793 63.3125 13.8086C63.1309 13.8379 62.9814 13.873 62.8643 13.9141C62.7529 13.9492 62.6357 13.9961 62.5127 14.0547C62.3896 14.1133 62.2959 14.1836 62.2314 14.2656C62.1729 14.3477 62.1436 14.4414 62.1436 14.5469C62.1201 15.3262 62.1084 17.4678 62.1084 20.9717C62.1084 22.6416 62.3867 23.8545 62.9434 24.6104C63.5059 25.3662 64.458 25.7441 65.7998 25.7441C67.1533 25.7441 68.1963 25.334 68.9287 24.5137C69.6611 23.6875 70.0273 22.5068 70.0273 20.9717C70.0273 18.1768 70.0098 16.0762 69.9746 14.6699C69.9629 14.1426 69.3154 13.8203 68.0322 13.7031C68.0088 13.5742 67.9971 13.4951 67.9971 13.4658C67.9971 13.4189 68.0088 13.3604 68.0322 13.29C68.9639 13.3252 69.7959 13.3428 70.5283 13.3428C70.9971 13.3428 71.7852 13.3252 72.8926 13.29C72.916 13.3604 72.9277 13.4189 72.9277 13.4658C72.9277 13.5596 72.916 13.6387 72.8926 13.7031C71.6211 13.8203 70.9707 14.1426 70.9414 14.6699C70.8828 16.0645 70.8535 18.165 70.8535 20.9717C70.8535 21.8271 70.7422 22.5918 70.5195 23.2656C70.2969 23.9336 70.0127 24.4697 69.667 24.874C69.3213 25.2783 68.917 25.6123 68.4541 25.876C67.9971 26.1396 67.5547 26.3213 67.127 26.4209C66.6992 26.5205 66.2686 26.5703 65.835 26.5703C65.2549 26.5703 64.7334 26.5381 64.2705 26.4736C63.8076 26.4092 63.3564 26.3008 62.917 26.1484C62.4775 25.9902 62.0967 25.7734 61.7744 25.498C61.4521 25.2168 61.168 24.874 60.9219 24.4697C60.6758 24.0654 60.4912 23.5703 60.3682 22.9844C60.2451 22.3984 60.1836 21.7275 60.1836 20.9717V19.5303C60.1836 17.5674 60.1514 15.9062 60.0869 14.5469C60.0811 14.3945 60.0137 14.2656 59.8848 14.1602C59.7559 14.0488 59.5684 13.9639 59.3223 13.9053C59.082 13.8467 58.877 13.8057 58.707 13.7822C58.543 13.7529 58.3262 13.7266 58.0566 13.7031C58.0332 13.5977 58.0215 13.5244 58.0215 13.4834C58.0215 13.4482 58.0332 13.3838 58.0566 13.29Z" fill="white"/>
<path d="M73.8857 13.29C75.1982 13.3369 76.2178 13.3604 76.9443 13.3604C77.6709 13.3604 78.6904 13.3369 80.0029 13.29C80.0264 13.3838 80.0381 13.4482 80.0381 13.4834C80.0381 13.5479 80.0264 13.6211 80.0029 13.7031C79.7334 13.7266 79.5137 13.7529 79.3438 13.7822C79.1797 13.8057 78.9746 13.8467 78.7285 13.9053C78.4883 13.9639 78.3037 14.0488 78.1748 14.1602C78.0459 14.2656 77.9785 14.3945 77.9727 14.5469C77.8965 16.5391 77.8584 18.3936 77.8584 20.1104C77.8584 21.3643 77.8906 22.9961 77.9551 25.0059C77.9609 25.1582 78.0283 25.29 78.1572 25.4014C78.2861 25.5068 78.4707 25.5889 78.7109 25.6475C78.957 25.7061 79.1621 25.75 79.3262 25.7793C79.4961 25.8027 79.7158 25.8262 79.9854 25.8496C80.0088 25.9199 80.0205 25.999 80.0205 26.0869C80.0205 26.1338 80.0088 26.1924 79.9854 26.2627C78.9893 26.2275 77.9697 26.21 76.9268 26.21C75.8721 26.21 74.8525 26.2275 73.8682 26.2627C73.8447 26.1924 73.833 26.1338 73.833 26.0869C73.833 25.9873 73.8447 25.9082 73.8682 25.8496C74.0439 25.832 74.1846 25.8174 74.29 25.8057C74.3955 25.7939 74.5391 25.7734 74.7207 25.7441C74.9082 25.7148 75.0576 25.6826 75.1689 25.6475C75.2861 25.6064 75.4062 25.5566 75.5293 25.498C75.6523 25.4395 75.7432 25.3691 75.8018 25.2871C75.8662 25.2051 75.8984 25.1113 75.8984 25.0059C75.9688 23.1719 76.0039 21.3232 76.0039 19.46C76.0039 17.5615 75.9746 15.9238 75.916 14.5469C75.9102 14.3945 75.8428 14.2656 75.7139 14.1602C75.585 14.0488 75.3975 13.9639 75.1514 13.9053C74.9111 13.8467 74.7061 13.8057 74.5361 13.7822C74.3721 13.7529 74.1553 13.7266 73.8857 13.7031C73.8623 13.5977 73.8506 13.5244 73.8506 13.4834C73.8506 13.4248 73.8623 13.3604 73.8857 13.29Z" fill="white"/>
<path d="M88.502 13C88.9648 13 89.4248 13.0322 89.8818 13.0967C90.3447 13.1553 90.7871 13.2285 91.209 13.3164C91.6367 13.3984 92.041 13.4805 92.4219 13.5625C92.8027 13.6445 93.1455 13.7031 93.4502 13.7383C93.3799 13.9492 93.3447 14.3213 93.3447 14.8545C93.3447 15.8916 93.5 16.791 93.8105 17.5527C93.7754 17.6582 93.667 17.7227 93.4854 17.7461L93.1074 16.9375C92.9199 16.5332 92.6943 16.1348 92.4307 15.7422C92.167 15.3438 91.8506 14.9893 91.4814 14.6787C91.1123 14.3623 90.6816 14.1074 90.1895 13.9141C89.7031 13.7207 89.1406 13.624 88.502 13.624C87.9512 13.624 87.4619 13.7148 87.0342 13.8965C86.6064 14.0781 86.2314 14.3242 85.9092 14.6348C85.5869 14.9395 85.3145 15.2969 85.0918 15.707C84.8691 16.1113 84.6875 16.542 84.5469 16.999C84.4121 17.4561 84.3125 17.9248 84.248 18.4053C84.1895 18.8857 84.1602 19.3516 84.1602 19.8027C84.1602 20.5527 84.2568 21.2705 84.4502 21.9561C84.6494 22.6416 84.957 23.248 85.373 23.7754C85.7891 24.2969 86.3164 24.7129 86.9551 25.0234C87.5996 25.334 88.3672 25.4893 89.2578 25.4893C90.9629 25.4893 92.252 24.9561 93.125 23.8896C93.2188 23.8896 93.2949 23.916 93.3535 23.9688C93.418 24.0215 93.4502 24.0859 93.4502 24.1621C93.1689 24.5781 92.8262 24.9385 92.4219 25.2432C92.0234 25.5479 91.5986 25.7998 91.1475 25.999C90.6963 26.1924 90.2393 26.3359 89.7764 26.4297C89.3193 26.5234 88.8945 26.5703 88.502 26.5703C88.0742 26.5703 87.6113 26.5234 87.1133 26.4297C86.6211 26.3418 86.126 26.1924 85.6279 25.9814C85.1357 25.7705 84.6611 25.4951 84.2041 25.1553C83.7529 24.8096 83.3516 24.3877 83 23.8896C82.6484 23.3857 82.3672 22.7969 82.1562 22.123C81.9453 21.4492 81.8398 20.6758 81.8398 19.8027C81.8398 18.9238 81.9453 18.1475 82.1562 17.4736C82.3672 16.7939 82.6484 16.2021 83 15.6982C83.3574 15.1943 83.7646 14.7725 84.2217 14.4326C84.6846 14.0869 85.1621 13.8086 85.6543 13.5977C86.1465 13.3809 86.6387 13.2285 87.1309 13.1406C87.623 13.0469 88.0801 13 88.502 13Z" fill="white"/>
<path d="M94.9971 13.29C96.3096 13.3369 97.3291 13.3604 98.0557 13.3604C98.7822 13.3604 99.8018 13.3369 101.114 13.29C101.138 13.3838 101.149 13.4482 101.149 13.4834C101.149 13.5479 101.138 13.6211 101.114 13.7031C100.845 13.7266 100.625 13.7529 100.455 13.7822C100.291 13.8057 100.086 13.8467 99.8398 13.9053C99.5996 13.9639 99.415 14.0488 99.2861 14.1602C99.1572 14.2656 99.0898 14.3945 99.084 14.5469C99.0078 16.2812 98.9697 17.8838 98.9697 19.3545H99.2246L104.208 14.5469C104.284 14.4355 104.322 14.3506 104.322 14.292C104.322 14.1807 104.29 14.0898 104.226 14.0195C104.167 13.9434 104.056 13.8877 103.892 13.8525C103.733 13.8115 103.572 13.7822 103.408 13.7646C103.25 13.7471 103.013 13.7266 102.696 13.7031C102.673 13.5977 102.661 13.5244 102.661 13.4834C102.661 13.4482 102.673 13.3838 102.696 13.29C104.021 13.3369 104.891 13.3604 105.307 13.3604C105.594 13.3604 106.399 13.3369 107.724 13.29C107.747 13.3838 107.759 13.4482 107.759 13.4834C107.759 13.5244 107.747 13.5977 107.724 13.7031C107.472 13.7266 107.27 13.75 107.117 13.7734C106.971 13.7969 106.78 13.8379 106.546 13.8965C106.317 13.9492 106.098 14.0312 105.887 14.1426C105.682 14.248 105.482 14.3828 105.289 14.5469L100.754 18.8623L106.335 24.54C107.272 25.3779 108.096 25.8145 108.805 25.8496C108.828 25.9434 108.84 26.0225 108.84 26.0869C108.84 26.1572 108.828 26.2217 108.805 26.2803C107.955 26.2334 107.018 26.21 105.992 26.21C105.072 26.21 103.962 26.2334 102.661 26.2803C102.638 26.21 102.626 26.1396 102.626 26.0693C102.626 25.9932 102.638 25.9199 102.661 25.8496C103.229 25.832 103.604 25.7822 103.786 25.7002C103.974 25.6123 104.067 25.4629 104.067 25.252C104.067 25.1758 104.047 25.1025 104.006 25.0322C103.965 24.9619 103.892 24.8711 103.786 24.7598C103.687 24.6426 103.625 24.5693 103.602 24.54L99.3125 20.0928L98.9697 20.1104C98.9697 21.3643 99.002 22.9961 99.0664 25.0059C99.0723 25.1582 99.1396 25.29 99.2686 25.4014C99.3975 25.5068 99.582 25.5889 99.8223 25.6475C100.068 25.7061 100.273 25.75 100.438 25.7793C100.607 25.8027 100.827 25.8262 101.097 25.8496C101.12 25.9199 101.132 25.999 101.132 26.0869C101.132 26.1338 101.12 26.1924 101.097 26.2627C100.101 26.2275 99.0811 26.21 98.0381 26.21C96.9834 26.21 95.9639 26.2275 94.9795 26.2627C94.9561 26.1924 94.9443 26.1338 94.9443 26.0869C94.9443 25.9873 94.9561 25.9082 94.9795 25.8496C95.1553 25.832 95.2959 25.8174 95.4014 25.8057C95.5068 25.7939 95.6504 25.7734 95.832 25.7441C96.0195 25.7148 96.1689 25.6826 96.2803 25.6475C96.3975 25.6064 96.5176 25.5566 96.6406 25.498C96.7637 25.4395 96.8545 25.3691 96.9131 25.2871C96.9775 25.2051 97.0098 25.1113 97.0098 25.0059C97.0801 23.1719 97.1152 21.3232 97.1152 19.46C97.1152 17.5615 97.0859 15.9238 97.0273 14.5469C97.0215 14.3945 96.9541 14.2656 96.8252 14.1602C96.6963 14.0488 96.5088 13.9639 96.2627 13.9053C96.0225 13.8467 95.8174 13.8057 95.6475 13.7822C95.4834 13.7529 95.2666 13.7266 94.9971 13.7031C94.9736 13.5977 94.9619 13.5244 94.9619 13.4834C94.9619 13.4248 94.9736 13.3604 94.9971 13.29Z" fill="white"/>
<path d="M117.831 17.0078C117.608 15.9355 117.198 15.1035 116.601 14.5117C116.009 13.9199 115.297 13.624 114.465 13.624C113.65 13.624 113.018 13.8174 112.566 14.2041C112.121 14.5908 111.898 15.1064 111.898 15.751C111.898 16.1084 111.931 16.4043 111.995 16.6387C112.06 16.873 112.191 17.1016 112.391 17.3242C112.59 17.541 112.88 17.7344 113.261 17.9043C113.642 18.0684 114.14 18.2266 114.755 18.3789C115.089 18.4609 115.379 18.5371 115.625 18.6074C115.877 18.6777 116.152 18.7744 116.451 18.8975C116.756 19.0205 117.017 19.1523 117.233 19.293C117.456 19.4336 117.676 19.6094 117.893 19.8203C118.115 20.0254 118.294 20.2539 118.429 20.5059C118.569 20.7578 118.681 21.0566 118.763 21.4023C118.851 21.7422 118.895 22.1143 118.895 22.5186C118.895 23.0576 118.795 23.5557 118.596 24.0127C118.396 24.4639 118.136 24.8447 117.813 25.1553C117.491 25.4658 117.119 25.7295 116.697 25.9463C116.275 26.1631 115.848 26.3213 115.414 26.4209C114.98 26.5205 114.55 26.5703 114.122 26.5703C112.821 26.5703 111.436 26.2334 109.965 25.5596C109.994 24.9268 110.009 24.5371 110.009 24.3906C110.009 23.4355 109.93 22.4834 109.771 21.5342C109.836 21.4932 109.9 21.4727 109.965 21.4727C110.047 21.4727 110.12 21.4932 110.185 21.5342C110.308 22.29 110.51 22.958 110.791 23.5381C111.078 24.1182 111.406 24.5781 111.775 24.918C112.145 25.252 112.525 25.5039 112.918 25.6738C113.316 25.8379 113.718 25.9199 114.122 25.9199C115.042 25.9199 115.748 25.6826 116.24 25.208C116.738 24.7275 116.987 24.0947 116.987 23.3096C116.987 22.5186 116.803 21.9238 116.434 21.5254C116.07 21.1211 115.373 20.793 114.342 20.541C113.053 20.2188 112.045 19.7441 111.318 19.1172C110.598 18.4844 110.237 17.6494 110.237 16.6123C110.237 16.0674 110.325 15.5811 110.501 15.1533C110.683 14.7197 110.914 14.374 111.195 14.1162C111.482 13.8525 111.816 13.6357 112.197 13.4658C112.578 13.29 112.953 13.1699 113.322 13.1055C113.697 13.0352 114.078 13 114.465 13C115.625 13 116.832 13.2695 118.086 13.8086C118.051 14.1543 118.033 14.5146 118.033 14.8896C118.033 15.7686 118.104 16.4746 118.244 17.0078C118.168 17.0371 118.104 17.0518 118.051 17.0518C117.992 17.0518 117.919 17.0371 117.831 17.0078Z" fill="white"/>
<path d="M120.011 13.29C121.265 13.3369 122.249 13.3604 122.964 13.3604C123.649 13.3604 124.405 13.3369 125.231 13.29C125.255 13.3838 125.267 13.4482 125.267 13.4834C125.267 13.5479 125.255 13.6211 125.231 13.7031C124.722 13.7266 124.37 13.791 124.177 13.8965C123.989 13.9961 123.896 14.1279 123.896 14.292C123.896 14.3389 123.901 14.3945 123.913 14.459C123.931 14.5176 125.12 17.4561 127.481 23.2744H127.569L129.283 18.7041L127.736 14.7842C127.49 14.1514 126.901 13.791 125.97 13.7031C125.946 13.5977 125.935 13.5244 125.935 13.4834C125.935 13.4248 125.946 13.3604 125.97 13.29C126.796 13.3369 127.713 13.3604 128.721 13.3604C129.646 13.3604 130.522 13.3369 131.349 13.29C131.372 13.3838 131.384 13.4482 131.384 13.4834C131.384 13.5479 131.372 13.6211 131.349 13.7031C130.64 13.7266 130.18 13.7822 129.969 13.8701C129.764 13.9521 129.661 14.1104 129.661 14.3447C129.661 14.3506 129.702 14.4971 129.784 14.7842L133.027 23.2744H133.115L136.323 14.6699C136.358 14.582 136.376 14.4678 136.376 14.3271C136.376 14.1396 136.262 14.0049 136.033 13.9229C135.805 13.835 135.433 13.7617 134.917 13.7031C134.894 13.5742 134.882 13.4951 134.882 13.4658C134.882 13.4189 134.894 13.3604 134.917 13.29C135.638 13.3252 136.326 13.3428 136.982 13.3428C137.621 13.3428 138.251 13.3252 138.872 13.29C138.896 13.3604 138.907 13.4189 138.907 13.4658C138.907 13.5596 138.896 13.6387 138.872 13.7031C138.456 13.7441 138.11 13.832 137.835 13.9668C137.565 14.1016 137.354 14.3359 137.202 14.6699L132.737 26.4648H132.342L129.696 19.7676L127.191 26.4648H126.796L121.971 14.7842C121.713 14.1631 121.06 13.8027 120.011 13.7031C119.987 13.5977 119.976 13.5244 119.976 13.4834C119.976 13.4248 119.987 13.3604 120.011 13.29Z" fill="white"/>
<path d="M145.771 13.1582C145.859 13.0938 145.953 13.0527 146.053 13.0352L150.86 25.041C150.919 25.1875 151.016 25.3135 151.15 25.4189C151.285 25.5186 151.452 25.5977 151.651 25.6562C151.856 25.709 152.032 25.75 152.179 25.7793C152.331 25.8027 152.516 25.8262 152.732 25.8496C152.756 25.9434 152.768 26.0225 152.768 26.0869C152.768 26.1572 152.756 26.2217 152.732 26.2803C151.467 26.2334 150.521 26.21 149.894 26.21C149.214 26.21 148.229 26.2334 146.94 26.2803C146.917 26.21 146.905 26.1396 146.905 26.0693C146.905 25.9932 146.917 25.9199 146.94 25.8496C148.124 25.7207 148.716 25.498 148.716 25.1816C148.716 25.082 148.704 24.9795 148.681 24.874L147.406 21.6045C147.02 21.5928 146.498 21.5869 145.842 21.5869C145.531 21.5869 144.726 21.5986 143.425 21.6221L142.08 25.041V25.1465C142.08 25.2051 142.089 25.2607 142.106 25.3135C142.13 25.3662 142.165 25.4131 142.212 25.4541C142.265 25.4951 142.314 25.5303 142.361 25.5596C142.408 25.5889 142.473 25.6182 142.555 25.6475C142.643 25.6709 142.716 25.6914 142.774 25.709C142.839 25.7207 142.924 25.7354 143.029 25.7529C143.141 25.7705 143.226 25.7852 143.284 25.7969C143.343 25.8027 143.428 25.8115 143.539 25.8232C143.656 25.835 143.738 25.8438 143.785 25.8496C143.809 25.9434 143.82 26.0225 143.82 26.0869C143.82 26.1221 143.809 26.1865 143.785 26.2803C142.473 26.2334 141.734 26.21 141.57 26.21C141.254 26.21 140.439 26.2334 139.127 26.2803C139.104 26.21 139.092 26.1396 139.092 26.0693C139.092 25.9932 139.104 25.9199 139.127 25.8496C140.346 25.709 141.04 25.4102 141.21 24.9531L144.989 15.4258L144.796 14.9072C145.13 14.6846 145.361 14.4443 145.49 14.1865C145.625 13.9287 145.719 13.5859 145.771 13.1582ZM145.842 20.9014C146.381 20.9014 146.806 20.8955 147.116 20.8838L145.446 16.5596H145.411L143.732 20.8662C144.283 20.8896 144.986 20.9014 145.842 20.9014Z" fill="white"/>
<path d="M155.896 20.251C155.896 19.8291 155.867 17.8984 155.809 14.459C155.791 14.3242 155.721 14.21 155.598 14.1162C155.48 14.0166 155.308 13.9404 155.079 13.8877C154.851 13.835 154.663 13.7969 154.517 13.7734C154.376 13.75 154.177 13.7266 153.919 13.7031C153.896 13.5977 153.884 13.5244 153.884 13.4834C153.884 13.4482 153.896 13.3838 153.919 13.29C154.071 13.2959 154.435 13.3105 155.009 13.334C155.583 13.3516 156.025 13.3604 156.336 13.3604C156.6 13.3604 157.098 13.3486 157.83 13.3252C158.562 13.3018 159.09 13.29 159.412 13.29C160.912 13.29 162.058 13.6387 162.849 14.3359C163.64 15.0332 164.035 15.9619 164.035 17.1221C164.035 18.2236 163.681 19.123 162.972 19.8203C162.263 20.5176 161.255 20.8662 159.948 20.8662C159.163 20.8662 158.457 20.7021 157.83 20.374C157.83 21.8037 157.848 23.3477 157.883 25.0059C157.889 25.1582 157.956 25.29 158.085 25.4014C158.214 25.5068 158.398 25.5889 158.639 25.6475C158.885 25.7061 159.09 25.75 159.254 25.7793C159.424 25.8027 159.644 25.8262 159.913 25.8496C159.937 25.9668 159.948 26.0459 159.948 26.0869C159.948 26.1338 159.937 26.1924 159.913 26.2627C158.917 26.2275 157.897 26.21 156.854 26.21C155.8 26.21 154.78 26.2275 153.796 26.2627C153.772 26.1924 153.761 26.1338 153.761 26.0869C153.761 25.9873 153.772 25.9082 153.796 25.8496C154.065 25.8262 154.282 25.8027 154.446 25.7793C154.616 25.75 154.821 25.7061 155.062 25.6475C155.308 25.5889 155.495 25.5068 155.624 25.4014C155.753 25.29 155.82 25.1582 155.826 25.0059C155.873 23.5 155.896 21.915 155.896 20.251ZM157.883 13.8965C157.848 16.0059 157.83 17.9688 157.83 19.7852C158.311 20.002 158.788 20.1104 159.263 20.1104C160.089 20.1104 160.71 19.8438 161.126 19.3105C161.542 18.7773 161.75 18.042 161.75 17.1045C161.75 14.9424 160.681 13.8613 158.542 13.8613C158.407 13.8613 158.188 13.873 157.883 13.8965Z" fill="white"/>
</svg>
