<svg xmlns="http://www.w3.org/2000/svg" width="21" height="24" viewBox="0 0 21 24" fill="none">
  <g clip-path="url(#clip0_5489_23129)">
    <path d="M8.33118 5.46112C8.07111 5.42397 8.05873 5.41158 8.18257 5.3992C8.41786 5.36205 8.96275 5.41158 9.34665 5.49827C10.2383 5.7088 11.0433 6.25369 11.8977 7.20725L12.1206 7.46731L12.4426 7.41778C13.8172 7.19486 15.229 7.36824 16.4055 7.91313C16.7275 8.06174 17.2352 8.35895 17.2971 8.43325C17.3219 8.45802 17.359 8.61901 17.3838 8.78C17.4705 9.36205 17.4333 9.79548 17.2476 10.1298C17.1485 10.3156 17.1485 10.3651 17.2104 10.5261C17.26 10.65 17.4086 10.7367 17.5448 10.7367C17.842 10.7367 18.1516 10.2661 18.3002 9.60973L18.3621 9.34966L18.4736 9.4735C19.1052 10.1794 19.6005 11.1577 19.6748 11.8512L19.6996 12.037L19.5881 11.876C19.4024 11.5911 19.229 11.4054 18.9937 11.2444C18.5727 10.9596 18.1268 10.8729 16.9504 10.811C15.8854 10.749 15.2785 10.6624 14.6841 10.4642C13.6686 10.1298 13.1485 9.69641 11.9473 8.09889C11.4148 7.39301 11.0804 7.00911 10.746 6.68712C10.0154 5.98124 9.28474 5.60973 8.33118 5.46112Z" fill="white"/>
    <path d="M17.5573 7.03335C17.5821 6.56277 17.644 6.25317 17.7802 5.96834C17.8298 5.85688 17.8793 5.75781 17.8917 5.75781C17.9041 5.75781 17.8793 5.8445 17.8421 5.94357C17.7431 6.21602 17.7307 6.59992 17.7926 7.03335C17.8793 7.59063 17.9164 7.66493 18.5109 8.27174C18.7833 8.55657 19.1053 8.91571 19.2291 9.06431L19.4397 9.33676L19.2291 9.13862C18.9691 8.89094 18.3747 8.42035 18.2384 8.35843C18.1517 8.3089 18.1394 8.3089 18.0774 8.37082C18.0279 8.42035 18.0155 8.49465 18.0155 8.85379C18.0031 9.41106 17.9288 9.75781 17.7431 10.1169C17.644 10.3027 17.6316 10.2656 17.7183 10.055C17.7802 9.89404 17.7926 9.81973 17.7926 9.28722C17.7926 8.20983 17.6688 7.94976 16.9134 7.51633C16.7276 7.40487 16.4056 7.24388 16.2199 7.15719C16.0217 7.07051 15.8731 6.9962 15.8855 6.9962C15.9103 6.97143 16.6409 7.18196 16.9257 7.3058C17.3592 7.47917 17.4335 7.49156 17.483 7.47917C17.5202 7.44202 17.5449 7.34295 17.5573 7.03335Z" fill="white"/>
    <path d="M8.83932 8.87963C8.3192 8.16137 7.98483 7.04681 8.05913 6.21709L8.0839 5.95703L8.20774 5.9818C8.43065 6.01895 8.81455 6.16756 9.00031 6.27901C9.49567 6.57623 9.71858 6.9849 9.9291 8.00038C9.99102 8.29759 10.0777 8.64434 10.1149 8.75579C10.1768 8.94155 10.4121 9.37499 10.6102 9.64743C10.7464 9.84558 10.6598 9.94465 10.3502 9.91988C9.87957 9.87034 9.24799 9.43691 8.83932 8.87963Z" fill="white"/>
    <path d="M16.9263 14.2659C14.4743 13.2752 13.6074 12.4207 13.6074 10.9718C13.6074 10.7613 13.6198 10.5879 13.6198 10.5879C13.6322 10.5879 13.7189 10.6622 13.8303 10.7489C14.3257 11.1452 14.883 11.3185 16.431 11.5415C17.335 11.6777 17.8551 11.7767 18.3257 11.9377C19.8241 12.4331 20.7529 13.4486 20.9758 14.8232C21.0378 15.2195 21.0006 15.9749 20.9015 16.3712C20.8149 16.6808 20.5672 17.2504 20.5053 17.2628C20.4929 17.2628 20.4681 17.2009 20.4681 17.1018C20.4433 16.5817 20.1833 16.0863 19.7498 15.7024C19.2297 15.2566 18.561 14.9223 16.9263 14.2659Z" fill="white"/>
    <path d="M15.192 14.6746C15.1673 14.4889 15.1053 14.2536 15.0682 14.1545L15.0063 13.9688L15.1177 14.105C15.2787 14.2907 15.4026 14.5136 15.514 14.8232C15.6007 15.0585 15.6007 15.1328 15.6007 15.5167C15.6007 15.8883 15.5883 15.9749 15.514 16.1855C15.3902 16.5198 15.2416 16.7551 14.9939 17.0152C14.5481 17.4734 13.966 17.7211 13.1363 17.8325C12.9877 17.8449 12.5666 17.8821 12.1951 17.9068C11.2663 17.9564 10.6471 18.0554 10.0899 18.2536C10.0156 18.2783 9.94126 18.3031 9.92887 18.2907C9.90411 18.266 10.288 18.0431 10.5976 17.8944C11.031 17.6839 11.4769 17.5725 12.4552 17.3991C12.9382 17.3248 13.4335 17.2257 13.5574 17.1762C14.7834 16.7923 15.3902 15.8387 15.192 14.6746Z" fill="white"/>
    <path d="M16.3188 16.6691C15.9968 15.9632 15.9225 15.2945 16.0959 14.6629C16.1207 14.601 16.1454 14.5391 16.1702 14.5391C16.195 14.5391 16.2693 14.5762 16.3436 14.6257C16.4922 14.7248 16.8018 14.8982 17.5944 15.3316C18.5975 15.8765 19.1671 16.2976 19.5634 16.7805C19.9101 17.2016 20.1207 17.6846 20.2197 18.279C20.2817 18.6134 20.2445 19.4183 20.1578 19.7527C19.8854 20.8053 19.2662 21.6474 18.3622 22.1304C18.2259 22.2047 18.1145 22.2542 18.1021 22.2542C18.0897 22.2542 18.1392 22.1304 18.2136 21.9818C18.5108 21.3502 18.5479 20.7434 18.325 20.0623C18.1888 19.6412 17.904 19.1335 17.3343 18.279C16.6532 17.2883 16.4922 17.0282 16.3188 16.6691Z" fill="white"/>
    <path d="M7.09307 20.4582C8.00948 19.6904 9.13641 19.1455 10.1767 18.9722C10.6225 18.8979 11.3655 18.9226 11.7742 19.0341C12.4305 19.2075 13.025 19.579 13.3346 20.0372C13.6318 20.483 13.768 20.8669 13.9042 21.7214C13.9538 22.0558 14.0157 22.4025 14.0281 22.4768C14.1271 22.9226 14.3253 23.2694 14.5729 23.4551C14.9568 23.74 15.6256 23.7523 16.2819 23.5047C16.3934 23.4675 16.4925 23.4304 16.4925 23.4427C16.5172 23.4675 16.1829 23.6904 15.9599 23.8019C15.6503 23.9629 15.4027 24.0124 15.0683 24.0124C14.4739 24.0124 13.9661 23.7028 13.5575 23.0836C13.4708 22.9598 13.2974 22.6006 13.1488 22.2663C12.7154 21.2632 12.4925 20.966 11.9847 20.6316C11.5389 20.3468 10.9692 20.2849 10.5358 20.4954C9.96614 20.7678 9.81753 21.4985 10.2138 21.9443C10.3748 22.1301 10.672 22.2787 10.9197 22.3158C11.3779 22.3777 11.7742 22.0186 11.7742 21.5604C11.7742 21.2632 11.6627 21.0898 11.3655 20.9536C10.9692 20.7802 10.5358 20.9784 10.5482 21.3623C10.5482 21.5232 10.6225 21.6223 10.7835 21.6966C10.8825 21.7462 10.8825 21.7462 10.8082 21.7338C10.4491 21.6595 10.3624 21.2136 10.6472 20.9288C10.994 20.5821 11.7246 20.7307 11.9723 21.2136C12.0714 21.4118 12.0838 21.8081 11.9971 22.0558C11.7866 22.6006 11.1921 22.8855 10.5853 22.7245C10.1767 22.613 10.0033 22.5016 9.50793 21.9938C8.64106 21.1022 8.30669 20.9288 7.0683 20.7431L6.83301 20.7059L7.09307 20.4582Z" fill="white"/>
    <path fill-rule="evenodd" clip-rule="evenodd" d="M0.579807 0.532508C3.46526 4.03715 7.91108 9.48607 8.13399 9.78328C8.31975 10.031 8.24544 10.2663 7.93585 10.4396C7.76247 10.5387 7.40334 10.6378 7.22996 10.6378C7.03182 10.6378 6.79653 10.5387 6.63554 10.3777C6.52408 10.2663 6.04111 9.56037 4.95132 7.86378C4.1216 6.56347 3.41572 5.48607 3.40334 5.47368C3.3538 5.44892 3.3538 5.44892 4.86464 8.14861C5.8182 9.8452 6.1278 10.452 6.1278 10.5263C6.1278 10.6873 6.07826 10.774 5.88012 10.9969C5.54575 11.3684 5.39715 11.7895 5.28569 12.6687C5.16185 13.6471 4.82749 14.3406 3.87392 15.517C3.31665 16.2105 3.22996 16.3344 3.09374 16.6192C2.92036 16.9659 2.87083 17.1641 2.84606 17.6099C2.82129 18.0805 2.87083 18.3777 3.00705 18.8235C3.13089 19.2198 3.26711 19.4799 3.60148 19.9876C3.88631 20.4334 4.05968 20.7678 4.05968 20.8916C4.05968 20.9907 4.08445 20.9907 4.53027 20.8916C5.59529 20.644 6.47455 20.2229 6.95752 19.7028C7.25473 19.3808 7.32903 19.2074 7.32903 18.7616C7.32903 18.4768 7.31665 18.4149 7.24235 18.2415C7.11851 17.969 6.88321 17.7461 6.37547 17.3994C5.70674 16.9412 5.42191 16.5697 5.34761 16.0743C5.28569 15.6533 5.35999 15.3684 5.73151 14.5882C6.11541 13.7833 6.21448 13.4489 6.2764 12.6316C6.31355 12.1115 6.37547 11.9009 6.52408 11.7399C6.68507 11.5666 6.82129 11.5046 7.2052 11.4551C7.83677 11.3684 8.24544 11.2074 8.56742 10.8978C8.85225 10.6378 8.97609 10.3777 8.98848 9.99381L9.00086 9.70898L8.83987 9.5356C8.25783 8.86687 0.195906 0 0.158754 0C0.14637 0 0.344513 0.235294 0.579807 0.532508ZM4.38166 18.1424C4.51789 17.9071 4.44358 17.6099 4.22067 17.4613C4.01015 17.3251 3.68817 17.387 3.68817 17.5728C3.68817 17.6223 3.71293 17.6718 3.78724 17.6966C3.89869 17.7585 3.91108 17.8204 3.82439 17.9567C3.7377 18.0929 3.7377 18.2167 3.84916 18.3034C4.02253 18.4396 4.25783 18.3653 4.38166 18.1424Z" fill="white"/>
    <path fill-rule="evenodd" clip-rule="evenodd" d="M9.39613 11.6279C9.09891 11.7146 8.81408 12.0366 8.7274 12.3586C8.67786 12.5567 8.70263 12.9159 8.78931 13.0273C8.92554 13.2007 9.04938 13.2502 9.39613 13.2502C10.0772 13.2502 10.6593 12.953 10.7212 12.5939C10.7831 12.2967 10.5231 11.888 10.1639 11.7022C9.97817 11.6032 9.59427 11.566 9.39613 11.6279ZM10.1887 12.2471C10.2878 12.0985 10.2506 11.9375 10.0649 11.8261C9.73049 11.6155 9.22275 11.7889 9.22275 12.1109C9.22275 12.2719 9.48281 12.4453 9.73049 12.4453C9.89148 12.4453 10.1144 12.3462 10.1887 12.2471Z" fill="white"/>
  </g>
  <defs>
    <clipPath id="clip0_5489_23129">
      <rect width="20.8421" height="24" fill="white" transform="translate(0.158203)"/>
    </clipPath>
  </defs>
</svg>
