<svg width="22" height="22" viewBox="0 0 22 22" xmlns="http://www.w3.org/2000/svg">
<path d="M15.6012 8.51385C15.4333 8.34486 15.2061 8.25 14.9692 8.25C14.7324 8.25 14.5052 8.34486 14.3372 8.51385L11.119 11.7258L7.94564 8.51385C7.77769 8.34486 7.55048 8.25 7.31366 8.25C7.07683 8.25 6.84963 8.34486 6.68167 8.51385C6.59765 8.5982 6.53096 8.69855 6.48545 8.80912C6.43993 8.91969 6.4165 9.03828 6.4165 9.15806C6.4165 9.27784 6.43993 9.39644 6.48545 9.50701C6.53096 9.61757 6.59765 9.71793 6.68167 9.80228L10.4826 13.6494C10.5659 13.7345 10.665 13.802 10.7743 13.848C10.8835 13.8941 11.0007 13.9178 11.119 13.9178C11.2374 13.9178 11.3545 13.8941 11.4638 13.848C11.573 13.802 11.6722 13.7345 11.7555 13.6494L15.6012 9.80228C15.6852 9.71793 15.7519 9.61757 15.7974 9.50701C15.843 9.39644 15.8664 9.27784 15.8664 9.15806C15.8664 9.03828 15.843 8.91969 15.7974 8.80912C15.7519 8.69855 15.6852 8.5982 15.6012 8.51385Z" />
</svg>
