<svg width="36" height="44" viewBox="0 0 36 44" fill="none" xmlns="http://www.w3.org/2000/svg">
<path d="M22.9827 29.3658L19.5409 32.846C18.6928 33.7036 17.3078 33.7036 16.4598 32.846L13.018 29.3658C12.4863 28.8281 11.7101 28.599 10.9846 28.8123C4.90686 30.5996 0.666992 34.6379 0.666992 39.3333C0.666992 41.7266 2.60709 43.6667 5.00033 43.6667H31.0003C33.3936 43.6667 35.3337 41.7266 35.3337 39.3333C35.3337 34.6379 31.0938 30.5996 25.016 28.8123C24.2906 28.599 23.5144 28.8281 22.9827 29.3658Z" fill="url(#paint0_linear_70_2118)"/>
<path d="M0.727334 8.01005L15.36 1.50664C17.0407 0.75967 18.9591 0.75967 20.6398 1.50664L35.2725 8.01005C36.1303 8.39129 36.1303 9.60873 35.2725 9.98998L20.6398 16.4934C18.9591 17.2404 17.0407 17.2404 15.36 16.4934L0.727334 9.98998C-0.130466 9.60873 -0.130466 8.39129 0.727334 8.01005Z" fill="url(#paint1_linear_70_2118)"/>
<path d="M26.6668 17.6667V11.1667H9.3335V17.6667C9.3335 22.4532 13.2137 26.3334 18.0002 26.3334C22.7866 26.3334 26.6668 22.4532 26.6668 17.6667Z" fill="url(#paint2_linear_70_2118)"/>
<defs>
<linearGradient id="paint0_linear_70_2118" x1="18.0003" y1="28.7332" x2="18.0003" y2="43.6667" gradientUnits="userSpaceOnUse">
<stop stop-color="white"/>
<stop offset="0.15625" stop-color="white" stop-opacity="0.84375"/>
<stop offset="1" stop-color="white" stop-opacity="0"/>
</linearGradient>
<linearGradient id="paint1_linear_70_2118" x1="17.9999" y1="0.946411" x2="17.9999" y2="17.0536" gradientUnits="userSpaceOnUse">
<stop stop-color="white"/>
<stop offset="1" stop-color="white" stop-opacity="0"/>
</linearGradient>
<linearGradient id="paint2_linear_70_2118" x1="18.0002" y1="11.1667" x2="18.0002" y2="26.3334" gradientUnits="userSpaceOnUse">
<stop stop-color="white"/>
<stop offset="0.15625" stop-color="white" stop-opacity="0.84375"/>
<stop offset="1" stop-color="white" stop-opacity="0"/>
</linearGradient>
</defs>
</svg>
