<svg width="24" height="24" viewBox="0 0 24 24" xmlns="http://www.w3.org/2000/svg">
<path fill-rule="evenodd" clip-rule="evenodd" d="M2 6C2 5.44772 2.47128 5 3.05263 5H20.9474C21.5287 5 22 5.44772 22 6C22 6.55228 21.5287 7 20.9474 7H3.05263C2.47128 7 2 6.55228 2 6Z" />
<path fill-rule="evenodd" clip-rule="evenodd" d="M5.15789 12C5.15789 11.4477 5.62917 11 6.21053 11H17.9474C18.5287 11 19 11.4477 19 12C19 12.5523 18.5287 13 17.9474 13H6.21053C5.62917 13 5.15789 12.5523 5.15789 12Z" />
<path fill-rule="evenodd" clip-rule="evenodd" d="M8 18C8 17.4477 8.47128 17 9.05263 17H16C16.5814 17 17.0526 17.4477 17.0526 18C17.0526 18.5523 16.5814 19 16 19H9.05263C8.47128 19 8 18.5523 8 18Z" />
</svg>
