<svg width="36" height="40" viewBox="0 0 36 40" fill="none" xmlns="http://www.w3.org/2000/svg">
<path fill-rule="evenodd" clip-rule="evenodd" d="M8.79261 6.5H23.2006C25.5255 3.35964 22.3933 -1.03545 18.5025 0.219696L16.6469 0.818282C16.2245 0.954567 15.7688 0.954566 15.3463 0.818282L13.4908 0.219696C9.59996 -1.03545 6.46771 3.35964 8.79261 6.5ZM22.9843 9.5H9.00895C6.3704 10.961 4.30905 13.4003 3.36516 16.4207L0.865154 24.4207C-1.54959 32.1479 4.22323 40 12.3189 40H14.2508C13.4599 38.8662 12.9961 37.4872 12.9961 36C12.9961 34.5128 13.4599 33.1338 14.2508 32C13.4599 30.8662 12.9961 29.4872 12.9961 28C12.9961 24.134 16.1301 21 19.9961 21H30.0591L28.6281 16.4207C27.6842 13.4003 25.6228 10.961 22.9843 9.5ZM19.9977 24.0001C17.7886 24.0001 15.9977 25.791 15.9977 28.0001C15.9977 30.2092 17.7886 32.0001 19.9977 32.0001C17.7886 32.0001 15.9977 33.791 15.9977 36.0001C15.9977 38.2092 17.7886 40.0001 19.9977 40.0001H31.9977C34.2069 40.0001 35.9977 38.2092 35.9977 36.0001C35.9977 33.791 34.2069 32.0001 31.9977 32.0001C34.2069 32.0001 35.9977 30.2092 35.9977 28.0001C35.9977 25.791 34.2069 24.0001 31.9977 24.0001H30.6644H19.9977Z" fill="url(#paint0_linear_128_28)"/>
<defs>
<linearGradient id="paint0_linear_128_28" x1="18.1541" y1="0" x2="18.1541" y2="40.0001" gradientUnits="userSpaceOnUse">
<stop stop-color="white"/>
<stop offset="1" stop-color="white" stop-opacity="0"/>
</linearGradient>
</defs>
</svg>
