<svg width="24" height="24" viewBox="0 0 24 24" xmlns="http://www.w3.org/2000/svg">
<path d="M12.5332 12.9L10.4628 14.961C10.3784 15.0447 10.3114 15.1442 10.2657 15.2539C10.22 15.3636 10.1965 15.4812 10.1965 15.6C10.1965 15.7188 10.22 15.8365 10.2657 15.9461C10.3114 16.0558 10.3784 16.1554 10.4628 16.239C10.5464 16.3234 10.646 16.3903 10.7557 16.436C10.8654 16.4817 10.9831 16.5052 11.1019 16.5052C11.2207 16.5052 11.3384 16.4817 11.4481 16.436C11.5578 16.3903 11.6574 16.3234 11.7411 16.239L15.3419 12.639C15.4239 12.5534 15.4881 12.4525 15.5309 12.342C15.621 12.1229 15.621 11.8772 15.5309 11.658C15.4881 11.5476 15.4239 11.4466 15.3419 11.361L11.7411 7.76107C11.6571 7.67715 11.5575 7.61059 11.4478 7.56517C11.3381 7.51976 11.2206 7.49638 11.1019 7.49638C10.9832 7.49638 10.8657 7.51976 10.756 7.56517C10.6463 7.61059 10.5467 7.67715 10.4628 7.76107C10.3788 7.84498 10.3122 7.9446 10.2668 8.05424C10.2214 8.16388 10.198 8.28139 10.198 8.40006C10.198 8.51873 10.2214 8.63625 10.2668 8.74589C10.3122 8.85552 10.3788 8.95514 10.4628 9.03906L12.5332 11.1H3.90021C3.66146 11.1 3.43249 11.1949 3.26367 11.3637C3.09484 11.5324 3 11.7614 3 12C3 12.2387 3.09484 12.4677 3.26367 12.6364C3.43249 12.8052 3.66146 12.9 3.90021 12.9H12.5332ZM12.0021 3.00009C10.3197 2.99258 8.66885 3.45658 7.23682 4.33946C5.80478 5.22233 4.64888 6.48875 3.90021 7.99506C3.79277 8.20989 3.7751 8.45858 3.85107 8.68644C3.92704 8.91429 4.09043 9.10265 4.30531 9.21006C4.52018 9.31747 4.76894 9.33514 4.99685 9.25919C5.22476 9.18324 5.41315 9.01988 5.52059 8.80506C6.0897 7.65605 6.95538 6.67983 8.02817 5.97726C9.10097 5.2747 10.342 4.87129 11.6229 4.80871C12.9038 4.74614 14.1783 5.02668 15.3145 5.62134C16.4507 6.21599 17.4074 7.1032 18.0858 8.19126C18.7643 9.27932 19.1398 10.5288 19.1736 11.8105C19.2073 13.0922 18.8981 14.3597 18.2779 15.482C17.6578 16.6042 16.7491 17.5406 15.6458 18.1942C14.5424 18.8478 13.2846 19.1951 12.0021 19.2C10.6598 19.2058 9.34303 18.8331 8.20294 18.1247C7.06286 17.4163 6.14566 16.4009 5.5566 15.195C5.44916 14.9802 5.26077 14.8168 5.03286 14.7409C4.80495 14.6649 4.55619 14.6826 4.34131 14.79C4.12644 14.8974 3.96304 15.0858 3.88707 15.3136C3.8111 15.5415 3.82878 15.7902 3.93622 16.005C4.64993 17.441 5.73441 18.6602 7.07748 19.5366C8.42055 20.4131 9.97344 20.9149 11.5755 20.9901C13.1776 21.0653 14.7707 20.7113 16.19 19.9646C17.6094 19.2179 18.8034 18.1056 19.6486 16.7429C20.4938 15.3801 20.9595 13.8164 20.9975 12.2133C21.0355 10.6103 20.6444 9.02627 19.8648 7.62501C19.0851 6.22376 17.9452 5.05619 16.5628 4.24308C15.1805 3.42997 13.606 3.00084 12.0021 3.00009Z" />
</svg>
