<svg width="381" height="274" viewBox="0 0 381 274" fill="none" xmlns="http://www.w3.org/2000/svg">
<path d="M42.9865 260.318L34.13 238.254L34.0671 238.097H33.898H25.0488H24.6704L24.8189 238.445L39.1157 271.954L39.1805 272.105H39.3457H46.373H46.5395L46.6037 271.952L63.1024 232.414L63.2469 232.067H62.8717H54.2177H54.0471L53.9849 232.226L42.9865 260.318Z" fill="white" stroke="white" stroke-width="0.5"/>
<path d="M10.0792 232.219L10.0145 232.067H9.8492H1H0.620633L0.770269 232.416L17.7415 271.954L17.8064 272.105H17.9712H26.6886H27.0668L26.9186 271.757L10.0792 232.219Z" fill="white" stroke="white" stroke-width="0.5"/>
<mask id="path-3-outside-1_322_113" maskUnits="userSpaceOnUse" x="68.2734" y="212.527" width="313" height="61" fill="black">
<rect fill="white" x="68.2734" y="212.527" width="313" height="61"/>
<path d="M79.7284 218.751C79.7284 220.198 79.2191 221.43 78.2004 222.448C77.1817 223.466 75.9486 223.975 74.5009 223.975C73.0533 223.975 71.8202 223.466 70.8015 222.448C69.7828 221.43 69.2734 220.198 69.2734 218.751C69.2734 217.305 69.7828 216.072 70.8015 215.054C71.8202 214.036 73.0533 213.527 74.5009 213.527C75.9486 213.527 77.1817 214.036 78.2004 215.054C79.2191 216.072 79.7284 217.305 79.7284 218.751ZM78.2004 232.334V271.714H70.8015V232.334H78.2004Z"/>
<path d="M118.776 260.784C118.776 264.213 117.275 267.106 114.273 269.464C111.27 271.821 107.49 273 102.933 273C98.9654 273 95.4804 271.982 92.4779 269.946C89.4755 267.856 87.3309 265.124 86.0441 261.748L92.6388 258.935C93.6039 261.293 94.9979 263.141 96.8208 264.481C98.6973 265.767 100.735 266.41 102.933 266.41C105.292 266.41 107.249 265.901 108.804 264.883C110.412 263.865 111.217 262.659 111.217 261.266C111.217 258.748 109.286 256.899 105.426 255.721L98.6705 254.033C91.0035 252.104 87.17 248.407 87.17 242.942C87.17 239.352 88.6176 236.486 91.5129 234.343C94.4617 232.146 98.2148 231.048 102.772 231.048C106.257 231.048 109.394 231.878 112.182 233.539C115.023 235.2 117.007 237.424 118.133 240.21L111.538 242.942C110.788 241.281 109.554 239.995 107.839 239.084C106.177 238.12 104.3 237.638 102.209 237.638C100.279 237.638 98.5365 238.12 96.9816 239.084C95.4804 240.049 94.7298 241.228 94.7298 242.621C94.7298 244.871 96.8476 246.478 101.083 247.443L107.035 248.97C114.862 250.899 118.776 254.837 118.776 260.784Z"/>
<path d="M144.091 266.249C147.736 266.249 150.712 264.936 153.018 262.311C155.43 259.686 156.637 256.256 156.637 252.024C156.637 247.898 155.43 244.496 153.018 241.817C150.659 239.138 147.683 237.799 144.091 237.799C140.552 237.799 137.576 239.138 135.164 241.817C132.751 244.496 131.545 247.898 131.545 252.024C131.545 256.203 132.751 259.605 135.164 262.231C137.576 264.909 140.552 266.249 144.091 266.249ZM142.884 273C137.737 273 133.314 270.964 129.614 266.892C125.969 262.766 124.146 257.81 124.146 252.024C124.146 246.237 125.969 241.281 129.614 237.156C133.314 233.084 137.737 231.048 142.884 231.048C145.78 231.048 148.407 231.664 150.766 232.896C153.178 234.128 155.028 235.763 156.315 237.799H156.637L156.315 232.334V214.17H163.714V271.714H156.637V266.249H156.315C155.028 268.285 153.178 269.919 150.766 271.151C148.407 272.384 145.78 273 142.884 273Z"/>
<path d="M170.879 252.024C170.879 245.969 172.782 240.96 176.589 236.995C180.449 233.03 185.302 231.048 191.146 231.048C196.99 231.048 201.815 233.03 205.622 236.995C209.482 240.96 211.412 245.969 211.412 252.024C211.412 258.132 209.482 263.141 205.622 267.053C201.815 271.017 196.99 273 191.146 273C185.302 273 180.449 271.017 176.589 267.053C172.782 263.088 170.879 258.078 170.879 252.024ZM178.278 252.024C178.278 256.256 179.511 259.686 181.977 262.311C184.444 264.936 187.5 266.249 191.146 266.249C194.791 266.249 197.848 264.936 200.314 262.311C202.78 259.686 204.013 256.256 204.013 252.024C204.013 247.845 202.78 244.442 200.314 241.817C197.794 239.138 194.738 237.799 191.146 237.799C187.553 237.799 184.497 239.138 181.977 241.817C179.511 244.442 178.278 247.845 178.278 252.024Z"/>
<path d="M225.535 271.714H218.136V232.334H225.214V237.799H225.535C226.661 235.87 228.377 234.262 230.682 232.976C233.041 231.691 235.374 231.048 237.679 231.048C240.574 231.048 243.121 231.717 245.319 233.057C247.518 234.396 249.126 236.245 250.145 238.602C253.415 233.566 257.946 231.048 263.736 231.048C268.293 231.048 271.805 232.441 274.272 235.227C276.738 238.013 277.971 241.978 277.971 247.121V271.714H270.572V248.246C270.572 244.549 269.902 241.897 268.562 240.29C267.221 238.629 264.969 237.799 261.806 237.799C258.964 237.799 256.579 239.004 254.648 241.415C252.718 243.826 251.753 246.666 251.753 249.934V271.714H244.354V248.246C244.354 244.549 243.684 241.897 242.344 240.29C241.003 238.629 238.751 237.799 235.588 237.799C232.746 237.799 230.361 239.004 228.43 241.415C226.5 243.826 225.535 246.666 225.535 249.934V271.714Z"/>
<path d="M296.98 218.751C296.98 220.198 296.471 221.43 295.452 222.448C294.434 223.466 293.2 223.975 291.753 223.975C290.305 223.975 289.072 223.466 288.053 222.448C287.035 221.43 286.525 220.198 286.525 218.751C286.525 217.305 287.035 216.072 288.053 215.054C289.072 214.036 290.305 213.527 291.753 213.527C293.2 213.527 294.434 214.036 295.452 215.054C296.471 216.072 296.98 217.305 296.98 218.751ZM295.452 232.334V271.714H288.053V232.334H295.452Z"/>
<path d="M336.028 260.784C336.028 264.213 334.527 267.106 331.525 269.464C328.522 271.821 324.742 273 320.185 273C316.217 273 312.732 271.982 309.73 269.946C306.727 267.856 304.583 265.124 303.296 261.748L309.891 258.935C310.856 261.293 312.25 263.141 314.073 264.481C315.949 265.767 317.987 266.41 320.185 266.41C322.544 266.41 324.501 265.901 326.056 264.883C327.664 263.865 328.468 262.659 328.468 261.266C328.468 258.748 326.538 256.899 322.678 255.721L315.922 254.033C308.255 252.104 304.422 248.407 304.422 242.942C304.422 239.352 305.87 236.486 308.765 234.343C311.714 232.146 315.467 231.048 320.024 231.048C323.509 231.048 326.646 231.878 329.434 233.539C332.275 235.2 334.259 237.424 335.385 240.21L328.79 242.942C328.04 241.281 326.806 239.995 325.091 239.084C323.429 238.12 321.552 237.638 319.461 237.638C317.531 237.638 315.788 238.12 314.234 239.084C312.732 240.049 311.982 241.228 311.982 242.621C311.982 244.871 314.1 246.478 318.335 247.443L324.286 248.97C332.114 250.899 336.028 254.837 336.028 260.784Z"/>
<path d="M361.343 273C355.552 273 350.78 271.017 347.027 267.053C343.274 263.088 341.398 258.078 341.398 252.024C341.398 246.023 343.221 241.04 346.866 237.075C350.512 233.057 355.177 231.048 360.86 231.048C366.704 231.048 371.342 232.95 374.773 236.754C378.258 240.504 380.001 245.782 380.001 252.586L379.92 253.39H348.957C349.065 257.248 350.351 260.355 352.818 262.713C355.284 265.07 358.233 266.249 361.664 266.249C366.382 266.249 370.082 263.891 372.763 259.177L379.357 262.391C377.588 265.713 375.122 268.312 371.958 270.187C368.849 272.062 365.31 273 361.343 273ZM349.52 247.282H372.119C371.905 244.549 370.779 242.299 368.741 240.531C366.758 238.709 364.077 237.799 360.699 237.799C357.911 237.799 355.498 238.656 353.461 240.37C351.477 242.085 350.164 244.389 349.52 247.282Z"/>
</mask>
<path d="M79.7284 218.751C79.7284 220.198 79.2191 221.43 78.2004 222.448C77.1817 223.466 75.9486 223.975 74.5009 223.975C73.0533 223.975 71.8202 223.466 70.8015 222.448C69.7828 221.43 69.2734 220.198 69.2734 218.751C69.2734 217.305 69.7828 216.072 70.8015 215.054C71.8202 214.036 73.0533 213.527 74.5009 213.527C75.9486 213.527 77.1817 214.036 78.2004 215.054C79.2191 216.072 79.7284 217.305 79.7284 218.751ZM78.2004 232.334V271.714H70.8015V232.334H78.2004Z" fill="white"/>
<path d="M118.776 260.784C118.776 264.213 117.275 267.106 114.273 269.464C111.27 271.821 107.49 273 102.933 273C98.9654 273 95.4804 271.982 92.4779 269.946C89.4755 267.856 87.3309 265.124 86.0441 261.748L92.6388 258.935C93.6039 261.293 94.9979 263.141 96.8208 264.481C98.6973 265.767 100.735 266.41 102.933 266.41C105.292 266.41 107.249 265.901 108.804 264.883C110.412 263.865 111.217 262.659 111.217 261.266C111.217 258.748 109.286 256.899 105.426 255.721L98.6705 254.033C91.0035 252.104 87.17 248.407 87.17 242.942C87.17 239.352 88.6176 236.486 91.5129 234.343C94.4617 232.146 98.2148 231.048 102.772 231.048C106.257 231.048 109.394 231.878 112.182 233.539C115.023 235.2 117.007 237.424 118.133 240.21L111.538 242.942C110.788 241.281 109.554 239.995 107.839 239.084C106.177 238.12 104.3 237.638 102.209 237.638C100.279 237.638 98.5365 238.12 96.9816 239.084C95.4804 240.049 94.7298 241.228 94.7298 242.621C94.7298 244.871 96.8476 246.478 101.083 247.443L107.035 248.97C114.862 250.899 118.776 254.837 118.776 260.784Z" fill="white"/>
<path d="M144.091 266.249C147.736 266.249 150.712 264.936 153.018 262.311C155.43 259.686 156.637 256.256 156.637 252.024C156.637 247.898 155.43 244.496 153.018 241.817C150.659 239.138 147.683 237.799 144.091 237.799C140.552 237.799 137.576 239.138 135.164 241.817C132.751 244.496 131.545 247.898 131.545 252.024C131.545 256.203 132.751 259.605 135.164 262.231C137.576 264.909 140.552 266.249 144.091 266.249ZM142.884 273C137.737 273 133.314 270.964 129.614 266.892C125.969 262.766 124.146 257.81 124.146 252.024C124.146 246.237 125.969 241.281 129.614 237.156C133.314 233.084 137.737 231.048 142.884 231.048C145.78 231.048 148.407 231.664 150.766 232.896C153.178 234.128 155.028 235.763 156.315 237.799H156.637L156.315 232.334V214.17H163.714V271.714H156.637V266.249H156.315C155.028 268.285 153.178 269.919 150.766 271.151C148.407 272.384 145.78 273 142.884 273Z" fill="white"/>
<path d="M170.879 252.024C170.879 245.969 172.782 240.96 176.589 236.995C180.449 233.03 185.302 231.048 191.146 231.048C196.99 231.048 201.815 233.03 205.622 236.995C209.482 240.96 211.412 245.969 211.412 252.024C211.412 258.132 209.482 263.141 205.622 267.053C201.815 271.017 196.99 273 191.146 273C185.302 273 180.449 271.017 176.589 267.053C172.782 263.088 170.879 258.078 170.879 252.024ZM178.278 252.024C178.278 256.256 179.511 259.686 181.977 262.311C184.444 264.936 187.5 266.249 191.146 266.249C194.791 266.249 197.848 264.936 200.314 262.311C202.78 259.686 204.013 256.256 204.013 252.024C204.013 247.845 202.78 244.442 200.314 241.817C197.794 239.138 194.738 237.799 191.146 237.799C187.553 237.799 184.497 239.138 181.977 241.817C179.511 244.442 178.278 247.845 178.278 252.024Z" fill="white"/>
<path d="M225.535 271.714H218.136V232.334H225.214V237.799H225.535C226.661 235.87 228.377 234.262 230.682 232.976C233.041 231.691 235.374 231.048 237.679 231.048C240.574 231.048 243.121 231.717 245.319 233.057C247.518 234.396 249.126 236.245 250.145 238.602C253.415 233.566 257.946 231.048 263.736 231.048C268.293 231.048 271.805 232.441 274.272 235.227C276.738 238.013 277.971 241.978 277.971 247.121V271.714H270.572V248.246C270.572 244.549 269.902 241.897 268.562 240.29C267.221 238.629 264.969 237.799 261.806 237.799C258.964 237.799 256.579 239.004 254.648 241.415C252.718 243.826 251.753 246.666 251.753 249.934V271.714H244.354V248.246C244.354 244.549 243.684 241.897 242.344 240.29C241.003 238.629 238.751 237.799 235.588 237.799C232.746 237.799 230.361 239.004 228.43 241.415C226.5 243.826 225.535 246.666 225.535 249.934V271.714Z" fill="white"/>
<path d="M296.98 218.751C296.98 220.198 296.471 221.43 295.452 222.448C294.434 223.466 293.2 223.975 291.753 223.975C290.305 223.975 289.072 223.466 288.053 222.448C287.035 221.43 286.525 220.198 286.525 218.751C286.525 217.305 287.035 216.072 288.053 215.054C289.072 214.036 290.305 213.527 291.753 213.527C293.2 213.527 294.434 214.036 295.452 215.054C296.471 216.072 296.98 217.305 296.98 218.751ZM295.452 232.334V271.714H288.053V232.334H295.452Z" fill="white"/>
<path d="M336.028 260.784C336.028 264.213 334.527 267.106 331.525 269.464C328.522 271.821 324.742 273 320.185 273C316.217 273 312.732 271.982 309.73 269.946C306.727 267.856 304.583 265.124 303.296 261.748L309.891 258.935C310.856 261.293 312.25 263.141 314.073 264.481C315.949 265.767 317.987 266.41 320.185 266.41C322.544 266.41 324.501 265.901 326.056 264.883C327.664 263.865 328.468 262.659 328.468 261.266C328.468 258.748 326.538 256.899 322.678 255.721L315.922 254.033C308.255 252.104 304.422 248.407 304.422 242.942C304.422 239.352 305.87 236.486 308.765 234.343C311.714 232.146 315.467 231.048 320.024 231.048C323.509 231.048 326.646 231.878 329.434 233.539C332.275 235.2 334.259 237.424 335.385 240.21L328.79 242.942C328.04 241.281 326.806 239.995 325.091 239.084C323.429 238.12 321.552 237.638 319.461 237.638C317.531 237.638 315.788 238.12 314.234 239.084C312.732 240.049 311.982 241.228 311.982 242.621C311.982 244.871 314.1 246.478 318.335 247.443L324.286 248.97C332.114 250.899 336.028 254.837 336.028 260.784Z" fill="white"/>
<path d="M361.343 273C355.552 273 350.78 271.017 347.027 267.053C343.274 263.088 341.398 258.078 341.398 252.024C341.398 246.023 343.221 241.04 346.866 237.075C350.512 233.057 355.177 231.048 360.86 231.048C366.704 231.048 371.342 232.95 374.773 236.754C378.258 240.504 380.001 245.782 380.001 252.586L379.92 253.39H348.957C349.065 257.248 350.351 260.355 352.818 262.713C355.284 265.07 358.233 266.249 361.664 266.249C366.382 266.249 370.082 263.891 372.763 259.177L379.357 262.391C377.588 265.713 375.122 268.312 371.958 270.187C368.849 272.062 365.31 273 361.343 273ZM349.52 247.282H372.119C371.905 244.549 370.779 242.299 368.741 240.531C366.758 238.709 364.077 237.799 360.699 237.799C357.911 237.799 355.498 238.656 353.461 240.37C351.477 242.085 350.164 244.389 349.52 247.282Z" fill="white"/>
<path d="M79.7284 218.751C79.7284 220.198 79.2191 221.43 78.2004 222.448C77.1817 223.466 75.9486 223.975 74.5009 223.975C73.0533 223.975 71.8202 223.466 70.8015 222.448C69.7828 221.43 69.2734 220.198 69.2734 218.751C69.2734 217.305 69.7828 216.072 70.8015 215.054C71.8202 214.036 73.0533 213.527 74.5009 213.527C75.9486 213.527 77.1817 214.036 78.2004 215.054C79.2191 216.072 79.7284 217.305 79.7284 218.751ZM78.2004 232.334V271.714H70.8015V232.334H78.2004Z" stroke="white" mask="url(#path-3-outside-1_322_113)"/>
<path d="M118.776 260.784C118.776 264.213 117.275 267.106 114.273 269.464C111.27 271.821 107.49 273 102.933 273C98.9654 273 95.4804 271.982 92.4779 269.946C89.4755 267.856 87.3309 265.124 86.0441 261.748L92.6388 258.935C93.6039 261.293 94.9979 263.141 96.8208 264.481C98.6973 265.767 100.735 266.41 102.933 266.41C105.292 266.41 107.249 265.901 108.804 264.883C110.412 263.865 111.217 262.659 111.217 261.266C111.217 258.748 109.286 256.899 105.426 255.721L98.6705 254.033C91.0035 252.104 87.17 248.407 87.17 242.942C87.17 239.352 88.6176 236.486 91.5129 234.343C94.4617 232.146 98.2148 231.048 102.772 231.048C106.257 231.048 109.394 231.878 112.182 233.539C115.023 235.2 117.007 237.424 118.133 240.21L111.538 242.942C110.788 241.281 109.554 239.995 107.839 239.084C106.177 238.12 104.3 237.638 102.209 237.638C100.279 237.638 98.5365 238.12 96.9816 239.084C95.4804 240.049 94.7298 241.228 94.7298 242.621C94.7298 244.871 96.8476 246.478 101.083 247.443L107.035 248.97C114.862 250.899 118.776 254.837 118.776 260.784Z" stroke="white" mask="url(#path-3-outside-1_322_113)"/>
<path d="M144.091 266.249C147.736 266.249 150.712 264.936 153.018 262.311C155.43 259.686 156.637 256.256 156.637 252.024C156.637 247.898 155.43 244.496 153.018 241.817C150.659 239.138 147.683 237.799 144.091 237.799C140.552 237.799 137.576 239.138 135.164 241.817C132.751 244.496 131.545 247.898 131.545 252.024C131.545 256.203 132.751 259.605 135.164 262.231C137.576 264.909 140.552 266.249 144.091 266.249ZM142.884 273C137.737 273 133.314 270.964 129.614 266.892C125.969 262.766 124.146 257.81 124.146 252.024C124.146 246.237 125.969 241.281 129.614 237.156C133.314 233.084 137.737 231.048 142.884 231.048C145.78 231.048 148.407 231.664 150.766 232.896C153.178 234.128 155.028 235.763 156.315 237.799H156.637L156.315 232.334V214.17H163.714V271.714H156.637V266.249H156.315C155.028 268.285 153.178 269.919 150.766 271.151C148.407 272.384 145.78 273 142.884 273Z" stroke="white" mask="url(#path-3-outside-1_322_113)"/>
<path d="M170.879 252.024C170.879 245.969 172.782 240.96 176.589 236.995C180.449 233.03 185.302 231.048 191.146 231.048C196.99 231.048 201.815 233.03 205.622 236.995C209.482 240.96 211.412 245.969 211.412 252.024C211.412 258.132 209.482 263.141 205.622 267.053C201.815 271.017 196.99 273 191.146 273C185.302 273 180.449 271.017 176.589 267.053C172.782 263.088 170.879 258.078 170.879 252.024ZM178.278 252.024C178.278 256.256 179.511 259.686 181.977 262.311C184.444 264.936 187.5 266.249 191.146 266.249C194.791 266.249 197.848 264.936 200.314 262.311C202.78 259.686 204.013 256.256 204.013 252.024C204.013 247.845 202.78 244.442 200.314 241.817C197.794 239.138 194.738 237.799 191.146 237.799C187.553 237.799 184.497 239.138 181.977 241.817C179.511 244.442 178.278 247.845 178.278 252.024Z" stroke="white" mask="url(#path-3-outside-1_322_113)"/>
<path d="M225.535 271.714H218.136V232.334H225.214V237.799H225.535C226.661 235.87 228.377 234.262 230.682 232.976C233.041 231.691 235.374 231.048 237.679 231.048C240.574 231.048 243.121 231.717 245.319 233.057C247.518 234.396 249.126 236.245 250.145 238.602C253.415 233.566 257.946 231.048 263.736 231.048C268.293 231.048 271.805 232.441 274.272 235.227C276.738 238.013 277.971 241.978 277.971 247.121V271.714H270.572V248.246C270.572 244.549 269.902 241.897 268.562 240.29C267.221 238.629 264.969 237.799 261.806 237.799C258.964 237.799 256.579 239.004 254.648 241.415C252.718 243.826 251.753 246.666 251.753 249.934V271.714H244.354V248.246C244.354 244.549 243.684 241.897 242.344 240.29C241.003 238.629 238.751 237.799 235.588 237.799C232.746 237.799 230.361 239.004 228.43 241.415C226.5 243.826 225.535 246.666 225.535 249.934V271.714Z" stroke="white" mask="url(#path-3-outside-1_322_113)"/>
<path d="M296.98 218.751C296.98 220.198 296.471 221.43 295.452 222.448C294.434 223.466 293.2 223.975 291.753 223.975C290.305 223.975 289.072 223.466 288.053 222.448C287.035 221.43 286.525 220.198 286.525 218.751C286.525 217.305 287.035 216.072 288.053 215.054C289.072 214.036 290.305 213.527 291.753 213.527C293.2 213.527 294.434 214.036 295.452 215.054C296.471 216.072 296.98 217.305 296.98 218.751ZM295.452 232.334V271.714H288.053V232.334H295.452Z" stroke="white" mask="url(#path-3-outside-1_322_113)"/>
<path d="M336.028 260.784C336.028 264.213 334.527 267.106 331.525 269.464C328.522 271.821 324.742 273 320.185 273C316.217 273 312.732 271.982 309.73 269.946C306.727 267.856 304.583 265.124 303.296 261.748L309.891 258.935C310.856 261.293 312.25 263.141 314.073 264.481C315.949 265.767 317.987 266.41 320.185 266.41C322.544 266.41 324.501 265.901 326.056 264.883C327.664 263.865 328.468 262.659 328.468 261.266C328.468 258.748 326.538 256.899 322.678 255.721L315.922 254.033C308.255 252.104 304.422 248.407 304.422 242.942C304.422 239.352 305.87 236.486 308.765 234.343C311.714 232.146 315.467 231.048 320.024 231.048C323.509 231.048 326.646 231.878 329.434 233.539C332.275 235.2 334.259 237.424 335.385 240.21L328.79 242.942C328.04 241.281 326.806 239.995 325.091 239.084C323.429 238.12 321.552 237.638 319.461 237.638C317.531 237.638 315.788 238.12 314.234 239.084C312.732 240.049 311.982 241.228 311.982 242.621C311.982 244.871 314.1 246.478 318.335 247.443L324.286 248.97C332.114 250.899 336.028 254.837 336.028 260.784Z" stroke="white" mask="url(#path-3-outside-1_322_113)"/>
<path d="M361.343 273C355.552 273 350.78 271.017 347.027 267.053C343.274 263.088 341.398 258.078 341.398 252.024C341.398 246.023 343.221 241.04 346.866 237.075C350.512 233.057 355.177 231.048 360.86 231.048C366.704 231.048 371.342 232.95 374.773 236.754C378.258 240.504 380.001 245.782 380.001 252.586L379.92 253.39H348.957C349.065 257.248 350.351 260.355 352.818 262.713C355.284 265.07 358.233 266.249 361.664 266.249C366.382 266.249 370.082 263.891 372.763 259.177L379.357 262.391C377.588 265.713 375.122 268.312 371.958 270.187C368.849 272.062 365.31 273 361.343 273ZM349.52 247.282H372.119C371.905 244.549 370.779 242.299 368.741 240.531C366.758 238.709 364.077 237.799 360.699 237.799C357.911 237.799 355.498 238.656 353.461 240.37C351.477 242.085 350.164 244.389 349.52 247.282Z" stroke="white" mask="url(#path-3-outside-1_322_113)"/>
<path opacity="0.65" fill-rule="evenodd" clip-rule="evenodd" d="M190.083 172.94C237.842 172.94 276.559 134.25 276.559 86.5234C276.559 38.7966 237.842 0.106427 190.083 0.106422C142.323 0.106418 103.607 38.7966 103.607 86.5234C103.607 134.25 142.323 172.94 190.083 172.94ZM220.438 35.4866C227.589 32.9322 235.588 30.0745 241.374 35.8568C247.16 41.6391 244.301 49.6327 241.745 56.7783C241.62 57.1266 241.496 57.4729 241.374 57.8168C240.596 60.008 239.462 62.7643 238.251 65.7076C235.372 72.7039 232.059 80.7571 232.059 84.7894C232.059 90.5181 238.508 108.898 241.135 115.342C243.763 121.787 247.084 131.358 241.016 137.422C234.948 143.486 225.371 140.167 218.921 137.541C212.472 134.915 194.08 128.471 188.348 128.471C184.313 128.471 176.254 131.782 169.253 134.659C166.308 135.869 163.549 137.002 161.357 137.78C161.013 137.902 160.666 138.026 160.318 138.15C153.167 140.704 145.168 143.562 139.382 137.78C133.595 131.998 136.455 124.004 139.011 116.858C139.136 116.51 139.26 116.164 139.382 115.82C140.16 113.629 141.294 110.872 142.505 107.929C145.384 100.933 148.697 92.8795 148.697 88.8472C148.697 83.1185 142.248 64.739 139.621 58.2942C136.993 51.8494 133.672 42.2789 139.74 36.2148C145.808 30.1508 155.385 33.4699 161.834 36.0955C168.284 38.7212 186.676 45.1659 192.408 45.1659C196.443 45.1659 204.502 41.8547 211.503 38.9779C214.448 37.7677 217.207 36.6343 219.399 35.8568C219.743 35.7348 220.09 35.6111 220.438 35.4866Z" fill="url(#paint0_linear_322_113)"/>
<path opacity="0.65" fill-rule="evenodd" clip-rule="evenodd" d="M251.23 25.4174C217.459 -8.33056 162.706 -8.33056 128.935 25.4174C95.164 59.1653 95.164 113.882 128.935 147.629C162.706 181.377 217.459 181.377 251.23 147.629C285.001 113.882 285.001 59.1653 251.23 25.4174ZM132.505 101.162C125.641 97.9154 117.963 94.2836 117.963 86.1063C117.963 77.9289 125.641 74.2971 132.505 71.0506C132.839 70.8924 133.172 70.7351 133.502 70.5782C135.602 69.5786 138.355 68.431 141.294 67.2055C148.28 64.2925 156.321 60.9395 159.174 58.0883C163.228 54.0375 171.673 36.484 174.375 30.0703C177.077 23.6565 181.501 14.5422 190.083 14.5422C198.664 14.5422 203.088 23.6565 205.79 30.0703C208.492 36.484 216.937 54.0375 220.991 58.0883C223.844 60.9395 231.885 64.2925 238.871 67.2055C241.811 68.431 244.563 69.5786 246.663 70.5783C246.993 70.7351 247.326 70.8925 247.66 71.0507C254.524 74.2972 262.202 77.929 262.202 86.1063C262.202 94.2836 254.524 97.9154 247.66 101.162C247.326 101.32 246.993 101.477 246.663 101.634C244.563 102.634 241.811 103.782 238.871 105.007C231.885 107.92 223.844 111.273 220.991 114.124C216.937 118.175 208.492 135.729 205.79 142.142C203.088 148.556 198.664 157.67 190.083 157.67C181.501 157.67 177.077 148.556 174.375 142.142C171.673 135.729 163.228 118.175 159.174 114.124C156.321 111.273 148.28 107.92 141.294 105.007C138.354 103.782 135.602 102.634 133.502 101.634C133.172 101.477 132.839 101.32 132.505 101.162Z" fill="url(#paint1_linear_322_113)"/>
<defs>
<linearGradient id="paint0_linear_322_113" x1="281.171" y1="0.106436" x2="101.831" y2="171.077" gradientUnits="userSpaceOnUse">
<stop stop-color="#00A3FF"/>
<stop offset="1" stop-color="#FF00C7"/>
</linearGradient>
<linearGradient id="paint1_linear_322_113" x1="291.778" y1="0.106373" x2="88.2808" y2="10.6032" gradientUnits="userSpaceOnUse">
<stop stop-color="#00FFF0"/>
<stop offset="0.0001" stop-color="#13DEF2"/>
<stop offset="0.855974" stop-color="#E26CFF"/>
</linearGradient>
</defs>
</svg>
