<svg width="705" height="180" viewBox="0 0 705 180" fill="none" xmlns="http://www.w3.org/2000/svg">
<path d="M276.251 111.567L264.955 83.4072L264.892 83.2502H264.723H253.5H253.122L253.27 83.5983L271.403 126.126L271.467 126.278H271.633H280.545H280.712L280.776 126.124L301.701 75.9439L301.846 75.5977H301.47H290.495H290.324L290.262 75.7566L276.251 111.567Z" fill="white" stroke="#1A1F39" stroke-width="0.5"/>
<path d="M234.453 75.7498L234.389 75.5977H234.223H223H222.621L222.77 75.9462L244.295 126.126L244.36 126.278H244.524H255.581H255.959L255.811 125.93L234.453 75.7498Z" fill="white" stroke="#1A1F39" stroke-width="0.5"/>
<mask id="path-3-outside-1_423_840" maskUnits="userSpaceOnUse" x="308.59" y="51" width="396" height="77" fill="black">
<rect fill="white" x="308.59" y="51" width="400" height="77"/>
<path d="M322.85 58.63C322.85 60.466 322.204 62.03 320.912 63.322C319.62 64.614 318.056 65.26 316.22 65.26C314.384 65.26 312.82 64.614 311.528 63.322C310.236 62.03 309.59 60.466 309.59 58.63C309.59 56.794 310.236 55.23 311.528 53.938C312.82 52.646 314.384 52 316.22 52C318.056 52 319.62 52.646 320.912 53.938C322.204 55.23 322.85 56.794 322.85 58.63ZM320.912 75.868V125.848H311.528V75.868H320.912Z"/>
<path d="M372.374 111.976C372.374 116.328 370.47 120 366.662 122.992C362.854 125.984 358.06 127.48 352.28 127.48C347.248 127.48 342.828 126.188 339.02 123.604C335.212 120.952 332.492 117.484 330.86 113.2L339.224 109.63C340.448 112.622 342.216 114.968 344.528 116.668C346.908 118.3 349.492 119.116 352.28 119.116C355.272 119.116 357.754 118.47 359.726 117.178C361.766 115.886 362.786 114.356 362.786 112.588C362.786 109.392 360.338 107.046 355.442 105.55L346.874 103.408C337.15 100.96 332.288 96.268 332.288 89.332C332.288 84.776 334.124 81.138 337.796 78.418C341.536 75.63 346.296 74.236 352.076 74.236C356.496 74.236 360.474 75.29 364.01 77.398C367.614 79.506 370.13 82.328 371.558 85.864L363.194 89.332C362.242 87.224 360.678 85.592 358.502 84.436C356.394 83.212 354.014 82.6 351.362 82.6C348.914 82.6 346.704 83.212 344.732 84.436C342.828 85.66 341.876 87.156 341.876 88.924C341.876 91.78 344.562 93.82 349.934 95.044L357.482 96.982C367.41 99.43 372.374 104.428 372.374 111.976Z"/>
<path d="M404.48 118.912C409.104 118.912 412.878 117.246 415.802 113.914C418.862 110.582 420.392 106.23 420.392 100.858C420.392 95.622 418.862 91.304 415.802 87.904C412.81 84.504 409.036 82.804 404.48 82.804C399.992 82.804 396.218 84.504 393.158 87.904C390.098 91.304 388.568 95.622 388.568 100.858C388.568 106.162 390.098 110.48 393.158 113.812C396.218 117.212 399.992 118.912 404.48 118.912ZM402.95 127.48C396.422 127.48 390.812 124.896 386.12 119.728C381.496 114.492 379.184 108.202 379.184 100.858C379.184 93.514 381.496 87.224 386.12 81.988C390.812 76.82 396.422 74.236 402.95 74.236C406.622 74.236 409.954 75.018 412.946 76.582C416.006 78.146 418.352 80.22 419.984 82.804H420.392L419.984 75.868V52.816H429.368V125.848H420.392V118.912H419.984C418.352 121.496 416.006 123.57 412.946 125.134C409.954 126.698 406.622 127.48 402.95 127.48Z"/>
<path d="M438.455 100.858C438.455 93.174 440.869 86.816 445.697 81.784C450.593 76.752 456.747 74.236 464.159 74.236C471.571 74.236 477.691 76.752 482.519 81.784C487.415 86.816 489.863 93.174 489.863 100.858C489.863 108.61 487.415 114.968 482.519 119.932C477.691 124.964 471.571 127.48 464.159 127.48C456.747 127.48 450.593 124.964 445.697 119.932C440.869 114.9 438.455 108.542 438.455 100.858ZM447.839 100.858C447.839 106.23 449.403 110.582 452.531 113.914C455.659 117.246 459.535 118.912 464.159 118.912C468.783 118.912 472.659 117.246 475.787 113.914C478.915 110.582 480.479 106.23 480.479 100.858C480.479 95.554 478.915 91.236 475.787 87.904C472.591 84.504 468.715 82.804 464.159 82.804C459.603 82.804 455.727 84.504 452.531 87.904C449.403 91.236 447.839 95.554 447.839 100.858Z"/>
<path d="M507.776 125.848H498.392V75.868H507.368V82.804H507.776C509.204 80.356 511.38 78.316 514.304 76.684C517.296 75.052 520.254 74.236 523.178 74.236C526.85 74.236 530.08 75.086 532.868 76.786C535.656 78.486 537.696 80.832 538.988 83.824C543.136 77.432 548.882 74.236 556.226 74.236C562.006 74.236 566.46 76.004 569.588 79.54C572.716 83.076 574.28 88.108 574.28 94.636V125.848H564.896V96.064C564.896 91.372 564.046 88.006 562.346 85.966C560.646 83.858 557.79 82.804 553.778 82.804C550.174 82.804 547.148 84.334 544.7 87.394C542.252 90.454 541.028 94.058 541.028 98.206V125.848H531.644V96.064C531.644 91.372 530.794 88.006 529.094 85.966C527.394 83.858 524.538 82.804 520.526 82.804C516.922 82.804 513.896 84.334 511.448 87.394C509 90.454 507.776 94.058 507.776 98.206V125.848Z"/>
<path d="M598.389 58.63C598.389 60.466 597.743 62.03 596.451 63.322C595.159 64.614 593.595 65.26 591.759 65.26C589.923 65.26 588.359 64.614 587.067 63.322C585.775 62.03 585.129 60.466 585.129 58.63C585.129 56.794 585.775 55.23 587.067 53.938C588.359 52.646 589.923 52 591.759 52C593.595 52 595.159 52.646 596.451 53.938C597.743 55.23 598.389 56.794 598.389 58.63ZM596.451 75.868V125.848H587.067V75.868H596.451Z"/>
<path d="M647.913 111.976C647.913 116.328 646.009 120 642.201 122.992C638.393 125.984 633.599 127.48 627.819 127.48C622.787 127.48 618.367 126.188 614.559 123.604C610.751 120.952 608.031 117.484 606.399 113.2L614.763 109.63C615.987 112.622 617.755 114.968 620.067 116.668C622.447 118.3 625.031 119.116 627.819 119.116C630.811 119.116 633.293 118.47 635.265 117.178C637.305 115.886 638.325 114.356 638.325 112.588C638.325 109.392 635.877 107.046 630.981 105.55L622.413 103.408C612.689 100.96 607.827 96.268 607.827 89.332C607.827 84.776 609.663 81.138 613.335 78.418C617.075 75.63 621.835 74.236 627.615 74.236C632.035 74.236 636.013 75.29 639.549 77.398C643.153 79.506 645.669 82.328 647.097 85.864L638.733 89.332C637.781 87.224 636.217 85.592 634.041 84.436C631.933 83.212 629.553 82.6 626.901 82.6C624.453 82.6 622.243 83.212 620.271 84.436C618.367 85.66 617.415 87.156 617.415 88.924C617.415 91.78 620.101 93.82 625.473 95.044L633.021 96.982C642.949 99.43 647.913 104.428 647.913 111.976Z"/>
<path d="M680.019 127.48C672.675 127.48 666.623 124.964 661.863 119.932C657.103 114.9 654.723 108.542 654.723 100.858C654.723 93.242 657.035 86.918 661.659 81.886C666.283 76.786 672.199 74.236 679.407 74.236C686.819 74.236 692.701 76.65 697.053 81.478C701.473 86.238 703.683 92.936 703.683 101.572L703.581 102.592H664.311C664.447 107.488 666.079 111.432 669.207 114.424C672.335 117.416 676.075 118.912 680.427 118.912C686.411 118.912 691.103 115.92 694.503 109.936L702.867 114.016C700.623 118.232 697.495 121.53 693.483 123.91C689.539 126.29 685.051 127.48 680.019 127.48ZM665.025 94.84H693.687C693.415 91.372 691.987 88.516 689.403 86.272C686.887 83.96 683.487 82.804 679.203 82.804C675.667 82.804 672.607 83.892 670.023 86.068C667.507 88.244 665.841 91.168 665.025 94.84Z"/>
</mask>
<path d="M322.85 58.63C322.85 60.466 322.204 62.03 320.912 63.322C319.62 64.614 318.056 65.26 316.22 65.26C314.384 65.26 312.82 64.614 311.528 63.322C310.236 62.03 309.59 60.466 309.59 58.63C309.59 56.794 310.236 55.23 311.528 53.938C312.82 52.646 314.384 52 316.22 52C318.056 52 319.62 52.646 320.912 53.938C322.204 55.23 322.85 56.794 322.85 58.63ZM320.912 75.868V125.848H311.528V75.868H320.912Z" fill="white"/>
<path d="M372.374 111.976C372.374 116.328 370.47 120 366.662 122.992C362.854 125.984 358.06 127.48 352.28 127.48C347.248 127.48 342.828 126.188 339.02 123.604C335.212 120.952 332.492 117.484 330.86 113.2L339.224 109.63C340.448 112.622 342.216 114.968 344.528 116.668C346.908 118.3 349.492 119.116 352.28 119.116C355.272 119.116 357.754 118.47 359.726 117.178C361.766 115.886 362.786 114.356 362.786 112.588C362.786 109.392 360.338 107.046 355.442 105.55L346.874 103.408C337.15 100.96 332.288 96.268 332.288 89.332C332.288 84.776 334.124 81.138 337.796 78.418C341.536 75.63 346.296 74.236 352.076 74.236C356.496 74.236 360.474 75.29 364.01 77.398C367.614 79.506 370.13 82.328 371.558 85.864L363.194 89.332C362.242 87.224 360.678 85.592 358.502 84.436C356.394 83.212 354.014 82.6 351.362 82.6C348.914 82.6 346.704 83.212 344.732 84.436C342.828 85.66 341.876 87.156 341.876 88.924C341.876 91.78 344.562 93.82 349.934 95.044L357.482 96.982C367.41 99.43 372.374 104.428 372.374 111.976Z" fill="white"/>
<path d="M404.48 118.912C409.104 118.912 412.878 117.246 415.802 113.914C418.862 110.582 420.392 106.23 420.392 100.858C420.392 95.622 418.862 91.304 415.802 87.904C412.81 84.504 409.036 82.804 404.48 82.804C399.992 82.804 396.218 84.504 393.158 87.904C390.098 91.304 388.568 95.622 388.568 100.858C388.568 106.162 390.098 110.48 393.158 113.812C396.218 117.212 399.992 118.912 404.48 118.912ZM402.95 127.48C396.422 127.48 390.812 124.896 386.12 119.728C381.496 114.492 379.184 108.202 379.184 100.858C379.184 93.514 381.496 87.224 386.12 81.988C390.812 76.82 396.422 74.236 402.95 74.236C406.622 74.236 409.954 75.018 412.946 76.582C416.006 78.146 418.352 80.22 419.984 82.804H420.392L419.984 75.868V52.816H429.368V125.848H420.392V118.912H419.984C418.352 121.496 416.006 123.57 412.946 125.134C409.954 126.698 406.622 127.48 402.95 127.48Z" fill="white"/>
<path d="M438.455 100.858C438.455 93.174 440.869 86.816 445.697 81.784C450.593 76.752 456.747 74.236 464.159 74.236C471.571 74.236 477.691 76.752 482.519 81.784C487.415 86.816 489.863 93.174 489.863 100.858C489.863 108.61 487.415 114.968 482.519 119.932C477.691 124.964 471.571 127.48 464.159 127.48C456.747 127.48 450.593 124.964 445.697 119.932C440.869 114.9 438.455 108.542 438.455 100.858ZM447.839 100.858C447.839 106.23 449.403 110.582 452.531 113.914C455.659 117.246 459.535 118.912 464.159 118.912C468.783 118.912 472.659 117.246 475.787 113.914C478.915 110.582 480.479 106.23 480.479 100.858C480.479 95.554 478.915 91.236 475.787 87.904C472.591 84.504 468.715 82.804 464.159 82.804C459.603 82.804 455.727 84.504 452.531 87.904C449.403 91.236 447.839 95.554 447.839 100.858Z" fill="white"/>
<path d="M507.776 125.848H498.392V75.868H507.368V82.804H507.776C509.204 80.356 511.38 78.316 514.304 76.684C517.296 75.052 520.254 74.236 523.178 74.236C526.85 74.236 530.08 75.086 532.868 76.786C535.656 78.486 537.696 80.832 538.988 83.824C543.136 77.432 548.882 74.236 556.226 74.236C562.006 74.236 566.46 76.004 569.588 79.54C572.716 83.076 574.28 88.108 574.28 94.636V125.848H564.896V96.064C564.896 91.372 564.046 88.006 562.346 85.966C560.646 83.858 557.79 82.804 553.778 82.804C550.174 82.804 547.148 84.334 544.7 87.394C542.252 90.454 541.028 94.058 541.028 98.206V125.848H531.644V96.064C531.644 91.372 530.794 88.006 529.094 85.966C527.394 83.858 524.538 82.804 520.526 82.804C516.922 82.804 513.896 84.334 511.448 87.394C509 90.454 507.776 94.058 507.776 98.206V125.848Z" fill="white"/>
<path d="M598.389 58.63C598.389 60.466 597.743 62.03 596.451 63.322C595.159 64.614 593.595 65.26 591.759 65.26C589.923 65.26 588.359 64.614 587.067 63.322C585.775 62.03 585.129 60.466 585.129 58.63C585.129 56.794 585.775 55.23 587.067 53.938C588.359 52.646 589.923 52 591.759 52C593.595 52 595.159 52.646 596.451 53.938C597.743 55.23 598.389 56.794 598.389 58.63ZM596.451 75.868V125.848H587.067V75.868H596.451Z" fill="white"/>
<path d="M647.913 111.976C647.913 116.328 646.009 120 642.201 122.992C638.393 125.984 633.599 127.48 627.819 127.48C622.787 127.48 618.367 126.188 614.559 123.604C610.751 120.952 608.031 117.484 606.399 113.2L614.763 109.63C615.987 112.622 617.755 114.968 620.067 116.668C622.447 118.3 625.031 119.116 627.819 119.116C630.811 119.116 633.293 118.47 635.265 117.178C637.305 115.886 638.325 114.356 638.325 112.588C638.325 109.392 635.877 107.046 630.981 105.55L622.413 103.408C612.689 100.96 607.827 96.268 607.827 89.332C607.827 84.776 609.663 81.138 613.335 78.418C617.075 75.63 621.835 74.236 627.615 74.236C632.035 74.236 636.013 75.29 639.549 77.398C643.153 79.506 645.669 82.328 647.097 85.864L638.733 89.332C637.781 87.224 636.217 85.592 634.041 84.436C631.933 83.212 629.553 82.6 626.901 82.6C624.453 82.6 622.243 83.212 620.271 84.436C618.367 85.66 617.415 87.156 617.415 88.924C617.415 91.78 620.101 93.82 625.473 95.044L633.021 96.982C642.949 99.43 647.913 104.428 647.913 111.976Z" fill="white"/>
<path d="M680.019 127.48C672.675 127.48 666.623 124.964 661.863 119.932C657.103 114.9 654.723 108.542 654.723 100.858C654.723 93.242 657.035 86.918 661.659 81.886C666.283 76.786 672.199 74.236 679.407 74.236C686.819 74.236 692.701 76.65 697.053 81.478C701.473 86.238 703.683 92.936 703.683 101.572L703.581 102.592H664.311C664.447 107.488 666.079 111.432 669.207 114.424C672.335 117.416 676.075 118.912 680.427 118.912C686.411 118.912 691.103 115.92 694.503 109.936L702.867 114.016C700.623 118.232 697.495 121.53 693.483 123.91C689.539 126.29 685.051 127.48 680.019 127.48ZM665.025 94.84H693.687C693.415 91.372 691.987 88.516 689.403 86.272C686.887 83.96 683.487 82.804 679.203 82.804C675.667 82.804 672.607 83.892 670.023 86.068C667.507 88.244 665.841 91.168 665.025 94.84Z" fill="white"/>
<path d="M322.85 58.63C322.85 60.466 322.204 62.03 320.912 63.322C319.62 64.614 318.056 65.26 316.22 65.26C314.384 65.26 312.82 64.614 311.528 63.322C310.236 62.03 309.59 60.466 309.59 58.63C309.59 56.794 310.236 55.23 311.528 53.938C312.82 52.646 314.384 52 316.22 52C318.056 52 319.62 52.646 320.912 53.938C322.204 55.23 322.85 56.794 322.85 58.63ZM320.912 75.868V125.848H311.528V75.868H320.912Z" stroke="#1A1F39" mask="url(#path-3-outside-1_423_840)"/>
<path d="M372.374 111.976C372.374 116.328 370.47 120 366.662 122.992C362.854 125.984 358.06 127.48 352.28 127.48C347.248 127.48 342.828 126.188 339.02 123.604C335.212 120.952 332.492 117.484 330.86 113.2L339.224 109.63C340.448 112.622 342.216 114.968 344.528 116.668C346.908 118.3 349.492 119.116 352.28 119.116C355.272 119.116 357.754 118.47 359.726 117.178C361.766 115.886 362.786 114.356 362.786 112.588C362.786 109.392 360.338 107.046 355.442 105.55L346.874 103.408C337.15 100.96 332.288 96.268 332.288 89.332C332.288 84.776 334.124 81.138 337.796 78.418C341.536 75.63 346.296 74.236 352.076 74.236C356.496 74.236 360.474 75.29 364.01 77.398C367.614 79.506 370.13 82.328 371.558 85.864L363.194 89.332C362.242 87.224 360.678 85.592 358.502 84.436C356.394 83.212 354.014 82.6 351.362 82.6C348.914 82.6 346.704 83.212 344.732 84.436C342.828 85.66 341.876 87.156 341.876 88.924C341.876 91.78 344.562 93.82 349.934 95.044L357.482 96.982C367.41 99.43 372.374 104.428 372.374 111.976Z" stroke="#1A1F39" mask="url(#path-3-outside-1_423_840)"/>
<path d="M404.48 118.912C409.104 118.912 412.878 117.246 415.802 113.914C418.862 110.582 420.392 106.23 420.392 100.858C420.392 95.622 418.862 91.304 415.802 87.904C412.81 84.504 409.036 82.804 404.48 82.804C399.992 82.804 396.218 84.504 393.158 87.904C390.098 91.304 388.568 95.622 388.568 100.858C388.568 106.162 390.098 110.48 393.158 113.812C396.218 117.212 399.992 118.912 404.48 118.912ZM402.95 127.48C396.422 127.48 390.812 124.896 386.12 119.728C381.496 114.492 379.184 108.202 379.184 100.858C379.184 93.514 381.496 87.224 386.12 81.988C390.812 76.82 396.422 74.236 402.95 74.236C406.622 74.236 409.954 75.018 412.946 76.582C416.006 78.146 418.352 80.22 419.984 82.804H420.392L419.984 75.868V52.816H429.368V125.848H420.392V118.912H419.984C418.352 121.496 416.006 123.57 412.946 125.134C409.954 126.698 406.622 127.48 402.95 127.48Z" stroke="#1A1F39" mask="url(#path-3-outside-1_423_840)"/>
<path d="M438.455 100.858C438.455 93.174 440.869 86.816 445.697 81.784C450.593 76.752 456.747 74.236 464.159 74.236C471.571 74.236 477.691 76.752 482.519 81.784C487.415 86.816 489.863 93.174 489.863 100.858C489.863 108.61 487.415 114.968 482.519 119.932C477.691 124.964 471.571 127.48 464.159 127.48C456.747 127.48 450.593 124.964 445.697 119.932C440.869 114.9 438.455 108.542 438.455 100.858ZM447.839 100.858C447.839 106.23 449.403 110.582 452.531 113.914C455.659 117.246 459.535 118.912 464.159 118.912C468.783 118.912 472.659 117.246 475.787 113.914C478.915 110.582 480.479 106.23 480.479 100.858C480.479 95.554 478.915 91.236 475.787 87.904C472.591 84.504 468.715 82.804 464.159 82.804C459.603 82.804 455.727 84.504 452.531 87.904C449.403 91.236 447.839 95.554 447.839 100.858Z" stroke="#1A1F39" mask="url(#path-3-outside-1_423_840)"/>
<path d="M507.776 125.848H498.392V75.868H507.368V82.804H507.776C509.204 80.356 511.38 78.316 514.304 76.684C517.296 75.052 520.254 74.236 523.178 74.236C526.85 74.236 530.08 75.086 532.868 76.786C535.656 78.486 537.696 80.832 538.988 83.824C543.136 77.432 548.882 74.236 556.226 74.236C562.006 74.236 566.46 76.004 569.588 79.54C572.716 83.076 574.28 88.108 574.28 94.636V125.848H564.896V96.064C564.896 91.372 564.046 88.006 562.346 85.966C560.646 83.858 557.79 82.804 553.778 82.804C550.174 82.804 547.148 84.334 544.7 87.394C542.252 90.454 541.028 94.058 541.028 98.206V125.848H531.644V96.064C531.644 91.372 530.794 88.006 529.094 85.966C527.394 83.858 524.538 82.804 520.526 82.804C516.922 82.804 513.896 84.334 511.448 87.394C509 90.454 507.776 94.058 507.776 98.206V125.848Z" stroke="#1A1F39" mask="url(#path-3-outside-1_423_840)"/>
<path d="M598.389 58.63C598.389 60.466 597.743 62.03 596.451 63.322C595.159 64.614 593.595 65.26 591.759 65.26C589.923 65.26 588.359 64.614 587.067 63.322C585.775 62.03 585.129 60.466 585.129 58.63C585.129 56.794 585.775 55.23 587.067 53.938C588.359 52.646 589.923 52 591.759 52C593.595 52 595.159 52.646 596.451 53.938C597.743 55.23 598.389 56.794 598.389 58.63ZM596.451 75.868V125.848H587.067V75.868H596.451Z" stroke="#1A1F39" mask="url(#path-3-outside-1_423_840)"/>
<path d="M647.913 111.976C647.913 116.328 646.009 120 642.201 122.992C638.393 125.984 633.599 127.48 627.819 127.48C622.787 127.48 618.367 126.188 614.559 123.604C610.751 120.952 608.031 117.484 606.399 113.2L614.763 109.63C615.987 112.622 617.755 114.968 620.067 116.668C622.447 118.3 625.031 119.116 627.819 119.116C630.811 119.116 633.293 118.47 635.265 117.178C637.305 115.886 638.325 114.356 638.325 112.588C638.325 109.392 635.877 107.046 630.981 105.55L622.413 103.408C612.689 100.96 607.827 96.268 607.827 89.332C607.827 84.776 609.663 81.138 613.335 78.418C617.075 75.63 621.835 74.236 627.615 74.236C632.035 74.236 636.013 75.29 639.549 77.398C643.153 79.506 645.669 82.328 647.097 85.864L638.733 89.332C637.781 87.224 636.217 85.592 634.041 84.436C631.933 83.212 629.553 82.6 626.901 82.6C624.453 82.6 622.243 83.212 620.271 84.436C618.367 85.66 617.415 87.156 617.415 88.924C617.415 91.78 620.101 93.82 625.473 95.044L633.021 96.982C642.949 99.43 647.913 104.428 647.913 111.976Z" stroke="#1A1F39" mask="url(#path-3-outside-1_423_840)"/>
<path d="M680.019 127.48C672.675 127.48 666.623 124.964 661.863 119.932C657.103 114.9 654.723 108.542 654.723 100.858C654.723 93.242 657.035 86.918 661.659 81.886C666.283 76.786 672.199 74.236 679.407 74.236C686.819 74.236 692.701 76.65 697.053 81.478C701.473 86.238 703.683 92.936 703.683 101.572L703.581 102.592H664.311C664.447 107.488 666.079 111.432 669.207 114.424C672.335 117.416 676.075 118.912 680.427 118.912C686.411 118.912 691.103 115.92 694.503 109.936L702.867 114.016C700.623 118.232 697.495 121.53 693.483 123.91C689.539 126.29 685.051 127.48 680.019 127.48ZM665.025 94.84H693.687C693.415 91.372 691.987 88.516 689.403 86.272C686.887 83.96 683.487 82.804 679.203 82.804C675.667 82.804 672.607 83.892 670.023 86.068C667.507 88.244 665.841 91.168 665.025 94.84Z" stroke="#1A1F39" mask="url(#path-3-outside-1_423_840)"/>
<path opacity="0.65" fill-rule="evenodd" clip-rule="evenodd" d="M89.8465 179.582C139.406 179.582 179.582 139.406 179.582 89.8465C179.582 40.2869 139.406 0.110943 89.8465 0.110939C40.2869 0.110934 0.110928 40.2869 0.110924 89.8465C0.11092 139.406 40.2869 179.582 89.8465 179.582ZM121.346 36.8498C128.766 34.1972 137.067 31.2299 143.071 37.2342C149.076 43.2386 146.108 51.5392 143.456 58.9592C143.327 59.3209 143.198 59.6804 143.071 60.0375C142.264 62.3128 141.087 65.175 139.83 68.2314C136.843 75.4964 133.405 83.8588 133.405 88.0459C133.405 93.9946 140.097 113.08 142.823 119.772C145.55 126.464 148.996 136.402 142.7 142.699C136.403 148.996 126.465 145.55 119.772 142.823C113.08 140.097 93.9947 133.405 88.046 133.405C83.8589 133.405 75.4965 136.843 68.2316 139.83C65.1751 141.087 62.3129 142.264 60.0376 143.071C59.6805 143.198 59.321 143.326 58.9594 143.456C51.5393 146.108 43.2386 149.076 37.2343 143.071C31.23 137.067 34.1973 128.766 36.8498 121.346C36.9791 120.985 37.1076 120.625 37.2343 120.268C38.0417 117.993 39.2186 115.13 40.4753 112.074C43.4625 104.809 46.9009 96.4467 46.9009 92.2595C46.9009 86.3109 40.2087 67.2255 37.4822 60.5332C34.7557 53.841 31.3092 43.903 37.6061 37.606C43.9031 31.3091 53.8411 34.7556 60.5334 37.4821C67.2256 40.2086 86.311 46.9008 92.2596 46.9008C96.4468 46.9008 104.809 43.4624 112.074 40.4752C115.13 39.2185 117.993 38.0416 120.268 37.2342C120.625 37.1076 120.985 36.979 121.346 36.8498Z" fill="url(#paint0_linear_423_840)"/>
<path opacity="0.65" fill-rule="evenodd" clip-rule="evenodd" d="M153.299 26.3939C118.255 -8.65006 61.4378 -8.65007 26.3938 26.3938C-8.65011 61.4378 -8.65011 118.255 26.3938 153.299C61.4377 188.343 118.255 188.343 153.299 153.299C188.343 118.255 188.343 61.4378 153.299 26.3939ZM30.0983 105.047C22.9759 101.676 15.0082 97.9047 15.0082 89.4133C15.0082 80.9219 22.9759 77.1507 30.0982 73.7795C30.4454 73.6152 30.7905 73.4519 31.1326 73.289C33.3124 72.2509 36.1684 71.0592 39.2183 69.7867C46.4677 66.7618 54.8121 63.2801 57.7728 60.3193C61.9792 56.113 70.7424 37.8855 73.5467 31.2254C76.3509 24.5653 80.9411 15.101 89.8463 15.101C98.7515 15.101 103.342 24.5653 106.146 31.2254C108.95 37.8855 117.713 56.113 121.92 60.3194C124.881 63.2801 133.225 66.7619 140.474 69.7867C143.524 71.0593 146.38 72.251 148.56 73.289C148.902 73.4519 149.247 73.6152 149.594 73.7795C156.717 77.1507 164.684 80.9219 164.684 89.4133C164.684 97.9047 156.717 101.676 149.594 105.047C149.247 105.211 148.902 105.375 148.56 105.538C146.38 106.576 143.524 107.767 140.474 109.04C133.225 112.065 124.881 115.547 121.92 118.507C117.713 122.714 108.95 140.941 106.146 147.601C103.342 154.261 98.7515 163.726 89.8463 163.726C80.9411 163.726 76.3509 154.261 73.5467 147.601C70.7424 140.941 61.9792 122.714 57.7728 118.507C54.8121 115.547 46.4677 112.065 39.2183 109.04C36.1684 107.767 33.3124 106.576 31.1326 105.538C30.7905 105.375 30.4454 105.211 30.0983 105.047Z" fill="url(#paint1_linear_423_840)"/>
<defs>
<linearGradient id="paint0_linear_423_840" x1="184.368" y1="0.110953" x2="-1.8529" y2="177.521" gradientUnits="userSpaceOnUse">
<stop stop-color="#00A3FF"/>
<stop offset="1" stop-color="#FF00C7"/>
</linearGradient>
<linearGradient id="paint1_linear_423_840" x1="195.376" y1="0.110859" x2="-15.7935" y2="10.996" gradientUnits="userSpaceOnUse">
<stop stop-color="#00FFF0"/>
<stop offset="0.0001" stop-color="#13DEF2"/>
<stop offset="0.855974" stop-color="#E26CFF"/>
</linearGradient>
</defs>
</svg>
