<svg width="39" height="38" viewBox="0 0 39 38" fill="none" xmlns="http://www.w3.org/2000/svg">
<path fill-rule="evenodd" clip-rule="evenodd" d="M20.9672 2.42712C20.9672 1.61596 20.3096 0.958374 19.4985 0.958374C18.6873 0.958374 18.0297 1.61596 18.0297 2.42712V4.38546C18.0297 5.19663 18.6873 5.85421 19.4985 5.85421C20.3096 5.85421 20.9672 5.19663 20.9672 4.38546V2.42712ZM15.2909 10.2605C13.9307 10.2605 12.7483 11.1943 12.4333 12.5176L10.5682 20.3509C10.129 22.1957 11.5267 23.9667 13.4224 23.9688H5.49923C4.13899 23.9688 2.95667 24.9027 2.64161 26.2259L0.776531 34.0592C0.337042 35.9051 1.7367 37.6771 3.63415 37.6771H15.7794C17.6769 37.6771 19.0765 35.9051 18.6371 34.0592L16.772 26.2259C16.4572 24.9037 15.2766 23.9703 13.9177 23.9688H25.0792C23.7204 23.9703 22.5397 24.9037 22.2249 26.2259L20.3599 34.0592C19.9204 35.9051 21.32 37.6771 23.2175 37.6771H35.3628C37.2602 37.6771 38.6599 35.9051 38.2204 34.0592L36.3553 26.2259C36.0403 24.9027 34.8579 23.9688 33.4977 23.9688H25.5745C27.4702 23.9667 28.868 22.1956 28.4287 20.3509L26.5636 12.5176C26.2486 11.1943 25.0663 10.2605 23.706 10.2605H15.2909ZM32.287 3.34689C32.8606 3.92048 32.8606 4.85044 32.287 5.42402L30.3287 7.38235C29.7551 7.95594 28.8251 7.95594 28.2516 7.38235C27.678 6.80877 27.678 5.87881 28.2516 5.30523L30.2099 3.34689C30.7835 2.77331 31.7134 2.77331 32.287 3.34689ZM8.78703 3.34689C8.21344 2.77331 7.28348 2.77331 6.7099 3.34689C6.13632 3.92048 6.13632 4.85044 6.7099 5.42402L8.66823 7.38235C9.24182 7.95594 10.1718 7.95594 10.7454 7.38235C11.3189 6.80877 11.3189 5.87881 10.7454 5.30523L8.78703 3.34689Z" fill="url(#paint0_linear_128_53)"/>
<defs>
<linearGradient id="paint0_linear_128_53" x1="19.4985" y1="0.958374" x2="19.4985" y2="37.6771" gradientUnits="userSpaceOnUse">
<stop stop-color="white"/>
<stop offset="1" stop-color="white" stop-opacity="0"/>
</linearGradient>
</defs>
</svg>
