<svg width="147" height="143" viewBox="0 0 147 143" fill="none" xmlns="http://www.w3.org/2000/svg">
<path fill-rule="evenodd" clip-rule="evenodd" d="M70.9718 135.739C107.437 135.739 136.996 106.062 136.996 69.4628C136.996 32.8511 107.437 3.18695 70.9718 3.18695C34.5067 3.18695 4.9458 32.8511 4.9458 69.4628C4.9458 106.062 34.5067 135.739 70.9718 135.739Z" stroke="#2A2E38" stroke-width="2.54956" stroke-linecap="round" stroke-linejoin="round" stroke-dasharray="1.27 7.65"/>
<path d="M101.254 93.8111C102.177 93.8111 102.925 93.059 102.925 92.1284C102.925 91.1978 102.177 90.4457 101.254 90.4457C100.331 90.4457 99.5825 91.1978 99.5825 92.1284C99.5825 93.059 100.331 93.8111 101.254 93.8111Z" fill="url(#paint0_linear_882_3226)"/>
<path d="M28.2436 106.215C28.9243 105.59 28.9728 104.532 28.3494 103.844C27.7261 103.155 26.6693 103.104 25.9873 103.729C25.3065 104.366 25.2581 105.424 25.8814 106.113C26.5035 106.801 27.5616 106.852 28.2436 106.215Z" fill="#FFBE2C"/>
<path d="M126.181 89.6553C126.863 89.0179 126.911 87.9598 126.287 87.2714C125.665 86.583 124.607 86.5321 123.925 87.1694C123.244 87.7941 123.196 88.8522 123.819 89.5405C124.443 90.2289 125.499 90.2799 126.181 89.6553Z" fill="#32D697"/>
<path d="M133.883 109.529C134.565 108.904 134.612 107.846 133.99 107.158C133.366 106.47 132.31 106.419 131.628 107.043C130.946 107.668 130.898 108.739 131.522 109.427C132.144 110.116 133.202 110.167 133.883 109.529Z" fill="#32D697"/>
<path d="M28.2436 11.2308C28.9243 10.5934 28.9728 9.53537 28.3494 8.84699C27.7261 8.15861 26.6693 8.10762 25.9873 8.74501C25.3065 9.36965 25.2581 10.4277 25.8814 11.1161C26.5035 11.8045 27.5616 11.8555 28.2436 11.2308Z" fill="#32D697"/>
<path d="M115.352 132.679C114.33 133.368 113.222 133.75 112.071 133.916C109.855 134.311 107.598 133.788 105.722 132.501C105.467 132.335 105.211 132.156 104.998 131.94C103.55 133.24 101.675 134.005 99.6302 134.005C97.2018 134.005 95.0295 132.934 93.5801 131.251C92.3882 132.934 90.4709 134.005 88.2974 134.005C84.7191 134.005 81.8215 131.086 81.8215 127.465C81.8215 125.273 82.8872 123.386 84.5062 122.175C85.4853 121.448 86.6364 121.015 87.9137 120.938C87.7862 120.416 87.7008 119.855 87.7008 119.256C87.7008 116.158 89.9597 113.583 92.8994 113.111C93.1977 113.06 93.538 113.022 93.8784 113.022C94.9008 113.022 95.839 113.277 96.6906 113.71C96.776 113.494 96.8614 113.328 96.9468 113.15C98.2241 110.396 101.036 108.458 104.274 108.458C105.127 108.458 105.937 108.586 106.703 108.853C109.344 109.669 111.389 111.862 112.114 114.565C112.284 115.176 112.369 115.865 112.369 116.502C114.67 116.936 116.8 118.261 118.121 120.416C118.76 121.448 119.187 122.57 119.356 123.692C119.825 127.121 118.419 130.69 115.352 132.679Z" fill="#777B84"/>
<path d="M96.8606 122.264C96.7752 122.098 96.6898 121.92 96.5189 121.831C96.2219 121.665 95.7528 121.831 95.4966 121.576C95.4124 121.499 95.3691 121.359 95.327 121.193C95.1562 120.25 95.7528 119.09 95.1562 118.312C95.0287 118.134 94.8579 118.006 94.7304 117.841C94.3888 117.318 94.4321 116.757 93.8776 116.413C93.4518 116.12 92.6003 116.069 92.0891 116.209C90.7251 116.591 89.6606 118.261 89.9589 119.689C90.001 119.906 90.0864 120.161 90.2993 120.288C90.8525 120.671 91.7908 119.817 92.2165 120.326C92.4294 120.543 92.344 120.887 92.302 121.193C92.1732 121.92 92.0457 122.659 91.9603 123.348C91.9182 123.641 91.9182 123.985 92.0457 124.291C92.2165 124.635 92.6003 124.852 92.9406 124.979C93.8776 125.324 94.9854 125.362 95.8382 124.852C96.6898 124.329 97.2009 123.169 96.8606 122.264Z" fill="#969BA7"/>
<path d="M88.4248 123.819C88.3406 123.819 88.2119 123.819 88.1265 123.858C86.4234 124.24 85.5285 125.744 86.2946 127.338C86.4654 127.771 86.7637 128.205 87.1895 128.332C87.6153 128.46 88.2119 128.154 88.1698 127.682C88.1698 127.555 88.0844 127.427 88.0844 127.3C87.999 126.955 88.1698 126.573 88.4248 126.305C88.681 126.05 89.0214 125.885 89.363 125.795C89.5759 125.706 89.7888 125.668 89.9596 125.489C90.1725 125.273 90.1725 124.928 90.0871 124.635C89.7888 124.074 89.1068 123.768 88.4248 123.819Z" fill="#969BA7"/>
<path d="M105.126 112.117C104.956 112.028 104.785 112.028 104.615 111.989C102.229 111.811 99.4167 112.028 98.6072 114.781C98.3943 115.47 98.3943 116.209 98.5218 116.897C98.5651 117.318 98.6926 117.713 98.9055 118.057C99.1184 118.402 99.5021 118.695 99.9279 118.695C100.354 118.695 100.737 118.478 100.994 118.185C101.249 117.879 101.419 117.496 101.632 117.152C102.187 116.069 103.08 114.96 104.274 114.781C104.615 114.743 104.956 114.743 105.254 114.564C105.893 114.182 105.85 113.239 105.509 112.589C105.381 112.372 105.296 112.206 105.126 112.117Z" fill="#969BA7"/>
<path d="M102.911 123.169C102.228 123.424 101.972 124.291 101.674 124.98C101.035 126.484 99.7146 127.644 98.1811 128.115C97.4991 128.332 94.7302 128.638 96.2217 129.747C96.9879 130.308 97.7974 130.907 98.7343 131.035C99.758 131.175 100.822 130.742 101.674 130.142C103.038 129.148 104.102 127.682 104.615 126.05C104.828 125.413 104.913 124.674 104.699 124.036C104.444 123.386 103.762 122.863 103.123 123.08C102.996 123.169 102.953 123.169 102.911 123.169Z" fill="#969BA7"/>
<path d="M113.647 120.594C113.519 120.326 113.305 120.123 113.05 119.982C112.496 119.638 111.815 119.562 111.218 119.689C109.258 120.199 108.406 122.914 109.343 124.635C109.428 124.801 109.599 125.018 109.812 125.018C109.94 125.018 110.067 124.979 110.196 124.89C110.962 124.329 110.494 122.914 111.26 122.353C111.857 121.971 112.624 122.353 113.348 122.315C113.434 122.315 113.561 122.264 113.603 122.226C113.689 122.137 113.689 122.009 113.732 121.92C113.774 121.499 113.816 120.977 113.647 120.594Z" fill="#969BA7"/>
<path d="M109.387 130.907C108.747 130.436 105.68 128.638 106.746 131.086C106.959 131.557 107.512 131.812 107.981 132.029C108.321 132.156 108.62 132.335 108.96 132.462C109.216 132.59 109.515 132.679 109.813 132.552C110.111 132.411 110.197 131.94 110.068 131.647C109.94 131.341 109.642 131.124 109.387 130.907Z" fill="#969BA7"/>
<path d="M92.7705 113.188C93.0688 113.149 93.4104 113.111 93.7508 113.111C94.7732 113.111 95.7102 113.366 96.563 113.8C96.6484 113.583 96.7325 113.404 96.8179 113.239C96.4776 115.087 96.7759 117.063 97.0742 118.95C95.0294 117.662 94.8165 114.437 92.7705 113.188Z" fill="#5A6066"/>
<path d="M115.352 132.679C114.33 133.368 113.222 133.75 112.071 133.916C111.261 133.151 110.75 131.94 110.068 130.996C109.302 129.926 107.81 129.059 106.703 129.747C105.979 130.181 105.68 131.124 105.68 131.991C105.68 132.156 105.68 132.335 105.722 132.501C105.467 132.335 105.211 132.156 104.998 131.94C103.55 133.24 101.675 134.005 99.6302 134.005C97.2018 134.005 95.0295 132.934 93.5801 131.251C92.3882 132.934 90.4709 134.005 88.2974 134.005C84.7191 134.005 81.8215 131.086 81.8215 127.465C81.8215 125.273 82.8872 123.386 84.5062 122.175C84.7612 122.953 84.4208 123.768 84.25 124.546C83.6967 127.261 85.4853 130.27 88.1266 130.958C88.6811 131.086 89.2777 131.175 89.7456 130.869C90.2147 130.614 90.513 129.926 90.2147 129.454C90.0872 129.275 89.9164 129.148 89.9164 128.982C89.831 128.549 90.4276 128.37 90.8113 128.421C92.5577 128.638 93.8363 130.091 95.3699 130.996C97.6275 132.335 100.653 132.207 102.868 130.78C105.084 129.365 106.49 126.739 106.49 124.113C106.49 122.659 106.149 121.193 106.575 119.817C107.043 118.134 108.578 116.936 108.96 115.215C109.217 114.055 108.876 112.805 108.151 111.951C107.598 111.339 106.83 110.868 106.49 110.09C106.319 109.669 106.404 109.147 106.661 108.802C109.302 109.618 111.347 111.811 112.071 114.526C111.474 115.125 110.921 115.725 110.623 116.553C110.41 117.063 110.366 117.662 110.154 118.185C109.984 118.657 109.686 119.09 109.429 119.511C107.768 122.392 108.407 126.433 110.878 128.676C111.73 129.454 112.795 130.002 113.903 129.964C115.309 129.926 116.502 128.893 117.184 127.682C117.865 126.484 118.163 125.069 118.505 123.73C118.505 123.641 118.547 123.552 118.59 123.475C118.803 123.259 119.143 123.424 119.356 123.692C119.825 127.121 118.419 130.69 115.352 132.679Z" fill="#5A6066"/>
<path fill-rule="evenodd" clip-rule="evenodd" d="M115.352 132.679C114.33 133.368 113.222 133.75 112.071 133.916C109.855 134.311 107.598 133.788 105.722 132.501C105.467 132.335 105.211 132.156 104.998 131.94C103.55 133.24 101.675 134.005 99.6302 134.005C97.2018 134.005 95.0295 132.934 93.5801 131.251C92.3882 132.934 90.4709 134.005 88.2974 134.005C84.7191 134.005 81.8215 131.086 81.8215 127.465C81.8215 125.273 82.8872 123.386 84.5062 122.175C85.4853 121.448 86.6364 121.015 87.9137 120.938C87.7862 120.416 87.7008 119.855 87.7008 119.256C87.7008 116.158 89.9597 113.583 92.8994 113.111C93.1977 113.06 93.538 113.022 93.8784 113.022C94.9008 113.022 95.839 113.277 96.6906 113.71C96.776 113.494 96.8614 113.328 96.9468 113.15C98.2241 110.396 101.036 108.458 104.274 108.458C105.127 108.458 105.937 108.586 106.703 108.853C109.344 109.669 111.389 111.862 112.114 114.565C112.284 115.176 112.369 115.865 112.369 116.502C114.67 116.936 116.8 118.261 118.121 120.416C118.76 121.448 119.187 122.57 119.356 123.692C119.825 127.121 118.419 130.69 115.352 132.679Z" stroke="#5D616A" stroke-width="1.27478"/>
<path d="M34.5305 63.8665C33.5082 64.5548 32.4004 64.9373 31.2493 65.1157C29.035 65.4982 26.7761 64.9883 24.9021 63.688C24.6459 63.5223 24.3909 63.3438 24.1781 63.1271C22.7286 64.4274 20.8547 65.1922 18.8087 65.1922C16.3802 65.1922 14.208 64.1214 12.7598 62.4515C11.5667 64.1214 9.64938 65.1922 7.47588 65.1922C3.89758 65.1922 1 62.273 1 58.6654C1 56.4727 2.06572 54.5733 3.68469 53.375C4.66499 52.6356 5.81485 52.215 7.09345 52.1257C6.9647 51.6031 6.88056 51.0422 6.88056 50.443C6.88056 47.3453 9.1382 44.7702 12.0778 44.2986C12.3761 44.2476 12.7165 44.2093 13.0581 44.2093C14.0805 44.2093 15.0175 44.4643 15.869 44.8977C15.9544 44.681 16.0399 44.5153 16.1253 44.3368C17.4039 41.5833 20.2148 39.6456 23.4527 39.6456C24.3055 39.6456 25.115 39.7859 25.8812 40.0408C28.5238 40.8567 30.5685 43.0493 31.2926 45.7646C31.4634 46.3637 31.5476 47.0521 31.5476 47.6895C33.8485 48.1229 35.9787 49.4614 37.2994 51.6031C37.9393 52.6356 38.3651 53.7574 38.5359 54.8793C39.0038 58.3212 37.5556 61.8905 34.5305 63.8665Z" fill="#777B84"/>
<path d="M15.9968 53.4515C15.9113 53.2858 15.8272 53.1074 15.6564 53.0309C15.3581 52.8524 14.889 53.0309 14.634 52.7632C14.5486 52.6867 14.5065 52.5592 14.4632 52.3807C14.2924 51.4374 14.889 50.2773 14.2924 49.4997C14.1649 49.334 13.9941 49.1938 13.8666 49.0281C13.5262 48.5054 13.5683 47.9572 13.015 47.6131C12.5893 47.3071 11.7364 47.2689 11.2253 47.3963C9.86251 47.7788 8.7968 49.4615 9.0951 50.8765C9.13717 51.0932 9.22258 51.3482 9.43546 51.4756C9.98999 51.8708 10.927 51.004 11.3527 51.5266C11.5656 51.7306 11.4815 52.0748 11.4381 52.3807C11.3107 53.1074 11.1832 53.8467 11.0978 54.5351C11.0544 54.8283 11.0544 55.1725 11.1832 55.4784C11.3527 55.8226 11.7364 56.0394 12.0781 56.1668C13.015 56.511 14.1228 56.5493 14.9744 56.0394C15.8693 55.5167 16.3805 54.3566 15.9968 53.4515Z" fill="#969BA7"/>
<path d="M7.60342 54.9557C7.51801 54.9557 7.39053 54.9557 7.30512 55.0067C5.60074 55.3892 4.70712 56.8934 5.47326 58.4869C5.64408 58.9203 5.94238 59.3537 6.36816 59.4812C6.79393 59.6087 7.39053 59.3028 7.34846 58.8311C7.34846 58.7036 7.26305 58.5761 7.26305 58.4486C7.17764 58.1045 7.34846 57.7093 7.60342 57.4543C7.85965 57.1994 8.20001 57.0209 8.54166 56.9444C8.75454 56.8552 8.96743 56.8169 9.13698 56.6385C9.35114 56.4217 9.35114 56.0776 9.26573 55.7844C8.96743 55.2617 8.24336 54.9557 7.60342 54.9557Z" fill="#969BA7"/>
<path d="M24.3048 43.3042C24.1353 43.215 23.9645 43.215 23.7936 43.1768C21.4085 43.011 18.5964 43.215 17.7869 45.9685C17.574 46.6569 17.574 47.3963 17.7015 48.0847C17.7448 48.5053 17.8723 48.9005 18.0852 49.2447C18.2981 49.5889 18.6818 49.8821 19.1075 49.8821C19.5333 49.8821 19.917 49.6781 20.1733 49.3722C20.4282 49.0662 20.599 48.6838 20.8119 48.3396C21.3652 47.2688 22.2601 46.147 23.4533 45.9685C23.7936 45.9303 24.1353 45.9303 24.4336 45.7646C25.0722 45.3694 25.0302 44.426 24.6885 43.7759C24.5611 43.5592 24.4336 43.3935 24.3048 43.3042Z" fill="#969BA7"/>
<path d="M22.0896 54.3566C21.4076 54.6243 21.1514 55.4784 20.8531 56.1668C20.2144 57.671 18.8937 58.8311 17.3602 59.3027C16.6782 59.5195 13.9093 59.8254 15.3996 60.9345C16.167 61.4954 16.9765 62.1073 17.9134 62.2347C18.9358 62.3622 20.0015 61.9288 20.8531 61.3296C22.2171 60.3353 23.2815 58.8821 23.7927 57.2376C24.0069 56.6002 24.091 55.8608 23.8781 55.2234C23.6232 54.5733 22.9412 54.0634 22.3025 54.2801C22.1317 54.3566 22.0896 54.3566 22.0896 54.3566Z" fill="#969BA7"/>
<path d="M32.7835 51.7816C32.656 51.5267 32.4431 51.31 32.1869 51.1825C31.6336 50.8383 30.9516 50.7491 30.355 50.8765C28.3957 51.3864 27.5428 54.1017 28.4811 55.8227C28.5652 55.9884 28.736 56.2051 28.9489 56.2051C29.0777 56.2051 29.2051 56.1669 29.3326 56.0776C30.1 55.5167 29.6309 54.1017 30.3983 53.5408C30.9949 53.1584 31.7611 53.5408 32.4852 53.5026C32.5706 53.5026 32.698 53.4516 32.7414 53.4133C32.8268 53.3241 32.8268 53.1966 32.8689 53.1074C32.9109 52.6357 32.9963 52.1641 32.7835 51.7816Z" fill="#969BA7"/>
<path d="M28.5227 62.1074C27.8841 61.6229 24.8169 59.8255 25.8814 62.2731C26.0943 62.7448 26.6488 62.9997 27.1166 63.2164C27.4583 63.3439 27.7566 63.5224 28.0969 63.6498C28.3519 63.7773 28.6502 63.8666 28.9485 63.7391C29.2468 63.6116 29.3322 63.1272 29.2047 62.834C29.1193 62.528 28.821 62.3113 28.5227 62.1074Z" fill="#969BA7"/>
<path d="M11.949 44.3879C12.2473 44.3369 12.5889 44.2986 12.9293 44.2986C13.9517 44.2986 14.8886 44.5536 15.7414 44.987C15.8269 44.7703 15.911 44.5918 15.9964 44.4261C15.656 46.2746 15.9543 48.2505 16.2526 50.1499C14.1645 48.8496 13.995 45.6244 11.949 44.3879Z" fill="#5A6066"/>
<path d="M34.5305 63.8665C33.5082 64.5549 32.4004 64.9373 31.2493 65.1158C30.4398 64.3382 29.9286 63.1271 29.2479 62.1838C28.4804 61.113 26.9889 60.2461 25.8812 60.9345C25.1571 61.3679 24.8588 62.3113 24.8588 63.1781C24.8588 63.3438 24.8588 63.5223 24.9021 63.688C24.6459 63.5223 24.3909 63.3438 24.1781 63.1271C22.7286 64.4274 20.8547 65.1923 18.8087 65.1923C16.3802 65.1923 14.208 64.1215 12.7598 62.4515C11.5667 64.1215 9.64938 65.1923 7.47588 65.1923C3.89758 65.1923 1 62.273 1 58.6654C1 56.4728 2.06572 54.5734 3.68469 53.3751C3.93964 54.1399 3.59928 54.9558 3.42846 55.7334C2.8752 58.4487 4.66499 61.4572 7.30634 62.1455C7.85959 62.273 8.45619 62.3623 8.92531 62.0563C9.39315 61.8014 9.69145 61.113 9.39315 60.6413C9.26568 60.4628 9.09486 60.3354 9.09486 60.1696C9.01072 59.7362 9.60604 59.5577 9.98975 59.6087C11.7375 59.8255 13.0148 61.2787 14.5484 62.1838C16.8073 63.5223 19.8323 63.3948 22.0466 61.9671C24.2622 60.5521 25.6683 57.926 25.6683 55.3C25.6683 53.8467 25.3279 52.3807 25.7537 51.004C26.2228 49.334 27.7564 48.123 28.1401 46.402C28.395 45.242 28.0547 43.9927 27.3306 43.1386C26.7761 42.5394 26.0099 42.055 25.6683 41.2901C25.4987 40.8567 25.5829 40.3341 25.8391 39.9899C28.4804 40.8185 30.5252 43.0111 31.2493 45.7136C30.6539 46.3128 30.0994 46.9247 29.8011 47.7405C29.5882 48.2504 29.5462 48.8496 29.3333 49.3723C29.1624 49.8439 28.8641 50.2773 28.6079 50.7108C26.9469 53.5918 27.5855 57.6328 30.0573 59.8637C30.9089 60.6413 31.9746 61.2022 33.0824 61.1512C34.4885 61.113 35.6804 60.0804 36.3624 58.8694C37.0444 57.6711 37.3427 56.2561 37.6831 54.9175C37.6831 54.8283 37.7264 54.7518 37.7685 54.6626C37.9814 54.4459 38.3217 54.6243 38.5359 54.8793C39.0038 58.3212 37.5556 61.8906 34.5305 63.8665Z" fill="#5A6066"/>
<path fill-rule="evenodd" clip-rule="evenodd" d="M34.5305 63.8665C33.5082 64.5548 32.4004 64.9373 31.2493 65.1157C29.035 65.4982 26.7761 64.9883 24.9021 63.688C24.6459 63.5223 24.3909 63.3438 24.1781 63.1271C22.7286 64.4274 20.8547 65.1922 18.8087 65.1922C16.3802 65.1922 14.208 64.1214 12.7598 62.4515C11.5667 64.1214 9.64938 65.1922 7.47588 65.1922C3.89758 65.1922 1 62.273 1 58.6654C1 56.4727 2.06572 54.5733 3.68469 53.375C4.66499 52.6356 5.81485 52.215 7.09345 52.1257C6.9647 51.6031 6.88056 51.0422 6.88056 50.443C6.88056 47.3453 9.1382 44.7702 12.0778 44.2986C12.3761 44.2476 12.7165 44.2093 13.0581 44.2093C14.0805 44.2093 15.0175 44.4643 15.869 44.8977C15.9544 44.681 16.0399 44.5153 16.1253 44.3368C17.4039 41.5833 20.2148 39.6456 23.4527 39.6456C24.3055 39.6456 25.115 39.7859 25.8812 40.0408C28.5238 40.8567 30.5685 43.0493 31.2926 45.7646C31.4634 46.3637 31.5476 47.0521 31.5476 47.6895C33.8485 48.1229 35.9787 49.4614 37.2994 51.6031C37.9393 52.6356 38.3651 53.7574 38.5359 54.8793C39.0038 58.3212 37.5556 61.8905 34.5305 63.8665Z" stroke="#5D616A" stroke-width="1.27478"/>
<path d="M64.2686 116.158C63.672 116.158 63.2029 115.686 63.6286 115.087V97.2785C63.2029 96.6793 63.672 96.2076 64.2686 96.2076C64.8639 96.2076 65.333 96.6793 65.7588 97.2785V115.087C65.333 115.648 64.8639 116.158 64.2686 116.158Z" fill="#47525F"/>
<path d="M81.6934 116.158C81.0968 116.158 80.6277 115.686 80.2019 115.087V97.2785C80.6277 96.6793 81.0968 96.2076 81.6934 96.2076C82.29 96.2076 82.7578 96.6793 82.3321 97.2785V115.087C82.7578 115.648 82.29 116.158 81.6934 116.158Z" fill="#47525F"/>
<path d="M83.355 114.399C83.1855 114.399 83.0146 114.348 82.8872 114.271C82.376 114.004 82.1618 113.366 82.418 112.805L102.357 73.4528C102.613 72.9429 103.252 72.7262 103.805 72.9811C104.317 73.2361 104.53 73.8862 104.274 74.4471L84.3353 113.8C84.1224 114.182 83.7387 114.399 83.355 114.399Z" fill="#47525F"/>
<path d="M62.2662 114.399C61.8825 114.399 61.4988 114.182 61.3293 113.8L41.3892 74.4471C41.1342 73.9245 41.3471 73.2871 41.8583 72.9811C42.3695 72.7262 43.0081 72.9429 43.3064 73.4528L63.2453 112.805C63.5015 113.328 63.2886 113.965 62.7774 114.271C62.5645 114.348 62.4358 114.399 62.2662 114.399Z" fill="#47525F"/>
<path d="M115.521 35.3879C114.329 29.116 111.772 23.3157 108.235 18.3186C100.353 7.228 87.487 0 72.9596 0C48.9721 0 29.5444 19.6061 29.5444 43.776C29.5444 45.8921 29.7153 48.0337 30.0136 50.0989C30.823 55.6059 32.6549 60.9855 35.4237 65.8042C35.6366 66.1866 35.8508 66.569 36.1057 66.9132C40.1532 73.5803 45.3517 79.3933 51.3164 84.416C53.8723 86.5703 56.5558 88.5462 58.9421 90.8663C60.7319 92.5491 62.5205 94.525 63.1171 96.9853C63.1604 97.1128 63.4153 98.6553 63.3299 98.6553H72.4472C73.2567 98.6553 73.4708 98.6553 73.4708 98.6553H82.588C82.3752 98.6553 83.0992 96.0802 83.1846 95.8635C83.5671 94.9201 84.1637 94.0151 84.8036 93.2374C86.3792 91.2615 88.3819 89.6298 90.2992 87.9853C95.5398 83.6511 100.993 79.3423 105.041 73.797C107.469 70.4444 109.983 67.0917 111.857 63.3056C113.561 59.8254 114.84 56.0776 115.564 52.2533C115.692 51.5649 115.819 50.8382 115.904 50.1499C115.99 49.6782 116.032 49.2448 116.075 48.7731C116.246 47.1286 116.33 45.4587 116.33 43.827C116.33 40.9459 116.075 38.1032 115.521 35.3879Z" fill="#373E4D"/>
<path d="M95.2414 43.827C95.2414 19.6061 85.2713 0 72.9595 0C60.6464 0 50.6343 19.6061 50.6343 43.827C50.6343 51.5266 51.6987 59.1753 53.6593 65.8424C55.7895 72.9812 58.6017 79.1766 61.7963 84.4669C63.1169 86.6086 64.4809 88.5972 65.7162 90.9173C66.6111 92.5873 67.5481 94.576 67.8464 97.0235C67.8464 97.151 68.0172 98.6935 67.9738 98.6935C70.7006 98.6935 72.0213 98.6935 72.6612 98.6935C73.087 98.6935 73.1724 98.6935 73.1724 98.6935C73.8111 98.6935 75.1317 98.6935 77.8585 98.6935C77.7731 98.6935 78.1147 96.1184 78.1568 95.9017C78.3697 94.9584 78.668 94.0533 79.0083 93.2757C79.8178 91.2998 80.8402 89.6681 81.8638 88.0363C84.5473 83.6893 87.3594 79.3933 89.4475 73.848C90.6828 70.4826 92.0035 67.1299 92.9404 63.3438C93.8353 59.8637 94.474 56.1286 94.8577 52.2915C95.1139 49.4615 95.2414 46.6187 95.2414 43.827Z" fill="#8892A5"/>
<path opacity="0.2" d="M116.33 43.776C116.33 45.4205 116.245 47.0904 116.076 48.7222C113.305 48.2505 110.877 46.8355 109.088 44.8086C107.384 47.2689 104.53 48.8496 101.334 48.8496C96.0933 48.8496 91.833 44.5536 91.833 39.2633C91.833 36.0763 93.3666 33.2846 95.753 31.5254C97.159 30.4928 98.8634 29.8427 100.737 29.7152C100.524 28.9376 100.397 28.1217 100.397 27.3058C100.397 22.7549 103.677 19.007 107.981 18.3186C108.066 18.3186 108.15 18.2804 108.236 18.2804C111.815 23.2648 114.329 29.0778 115.521 35.3497C116.076 38.1032 116.33 40.946 116.33 43.776Z" fill="#0A0B0E"/>
<path d="M139.891 43.2151C138.401 44.2094 136.738 44.8085 135.077 45.0762C131.839 45.6244 128.516 44.8978 125.789 43.0111C125.405 42.7434 125.065 42.4884 124.723 42.1952C122.637 44.0819 119.867 45.242 116.842 45.242C113.305 45.242 110.153 43.6485 107.981 41.2009C106.276 43.6485 103.422 45.242 100.226 45.242C94.9854 45.242 90.7251 40.9459 90.7251 35.6556C90.7251 32.4687 92.2587 29.6769 94.645 27.9049C96.0511 26.8851 97.7555 26.235 99.6294 26.1075C99.4165 25.3299 99.2891 24.514 99.2891 23.6982C99.2891 19.1344 102.569 15.3993 106.873 14.711C107.341 14.6217 107.81 14.5835 108.279 14.5835C109.769 14.5835 111.175 14.9277 112.412 15.5651C112.496 15.2719 112.625 15.0042 112.752 14.711C114.626 10.6699 118.717 7.82715 123.488 7.82715C124.723 7.82715 125.917 7.99287 127.024 8.38805C130.901 9.58635 133.926 12.7733 134.949 16.7251C135.205 17.6302 135.332 18.5735 135.332 19.5679C138.698 20.218 141.808 22.1939 143.769 25.3299C144.706 26.8341 145.344 28.4658 145.601 30.1103C146.495 35.1329 144.365 40.334 139.891 43.2151Z" fill="#777B84"/>
<path d="M112.838 27.9559C112.753 27.701 112.582 27.4333 112.327 27.3058C111.858 27.0508 111.219 27.3058 110.878 26.9616C110.75 26.8341 110.665 26.6174 110.623 26.4007C110.367 24.9857 111.219 23.354 110.367 22.1939C110.197 21.939 109.941 21.7605 109.77 21.5055C109.259 20.7662 109.302 19.9121 108.535 19.4022C107.896 18.9687 106.661 18.8795 105.893 19.0962C103.891 19.6954 102.315 22.1429 102.783 24.1698C102.868 24.514 102.996 24.8582 103.252 25.0239C104.061 25.5848 105.424 24.3865 106.064 25.1132C106.362 25.4574 106.277 25.929 106.192 26.3625C105.979 27.395 105.808 28.4658 105.723 29.5494C105.68 30.0211 105.638 30.4927 105.851 30.9262C106.106 31.4361 106.661 31.691 107.172 31.9078C108.535 32.4304 110.154 32.4687 111.389 31.691C112.625 30.9644 113.392 29.3327 112.838 27.9559Z" fill="#969BA7"/>
<path d="M100.524 30.2378C100.397 30.2378 100.226 30.2761 100.099 30.2761C97.5848 30.8752 96.3062 33.0296 97.3719 35.4007C97.6702 35.9999 98.0539 36.6372 98.6926 36.854C99.3313 37.0707 100.184 36.599 100.141 35.9489C100.141 35.7831 100.055 35.6047 100.013 35.4007C99.8858 34.878 100.141 34.3171 100.482 33.9347C100.865 33.5395 101.334 33.3356 101.845 33.1571C102.143 33.0296 102.484 32.9404 102.698 32.7237C102.995 32.3795 103.038 31.9078 102.868 31.4871C102.484 30.6203 101.461 30.1486 100.524 30.2378Z" fill="#969BA7"/>
<path d="M124.936 13.1175C124.723 12.99 124.468 12.939 124.17 12.939C120.719 12.684 116.543 13.0282 115.393 17.031C115.095 18.0254 115.095 19.0962 115.222 20.1288C115.308 20.7279 115.435 21.327 115.777 21.8497C116.117 22.3596 116.628 22.7548 117.225 22.793C117.821 22.8313 118.376 22.4489 118.758 22.0154C119.142 21.5438 119.398 21.0338 119.697 20.4729C120.548 18.8795 121.784 17.286 123.573 16.9928C124.084 16.9036 124.596 16.9036 125.021 16.6868C125.96 16.1642 125.916 14.7492 125.405 13.7676C125.32 13.4999 125.15 13.2832 124.936 13.1175Z" fill="#969BA7"/>
<path d="M121.699 29.3327C120.72 29.7151 120.337 30.9644 119.867 31.997C118.93 34.1896 116.971 35.9105 114.712 36.5989C113.69 36.9049 109.642 37.3765 111.816 39.0083C112.924 39.8624 114.116 40.7292 115.48 40.8949C117.013 41.1116 118.505 40.4743 119.782 39.5692C121.785 38.1032 123.318 35.9998 124.086 33.5904C124.384 32.6471 124.555 31.6145 124.213 30.6584C123.873 29.7151 122.85 28.9885 121.913 29.2434C121.828 29.2817 121.743 29.2817 121.699 29.3327Z" fill="#969BA7"/>
<path d="M137.377 25.5084C137.208 25.1132 136.866 24.82 136.484 24.6033C135.674 24.1316 134.694 23.9531 133.799 24.1698C130.945 24.8965 129.71 28.8993 131.072 31.3979C131.243 31.6528 131.456 31.9588 131.754 31.997C131.967 31.997 132.138 31.9588 132.308 31.8185C133.415 30.9644 132.777 28.8993 133.884 28.1217C134.736 27.5225 135.887 28.1727 136.91 28.0834C137.037 28.0834 137.208 28.0452 137.293 27.9559C137.421 27.8285 137.463 27.65 137.463 27.5225C137.59 26.8341 137.676 26.1075 137.377 25.5084Z" fill="#969BA7"/>
<path d="M131.157 40.64C130.177 39.9516 125.704 37.2874 127.323 40.946C127.621 41.6726 128.43 42.0168 129.154 42.3227C129.624 42.5395 130.135 42.7434 130.603 42.9219C130.986 43.0876 131.455 43.2661 131.839 43.0876C132.307 42.8836 132.436 42.2335 132.222 41.7618C132.009 41.2902 131.583 40.946 131.157 40.64Z" fill="#969BA7"/>
<path d="M106.873 14.711C107.341 14.6217 107.81 14.5835 108.279 14.5835C109.769 14.5835 111.175 14.9277 112.412 15.5651C112.496 15.2719 112.625 15.0042 112.752 14.711C112.241 17.4135 112.667 20.3455 113.136 23.099C110.153 21.2506 109.855 16.5084 106.873 14.711Z" fill="#5A6066"/>
<path d="M139.891 43.215C138.401 44.2094 136.739 44.8085 135.078 45.0762C133.884 43.9034 133.16 42.1952 132.18 40.8184C131.03 39.225 128.9 37.9757 127.238 38.97C126.173 39.6074 125.704 40.9842 125.747 42.2334C125.747 42.4884 125.79 42.7434 125.832 43.0111C125.449 42.7434 125.108 42.4884 124.767 42.1952C122.679 44.0819 119.91 45.2419 116.885 45.2419C113.349 45.2419 110.196 43.6484 108.023 41.2009C106.319 43.6484 103.464 45.2419 100.27 45.2419C95.0291 45.2419 90.7688 40.9459 90.7688 35.6556C90.7688 32.4686 92.3024 29.6769 94.6875 27.9049C95.0291 29.0267 94.56 30.2378 94.305 31.3978C93.4522 35.3496 96.1369 39.7349 99.9714 40.8184C100.781 41.0224 101.632 41.1116 102.357 40.7292C103.081 40.334 103.508 39.3014 103.039 38.6641C102.868 38.4091 102.613 38.2306 102.569 37.9374C102.442 37.3255 103.295 37.0323 103.89 37.0706C106.447 37.3765 108.321 39.5692 110.537 40.8567C113.86 42.7943 118.248 42.6159 121.529 40.5507C124.767 38.4856 126.812 34.6612 126.854 30.7987C126.897 28.6825 126.343 26.5409 126.939 24.4758C127.663 22.0154 129.837 20.218 130.434 17.7577C130.817 16.0877 130.348 14.2775 129.198 12.99C128.389 12.0849 127.281 11.3965 126.812 10.3257C126.557 9.7138 126.684 8.94893 127.068 8.42627C130.945 9.63731 133.97 12.8115 134.992 16.7761C134.097 17.6302 133.331 18.5353 132.904 19.6953C132.606 20.4729 132.522 21.327 132.18 22.1047C131.925 22.793 131.456 23.3922 131.116 24.0423C128.687 28.3001 129.624 34.1896 133.246 37.453C134.481 38.5748 136.057 39.3907 137.676 39.3014C139.722 39.225 141.468 37.759 142.49 35.9488C143.513 34.1896 143.939 32.1244 144.408 30.1485C144.45 30.021 144.45 29.8936 144.579 29.7661C144.877 29.4219 145.388 29.7151 145.686 30.1103C146.496 35.1329 144.366 40.334 139.891 43.215Z" fill="#5A6066"/>
<path fill-rule="evenodd" clip-rule="evenodd" d="M139.891 43.2151C138.401 44.2094 136.738 44.8085 135.077 45.0762C131.839 45.6244 128.516 44.8978 125.789 43.0111C125.405 42.7434 125.065 42.4884 124.723 42.1952C122.637 44.0819 119.867 45.242 116.842 45.242C113.305 45.242 110.153 43.6485 107.981 41.2009C106.276 43.6485 103.422 45.242 100.226 45.242C94.9854 45.242 90.7251 40.9459 90.7251 35.6556C90.7251 32.4687 92.2587 29.6769 94.645 27.9049C96.0511 26.8851 97.7555 26.235 99.6294 26.1075C99.4165 25.3299 99.2891 24.514 99.2891 23.6982C99.2891 19.1345 102.569 15.3993 106.873 14.711C107.341 14.6217 107.81 14.5835 108.279 14.5835C109.769 14.5835 111.175 14.9277 112.412 15.5651C112.496 15.2719 112.625 15.0042 112.752 14.711C114.626 10.6699 118.717 7.82715 123.488 7.82715C124.723 7.82715 125.917 7.99287 127.024 8.38805C130.901 9.58635 133.926 12.7733 134.949 16.7251C135.205 17.6302 135.332 18.5735 135.332 19.5679C138.698 20.218 141.808 22.1939 143.769 25.3299C144.706 26.8341 145.344 28.4658 145.601 30.1103C146.495 35.1329 144.365 40.334 139.891 43.2151Z" stroke="#5D616A" stroke-width="1.27478"/>
<path d="M72.225 112.003C72.225 112.003 56.4026 111.414 50 127.408C56.4026 143.402 72.225 142.814 72.225 142.814C72.225 142.814 88.0474 143.402 94.4499 127.408C88.0474 111.414 72.225 112.003 72.225 112.003Z" fill="#93FFD8"/>
<path d="M84.4272 123.653C83.6625 122.816 82.8978 121.992 81.9898 121.335C81.5597 120.977 81.0818 120.69 80.6158 120.391C80.3769 120.248 80.126 120.128 79.887 119.985C79.648 119.841 79.3971 119.734 79.1462 119.614C78.1426 119.148 77.0793 118.79 76.004 118.551C75.7292 118.491 75.4663 118.444 75.1915 118.384C74.9167 118.348 74.6419 118.3 74.3671 118.264C73.8295 118.205 73.256 118.157 72.7422 118.169H72.7303H72.7064C72.0253 118.169 71.2846 118.24 70.5796 118.36C69.8747 118.467 69.1698 118.635 68.4768 118.85C67.1028 119.28 65.7766 119.877 64.5818 120.666C63.3751 121.454 62.2879 122.434 61.3559 123.557C60.436 124.68 59.6593 125.935 59.0142 127.273C59.4801 125.863 60.1492 124.525 61.0094 123.294C61.8816 122.076 62.9569 121 64.1876 120.116C65.4301 119.244 66.7922 118.551 68.2379 118.109C69.6836 117.655 71.1651 117.38 72.7183 117.392H72.6944C73.8892 117.392 75.0242 117.571 76.1473 117.858C77.2704 118.133 78.3577 118.563 79.3732 119.101C79.6361 119.232 79.887 119.364 80.126 119.519C80.3649 119.674 80.6158 119.818 80.8548 119.985C81.3088 120.331 81.7867 120.654 82.1929 121.06C83.0771 121.813 83.782 122.721 84.4272 123.653Z" fill="#020204"/>
<path d="M61.1648 131.098C61.9295 131.91 62.6941 132.699 63.5902 133.332C64.0203 133.679 64.4982 133.954 64.9523 134.24C65.4302 134.491 65.9081 134.766 66.4099 134.981C67.4016 135.435 68.441 135.77 69.5044 136.009C69.7672 136.068 70.042 136.116 70.3049 136.164C70.5677 136.2 70.8425 136.248 71.1054 136.271C71.643 136.331 72.1926 136.379 72.7064 136.367H72.7303C73.4113 136.367 74.1521 136.295 74.857 136.176C75.5619 136.068 76.2668 135.901 76.9598 135.686C78.3338 135.256 79.66 134.658 80.8548 133.87C82.0615 133.081 83.1488 132.102 84.0807 130.979C85.0007 129.855 85.7773 128.601 86.4225 127.263C85.9685 128.673 85.2874 130.011 84.4272 131.241C83.555 132.46 82.4797 133.535 81.2491 134.419C80.0065 135.292 78.6445 135.973 77.1988 136.427C75.7531 136.881 74.2716 137.156 72.7183 137.144H72.7422C71.5713 137.144 70.4602 136.964 69.3491 136.69C68.2499 136.415 67.1865 136.009 66.1829 135.495C65.932 135.375 65.6811 135.244 65.4421 135.089C65.2032 134.933 64.9642 134.802 64.7252 134.635C64.2712 134.3 63.8053 133.989 63.399 133.595C62.5149 132.878 61.81 131.994 61.1648 131.098Z" fill="#020204"/>
<path d="M66.8521 120.441L65.7529 118.135C69.182 116.499 72.2764 116.499 72.7185 116.511C73.1486 116.499 76.2551 116.499 79.6841 118.135L78.5849 120.441C75.5621 118.996 72.7902 119.055 72.7663 119.067H72.7185H72.6707C72.6468 119.067 69.8749 118.996 66.8521 120.441Z" fill="#020204"/>
<path d="M72.586 138.04C71.8333 138.04 68.8822 137.932 65.6682 136.367L66.7794 134.073C69.8261 135.554 72.6457 135.483 72.6696 135.483H72.7174H72.7652C72.7891 135.483 75.561 135.554 78.5838 134.109L79.683 136.415C76.254 138.052 73.1595 138.052 72.7174 138.04C72.6816 138.04 72.6457 138.04 72.586 138.04Z" fill="#020204"/>
<path d="M72.7191 133.011C69.5529 133.011 66.9841 130.443 66.9841 127.277C66.9841 124.11 69.5529 121.542 72.7191 121.542C75.8853 121.542 78.454 124.11 78.454 127.277C78.454 130.443 75.8853 133.011 72.7191 133.011ZM72.7191 124.086C70.9628 124.086 69.529 125.52 69.529 127.277C69.529 129.033 70.9628 130.467 72.7191 130.467C74.4754 130.467 75.9092 129.033 75.9092 127.277C75.9092 125.52 74.4754 124.086 72.7191 124.086Z" fill="#020204"/>
<path opacity="0.2" d="M115.905 50.1499C115.819 50.8382 115.692 51.5649 115.564 52.2533C114.84 56.0776 113.562 59.8255 111.857 63.3056C110.025 67.0407 107.511 70.4061 105.041 73.797C100.993 79.3933 95.5399 83.6511 90.2993 87.9853C88.34 89.5788 86.3794 91.2615 84.8037 93.2374C84.1638 94.0533 83.5672 94.9202 83.1848 95.8635C83.0993 96.0802 82.3753 98.6553 82.5882 98.6553H73.4709C73.4709 98.6553 73.2568 98.6553 72.4473 98.6553H63.3301C63.4155 98.6553 63.1172 97.1128 63.1172 96.9853C62.4785 94.525 60.7321 92.5491 58.9423 90.8664C56.5138 88.5972 53.8725 86.5703 51.3153 84.416C45.3506 79.4316 40.1533 73.6313 36.1058 66.9132C35.893 66.5308 35.6801 66.1866 35.4238 65.8042C32.655 60.9855 30.7798 55.6059 30.0137 50.0989H115.905V50.1499Z" fill="url(#paint1_linear_882_3226)"/>
<defs>
<linearGradient id="paint0_linear_882_3226" x1="99.6361" y1="93.7355" x2="102.879" y2="93.7355" gradientUnits="userSpaceOnUse">
<stop offset="0.00289017" stop-color="#FFD44F"/>
<stop offset="1" stop-color="#FFA607"/>
</linearGradient>
<linearGradient id="paint1_linear_882_3226" x1="117.81" y1="100.121" x2="117.81" y2="49.3977" gradientUnits="userSpaceOnUse">
<stop offset="0.00289017" stop-color="#132538"/>
<stop offset="1" stop-color="#132538" stop-opacity="0.01"/>
</linearGradient>
</defs>
</svg>
