<svg width="24" height="24" viewBox="0 0 24 24" fill="none" xmlns="http://www.w3.org/2000/svg">
<path fill-rule="evenodd" clip-rule="evenodd" d="M11.8728 5.44805L6.2379 11.0757L3 7.84231L4.44987 6.39423L6.23786 8.17964L10.4229 4L11.8728 5.44805Z" fill="white"/>
<path d="M3 16.0052C3 15.4559 3.19567 14.9856 3.587 14.5941C3.979 14.2032 4.45 14.0078 5 14.0078L19 14.0078C19.55 14.0078 20.021 14.2032 20.413 14.5941C20.8043 14.9856 21 15.456 21 16.0052V18.0027C21 18.552 20.8043 19.0224 20.413 19.4139C20.021 19.8047 19.55 20.0001 19 20.0001H5C4.45 20.0001 3.979 19.8047 3.587 19.4139C3.19567 19.0224 3 18.552 3 18.0027L3 16.0052ZM5 16.0052L5 18.0027H19V16.0052L5 16.0052Z" fill="white"/>
<path d="M11.061 11.7359H19C19.55 11.7359 20.021 11.5405 20.413 11.1497C20.8043 10.7582 21 10.2878 21 9.73851V7.74108C21 7.19179 20.8043 6.72139 20.413 6.3299C20.021 5.93907 19.55 5.74365 19 5.74365H13.061V7.74108H19V9.73851H11.061V11.7359Z" fill="white"/>
</svg>
