<svg width="24" height="24" viewBox="0 0 24 24" fill="none" xmlns="http://www.w3.org/2000/svg">
<path d="M3.00098 19.8644V17.1118C3.00098 16.5547 3.1445 16.0425 3.43156 15.5753C3.71796 15.1086 4.09874 14.7524 4.57389 14.5067C5.58973 13.9987 6.23371 13.6176 7.28232 13.3633C8.33093 13.1097 9.39593 12.9829 10.4773 12.9829C11.5587 12.9829 12.6237 13.1097 13.6723 13.3633C14.7209 13.6176 15.5602 13.9987 16.576 14.5067C17.0512 14.7524 17.4319 15.1086 17.7183 15.5753C18.0054 16.0425 18.1489 16.5547 18.1489 17.1118V19.8644H3.00098ZM10.4773 11.9998C9.39593 11.9998 8.4702 11.6148 7.70013 10.8447C6.93006 10.0746 6.54502 9.14892 6.54502 8.06754C6.54502 6.98616 6.93006 6.06044 7.70013 5.29036C8.4702 4.52029 9.39593 4.13525 10.4773 4.13525C11.5587 4.13525 12.4844 4.52029 13.2545 5.29036C14.0246 6.06044 14.4096 6.98616 14.4096 8.06754C14.4096 9.14892 14.0246 10.0746 13.2545 10.8447C12.4844 11.6148 11.5587 11.9998 10.4773 11.9998ZM4.96712 17.8983H16.1828V17.1118C16.1828 16.9316 16.1379 16.7677 16.0481 16.6203C15.9577 16.4728 15.8387 16.3581 15.6913 16.2762C14.8065 15.8338 14.1065 15.5019 13.2053 15.2803C12.3042 15.0595 11.3948 14.949 10.4773 14.949C9.55977 14.949 8.65043 15.0595 7.74928 15.2803C6.84813 15.5019 6.34342 15.8338 5.45865 16.2762C5.31119 16.3581 5.19257 16.4728 5.10278 16.6203C5.01234 16.7677 4.96712 16.9316 4.96712 17.1118V17.8983ZM10.4773 10.0337C11.018 10.0337 11.481 9.841 11.8664 9.45563C12.2511 9.07093 12.4434 8.60823 12.4434 8.06754C12.4434 7.52685 12.2511 7.06415 11.8664 6.67944C11.481 6.29408 11.018 6.1014 10.4773 6.1014C9.93662 6.1014 9.47392 6.29408 9.08921 6.67944C8.70384 7.06415 8.51116 7.52685 8.51116 8.06754C8.51116 8.60823 8.70384 9.07093 9.08921 9.45563C9.47392 9.841 9.93662 10.0337 10.4773 10.0337Z" fill="white"/>
<path fill-rule="evenodd" clip-rule="evenodd" d="M20.8296 7.62975L20.8068 5.62988L15.7461 5.68765L15.8039 10.7484L17.8037 10.7255L17.7842 9.01449C18.3192 9.38374 18.6437 9.81635 18.8191 10.279C19.1129 11.0539 19.0742 12.1358 18.4949 13.5683L20.3491 14.3181C21.0322 12.6287 21.2283 10.9918 20.6893 9.57002C20.4002 8.80764 19.9234 8.16769 19.2899 7.64733L20.8296 7.62975Z" fill="white"/>
</svg>
