<svg width="52" height="52" viewBox="0 0 52 52" fill="none" xmlns="http://www.w3.org/2000/svg">
<path fill-rule="evenodd" clip-rule="evenodd" d="M17.8752 8.66665C17.8752 5.37595 20.5428 2.70831 23.8335 2.70831H28.1668C31.4575 2.70831 34.1252 5.37595 34.1252 8.66665V10.1094C38.3076 12.2701 41.1668 16.6345 41.1668 21.6666V32.0464C35.4628 29.8547 30.7624 28.7083 26 28.7083C21.2377 28.7083 16.5374 29.8547 10.8335 32.0463V21.6666C10.8335 16.6345 13.6927 12.2701 17.8752 10.1094V8.66665ZM30.8752 8.66665V8.94917C30.0016 8.76404 29.0956 8.66665 28.1668 8.66665H23.8335C22.9048 8.66665 21.9988 8.76404 21.1252 8.94917V8.66665C21.1252 7.17088 22.3377 5.95831 23.8335 5.95831H28.1668C29.6626 5.95831 30.8752 7.17088 30.8752 8.66665ZM26 31.9583C30.5095 31.9583 35.0899 33.1099 41.1668 35.5372V39C41.1668 43.7864 37.2866 47.6666 32.5002 47.6666H19.5002C14.7137 47.6666 10.8335 43.7864 10.8335 39V35.5371C16.9103 33.1099 21.4906 31.9583 26 31.9583ZM23.8333 17.875C22.9359 17.875 22.2083 18.6025 22.2083 19.5C22.2083 20.3974 22.9359 21.125 23.8333 21.125H28.1667C29.0641 21.125 29.7917 20.3974 29.7917 19.5C29.7917 18.6025 29.0641 17.875 28.1667 17.875H23.8333ZM4.3335 30.3333C4.3335 27.9401 6.2736 26 8.66683 26V43.3333C6.2736 43.3333 4.3335 41.3932 4.3335 39V30.3333ZM43.3335 26C45.7267 26 47.6668 27.9401 47.6668 30.3333V39C47.6668 41.3932 45.7267 43.3333 43.3335 43.3333V26Z" fill="url(#paint0_linear_70_1941)"/>
<defs>
<linearGradient id="paint0_linear_70_1941" x1="26.0002" y1="2.70831" x2="26.0002" y2="47.6666" gradientUnits="userSpaceOnUse">
<stop stop-color="white"/>
<stop offset="0.15625" stop-color="white" stop-opacity="0.84375"/>
<stop offset="1" stop-color="white" stop-opacity="0"/>
</linearGradient>
</defs>
</svg>
