<svg width="106" height="75" viewBox="0 0 106 75" fill="none" xmlns="http://www.w3.org/2000/svg">
<path fill-rule="evenodd" clip-rule="evenodd" d="M30.9741 6.05875C30.9741 7.5577 30.9741 8.30718 30.6829 8.8797C30.4267 9.38331 30.0179 9.79275 29.515 10.0494C28.9434 10.3411 28.1951 10.3411 26.6985 10.3411H11.8736C10.5705 10.3411 9.52625 9.26024 9.56911 7.95575C9.63461 5.95793 9.72097 5.41914 10.1007 4.63968C10.7588 3.28832 12.1916 1.78762 13.3283 1.25876C14.3057 0.804088 14.3164 0.803701 22.6405 0.801754L26.6975 0.800805C28.1944 0.800455 28.9429 0.80028 29.5147 1.09195C30.0176 1.3485 30.4265 1.75796 30.6828 2.26163C30.9741 2.83422 30.9741 3.58385 30.9741 5.08312V6.05875ZM104.225 1.45854C105.427 2.82586 105.218 4.32014 103.579 6.09696C102.33 7.45026 101.833 8.7467 101.988 10.2484C102.127 11.5951 102.517 12.3029 103.465 12.9291C104.614 13.6891 105.206 14.4045 105.639 15.5572C106.592 18.0962 105.642 20.279 102.979 21.6701C102.214 22.0694 101.882 22.3929 101.566 23.0459C100.674 24.8864 101.2 26.6802 103.072 28.184C104.641 29.4435 105.322 30.7463 105.306 32.454C105.291 34.1226 104.677 35.3988 103.707 35.7783C102.622 36.203 102.451 36.3252 101.98 37.0161C101.086 38.3273 101.616 40.8145 102.951 41.5766C104.523 42.4745 105.247 43.7962 105.244 45.7668C105.243 47.4354 104.92 48.1182 103.492 49.4797C101.954 50.946 101.737 51.3062 101.737 52.3954C101.737 53.4709 102.328 54.5607 103.396 55.4523C104.543 56.41 105.109 57.5808 105.129 59.0383C105.146 60.3053 104.689 61.1516 103.864 61.3823C103.051 61.6094 96.5105 61.5749 96.3668 61.3428C96.2954 61.2275 96.521 60.7805 96.8678 60.3494C98.4056 58.4378 97.9434 56.1792 95.7231 54.756C94.441 53.9341 93.9377 52.9338 93.9435 51.2193C93.9488 49.6727 94.4535 48.4586 95.2652 48.0392C96.6838 47.3064 97.4144 45.5142 97.0586 43.6403C96.8077 42.3189 96.6167 42.0077 95.6593 41.363C94.5357 40.6061 93.9392 39.4172 93.9392 37.9346C93.9392 36.0927 94.2638 35.3082 95.5383 34.0696C96.1598 33.4656 96.8417 32.5893 97.0539 32.1224C97.8337 30.4058 97.3528 28.5522 95.8597 27.52C94.6734 26.6999 94.194 26.1371 93.8484 25.1585C93.1043 23.052 93.7684 20.6151 95.3905 19.5003C96.705 18.597 97.4041 17.6806 97.5571 16.6601C97.9255 14.2061 96.8752 11.4405 95.2063 10.4704C94.9168 10.3021 87.5174 10.2186 66.4529 10.1463L42.3024 10.0634C40.8256 10.0584 40.0872 10.0558 39.5209 9.76753C39.0226 9.51388 38.6163 9.11012 38.3591 8.61308C38.0668 8.04814 38.0584 7.30863 38.0417 5.82961L38.0338 5.13057C38.0167 3.61633 38.0082 2.85921 38.297 2.2801C38.5511 1.77077 38.9607 1.35586 39.4663 1.09566C40.0412 0.799805 40.7972 0.799805 42.3092 0.799805H102.77C103.327 0.799805 103.857 1.03978 104.225 1.45854ZM20.2525 70.5092C20.2525 72.026 20.2525 72.7845 19.9564 73.3608C19.6961 73.8677 19.2809 74.278 18.7715 74.5321C18.1922 74.8211 17.435 74.8111 15.9207 74.7911L11.8214 74.7372C2.61117 74.6159 2.3133 74.5808 1.216 73.4848C0.0921762 72.362 0.0763875 72.1883 0.0763875 60.9339C0.0763875 48.9436 -0.103151 49.9007 2.28328 49.1728C4.07379 48.6266 5.16701 47.7403 6.02708 46.1372C6.6193 45.0335 6.69669 44.7093 6.76355 43.054C6.82554 41.519 6.76784 41.0172 6.42397 40.1053C5.90992 38.7421 4.56173 37.4201 3.18994 36.9343C2.65679 36.7454 1.83902 36.4573 1.37234 36.2939C-0.0555868 35.7936 -0.0516857 35.8211 0.0278492 26.8256C0.103485 18.3004 0.138766 18.0031 1.21853 16.8262C2.26925 15.6811 2.75523 15.6263 12.0164 15.6115L15.9701 15.6053C17.4689 15.6029 18.2182 15.6017 18.7908 15.8931C19.2944 16.1494 19.704 16.559 19.9607 17.063C20.2525 17.636 20.2525 18.3865 20.2525 19.8876V70.5092ZM88.732 15.8098C89.6611 16.2327 90.1997 17.7897 89.8568 19.0618C89.572 20.1177 89.0006 20.7837 87.9024 21.3396C86.1883 22.2071 85.3331 23.7808 85.745 25.309C86.0282 26.3597 86.5643 26.9688 87.6482 27.4715C88.8414 28.0249 89.6073 28.7374 90.0607 29.7157C90.5241 30.7156 90.5182 31.6451 90.0418 32.6935C89.7079 33.4286 89.4905 33.6081 88.2429 34.1796C86.6774 34.897 86.1159 35.3974 85.6637 36.4787C84.9007 38.3026 85.712 40.1852 87.7012 41.2061C89.264 42.0083 89.9496 42.9214 90.1644 44.4867C90.3952 46.1693 89.733 47.2772 87.718 48.5791C85.1615 50.2311 84.696 52.376 86.5339 54.0346C86.9622 54.4211 87.3969 54.7371 87.5 54.7371C87.8698 54.7371 89.0965 55.981 89.4979 56.7632C90.2338 58.1969 89.9683 60.2983 88.9394 61.1818C88.741 61.3524 88.1837 61.6437 87.7012 61.8292C86.077 62.4537 85.167 63.6833 85.167 65.2536C85.167 66.6511 85.8614 67.6138 88.1055 69.3277C89.5186 70.4068 89.6892 73.0168 88.434 74.3551C88.1718 74.6347 87.8058 74.7933 87.4229 74.7933H31.351C29.8544 74.7933 29.1061 74.7933 28.5344 74.5015C28.0316 74.2449 27.6228 73.8355 27.3666 73.3319C27.0754 72.7594 27.0754 72.0099 27.0754 70.511V19.8808C27.0754 18.3819 27.0754 17.6324 27.3666 17.0599C27.6228 16.5563 28.0316 16.1468 28.5344 15.8902C29.1061 15.5985 29.8544 15.5985 31.351 15.5985H57.6715C79.2555 15.5985 88.4043 15.6608 88.732 15.8098Z" fill="url(#paint0_linear_53_4125)"/>
<path d="M55.6726 34.6732C52.125 31.1194 46.3388 31.1539 42.7912 34.7077C39.2054 38.2999 39.1706 44.1589 42.7564 47.7511L53.7914 58.7062C54.833 59.7403 56.5122 59.7403 57.5538 58.7062L68.5888 47.7511C72.1746 44.1589 72.1398 38.2999 68.554 34.7077C65.0064 31.1539 59.2202 31.1194 55.6726 34.6732Z" fill="white"/>
<defs>
<linearGradient id="paint0_linear_53_4125" x1="-9.328" y1="74.7998" x2="115.047" y2="65.6162" gradientUnits="userSpaceOnUse">
<stop stop-color="#00FFF0"/>
<stop offset="0.0001" stop-color="#13DEF2"/>
<stop offset="0.855974" stop-color="#E26CFF"/>
</linearGradient>
</defs>
</svg>
