<svg width="106" height="75" viewBox="0 0 106 75" fill="none" xmlns="http://www.w3.org/2000/svg">
<path opacity="0.3" fill-rule="evenodd" clip-rule="evenodd" d="M30.9741 5.36491C30.9741 6.86386 30.9741 7.61333 30.6829 8.18585C30.4267 8.68946 30.0179 9.0989 29.515 9.3555C28.9434 9.64722 28.1951 9.64722 26.6985 9.64722H11.8736C10.5705 9.64722 9.52625 8.56639 9.56911 7.2619C9.63461 5.26408 9.72097 4.72529 10.1007 3.94583C10.7588 2.59447 12.1916 1.09377 13.3283 0.56491C14.3057 0.11024 14.3164 0.109853 22.6405 0.107906L26.6975 0.106957C28.1944 0.106607 28.9429 0.106432 29.5147 0.398099C30.0176 0.654655 30.4265 1.06412 30.6828 1.56778C30.9741 2.14037 30.9741 2.89 30.9741 4.38927V5.36491ZM104.225 0.764693C105.427 2.13201 105.218 3.6263 103.579 5.40311C102.33 6.75641 101.833 8.05285 101.988 9.55453C102.127 10.9012 102.517 11.609 103.465 12.2352C104.614 12.9952 105.206 13.7106 105.639 14.8634C106.592 17.4023 105.642 19.5851 102.979 20.9762C102.214 21.3756 101.882 21.699 101.566 22.3521C100.674 24.1926 101.2 25.9863 103.072 27.4902C104.641 28.7496 105.322 30.0525 105.306 31.7602C105.291 33.4287 104.677 34.7049 103.707 35.0844C102.622 35.5091 102.451 35.6314 101.98 36.3223C101.086 37.6335 101.616 40.1206 102.951 40.8828C104.523 41.7806 105.247 43.1024 105.244 45.073C105.243 46.7415 104.92 47.4244 103.492 48.7859C101.954 50.2521 101.737 50.6123 101.737 51.7016C101.737 52.777 102.328 53.8669 103.396 54.7585C104.543 55.7161 105.109 56.887 105.129 58.3445C105.146 59.6115 104.689 60.4578 103.864 60.6885C103.051 60.9155 96.5105 60.8811 96.3668 60.649C96.2954 60.5337 96.521 60.0866 96.8678 59.6555C98.4056 57.7439 97.9434 55.4854 95.7231 54.0622C94.441 53.2403 93.9377 52.24 93.9435 50.5255C93.9488 48.9788 94.4535 47.7648 95.2652 47.3453C96.6838 46.6126 97.4144 44.8204 97.0586 42.9464C96.8077 41.625 96.6167 41.3139 95.6593 40.6692C94.5357 39.9123 93.9392 38.7233 93.9392 37.2407C93.9392 35.3989 94.2638 34.6144 95.5383 33.3758C96.1598 32.7717 96.8417 31.8955 97.0539 31.4286C97.8337 29.7119 97.3528 27.8584 95.8597 26.8262C94.6734 26.006 94.194 25.4433 93.8484 24.4646C93.1043 22.3581 93.7684 19.9212 95.3905 18.8064C96.705 17.9031 97.4041 16.9868 97.5571 15.9663C97.9255 13.5122 96.8752 10.7466 95.2063 9.77651C94.9168 9.60828 87.5174 9.52474 66.4529 9.4525L42.3024 9.3696C40.8256 9.36453 40.0872 9.362 39.5209 9.07369C39.0226 8.82003 38.6163 8.41627 38.3591 7.91924C38.0668 7.35429 38.0584 6.61478 38.0417 5.13576L38.0338 4.43672C38.0167 2.92248 38.0082 2.16536 38.297 1.58625C38.5511 1.07692 38.9607 0.66201 39.4663 0.40181C40.0412 0.105957 40.7972 0.105957 42.3092 0.105957H102.77C103.327 0.105957 103.857 0.345929 104.225 0.764693ZM20.2525 69.8154C20.2525 71.3322 20.2525 72.0906 19.9564 72.6669C19.6961 73.1738 19.2809 73.5842 18.7715 73.8383C18.1922 74.1272 17.435 74.1172 15.9207 74.0973L11.8214 74.0433C2.61117 73.922 2.3133 73.887 1.216 72.7909C0.0921762 71.6682 0.0763875 71.4945 0.0763875 60.2401C0.0763875 48.2498 -0.103151 49.2069 2.28328 48.479C4.07379 47.9328 5.16701 47.0464 6.02708 45.4433C6.6193 44.3396 6.69669 44.0154 6.76355 42.3601C6.82554 40.8251 6.76784 40.3233 6.42397 39.4115C5.90992 38.0482 4.56173 36.7263 3.18994 36.2405C2.65679 36.0516 1.83902 35.7634 1.37234 35.6C-0.0555868 35.0998 -0.0516857 35.1273 0.0278492 26.1318C0.103485 17.6066 0.138766 17.3092 1.21853 16.1324C2.26925 14.9872 2.75523 14.9325 12.0164 14.9177L15.9701 14.9114C17.4689 14.9091 18.2182 14.9079 18.7908 15.1993C19.2944 15.4556 19.704 15.8651 19.9607 16.3691C20.2525 16.9421 20.2525 17.6926 20.2525 19.1937V69.8154ZM88.732 15.1159C89.6611 15.5389 90.1997 17.0958 89.8568 18.3679C89.572 19.4239 89.0006 20.0898 87.9024 20.6458C86.1883 21.5132 85.3331 23.087 85.745 24.6151C86.0282 25.6658 86.5643 26.2749 87.6482 26.7777C88.8414 27.3311 89.6073 28.0436 90.0607 29.0218C90.5241 30.0217 90.5182 30.9513 90.0418 31.9997C89.7079 32.7347 89.4905 32.9143 88.2429 33.4858C86.6774 34.2031 86.1159 34.7035 85.6637 35.7848C84.9007 37.6088 85.712 39.4913 87.7012 40.5122C89.264 41.3145 89.9496 42.2275 90.1644 43.7929C90.3952 45.4754 89.733 46.5834 87.718 47.8853C85.1615 49.5373 84.696 51.6821 86.5339 53.3408C86.9622 53.7273 87.3969 54.0433 87.5 54.0433C87.8698 54.0433 89.0965 55.2872 89.4979 56.0694C90.2338 57.5031 89.9683 59.6045 88.9394 60.4879C88.741 60.6585 88.1837 60.9498 87.7012 61.1354C86.077 61.7598 85.167 62.9895 85.167 64.5597C85.167 65.9572 85.8614 66.9199 88.1055 68.6338C89.5186 69.713 89.6892 72.323 88.434 73.6613C88.1718 73.9409 87.8058 74.0994 87.4229 74.0994H31.351C29.8544 74.0994 29.1061 74.0994 28.5344 73.8077C28.0316 73.5511 27.6228 73.1417 27.3666 72.6381C27.0754 72.0655 27.0754 71.3161 27.0754 69.8171V19.187C27.0754 17.688 27.0754 16.9385 27.3666 16.366C27.6228 15.8624 28.0316 15.453 28.5344 15.1964C29.1061 14.9046 29.8544 14.9047 31.351 14.9047H57.6715C79.2555 14.9047 88.4043 14.967 88.732 15.1159Z" fill="url(#paint0_linear_53_4544)"/>
<path d="M52.9999 44.647C58.1727 44.647 62.3661 40.4536 62.3661 35.2808C62.3661 30.1079 58.1727 25.9146 52.9999 25.9146C47.827 25.9146 43.6336 30.1079 43.6336 35.2808C43.6336 40.4536 47.827 44.647 52.9999 44.647Z" fill="url(#paint1_linear_53_4544)"/>
<path d="M67.5165 60.0867C67.8495 61.7097 66.4759 63.0664 64.8187 63.0664H41.1805C39.5238 63.0664 38.1502 61.7097 38.4833 60.0867C38.6717 59.1675 38.9476 58.2664 39.3084 57.3953C40.0531 55.5972 41.1449 53.9636 42.5208 52.5874C43.8968 51.2114 45.5306 50.1199 47.3285 49.375C49.1268 48.6304 51.0536 48.2471 52.9999 48.2471C54.9457 48.2471 56.8729 48.6304 58.6708 49.375C60.4686 50.1199 62.1024 51.2114 63.4784 52.5874C64.8543 53.9636 65.9461 55.5972 66.6908 57.3953C67.0516 58.2664 67.3275 59.1675 67.5165 60.0867Z" fill="url(#paint2_linear_53_4544)"/>
<defs>
<linearGradient id="paint0_linear_53_4544" x1="134.708" y1="37.106" x2="-41.2222" y2="37.106" gradientUnits="userSpaceOnUse">
<stop stop-color="#00A3FF"/>
<stop offset="1" stop-color="#FF00C7"/>
</linearGradient>
<linearGradient id="paint1_linear_53_4544" x1="75.4569" y1="44.4905" x2="27.1034" y2="44.4905" gradientUnits="userSpaceOnUse">
<stop stop-color="#00A3FF"/>
<stop offset="1" stop-color="#FF00C7"/>
</linearGradient>
<linearGradient id="paint2_linear_53_4544" x1="75.4569" y1="44.4905" x2="27.1034" y2="44.4905" gradientUnits="userSpaceOnUse">
<stop stop-color="#00A3FF"/>
<stop offset="1" stop-color="#FF00C7"/>
</linearGradient>
</defs>
</svg>
