<svg width="24" height="24" viewBox="0 0 24 24" fill="none" xmlns="http://www.w3.org/2000/svg">
<path d="M5 15.4995C4.45 15.4995 3.979 15.3038 3.587 14.9125C3.19567 14.5205 3 14.0495 3 13.4995V4.49951C3 3.94951 3.19567 3.47851 3.587 3.08651C3.979 2.69518 4.45 2.49951 5 2.49951H19C19.55 2.49951 20.021 2.69518 20.413 3.08651C20.8043 3.47851 21 3.94951 21 4.49951V13.4995C21 14.0495 20.8043 14.5205 20.413 14.9125C20.021 15.3038 19.55 15.4995 19 15.4995H16V13.4995H19V4.49951H5V13.4995H8V15.4995H5Z" fill="white"/>
<path d="M12 10.9995C13.1046 10.9995 14 10.1041 14 8.99951C14 7.89494 13.1046 6.99951 12 6.99951C10.8954 6.99951 10 7.89494 10 8.99951C10 10.1041 10.8954 10.9995 12 10.9995Z" fill="white"/>
<path d="M16.4224 9.99951C16.9746 9.99951 17.4224 9.5518 17.4224 8.99951C17.4224 8.44723 16.9746 7.99951 16.4224 7.99951C15.8701 7.99951 15.4224 8.44723 15.4224 8.99951C15.4224 9.5518 15.8701 9.99951 16.4224 9.99951Z" fill="white"/>
<path d="M8.57812 8.99951C8.57812 9.5518 8.13041 9.99951 7.57812 9.99951C7.02584 9.99951 6.57812 9.5518 6.57812 8.99951C6.57812 8.44723 7.02584 7.99951 7.57812 7.99951C8.13041 7.99951 8.57812 8.44723 8.57812 8.99951Z" fill="white"/>
<path d="M13.0093 18.6893L14.599 17.0996L16 18.5006L12 22.5006L8 18.5006L9.40102 17.0996L11.0093 18.7078V13.4995H13.0093V18.6893Z" fill="white"/>
</svg>
