<svg width="230" height="200" viewBox="0 0 200 200" fill="none" xmlns="http://www.w3.org/2000/svg">
<mask id="mask0_3578_9367" style="mask-type:alpha" maskUnits="userSpaceOnUse" x="0" y="0" width="200" height="200">
<rect width="200" height="200" fill="url(#paint0_linear_3578_9367)"/>
</mask>
<g mask="url(#mask0_3578_9367)">
<path opacity="0.1" d="M47.3547 1.52672C47.3547 1.29089 47.1636 1.09972 46.9277 1.09972C46.6919 1.09972 46.5007 1.29089 46.5007 1.52672L47.3547 1.52672ZM47.3547 181.485L47.3547 179.236L46.5007 179.236L46.5007 181.485L47.3547 181.485ZM47.3547 174.737L47.3547 170.238L46.5007 170.238L46.5007 174.737L47.3547 174.737ZM47.3547 165.739L47.3547 161.24L46.5007 161.24L46.5007 165.739L47.3547 165.739ZM47.3547 156.741L47.3547 152.242L46.5007 152.242L46.5007 156.741L47.3547 156.741ZM47.3547 147.743L47.3547 143.244L46.5007 143.244L46.5007 147.743L47.3547 147.743ZM47.3547 138.745L47.3547 134.246L46.5007 134.246L46.5007 138.745L47.3547 138.745ZM47.3547 129.747L47.3547 125.248L46.5007 125.248L46.5007 129.747L47.3547 129.747ZM47.3547 120.749L47.3547 116.25L46.5007 116.25L46.5007 120.749L47.3547 120.749ZM47.3547 111.751L47.3547 107.252L46.5007 107.252L46.5007 111.751L47.3547 111.751ZM47.3547 102.753L47.3547 98.2545L46.5007 98.2545L46.5007 102.753L47.3547 102.753ZM47.3547 93.7555L47.3547 89.2566L46.5007 89.2566L46.5007 93.7555L47.3547 93.7555ZM47.3547 84.7576L47.3547 80.2586L46.5007 80.2586L46.5007 84.7576L47.3547 84.7576ZM47.3547 75.7597L47.3547 71.2607L46.5007 71.2607L46.5007 75.7597L47.3547 75.7597ZM47.3547 66.7618L47.3547 62.2628L46.5007 62.2628L46.5007 66.7618L47.3547 66.7618ZM47.3547 57.7638L47.3547 53.2649L46.5007 53.2649L46.5007 57.7638L47.3547 57.7638ZM47.3547 48.7659L47.3547 44.2669L46.5007 44.2669L46.5007 48.7659L47.3547 48.7659ZM47.3547 39.768L47.3547 35.269L46.5007 35.269L46.5007 39.768L47.3547 39.768ZM47.3547 30.7701L47.3547 26.2711L46.5007 26.2711L46.5007 30.7701L47.3547 30.7701ZM47.3547 21.7721L47.3547 17.2732L46.5007 17.2732L46.5007 21.7721L47.3547 21.7721ZM47.3547 12.7742L47.3547 8.27524L46.5007 8.27524L46.5007 12.7742L47.3547 12.7742ZM47.3547 3.77627L47.3547 1.52672L46.5007 1.52672L46.5007 3.77627L47.3547 3.77627Z" fill="#F8F8F8"/>
<path d="M50.3437 10.687H43.5117L45.9092 15.4821C46.3289 16.3213 47.5265 16.3213 47.9461 15.4821L50.3437 10.687Z" fill="#F8F8F8"/>
<rect x="0.446429" y="0.446429" width="199.107" height="199.107" rx="9.07738" stroke="#F8F8F8" stroke-opacity="0.1" stroke-width="0.892857"/>
<mask id="mask1_3578_9367" style="mask-type:alpha" maskUnits="userSpaceOnUse" x="0" y="20" width="200" height="201">
<circle cx="100" cy="120.924" r="100" fill="url(#paint1_radial_3578_9367)"/>
</mask>
<g mask="url(#mask1_3578_9367)">
<path opacity="0.1" d="M11.7647 101.978C5.88235 101.978 5.88235 64.3766 0 64.3766V176.877H200V125.652H188.235C182.353 125.652 182.353 86.6587 176.471 86.6587C170.588 86.6587 170.588 124.26 164.706 124.26C158.824 124.26 158.824 131.223 152.941 131.223C147.059 131.223 147.059 121.475 141.176 121.475C135.294 121.475 135.294 118.689 129.412 118.689C123.529 118.689 123.529 95.0145 117.647 95.0145C111.765 95.0145 111.765 97.7998 105.882 97.7998C100 97.7998 100 100.585 94.1176 100.585C88.2353 100.585 88.2353 114.511 82.3529 114.511C76.4706 114.511 76.4706 107.548 70.5882 107.548C64.7059 107.548 64.7059 120.082 58.8235 120.082C52.9412 120.082 52.9412 93.6219 47.0588 93.6219C41.1765 93.6219 41.1765 138.186 35.2941 138.186C29.4118 138.186 29.4118 128.438 23.5294 128.438C17.6471 128.438 17.6471 101.978 11.7647 101.978Z" fill="url(#paint2_linear_3578_9367)"/>
<path d="M0 107.548C5.88235 107.548 5.88235 97.7998 11.7647 97.7998C17.6471 97.7998 17.6471 86.6587 23.5294 86.6587C29.4118 86.6587 29.4118 125.652 35.2941 125.652C41.1765 125.652 41.1765 128.438 47.0588 128.438C52.9412 128.438 52.9412 131.223 58.8235 131.223C64.7059 131.223 64.7059 101.978 70.5882 101.978C76.4706 101.978 76.4706 93.6219 82.3529 93.6219C88.2353 93.6219 88.2353 121.475 94.1176 121.475C100 121.475 100 95.0145 105.882 95.0145C111.765 95.0145 111.765 100.585 117.647 100.585C123.529 100.585 123.529 138.186 129.412 138.186C135.294 138.186 135.294 64.3766 141.176 64.3766C147.059 64.3766 147.059 125.652 152.941 125.652C158.824 125.652 158.824 114.511 164.706 114.511C170.588 114.511 170.588 120.082 176.471 120.082C182.353 120.082 182.353 118.689 188.235 118.689C194.118 118.689 194.118 124.26 200 124.26M200 124.26V124.26Z" stroke="url(#paint3_linear_3578_9367)" stroke-width="0.892857"/>
<path d="M0 64.3766C5.88235 64.3766 5.88235 101.978 11.7647 101.978C17.6471 101.978 17.6471 128.438 23.5294 128.438C29.4118 128.438 29.4118 138.186 35.2941 138.186C41.1765 138.186 41.1765 93.6219 47.0588 93.6219C52.9412 93.6219 52.9412 120.082 58.8235 120.082C64.7059 120.082 64.7059 107.548 70.5882 107.548C76.4706 107.548 76.4706 114.511 82.3529 114.511C88.2353 114.511 88.2353 100.585 94.1176 100.585C100 100.585 100 97.7998 105.882 97.7998C111.765 97.7998 111.765 95.0145 117.647 95.0145C123.529 95.0145 123.529 118.689 129.412 118.689C135.294 118.689 135.294 121.475 141.176 121.475C147.059 121.475 147.059 131.223 152.941 131.223C158.824 131.223 158.824 124.26 164.706 124.26C170.588 124.26 170.588 86.6587 176.471 86.6587C182.353 86.6587 182.353 125.652 188.235 125.652C194.118 125.652 194.118 125.652 200 125.652" stroke="#00A3FF" stroke-width="0.892857"/>
</g>
<g filter="url(#filter0_bdi_3578_9367)">
<circle cx="47.0237" cy="94.7337" r="5.95238" fill="#F8F8F8" fill-opacity="0.01" shape-rendering="crispEdges"/>
<circle cx="47.0237" cy="94.7337" r="5.95238" fill="#121212" fill-opacity="0.3" shape-rendering="crispEdges"/>
<circle cx="47.0237" cy="94.7337" r="5.65476" stroke="url(#paint4_linear_3578_9367)" stroke-opacity="0.25" stroke-width="0.595238" shape-rendering="crispEdges"/>
</g>
<circle cx="47.024" cy="94.7337" r="2.97619" fill="#F8F8F8"/>
<path d="M49.4541 96.0333C49.3423 95.9931 49.2289 95.9524 49.1332 95.9275C49.0423 95.9039 48.867 95.8648 48.679 95.9299C48.4634 96.0045 48.294 96.1739 48.2194 96.3895C48.1543 96.5775 48.1934 96.7529 48.217 96.8437C48.2419 96.9394 48.2826 97.0528 48.3228 97.1646L51.1645 105.081C51.2144 105.22 51.2622 105.353 51.3094 105.456C51.3493 105.543 51.44 105.733 51.6372 105.84C51.8529 105.957 52.1126 105.961 52.3312 105.849C52.5312 105.747 52.6268 105.559 52.669 105.474C52.7189 105.372 52.7702 105.24 52.8237 105.103L54.1029 101.813L57.3922 100.534C57.5298 100.481 57.6618 100.429 57.7632 100.38C57.849 100.337 58.0363 100.242 58.1384 100.042C58.2501 99.8231 58.2467 99.5634 58.1293 99.3478C58.022 99.1505 57.8322 99.0598 57.7454 99.02C57.6427 98.9727 57.5094 98.9249 57.3704 98.875L49.4541 96.0333Z" fill="#121212" stroke="#F8F8F8" stroke-width="0.892857" stroke-linecap="round" stroke-linejoin="round"/>
<g opacity="0.1">
<rect x="13.2695" y="7.12468" width="0.958742" height="5.75245" fill="#F8F8F8"/>
<rect x="26.5391" y="7.12468" width="0.958742" height="5.75245" fill="#F8F8F8"/>
<rect x="39.8086" y="7.12468" width="0.958742" height="5.75245" fill="#F8F8F8"/>
<rect x="53.0781" y="7.12468" width="0.958742" height="5.75245" fill="#F8F8F8"/>
<rect x="66.3467" y="7.12468" width="0.958742" height="5.75245" fill="#F8F8F8"/>
<rect x="79.6162" y="7.12468" width="0.958742" height="5.75245" fill="#F8F8F8"/>
<rect x="92.8857" y="7.12468" width="0.958742" height="5.75245" fill="#F8F8F8"/>
<rect x="106.155" y="7.12468" width="0.958742" height="5.75245" fill="#F8F8F8"/>
<rect x="119.425" y="7.12468" width="0.958742" height="5.75245" fill="#F8F8F8"/>
<rect x="132.694" y="7.12468" width="0.958742" height="5.75245" fill="#F8F8F8"/>
<rect x="145.964" y="7.12468" width="0.958742" height="5.75245" fill="#F8F8F8"/>
<rect x="159.233" y="7.12468" width="0.958742" height="5.75245" fill="#F8F8F8"/>
<rect x="172.502" y="7.12468" width="0.958742" height="5.75245" fill="#F8F8F8"/>
<rect x="185.771" y="7.12468" width="0.958742" height="5.75245" fill="#F8F8F8"/>
</g>
<g filter="url(#filter1_bdi_3578_9367)">
<circle cx="146.595" cy="81.6324" r="6.39162" fill="#F8F8F8" fill-opacity="0.01" shape-rendering="crispEdges"/>
<circle cx="146.595" cy="81.6324" r="6.39162" fill="#121212" fill-opacity="0.3" shape-rendering="crispEdges"/>
<circle cx="146.595" cy="81.6324" r="6.07203" stroke="url(#paint5_linear_3578_9367)" stroke-opacity="0.25" stroke-width="0.639161" shape-rendering="crispEdges"/>
</g>
<circle cx="146.595" cy="81.6325" r="3.19581" fill="#F8F8F8"/>
<g filter="url(#filter2_bdi_3578_9367)">
<circle cx="34.6358" cy="136.085" r="6.39162" fill="#F8F8F8" fill-opacity="0.01" shape-rendering="crispEdges"/>
<circle cx="34.6358" cy="136.085" r="6.39162" fill="#121212" fill-opacity="0.3" shape-rendering="crispEdges"/>
<circle cx="34.6358" cy="136.085" r="6.07203" stroke="url(#paint6_linear_3578_9367)" stroke-opacity="0.25" stroke-width="0.639161" shape-rendering="crispEdges"/>
</g>
<circle cx="34.6362" cy="136.085" r="3.19581" fill="#F8F8F8"/>
</g>
<defs>
<filter id="filter0_bdi_3578_9367" x="33.9284" y="81.6385" width="26.19" height="42.8571" filterUnits="userSpaceOnUse" color-interpolation-filters="sRGB">
<feFlood flood-opacity="0" result="BackgroundImageFix"/>
<feGaussianBlur in="BackgroundImageFix" stdDeviation="3.57143"/>
<feComposite in2="SourceAlpha" operator="in" result="effect1_backgroundBlur_3578_9367"/>
<feColorMatrix in="SourceAlpha" type="matrix" values="0 0 0 0 0 0 0 0 0 0 0 0 0 0 0 0 0 0 127 0" result="hardAlpha"/>
<feMorphology radius="9.52381" operator="erode" in="SourceAlpha" result="effect2_dropShadow_3578_9367"/>
<feOffset dy="19.0476"/>
<feGaussianBlur stdDeviation="7.14286"/>
<feComposite in2="hardAlpha" operator="out"/>
<feColorMatrix type="matrix" values="0 0 0 0 0 0 0 0 0 0 0 0 0 0 0 0 0 0 0.4 0"/>
<feBlend mode="multiply" in2="effect1_backgroundBlur_3578_9367" result="effect2_dropShadow_3578_9367"/>
<feBlend mode="normal" in="SourceGraphic" in2="effect2_dropShadow_3578_9367" result="shape"/>
<feColorMatrix in="SourceAlpha" type="matrix" values="0 0 0 0 0 0 0 0 0 0 0 0 0 0 0 0 0 0 127 0" result="hardAlpha"/>
<feOffset/>
<feGaussianBlur stdDeviation="2.38095"/>
<feComposite in2="hardAlpha" operator="arithmetic" k2="-1" k3="1"/>
<feColorMatrix type="matrix" values="0 0 0 0 0.972549 0 0 0 0 0.972549 0 0 0 0 0.972549 0 0 0 0.25 0"/>
<feBlend mode="normal" in2="shape" result="effect3_innerShadow_3578_9367"/>
</filter>
<filter id="filter1_bdi_3578_9367" x="132.533" y="67.5709" width="28.1231" height="46.0196" filterUnits="userSpaceOnUse" color-interpolation-filters="sRGB">
<feFlood flood-opacity="0" result="BackgroundImageFix"/>
<feGaussianBlur in="BackgroundImageFix" stdDeviation="3.83497"/>
<feComposite in2="SourceAlpha" operator="in" result="effect1_backgroundBlur_3578_9367"/>
<feColorMatrix in="SourceAlpha" type="matrix" values="0 0 0 0 0 0 0 0 0 0 0 0 0 0 0 0 0 0 127 0" result="hardAlpha"/>
<feMorphology radius="10.2266" operator="erode" in="SourceAlpha" result="effect2_dropShadow_3578_9367"/>
<feOffset dy="20.4532"/>
<feGaussianBlur stdDeviation="7.66994"/>
<feComposite in2="hardAlpha" operator="out"/>
<feColorMatrix type="matrix" values="0 0 0 0 0 0 0 0 0 0 0 0 0 0 0 0 0 0 0.4 0"/>
<feBlend mode="multiply" in2="effect1_backgroundBlur_3578_9367" result="effect2_dropShadow_3578_9367"/>
<feBlend mode="normal" in="SourceGraphic" in2="effect2_dropShadow_3578_9367" result="shape"/>
<feColorMatrix in="SourceAlpha" type="matrix" values="0 0 0 0 0 0 0 0 0 0 0 0 0 0 0 0 0 0 127 0" result="hardAlpha"/>
<feOffset/>
<feGaussianBlur stdDeviation="2.55665"/>
<feComposite in2="hardAlpha" operator="arithmetic" k2="-1" k3="1"/>
<feColorMatrix type="matrix" values="0 0 0 0 0.972549 0 0 0 0 0.972549 0 0 0 0 0.972549 0 0 0 0.25 0"/>
<feBlend mode="normal" in2="shape" result="effect3_innerShadow_3578_9367"/>
</filter>
<filter id="filter2_bdi_3578_9367" x="20.5742" y="122.024" width="28.1231" height="46.0196" filterUnits="userSpaceOnUse" color-interpolation-filters="sRGB">
<feFlood flood-opacity="0" result="BackgroundImageFix"/>
<feGaussianBlur in="BackgroundImageFix" stdDeviation="3.83497"/>
<feComposite in2="SourceAlpha" operator="in" result="effect1_backgroundBlur_3578_9367"/>
<feColorMatrix in="SourceAlpha" type="matrix" values="0 0 0 0 0 0 0 0 0 0 0 0 0 0 0 0 0 0 127 0" result="hardAlpha"/>
<feMorphology radius="10.2266" operator="erode" in="SourceAlpha" result="effect2_dropShadow_3578_9367"/>
<feOffset dy="20.4532"/>
<feGaussianBlur stdDeviation="7.66994"/>
<feComposite in2="hardAlpha" operator="out"/>
<feColorMatrix type="matrix" values="0 0 0 0 0 0 0 0 0 0 0 0 0 0 0 0 0 0 0.4 0"/>
<feBlend mode="multiply" in2="effect1_backgroundBlur_3578_9367" result="effect2_dropShadow_3578_9367"/>
<feBlend mode="normal" in="SourceGraphic" in2="effect2_dropShadow_3578_9367" result="shape"/>
<feColorMatrix in="SourceAlpha" type="matrix" values="0 0 0 0 0 0 0 0 0 0 0 0 0 0 0 0 0 0 127 0" result="hardAlpha"/>
<feOffset/>
<feGaussianBlur stdDeviation="2.55665"/>
<feComposite in2="hardAlpha" operator="arithmetic" k2="-1" k3="1"/>
<feColorMatrix type="matrix" values="0 0 0 0 0.972549 0 0 0 0 0.972549 0 0 0 0 0.972549 0 0 0 0.25 0"/>
<feBlend mode="normal" in2="shape" result="effect3_innerShadow_3578_9367"/>
</filter>
<linearGradient id="paint0_linear_3578_9367" x1="100" y1="44.3452" x2="100" y2="200" gradientUnits="userSpaceOnUse">
<stop stop-color="#1D262F"/>
<stop offset="1" stop-color="#737373" stop-opacity="0"/>
</linearGradient>
<radialGradient id="paint1_radial_3578_9367" cx="0" cy="0" r="1" gradientUnits="userSpaceOnUse" gradientTransform="translate(100 120.924) rotate(90) scale(100)">
<stop stop-color="#D9D9D9"/>
<stop offset="1" stop-color="#737373" stop-opacity="0"/>
</radialGradient>
<linearGradient id="paint2_linear_3578_9367" x1="100" y1="167.432" x2="112.747" y2="-9.98529" gradientUnits="userSpaceOnUse">
<stop stop-color="white" stop-opacity="0"/>
<stop offset="0.571573" stop-color="white" stop-opacity="0.9"/>
<stop offset="1" stop-color="white"/>
</linearGradient>
<linearGradient id="paint3_linear_3578_9367" x1="200" y1="101.195" x2="2.79897" y2="103.485" gradientUnits="userSpaceOnUse">
<stop stop-color="#131920"/>
<stop offset="0.5" stop-color="#9747FF"/>
<stop offset="1" stop-color="#131920"/>
</linearGradient>
<linearGradient id="paint4_linear_3578_9367" x1="47.0237" y1="88.7813" x2="52.2025" y2="101.854" gradientUnits="userSpaceOnUse">
<stop stop-color="white" stop-opacity="0.4"/>
<stop offset="0.4" stop-color="white" stop-opacity="0.01"/>
<stop offset="0.6" stop-color="white" stop-opacity="0.01"/>
<stop offset="1" stop-color="white" stop-opacity="0.1"/>
</linearGradient>
<linearGradient id="paint5_linear_3578_9367" x1="146.595" y1="75.2408" x2="152.156" y2="89.2784" gradientUnits="userSpaceOnUse">
<stop stop-color="white" stop-opacity="0.4"/>
<stop offset="0.4" stop-color="white" stop-opacity="0.01"/>
<stop offset="0.6" stop-color="white" stop-opacity="0.01"/>
<stop offset="1" stop-color="white" stop-opacity="0.1"/>
</linearGradient>
<linearGradient id="paint6_linear_3578_9367" x1="34.6358" y1="129.694" x2="40.1967" y2="143.731" gradientUnits="userSpaceOnUse">
<stop stop-color="white" stop-opacity="0.4"/>
<stop offset="0.4" stop-color="white" stop-opacity="0.01"/>
<stop offset="0.6" stop-color="white" stop-opacity="0.01"/>
<stop offset="1" stop-color="white" stop-opacity="0.1"/>
</linearGradient>
</defs>
</svg>
