<svg width="240" height="200" viewBox="0 0 240 200" fill="none" xmlns="http://www.w3.org/2000/svg">
<mask id="mask0_3282_1869" style="mask-type:alpha" maskUnits="userSpaceOnUse" x="12" y="0" width="216" height="201">
<rect x="12.6318" y="3.05176e-05" width="214.737" height="200.489" fill="url(#paint0_linear_3282_1869)"/>
</mask>
<g mask="url(#mask0_3282_1869)">
<g filter="url(#filter0_bi_3282_1869)">
<rect x="13.1582" y="3.08278" width="213.684" height="196.88" rx="9.69925" stroke="#1D262F" stroke-width="1.05263"/>
</g>
<g opacity="0.1">
<rect x="26.8838" y="7.03014" width="0.958647" height="5.75188" fill="#F8F8F8"/>
<rect x="41.1357" y="7.03014" width="0.958647" height="5.75188" fill="#F8F8F8"/>
<rect x="55.3877" y="7.03014" width="0.958647" height="5.75188" fill="#F8F8F8"/>
<rect x="69.6396" y="7.03014" width="0.958647" height="5.75188" fill="#F8F8F8"/>
<rect x="83.8916" y="7.03014" width="0.958647" height="5.75188" fill="#F8F8F8"/>
<rect x="98.1436" y="7.03014" width="0.958647" height="5.75188" fill="#F8F8F8"/>
<rect x="112.395" y="7.03014" width="0.958647" height="5.75188" fill="#F8F8F8"/>
<rect x="126.646" y="7.03014" width="0.958647" height="5.75188" fill="#F8F8F8"/>
<rect x="140.898" y="7.03014" width="0.958647" height="5.75188" fill="#F8F8F8"/>
<rect x="155.15" y="7.03014" width="0.958647" height="5.75188" fill="#F8F8F8"/>
<rect x="169.402" y="7.03014" width="0.958647" height="5.75188" fill="#F8F8F8"/>
<rect x="183.654" y="7.03014" width="0.958647" height="5.75188" fill="#F8F8F8"/>
<rect x="197.906" y="7.03014" width="0.958647" height="5.75188" fill="#F8F8F8"/>
<rect x="212.158" y="7.03014" width="0.958647" height="5.75188" fill="#F8F8F8"/>
</g>
<mask id="mask1_3282_1869" style="mask-type:alpha" maskUnits="userSpaceOnUse" x="13" y="27" width="215" height="149">
<rect x="13.2705" y="27.1617" width="214.098" height="148.083" fill="url(#paint1_linear_3282_1869)"/>
</mask>
<g mask="url(#mask1_3282_1869)">
<path opacity="0.1" d="M227.368 138.582C227.623 138.582 227.83 138.375 227.83 138.12C227.83 137.865 227.623 137.659 227.368 137.659L227.368 138.582ZM227.368 137.659L224.928 137.659L224.928 138.582L227.368 138.582L227.368 137.659ZM220.048 137.659L215.167 137.659L215.167 138.582L220.048 138.582L220.048 137.659ZM210.287 137.659L205.406 137.659L205.406 138.582L210.287 138.582L210.287 137.659ZM200.526 137.659L195.646 137.659L195.646 138.582L200.526 138.582L200.526 137.659ZM190.765 137.659L185.885 137.659L185.885 138.582L190.765 138.582L190.765 137.659ZM181.005 137.659L176.124 137.659L176.124 138.582L181.005 138.582L181.005 137.659ZM171.244 137.659L166.363 137.659L166.363 138.582L171.244 138.582L171.244 137.659ZM161.483 137.659L156.603 137.659L156.603 138.582L161.483 138.582L161.483 137.659ZM151.722 137.659L146.842 137.659L146.842 138.582L151.722 138.582L151.722 137.659ZM141.961 137.659L137.081 137.659L137.081 138.582L141.961 138.582L141.961 137.659ZM132.201 137.659L127.32 137.659L127.32 138.582L132.201 138.582L132.201 137.659ZM122.44 137.659L117.56 137.659L117.56 138.582L122.44 138.582L122.44 137.659ZM112.679 137.659L107.799 137.659L107.799 138.582L112.679 138.582L112.679 137.659ZM102.918 137.659L98.038 137.659L98.038 138.582L102.918 138.582L102.918 137.659ZM93.1576 137.659L88.2772 137.659L88.2772 138.582L93.1576 138.582L93.1576 137.659ZM83.3968 137.659L78.5164 137.659L78.5164 138.582L83.3968 138.582L83.3968 137.659ZM73.636 137.659L68.7557 137.659L68.7557 138.582L73.636 138.582L73.636 137.659ZM63.8753 137.659L58.9949 137.659L58.9949 138.582L63.8753 138.582L63.8753 137.659ZM54.1145 137.659L49.2341 137.659L49.2341 138.582L54.1145 138.582L54.1145 137.659ZM44.3537 137.659L39.4733 137.659L39.4733 138.582L44.3537 138.582L44.3537 137.659ZM34.593 137.659L29.7126 137.659L29.7126 138.582L34.593 138.582L34.593 137.659ZM24.8322 137.659L19.9518 137.659L19.9518 138.582L24.8322 138.582L24.8322 137.659ZM15.0714 137.659L12.6313 137.659L12.6313 138.582L15.0714 138.582L15.0714 137.659Z" fill="#F8F8F8"/>
<path opacity="0.1" d="M227.368 64.898C227.623 64.898 227.83 64.6913 227.83 64.4362C227.83 64.1812 227.623 63.9744 227.368 63.9744L227.368 64.898ZM227.368 63.9744L224.928 63.9744L224.928 64.898L227.368 64.898L227.368 63.9744ZM220.048 63.9744L215.167 63.9744L215.167 64.898L220.048 64.898L220.048 63.9744ZM210.287 63.9744L205.406 63.9744L205.406 64.898L210.287 64.898L210.287 63.9744ZM200.526 63.9744L195.646 63.9744L195.646 64.898L200.526 64.898L200.526 63.9744ZM190.765 63.9744L185.885 63.9744L185.885 64.898L190.765 64.898L190.765 63.9744ZM181.005 63.9744L176.124 63.9744L176.124 64.898L181.005 64.898L181.005 63.9744ZM171.244 63.9744L166.363 63.9744L166.363 64.898L171.244 64.898L171.244 63.9744ZM161.483 63.9744L156.603 63.9744L156.603 64.898L161.483 64.898L161.483 63.9744ZM151.722 63.9744L146.842 63.9744L146.842 64.898L151.722 64.898L151.722 63.9744ZM141.961 63.9744L137.081 63.9744L137.081 64.898L141.961 64.898L141.961 63.9744ZM132.201 63.9744L127.32 63.9744L127.32 64.898L132.201 64.898L132.201 63.9744ZM122.44 63.9744L117.56 63.9744L117.56 64.898L122.44 64.898L122.44 63.9744ZM112.679 63.9744L107.799 63.9744L107.799 64.898L112.679 64.898L112.679 63.9744ZM102.918 63.9744L98.038 63.9744L98.038 64.898L102.918 64.898L102.918 63.9744ZM93.1576 63.9744L88.2772 63.9744L88.2772 64.898L93.1576 64.898L93.1576 63.9744ZM83.3968 63.9744L78.5164 63.9744L78.5164 64.898L83.3968 64.898L83.3968 63.9744ZM73.636 63.9744L68.7557 63.9744L68.7557 64.898L73.636 64.898L73.636 63.9744ZM63.8753 63.9744L58.9949 63.9744L58.9949 64.898L63.8753 64.898L63.8753 63.9744ZM54.1145 63.9744L49.2341 63.9744L49.2341 64.898L54.1145 64.898L54.1145 63.9744ZM44.3537 63.9744L39.4733 63.9744L39.4733 64.898L44.3537 64.898L44.3537 63.9744ZM34.593 63.9744L29.7126 63.9744L29.7126 64.898L34.593 64.898L34.593 63.9744ZM24.8322 63.9744L19.9518 63.9744L19.9518 64.898L24.8322 64.898L24.8322 63.9744ZM15.0714 63.9744L12.6313 63.9744L12.6313 64.898L15.0714 64.898L15.0714 63.9744Z" fill="#F8F8F8"/>
<path opacity="0.1" d="M53.1836 120.604C36.3996 120.604 36.3996 106.99 19.6157 106.99H13.2705V175.244H227.368V166.894H221.023C204.239 166.894 204.239 96.0984 187.455 96.0984C170.671 96.0984 170.671 134.219 153.887 134.219C137.103 134.219 137.103 79.7611 120.319 79.7611C103.535 79.7611 103.535 66.1466 86.7515 66.1466C69.9675 66.1466 69.9675 120.604 53.1836 120.604Z" fill="url(#paint2_linear_3282_1869)"/>
<g opacity="0.75" filter="url(#filter1_di_3282_1869)">
<path d="M227.368 167.575H221.023C204.239 167.575 204.239 96.3011 187.455 96.3011C170.671 96.3011 170.671 134.679 153.887 134.679C137.103 134.679 137.103 79.8532 120.319 79.8532C103.535 79.8532 103.535 66.1466 86.7515 66.1466C69.9675 66.1466 69.9675 120.973 53.1836 120.973C36.3996 120.973 36.3996 107.266 19.6157 107.266H13.2705" stroke="url(#paint3_linear_3282_1869)" stroke-width="0.958646"/>
</g>
<g filter="url(#filter2_bdi_3282_1869)">
<circle cx="170.601" cy="118.421" r="6.39098" fill="#F8F8F8" fill-opacity="0.01" shape-rendering="crispEdges"/>
<circle cx="170.601" cy="118.421" r="6.39098" fill="#121212" fill-opacity="0.3" shape-rendering="crispEdges"/>
<circle cx="170.601" cy="118.421" r="6.07143" stroke="url(#paint4_linear_3282_1869)" stroke-opacity="0.25" stroke-width="0.639098" shape-rendering="crispEdges"/>
</g>
<circle cx="170.602" cy="118.421" r="3.19549" fill="#F8F8F8"/>
<g filter="url(#filter3_bdi_3282_1869)">
<circle cx="72.7064" cy="84.7369" r="6.39098" fill="#F8F8F8" fill-opacity="0.01" shape-rendering="crispEdges"/>
<circle cx="72.7064" cy="84.7369" r="6.39098" fill="#121212" fill-opacity="0.3" shape-rendering="crispEdges"/>
<circle cx="72.7064" cy="84.7369" r="6.07143" stroke="url(#paint5_linear_3282_1869)" stroke-opacity="0.25" stroke-width="0.639098" shape-rendering="crispEdges"/>
</g>
<circle cx="72.7072" cy="84.737" r="3.19549" fill="#F8F8F8"/>
</g>
<path d="M71.3774 86.2407L73.8847 86.2407C74.276 86.2407 74.5305 85.8289 74.3555 85.479L73.1018 82.9717C72.9079 82.5837 72.3543 82.5837 72.1603 82.9717L70.9066 85.479C70.7317 85.8289 70.9861 86.2407 71.3774 86.2407Z" fill="white"/>
<path d="M169.273 119.925L171.78 119.925C172.171 119.925 172.426 119.513 172.251 119.163L170.997 116.656C170.803 116.268 170.25 116.268 170.056 116.656L168.802 119.163C168.627 119.513 168.882 119.925 169.273 119.925Z" fill="white"/>
<path opacity="0.1" d="M113.271 6.87958C113.271 6.64378 113.08 6.45262 112.844 6.45262C112.608 6.45262 112.417 6.64378 112.417 6.87958L113.271 6.87958ZM113.271 186.82L113.271 184.571L112.417 184.571L112.417 186.82L113.271 186.82ZM113.271 180.072L113.271 175.574L112.417 175.574L112.417 180.072L113.271 180.072ZM113.271 171.075L113.271 166.577L112.417 166.577L112.417 171.075L113.271 171.075ZM113.271 162.078L113.271 157.58L112.417 157.58L112.417 162.078L113.271 162.078ZM113.271 153.081L113.271 148.583L112.417 148.583L112.417 153.081L113.271 153.081ZM113.271 144.084L113.271 139.586L112.417 139.586L112.417 144.084L113.271 144.084ZM113.271 135.087L113.271 130.589L112.417 130.589L112.417 135.087L113.271 135.087ZM113.271 126.09L113.271 121.592L112.417 121.592L112.417 126.09L113.271 126.09ZM113.271 117.093L113.271 112.595L112.417 112.595L112.417 117.093L113.271 117.093ZM113.271 108.096L113.271 103.598L112.417 103.598L112.417 108.096L113.271 108.096ZM113.271 99.0992L113.271 94.6006L112.417 94.6006L112.417 99.0992L113.271 99.0992ZM113.271 90.1021L113.271 85.6036L112.417 85.6036L112.417 90.1021L113.271 90.1021ZM113.271 81.1051L113.271 76.6066L112.417 76.6066L112.417 81.1051L113.271 81.1051ZM113.271 72.108L113.271 67.6095L112.417 67.6095L112.417 72.108L113.271 72.108ZM113.271 63.111L113.271 58.6125L112.417 58.6125L112.417 63.111L113.271 63.111ZM113.271 54.114L113.271 49.6154L112.417 49.6154L112.417 54.114L113.271 54.114ZM113.271 45.1169L113.271 40.6184L112.417 40.6184L112.417 45.1169L113.271 45.1169ZM113.271 36.1199L113.271 31.6214L112.417 31.6214L112.417 36.1199L113.271 36.1199ZM113.271 27.1229L113.271 22.6243L112.417 22.6243L112.417 27.1229L113.271 27.1229ZM113.271 18.1258L113.271 13.6273L112.417 13.6273L112.417 18.1258L113.271 18.1258ZM113.271 9.12877L113.271 6.87958L112.417 6.87958L112.417 9.12877L113.271 9.12877Z" fill="#F8F8F8"/>
<path d="M116.26 16.039H109.429L111.826 20.8335C112.246 21.6727 113.443 21.6727 113.863 20.8335L116.26 16.039Z" fill="#F8F8F8"/>
<g filter="url(#filter4_bdi_3282_1869)">
<circle cx="112.844" cy="70.689" r="5.69271" fill="#F8F8F8" fill-opacity="0.01" shape-rendering="crispEdges"/>
<circle cx="112.844" cy="70.689" r="5.69271" fill="#121212" fill-opacity="0.3" shape-rendering="crispEdges"/>
<circle cx="112.844" cy="70.689" r="5.40807" stroke="url(#paint6_linear_3282_1869)" stroke-opacity="0.25" stroke-width="0.569271" shape-rendering="crispEdges"/>
</g>
<circle cx="112.844" cy="70.689" r="2.84635" fill="#F8F8F8"/>
<path d="M114.031 79.0477C113.924 79.0093 113.815 78.9704 113.724 78.9466C113.637 78.924 113.469 78.8866 113.289 78.9488C113.083 79.0202 112.921 79.1822 112.85 79.3884C112.787 79.5682 112.825 79.7359 112.847 79.8228C112.871 79.9143 112.91 80.0228 112.949 80.1297L115.666 87.7006C115.714 87.8336 115.76 87.9611 115.805 88.0593C115.843 88.1423 115.93 88.3239 116.118 88.4265C116.325 88.5387 116.573 88.542 116.782 88.4352C116.973 88.3376 117.065 88.1583 117.105 88.0764C117.153 87.9794 117.202 87.8531 117.253 87.7214L118.476 84.5757L121.622 83.3523C121.754 83.3012 121.88 83.2521 121.977 83.2044C122.059 83.164 122.238 83.0726 122.336 82.8813C122.443 82.6722 122.44 82.4239 122.327 82.2176C122.225 82.029 122.043 81.9422 121.96 81.9041C121.862 81.8589 121.734 81.8132 121.601 81.7655L114.031 79.0477Z" fill="#121212" stroke="#F8F8F8" stroke-width="0.853906" stroke-linecap="round" stroke-linejoin="round"/>
</g>
<defs>
<filter id="filter0_bi_3282_1869" x="-51.2779" y="-61.3533" width="342.557" height="325.752" filterUnits="userSpaceOnUse" color-interpolation-filters="sRGB">
<feFlood flood-opacity="0" result="BackgroundImageFix"/>
<feGaussianBlur in="BackgroundImageFix" stdDeviation="31.9549"/>
<feComposite in2="SourceAlpha" operator="in" result="effect1_backgroundBlur_3282_1869"/>
<feBlend mode="normal" in="SourceGraphic" in2="effect1_backgroundBlur_3282_1869" result="shape"/>
<feColorMatrix in="SourceAlpha" type="matrix" values="0 0 0 0 0 0 0 0 0 0 0 0 0 0 0 0 0 0 127 0" result="hardAlpha"/>
<feOffset dx="1.2782" dy="2.55639"/>
<feGaussianBlur stdDeviation="5.11278"/>
<feComposite in2="hardAlpha" operator="arithmetic" k2="-1" k3="1"/>
<feColorMatrix type="matrix" values="0 0 0 0 0.972549 0 0 0 0 0.972549 0 0 0 0 0.972549 0 0 0 0.06 0"/>
<feBlend mode="normal" in2="shape" result="effect2_innerShadow_3282_1869"/>
</filter>
<filter id="filter1_di_3282_1869" x="8.15773" y="65.6673" width="224.323" height="127.951" filterUnits="userSpaceOnUse" color-interpolation-filters="sRGB">
<feFlood flood-opacity="0" result="BackgroundImageFix"/>
<feColorMatrix in="SourceAlpha" type="matrix" values="0 0 0 0 0 0 0 0 0 0 0 0 0 0 0 0 0 0 127 0" result="hardAlpha"/>
<feMorphology radius="10.2256" operator="erode" in="SourceAlpha" result="effect1_dropShadow_3282_1869"/>
<feOffset dy="20.4511"/>
<feGaussianBlur stdDeviation="7.66917"/>
<feComposite in2="hardAlpha" operator="out"/>
<feColorMatrix type="matrix" values="0 0 0 0 0 0 0 0 0 0 0 0 0 0 0 0 0 0 0.4 0"/>
<feBlend mode="multiply" in2="BackgroundImageFix" result="effect1_dropShadow_3282_1869"/>
<feBlend mode="normal" in="SourceGraphic" in2="effect1_dropShadow_3282_1869" result="shape"/>
<feColorMatrix in="SourceAlpha" type="matrix" values="0 0 0 0 0 0 0 0 0 0 0 0 0 0 0 0 0 0 127 0" result="hardAlpha"/>
<feOffset/>
<feGaussianBlur stdDeviation="2.55639"/>
<feComposite in2="hardAlpha" operator="arithmetic" k2="-1" k3="1"/>
<feColorMatrix type="matrix" values="0 0 0 0 0.972549 0 0 0 0 0.972549 0 0 0 0 0.972549 0 0 0 0.25 0"/>
<feBlend mode="normal" in2="shape" result="effect2_innerShadow_3282_1869"/>
</filter>
<filter id="filter2_bdi_3282_1869" x="156.541" y="104.361" width="28.1206" height="46.015" filterUnits="userSpaceOnUse" color-interpolation-filters="sRGB">
<feFlood flood-opacity="0" result="BackgroundImageFix"/>
<feGaussianBlur in="BackgroundImageFix" stdDeviation="3.83459"/>
<feComposite in2="SourceAlpha" operator="in" result="effect1_backgroundBlur_3282_1869"/>
<feColorMatrix in="SourceAlpha" type="matrix" values="0 0 0 0 0 0 0 0 0 0 0 0 0 0 0 0 0 0 127 0" result="hardAlpha"/>
<feMorphology radius="10.2256" operator="erode" in="SourceAlpha" result="effect2_dropShadow_3282_1869"/>
<feOffset dy="20.4511"/>
<feGaussianBlur stdDeviation="7.66917"/>
<feComposite in2="hardAlpha" operator="out"/>
<feColorMatrix type="matrix" values="0 0 0 0 0 0 0 0 0 0 0 0 0 0 0 0 0 0 0.4 0"/>
<feBlend mode="multiply" in2="effect1_backgroundBlur_3282_1869" result="effect2_dropShadow_3282_1869"/>
<feBlend mode="normal" in="SourceGraphic" in2="effect2_dropShadow_3282_1869" result="shape"/>
<feColorMatrix in="SourceAlpha" type="matrix" values="0 0 0 0 0 0 0 0 0 0 0 0 0 0 0 0 0 0 127 0" result="hardAlpha"/>
<feOffset/>
<feGaussianBlur stdDeviation="2.55639"/>
<feComposite in2="hardAlpha" operator="arithmetic" k2="-1" k3="1"/>
<feColorMatrix type="matrix" values="0 0 0 0 0.972549 0 0 0 0 0.972549 0 0 0 0 0.972549 0 0 0 0.25 0"/>
<feBlend mode="normal" in2="shape" result="effect3_innerShadow_3282_1869"/>
</filter>
<filter id="filter3_bdi_3282_1869" x="58.6463" y="70.6768" width="28.1206" height="46.015" filterUnits="userSpaceOnUse" color-interpolation-filters="sRGB">
<feFlood flood-opacity="0" result="BackgroundImageFix"/>
<feGaussianBlur in="BackgroundImageFix" stdDeviation="3.83459"/>
<feComposite in2="SourceAlpha" operator="in" result="effect1_backgroundBlur_3282_1869"/>
<feColorMatrix in="SourceAlpha" type="matrix" values="0 0 0 0 0 0 0 0 0 0 0 0 0 0 0 0 0 0 127 0" result="hardAlpha"/>
<feMorphology radius="10.2256" operator="erode" in="SourceAlpha" result="effect2_dropShadow_3282_1869"/>
<feOffset dy="20.4511"/>
<feGaussianBlur stdDeviation="7.66917"/>
<feComposite in2="hardAlpha" operator="out"/>
<feColorMatrix type="matrix" values="0 0 0 0 0 0 0 0 0 0 0 0 0 0 0 0 0 0 0.4 0"/>
<feBlend mode="multiply" in2="effect1_backgroundBlur_3282_1869" result="effect2_dropShadow_3282_1869"/>
<feBlend mode="normal" in="SourceGraphic" in2="effect2_dropShadow_3282_1869" result="shape"/>
<feColorMatrix in="SourceAlpha" type="matrix" values="0 0 0 0 0 0 0 0 0 0 0 0 0 0 0 0 0 0 127 0" result="hardAlpha"/>
<feOffset/>
<feGaussianBlur stdDeviation="2.55639"/>
<feComposite in2="hardAlpha" operator="arithmetic" k2="-1" k3="1"/>
<feColorMatrix type="matrix" values="0 0 0 0 0.972549 0 0 0 0 0.972549 0 0 0 0 0.972549 0 0 0 0.25 0"/>
<feBlend mode="normal" in2="shape" result="effect3_innerShadow_3282_1869"/>
</filter>
<filter id="filter4_bdi_3282_1869" x="100.32" y="58.165" width="25.0482" height="40.9875" filterUnits="userSpaceOnUse" color-interpolation-filters="sRGB">
<feFlood flood-opacity="0" result="BackgroundImageFix"/>
<feGaussianBlur in="BackgroundImageFix" stdDeviation="3.41563"/>
<feComposite in2="SourceAlpha" operator="in" result="effect1_backgroundBlur_3282_1869"/>
<feColorMatrix in="SourceAlpha" type="matrix" values="0 0 0 0 0 0 0 0 0 0 0 0 0 0 0 0 0 0 127 0" result="hardAlpha"/>
<feMorphology radius="9.10834" operator="erode" in="SourceAlpha" result="effect2_dropShadow_3282_1869"/>
<feOffset dy="18.2167"/>
<feGaussianBlur stdDeviation="6.83125"/>
<feComposite in2="hardAlpha" operator="out"/>
<feColorMatrix type="matrix" values="0 0 0 0 0 0 0 0 0 0 0 0 0 0 0 0 0 0 0.4 0"/>
<feBlend mode="multiply" in2="effect1_backgroundBlur_3282_1869" result="effect2_dropShadow_3282_1869"/>
<feBlend mode="normal" in="SourceGraphic" in2="effect2_dropShadow_3282_1869" result="shape"/>
<feColorMatrix in="SourceAlpha" type="matrix" values="0 0 0 0 0 0 0 0 0 0 0 0 0 0 0 0 0 0 127 0" result="hardAlpha"/>
<feOffset/>
<feGaussianBlur stdDeviation="2.27708"/>
<feComposite in2="hardAlpha" operator="arithmetic" k2="-1" k3="1"/>
<feColorMatrix type="matrix" values="0 0 0 0 0.972549 0 0 0 0 0.972549 0 0 0 0 0.972549 0 0 0 0.25 0"/>
<feBlend mode="normal" in2="shape" result="effect3_innerShadow_3282_1869"/>
</filter>
<linearGradient id="paint0_linear_3282_1869" x1="120" y1="3.05176e-05" x2="120" y2="200.489" gradientUnits="userSpaceOnUse">
<stop offset="0.391024" stop-color="#D9D9D9"/>
<stop offset="1" stop-color="#737373" stop-opacity="0"/>
</linearGradient>
<linearGradient id="paint1_linear_3282_1869" x1="227.368" y1="101.203" x2="13.2705" y2="101.203" gradientUnits="userSpaceOnUse">
<stop offset="0.0450512" stop-color="#585858" stop-opacity="0"/>
<stop offset="0.500663" stop-color="#5F5F5F"/>
<stop offset="0.946652" stop-color="#666666" stop-opacity="0"/>
</linearGradient>
<linearGradient id="paint2_linear_3282_1869" x1="120.319" y1="166.086" x2="131.528" y2="-6.12501" gradientUnits="userSpaceOnUse">
<stop stop-color="white" stop-opacity="0"/>
<stop offset="0.571573" stop-color="white" stop-opacity="0.9"/>
<stop offset="1" stop-color="white"/>
</linearGradient>
<linearGradient id="paint3_linear_3282_1869" x1="-142.138" y1="206.667" x2="336.476" y2="177.222" gradientUnits="userSpaceOnUse">
<stop stop-color="#00A3FF"/>
<stop offset="1" stop-color="#FF00C7"/>
</linearGradient>
<linearGradient id="paint4_linear_3282_1869" x1="170.601" y1="112.03" x2="176.161" y2="126.066" gradientUnits="userSpaceOnUse">
<stop stop-color="white" stop-opacity="0.4"/>
<stop offset="0.4" stop-color="white" stop-opacity="0.01"/>
<stop offset="0.6" stop-color="white" stop-opacity="0.01"/>
<stop offset="1" stop-color="white" stop-opacity="0.1"/>
</linearGradient>
<linearGradient id="paint5_linear_3282_1869" x1="72.7064" y1="78.3459" x2="78.2668" y2="92.3821" gradientUnits="userSpaceOnUse">
<stop stop-color="white" stop-opacity="0.4"/>
<stop offset="0.4" stop-color="white" stop-opacity="0.01"/>
<stop offset="0.6" stop-color="white" stop-opacity="0.01"/>
<stop offset="1" stop-color="white" stop-opacity="0.1"/>
</linearGradient>
<linearGradient id="paint6_linear_3282_1869" x1="112.844" y1="64.9963" x2="117.797" y2="77.4988" gradientUnits="userSpaceOnUse">
<stop stop-color="white" stop-opacity="0.4"/>
<stop offset="0.4" stop-color="white" stop-opacity="0.01"/>
<stop offset="0.6" stop-color="white" stop-opacity="0.01"/>
<stop offset="1" stop-color="white" stop-opacity="0.1"/>
</linearGradient>
</defs>
</svg>
