<svg width="32" height="32" viewBox="0 0 32 32" fill="none" xmlns="http://www.w3.org/2000/svg">
<rect width="32" height="32" rx="8" fill="white" fill-opacity="0.05"/>
<path d="M15.9957 22.8616C11.5839 23.5788 9.49747 21.2316 9.19173 17.9373C9.16491 17.7725 9.18309 17.6034 9.24435 17.448C9.30561 17.2926 9.41492 17.1653 9.53981 17.0544C10.4553 16.2411 10.8571 16.0156 12.3445 16.0156H19.6469C21.4725 16.0156 21.4725 13.7336 19.6469 13.7336H19.0079C18.9242 13.7329 18.8423 13.7092 18.7712 13.665C18.7 13.6208 18.6425 13.5579 18.6047 13.4832C18.567 13.4084 18.5506 13.3247 18.5573 13.2413C18.564 13.1578 18.5936 13.0778 18.6428 13.0101C18.9161 12.6442 19.2761 12.3519 19.6903 12.1595C20.1046 11.9672 20.5602 11.8807 21.0161 11.908C21.0103 11.5079 21.1123 11.1135 21.3114 10.7663C21.5104 10.4191 21.7991 10.1318 22.1473 9.93456C22.2165 9.89209 22.2957 9.86885 22.3768 9.86725C22.458 9.86564 22.5381 9.88572 22.6088 9.92542C22.6796 9.96512 22.7385 10.023 22.7794 10.0931C22.8204 10.1631 22.8419 10.2429 22.8417 10.324V17.383C22.7983 18.1509 22.5883 18.9002 22.2264 19.5789C21.8645 20.2576 21.3593 20.8495 20.7459 21.3135" stroke="white" stroke-linecap="round" stroke-linejoin="round"/>
<path d="M9.26318 18.2976H11.8884C14.1704 18.2976 12.7859 20.9018 16.9088 20.5796C16.9088 20.5796 17.0511 21.5636 18.7343 22.4052C20.5599 23.318 21.4727 22.4052 21.4727 22.4052L19.6471 19.6668" fill="#3D4955"/>
<path d="M9.26318 18.2976H11.8884C14.1704 18.2976 12.7859 20.9018 16.9088 20.5796C16.9088 20.5796 17.0511 21.5636 18.7343 22.4052C20.5599 23.318 21.4727 22.4052 21.4727 22.4052L19.6471 19.6668" stroke="white" stroke-linecap="round" stroke-linejoin="round"/>
<path d="M10.52 12.9238C10.52 12.4396 10.7124 11.9753 11.0547 11.6329C11.3971 11.2906 11.8614 11.0982 12.3456 11.0982C12.8298 11.0982 13.2941 11.2906 13.6365 11.6329C13.9789 11.9753 14.1712 12.4396 14.1712 12.9238" stroke="white" stroke-linecap="round" stroke-linejoin="round"/>
<path d="M17.8209 10.9952C17.8209 10.5111 17.6285 10.0467 17.2862 9.70435C16.9438 9.36198 16.4794 9.16964 15.9953 9.16964C15.5111 9.16964 15.0467 9.36198 14.7044 9.70435C14.362 10.0467 14.1697 10.5111 14.1697 10.9952V14.19" stroke="white" stroke-linecap="round" stroke-linejoin="round"/>
<path d="M16.4831 18.0893C16.4831 18.3556 16.2672 18.5714 16.0009 18.5714C15.7347 18.5714 15.5188 18.3556 15.5188 18.0893C15.5188 17.823 15.7347 17.6071 16.0009 17.6071C16.2672 17.6071 16.4831 17.823 16.4831 18.0893Z" fill="white"/>
</svg>
