<svg width="24" height="23" viewBox="0 0 24 23" fill="none" xmlns="http://www.w3.org/2000/svg">
<path d="M11.7336 10.5857V6.57782M11.7336 6.57782C13.139 6.57782 14.2782 5.43838 14.2782 4.03298C14.2782 2.62758 13.1389 1.48828 11.7335 1.48828C10.3281 1.48828 9.18884 2.62758 9.18884 4.03298C9.18884 5.43838 10.3282 6.57782 11.7336 6.57782ZM14.151 12.2401L17.65 11.2222M9.37968 12.2401L5.88072 11.2222M13.1968 15.1659L15.169 17.647M10.3339 15.1659L8.36173 17.647M22.5485 10.2675C22.5485 11.6729 21.4092 12.8122 20.0038 12.8122C18.5984 12.8122 17.4591 11.6729 17.4591 10.2675C17.4591 8.86215 18.5984 7.72284 20.0038 7.72284C21.4092 7.72284 22.5485 8.86215 22.5485 10.2675ZM14.2782 13.067C14.2782 14.4724 13.1389 15.6117 11.7335 15.6117C10.3281 15.6117 9.18884 14.4724 9.18884 13.067C9.18884 11.6616 10.3281 10.5223 11.7335 10.5223C13.1389 10.5223 14.2782 11.6616 14.2782 13.067ZM6.1353 10.2675C6.1353 11.6729 4.996 12.8122 3.5906 12.8122C2.1852 12.8122 1.0459 11.6729 1.0459 10.2675C1.0459 8.86215 2.1852 7.72284 3.5906 7.72284C4.996 7.72284 6.1353 8.86215 6.1353 10.2675ZM9.18871 19.5555C9.18871 20.9609 8.04941 22.1002 6.64401 22.1002C5.23861 22.1002 4.09931 20.9609 4.09931 19.5555C4.09931 18.1501 5.23861 17.0108 6.64401 17.0108C8.04941 17.0108 9.18871 18.1501 9.18871 19.5555ZM19.3678 19.5555C19.3678 20.9609 18.2285 22.1002 16.8231 22.1002C15.4177 22.1002 14.2784 20.9609 14.2784 19.5555C14.2784 18.1501 15.4177 17.0108 16.8231 17.0108C18.2285 17.0108 19.3678 18.1501 19.3678 19.5555Z" stroke="white" stroke-width="1.52096" stroke-linejoin="round"/>
</svg>
