<svg xmlns="http://www.w3.org/2000/svg" width="20" height="20" viewBox="0 0 20 20" fill="none">
  <g clip-path="url(#clip0_1251_6741)">
    <path d="M12.604 11.6666H7.604" stroke="currentColor" stroke-linecap="round" stroke-linejoin="round"/>
    <path d="M12.4042 8.33337H7.8042" stroke="currentColor" stroke-linecap="round" stroke-linejoin="round"/>
    <path d="M5.94812 16.305C7.50729 17.3082 9.38231 17.6995 11.2126 17.4037C13.0428 17.1078 14.6991 16.1458 15.8628 14.7024C17.0266 13.2591 17.6156 11.4365 17.5166 9.58514C17.4176 7.73376 16.6376 5.98435 15.3266 4.67336C14.0156 3.36237 12.2662 2.58237 10.4148 2.48338C8.56345 2.38439 6.74084 2.9734 5.29753 4.13713C3.85422 5.30085 2.89213 6.95712 2.59629 8.78739C2.30045 10.6177 2.69176 12.4927 3.69495 14.0519" stroke="currentColor" stroke-linecap="round" stroke-linejoin="round"/>
    <path d="M3.69494 14.0519L3.33919 16.1812C3.32826 16.2466 3.33311 16.3137 3.35335 16.3769C3.37358 16.4401 3.40862 16.4976 3.45553 16.5445C3.50245 16.5914 3.55989 16.6264 3.62308 16.6467C3.68627 16.6669 3.75338 16.6718 3.81883 16.6608L5.94799 16.305" stroke="currentColor" stroke-linecap="round" stroke-linejoin="round"/>
  </g>
  <defs>
    <clipPath id="clip0_1251_6741">
      <rect width="20" height="20" fill="white"/>
    </clipPath>
  </defs>
</svg>
