<svg width="112" height="112" viewBox="0 0 112 112" fill="none" xmlns="http://www.w3.org/2000/svg">
<path d="M14 72.3334L23.3333 72.3335" stroke="#272933" stroke-width="6" stroke-linecap="round" stroke-linejoin="round"/>
<path d="M14 55.9979L23.3325 55.9995" stroke="#272933" stroke-width="6" stroke-linecap="round" stroke-linejoin="round"/>
<path d="M14.002 39.6666L23.3336 39.6667" stroke="#272933" stroke-width="6" stroke-linecap="round" stroke-linejoin="round"/>
<path d="M97.9993 39.6667L88.666 39.6666" stroke="#272933" stroke-width="6" stroke-linecap="round" stroke-linejoin="round"/>
<path d="M97.9985 56.0021L88.666 56.0005" stroke="#272933" stroke-width="6" stroke-linecap="round" stroke-linejoin="round"/>
<path d="M97.9977 72.3334L88.666 72.3334" stroke="#272933" stroke-width="6" stroke-linecap="round" stroke-linejoin="round"/>
<path d="M39.6661 14L39.666 23.3333" stroke="#272933" stroke-width="6" stroke-linecap="round" stroke-linejoin="round"/>
<path d="M56.0016 14.0009L56 23.3333" stroke="#272933" stroke-width="6" stroke-linecap="round" stroke-linejoin="round"/>
<path d="M72.334 14.0017L72.334 23.3334" stroke="#272933" stroke-width="6" stroke-linecap="round" stroke-linejoin="round"/>
<path d="M72.334 98L72.3341 88.6666" stroke="#272933" stroke-width="6" stroke-linecap="round" stroke-linejoin="round"/>
<path d="M55.998 97.9991L55.9996 88.6666" stroke="#272933" stroke-width="6" stroke-linecap="round" stroke-linejoin="round"/>
<path d="M39.666 97.9983L39.6661 88.6666" stroke="#272933" stroke-width="6" stroke-linecap="round" stroke-linejoin="round"/>
<path d="M70.0007 88.6667H42.0007C37.0499 88.6667 32.302 86.7 28.8013 83.1994C25.3006 79.6987 23.334 74.9508 23.334 70V42C23.334 37.0493 25.3006 32.3014 28.8013 28.8007C32.302 25.3 37.0499 23.3334 42.0007 23.3334H70.0007C74.9514 23.3334 79.6993 25.3 83.2 28.8007C86.7007 32.3014 88.6673 37.0493 88.6673 42V70C88.6673 74.9508 86.7007 79.6987 83.2 83.1994C79.6993 86.7 74.9514 88.6667 70.0007 88.6667Z" fill="#17181A" stroke="url(#paint0_linear_9414_109819)" stroke-width="6" stroke-linecap="round" stroke-linejoin="round"/>
<path d="M40.75 62.4399H57.2901" stroke="white" stroke-width="6" stroke-linecap="round" stroke-linejoin="round"/>
<path d="M58.7067 66.7334L51.7534 45.2667H46.3401L39.3867 66.7334" stroke="white" stroke-width="6" stroke-linecap="round" stroke-linejoin="round"/>
<path d="M70.5137 66.7334V45.2667" stroke="white" stroke-width="6" stroke-linecap="round" stroke-linejoin="round"/>
<defs>
<linearGradient id="paint0_linear_9414_109819" x1="-21.3325" y1="-0.999962" x2="122.352" y2="119.894" gradientUnits="userSpaceOnUse">
<stop stop-color="#FF00C7"/>
<stop offset="1" stop-color="#00A3FF"/>
</linearGradient>
</defs>
</svg>
