<svg width="162" height="164" viewBox="0 0 162 164" fill="none" xmlns="http://www.w3.org/2000/svg">
<g clip-path="url(#clip0_9202_21343)" filter="url(#filter0_dddd_9202_21343)">
<g clip-path="url(#clip1_9202_21343)">
<path d="M69.3333 46V27.3333C69.3333 24.858 70.3166 22.484 72.0669 20.7337C73.8173 18.9833 76.1912 18 78.6666 18H134.667C137.142 18 139.516 18.9833 141.266 20.7337C143.017 22.484 144 24.858 144 27.3333V88C144 90.4754 143.017 92.8493 141.266 94.5997C139.516 96.35 137.142 97.3333 134.667 97.3333H111.333" fill="url(#paint0_linear_9202_21343)"/>
<path d="M69.3333 46V27.3333C69.3333 24.858 70.3166 22.484 72.0669 20.7337C73.8173 18.9833 76.1912 18 78.6666 18H134.667C137.142 18 139.516 18.9833 141.266 20.7337C143.017 22.484 144 24.858 144 27.3333V88C144 90.4754 143.017 92.8493 141.266 94.5997C139.516 96.35 137.142 97.3333 134.667 97.3333H111.333" stroke="url(#paint1_linear_9202_21343)" stroke-width="6" stroke-linecap="round" stroke-linejoin="round"/>
<path d="M125.333 46.0001V36.6667H116" stroke="white" stroke-width="5" stroke-linecap="round" stroke-linejoin="round"/>
<path d="M92.6667 47.3347L98.6681 41.3334L111.333 50.6667L125.333 36.6667" stroke="white" stroke-width="5" stroke-linecap="round" stroke-linejoin="round"/>
<path d="M111.333 67L125.333 67.0001" stroke="#272933" stroke-width="6" stroke-linecap="round" stroke-linejoin="round"/>
<path d="M111.333 81L125.333 81.0001" stroke="#272933" stroke-width="6" stroke-linecap="round" stroke-linejoin="round"/>
<path d="M60 67.4666V99.1999C60.0053 103.323 68.3573 106.667 78.6667 106.667C88.976 106.667 97.328 103.323 97.3333 99.1999V67.4666" stroke="white" stroke-width="5" stroke-linecap="round" stroke-linejoin="round"/>
<path d="M97.328 67.4667C97.328 71.5893 88.9707 74.9333 78.6613 74.9333C68.352 74.9333 60 71.5893 60 67.4667C60 63.3387 68.3627 60 78.6667 60C88.9707 60 97.328 63.344 97.3333 67.4667" stroke="white" stroke-width="5" stroke-linecap="round" stroke-linejoin="round"/>
<path d="M60.0027 83.3333C60.0027 87.4559 68.3547 90.7999 78.664 90.7999C88.9734 90.7999 97.3307 87.4559 97.3307 83.3333" stroke="white" stroke-width="5" stroke-linecap="round" stroke-linejoin="round"/>
</g>
</g>
<defs>
<filter id="filter0_dddd_9202_21343" x="0" y="0" width="162" height="164" filterUnits="userSpaceOnUse" color-interpolation-filters="sRGB">
<feFlood flood-opacity="0" result="BackgroundImageFix"/>
<feColorMatrix in="SourceAlpha" type="matrix" values="0 0 0 0 0 0 0 0 0 0 0 0 0 0 0 0 0 0 127 0" result="hardAlpha"/>
<feOffset dx="-2" dy="2"/>
<feGaussianBlur stdDeviation="3"/>
<feColorMatrix type="matrix" values="0 0 0 0 0 0 0 0 0 0 0 0 0 0 0 0 0 0 0.16 0"/>
<feBlend mode="normal" in2="BackgroundImageFix" result="effect1_dropShadow_9202_21343"/>
<feColorMatrix in="SourceAlpha" type="matrix" values="0 0 0 0 0 0 0 0 0 0 0 0 0 0 0 0 0 0 127 0" result="hardAlpha"/>
<feOffset dx="-7" dy="8"/>
<feGaussianBlur stdDeviation="5.5"/>
<feColorMatrix type="matrix" values="0 0 0 0 0 0 0 0 0 0 0 0 0 0 0 0 0 0 0.14 0"/>
<feBlend mode="normal" in2="effect1_dropShadow_9202_21343" result="effect2_dropShadow_9202_21343"/>
<feColorMatrix in="SourceAlpha" type="matrix" values="0 0 0 0 0 0 0 0 0 0 0 0 0 0 0 0 0 0 127 0" result="hardAlpha"/>
<feOffset dx="-16" dy="17"/>
<feGaussianBlur stdDeviation="7"/>
<feColorMatrix type="matrix" values="0 0 0 0 0 0 0 0 0 0 0 0 0 0 0 0 0 0 0.08 0"/>
<feBlend mode="normal" in2="effect2_dropShadow_9202_21343" result="effect3_dropShadow_9202_21343"/>
<feColorMatrix in="SourceAlpha" type="matrix" values="0 0 0 0 0 0 0 0 0 0 0 0 0 0 0 0 0 0 127 0" result="hardAlpha"/>
<feOffset dx="-29" dy="31"/>
<feGaussianBlur stdDeviation="8.5"/>
<feColorMatrix type="matrix" values="0 0 0 0 0 0 0 0 0 0 0 0 0 0 0 0 0 0 0.02 0"/>
<feBlend mode="normal" in2="effect3_dropShadow_9202_21343" result="effect4_dropShadow_9202_21343"/>
<feBlend mode="normal" in="SourceGraphic" in2="effect4_dropShadow_9202_21343" result="shape"/>
</filter>
<linearGradient id="paint0_linear_9202_21343" x1="139.5" y1="22" x2="90.5" y2="66" gradientUnits="userSpaceOnUse">
<stop stop-color="#17181A"/>
<stop offset="1" stop-color="#17181A" stop-opacity="0"/>
</linearGradient>
<linearGradient id="paint1_linear_9202_21343" x1="18.2858" y1="-11.5476" x2="190.655" y2="124.95" gradientUnits="userSpaceOnUse">
<stop stop-color="#FF00C7"/>
<stop offset="1" stop-color="#00A3FF"/>
</linearGradient>
<clipPath id="clip0_9202_21343">
<rect width="112" height="112" fill="white" transform="translate(46 4)"/>
</clipPath>
<clipPath id="clip1_9202_21343">
<rect width="112" height="112" fill="white" transform="translate(46 4)"/>
</clipPath>
</defs>
</svg>
