<svg width="112" height="112" viewBox="0 0 112 112" fill="none" xmlns="http://www.w3.org/2000/svg">
<path d="M23.333 42V23.3333C23.333 20.858 24.3163 18.484 26.0667 16.7337C27.817 14.9833 30.191 14 32.6663 14H88.6663C91.1417 14 93.5157 14.9833 95.266 16.7337C97.0163 18.484 97.9997 20.858 97.9997 23.3333V84C97.9997 86.4754 97.0163 88.8493 95.266 90.5997C93.5157 92.35 91.1417 93.3333 88.6663 93.3333H65.333" fill="url(#paint0_linear_9414_109732)"/>
<path d="M23.333 42V23.3333C23.333 20.858 24.3163 18.484 26.0667 16.7337C27.817 14.9833 30.191 14 32.6663 14H88.6663C91.1417 14 93.5157 14.9833 95.266 16.7337C97.0163 18.484 97.9997 20.858 97.9997 23.3333V84C97.9997 86.4754 97.0163 88.8493 95.266 90.5997C93.5157 92.35 91.1417 93.3333 88.6663 93.3333H65.333" stroke="url(#paint1_linear_9414_109732)" stroke-width="6" stroke-linecap="round" stroke-linejoin="round"/>
<path d="M79.3333 42V32.6666H70" stroke="white" stroke-width="5" stroke-linecap="round" stroke-linejoin="round"/>
<path d="M46.667 43.3346L52.6683 37.3333L65.3337 46.6666L79.3337 32.6666" stroke="white" stroke-width="5" stroke-linecap="round" stroke-linejoin="round"/>
<path d="M65.333 63L79.333 63.0001" stroke="#272933" stroke-width="6" stroke-linecap="round" stroke-linejoin="round"/>
<path d="M65.333 77L79.333 77.0001" stroke="#272933" stroke-width="6" stroke-linecap="round" stroke-linejoin="round"/>
<path d="M14 63.4667V95.2C14.0053 99.3227 22.3573 102.667 32.6667 102.667C42.976 102.667 51.328 99.3227 51.3333 95.2V63.4667" stroke="white" stroke-width="5" stroke-linecap="round" stroke-linejoin="round"/>
<path d="M51.328 63.4667C51.328 67.5893 42.9707 70.9333 32.6613 70.9333C22.352 70.9333 14 67.5893 14 63.4667C14 59.3387 22.3627 56 32.6667 56C42.9707 56 51.328 59.344 51.3333 63.4667" stroke="white" stroke-width="5" stroke-linecap="round" stroke-linejoin="round"/>
<path d="M14.0029 79.3334C14.0029 83.456 22.355 86.8 32.6643 86.8C42.9736 86.8 51.3309 83.456 51.3309 79.3334" stroke="white" stroke-width="5" stroke-linecap="round" stroke-linejoin="round"/>
<defs>
<linearGradient id="paint0_linear_9414_109732" x1="93.4998" y1="18" x2="44.4998" y2="62" gradientUnits="userSpaceOnUse">
<stop stop-color="#17181A"/>
<stop offset="1" stop-color="#17181A" stop-opacity="0"/>
</linearGradient>
<linearGradient id="paint1_linear_9414_109732" x1="-27.7144" y1="-15.5476" x2="144.655" y2="120.95" gradientUnits="userSpaceOnUse">
<stop stop-color="#FF00C7"/>
<stop offset="1" stop-color="#00A3FF"/>
</linearGradient>
</defs>
</svg>
