<svg width="24" height="24" viewBox="0 0 24 24" fill="none" xmlns="http://www.w3.org/2000/svg">
<path fill-rule="evenodd" clip-rule="evenodd" d="M21.1143 12.0723C18.3744 12.9605 16.2267 15.1082 15.3384 17.8493C14.4501 15.1082 12.3024 12.9605 9.5625 12.0723C12.3024 11.184 14.4501 9.03627 15.3384 6.29639C16.2267 9.03627 18.3744 11.184 21.1143 12.0723Z" stroke="white" stroke-opacity="0.96" stroke-width="1.5" stroke-linecap="round" stroke-linejoin="round"/>
<path fill-rule="evenodd" clip-rule="evenodd" d="M8.9831 5.56871C8.02726 5.87858 7.27801 6.62783 6.96811 7.58409C6.65821 6.62783 5.90896 5.87858 4.95312 5.56871C5.90896 5.2588 6.65821 4.50955 6.96811 3.55371C7.27801 4.50955 8.02726 5.2588 8.9831 5.56871Z" fill="white" fill-opacity="0.96" stroke="white" stroke-opacity="0.96" stroke-width="1.5" stroke-linecap="round" stroke-linejoin="round"/>
<path fill-rule="evenodd" clip-rule="evenodd" d="M9.0918 17.4563C7.6738 17.916 6.5623 19.0275 6.10256 20.4462C5.64281 19.0275 4.53129 17.916 3.11328 17.4563C4.53129 16.9966 5.64281 15.885 6.10256 14.467C6.5623 15.885 7.6738 16.9966 9.0918 17.4563Z" stroke="white" stroke-opacity="0.96" stroke-width="1.5" stroke-linecap="round" stroke-linejoin="round"/>
</svg>
