<svg width="112" height="112" viewBox="0 0 112 112" fill="none" xmlns="http://www.w3.org/2000/svg">
<path d="M14 102.333H46.6667" stroke="#272933" stroke-width="6" stroke-linecap="round" stroke-linejoin="round"/>
<path d="M30 90V80C30 78.8954 30.8954 78 32 78H40.5" stroke="white" stroke-width="6" stroke-linecap="round"/>
<path d="M65.0225 55.0667V63.7778" stroke="#585D76" stroke-width="6" stroke-miterlimit="10" stroke-linecap="round"/>
<path d="M65.0225 83.0667V102.667" stroke="#313340" stroke-width="6" stroke-miterlimit="10" stroke-linecap="round"/>
<path d="M93.6445 89.6001V102.667" stroke="#313340" stroke-width="6" stroke-miterlimit="10" stroke-linecap="round"/>
<path d="M93.6445 79.0222V55.0667" stroke="#595E78" stroke-width="6" stroke-miterlimit="10" stroke-linecap="round"/>
<path d="M66 60H64C59.5817 60 56 63.5817 56 68V84C56 88.4183 59.5817 92 64 92H66C70.4183 92 74 88.4183 74 84V68C74 63.5817 70.4183 60 66 60Z" fill="#17181A" stroke="url(#paint0_linear_9414_109774)" stroke-width="6" stroke-linecap="round" stroke-linejoin="round"/>
<path d="M94.6669 65.1333H92.9336C88.5153 65.1333 84.9336 68.715 84.9336 73.1333V89.1333C84.9336 93.5516 88.5153 97.1333 92.9336 97.1333H94.6669C99.0852 97.1333 102.667 93.5516 102.667 89.1333V73.1333C102.667 68.715 99.0852 65.1333 94.6669 65.1333Z" fill="#17181A" stroke="url(#paint1_linear_9414_109774)" stroke-width="6" stroke-linecap="round" stroke-linejoin="round"/>
<path d="M18.667 102.333L18.6671 47.2083" stroke="#272933" stroke-width="6" stroke-linecap="round" stroke-linejoin="round"/>
<path d="M101.034 28.0957C101.716 29.3796 102.134 30.7868 102.265 32.2347C102.395 33.6825 102.235 35.1418 101.794 36.5269C101.043 38.8903 99.5471 40.9472 97.5301 42.3899C95.5131 43.8327 93.0833 44.5837 90.604 44.5307C88.1247 44.4777 85.7291 43.6235 83.7757 42.0959C81.8222 40.5683 80.4157 38.4493 79.7666 36.0559C79.7254 35.9169 79.6404 35.7949 79.5242 35.7081C79.4081 35.6214 79.267 35.5745 79.122 35.5745C78.977 35.5745 78.8359 35.6214 78.7197 35.7081C78.6035 35.7949 78.5185 35.9169 78.4774 36.0559C77.8151 38.4898 76.3704 40.6381 74.3662 42.1697C72.362 43.7012 69.9096 44.5308 67.3872 44.5305C64.8648 44.5302 62.4126 43.7001 60.4087 42.1682C58.4048 40.6362 56.9606 38.4875 56.2988 36.0535C56.2577 35.9145 56.1728 35.7924 56.0566 35.7056C55.9405 35.6188 55.7993 35.5718 55.6543 35.5718C55.5093 35.5718 55.3682 35.6188 55.252 35.7056C55.1359 35.7924 55.0509 35.9145 55.0098 36.0535C54.3477 38.4876 52.9032 40.6361 50.8991 42.1679C48.8949 43.6996 46.4425 44.5294 43.9201 44.5293C41.3976 44.5292 38.9452 43.6992 36.9412 42.1674C34.9372 40.6355 33.4928 38.4868 32.8309 36.0527C32.7897 35.9137 32.7047 35.7918 32.5885 35.7051C32.4723 35.6183 32.3313 35.5715 32.1863 35.5715C32.0413 35.5715 31.9002 35.6183 31.7841 35.7051C31.6679 35.7918 31.5829 35.9137 31.5417 36.0527C30.8925 38.4459 29.486 40.5646 27.5327 42.092C25.5793 43.6195 23.184 44.4736 20.705 44.5267C18.2259 44.5798 15.7962 43.829 13.7793 42.3866C11.7623 40.9441 10.2665 38.8876 9.51539 36.5244C9.07386 35.1391 8.91358 33.6796 9.04398 32.2315C9.17438 30.7834 9.59283 29.3759 10.2748 28.0918C10.2748 28.0918 17.4609 16.6663 18.2394 15.125C19.018 13.5837 20.209 12.2886 21.6797 11.3838C23.1505 10.479 24.8434 10 26.5702 10H84.737C86.4638 10 88.1567 10.4791 89.6275 11.3839C91.0982 12.2887 92.2891 13.5837 93.0677 15.125L101.034 28.0957Z" fill="#17181A" stroke="url(#paint2_linear_9414_109774)" stroke-width="6" stroke-linecap="round" stroke-linejoin="round"/>
<defs>
<linearGradient id="paint0_linear_9414_109774" x1="68.3254" y1="58.8" x2="54.6385" y2="79.3679" gradientUnits="userSpaceOnUse">
<stop stop-color="#5B607B"/>
<stop offset="1" stop-color="#30333F"/>
</linearGradient>
<linearGradient id="paint1_linear_9414_109774" x1="97.0764" y1="63.9333" x2="83.3117" y2="84.3117" gradientUnits="userSpaceOnUse">
<stop stop-color="#5B607B"/>
<stop offset="1" stop-color="#30333F"/>
</linearGradient>
<linearGradient id="paint2_linear_9414_109774" x1="-46.9853" y1="-7.34262" x2="14.577" y2="124.055" gradientUnits="userSpaceOnUse">
<stop stop-color="#FF00C7"/>
<stop offset="1" stop-color="#00A3FF"/>
</linearGradient>
</defs>
</svg>
