<svg width="112" height="112" viewBox="0 0 112 112" fill="none" xmlns="http://www.w3.org/2000/svg">
<g clip-path="url(#clip0_9414_109869)">
<path d="M55.9997 102.667C81.773 102.667 102.666 81.7733 102.666 56C102.666 30.2267 81.773 9.33331 55.9997 9.33331C30.2264 9.33331 9.33301 30.2267 9.33301 56C9.33301 81.7733 30.2264 102.667 55.9997 102.667Z" fill="#17181A" stroke="url(#paint0_linear_9414_109869)" stroke-width="6" stroke-linecap="round" stroke-linejoin="round"/>
<path d="M65.823 79.716C62.6077 81.046 59.2757 81.6666 55.9997 81.6666C41.827 81.6666 30.333 70.1726 30.333 56C30.333 41.8273 41.827 30.3333 55.9997 30.3333C70.1723 30.3333 81.6663 41.8273 81.6663 56V60.2746C81.6663 64.7033 78.073 68.292 73.649 68.292C69.225 68.292 65.6317 64.6986 65.6317 60.2746V56M65.6317 56C65.6317 50.68 61.3243 46.3773 56.009 46.3773C50.689 46.3773 46.3863 50.6846 46.3863 56C46.3863 61.3153 50.6937 65.6226 56.009 65.6226C61.3243 65.6226 65.6317 61.32 65.6317 56Z" stroke="white" stroke-width="5" stroke-linecap="round" stroke-linejoin="round"/>
</g>
<defs>
<linearGradient id="paint0_linear_9414_109869" x1="-46.667" y1="-27.0233" x2="151.165" y2="141.921" gradientUnits="userSpaceOnUse">
<stop stop-color="#FF00C7"/>
<stop offset="1" stop-color="#00A3FF"/>
</linearGradient>
<clipPath id="clip0_9414_109869">
<rect width="112" height="112" fill="white"/>
</clipPath>
</defs>
</svg>
