<svg width="94" height="93" viewBox="0 0 94 93" fill="none" xmlns="http://www.w3.org/2000/svg">
<path d="M12.668 4.59998V13.9333" stroke="#585D76" stroke-width="6" stroke-miterlimit="10" stroke-linecap="round"/>
<path d="M12.668 68.7333V89.7333" stroke="#313340" stroke-width="6" stroke-miterlimit="10" stroke-linecap="round"/>
<path d="M47 80L46.9998 89.4" stroke="white" stroke-width="6" stroke-miterlimit="10" stroke-linecap="round"/>
<path d="M47 39.9333V16.6" stroke="white" stroke-width="6" stroke-miterlimit="10" stroke-linecap="round"/>
<path d="M81.334 74.1333V88.1333" stroke="#313340" stroke-width="6" stroke-miterlimit="10" stroke-linecap="round"/>
<path d="M81.334 28.6667V3" stroke="#595E78" stroke-width="6" stroke-miterlimit="10" stroke-linecap="round"/>
<path d="M48.3346 41.3334H45.668C41.2497 41.3334 37.668 44.9151 37.668 49.3334V70.6667C37.668 75.085 41.2497 78.6667 45.668 78.6667H48.3346C52.7529 78.6667 56.3346 75.085 56.3346 70.6667V49.3334C56.3346 44.9151 52.7529 41.3334 48.3346 41.3334Z" fill="#17181A" stroke="url(#paint0_linear_9414_109687)" stroke-width="6" stroke-linecap="round" stroke-linejoin="round"/>
<path d="M14.0007 15.3334H11.334C6.91571 15.3334 3.33398 18.9151 3.33398 23.3334V63.3334C3.33398 67.7517 6.91571 71.3334 11.334 71.3334H14.0007C18.4189 71.3334 22.0007 67.7517 22.0007 63.3334V23.3334C22.0007 18.9151 18.4189 15.3334 14.0007 15.3334Z" fill="#17181A" stroke="url(#paint1_linear_9414_109687)" stroke-width="6" stroke-linecap="round" stroke-linejoin="round"/>
<path d="M82.6667 23.0667H80C75.5817 23.0667 72 26.6484 72 31.0667V68.7333C72 73.1516 75.5817 76.7333 80 76.7333H82.6667C87.0849 76.7333 90.6667 73.1516 90.6667 68.7333V31.0667C90.6667 26.6484 87.0849 23.0667 82.6667 23.0667Z" fill="#17181A" stroke="url(#paint2_linear_9414_109687)" stroke-width="6" stroke-linecap="round" stroke-linejoin="round"/>
<defs>
<linearGradient id="paint0_linear_9414_109687" x1="-4.99805" y1="23" x2="20.0956" y2="121.24" gradientUnits="userSpaceOnUse">
<stop stop-color="#FF00C7"/>
<stop offset="1" stop-color="#00A3FF"/>
</linearGradient>
<linearGradient id="paint1_linear_9414_109687" x1="16.1159" y1="13.2334" x2="-9.67686" y2="36.2023" gradientUnits="userSpaceOnUse">
<stop stop-color="#5B607B"/>
<stop offset="1" stop-color="#30333F"/>
</linearGradient>
<linearGradient id="paint2_linear_9414_109687" x1="84.7819" y1="21.0542" x2="59.9644" y2="44.1155" gradientUnits="userSpaceOnUse">
<stop stop-color="#5B607B"/>
<stop offset="1" stop-color="#30333F"/>
</linearGradient>
</defs>
</svg>
