<svg width="149" height="151" viewBox="0 0 149 151" fill="none" xmlns="http://www.w3.org/2000/svg">
<g filter="url(#filter0_dddd_9153_80928)">
<path d="M58.6667 14.6001V23.9334" stroke="#585D76" stroke-width="6" stroke-miterlimit="10" stroke-linecap="round"/>
<path d="M58.6667 78.7334V99.7334" stroke="#313340" stroke-width="6" stroke-miterlimit="10" stroke-linecap="round"/>
<path d="M93 90L92.9998 99.4" stroke="white" stroke-width="6" stroke-miterlimit="10" stroke-linecap="round"/>
<path d="M92.9998 49.9334V26.6001" stroke="white" stroke-width="6" stroke-miterlimit="10" stroke-linecap="round"/>
<path d="M127.333 84.1333V98.1333" stroke="#313340" stroke-width="6" stroke-miterlimit="10" stroke-linecap="round"/>
<path d="M127.333 38.6667V13" stroke="#595E78" stroke-width="6" stroke-miterlimit="10" stroke-linecap="round"/>
<path d="M94.3334 51.3333H91.6667C87.2485 51.3333 83.6667 54.915 83.6667 59.3332V80.6666C83.6667 85.0849 87.2485 88.6666 91.6667 88.6666H94.3334C98.7517 88.6666 102.333 85.0849 102.333 80.6666V59.3333C102.333 54.915 98.7517 51.3333 94.3334 51.3333Z" fill="#17181A" stroke="url(#paint0_linear_9153_80928)" stroke-width="6" stroke-linecap="round" stroke-linejoin="round"/>
<path d="M59.9999 25.3333H57.3333C52.915 25.3333 49.3333 28.915 49.3333 33.3333V73.3332C49.3333 77.7515 52.915 81.3333 57.3333 81.3333H59.9999C64.4182 81.3333 67.9999 77.7515 67.9999 73.3333V33.3333C67.9999 28.915 64.4182 25.3333 59.9999 25.3333Z" fill="#17181A" stroke="url(#paint1_linear_9153_80928)" stroke-width="6" stroke-linecap="round" stroke-linejoin="round"/>
<path d="M128.666 33.0667H126C121.581 33.0667 118 36.6484 118 41.0667V78.7333C118 83.1516 121.581 86.7333 126 86.7333H128.666C133.085 86.7333 136.666 83.1516 136.666 78.7333V41.0667C136.666 36.6484 133.085 33.0667 128.666 33.0667Z" fill="#17181A" stroke="url(#paint2_linear_9153_80928)" stroke-width="6" stroke-linecap="round" stroke-linejoin="round"/>
</g>
<defs>
<filter id="filter0_dddd_9153_80928" x="-9" y="-4" width="162" height="164" filterUnits="userSpaceOnUse" color-interpolation-filters="sRGB">
<feFlood flood-opacity="0" result="BackgroundImageFix"/>
<feColorMatrix in="SourceAlpha" type="matrix" values="0 0 0 0 0 0 0 0 0 0 0 0 0 0 0 0 0 0 127 0" result="hardAlpha"/>
<feOffset dx="-2" dy="2"/>
<feGaussianBlur stdDeviation="3"/>
<feColorMatrix type="matrix" values="0 0 0 0 0 0 0 0 0 0 0 0 0 0 0 0 0 0 0.16 0"/>
<feBlend mode="normal" in2="BackgroundImageFix" result="effect1_dropShadow_9153_80928"/>
<feColorMatrix in="SourceAlpha" type="matrix" values="0 0 0 0 0 0 0 0 0 0 0 0 0 0 0 0 0 0 127 0" result="hardAlpha"/>
<feOffset dx="-7" dy="8"/>
<feGaussianBlur stdDeviation="5.5"/>
<feColorMatrix type="matrix" values="0 0 0 0 0 0 0 0 0 0 0 0 0 0 0 0 0 0 0.14 0"/>
<feBlend mode="normal" in2="effect1_dropShadow_9153_80928" result="effect2_dropShadow_9153_80928"/>
<feColorMatrix in="SourceAlpha" type="matrix" values="0 0 0 0 0 0 0 0 0 0 0 0 0 0 0 0 0 0 127 0" result="hardAlpha"/>
<feOffset dx="-16" dy="17"/>
<feGaussianBlur stdDeviation="7"/>
<feColorMatrix type="matrix" values="0 0 0 0 0 0 0 0 0 0 0 0 0 0 0 0 0 0 0.08 0"/>
<feBlend mode="normal" in2="effect2_dropShadow_9153_80928" result="effect3_dropShadow_9153_80928"/>
<feColorMatrix in="SourceAlpha" type="matrix" values="0 0 0 0 0 0 0 0 0 0 0 0 0 0 0 0 0 0 127 0" result="hardAlpha"/>
<feOffset dx="-29" dy="31"/>
<feGaussianBlur stdDeviation="8.5"/>
<feColorMatrix type="matrix" values="0 0 0 0 0 0 0 0 0 0 0 0 0 0 0 0 0 0 0.02 0"/>
<feBlend mode="normal" in2="effect3_dropShadow_9153_80928" result="effect4_dropShadow_9153_80928"/>
<feBlend mode="normal" in="SourceGraphic" in2="effect4_dropShadow_9153_80928" result="shape"/>
</filter>
<linearGradient id="paint0_linear_9153_80928" x1="41.0007" y1="32.9999" x2="66.0944" y2="131.239" gradientUnits="userSpaceOnUse">
<stop stop-color="#FF00C7"/>
<stop offset="1" stop-color="#00A3FF"/>
</linearGradient>
<linearGradient id="paint1_linear_9153_80928" x1="62.1152" y1="23.2333" x2="36.3224" y2="46.2022" gradientUnits="userSpaceOnUse">
<stop stop-color="#5B607B"/>
<stop offset="1" stop-color="#30333F"/>
</linearGradient>
<linearGradient id="paint2_linear_9153_80928" x1="130.782" y1="31.0542" x2="105.964" y2="54.1155" gradientUnits="userSpaceOnUse">
<stop stop-color="#5B607B"/>
<stop offset="1" stop-color="#30333F"/>
</linearGradient>
</defs>
</svg>
