<svg width="92" height="92" viewBox="0 0 92 92" fill="none" xmlns="http://www.w3.org/2000/svg">
<path d="M45.9733 87.6942C18.5218 92.1567 5.53983 77.552 3.63743 57.0546C3.47053 56.0286 3.58364 54.9767 3.96484 54.0097C4.34604 53.0427 5.02619 52.2508 5.80325 51.5605C11.4995 46.5 13.9995 45.0971 23.2548 45.0971H68.6917C80.0509 45.0971 80.0509 30.8981 68.6917 30.8981H64.716C64.195 30.8938 63.6853 30.7461 63.2428 30.4713C62.8002 30.1964 62.4419 29.8049 62.2072 29.3398C61.9725 28.8747 61.8705 28.3539 61.9123 27.8346C61.954 27.3153 62.1381 26.8176 62.4441 26.396C64.1448 24.1192 66.3846 22.3006 68.9622 21.1036C71.5397 19.9067 74.3743 19.369 77.2111 19.5388C77.1755 17.049 77.8101 14.5953 79.0485 12.4349C80.2869 10.2746 82.0835 8.48701 84.25 7.25951C84.6803 6.99525 85.1733 6.85065 85.6782 6.84064C86.183 6.83064 86.6813 6.95561 87.1217 7.20263C87.5621 7.44964 87.9286 7.80976 88.1832 8.24577C88.4379 8.68178 88.5715 9.17788 88.5703 9.68282V53.6051C88.3002 58.3834 86.994 63.0457 84.7422 67.2688C82.4905 71.4919 79.347 75.1746 75.53 78.0615" fill="#17181A"/>
<path d="M45.9733 87.6942C18.5218 92.1567 5.53983 77.552 3.63743 57.0546C3.47053 56.0286 3.58364 54.9767 3.96484 54.0097C4.34604 53.0427 5.02619 52.2508 5.80325 51.5605C11.4995 46.5 13.9995 45.0971 23.2548 45.0971H68.6917C80.0509 45.0971 80.0509 30.8981 68.6917 30.8981H64.716C64.195 30.8938 63.6853 30.7461 63.2428 30.4712C62.8002 30.1964 62.4419 29.8049 62.2072 29.3398C61.9725 28.8747 61.8705 28.3539 61.9123 27.8346C61.954 27.3153 62.1381 26.8176 62.4441 26.396C64.1448 24.1192 66.3846 22.3006 68.9622 21.1036C71.5397 19.9067 74.3743 19.369 77.2111 19.5388C77.1755 17.049 77.8101 14.5953 79.0485 12.4349C80.2869 10.2746 82.0835 8.48701 84.25 7.25951C84.6803 6.99525 85.1733 6.85065 85.6782 6.84064C86.183 6.83064 86.6813 6.95561 87.1217 7.20263C87.5621 7.44964 87.9286 7.80976 88.1832 8.24577C88.4379 8.68178 88.5715 9.17788 88.5703 9.68282V53.6051C88.3002 58.3834 86.994 63.0457 84.7422 67.2688C82.4905 71.4919 79.347 75.1746 75.53 78.0615C75.375 79.1183 55.4393 86.1554 45.9733 87.6942Z" stroke="url(#paint0_linear_9414_109908)" stroke-width="6" stroke-linecap="round" stroke-linejoin="round"/>
<path d="M4.08008 59.2961H20.4146C34.6137 59.2961 25.9992 75.5 51.6525 73.4952C51.6525 73.4952 52.5385 79.6178 63.0117 84.8544C74.3709 90.534 80.0506 84.8544 80.0506 84.8544L68.6913 67.8156" fill="#17181A"/>
<path d="M4.08008 59.2961H20.4146C34.6137 59.2961 25.9992 75.5 51.6525 73.4952C51.6525 73.4952 52.5385 79.6178 63.0117 84.8544C74.3709 90.534 80.0506 84.8544 80.0506 84.8544L68.6913 67.8156" stroke="url(#paint1_linear_9414_109908)" stroke-width="6" stroke-linecap="round" stroke-linejoin="round"/>
<path d="M11.8965 25.8592C11.8965 22.8466 13.0933 19.9573 15.2235 17.827C17.3538 15.6968 20.2431 14.5 23.2557 14.5C26.2684 14.5 29.1576 15.6968 31.2879 17.827C33.4182 19.9573 34.6149 22.8466 34.6149 25.8592" stroke="white" stroke-width="5" stroke-linecap="round" stroke-linejoin="round"/>
<path d="M57.3317 13.8592C57.3317 10.8466 56.135 7.95731 54.0047 5.82704C51.8744 3.69677 48.9852 2.5 45.9725 2.5C42.9599 2.5 40.0706 3.69677 37.9403 5.82704C35.8101 7.95731 34.6133 10.8466 34.6133 13.8592V33.7379" stroke="white" stroke-width="5" stroke-linecap="round" stroke-linejoin="round"/>
<path d="M49 58C49 59.6569 47.6569 61 46 61C44.3431 61 43 59.6569 43 58C43 56.3431 44.3431 55 46 55C47.6569 55 49 56.3431 49 58Z" fill="white"/>
<defs>
<linearGradient id="paint0_linear_9414_109908" x1="-47.4422" y1="-24.6554" x2="125.075" y2="130.24" gradientUnits="userSpaceOnUse">
<stop stop-color="#FF00C7"/>
<stop offset="1" stop-color="#00A3FF"/>
</linearGradient>
<linearGradient id="paint1_linear_9414_109908" x1="6.35085" y1="62.5416" x2="37.0885" y2="134.43" gradientUnits="userSpaceOnUse">
<stop stop-color="#9B41DD"/>
<stop offset="1" stop-color="#00A3FF"/>
</linearGradient>
</defs>
</svg>
