<svg xmlns="http://www.w3.org/2000/svg" width="112" height="80" viewBox="0 0 112 80" fill="none">
  <path d="M63.3477 74.4758H52.1758C52.0022 74.4758 51.8303 74.4415 51.6699 74.375C51.5096 74.3085 51.3639 74.211 51.2413 74.0882C51.1186 73.9653 51.0214 73.8195 50.9552 73.659C50.889 73.4985 50.8551 73.3265 50.8555 73.1529V71.6904H64.6527V73.1529C64.6528 73.5007 64.5158 73.8345 64.2716 74.0821C64.0273 74.3297 63.6954 74.4711 63.3477 74.4758Z" fill="#A9AFC4"/>
  <path d="M101.891 79.102H13.6354C12.5514 79.1006 11.5121 78.6696 10.7454 77.9033C9.97862 77.137 9.54694 76.0981 9.54492 75.0141V70.9287H105.981V75.0141C105.979 76.0981 105.547 77.137 104.781 77.9033C104.014 78.6696 102.975 79.1006 101.891 79.102ZM11.0684 72.4521V75.0141C11.0704 75.694 11.3415 76.3455 11.8226 76.8261C12.3036 77.3066 12.9554 77.5772 13.6354 77.5785H101.891C102.571 77.5778 103.224 77.3072 103.705 76.8259C104.186 76.3447 104.457 75.6921 104.458 75.0115V72.4521H11.0684Z" fill="#5E6175"/>
  <path d="M72.8721 67.2214L42.6416 67.214V58.0273C42.6416 55.399 43.6857 52.8783 45.5442 51.0198C47.4027 49.1613 49.9234 48.1172 52.5518 48.1172H62.9619C65.5903 48.1172 68.1109 49.1613 69.9695 51.0198C71.828 52.8783 72.8721 55.399 72.8721 58.0273V67.2214Z" stroke="#5E6175"/>
  <path d="M57.7615 48.3793C55.4405 48.3766 53.2152 47.4534 51.574 45.8121C49.9328 44.1709 49.0095 41.9457 49.0068 39.6246V37.7686C49.0068 35.4453 49.9297 33.2172 51.5725 31.5745C53.2153 29.9317 55.4434 29.0088 57.7666 29.0088C60.0898 29.0088 62.3179 29.9317 63.9607 31.5745C65.6035 33.2172 66.5264 35.4453 66.5264 37.7686V39.6246C66.5237 41.9474 65.5991 44.1742 63.9556 45.8157C62.3122 47.4573 60.0843 48.3793 57.7615 48.3793ZM57.7615 30.5373C55.8445 30.54 54.0068 31.3027 52.6512 32.6583C51.2957 34.0138 50.533 35.8515 50.5303 37.7686V39.6246C50.5303 41.5438 51.2927 43.3844 52.6497 44.7415C54.0068 46.0985 55.8474 46.8609 57.7666 46.8609C59.6858 46.8609 61.5264 46.0985 62.8835 44.7415C64.2405 43.3844 65.0029 41.5438 65.0029 39.6246V37.7686C65.0029 35.848 64.24 34.0061 62.882 32.6481C61.5239 31.2901 59.6821 30.5271 57.7615 30.5271V30.5373Z" fill="#5E6175"/>
  <g style="mix-blend-mode:multiply">
    <path d="M46.8027 67.7136C46.8027 58.0449 46.8281 58.3546 46.8027 58.3546C47.0858 58.3547 47.3602 58.4526 47.5795 58.6316C47.7988 58.8107 47.9495 59.0599 48.0063 59.3373L49.7227 67.7162L46.8027 67.7136Z" fill="#5E6175"/>
  </g>
  <g style="mix-blend-mode:multiply">
    <path d="M68.6523 67.7136C68.6523 58.0449 68.627 58.3546 68.6523 58.3546C68.3693 58.3547 68.0949 58.4526 67.8756 58.6316C67.6563 58.8107 67.5056 59.0599 67.4488 59.3373L65.7324 67.7162L68.6523 67.7136Z" fill="#5E6175"/>
  </g>
  <path d="M74.1465 67.7164H72.623V58.0273C72.6197 55.4694 71.6021 53.0173 69.7934 51.2086C67.9847 49.3999 65.5325 48.3823 62.9746 48.3789H52.5645C50.0066 48.3823 47.5544 49.3999 45.7457 51.2086C43.937 53.0173 42.9194 55.4694 42.916 58.0273V67.724H41.3926V58.0273C41.3966 55.0656 42.5749 52.2263 44.6692 50.1321C46.7635 48.0378 49.6027 46.8595 52.5645 46.8555H62.9746C65.9363 46.8595 68.7756 48.0378 70.8699 50.1321C72.9641 52.2263 74.1425 55.0656 74.1465 58.0273V67.7164Z" fill="#5E6175"/>
  <path d="M94.6867 72.4517H20.8381C19.7734 72.451 18.7525 72.028 17.9994 71.2754C17.2463 70.5228 16.8226 69.5021 16.8213 68.4375V20.9316C16.8226 19.8667 17.2463 18.8458 17.9993 18.0928C18.7523 17.3398 19.7732 16.9161 20.8381 16.9148H94.6867C95.7516 16.9161 96.7725 17.3398 97.5255 18.0928C98.2785 18.8458 98.7022 19.8667 98.7035 20.9316V68.4375C98.7022 69.5021 98.2785 70.5228 97.5254 71.2754C96.7723 72.028 95.7514 72.451 94.6867 72.4517ZM20.8381 18.4382C20.1772 18.4396 19.5438 18.7027 19.0765 19.17C18.6092 19.6373 18.3461 20.2707 18.3447 20.9316V68.4375C18.3461 69.0981 18.6093 69.7312 19.0767 70.1981C19.544 70.665 20.1775 70.9276 20.8381 70.9283H94.6867C95.3476 70.9283 95.9814 70.6659 96.4489 70.1989C96.9164 69.7318 97.1794 69.0983 97.1801 68.4375V20.9316C97.1794 20.2705 96.9165 19.6367 96.449 19.1693C95.9816 18.7018 95.3478 18.4389 94.6867 18.4382H20.8381Z" fill="#5E6175"/>
  <rect x="26" y="2" width="32" height="21" rx="2" fill="#131822"/>
  <path d="M45.0031 30.8949L39.148 24.466H29.6189C28.3581 24.4647 27.1492 23.9632 26.2577 23.0716C25.3661 22.1801 24.8646 20.9712 24.8633 19.7104V5.65156C24.8653 4.39113 25.3671 3.18295 26.2586 2.29193C27.1501 1.4009 28.3585 0.89978 29.6189 0.898438H54.6617C55.9226 0.899782 57.1314 1.40126 58.023 2.29282C58.9146 3.18439 59.416 4.39323 59.4174 5.6541V19.7129C59.416 20.9738 58.9146 22.1826 58.023 23.0742C57.1314 23.9657 55.9226 24.4672 54.6617 24.4686H45.0133L45.0031 30.8949ZM29.6189 2.42188C28.7619 2.42255 27.9402 2.7633 27.3342 3.36931C26.7281 3.97533 26.3874 4.79707 26.3867 5.6541V19.7129C26.3874 20.5699 26.7281 21.3917 27.3342 21.9977C27.9402 22.6037 28.7619 22.9444 29.6189 22.9451H39.8209L43.4797 26.9619V22.9426H54.6516C55.5086 22.9419 56.3303 22.6012 56.9364 21.9951C57.5424 21.3891 57.8831 20.5674 57.8838 19.7104V5.65156C57.8825 4.79672 57.5428 3.97717 56.9391 3.37199C56.3353 2.76682 55.5166 2.42523 54.6617 2.42188H29.6189Z" fill="#5E6175"/>
  <path d="M42.1412 14.9728C43.2644 14.9728 44.175 14.0623 44.175 12.9391C44.175 11.8158 43.2644 10.9053 42.1412 10.9053C41.018 10.9053 40.1074 11.8158 40.1074 12.9391C40.1074 14.0623 41.018 14.9728 42.1412 14.9728Z" fill="#A9AFC4"/>
  <path d="M50.2213 14.9728C51.3445 14.9728 52.2551 14.0623 52.2551 12.9391C52.2551 11.8158 51.3445 10.9053 50.2213 10.9053C49.0981 10.9053 48.1875 11.8158 48.1875 12.9391C48.1875 14.0623 49.0981 14.9728 50.2213 14.9728Z" fill="#A9AFC4"/>
  <path d="M34.0631 14.9728C35.1863 14.9728 36.0969 14.0623 36.0969 12.9391C36.0969 11.8158 35.1863 10.9053 34.0631 10.9053C32.9399 10.9053 32.0293 11.8158 32.0293 12.9391C32.0293 14.0623 32.9399 14.9728 34.0631 14.9728Z" fill="#A9AFC4"/>
  <path d="M99.5586 13.7197L102.731 10.5478L103.808 11.6248L100.636 14.7968L99.5586 13.7197Z" fill="#5E6175"/>
  <path d="M95.6523 7.41406H97.1758V11.9006H95.6523V7.41406Z" fill="#5E6175"/>
  <path d="M102.586 16.9153H107.072V18.4387H102.586V16.9153Z" fill="#5E6175"/>
  <path d="M6.99023 77.5811H111.008V79.1045H6.99023V77.5811Z" fill="#5E6175"/>
  <path d="M10.9535 63.8676C10.5856 63.8654 10.2221 63.7879 9.88534 63.6399C9.54856 63.4919 9.24567 63.2765 8.99534 63.0069C8.745 62.7373 8.55253 62.4194 8.42978 62.0726C8.30703 61.7258 8.25661 61.3575 8.28163 60.9905C8.30664 60.6235 8.40655 60.2655 8.57522 59.9386C8.74388 59.6116 8.97771 59.3227 9.2623 59.0896C9.54689 58.8565 9.87621 58.6842 10.2299 58.5832C10.5837 58.4822 10.9544 58.4548 11.3191 58.5025C11.9988 58.5915 12.619 58.9363 13.0534 59.4666C13.4878 59.997 13.7037 60.6729 13.657 61.3568C13.6104 62.0408 13.3049 62.6812 12.8025 63.1477C12.3002 63.6142 11.639 63.8716 10.9535 63.8676ZM10.9535 60.0006C10.7286 60.0002 10.5084 60.0646 10.3192 60.186C10.1299 60.3075 9.97967 60.4809 9.88639 60.6855C9.79311 60.8902 9.76074 61.1173 9.79315 61.3398C9.82557 61.5624 9.9214 61.7708 10.0692 61.9403C10.217 62.1098 10.4104 62.2332 10.6265 62.2956C10.8425 62.358 11.0719 62.3569 11.2874 62.2924C11.5028 62.2278 11.695 62.1026 11.8412 61.9317C11.9873 61.7607 12.0811 61.5513 12.1113 61.3285C12.1329 61.1633 12.1191 60.9955 12.0709 60.836C12.0227 60.6765 11.9412 60.5291 11.8317 60.4036C11.7222 60.278 11.5873 60.1772 11.4359 60.1077C11.2845 60.0382 11.1201 60.0017 10.9535 60.0006Z" fill="#5E6175"/>
  <path d="M2.48367 72.4522C2.19474 72.4528 1.90876 72.394 1.64356 72.2793C1.37835 72.1647 1.13959 71.9966 0.94215 71.7857C0.744707 71.5747 0.592809 71.3254 0.495913 71.0532C0.399018 70.781 0.359201 70.4918 0.378942 70.2035C0.398684 69.9152 0.477561 69.6341 0.610661 69.3777C0.74376 69.1212 0.928233 68.8949 1.15259 68.7129C1.37695 68.5308 1.63639 68.3969 1.91475 68.3194C2.19311 68.242 2.48444 68.2227 2.77058 68.2627C3.29798 68.3365 3.7778 68.6075 4.11335 69.021C4.44891 69.4345 4.61526 69.9598 4.57887 70.4911C4.54249 71.0224 4.30607 71.5202 3.91728 71.8841C3.52848 72.248 3.0162 72.451 2.48367 72.4522ZM2.01902 70.7002C2.07671 70.7765 2.15233 70.8374 2.23916 70.8774C2.32599 70.9175 2.42137 70.9355 2.51683 70.9299C2.61229 70.9243 2.7049 70.8952 2.78644 70.8453C2.86799 70.7953 2.93595 70.726 2.98432 70.6435C3.03268 70.561 3.05996 70.4679 3.06372 70.3723C3.06749 70.2768 3.04762 70.1818 3.0059 70.0957C2.96417 70.0097 2.90186 69.9353 2.8245 69.8791C2.74714 69.8228 2.65711 69.7866 2.56238 69.7735C2.44848 69.7577 2.33247 69.7761 2.22901 69.8263C2.12555 69.8764 2.03929 69.9562 1.98114 70.0554C1.92298 70.1546 1.89554 70.2688 1.90228 70.3835C1.90903 70.4983 1.94965 70.6085 2.01902 70.7002Z" fill="#5E6175"/>
</svg>