<svg xmlns="http://www.w3.org/2000/svg" width="20" height="20" viewBox="0 0 20 20" fill="none">
  <g clip-path="url(#clip0_6449_11870)">
    <path d="M10 15.8313C9.99996 16.1288 9.92026 16.4208 9.76922 16.6771C9.61817 16.9334 9.40128 17.1445 9.14107 17.2887C8.88086 17.4328 8.58681 17.5047 8.28945 17.4968C7.99209 17.4889 7.70225 17.4016 7.45004 17.2438L4.11671 15.1605C3.87691 15.0108 3.67917 14.8025 3.54213 14.5552C3.40508 14.308 3.33324 14.0299 3.33337 13.7472V4.16919C3.33341 3.8717 3.41307 3.57964 3.56409 3.32333C3.7151 3.06701 3.93196 2.85579 4.19216 2.71157C4.45236 2.56735 4.74641 2.49541 5.0438 2.5032C5.34119 2.51098 5.63108 2.59822 5.88337 2.75586L9.21671 4.8392C9.45651 4.98892 9.65424 5.19722 9.79129 5.44448C9.92833 5.69175 10.0002 5.96983 10 6.25253V15.8313Z" stroke="#F14056" stroke-linecap="round" stroke-linejoin="round"/>
    <path d="M16.6666 7.95251L14.2383 10.3808" stroke="#F14056" stroke-linecap="round" stroke-linejoin="round"/>
    <path d="M16.6666 10.3808L14.2383 7.95251" stroke="#F14056" stroke-linecap="round" stroke-linejoin="round"/>
    <path d="M15.8333 5V4.16667C15.8334 3.94778 15.7903 3.73103 15.7066 3.52879C15.6229 3.32655 15.5001 3.1428 15.3453 2.98802C15.1905 2.83324 15.0068 2.71048 14.8045 2.62674C14.6023 2.54301 14.3856 2.49994 14.1667 2.5H5" stroke="#F14056" stroke-linecap="round" stroke-linejoin="round"/>
    <path d="M10 15.8333H14.1667C14.3856 15.8334 14.6023 15.7903 14.8045 15.7066C15.0068 15.6228 15.1905 15.5001 15.3453 15.3453C15.5001 15.1905 15.6229 15.0068 15.7066 14.8045C15.7903 14.6023 15.8334 14.3855 15.8333 14.1666V13.3333" stroke="#F14056" stroke-linecap="round" stroke-linejoin="round"/>
  </g>
  <defs>
    <clipPath id="clip0_6449_11870">
      <rect width="20" height="20" fill="white"/>
    </clipPath>
  </defs>
</svg>
