<svg width="10" height="10" viewBox="0 0 10 10" xmlns="http://www.w3.org/2000/svg">
  <path d="M8.12498 5.83331C8.12498 6.66211 7.79574 7.45696 7.20969 8.04302C6.62364 8.62907 5.82878 8.95831 4.99998 8.95831C4.17118 8.95831 3.37632 8.62907 2.79027 8.04302C2.20422 7.45696 1.87498 6.66211 1.87498 5.83331C1.85544 5.4191 1.92516 5.00554 2.07944 4.62064C2.23371 4.23574 2.46893 3.88851 2.76915 3.60247C2.89415 3.47956 3.03123 3.35622 3.1754 3.22747C3.7654 2.70581 4.37498 2.16664 4.37498 1.24997C4.375 1.21229 4.38524 1.17532 4.40461 1.14299C4.42398 1.11067 4.45176 1.0842 4.48498 1.06642C4.5182 1.04863 4.55563 1.04019 4.59327 1.04199C4.63091 1.04379 4.66736 1.05576 4.69873 1.07664C5.36853 1.55216 5.85091 2.24699 6.0623 3.04075C6.2737 3.83452 6.2008 4.67722 5.85623 5.42289C6.20284 5.23877 6.48781 4.95699 6.67581 4.61247C6.81065 4.34519 6.87897 4.04931 6.87498 3.74997C6.87499 3.70865 6.88729 3.66826 6.91031 3.63394C6.93333 3.59963 6.96604 3.57293 7.00427 3.55725C7.04251 3.54158 7.08454 3.53762 7.12503 3.5459C7.16552 3.55417 7.20263 3.5743 7.23165 3.60372C7.80823 4.20234 8.1287 5.00218 8.12498 5.83331Z" stroke-width="0.7" stroke="currentColor" fill="transparent" />
</svg>
