<svg width="14" height="14" viewBox="0 0 14 14" fill="none" xmlns="http://www.w3.org/2000/svg">
<g clip-path="url(#clip0_16017_3797)">
<path d="M3.79163 8.75004L4.46596 9.08721C4.78986 9.24915 5.14702 9.33343 5.50914 9.33337H9.33329C9.56536 9.33337 9.78792 9.24119 9.95201 9.07709C10.1161 8.913 10.2083 8.69044 10.2083 8.45837C10.2083 8.22631 10.1161 8.00375 9.95201 7.83966C9.78792 7.67556 9.56536 7.58337 9.33329 7.58337H6.92763" stroke="currentColor" stroke-linecap="round" stroke-linejoin="round"/>
<path d="M7.00004 12.5416C10.0606 12.5416 12.5417 10.0606 12.5417 6.99998C12.5417 3.9394 10.0606 1.45831 7.00004 1.45831C3.93946 1.45831 1.45837 3.9394 1.45837 6.99998C1.45837 10.0606 3.93946 12.5416 7.00004 12.5416Z" stroke="currentColor" stroke-linecap="round" stroke-linejoin="round"/>
<path d="M4.08337 4.66663H5.49116C5.74359 4.66663 5.98922 4.7485 6.19116 4.89996L7.49624 5.87876C7.60477 5.96016 7.69455 6.06394 7.75949 6.18306C7.82443 6.30218 7.86302 6.43386 7.87264 6.56919C7.88226 6.70452 7.86268 6.84034 7.81524 6.96745C7.7678 7.09456 7.6936 7.20999 7.59767 7.30592C7.43648 7.46711 7.22257 7.56474 6.99519 7.5809C6.76782 7.59706 6.54225 7.53065 6.35989 7.39388L5.54171 6.78025" stroke="currentColor" stroke-linecap="round" stroke-linejoin="round"/>
</g>
<defs>
<clipPath id="clip0_16017_3797">
<rect width="14" height="14" fill="white"/>
</clipPath>
</defs>
</svg>
