<svg width="269" height="124" viewBox="0 0 269 124" fill="none" xmlns="http://www.w3.org/2000/svg">
	<path d="M206.532 20C203.511 28.4976 196.252 26.8846 193 25.016C196.36 29.3298 196.459 28.9678 196.58 33.8439C206.902 35.0242 211.161 29.2214 212 26.1725L206.532 20Z" fill="#FF00C7" />
	<path d="M17.971 93C15.7449 99.0697 10.3961 97.9176 8 96.5828C10.4761 99.6641 10.5488 99.4056 10.6377 102.889C18.2435 103.732 21.3816 99.5867 22 97.4089L17.971 93Z" fill="#FF00C7" />
	<path d="M76 21C65.2349 22.4571 63.5689 31.4563 64.0815 35.7738L70.6175 38C69.541 27.8 73.7573 22.4167 76 21Z" fill="#FF00C7" />
	<path d="M63.25 104.212C57.25 108.868 54.4167 105.344 53.75 103L51 108.577C53.4 116.723 60.6667 117.467 64 116.82C60.8 111.971 62.1667 106.394 63.25 104.212Z" fill="#78EFD9" />
	<path d="M269 41.7073C263.052 40.4585 258.812 33.3821 257.435 30L250 33.5122C252.313 41.3171 259.775 45.0894 263.217 46L269 41.7073Z" fill="#78EFD9" />
	<path d="M35 32.7805C30.9304 31.8439 28.029 26.5366 27.087 24L22 26.6341C23.5826 32.4878 28.6884 35.3171 31.0435 36L35 32.7805Z" fill="#78EFD9" />
	<path d="M3.89692 55.2511L4.31201 48.0653L20.1804 57.5227L19.6881 64.9347L3.89692 55.2511Z" fill="#00A3FF" />
	<path d="M242 81.6061L247.652 69L252 74.3333C249.913 81.3152 246.783 84.3535 245.478 85L242 81.6061Z" fill="#00A3FF" />
	<path d="M128 11.8182L134.217 0L139 5C136.704 11.5455 133.261 14.3939 131.826 15L128 11.8182Z" fill="#00A3FF" />
	<path d="M206.022 122.5C209.649 111.3 205.519 106.5 203 105.5L210.556 105C214.586 113 212.739 121 211.312 124L206.022 122.5Z" fill="#FF00C7" />
</svg>
