<svg width="24" height="24" viewBox="0 0 24 24" fill="none" xmlns="http://www.w3.org/2000/svg">
<g clip-path="url(#clip0_5743_111400)">
<path fill-rule="evenodd" clip-rule="evenodd" d="M19.0711 4.92894C22.9763 8.83419 22.9763 15.1658 19.0711 19.0711C15.1658 22.9763 8.83416 22.9763 4.92894 19.0711C1.02369 15.1658 1.02369 8.83416 4.92894 4.92894C8.83418 1.02369 15.1658 1.02369 19.0711 4.92894ZM6.94525 16.2482C7.63832 15.6076 8.54791 15.25 9.49333 15.25H14.5073C15.4522 15.25 16.362 15.6073 17.0545 16.2493L17.0554 16.2502L17.1177 16.3076L17.1189 16.3087C17.5524 16.7102 17.8917 17.2033 18.1103 17.7539L18.1104 17.7543L18.4601 18.6325C18.6134 19.0174 18.4256 19.4536 18.0408 19.6068C17.6559 19.76 17.2198 19.5723 17.0665 19.1875L16.7165 18.3084L16.7162 18.3077C16.5809 17.9667 16.3705 17.6602 16.1003 17.4098L16.0997 17.4093L16.037 17.3514L16.0352 17.3498C15.6198 16.9644 15.074 16.75 14.5073 16.75H9.49333C8.92756 16.75 8.38192 16.9638 7.96521 17.3481L7.90328 17.4062L7.89996 17.4093L7.89995 17.4093C7.63026 17.659 7.41993 17.9658 7.283 18.3088L7.2829 18.309L6.93312 19.1874C6.77989 19.5723 6.34371 19.76 5.95888 19.6068C5.57405 19.4536 5.3863 19.0174 5.53953 18.6326L5.88953 17.7536L5.88976 17.753C6.10853 17.2048 6.44555 16.7122 6.87895 16.3104L6.94138 16.2518L6.94523 16.2482L6.94525 16.2482ZM10.0555 7.97746C11.1294 6.90351 12.8706 6.90351 13.9445 7.97746C15.0185 9.0514 15.0185 10.7926 13.9445 11.8665C12.8706 12.9405 11.1294 12.9405 10.0555 11.8665C8.98151 10.7926 8.98151 9.0514 10.0555 7.97746ZM15.0052 6.9168C13.3455 5.25706 10.6545 5.25706 8.9948 6.9168C7.33507 8.57653 7.33507 11.2675 8.9948 12.9272C10.6545 14.5869 13.3455 14.5869 15.0052 12.9272C16.6649 11.2675 16.6649 8.57653 15.0052 6.9168Z" fill="white" fill-opacity="0.96"/>
</g>
<defs>
<clipPath id="clip0_5743_111400">
<rect width="24" height="24" fill="white"/>
</clipPath>
</defs>
</svg>
