<svg width="16" height="16" viewBox="0 0 16 16" fill="none" xmlns="http://www.w3.org/2000/svg">
<g id="shine-star_17307518 1">
<path id="Vector" d="M12.1766 8.52884C12.6111 8.69028 12.6111 9.30478 12.1766 9.46622L9.58293 10.43C8.97793 10.6575 8.50293 11.13 8.27793 11.735L7.31419 14.3319C7.15286 14.7666 6.538 14.7666 6.37667 14.3319L5.41293 11.735C5.18793 11.13 4.71293 10.655 4.10793 10.43L1.51421 9.46622C1.07976 9.30478 1.07976 8.69028 1.51421 8.52884L4.10793 7.56503C4.71293 7.34003 5.18793 6.86503 5.41293 6.26003L6.37674 3.66631C6.53818 3.23186 7.15268 3.23186 7.31412 3.66631L8.27793 6.26003C8.50293 6.86503 8.97793 7.34003 9.58293 7.56503L12.1766 8.52884Z" fill="white"/>
<path id="Vector_2" d="M14.4885 4.31465C14.9231 4.47577 14.9235 5.09034 14.4891 5.25206L14.1455 5.37999C14.1055 5.39499 14.073 5.42999 14.0555 5.46999L13.9283 5.81301C13.7672 6.24762 13.1526 6.24804 12.9909 5.81365L12.863 5.46999C12.848 5.42999 12.818 5.39749 12.773 5.37999L12.4293 5.25206C11.9949 5.09034 11.9953 4.47577 12.43 4.31465L12.773 4.18749C12.8155 4.17249 12.8455 4.13749 12.863 4.09749L12.9909 3.75384C13.1526 3.31944 13.7672 3.31986 13.9283 3.75448L14.0555 4.09749C14.0705 4.13749 14.1055 4.16999 14.1455 4.18749L14.4885 4.31465Z" fill="white"/>
<path id="Vector_3" d="M10.8186 1.43327C10.9923 1.49768 10.9927 1.74325 10.8191 1.80813L10.4998 1.92753C10.4573 1.94253 10.4273 1.97753 10.4098 2.01753L10.2904 2.33689C10.2255 2.51043 9.97992 2.5101 9.91551 2.33639L9.79727 2.01753C9.78227 1.97753 9.74727 1.94503 9.70477 1.92753L9.38618 1.80806C9.2129 1.74308 9.21323 1.49786 9.38668 1.43334L9.70477 1.31503C9.74727 1.30003 9.78227 1.26503 9.79727 1.22253L9.91558 0.904443C9.98009 0.730989 10.2253 0.730661 10.2903 0.903942L10.4098 1.22253C10.4248 1.26503 10.4548 1.30003 10.4998 1.31503L10.8186 1.43327Z" fill="white"/>
</g>
</svg>
