<svg width="25" height="24" viewBox="0 0 25 24" fill="none" xmlns="http://www.w3.org/2000/svg">
    <path
        d="M7.1218 22V14.1212M7.1218 5.0303V2M18.6369 22V18.9697M18.6369 9.87877V2M8.04931 14.1212H6.19302C5.20002 14.1212 4.39453 13.3187 4.39453 12.3284V6.82195C4.39453 5.83155 5.20002 5.0303 6.19302 5.0303H8.04931C9.0435 5.0303 9.84899 5.83155 9.84899 6.82195V12.3284C9.84899 13.3187 9.0435 14.1212 8.04931 14.1212ZM19.5644 18.9697H17.7082C16.7151 18.9697 15.9097 18.1672 15.9097 17.1769V11.6705C15.9097 10.68 16.7151 9.87877 17.7082 9.87877H19.5644C20.5586 9.87877 21.3641 10.68 21.3641 11.6705V17.1769C21.3641 18.1672 20.5586 18.9697 19.5644 18.9697Z"
        stroke="white" stroke-width="2" stroke-linecap="square" />
</svg>