<svg width="13" height="12" viewBox="0 0 13 12" fill="none" xmlns="http://www.w3.org/2000/svg">
	<path d="M6.87988 7.06836V8.15186" stroke="white" stroke-width="1.125" stroke-linecap="round" stroke-linejoin="round" />
	<path d="M9.10328 4.72905V3.68106C9.08818 2.45256 8.07959 1.46906 6.85149 1.48456C5.64829 1.49956 4.67524 2.46856 4.65479 3.67106V4.72905" stroke="white" stroke-width="1.125" stroke-linecap="round" stroke-linejoin="round" />
	<path d="M5.53127 10.5065H8.22722C9.02487 10.5065 9.42372 10.5065 9.73157 10.3585C10.0389 10.211 10.2868 9.96297 10.4344 9.65597C10.5822 9.34797 10.5822 8.94897 10.5822 8.15147V7.08547C10.5822 6.28797 10.5822 5.88897 10.4344 5.58147C10.2868 5.27397 10.0389 5.02597 9.73157 4.87847C9.42372 4.73047 9.02487 4.73047 8.22722 4.73047H5.53127C4.73362 4.73047 4.33477 4.73047 4.02697 4.87847C3.71957 5.02597 3.47167 5.27397 3.32407 5.58147C3.17627 5.88897 3.17627 6.28797 3.17627 7.08547V8.15147C3.17627 8.94897 3.17627 9.34797 3.32407 9.65597C3.47167 9.96297 3.71957 10.211 4.02697 10.3585C4.33477 10.5065 4.73362 10.5065 5.53127 10.5065Z" stroke="white" stroke-width="1.125" stroke-linecap="round" stroke-linejoin="round" />
</svg>
