<svg width="81" height="80" viewBox="0 0 81 80" fill="none" xmlns="http://www.w3.org/2000/svg">
	<circle cx="40.2949" cy="40" r="40" fill="white" fill-opacity="0.1" />
	<path d="M30.151 41.2838H23.4693C22.7588 41.2838 22.1667 40.7171 22.1667 40.0005C22.1667 39.3005 22.7588 38.7172 23.4693 38.7172H30.151L30.1515 30.7507C30.1515 26.6673 33.5936 23.334 37.8102 23.334H46.2091C50.4085 23.334 53.8334 26.6673 53.8334 30.734V49.2673C53.8334 53.3507 50.4085 56.6673 46.1746 56.6673H37.793C33.5936 56.6673 30.1515 53.3507 30.1515 49.284L30.151 41.2838L40.8221 41.284L38.0684 43.9507C37.5521 44.4507 37.5521 45.2673 38.0684 45.7673C38.3266 46.0173 38.6708 46.134 39.015 46.134C39.342 46.134 39.6862 46.0173 39.9444 45.7673L44.9699 40.9173C45.2281 40.684 45.3657 40.3507 45.3657 40.0007C45.3657 39.6673 45.2281 39.334 44.9699 39.1007L39.9444 34.2507C39.428 33.7507 38.5847 33.7507 38.0684 34.2507C37.5521 34.7507 37.5521 35.5673 38.0684 36.0673L40.8221 38.7173L30.151 38.7172V41.2838Z" fill="white" />
</svg>
