<svg width="115" height="114" viewBox="0 0 115 114" fill="none" xmlns="http://www.w3.org/2000/svg">
	<circle opacity="0.05" cx="57.6748" cy="57" r="57" fill="url(#paint0_linear_1429_8506)" />
	<circle cx="57.6736" cy="57.0027" r="38.7976" fill="url(#paint1_angular_1429_8506)" />
	<path d="M57.6736 60.9395V64.94" stroke="white" stroke-width="1.80402" stroke-linecap="round" stroke-linejoin="round" />
	<path d="M65.8838 52.3043V48.4349C65.8281 43.899 62.1041 40.2677 57.5697 40.3249C53.1272 40.3803 49.5345 43.958 49.459 48.3979V52.3043" stroke="white" stroke-width="1.80402" stroke-linecap="round" stroke-linejoin="round" />
	<path d="M52.6947 73.6368H62.6487C65.5938 73.6368 67.0665 73.6368 68.2031 73.0904C69.3379 72.5458 70.2532 71.6301 70.7982 70.4966C71.3439 69.3594 71.3439 67.8862 71.3439 64.9416V61.0057C71.3439 58.0612 71.3439 56.588 70.7982 55.4526C70.2532 54.3173 69.3379 53.4016 68.2031 52.857C67.0665 52.3106 65.5938 52.3105 62.6487 52.3105H52.6947C49.7496 52.3105 48.277 52.3106 47.1405 52.857C46.0055 53.4016 45.0902 54.3173 44.5452 55.4526C43.9995 56.588 43.9995 58.0612 43.9995 61.0057V64.9416C43.9995 67.8862 43.9995 69.3594 44.5452 70.4966C45.0902 71.6301 46.0055 72.5458 47.1405 73.0904C48.277 73.6368 49.7496 73.6368 52.6947 73.6368Z" stroke="white" stroke-width="1.80402" stroke-linecap="round" stroke-linejoin="round" />
	<defs>
		<linearGradient id="paint0_linear_1429_8506" x1="57.6748" y1="0" x2="57.6748" y2="114" gradientUnits="userSpaceOnUse">
			<stop stop-color="white" />
			<stop offset="1" stop-color="white" stop-opacity="0" />
		</linearGradient>
		<radialGradient id="paint1_angular_1429_8506" cx="0" cy="0" r="1" gradientUnits="userSpaceOnUse" gradientTransform="translate(56.639 57.0027) rotate(-90.5494) scale(43.0132 39.8331)">
			<stop stop-color="#00A3FF" />
			<stop offset="1" stop-color="#FF00C7" />
		</radialGradient>
	</defs>
</svg>
