<svg width="25" height="25" viewBox="0 0 25 25" fill="none" xmlns="http://www.w3.org/2000/svg">
	<path fill-rule="evenodd" clip-rule="evenodd" d="M6.31299 10.3047C6.31299 6.67756 9.25325 3.73828 12.8794 3.73828C16.5056 3.73828 19.4459 6.67756 19.4459 10.3047L19.4469 11.6231C19.4469 12.4034 19.6181 13.173 19.9508 13.8784L20.4169 14.8688C21.1291 16.3827 20.0248 18.1234 18.3513 18.1234H7.40756C5.73409 18.1234 4.62979 16.3827 5.34199 14.8688L5.80803 13.8784C6.13981 13.173 6.31202 12.4034 6.31202 11.6231L6.31299 10.3047Z" stroke="white" stroke-width="1.5" stroke-linecap="round" stroke-linejoin="round" />
	<path d="M9.78027 18.6387C9.78027 20.3501 11.1677 21.7385 12.8791 21.7385C14.5915 21.7385 15.9789 20.3501 15.9789 18.6387" stroke="white" stroke-width="1.5" stroke-linecap="round" stroke-linejoin="round" />
</svg>
