<svg width="18" height="20" viewBox="0 0 18 20" fill="none" xmlns="http://www.w3.org/2000/svg">
	<path fill-rule="evenodd" clip-rule="evenodd" d="M11.2288 15.5133C11.2288 16.8083 10.1748 17.8633 8.87878 17.8633C7.58378 17.8633 6.52974 16.8083 6.52974 15.5133C6.52974 15.5073 6.52674 15.5033 6.52674 15.4973H11.2318C11.2318 15.5033 11.2288 15.5073 11.2288 15.5133ZM16.8698 11.5303L16.4038 10.5403C16.1048 9.90628 15.9468 9.19928 15.9468 8.49728L15.9458 7.17928C15.9458 3.28328 12.7758 0.113281 8.87978 0.113281C4.98374 0.113281 1.81374 3.28328 1.81374 7.17928L1.81274 8.49728C1.81274 9.19828 1.65474 9.90428 1.35574 10.5403L0.890744 11.5303C0.482744 12.3963 0.544744 13.3973 1.05774 14.2053C1.57074 15.0143 2.44974 15.4973 3.40774 15.4973H5.03274C5.03274 15.5033 5.02974 15.5073 5.02974 15.5133C5.02974 17.6363 6.75674 19.3633 8.87878 19.3633C11.0018 19.3633 12.7288 17.6363 12.7288 15.5133C12.7288 15.5073 12.7258 15.5033 12.7258 15.4973H14.3518C15.3098 15.4973 16.1878 15.0143 16.7018 14.2053C17.2148 13.3973 17.2768 12.3973 16.8698 11.5303Z" fill="white" />
</svg>
