<svg width="81" height="80" viewBox="0 0 81 80" fill="none" xmlns="http://www.w3.org/2000/svg">
	<circle cx="40.4248" cy="40" r="40" fill="white" fill-opacity="0.1" />
	<g clip-path="url(#clip0_1429_8370)">
		<path fill-rule="evenodd" clip-rule="evenodd" d="M64.4248 40C64.4248 53.2548 53.6796 64 40.4248 64C27.17 64 16.4248 53.2548 16.4248 40C16.4248 26.7452 27.17 16 40.4248 16C53.6796 16 64.4248 26.7452 64.4248 40ZM41.2849 33.7179C38.9505 34.6888 34.2851 36.6984 27.2886 39.7466C26.1525 40.1984 25.5573 40.6404 25.5031 41.0726C25.4116 41.803 26.3262 42.0906 27.5717 42.4822C27.7412 42.5355 27.9167 42.5907 28.0967 42.6492C29.3221 43.0475 30.9705 43.5135 31.8274 43.5321C32.6047 43.5489 33.4723 43.2284 34.4301 42.5707C40.9671 38.158 44.3416 35.9276 44.5534 35.8795C44.7029 35.8456 44.91 35.803 45.0503 35.9277C45.1907 36.0524 45.1769 36.2886 45.162 36.352C45.0714 36.7383 41.4811 40.0762 39.623 41.8036C39.0438 42.3421 38.633 42.724 38.549 42.8113C38.3608 43.0067 38.1691 43.1915 37.9848 43.3692C36.8463 44.4667 35.9926 45.2896 38.032 46.6336C39.0121 47.2794 39.7963 47.8135 40.5787 48.3463C41.4332 48.9282 42.2854 49.5085 43.388 50.2313C43.669 50.4155 43.9373 50.6068 44.1986 50.7931C45.193 51.5019 46.0863 52.1388 47.19 52.0373C47.8313 51.9782 48.4937 51.3752 48.8302 49.5767C49.6252 45.3263 51.1881 36.1169 51.5492 32.3219C51.5809 31.9895 51.5411 31.5639 51.5091 31.3771C51.4771 31.1904 51.4103 30.9242 51.1675 30.7272C50.88 30.4939 50.4361 30.4447 50.2375 30.4482C49.3349 30.4641 47.9499 30.9456 41.2849 33.7179Z" fill="white" />
	</g>
	<defs>
		<clipPath id="clip0_1429_8370">
			<rect width="48" height="48" fill="white" transform="translate(16.4248 16)" />
		</clipPath>
	</defs>
</svg>
