<svg width="24" height="20" viewBox="0 0 24 20" fill="none" xmlns="http://www.w3.org/2000/svg">
	<path d="M5.21338 5.83398H9.54671" stroke="white" stroke-width="1.5" stroke-linecap="round" stroke-linejoin="round" />
	<path d="M21.2825 6.91602H18.4636C16.5299 6.91602 14.9634 8.37093 14.9634 10.166C14.9634 11.9611 16.531 13.416 18.4625 13.416H21.2825C21.3735 13.416 21.4179 13.416 21.4558 13.4138C22.0408 13.3781 22.5066 12.9458 22.5445 12.4031C22.5467 12.3684 22.5467 12.3262 22.5467 12.2428V8.08927C22.5467 8.00585 22.5467 7.9636 22.5445 7.92893C22.5055 7.38618 22.0408 6.95393 21.4558 6.91818C21.419 6.91602 21.3735 6.91602 21.2825 6.91602Z" stroke="white" stroke-width="1.5" />
	<path d="M21.4253 6.91667C21.3408 4.88867 21.07 3.645 20.1936 2.76967C19.0366 1.61169 18.4137 1.50896 15.2139 1.5L6.92927 1.50194C3.95696 1.51686 3.27193 1.64633 2.14955 2.76967C0.879883 4.03825 0.879883 6.08142 0.879883 10.1667C0.879883 14.2519 0.879883 16.2951 2.14955 17.5637C3.41813 18.8333 4.12801 18.8333 8.21326 18.8333H14.2133C18.2985 18.8333 18.925 18.8333 20.1936 17.5637C21.07 16.6883 21.3419 15.4447 21.4253 13.4167" stroke="white" stroke-width="1.5" stroke-linecap="round" stroke-linejoin="round" />
	<path d="M18.2036 10.166H18.2136" stroke="white" stroke-width="2" stroke-linecap="round" stroke-linejoin="round" />
</svg>
