<svg width="25" height="25" viewBox="0 0 25 25" fill="none" xmlns="http://www.w3.org/2000/svg">
<mask id="mask0_65_5661" style="mask-type:alpha" maskUnits="userSpaceOnUse" x="0" y="0" width="25" height="25">
<rect x="0.713867" y="0.96582" width="24" height="24" fill="#D9D9D9"/>
</mask>
<g mask="url(#mask0_65_5661)">
<path d="M7.71387 7.96582L7.71387 9.96582L16.7139 9.96582L16.7139 7.96582L7.71387 7.96582ZM7.71387 15.9658L7.71387 17.9658L17.7139 17.9658L17.7139 15.9658L7.71387 15.9658ZM7.71387 11.9658L7.71387 13.9658L10.7139 13.9658L10.7139 11.9658L7.71387 11.9658ZM12.7139 11.9658L12.7139 13.9658L14.7139 13.9658L14.7139 11.9658L12.7139 11.9658ZM3.71387 5.96582C3.71387 5.41582 3.90953 4.94482 4.30087 4.55282C4.69287 4.16149 5.16387 3.96582 5.71387 3.96582L19.7139 3.96582C20.2639 3.96582 20.7349 4.16149 21.1269 4.55282C21.5182 4.94482 21.7139 5.41582 21.7139 5.96582L21.7139 19.9658C21.7139 20.5158 21.5182 20.9868 21.1269 21.3788C20.7349 21.7702 20.2639 21.9658 19.7139 21.9658L5.71387 21.9658C5.16387 21.9658 4.69287 21.7702 4.30087 21.3788C3.90953 20.9868 3.71387 20.5158 3.71387 19.9658L3.71387 5.96582ZM5.71387 5.96582L5.71387 19.9658L19.7139 19.9658L19.7139 5.96582L5.71387 5.96582Z" fill="#D3D3D4"/>
</g>
</svg>
