<svg width="25" height="25" viewBox="0 0 25 25" fill="none" xmlns="http://www.w3.org/2000/svg">
<mask id="mask0_65_5673" style="mask-type:alpha" maskUnits="userSpaceOnUse" x="0" y="0" width="25" height="25">
<rect x="0.713867" y="0.96582" width="24" height="24" fill="#D9D9D9"/>
</mask>
<g mask="url(#mask0_65_5673)">
<path fill-rule="evenodd" clip-rule="evenodd" d="M11.3864 3.96577L11.3913 3.0752L12.3913 3.08078L13.0476 3.08444L14.0476 3.09002L14.0427 3.96577H19.7139C20.2639 3.96577 20.7349 4.16144 21.1269 4.55277C21.5182 4.94477 21.7139 5.41577 21.7139 5.96577V16.9658C21.7139 17.5158 21.5182 17.9868 21.1269 18.3788C20.7349 18.7701 20.2639 18.9658 19.7139 18.9658H15.1301L17.2079 21.0436L17.915 21.7507L16.5008 23.1649L15.7937 22.4578L12.7132 19.3773L9.63291 22.4578L8.92582 23.1649L7.51157 21.7507L8.21866 21.0436L10.2964 18.9658H5.71387C5.16387 18.9658 4.69287 18.7701 4.30087 18.3788C3.90953 17.9868 3.71387 17.5158 3.71387 16.9658V5.96577C3.71387 5.41577 3.90953 4.94477 4.30087 4.55277C4.69287 4.16144 5.16387 3.96577 5.71387 3.96577H11.3864ZM12.7132 16.9631C12.7377 16.9631 12.7621 16.964 12.7864 16.9658H19.7139V5.96577H5.71387V16.9658H12.6399C12.6642 16.964 12.6886 16.9631 12.7132 16.9631ZM13.8577 14.368L18.0788 9.66434L16.5902 8.32856L13.7409 11.5037L10.8879 8.80357L7.27539 13.1005L8.80626 14.3875L11.0537 11.7142L13.8577 14.368Z" fill="#D3D3D4"/>
</g>
</svg>
