<svg width="18" height="19" viewBox="0 0 18 19" fill="none" xmlns="http://www.w3.org/2000/svg">
<path d="M4 14.4658H6V9.46582H4V14.4658ZM12 14.4658H14V4.46582H12V14.4658ZM8 14.4658H10V11.4658H8V14.4658ZM8 9.46582H10V7.46582H8V9.46582ZM2 18.4658C1.45 18.4658 0.979 18.2702 0.587 17.8788C0.195667 17.4868 0 17.0158 0 16.4658V2.46582C0 1.91582 0.195667 1.44482 0.587 1.05282C0.979 0.661487 1.45 0.46582 2 0.46582H16C16.55 0.46582 17.021 0.661487 17.413 1.05282C17.8043 1.44482 18 1.91582 18 2.46582V16.4658C18 17.0158 17.8043 17.4868 17.413 17.8788C17.021 18.2702 16.55 18.4658 16 18.4658H2ZM2 16.4658H16V2.46582H2V16.4658Z" fill="#D3D3D4"/>
</svg>
