<svg width="25" height="27" viewBox="0 0 25 27" fill="none" xmlns="http://www.w3.org/2000/svg">
<path d="M4.25586 16.2201V10.7449H4.67889L7.36672 16.2201H7.86452V10.7449M10.8526 16.2201V13.9647M10.8526 13.9647V10.7449H13.8391M10.8526 13.9647H13.3414M16.493 10.7449H18.484M18.484 10.7449H20.475M18.484 10.7449V16.2201M1.00293 9.08109V17.8843C1.00293 19.1647 1.68599 20.3478 2.79482 20.9879L10.4186 25.3896C11.5275 26.0297 12.8936 26.0297 14.0024 25.3896L21.6262 20.9879C22.735 20.3478 23.4181 19.1647 23.4181 17.8843V9.08109C23.4181 7.80073 22.735 6.61763 21.6262 5.97745L14.0024 1.57584C12.8936 0.935659 11.5275 0.935658 10.4186 1.57584L2.79482 5.97745C1.68599 6.61763 1.00293 7.80073 1.00293 9.08109Z" stroke="white" stroke-width="1.79189" stroke-linecap="square"/>
</svg>
