<svg width="72" height="19" viewBox="0 0 72 19" fill="none" xmlns="http://www.w3.org/2000/svg">
    <path opacity="0.65" fill-rule="evenodd" clip-rule="evenodd"
        d="M9.56186 18.8203C14.7178 18.8203 18.8975 14.6406 18.8975 9.48471C18.8975 4.3288 14.7178 0.149107 9.56186 0.149106C4.40595 0.149106 0.226257 4.3288 0.226256 9.48471C0.226256 14.6406 4.40595 18.8203 9.56186 18.8203ZM12.8391 3.97112C13.6111 3.69517 14.4746 3.38646 15.0993 4.01112C15.7239 4.63578 15.4152 5.49933 15.1393 6.27127C15.1258 6.30889 15.1124 6.3463 15.0993 6.38345C15.0153 6.62016 14.8928 6.91793 14.7621 7.2359C14.4513 7.99171 14.0936 8.86169 14.0936 9.29729C14.0936 9.91616 14.7898 11.9017 15.0735 12.5979C15.3571 13.2942 15.7157 14.328 15.0606 14.9832C14.4055 15.6383 13.3716 15.2797 12.6754 14.996C11.9791 14.7124 9.9936 14.0162 9.37473 14.0162C8.93912 14.0162 8.06915 14.3739 7.31335 14.6847C6.99537 14.8154 6.6976 14.9378 6.46089 15.0218C6.42374 15.035 6.38633 15.0484 6.34871 15.0618C5.57677 15.3378 4.71321 15.6465 4.08856 15.0218C3.4639 14.3972 3.7726 13.5336 4.04855 12.7617C4.062 12.7241 4.07538 12.6866 4.08856 12.6495C4.17255 12.4128 4.29499 12.115 4.42573 11.797C4.73651 11.0412 5.09422 10.1713 5.09422 9.73566C5.09422 9.11679 4.39799 7.13125 4.11434 6.43502C3.8307 5.73879 3.47214 4.7049 4.12724 4.0498C4.78234 3.3947 5.81623 3.75326 6.51246 4.03691C7.20869 4.32055 9.19423 5.01678 9.8131 5.01678C10.2487 5.01678 11.1187 4.65907 11.8745 4.3483C12.1925 4.21755 12.4902 4.09512 12.7269 4.01112C12.7641 3.99794 12.8015 3.98457 12.8391 3.97112Z"
        fill="url(#paint0_linear_1300_564)" />
    <path opacity="0.65" fill-rule="evenodd" clip-rule="evenodd"
        d="M16.1636 2.88344C12.5178 -0.762341 6.60686 -0.762342 2.96108 2.88344C-0.684703 6.52922 -0.684703 12.4402 2.96108 16.086C6.60686 19.7318 12.5178 19.7318 16.1636 16.086C19.8094 12.4402 19.8094 6.52922 16.1636 2.88344ZM3.34644 11.0666C2.60547 10.7158 1.77656 10.3235 1.77656 9.4401C1.77656 8.5567 2.60547 8.16436 3.34644 7.81364C3.38256 7.79655 3.41846 7.77955 3.45405 7.76261C3.68083 7.65462 3.97795 7.53064 4.29525 7.39825C5.04943 7.08356 5.91754 6.72134 6.22556 6.41332C6.66316 5.97571 7.57484 4.07942 7.86658 3.38654C8.15832 2.69367 8.63585 1.70905 9.56231 1.70905C10.4888 1.70905 10.9663 2.69367 11.258 3.38654C11.5498 4.07942 12.4614 5.97571 12.8991 6.41332C13.2071 6.72134 14.0752 7.08356 14.8294 7.39825C15.1467 7.53064 15.4438 7.65462 15.6706 7.76261C15.7062 7.77956 15.7421 7.79655 15.7782 7.81364C16.5191 8.16436 17.3481 8.5567 17.3481 9.4401C17.3481 10.3235 16.5191 10.7158 15.7782 11.0666C15.7421 11.0836 15.7062 11.1006 15.6706 11.1176C15.4438 11.2256 15.1467 11.3496 14.8294 11.4819C14.0752 11.7966 13.2071 12.1589 12.8991 12.4669C12.4614 12.9045 11.5498 14.8008 11.258 15.4937C10.9663 16.1865 10.4888 17.1711 9.56231 17.1711C8.63585 17.1711 8.15832 16.1865 7.86658 15.4937C7.57484 14.8008 6.66316 12.9045 6.22556 12.4669C5.91754 12.1589 5.04943 11.7966 4.29524 11.4819C3.97795 11.3496 3.68082 11.2256 3.45405 11.1176C3.41846 11.1006 3.38256 11.0836 3.34644 11.0666Z"
        fill="url(#paint1_linear_1300_564)" />
    <path
        d="M32.3025 5.56836C32.0909 5.56836 31.9092 5.64326 31.7613 5.79307C31.6133 5.94288 31.5366 6.12453 31.5366 6.33613C31.5366 6.54774 31.6115 6.72939 31.7613 6.8792C31.9092 7.02713 32.0928 7.10391 32.3025 7.10391C32.5122 7.10391 32.6976 7.02901 32.8474 6.8792C32.9954 6.72939 33.0721 6.54774 33.0721 6.33613C33.0721 6.12453 32.9972 5.94288 32.8474 5.79307C32.6995 5.64514 32.516 5.56836 32.3044 5.56836H32.3025Z"
        fill="white" />
    <path d="M22.6865 7.99152H24.0311L24.0554 8.04957L26.2801 13.2761H24.9543L24.9299 13.2218L22.6865 7.99152Z"
        fill="white" />
    <path
        d="M27.1565 8.82859L28.2408 11.5289L29.6246 7.99152H30.943L30.8924 8.12073L28.7426 13.2761H27.7127L27.6865 13.2218L25.7858 8.76866H27.134L27.1565 8.82859Z"
        fill="white" />
    <path d="M31.7351 7.99335H32.8755V13.2573H31.7351V7.99335Z" fill="white" />
    <path
        d="M36.5215 10.1413L35.7537 9.94469C35.2575 9.83234 35.0065 9.65256 35.0065 9.41474C35.0065 9.26868 35.0871 9.14508 35.2518 9.03835C35.4372 8.92412 35.647 8.86606 35.8773 8.86606C36.132 8.86606 36.3548 8.92224 36.5608 9.04209C36.763 9.14883 36.9091 9.30238 36.9953 9.49526L37.0327 9.57953L38.0552 9.15632L38.0196 9.07018C37.866 8.69378 37.5945 8.38854 37.2125 8.1657C36.8398 7.94473 36.4166 7.8305 35.9503 7.8305C35.3455 7.8305 34.838 7.98031 34.4429 8.27431C34.0459 8.56644 33.8455 8.96531 33.8455 9.45781C33.8455 10.2069 34.368 10.72 35.3998 10.9784L36.2649 11.1956C36.7218 11.3361 36.9447 11.5402 36.9447 11.8211C36.9447 11.969 36.8567 12.0945 36.6769 12.2087C36.4934 12.3285 36.2556 12.3903 35.9709 12.3903C35.7069 12.3903 35.4597 12.3117 35.2387 12.16C35.0196 11.999 34.8492 11.7705 34.7313 11.484L34.6957 11.396L33.6751 11.8304L33.7069 11.9147C33.8792 12.366 34.1713 12.7368 34.5721 13.0158C34.9728 13.2873 35.4448 13.4259 35.9728 13.4259C36.5795 13.4259 37.0908 13.2667 37.4934 12.9503C37.9016 12.6282 38.1095 12.2274 38.1095 11.7574C38.1095 10.9465 37.5758 10.4035 36.5234 10.1432L36.5215 10.1413Z"
        fill="white" />
    <path fill-rule="evenodd" clip-rule="evenodd"
        d="M42.7854 8.54395L42.7592 8.09264L42.7611 8.09077V5.65074H43.9034V13.2573H42.8023V12.6899C42.6413 12.8828 42.4334 13.0457 42.1824 13.1749C41.8678 13.3397 41.512 13.424 41.1244 13.424C40.4353 13.424 39.8379 13.1487 39.3436 12.6057C38.8586 12.057 38.6132 11.3922 38.6132 10.6263C38.6132 9.8604 38.8586 9.19375 39.3417 8.64694C39.8361 8.10388 40.4353 7.82861 41.1226 7.82861C41.5083 7.82861 41.866 7.91287 42.1806 8.07766C42.424 8.20126 42.6263 8.35856 42.7854 8.54395ZM42.8004 10.6244C42.8004 10.1188 42.6525 9.69748 42.3585 9.37165C42.0701 9.04394 41.7106 8.88476 41.278 8.88476C40.8454 8.88476 40.4915 9.04394 40.1956 9.37165C39.9016 9.69748 39.7537 10.1113 39.7537 10.6244C39.7537 11.1375 39.9035 11.5589 40.1956 11.8772C40.4915 12.2049 40.8323 12.3641 41.278 12.3641C41.7237 12.3641 42.0776 12.2087 42.3566 11.8885C42.6525 11.5682 42.8004 11.13 42.8004 10.6244Z"
        fill="white" />
    <path fill-rule="evenodd" clip-rule="evenodd"
        d="M47.3434 7.82858C46.5681 7.82858 45.9146 8.09637 45.3996 8.62445C44.894 9.15065 44.6375 9.8248 44.6375 10.6263C44.6375 11.4278 44.894 12.1019 45.3996 12.63C45.9146 13.1581 46.5681 13.4258 47.3434 13.4258C48.1187 13.4258 48.7703 13.1581 49.2778 12.6319C49.7909 12.1113 50.0512 11.4371 50.0512 10.6282C50.0512 9.81918 49.7909 9.15253 49.2778 8.62445C48.7703 8.09637 48.1205 7.82858 47.3434 7.82858ZM48.9089 10.6263C48.9089 11.145 48.7572 11.5682 48.4595 11.8884C48.1617 12.2049 47.7853 12.366 47.3434 12.366C46.9015 12.366 46.5325 12.2105 46.2292 11.8884C45.9296 11.5701 45.7779 11.145 45.7779 10.6263C45.7779 10.1076 45.9296 9.69371 46.2292 9.3735C46.54 9.04579 46.9033 8.88474 47.3434 8.88474C47.7835 8.88474 48.1486 9.04391 48.4595 9.3735C48.7591 9.69371 48.9089 10.1151 48.9089 10.6263Z"
        fill="white" />
    <path
        d="M54.9631 8.71246C55.3938 8.12633 55.9781 7.82858 56.7009 7.82858L56.7028 7.8342C57.3151 7.8342 57.7964 8.02521 58.1316 8.40348C58.463 8.77988 58.6316 9.31544 58.6316 9.99895V13.2629H57.4911V10.1431C57.4911 9.68997 57.4106 9.36413 57.2533 9.17687C57.0979 8.98399 56.8301 8.88849 56.4537 8.88849C56.1185 8.88849 55.832 9.03268 55.6054 9.31919C55.3713 9.61132 55.2515 9.9615 55.2515 10.3585V13.2611H54.1111V10.1413C54.1111 9.6881 54.0305 9.36226 53.8732 9.175C53.7197 8.98212 53.45 8.88661 53.0736 8.88661C52.7384 8.88661 52.4519 9.03081 52.2234 9.31732C51.9894 9.61132 51.8714 9.95963 51.8714 10.3566V13.2592H50.731V7.99525H51.8302V8.55329C51.9763 8.37351 52.1654 8.21809 52.3957 8.08888C52.7141 7.9166 53.0324 7.82858 53.3433 7.82858C53.7328 7.82858 54.0811 7.92034 54.377 8.10199C54.6279 8.25367 54.8245 8.45966 54.9631 8.71246Z"
        fill="white" />
    <path
        d="M60.3132 5.56836C60.1034 5.56836 59.9199 5.64326 59.7701 5.79307C59.6222 5.94101 59.5454 6.12453 59.5454 6.33613C59.5454 6.54774 59.6203 6.72939 59.7701 6.8792C59.9199 7.02713 60.1034 7.10391 60.3132 7.10391C60.5229 7.10391 60.7083 7.02901 60.8581 6.8792C61.006 6.72939 61.0828 6.54774 61.0828 6.33613C61.0828 6.12453 61.0079 5.94288 60.8581 5.79307C60.7101 5.64514 60.5267 5.56836 60.315 5.56836H60.3132Z"
        fill="white" />
    <path d="M59.742 13.2573V7.99335H60.8843V13.2573H59.742Z" fill="white" />
    <path
        d="M64.5322 10.1413L63.7626 9.94469C63.2682 9.83234 63.0173 9.65256 63.0173 9.41474C63.0173 9.26868 63.0978 9.14508 63.2626 9.03835C63.448 8.92412 63.6577 8.86606 63.888 8.86606C64.139 8.86606 64.3674 8.92412 64.5697 9.04209C64.7757 9.1507 64.918 9.29864 65.006 9.49526L65.0434 9.57953L66.064 9.15632L66.0303 9.07018C65.8786 8.69378 65.6071 8.38854 65.2232 8.1657C64.8524 7.94286 64.4292 7.8305 63.9629 7.8305C63.3562 7.8305 62.8487 7.98031 62.4536 8.27431C62.0566 8.56832 61.8562 8.96718 61.8562 9.45781C61.8562 10.2069 62.3787 10.72 63.4105 10.9784L64.2757 11.1956C64.7344 11.3361 64.9573 11.5402 64.9573 11.8211C64.9573 11.969 64.8693 12.0945 64.6895 12.2087C64.506 12.3285 64.2682 12.3903 63.9835 12.3903C63.7157 12.3903 63.476 12.3136 63.2495 12.16C63.0285 11.999 62.8581 11.7724 62.742 11.4859L62.7064 11.3978L61.6858 11.8342L61.7177 11.9184C61.89 12.3697 62.1821 12.7405 62.5828 13.0195C62.9836 13.2911 63.4555 13.4296 63.9835 13.4296C64.5903 13.4296 65.1015 13.2705 65.5022 12.954C65.9123 12.6319 66.1202 12.2312 66.1202 11.7611C66.1202 10.9503 65.5865 10.4072 64.5341 10.1469L64.5322 10.1413Z"
        fill="white" />
    <path fill-rule="evenodd" clip-rule="evenodd"
        d="M71.0864 8.59448C71.5489 9.0926 71.7849 9.80233 71.7849 10.6993V10.7012L71.7642 10.8978H67.7887C67.8186 11.3229 67.9741 11.6731 68.2512 11.939C68.5527 12.2274 68.9066 12.3678 69.328 12.3678C69.9047 12.3678 70.3467 12.0851 70.6781 11.5027L70.7212 11.4259L71.738 11.9221L71.6931 12.0083C71.4572 12.4483 71.1238 12.8004 70.7025 13.0495C70.2886 13.2966 69.8111 13.424 69.2849 13.424C68.5152 13.424 67.873 13.1562 67.373 12.6281C66.873 12.1019 66.6202 11.4203 66.6202 10.6263C66.6202 9.83229 66.8655 9.16189 67.3505 8.63568C67.8374 8.10011 68.4441 7.82858 69.2231 7.82858C70.0021 7.82858 70.6276 8.08513 71.0864 8.59448ZM69.2025 8.88661C68.8673 8.88661 68.5733 8.98961 68.3299 9.1956C68.1145 9.38099 67.9666 9.61881 67.8804 9.92217H70.5695C70.5265 9.64315 70.3954 9.40533 70.1781 9.2162C69.9366 8.99335 69.6164 8.88661 69.2025 8.88661Z"
        fill="white" />
    <defs>
        <linearGradient id="paint0_linear_1300_564" x1="19.3954" y1="0.149108" x2="0.0219475" y2="18.6059"
            gradientUnits="userSpaceOnUse">
            <stop stop-color="white" />
            <stop offset="1" stop-color="white" stop-opacity="0.5" />
        </linearGradient>
        <linearGradient id="paint1_linear_1300_564" x1="20.541" y1="0.149102" x2="-1.42787" y2="1.28153"
            gradientUnits="userSpaceOnUse">
            <stop stop-color="white" />
            <stop offset="0.855974" stop-color="white" stop-opacity="0.5" />
        </linearGradient>
    </defs>
</svg>