<svg width="78" height="17" viewBox="0 0 78 17" fill="none" xmlns="http://www.w3.org/2000/svg">
    <path
        d="M5.31158 1.91492C7.04055 0.976057 9.08379 0.637159 11.0256 0.930739C13.3929 1.20757 15.5356 2.5671 17.039 4.38276C18.968 6.82696 19.4349 10.3026 18.3483 13.204C18.2488 13.4443 18.2025 13.7704 17.9247 13.8689C18.0133 13.2079 18.0459 12.5429 18.0222 11.875C18.1168 9.51549 16.9169 7.19148 15.0441 5.7817C14.0687 4.95909 12.921 4.32957 11.6767 4.035C11.0118 3.87934 10.3251 3.92171 9.65617 3.81531C9.29462 3.88821 8.92715 3.89806 8.56067 3.90989C6.35291 4.24878 4.27223 5.43 2.9127 7.21118C2.37086 8.02789 1.89305 8.90173 1.63198 9.8534C1.44086 10.6415 1.35712 11.4513 1.2793 12.2562C1.34629 12.7951 1.4054 13.334 1.46845 13.8729C1.41426 13.8433 1.30589 13.7832 1.25171 13.7537C0.667506 12.5656 0.427125 11.2228 0.482294 9.90463C0.443873 9.13127 0.561108 8.36186 0.741394 7.61116C1.19359 6.00238 2.00832 4.45173 3.29396 3.35425C3.91856 2.81339 4.55892 2.26958 5.31158 1.91492Z"
        fill="white" />
    <path
        d="M9.09264 7.47559C10.2758 7.31402 11.5043 7.67657 12.4668 8.37111C13.0934 8.90507 13.7042 9.51193 13.986 10.305C14.4293 11.3345 14.5258 12.5295 14.115 13.5866C13.8934 14.5117 13.1909 15.2023 12.5131 15.8229C11.6216 16.5096 10.4758 16.8455 9.3547 16.7894C8.41091 16.7007 7.47697 16.3657 6.73317 15.7697C5.9273 15.084 5.2436 14.1787 5.06134 13.1137C4.99928 12.6241 4.85051 12.1295 4.98154 11.6379C5.13917 9.50602 6.99719 7.71991 9.09264 7.47559Z"
        fill="white" />
    <path
        d="M72.5971 4.58398C73.0246 4.58398 73.4512 4.58398 73.8788 4.58398C73.8689 5.46374 73.8965 6.34546 73.865 7.22522C73.799 7.53456 73.7556 7.84784 73.7802 8.16507C74.0423 7.80154 74.3418 7.39959 74.8097 7.306C75.4944 7.16118 76.2619 7.1996 76.855 7.60943C77.2894 8.01828 77.5377 8.60938 77.5249 9.20737C77.515 10.4241 77.5367 11.6398 77.5101 12.8564C77.1229 12.8653 76.7357 12.8633 76.3505 12.8495C76.3328 11.7008 76.3486 10.5521 76.3436 9.40342C76.3693 9.05172 76.1624 8.74927 76.0067 8.45274C75.6501 8.21235 75.1959 8.16211 74.7851 8.26753C74.2669 8.45668 73.9586 8.9867 73.8797 9.51081C73.8719 10.624 73.8886 11.7383 73.8719 12.8525C73.4492 12.8623 73.0266 12.8623 72.6059 12.8495C72.5862 10.094 72.602 7.3395 72.5971 4.58398Z"
        fill="white" />
    <path
        d="M50.1738 7.18151C50.6546 5.98946 51.8269 5.10774 53.1086 4.99149C53.7234 4.95701 54.3687 4.93237 54.9401 5.20133C55.3538 5.33432 55.742 5.54712 56.0257 5.88405C56.5173 6.30669 56.7941 6.9165 56.9084 7.54603C56.4759 7.53814 56.0454 7.53223 55.6139 7.51351C55.4139 6.84754 54.9016 6.24856 54.1805 6.15694C53.5904 5.91754 52.9747 6.14315 52.4279 6.3855C51.7629 6.76282 51.3146 7.4682 51.2181 8.22283C51.1491 8.57454 51.0743 8.93412 51.1383 9.29371C51.2398 9.77841 51.2969 10.2976 51.5915 10.7143C51.8171 11.071 52.1304 11.3704 52.4949 11.5832C53.1165 11.8719 53.8386 11.8729 54.4908 11.6936C55.1006 11.465 55.4711 10.8917 55.6927 10.3065C56.1134 10.2897 56.535 10.3055 56.9557 10.3124C56.7922 10.7587 56.673 11.2315 56.3863 11.6207C55.7203 12.6236 54.4416 13.0147 53.2889 12.9536C52.7865 12.8758 52.2801 12.7704 51.8141 12.5635C51.4427 12.3162 51.0349 12.0955 50.758 11.7359C49.7325 10.4828 49.5847 8.65926 50.1738 7.18151Z"
        fill="white" />
    <path
        d="M23.9408 5.08929C24.3595 5.0686 24.7782 5.07254 25.1979 5.08141C25.2343 7.31084 25.192 9.54028 25.2196 11.7697C26.4284 11.7943 27.6381 11.7638 28.8479 11.7865C28.8627 12.1411 28.8627 12.4958 28.8479 12.8514C27.2116 12.8642 25.5762 12.8652 23.9408 12.8504C23.9201 10.2644 23.9201 7.67634 23.9408 5.08929Z"
        fill="white" />
    <path
        d="M36.2454 8.14907C36.5518 7.71362 36.9646 7.29296 37.5281 7.24961C37.9774 7.23877 38.4512 7.19149 38.8749 7.37867C39.5389 7.63087 39.9122 8.34512 39.9861 9.01897C39.991 10.2967 39.994 11.5745 39.9822 12.8523C39.5921 12.8611 39.2029 12.8611 38.8128 12.8523C38.8 11.7686 38.8098 10.6839 38.8079 9.60022C38.7901 9.10468 38.6591 8.5254 38.1734 8.28404C37.6966 8.15005 37.141 8.20227 36.7627 8.54708C36.3499 9.02193 36.2287 9.68199 36.2435 10.2948C36.2425 11.1459 36.2573 11.9981 36.2307 12.8493C35.8415 12.8592 35.4524 12.8601 35.0632 12.8592C35.0623 11.0198 35.0623 9.18152 35.0632 7.34222C35.4524 7.34123 35.8415 7.34222 36.2307 7.35305C36.2376 7.61806 36.2405 7.88307 36.2454 8.14907Z"
        fill="white" />
    <path
        d="M41.5832 7.74066C42.0088 7.35251 42.6088 7.32887 43.1467 7.24414C43.589 7.30424 44.0471 7.33773 44.4658 7.50422C45.0845 7.87465 45.4865 8.57707 45.4096 9.30806C45.4017 10.4883 45.4205 11.6695 45.3988 12.8497C45.0421 12.8635 44.6855 12.8606 44.3299 12.8419C44.3249 12.6054 44.324 12.369 44.3171 12.1345C44.0718 12.3601 43.855 12.633 43.5417 12.767C43.0561 13.0241 42.4906 12.964 41.9625 12.9473C41.2374 12.899 40.6128 12.2143 40.6749 11.4833C40.5922 10.9139 40.9173 10.306 41.4621 10.0972C42.3251 9.69622 43.3023 9.75238 44.1959 9.45683C44.253 9.08148 44.186 8.63914 43.8619 8.40073C43.6156 8.16232 43.2452 8.24507 42.9368 8.22241C42.4413 8.17709 41.998 8.61845 42.0275 9.11596C41.6335 9.113 41.2394 9.1199 40.8463 9.10414C40.9261 8.58889 41.0946 8.0106 41.5832 7.74066ZM43.6166 10.3819C43.0689 10.4262 42.4462 10.4617 42.0266 10.8607C41.7911 11.1474 41.8886 11.5099 42.0197 11.8183C42.3526 11.9848 42.728 12.1769 43.1063 12.034C43.456 11.9069 43.9102 11.8074 44.0649 11.4262C44.2639 11.0144 44.3535 10.5553 44.3358 10.0992C44.1043 10.2124 43.8668 10.3179 43.6166 10.3819Z"
        fill="white" />
    <path
        d="M47.7355 7.50701C48.2418 7.17797 48.9226 7.14447 49.4723 7.375C49.3935 7.7602 49.3147 8.14836 49.1649 8.51385C48.7797 8.28037 48.2408 8.22126 47.8842 8.53947C47.4301 8.91777 47.3148 9.5335 47.2793 10.0921C47.2724 11.0113 47.2931 11.9304 47.2645 12.8496C46.8754 12.8594 46.4863 12.8604 46.0971 12.8594C46.0961 11.0201 46.0971 9.1818 46.0971 7.34249C46.4892 7.34052 46.8813 7.34446 47.2744 7.35332C47.2764 7.59173 47.2773 7.83113 47.2971 8.06954C47.4458 7.88433 47.5601 7.67055 47.7355 7.50701Z"
        fill="white" />
    <path
        d="M58.7074 8.16426C58.9931 7.79089 59.2965 7.32194 59.8078 7.27072C60.191 7.21456 60.6097 7.20372 60.9476 7.42342C60.8787 7.79482 60.7477 8.1485 60.66 8.51498C60.2462 8.28051 59.7044 8.25096 59.3152 8.54257C59.0197 8.88935 58.7911 9.3307 58.8049 9.79669C58.801 10.8144 58.8177 11.832 58.797 12.8497C58.4079 12.8635 58.0187 12.8606 57.6306 12.8487C57.6178 11.0163 57.6168 9.18391 57.6306 7.3515C57.9892 7.34066 58.3478 7.34066 58.7074 7.34165C58.7064 7.61552 58.7054 7.8894 58.7074 8.16426Z"
        fill="white" />
    <path
        d="M67.9336 7.68925C68.6922 7.12081 69.7257 7.1612 70.6064 7.36119C71.3246 7.50306 71.8605 8.16213 71.8388 8.90101C71.4724 8.92465 71.1059 8.92564 70.7404 8.90396C70.6704 8.71284 70.6409 8.50201 70.5227 8.33257C70.0035 7.9651 69.2528 7.91387 68.7326 8.30794C68.3661 8.53354 68.3898 9.20345 68.8154 9.34827C69.7099 9.62905 70.7276 9.56107 71.5413 10.0812C72.2034 10.6871 72.1029 11.8191 71.4418 12.3865C70.6369 13.0052 69.5217 13.0771 68.5661 12.8318C67.8174 12.7107 67.1918 12.0644 67.1455 11.2969C67.5376 11.2772 67.9307 11.2851 68.3238 11.2812C68.374 11.4615 68.4193 11.6516 68.5375 11.8033C69.0331 12.1471 69.6872 12.1353 70.2508 11.9925C70.4557 11.958 70.5936 11.7994 70.7148 11.6427C70.7522 11.4063 70.7148 11.1669 70.698 10.9305C69.7946 10.3896 68.6233 10.631 67.7435 10.0251C67.4617 9.66747 67.1859 9.21626 67.2923 8.7424C67.3888 8.34143 67.578 7.92077 67.9336 7.68925Z"
        fill="white" />
    <path
        d="M29.5461 7.3423C29.9343 7.34132 30.3234 7.3423 30.7126 7.35216C30.749 8.49298 30.7116 9.63577 30.7343 10.7766C30.7855 11.2357 30.9746 11.814 31.5027 11.8869C32.3312 12.2593 33.1854 11.4061 33.1923 10.5943C33.1942 9.51361 33.1814 8.43288 33.1982 7.35216C33.6198 7.33836 34.0425 7.33935 34.4651 7.3492C34.4759 9.18358 34.4769 11.018 34.4651 12.8523C34.075 12.8612 33.6858 12.8612 33.2967 12.8514C33.2868 12.543 33.2888 12.2346 33.2888 11.9273C32.7489 13.1834 30.8505 13.2868 30.0062 12.2977C29.7117 11.9667 29.5924 11.5174 29.5481 11.0869C29.5422 9.83872 29.5481 8.59051 29.5461 7.3423Z"
        fill="white" />
    <path
        d="M61.6689 7.34974C62.0581 7.34088 62.4482 7.34088 62.8383 7.34974C62.8541 8.50042 62.8393 9.65109 62.8462 10.8028C62.8304 11.184 63.0216 11.5594 63.3112 11.8017C63.7998 12.0854 64.4372 11.98 64.852 11.6145C65.184 11.2303 65.3012 10.7033 65.3121 10.2067C65.314 9.25604 65.2993 8.30535 65.3131 7.35467C65.7002 7.33792 66.0884 7.33595 66.4765 7.3458C66.4972 9.18314 66.4972 11.0205 66.4765 12.8578C66.1002 12.8677 65.7249 12.8667 65.3515 12.8312C65.3278 12.6017 65.3071 12.3711 65.2825 12.1416C65.0441 12.3652 64.8481 12.645 64.5555 12.8007C63.9299 13.0411 63.2048 13.0085 62.6088 12.6992C62.0167 12.3573 61.6394 11.6786 61.661 10.9949C61.6679 9.77917 61.6551 8.56446 61.6689 7.34974Z"
        fill="white" />
</svg>