<svg xmlns="http://www.w3.org/2000/svg" width="28" height="28" viewBox="0 0 28 28" fill="none">
  <g clip-path="url(#clip0_961_5414)">
    <path d="M14.0003 14C11.1222 14 8.77016 11.6492 8.77016 8.76983C8.77016 5.8905 11.1222 3.5 14.0003 3.5C16.8785 3.5 19.2305 5.85083 19.2305 8.73017C19.2305 11.6095 16.8785 14 14.0003 14ZM22.167 24.5H5.83366C5.19199 24.5 4.66699 23.975 4.66699 23.3333V22.1667C4.66699 19.6 6.76699 17.5 9.33366 17.5H18.667C21.2337 17.5 23.3337 19.6 23.3337 22.1667V23.3333C23.3337 23.975 22.8087 24.5 22.167 24.5Z" stroke="currentColor" stroke-linecap="round" stroke-linejoin="round"/>
  </g>
  <defs>
    <clipPath id="clip0_961_5414">
      <rect width="28" height="28" fill="white"/>
    </clipPath>
  </defs>
</svg>
