<svg xmlns="http://www.w3.org/2000/svg" width="28" height="28" viewBox="0 0 28 28" fill="none">
  <g clip-path="url(#clip0_6449_10124)">
    <path d="M14 18.0833V22.1667" stroke="currentColor" stroke-linecap="round" stroke-linejoin="round"/>
    <path d="M14 14.2077C14.0557 14.2077 14.1091 14.1855 14.1485 14.1461C14.1879 14.1068 14.21 14.0533 14.21 13.9977V13.9953C14.2101 13.9393 14.1879 13.8856 14.1484 13.8459C14.1088 13.8062 14.0552 13.7839 13.9992 13.7838C13.9432 13.7837 13.8894 13.8059 13.8498 13.8454C13.8101 13.885 13.7878 13.9386 13.7877 13.9946C13.7875 14.0224 13.7928 14.0505 13.8033 14.0762C13.8138 14.1019 13.8292 14.1253 13.8487 14.145C13.8682 14.1647 13.8914 14.1804 13.9169 14.1911C13.9425 14.2019 13.9699 14.2075 13.9977 14.2077H14Z" stroke="currentColor" stroke-width="1.5" stroke-linecap="round" stroke-linejoin="round"/>
    <path d="M13.7888 13.9953H14.2112" stroke="currentColor" stroke-width="1.5" stroke-linecap="round" stroke-linejoin="round"/>
    <path d="M14.0012 14.2077V13.7818" stroke="currentColor" stroke-linecap="round" stroke-linejoin="round"/>
    <path d="M3.5 14C3.49983 16.0651 4.10844 18.0843 5.24972 19.8054C6.391 21.5264 8.01431 22.8728 9.91667 23.6762" stroke="currentColor" stroke-linecap="round" stroke-linejoin="round"/>
    <path d="M24.5 14C24.5 11.2152 23.3938 8.54451 21.4246 6.57538C19.4555 4.60625 16.7848 3.5 14 3.5C11.2152 3.5 8.54451 4.60625 6.57538 6.57538C4.60625 8.54451 3.5 11.2152 3.5 14" stroke="currentColor" stroke-linecap="round" stroke-linejoin="round"/>
    <path d="M18.0833 23.6762C19.9857 22.8728 21.609 21.5264 22.7503 19.8054C23.8916 18.0843 24.5002 16.0651 24.5 14" stroke="currentColor" stroke-linecap="round" stroke-linejoin="round"/>
    <path d="M8.75 14C8.7545 15.1889 9.16626 16.3404 9.91667 17.2627" stroke="currentColor" stroke-linecap="round" stroke-linejoin="round"/>
    <path d="M19.25 14C19.25 12.6076 18.6969 11.2723 17.7123 10.2877C16.7277 9.30312 15.3924 8.75 14 8.75C12.6076 8.75 11.2723 9.30312 10.2877 10.2877C9.30312 11.2723 8.75 12.6076 8.75 14" stroke="currentColor" stroke-linecap="round" stroke-linejoin="round"/>
    <path d="M18.0833 17.2627C18.8338 16.3405 19.2455 15.1889 19.25 14" stroke="currentColor" stroke-linecap="round" stroke-linejoin="round"/>
  </g>
  <defs>
    <clipPath id="clip0_6449_10124">
      <rect width="28" height="28" fill="white"/>
    </clipPath>
  </defs>
</svg>
