<svg xmlns="http://www.w3.org/2000/svg" width="28" height="28" viewBox="0 0 28 28" fill="none">
  <path d="M14 19.8334V9.44781" stroke="currentColor" stroke-miterlimit="10"/>
  <path d="M14 10.6144C14 10.6144 14.584 6.23581 17.5544 4.52082C20.5249 2.80582 24.6088 4.48941 24.6088 4.48941C24.6088 4.48941 23.9719 8.89865 21.0544 10.583C18.084 12.298 14 10.6144 14 10.6144Z" stroke="currentColor" stroke-miterlimit="10" stroke-linecap="square"/>
  <path d="M13.9994 10.6144C13.9994 10.6144 13.4155 6.23581 10.445 4.52082C7.47457 2.80582 3.39062 4.48941 3.39062 4.48941C3.39062 4.48941 4.02762 8.89865 6.94503 10.583C9.91546 12.298 13.9994 10.6144 13.9994 10.6144Z" stroke="currentColor" stroke-miterlimit="10" stroke-linecap="square"/>
  <path d="M3.5 25.375C3.5 23.442 5.067 21.875 7 21.875C7.5736 21.875 8.11496 22.0129 8.59272 22.2575C9.33144 20.6544 10.9525 19.5416 12.8334 19.5416C15.4107 19.5416 17.5 21.875 17.5 24.5" stroke="currentColor" stroke-miterlimit="10" stroke-linecap="square"/>
  <path d="M24.5 25.375C24.5 23.442 23.1875 21.875 21 21.875" stroke="currentColor" stroke-miterlimit="10" stroke-linecap="square"/>
</svg>
