
<svg width="160" height="160" viewBox="0 0 160 160" fill="none" xmlns="http://www.w3.org/2000/svg">
  <path fill-rule="evenodd" clip-rule="evenodd" d="M86.4158 35.3996C82.4658 33.5335 77.8558 33.5335 73.9058 35.3996L49.4358 46.9605C42.9959 50.003 42.8127 58.9367 49.1512 62.2159L53.4952 64.4632L49.4358 66.3811C42.9959 69.4236 42.8127 78.3574 49.1512 81.6365L53.4923 83.8823L49.4358 85.7988C42.9959 88.8413 42.8127 97.775 49.1512 101.054L73.4375 113.618C77.6416 115.793 82.68 115.793 86.8837 113.618L111.17 101.054C117.509 97.775 117.325 88.8413 110.886 85.7988L106.829 83.8823L111.17 81.6365C117.509 78.3574 117.325 69.4236 110.886 66.3811L106.826 64.4632L111.17 62.2159C117.509 58.9367 117.325 50.0031 110.886 46.9605L86.4158 35.3996ZM99.8426 68.076L86.8837 74.78C82.68 76.955 77.6416 76.955 73.4375 74.78L60.4789 68.0761L52.1056 72.0319C50.3279 72.8719 50.2971 75.1924 52.0231 76.0853L61.8866 81.188C61.9486 81.2176 62.0098 81.2492 62.0699 81.2828L76.3096 88.6494C78.7125 89.8924 81.6091 89.8924 84.0121 88.6494L98.251 81.2831C98.3114 81.2493 98.373 81.2174 98.4355 81.1877L108.298 76.0853C110.024 75.1924 109.993 72.8719 108.216 72.0319L99.8426 68.076ZM76.5754 41.0507C78.835 39.9831 81.4862 39.9831 83.7458 41.0507L108.216 52.6116C109.993 53.4514 110.024 55.7718 108.298 56.6647L84.0121 69.2292C81.6091 70.4721 78.7125 70.4721 76.3096 69.2292L52.0231 56.6647C50.2971 55.7718 50.3279 53.4514 52.1056 52.6116L76.5754 41.0507ZM52.1056 91.45L60.4763 87.4954L73.4375 94.2007C77.6416 96.3753 82.68 96.3753 86.8837 94.2007L99.8452 87.4954L108.216 91.45C109.993 92.2896 110.024 94.61 108.298 95.503L84.0121 108.068C81.6091 109.31 78.7125 109.31 76.3096 108.068L52.0231 95.503C50.2971 94.61 50.3279 92.2896 52.1056 91.45Z" fill="url(#paint0_linear_3163_85620)"/>
  <path d="M73.9058 35.3996L73.4786 34.4955L73.4786 34.4955L73.9058 35.3996ZM86.4158 35.3996L86.843 34.4955V34.4955L86.4158 35.3996ZM49.4358 46.9605L49.0086 46.0563L49.0086 46.0563L49.4358 46.9605ZM49.1512 62.2159L49.6107 61.3277H49.6107L49.1512 62.2159ZM53.4952 64.4632L53.9224 65.3673L55.7501 64.5038L53.9547 63.575L53.4952 64.4632ZM49.4358 66.3811L49.8629 67.2853L49.863 67.2853L49.4358 66.3811ZM49.1512 81.6365L48.6917 82.5247H48.6917L49.1512 81.6365ZM53.4923 83.8823L53.9195 84.7865L55.7472 83.923L53.9518 82.9941L53.4923 83.8823ZM49.4358 85.7988L49.0086 84.8946H49.0086L49.4358 85.7988ZM49.1512 101.054L48.6917 101.942H48.6917L49.1512 101.054ZM73.4375 113.618L73.897 112.73L73.897 112.73L73.4375 113.618ZM86.8837 113.618L86.4242 112.73L86.4242 112.73L86.8837 113.618ZM111.17 101.054L111.63 101.942L111.63 101.942L111.17 101.054ZM110.886 85.7988L111.313 84.8946L111.313 84.8946L110.886 85.7988ZM106.829 83.8823L106.37 82.9942L104.574 83.923L106.402 84.7865L106.829 83.8823ZM111.17 81.6365L111.63 82.5247L111.63 82.5247L111.17 81.6365ZM110.886 66.3811L111.313 65.4769L111.313 65.4769L110.886 66.3811ZM106.826 64.4632L106.367 63.575L104.571 64.5038L106.399 65.3674L106.826 64.4632ZM111.17 62.2159L111.63 63.1041L111.63 63.1041L111.17 62.2159ZM110.886 46.9605L111.313 46.0563L111.313 46.0563L110.886 46.9605ZM99.8426 68.076L100.27 67.1719L99.8225 66.9605L99.3831 67.1878L99.8426 68.076ZM86.8837 74.78L86.4242 73.8918L86.4242 73.8918L86.8837 74.78ZM73.4375 74.78L73.897 73.8918L73.897 73.8918L73.4375 74.78ZM60.4789 68.0761L60.9383 67.1879L60.499 66.9606L60.0517 67.1719L60.4789 68.0761ZM52.1056 72.0319L51.6784 71.1278L51.6784 71.1278L52.1056 72.0319ZM52.0231 76.0853L51.5636 76.9735L51.5636 76.9735L52.0231 76.0853ZM61.8866 81.188L61.4271 82.0762L61.4417 82.0837L61.4565 82.0908L61.8866 81.188ZM62.0699 81.2828L61.5814 82.1554L61.5958 82.1634L61.6104 82.171L62.0699 81.2828ZM76.3096 88.6494L75.8501 89.5376L75.8501 89.5377L76.3096 88.6494ZM84.0121 88.6494L84.4715 89.5377L84.4715 89.5376L84.0121 88.6494ZM98.251 81.2831L98.7105 82.1713L98.7252 82.1637L98.7396 82.1556L98.251 81.2831ZM98.4355 81.1877L98.8653 82.0906L98.8802 82.0835L98.8949 82.0759L98.4355 81.1877ZM108.298 76.0853L108.758 76.9735L108.758 76.9734L108.298 76.0853ZM108.216 72.0319L108.643 71.1278L108.643 71.1278L108.216 72.0319ZM83.7458 41.0507L83.3186 41.9549L83.3186 41.9549L83.7458 41.0507ZM76.5754 41.0507L77.0026 41.9549L77.0026 41.9549L76.5754 41.0507ZM108.216 52.6116L108.643 51.7074L108.643 51.7074L108.216 52.6116ZM108.298 56.6647L108.758 57.5529L108.758 57.5529L108.298 56.6647ZM84.0121 69.2292L84.4715 70.1174L84.4716 70.1173L84.0121 69.2292ZM76.3096 69.2292L75.8501 70.1173L75.8501 70.1174L76.3096 69.2292ZM52.0231 56.6647L51.5636 57.5529L51.5636 57.5529L52.0231 56.6647ZM52.1056 52.6116L52.5328 53.5158L52.5328 53.5158L52.1056 52.6116ZM60.4763 87.4954L60.9357 86.6072L60.4964 86.3799L60.0491 86.5912L60.4763 87.4954ZM52.1056 91.45L52.5327 92.3543L52.5328 92.3542L52.1056 91.45ZM73.4375 94.2007L72.978 95.0889L72.9781 95.0889L73.4375 94.2007ZM86.8837 94.2007L87.3432 95.0889L87.3432 95.0889L86.8837 94.2007ZM99.8452 87.4954L100.272 86.5912L99.8251 86.3799L99.3857 86.6072L99.8452 87.4954ZM108.216 91.45L107.789 92.3542L107.789 92.3543L108.216 91.45ZM108.298 95.503L108.758 96.3911L108.758 96.3911L108.298 95.503ZM84.0121 108.068L84.4715 108.956L84.4716 108.956L84.0121 108.068ZM76.3096 108.068L75.8501 108.956L75.8501 108.956L76.3096 108.068ZM52.0231 95.503L52.4826 94.6148H52.4826L52.0231 95.503ZM74.333 36.3038C78.0125 34.5654 82.3091 34.5654 85.9886 36.3038L86.843 34.4955C82.6225 32.5015 77.6991 32.5015 73.4786 34.4955L74.333 36.3038ZM49.8629 47.8647L74.333 36.3038L73.4786 34.4955L49.0086 46.0563L49.8629 47.8647ZM49.6107 61.3277C44.0111 58.4308 44.1681 50.5552 49.8629 47.8647L49.0086 46.0563C41.8236 49.4509 41.6144 59.4427 48.6917 63.1041L49.6107 61.3277ZM53.9547 63.575L49.6107 61.3277L48.6917 63.1041L53.0357 65.3514L53.9547 63.575ZM53.068 63.559L49.0086 65.4769L49.863 67.2853L53.9224 65.3673L53.068 63.559ZM49.0086 65.4769C41.8236 68.8715 41.6144 78.8633 48.6917 82.5247L49.6107 80.7483C44.0111 77.8514 44.1681 69.9758 49.8629 67.2853L49.0086 65.4769ZM48.6917 82.5247L53.0328 84.7705L53.9518 82.9941L49.6107 80.7483L48.6917 82.5247ZM53.0651 82.9781L49.0086 84.8946L49.8629 86.703L53.9195 84.7865L53.0651 82.9781ZM49.0086 84.8946C41.8236 88.2891 41.6144 98.281 48.6917 101.942L49.6107 100.166C44.0111 97.2691 44.1681 89.3935 49.8629 86.703L49.0086 84.8946ZM48.6917 101.942L72.978 114.507L73.897 112.73L49.6107 100.166L48.6917 101.942ZM72.978 114.507C77.4703 116.831 82.8513 116.831 87.3433 114.507L86.4242 112.73C82.5087 114.756 77.813 114.756 73.897 112.73L72.978 114.507ZM87.3432 114.507L111.63 101.942L110.711 100.166L86.4242 112.73L87.3432 114.507ZM111.63 101.942C118.707 98.281 118.498 88.2891 111.313 84.8946L110.459 86.703C116.153 89.3935 116.31 97.2691 110.711 100.166L111.63 101.942ZM111.313 84.8946L107.256 82.9782L106.402 84.7865L110.459 86.703L111.313 84.8946ZM107.289 84.7705L111.63 82.5247L110.711 80.7483L106.37 82.9942L107.289 84.7705ZM111.63 82.5247C118.707 78.8633 118.498 68.8715 111.313 65.4769L110.459 67.2853C116.153 69.9758 116.31 77.8514 110.711 80.7484L111.63 82.5247ZM111.313 65.4769L107.253 63.559L106.399 65.3674L110.459 67.2853L111.313 65.4769ZM110.711 61.3277L106.367 63.575L107.286 65.3514L111.63 63.1041L110.711 61.3277ZM110.459 47.8647C116.153 50.5552 116.31 58.4308 110.711 61.3277L111.63 63.1041C118.707 59.4427 118.498 49.4509 111.313 46.0563L110.459 47.8647ZM85.9886 36.3038L110.459 47.8647L111.313 46.0563L86.843 34.4955L85.9886 36.3038ZM99.3831 67.1878L86.4242 73.8918L87.3432 75.6682L100.302 68.9642L99.3831 67.1878ZM86.4242 73.8918C82.5087 75.9177 77.813 75.9177 73.897 73.8918L72.978 75.6682C77.4703 77.9923 82.8513 77.9923 87.3433 75.6682L86.4242 73.8918ZM73.897 73.8918L60.9383 67.1879L60.0194 68.9642L72.978 75.6682L73.897 73.8918ZM52.5328 72.9361L60.906 68.9802L60.0517 67.1719L51.6784 71.1278L52.5328 72.9361ZM52.4826 75.1971C51.4914 74.6843 51.5043 73.4221 52.5328 72.9361L51.6784 71.1278C49.1515 72.3218 49.1028 75.7004 51.5636 76.9735L52.4826 75.1971ZM62.346 80.2998L52.4825 75.1971L51.5636 76.9735L61.4271 82.0762L62.346 80.2998ZM62.5584 80.4102C62.4791 80.3659 62.3984 80.3242 62.3166 80.2852L61.4565 82.0908C61.4989 82.111 61.5405 82.1325 61.5814 82.1554L62.5584 80.4102ZM76.769 87.7613L62.5294 80.3946L61.6104 82.171L75.8501 89.5376L76.769 87.7613ZM83.5526 87.7612C81.4379 88.8551 78.8838 88.8551 76.769 87.7612L75.8501 89.5377C78.5412 90.9296 81.7804 90.9296 84.4715 89.5377L83.5526 87.7612ZM97.7915 80.395L83.5526 87.7613L84.4715 89.5376L98.7105 82.1713L97.7915 80.395ZM98.0056 80.2848C97.9233 80.324 97.8421 80.366 97.7623 80.4107L98.7396 82.1556C98.7808 82.1326 98.8227 82.1109 98.8653 82.0906L98.0056 80.2848ZM107.839 75.1971L97.976 80.2995L98.8949 82.0759L108.758 76.9735L107.839 75.1971ZM107.789 72.9361C108.817 73.4221 108.83 74.6843 107.839 75.1971L108.758 76.9734C111.218 75.7004 111.17 72.3218 108.643 71.1278L107.789 72.9361ZM99.4154 68.9802L107.789 72.9361L108.643 71.1278L100.27 67.1719L99.4154 68.9802ZM84.173 40.1466C81.643 38.9511 78.6782 38.9511 76.1482 40.1466L77.0026 41.9549C78.9917 41.015 81.3295 41.015 83.3186 41.9549L84.173 40.1466ZM108.643 51.7074L84.173 40.1465L83.3186 41.9549L107.789 53.5158L108.643 51.7074ZM108.758 57.5529C111.218 56.2799 111.17 52.9013 108.643 51.7074L107.789 53.5157C108.817 54.0016 108.83 55.2638 107.839 55.7766L108.758 57.5529ZM84.4716 70.1173L108.758 57.5529L107.839 55.7766L83.5526 68.341L84.4716 70.1173ZM75.8501 70.1174C78.5412 71.5093 81.7804 71.5093 84.4715 70.1174L83.5526 68.341C81.4379 69.4348 78.8838 69.4348 76.769 68.341L75.8501 70.1174ZM51.5636 57.5529L75.8501 70.1173L76.7691 68.341L52.4826 55.7766L51.5636 57.5529ZM51.6784 51.7074C49.1515 52.9012 49.1029 56.2799 51.5636 57.5529L52.4826 55.7766C51.4913 55.2638 51.5044 54.0016 52.5328 53.5158L51.6784 51.7074ZM76.1482 40.1465L51.6784 51.7074L52.5328 53.5158L77.0026 41.9549L76.1482 40.1465ZM60.0491 86.5912L51.6784 90.5459L52.5328 92.3542L60.9034 88.3996L60.0491 86.5912ZM73.897 93.3125L60.9357 86.6072L60.0168 88.3836L72.978 95.0889L73.897 93.3125ZM86.4243 93.3125C82.5087 95.338 77.8129 95.338 73.8969 93.3125L72.9781 95.0889C77.4704 97.4125 82.8512 97.4126 87.3432 95.0889L86.4243 93.3125ZM99.3857 86.6072L86.4242 93.3125L87.3432 95.0889L100.305 88.3835L99.3857 86.6072ZM108.643 90.5459L100.272 86.5912L99.418 88.3995L107.789 92.3542L108.643 90.5459ZM108.758 96.3911C111.218 95.1182 111.17 91.7395 108.643 90.5458L107.789 92.3543C108.817 92.8398 108.83 94.1019 107.839 94.6148L108.758 96.3911ZM84.4716 108.956L108.758 96.3911L107.839 94.6148L83.5526 107.179L84.4716 108.956ZM75.8501 108.956C78.5412 110.348 81.7804 110.348 84.4715 108.956L83.5526 107.179C81.4379 108.273 78.8838 108.273 76.769 107.179L75.8501 108.956ZM51.5636 96.3911L75.8501 108.956L76.7691 107.179L52.4826 94.6148L51.5636 96.3911ZM51.6785 90.5458C49.1513 91.7394 49.103 95.1182 51.5636 96.3911L52.4826 94.6148C51.4912 94.1019 51.5045 92.8398 52.5327 92.3543L51.6785 90.5458Z" fill="url(#paint1_linear_3163_85620)"/>
  <path d="M128.5 53V105C128.5 116.598 119.098 126 107.5 126H52.5C40.902 126 31.5 116.598 31.5 105V53" stroke="url(#paint2_linear_3163_85620)" stroke-width="9" stroke-linecap="round"/>
  <defs>
  <linearGradient id="paint0_linear_3163_85620" x1="93.3371" y1="30.9531" x2="66.1504" y2="94.7087" gradientUnits="userSpaceOnUse">
  <stop stop-color="#33353F"/>
  <stop offset="1" stop-color="#262830"/>
  </linearGradient>
  <linearGradient id="paint1_linear_3163_85620" x1="93.3371" y1="30.9531" x2="66.1504" y2="94.7087" gradientUnits="userSpaceOnUse">
  <stop stop-color="#33353F"/>
  <stop offset="1" stop-color="#262830"/>
  </linearGradient>
  <linearGradient id="paint2_linear_3163_85620" x1="97.9203" y1="50.2625" x2="80.2519" y2="112.983" gradientUnits="userSpaceOnUse">
  <stop stop-color="#33353F"/>
  <stop offset="1" stop-color="#262830"/>
  </linearGradient>
  </defs>
  </svg>
