<svg xmlns="http://www.w3.org/2000/svg" width="106" height="98" viewBox="0 0 106 98" fill="none">
  <path fill-rule="evenodd" clip-rule="evenodd" d="M59.4158 2.39962C55.4658 0.533458 50.8558 0.533458 46.9058 2.39962L22.4358 13.9605C15.9959 17.003 15.8127 25.9367 22.1512 29.2159L26.4952 31.4632L22.4358 33.3811C15.9959 36.4236 15.8127 45.3574 22.1512 48.6365L26.4923 50.8823L22.4358 52.7988C15.9959 55.8413 15.8127 64.775 22.1512 68.0542L46.4375 80.6184C50.6416 82.7934 55.68 82.7934 59.8837 80.6184L84.1704 68.0542C90.5087 64.775 90.3254 55.8413 83.8858 52.7988L79.8292 50.8823L84.1704 48.6365C90.5087 45.3574 90.3254 36.4236 83.8858 33.3811L79.8263 31.4632L84.1704 29.2159C90.5087 25.9367 90.3254 17.0031 83.8858 13.9605L59.4158 2.39962ZM72.8426 35.076L59.8837 41.78C55.68 43.955 50.6416 43.955 46.4375 41.78L33.4789 35.0761L25.1056 39.0319C23.3279 39.8719 23.2971 42.1924 25.0231 43.0853L34.8866 48.188C34.9486 48.2176 35.0098 48.2492 35.0699 48.2828L49.3096 55.6494C51.7125 56.8924 54.6091 56.8924 57.0121 55.6494L71.251 48.2831C71.3114 48.2493 71.373 48.2174 71.4355 48.1877L81.2983 43.0853C83.0241 42.1924 82.9933 39.8719 81.2158 39.0319L72.8426 35.076ZM49.5754 8.05071C51.835 6.98308 54.4862 6.98308 56.7458 8.05071L81.2158 19.6116C82.9933 20.4514 83.0241 22.7718 81.2983 23.6647L57.0121 36.2292C54.6091 37.4721 51.7125 37.4721 49.3096 36.2292L25.0231 23.6647C23.2971 22.7718 23.3279 20.4514 25.1056 19.6116L49.5754 8.05071ZM25.1056 58.45L33.4763 54.4954L46.4375 61.2007C50.6416 63.3753 55.68 63.3753 59.8837 61.2007L72.8452 54.4954L81.2158 58.45C82.9933 59.2896 83.0241 61.61 81.2983 62.503L57.0121 75.0676C54.6091 76.3105 51.7125 76.3105 49.3096 75.0676L25.0231 62.503C23.2971 61.61 23.3279 59.2896 25.1056 58.45Z" fill="url(#paint0_linear_3746_3038)"/>
  <path d="M46.9058 2.39962L46.4786 1.49545L46.4786 1.49546L46.9058 2.39962ZM59.4158 2.39962L59.843 1.49546V1.49545L59.4158 2.39962ZM22.4358 13.9605L22.0086 13.0563L22.0086 13.0563L22.4358 13.9605ZM22.1512 29.2159L22.6107 28.3277H22.6107L22.1512 29.2159ZM26.4952 31.4632L26.9224 32.3673L28.7501 31.5038L26.9547 30.575L26.4952 31.4632ZM22.4358 33.3811L22.8629 34.2853L22.863 34.2853L22.4358 33.3811ZM22.1512 48.6365L21.6917 49.5247H21.6917L22.1512 48.6365ZM26.4923 50.8823L26.9195 51.7865L28.7472 50.923L26.9518 49.9941L26.4923 50.8823ZM22.4358 52.7988L22.0086 51.8946H22.0086L22.4358 52.7988ZM22.1512 68.0542L21.6917 68.9424H21.6917L22.1512 68.0542ZM46.4375 80.6184L46.897 79.7302L46.897 79.7302L46.4375 80.6184ZM59.8837 80.6184L59.4242 79.7302L59.4242 79.7302L59.8837 80.6184ZM84.1704 68.0542L84.6299 68.9424L84.6299 68.9424L84.1704 68.0542ZM83.8858 52.7988L84.313 51.8946L84.313 51.8946L83.8858 52.7988ZM79.8292 50.8823L79.3697 49.9942L77.5743 50.923L79.4021 51.7865L79.8292 50.8823ZM84.1704 48.6365L84.6299 49.5247L84.6299 49.5247L84.1704 48.6365ZM83.8858 33.3811L84.313 32.4769L84.313 32.4769L83.8858 33.3811ZM79.8263 31.4632L79.3668 30.575L77.5714 31.5038L79.3991 32.3674L79.8263 31.4632ZM84.1704 29.2159L84.6299 30.1041L84.6299 30.1041L84.1704 29.2159ZM83.8858 13.9605L84.313 13.0563L84.313 13.0563L83.8858 13.9605ZM72.8426 35.076L73.2698 34.1719L72.8225 33.9605L72.3831 34.1878L72.8426 35.076ZM59.8837 41.78L59.4242 40.8918L59.4242 40.8918L59.8837 41.78ZM46.4375 41.78L46.897 40.8918L46.897 40.8918L46.4375 41.78ZM33.4789 35.0761L33.9383 34.1879L33.499 33.9606L33.0517 34.1719L33.4789 35.0761ZM25.1056 39.0319L24.6784 38.1278L24.6784 38.1278L25.1056 39.0319ZM25.0231 43.0853L24.5636 43.9735L24.5636 43.9735L25.0231 43.0853ZM34.8866 48.188L34.4271 49.0762L34.4417 49.0837L34.4565 49.0908L34.8866 48.188ZM35.0699 48.2828L34.5814 49.1554L34.5958 49.1634L34.6104 49.171L35.0699 48.2828ZM49.3096 55.6494L48.8501 56.5376L48.8501 56.5377L49.3096 55.6494ZM57.0121 55.6494L57.4715 56.5377L57.4715 56.5376L57.0121 55.6494ZM71.251 48.2831L71.7105 49.1713L71.7252 49.1637L71.7396 49.1556L71.251 48.2831ZM71.4355 48.1877L71.8653 49.0906L71.8802 49.0835L71.8949 49.0759L71.4355 48.1877ZM81.2983 43.0853L81.7578 43.9735L81.7578 43.9734L81.2983 43.0853ZM81.2158 39.0319L81.6431 38.1278L81.643 38.1278L81.2158 39.0319ZM56.7458 8.05071L56.3186 8.95486L56.3186 8.95488L56.7458 8.05071ZM49.5754 8.05071L50.0026 8.95487L50.0026 8.95486L49.5754 8.05071ZM81.2158 19.6116L81.643 18.7074L81.643 18.7074L81.2158 19.6116ZM81.2983 23.6647L81.7578 24.5529L81.7578 24.5529L81.2983 23.6647ZM57.0121 36.2292L57.4715 37.1174L57.4716 37.1173L57.0121 36.2292ZM49.3096 36.2292L48.8501 37.1173L48.8501 37.1174L49.3096 36.2292ZM25.0231 23.6647L24.5636 24.5529L24.5636 24.5529L25.0231 23.6647ZM25.1056 19.6116L25.5328 20.5158L25.5328 20.5158L25.1056 19.6116ZM33.4763 54.4954L33.9357 53.6072L33.4964 53.3799L33.0491 53.5912L33.4763 54.4954ZM25.1056 58.45L25.5327 59.3543L25.5328 59.3542L25.1056 58.45ZM46.4375 61.2007L45.978 62.0889L45.9781 62.0889L46.4375 61.2007ZM59.8837 61.2007L60.3432 62.0889L60.3432 62.0889L59.8837 61.2007ZM72.8452 54.4954L73.2724 53.5912L72.8251 53.3799L72.3857 53.6072L72.8452 54.4954ZM81.2158 58.45L80.7886 59.3542L80.7887 59.3543L81.2158 58.45ZM81.2983 62.503L81.7578 63.3911L81.7578 63.3911L81.2983 62.503ZM57.0121 75.0676L57.4715 75.9558L57.4716 75.9557L57.0121 75.0676ZM49.3096 75.0676L48.8501 75.9557L48.8501 75.9558L49.3096 75.0676ZM25.0231 62.503L25.4826 61.6148H25.4826L25.0231 62.503ZM47.333 3.3038C51.0125 1.5654 55.3091 1.5654 58.9886 3.3038L59.843 1.49545C55.6225 -0.498485 50.6991 -0.498485 46.4786 1.49545L47.333 3.3038ZM22.8629 14.8647L47.333 3.30379L46.4786 1.49546L22.0086 13.0563L22.8629 14.8647ZM22.6107 28.3277C17.0111 25.4308 17.1681 17.5552 22.8629 14.8647L22.0086 13.0563C14.8236 16.4509 14.6144 26.4427 21.6917 30.1041L22.6107 28.3277ZM26.9547 30.575L22.6107 28.3277L21.6917 30.1041L26.0357 32.3514L26.9547 30.575ZM26.068 30.559L22.0086 32.4769L22.863 34.2853L26.9224 32.3673L26.068 30.559ZM22.0086 32.4769C14.8236 35.8715 14.6144 45.8633 21.6917 49.5247L22.6107 47.7483C17.0111 44.8514 17.1681 36.9758 22.8629 34.2853L22.0086 32.4769ZM21.6917 49.5247L26.0328 51.7705L26.9518 49.9941L22.6107 47.7483L21.6917 49.5247ZM26.0651 49.9781L22.0086 51.8946L22.8629 53.703L26.9195 51.7865L26.0651 49.9781ZM22.0086 51.8946C14.8236 55.2891 14.6144 65.281 21.6917 68.9424L22.6107 67.166C17.0111 64.2691 17.1681 56.3935 22.8629 53.703L22.0086 51.8946ZM21.6917 68.9424L45.978 81.5066L46.897 79.7302L22.6107 67.166L21.6917 68.9424ZM45.978 81.5066C50.4703 83.8307 55.8513 83.8307 60.3433 81.5065L59.4242 79.7302C55.5087 81.7561 50.813 81.7561 46.897 79.7302L45.978 81.5066ZM60.3432 81.5066L84.6299 68.9424L83.7109 67.166L59.4242 79.7302L60.3432 81.5066ZM84.6299 68.9424C91.7071 65.281 91.4976 55.2891 84.313 51.8946L83.4586 53.703C89.1532 56.3935 89.3103 64.2691 83.7109 67.166L84.6299 68.9424ZM84.313 51.8946L80.2564 49.9782L79.4021 51.7865L83.4587 53.703L84.313 51.8946ZM80.2887 51.7705L84.6299 49.5247L83.7109 47.7483L79.3697 49.9942L80.2887 51.7705ZM84.6299 49.5247C91.7071 45.8633 91.4976 35.8715 84.313 32.4769L83.4586 34.2853C89.1532 36.9758 89.3103 44.8514 83.7109 47.7484L84.6299 49.5247ZM84.313 32.4769L80.2535 30.559L79.3991 32.3674L83.4586 34.2853L84.313 32.4769ZM83.7109 28.3277L79.3668 30.575L80.2858 32.3514L84.6299 30.1041L83.7109 28.3277ZM83.4586 14.8647C89.1532 17.5552 89.3103 25.4308 83.7109 28.3277L84.6299 30.1041C91.7071 26.4427 91.4976 16.4509 84.313 13.0563L83.4586 14.8647ZM58.9886 3.30379L83.4586 14.8647L84.313 13.0563L59.843 1.49546L58.9886 3.30379ZM72.3831 34.1878L59.4242 40.8918L60.3432 42.6682L73.3021 35.9642L72.3831 34.1878ZM59.4242 40.8918C55.5087 42.9177 50.813 42.9177 46.897 40.8918L45.978 42.6682C50.4703 44.9923 55.8513 44.9923 60.3433 42.6682L59.4242 40.8918ZM46.897 40.8918L33.9383 34.1879L33.0194 35.9642L45.978 42.6682L46.897 40.8918ZM25.5328 39.9361L33.906 35.9802L33.0517 34.1719L24.6784 38.1278L25.5328 39.9361ZM25.4826 42.1971C24.4914 41.6843 24.5043 40.4221 25.5328 39.9361L24.6784 38.1278C22.1515 39.3218 22.1028 42.7004 24.5636 43.9735L25.4826 42.1971ZM35.346 47.2998L25.4825 42.1971L24.5636 43.9735L34.4271 49.0762L35.346 47.2998ZM35.5584 47.4102C35.4791 47.3659 35.3984 47.3242 35.3166 47.2852L34.4565 49.0908C34.4989 49.111 34.5405 49.1325 34.5814 49.1554L35.5584 47.4102ZM49.769 54.7613L35.5294 47.3946L34.6104 49.171L48.8501 56.5376L49.769 54.7613ZM56.5526 54.7612C54.4379 55.8551 51.8838 55.8551 49.769 54.7612L48.8501 56.5377C51.5412 57.9296 54.7804 57.9296 57.4715 56.5377L56.5526 54.7612ZM70.7915 47.395L56.5526 54.7613L57.4715 56.5376L71.7105 49.1713L70.7915 47.395ZM71.0056 47.2848C70.9233 47.324 70.8421 47.366 70.7623 47.4107L71.7396 49.1556C71.7808 49.1326 71.8227 49.1109 71.8653 49.0906L71.0056 47.2848ZM80.8388 42.1971L70.976 47.2995L71.8949 49.0759L81.7578 43.9735L80.8388 42.1971ZM80.7885 39.9361C81.8169 40.4221 81.8299 41.6843 80.8388 42.1971L81.7578 43.9734C84.2184 42.7004 84.1697 39.3218 81.6431 38.1278L80.7885 39.9361ZM72.4154 35.9802L80.7886 39.9361L81.643 38.1278L73.2698 34.1719L72.4154 35.9802ZM57.173 7.14655C54.643 5.95113 51.6782 5.95113 49.1482 7.14655L50.0026 8.95486C51.9917 8.01503 54.3295 8.01503 56.3186 8.95486L57.173 7.14655ZM81.643 18.7074L57.173 7.14654L56.3186 8.95488L80.7886 20.5158L81.643 18.7074ZM81.7578 24.5529C84.2183 23.2799 84.1698 19.9013 81.643 18.7074L80.7886 20.5157C81.8168 21.0016 81.8299 22.2638 80.8388 22.7766L81.7578 24.5529ZM57.4716 37.1173L81.7578 24.5529L80.8388 22.7766L56.5526 35.341L57.4716 37.1173ZM48.8501 37.1174C51.5412 38.5093 54.7804 38.5093 57.4715 37.1174L56.5526 35.341C54.4379 36.4348 51.8838 36.4348 49.769 35.341L48.8501 37.1174ZM24.5636 24.5529L48.8501 37.1173L49.7691 35.341L25.4826 22.7766L24.5636 24.5529ZM24.6784 18.7074C22.1515 19.9012 22.1029 23.2799 24.5636 24.5529L25.4826 22.7766C24.4913 22.2638 24.5044 21.0016 25.5328 20.5158L24.6784 18.7074ZM49.1482 7.14654L24.6784 18.7074L25.5328 20.5158L50.0026 8.95487L49.1482 7.14654ZM33.0491 53.5912L24.6784 57.5459L25.5328 59.3542L33.9034 55.3996L33.0491 53.5912ZM46.897 60.3125L33.9357 53.6072L33.0168 55.3836L45.978 62.0889L46.897 60.3125ZM59.4243 60.3125C55.5087 62.338 50.8129 62.338 46.8969 60.3125L45.9781 62.0889C50.4704 64.4125 55.8512 64.4126 60.3432 62.0889L59.4243 60.3125ZM72.3857 53.6072L59.4242 60.3125L60.3432 62.0889L73.3047 55.3835L72.3857 53.6072ZM81.643 57.5459L73.2724 53.5912L72.418 55.3995L80.7886 59.3542L81.643 57.5459ZM81.7578 63.3911C84.2182 62.1182 84.1699 58.7395 81.6429 57.5458L80.7887 59.3543C81.8167 59.8398 81.8301 61.1019 80.8388 61.6148L81.7578 63.3911ZM57.4716 75.9557L81.7578 63.3911L80.8388 61.6148L56.5526 74.1794L57.4716 75.9557ZM48.8501 75.9558C51.5412 77.3477 54.7804 77.3477 57.4715 75.9558L56.5526 74.1793C54.4379 75.2732 51.8838 75.2732 49.769 74.1793L48.8501 75.9558ZM24.5636 63.3911L48.8501 75.9557L49.7691 74.1794L25.4826 61.6148L24.5636 63.3911ZM24.6785 57.5458C22.1513 58.7394 22.103 62.1182 24.5636 63.3911L25.4826 61.6148C24.4912 61.1019 24.5045 59.8398 25.5327 59.3543L24.6785 57.5458Z" fill="url(#paint1_linear_3746_3038)"/>
  <path d="M101.5 20V72C101.5 83.598 92.098 93 80.5 93H25.5C13.902 93 4.5 83.598 4.5 72V20" stroke="url(#paint2_linear_3746_3038)" stroke-width="9" stroke-linecap="round"/>
  <defs>
    <linearGradient id="paint0_linear_3746_3038" x1="66.3371" y1="-2.04686" x2="39.1504" y2="61.7087" gradientUnits="userSpaceOnUse">
      <stop stop-color="#33353F"/>
      <stop offset="1" stop-color="#262830"/>
    </linearGradient>
    <linearGradient id="paint1_linear_3746_3038" x1="66.3371" y1="-2.04686" x2="39.1504" y2="61.7087" gradientUnits="userSpaceOnUse">
      <stop stop-color="#33353F"/>
      <stop offset="1" stop-color="#262830"/>
    </linearGradient>
    <linearGradient id="paint2_linear_3746_3038" x1="70.9203" y1="17.2625" x2="53.2519" y2="79.9833" gradientUnits="userSpaceOnUse">
      <stop stop-color="#33353F"/>
      <stop offset="1" stop-color="#262830"/>
    </linearGradient>
  </defs>
</svg>
