<svg xmlns="http://www.w3.org/2000/svg" width="108" height="118" viewBox="0 0 108 118" fill="none">
  <path fill-rule="evenodd" clip-rule="evenodd" d="M51.4384 67.2317C52.8743 76.6068 44.8749 84.6068 35.5067 83.1777C29.5703 82.2827 24.8059 77.5018 23.8876 71.5859C22.4455 62.2109 30.4517 54.1978 39.8397 55.6268C45.7563 56.535 50.5337 61.3158 51.4384 67.2317ZM37.0459 73.041C39.5895 73.4287 41.6866 71.3186 41.2989 68.7811C41.0719 67.2988 39.7802 66.0037 38.2739 65.763C35.7467 65.376 33.6401 67.4991 34.0278 70.0229C34.2548 71.5189 35.5532 72.814 37.0459 73.041Z" fill="url(#paint0_linear_3746_4838)"/>
  <path fill-rule="evenodd" clip-rule="evenodd" d="M62.6925 41.9825C61.9349 40.82 60.9638 39.7847 59.8027 38.9415C58.9214 38.3138 58.0263 37.7263 57.108 37.1654C55.7726 36.3507 54.3873 35.6296 52.9549 35.0019C51.426 34.3208 49.8 34.0003 48.1836 34.0003C46.0906 34.0136 44.0174 34.5879 42.2144 35.6696L38.665 37.8064C38.5152 37.8865 38.228 38.0067 37.7002 37.9933C37.0793 37.9933 36.7853 37.8865 36.6554 37.8064L33.1067 35.683C29.8779 33.7332 25.865 33.4394 22.3525 35.0019C19.9387 36.0836 17.6483 37.3924 15.5149 38.9415L15.5049 38.9549C14.1627 39.9297 13.0777 41.1584 12.2797 42.5473C11.2347 44.3769 10.6939 46.4602 10.7272 48.597L10.794 52.7236V52.7236C10.794 52.7903 10.794 52.8705 10.7707 52.9773C10.7439 53.0975 10.6939 53.2444 10.607 53.4314C10.5839 53.4843 10.5542 53.5373 10.5244 53.5902L10.5236 53.5916C10.5153 53.605 10.507 53.6216 10.4986 53.6383C10.4902 53.655 10.4819 53.6717 10.4735 53.6851C10.4349 53.7488 10.3946 53.8124 10.3571 53.8719C10.3395 53.8997 10.3226 53.9266 10.3066 53.9522C10.2625 54.0226 10.2185 54.0725 10.1767 54.1198C10.171 54.1263 10.1653 54.1327 10.1597 54.1392C10.0027 54.3261 9.8759 54.4196 9.79576 54.4597L6.17996 56.4764C2.75453 58.3862 0.574355 61.8316 0.190424 65.6108C0.093603 66.5858 0.0335001 67.5472 0.0101155 68.5222C-0.0266025 70.0846 0.0368501 71.647 0.197055 73.1964C0.580987 76.9756 2.76116 80.4347 6.18666 82.3308L9.78906 84.3342C9.92594 84.4142 10.1797 84.6145 10.4602 85.0952L10.4669 85.1089C10.754 85.6026 10.8007 85.9369 10.794 86.0703L10.7272 90.1968C10.7006 91.9062 11.0377 93.5622 11.6955 95.085C12.5068 96.9544 13.8089 98.6104 15.5283 99.8658C17.655 101.415 19.9454 102.737 22.3661 103.805C23.7446 104.42 25.2038 104.74 26.6629 104.794C28.9132 104.874 31.1634 104.313 33.1128 103.124L36.6485 101.001C36.799 100.921 37.093 100.801 37.6133 100.814C38.241 100.814 38.535 100.921 38.6588 101.001L42.2075 103.124C45.4362 105.074 49.4561 105.368 52.9651 103.805C55.3822 102.723 57.6755 101.415 59.8089 99.8658L59.8157 99.8521C62.8557 97.632 64.5798 94.1216 64.5947 90.4581C63.3682 88.2994 62.6673 85.8028 62.6673 83.1398V74.1924L60.5535 75.3598L60.5467 75.3728C58.4667 76.5352 56.9911 78.218 55.9928 79.9274C55.9814 79.9468 55.9661 79.9792 55.9506 80.012C55.9345 80.046 55.9182 80.0805 55.906 80.101C55.3651 81.0624 54.9378 82.0504 54.6444 83.1725C54.3908 84.1339 54.2499 85.1622 54.2704 86.2439L54.3368 90.3841C54.3368 90.5038 54.3306 90.6111 54.3039 90.7308C54.2267 91.0781 54.0263 91.3851 53.7692 91.5725C52.2239 92.6939 50.5576 93.6559 48.7915 94.4436C48.4174 94.6036 47.9169 94.5906 47.4861 94.3369L43.9367 92.2132L43.9306 92.2002C41.8807 90.9715 39.6769 90.5578 37.6872 90.5578C37.0991 90.5578 36.5186 90.5844 35.9306 90.6645C34.4154 90.8511 32.8557 91.3188 31.3904 92.2002L31.3836 92.2132L27.8349 94.3369C27.4109 94.5906 26.9132 94.6036 26.5357 94.4436L26.5227 94.4306C24.773 93.6689 23.1101 92.6939 21.5512 91.5725C21.2107 91.3188 20.9703 90.8778 20.977 90.3704L21.0505 86.2569C21.0938 83.8398 20.346 81.7297 19.3711 80.0203C18.3428 78.2446 16.8671 76.5352 14.7604 75.3598L11.1646 73.3701L11.1579 73.3564C10.7673 73.1431 10.4602 72.7157 10.4068 72.168C10.2131 70.3253 10.2131 68.4819 10.4001 66.6528C10.4535 66.1051 10.7606 65.6641 11.1646 65.4371L14.7737 63.4344C16.8537 62.272 18.3294 60.5892 19.3277 58.8798C20.3493 57.0904 21.0938 54.9672 21.0505 52.5633L20.977 48.4234C20.977 48.3031 20.9904 48.1963 21.017 48.0761C21.0972 47.7289 21.2941 47.4218 21.5512 47.2348C23.0902 46.1263 24.7627 45.1514 26.5289 44.3635C26.8995 44.2032 27.3973 44.2167 27.828 44.4704L31.3836 46.5937L31.3904 46.6072C33.4335 47.8357 35.6441 48.2497 37.6338 48.2497C39.6769 48.2631 41.9005 47.8224 43.9504 46.5804L47.4793 44.4704C47.9101 44.2167 48.4079 44.2032 48.7846 44.3635L48.7983 44.3769C50.5508 45.1381 52.2103 46.113 53.7829 47.2482C53.9395 47.355 54.0831 47.5286 54.1836 47.7289C54.2834 47.9293 54.3436 48.1696 54.3368 48.4367L54.2704 52.55C54.2267 54.9538 54.9679 57.0904 55.9798 58.8402C56.9781 60.5626 58.4537 62.272 60.5603 63.4474L62.6673 64.6212V42.8543C62.6673 42.5616 62.6758 42.2709 62.6925 41.9825Z" fill="url(#paint1_linear_3746_4838)"/>
  <path fill-rule="evenodd" clip-rule="evenodd" d="M83 23.9998V5.6665C83 2.9051 85.2387 0.666504 88 0.666504C90.7613 0.666504 93 2.9051 93 5.6665V23.9998H93.1013C101.309 23.9998 107.999 30.6231 107.999 38.854V79.1395C107.999 87.3662 101.313 94.0002 93.1013 94.0002H93V112.333C93 115.095 90.7613 117.333 88 117.333C85.2387 117.333 83 115.095 83 112.333V94.0002H82.892C74.6847 94.0002 68 87.3635 68 79.1395V38.854C68 30.6252 74.6887 23.9998 82.892 23.9998H83ZM88 33.9998H82.892C80.1713 33.9998 78 36.1882 78 38.854V79.1395C78 81.8095 80.176 84.0002 82.892 84.0002H87.9414C87.9609 84 87.9805 83.9998 88 83.9998C88.0195 83.9998 88.0391 84 88.0585 84.0002H93.1013C95.826 84.0002 97.9993 81.8068 97.9993 79.1395V38.854C97.9993 36.1904 95.83 33.9998 93.1013 33.9998H88Z" fill="url(#paint2_linear_3746_4838)"/>
  <defs>
    <linearGradient id="paint0_linear_3746_4838" x1="42.8144" y1="54.4153" x2="34.326" y2="77.0962" gradientUnits="userSpaceOnUse">
      <stop stop-color="#33353F"/>
      <stop offset="1" stop-color="#262830"/>
    </linearGradient>
    <linearGradient id="paint1_linear_3746_4838" x1="44.231" y1="31.3447" x2="21.1704" y2="87.5471" gradientUnits="userSpaceOnUse">
      <stop stop-color="#33353F"/>
      <stop offset="1" stop-color="#262830"/>
    </linearGradient>
    <linearGradient id="paint2_linear_3746_4838" x1="95.3894" y1="-3.70849" x2="41.5007" y2="45.6507" gradientUnits="userSpaceOnUse">
      <stop stop-color="#33353F"/>
      <stop offset="1" stop-color="#262830"/>
    </linearGradient>
  </defs>
</svg>
