<svg width="112" height="112" viewBox="0 0 112 112" fill="none" xmlns="http://www.w3.org/2000/svg">
<path d="M74.6667 14.0001H37.3333C24.4467 14.0001 14 24.4467 14 37.3334V74.6667C14 87.5534 24.4467 98.0001 37.3333 98.0001H74.6667C87.5533 98.0001 98 87.5534 98 74.6667V37.3334C98 24.4467 87.5533 14.0001 74.6667 14.0001Z" fill="#17181A" stroke="url(#paint0_linear_5522_22956)" stroke-width="6" stroke-linecap="round" stroke-linejoin="round"/>
<path d="M32.667 42V70" stroke="white" stroke-width="6" stroke-linecap="round" stroke-linejoin="round"/>
<path d="M51.333 42L58.7334 49.4004" stroke="#4D5167" stroke-width="6" stroke-linecap="round" stroke-linejoin="round"/>
<path d="M79.333 70.0001L71.9326 62.5997" stroke="#343744" stroke-width="6" stroke-linecap="round" stroke-linejoin="round"/>
<path d="M51.333 70.0001L58.7334 62.5997" stroke="#313340" stroke-width="6" stroke-linecap="round" stroke-linejoin="round"/>
<path d="M79.333 42L71.9326 49.4004" stroke="#5B607B" stroke-width="6" stroke-linecap="round" stroke-linejoin="round"/>
<path d="M65.3333 65.3334C70.488 65.3334 74.6667 61.1547 74.6667 56.0001C74.6667 50.8454 70.488 46.6667 65.3333 46.6667C60.1787 46.6667 56 50.8454 56 56.0001C56 61.1547 60.1787 65.3334 65.3333 65.3334Z" fill="#17181A" stroke="url(#paint1_linear_5522_22956)" stroke-width="6" stroke-linecap="round" stroke-linejoin="round"/>
<defs>
<linearGradient id="paint0_linear_5522_22956" x1="-21.5" y1="-12" x2="114.858" y2="109.476" gradientUnits="userSpaceOnUse">
<stop stop-color="#FF00C7"/>
<stop offset="1" stop-color="#00A3FF"/>
</linearGradient>
<linearGradient id="paint1_linear_5522_22956" x1="68.7819" y1="45.9667" x2="63.0985" y2="61.1502" gradientUnits="userSpaceOnUse">
<stop stop-color="#5B607B"/>
<stop offset="1" stop-color="#30333F"/>
</linearGradient>
</defs>
</svg>
