
<svg width="160" height="160" viewBox="0 0 160 160" fill="none" xmlns="http://www.w3.org/2000/svg">
  <path fill-rule="evenodd" clip-rule="evenodd" d="M77.4384 88.2317C78.8743 97.6068 70.8749 105.607 61.5067 104.178C55.5703 103.283 50.8059 98.5018 49.8876 92.5859C48.4455 83.2109 56.4517 75.1978 65.8397 76.6268C71.7563 77.535 76.5337 82.3158 77.4384 88.2317ZM63.0459 94.041C65.5895 94.4287 67.6866 92.3186 67.2989 89.7811C67.0719 88.2988 65.7802 87.0037 64.2739 86.763C61.7467 86.376 59.6401 88.4991 60.0278 91.0229C60.2548 92.5189 61.5532 93.814 63.0459 94.041Z" fill="url(#paint0_linear_3163_85611)"/>
  <path fill-rule="evenodd" clip-rule="evenodd" d="M88.6925 62.9824C87.9348 61.82 86.9638 60.7847 85.8027 59.9415C84.9214 59.3138 84.0263 58.7263 83.108 58.1654C81.7726 57.3507 80.3873 56.6296 78.9549 56.0019C77.426 55.3208 75.8 55.0003 74.1836 55.0003C72.0906 55.0136 70.0174 55.5879 68.2144 56.6696L64.665 58.8064C64.5152 58.8865 64.228 59.0067 63.7002 58.9933C63.0793 58.9933 62.7853 58.8865 62.6554 58.8064L59.1067 56.683C55.8779 54.7332 51.865 54.4394 48.3525 56.0019C45.9387 57.0836 43.6483 58.3924 41.5149 59.9415L41.5049 59.9549C40.1627 60.9297 39.0777 62.1584 38.2797 63.5473C37.2347 65.3769 36.6939 67.4602 36.7272 69.597L36.794 73.7236V73.7236C36.794 73.7903 36.794 73.8705 36.7707 73.9773C36.7439 74.0975 36.6939 74.2444 36.607 74.4314C36.5839 74.4843 36.5542 74.5373 36.5244 74.5902L36.5236 74.5916C36.5153 74.605 36.507 74.6216 36.4986 74.6383C36.4902 74.655 36.4819 74.6717 36.4735 74.6851C36.4349 74.7488 36.3946 74.8124 36.3571 74.8719C36.3395 74.8997 36.3226 74.9266 36.3066 74.9522C36.2625 75.0226 36.2185 75.0725 36.1767 75.1198C36.171 75.1263 36.1653 75.1327 36.1597 75.1392C36.0027 75.3261 35.8759 75.4196 35.7958 75.4597L32.18 77.4764C28.7545 79.3862 26.5744 82.8316 26.1904 86.6108C26.0936 87.5858 26.0335 88.5472 26.0101 89.5222C25.9734 91.0846 26.0369 92.647 26.1971 94.1964C26.581 97.9756 28.7612 101.435 32.1867 103.331L35.7891 105.334C35.9259 105.414 36.1797 105.615 36.4602 106.095L36.4669 106.109C36.754 106.603 36.8007 106.937 36.794 107.07L36.7272 111.197C36.7006 112.906 37.0377 114.562 37.6955 116.085C38.5068 117.954 39.8089 119.61 41.5283 120.866C43.655 122.415 45.9454 123.737 48.3661 124.805C49.7446 125.42 51.2038 125.74 52.6629 125.794C54.9132 125.874 57.1634 125.313 59.1128 124.124L62.6485 122.001C62.799 121.921 63.093 121.801 63.6133 121.814C64.241 121.814 64.535 121.921 64.6588 122.001L68.2075 124.124C71.4362 126.074 75.4561 126.368 78.9651 124.805C81.3822 123.723 83.6755 122.415 85.8089 120.866L85.8157 120.852C88.8557 118.632 90.5798 115.122 90.5947 111.458C89.3682 109.299 88.6673 106.803 88.6673 104.14V95.1924L86.5535 96.3598L86.5467 96.3728C84.4667 97.5352 82.9911 99.218 81.9928 100.927C81.9814 100.947 81.9661 100.979 81.9506 101.012C81.9345 101.046 81.9182 101.08 81.906 101.101C81.3651 102.062 80.9378 103.05 80.6444 104.172C80.3908 105.134 80.2499 106.162 80.2704 107.244L80.3368 111.384C80.3368 111.504 80.3306 111.611 80.3039 111.731C80.2267 112.078 80.0263 112.385 79.7692 112.572C78.2239 113.694 76.5576 114.656 74.7915 115.444C74.4174 115.604 73.9169 115.591 73.4861 115.337L69.9367 113.213L69.9306 113.2C67.8807 111.971 65.6769 111.558 63.6872 111.558C63.0991 111.558 62.5186 111.584 61.9306 111.664C60.4154 111.851 58.8557 112.319 57.3904 113.2L57.3836 113.213L53.8349 115.337C53.4109 115.591 52.9132 115.604 52.5357 115.444L52.5227 115.431C50.773 114.669 49.1101 113.694 47.5512 112.572C47.2107 112.319 46.9703 111.878 46.977 111.37L47.0505 107.257C47.0938 104.84 46.346 102.73 45.3711 101.02C44.3428 99.2446 42.8671 97.5352 40.7604 96.3598L37.1646 94.3701L37.1579 94.3564C36.7673 94.1431 36.4602 93.7157 36.4068 93.168C36.2131 91.3253 36.2131 89.4819 36.4001 87.6528C36.4535 87.1051 36.7606 86.6641 37.1646 86.4371L40.7737 84.4344C42.8537 83.272 44.3294 81.5892 45.3277 79.8798C46.3493 78.0904 47.0938 75.9672 47.0505 73.5633L46.977 69.4234C46.977 69.3031 46.9904 69.1963 47.017 69.0761C47.0972 68.7289 47.2941 68.4218 47.5512 68.2348C49.0902 67.1263 50.7627 66.1514 52.5289 65.3635C52.8995 65.2032 53.3973 65.2167 53.828 65.4704L57.3836 67.5937L57.3904 67.6072C59.4335 68.8357 61.6441 69.2497 63.6338 69.2497C65.6769 69.2631 67.9005 68.8224 69.9504 67.5804L73.4793 65.4704C73.9101 65.2167 74.4079 65.2032 74.7846 65.3635L74.7983 65.3769C76.5508 66.1381 78.2103 67.113 79.7829 68.2482C79.9395 68.355 80.0831 68.5286 80.1836 68.7289C80.2834 68.9293 80.3436 69.1696 80.3368 69.4367L80.2704 73.55C80.2267 75.9538 80.9679 78.0904 81.9798 79.8402C82.9781 81.5626 84.4537 83.272 86.5603 84.4474L88.6673 85.6212V63.8541C88.6673 63.5615 88.6758 63.2708 88.6925 62.9824Z" fill="url(#paint1_linear_3163_85611)"/>
  <path fill-rule="evenodd" clip-rule="evenodd" d="M109 44.9998V26.6665C109 23.9051 111.239 21.6665 114 21.6665C116.761 21.6665 119 23.9051 119 26.6665V44.9998H119.101C127.309 44.9998 133.999 51.6231 133.999 59.854V100.14C133.999 108.366 127.313 115 119.101 115H119V133.334C119 136.095 116.761 138.334 114 138.334C111.239 138.334 109 136.095 109 133.334V115H108.892C100.685 115 94 108.364 94 100.14V59.854C94 51.6252 100.689 44.9998 108.892 44.9998H109ZM114 54.9998H108.892C106.171 54.9998 104 57.1882 104 59.854V100.14C104 102.81 106.176 105 108.892 105H114H119.101C121.826 105 123.999 102.807 123.999 100.14V59.854C123.999 57.1904 121.83 54.9998 119.101 54.9998H114Z" fill="url(#paint2_linear_3163_85611)"/>
  <defs>
  <linearGradient id="paint0_linear_3163_85611" x1="68.8144" y1="75.4153" x2="60.326" y2="98.0962" gradientUnits="userSpaceOnUse">
  <stop stop-color="#33353F"/>
  <stop offset="1" stop-color="#262830"/>
  </linearGradient>
  <linearGradient id="paint1_linear_3163_85611" x1="70.231" y1="52.3447" x2="47.1704" y2="108.547" gradientUnits="userSpaceOnUse">
  <stop stop-color="#33353F"/>
  <stop offset="1" stop-color="#262830"/>
  </linearGradient>
  <linearGradient id="paint2_linear_3163_85611" x1="121.389" y1="17.2915" x2="67.5005" y2="66.6506" gradientUnits="userSpaceOnUse">
  <stop stop-color="#33353F"/>
  <stop offset="1" stop-color="#262830"/>
  </linearGradient>
  </defs>
  </svg>
