<svg xmlns="http://www.w3.org/2000/svg" width="33" height="33" viewBox="0 0 33 33" fill="none">
  <path d="M4.11391 20.1148L7.73095 16.5007L4.11391 12.8866L0.5 16.5007L4.11391 20.1148Z" fill="black"/>
  <path d="M22.693 13.9215L16.5 7.72502L10.307 13.9215L6.69304 10.3074L16.5 0.5L26.307 10.3074L22.693 13.9215Z" fill="black"/>
  <path d="M25.2753 16.5007L28.8892 12.8866L32.5 16.5007L28.8892 20.1148L25.2753 16.5007Z" fill="black"/>
  <path d="M10.307 19.0831L16.5 25.2764L22.693 19.0831L26.307 22.694L16.5 32.5014L6.69304 22.694L10.307 19.0831Z" fill="black"/>
  <path d="M20.1139 16.5007L16.5 20.1148L12.8861 16.5007L16.5 12.8866L20.1139 16.5007Z" fill="black"/>
</svg>
