<svg xmlns="http://www.w3.org/2000/svg" width="64" height="84" viewBox="0 0 64 84" fill="none">
  <g opacity="0.2">
    <path d="M-45.9478 67.5522L-32.3839 54L-45.9478 40.4478L-59.5 54L-45.9478 67.5522Z" stroke="white" stroke-opacity="0.96" stroke-width="4"/>
    <path d="M23.7239 44.3283L0.500008 21.0926L-22.7239 44.3283L-36.2761 30.7761L0.500008 -6L37.2761 30.7761L23.7239 44.3283Z" stroke="white" stroke-opacity="0.96" stroke-width="4"/>
    <path d="M33.4074 54L46.9595 40.4478L60.5 54L46.9595 67.5522L33.4074 54Z" stroke="white" stroke-opacity="0.96" stroke-width="4"/>
    <path d="M-22.7239 63.6835L0.500008 86.9074L23.7239 63.6835L37.2761 77.2239L0.500008 114L-36.2761 77.2239L-22.7239 63.6835Z" stroke="white" stroke-opacity="0.96" stroke-width="4"/>
    <path d="M14.0522 54L0.500008 67.5522L-13.0522 54L0.500008 40.4478L14.0522 54Z" stroke="white" stroke-opacity="0.96" stroke-width="4"/>
  </g>
</svg>
