<svg xmlns="http://www.w3.org/2000/svg" width="32" height="32" viewBox="0 0 32 32" fill="none">
  <path opacity="0.65" fill-rule="evenodd" clip-rule="evenodd" d="M15.9727 31.9255C24.7833 31.9255 31.9257 24.7831 31.9257 15.9725C31.9257 7.16196 24.7833 0.0195611 15.9727 0.0195604C7.16211 0.0195596 0.0197165 7.16195 0.0197158 15.9725C0.019715 24.7831 7.16211 31.9255 15.9727 31.9255ZM21.5727 6.55092C22.8918 6.07938 24.3675 5.55186 25.4349 6.61929C26.5023 7.68674 25.9748 9.16243 25.5032 10.4816C25.4802 10.5458 25.4574 10.6097 25.4349 10.6732C25.2913 11.0777 25.0821 11.5866 24.8587 12.1299C24.3276 13.4215 23.7164 14.9081 23.7164 15.6525C23.7164 16.71 24.9061 20.103 25.3908 21.2927C25.8755 22.4825 26.4882 24.2492 25.3688 25.3687C24.2493 26.4881 22.4826 25.8754 21.2928 25.3907C20.1031 24.906 16.7101 23.7162 15.6526 23.7162C14.9082 23.7162 13.4216 24.3275 12.1301 24.8586C11.5867 25.082 11.0779 25.2912 10.6733 25.4348C10.6098 25.4573 10.5459 25.4801 10.4816 25.5031C9.16254 25.9747 7.68686 26.5022 6.61942 25.4348C5.55199 24.3673 6.0795 22.8917 6.55104 21.5726C6.57402 21.5083 6.59688 21.4443 6.61942 21.3808C6.76294 20.9763 6.97215 20.4675 7.19556 19.9242C7.72662 18.6326 8.33792 17.146 8.33792 16.4016C8.33792 15.344 7.1482 11.9511 6.66348 10.7613C6.17877 9.57161 5.56606 7.80485 6.68552 6.68539C7.80498 5.56593 9.57173 6.17865 10.7615 6.66336C11.9512 7.14807 15.3441 8.3378 16.4017 8.3378C17.1461 8.3378 18.6328 7.7265 19.9243 7.19543C20.4677 6.97203 20.9765 6.76282 21.381 6.61929C21.4445 6.59676 21.5084 6.5739 21.5727 6.55092Z" fill="url(#paint0_linear_6480_66108)"/>
  <path opacity="0.65" fill-rule="evenodd" clip-rule="evenodd" d="M27.2532 4.69233C21.0231 -1.53771 10.9223 -1.53771 4.69224 4.69232C-1.53779 10.9224 -1.53779 21.0232 4.69223 27.2533C10.9223 33.4833 21.0231 33.4833 27.2532 27.2533C33.4832 21.0232 33.4832 10.9224 27.2532 4.69233ZM5.35082 18.6751C4.08462 18.0758 2.66814 17.4054 2.66814 15.8958C2.66814 14.3862 4.08461 13.7158 5.35081 13.1164C5.41252 13.0872 5.47388 13.0582 5.53469 13.0292C5.92222 12.8447 6.42996 12.6328 6.97216 12.4066C8.26094 11.8689 9.74438 11.2499 10.2707 10.7235C11.0185 9.97573 12.5764 6.73528 13.075 5.55127C13.5735 4.36726 14.3895 2.68472 15.9727 2.68472C17.5558 2.68472 18.3719 4.36726 18.8704 5.55127C19.3689 6.73528 20.9268 9.97573 21.6746 10.7235C22.201 11.2499 23.6844 11.8689 24.9732 12.4066C25.5154 12.6328 26.0232 12.8447 26.4107 13.0292C26.4715 13.0582 26.5328 13.0872 26.5946 13.1165C27.8608 13.7158 29.2772 14.3862 29.2772 15.8958C29.2772 17.4054 27.8608 18.0758 26.5946 18.6751C26.5328 18.7043 26.4715 18.7334 26.4107 18.7623C26.0232 18.9469 25.5154 19.1587 24.9732 19.385C23.6844 19.9227 22.201 20.5417 21.6746 21.0681C20.9268 21.8158 19.3689 25.0563 18.8704 26.2403C18.3719 27.4243 17.5558 29.1069 15.9727 29.1069C14.3895 29.1069 13.5735 27.4243 13.075 26.2403C12.5764 25.0563 11.0185 21.8158 10.2707 21.0681C9.74438 20.5417 8.26093 19.9227 6.97215 19.385C6.42996 19.1587 5.92221 18.9469 5.53469 18.7623C5.47388 18.7334 5.41253 18.7043 5.35082 18.6751Z" fill="url(#paint1_linear_6480_66108)"/>
  <defs>
    <linearGradient id="paint0_linear_6480_66108" x1="32.7765" y1="0.0195629" x2="-0.329414" y2="31.5591" gradientUnits="userSpaceOnUse">
      <stop stop-color="#00A3FF"/>
      <stop offset="1" stop-color="#FF00C7"/>
    </linearGradient>
    <linearGradient id="paint1_linear_6480_66108" x1="34.7334" y1="0.0197933" x2="-2.80774" y2="1.95493" gradientUnits="userSpaceOnUse">
      <stop stop-color="#00FFF0"/>
      <stop offset="0.0001" stop-color="#13DEF2"/>
      <stop offset="0.855974" stop-color="#E26CFF"/>
    </linearGradient>
  </defs>
</svg>
