<svg xmlns="http://www.w3.org/2000/svg" width="85" height="84" viewBox="0 0 85 84" fill="none">
  <g opacity="0.04">
    <path fill-rule="evenodd" clip-rule="evenodd" d="M25.0382 -12.1484C-7.54614 -12.1484 -33.9779 14.5851 -33.9988 47.5625C-34.0198 80.5399 -7.62195 107.273 24.9624 107.273C57.5467 107.273 83.9784 80.5399 83.9994 47.5625C84.0203 14.5851 57.6225 -12.1484 25.0382 -12.1484ZM4.2676 82.8272C-0.612027 84.5922 -6.0708 86.5666 -10.016 82.5713C-13.9611 78.576 -12.0067 73.0526 -10.2596 68.1153C-10.1744 67.8746 -10.0898 67.6354 -10.0063 67.3978C-9.47454 65.8838 -8.69957 63.9792 -7.87201 61.9455C-5.90492 57.1113 -3.6407 51.5469 -3.63892 48.7607C-3.63641 44.8024 -8.02836 32.1028 -9.81814 27.6497C-11.6079 23.1966 -13.8697 16.5838 -9.72697 12.3937C-5.58421 8.20367 0.94835 10.497 5.34721 12.3113C9.74607 14.1255 22.2914 18.5786 26.2026 18.5786C28.9555 18.5786 34.455 16.2906 39.2328 14.3029C41.2429 13.4667 43.1252 12.6836 44.6215 12.1463C44.8564 12.062 45.0928 11.9765 45.3306 11.8905C50.2102 10.1255 55.669 8.151 59.6142 12.1463C63.5593 16.1417 61.6049 21.665 59.8578 26.6023C59.7727 26.843 59.688 27.0822 59.6045 27.3199C59.0727 28.8339 58.2978 30.7384 57.4702 32.7722C55.5031 37.6064 53.2389 43.1708 53.2371 45.9569C53.2346 49.9152 57.6266 62.6148 59.4163 67.0679C61.2061 71.521 63.4679 78.1339 59.3252 82.3239C55.1824 86.514 48.6499 84.2206 44.251 82.4064C39.8521 80.5922 27.3068 76.1391 23.3956 76.1391C20.6427 76.1391 15.1432 78.427 10.3654 80.4147C8.35532 81.251 6.473 82.0341 4.97668 82.5713C4.74186 82.6556 4.50542 82.7412 4.2676 82.8272Z" stroke="white" stroke-opacity="0.96" stroke-width="2"/>
    <path fill-rule="evenodd" clip-rule="evenodd" d="M-16.7452 89.7845C6.28057 113.103 43.6367 113.103 66.6921 89.7845C89.7475 66.4659 89.7715 28.6591 66.7457 5.34049C43.7199 -17.9781 6.36378 -17.9781 -16.6916 5.34049C-39.747 28.6591 -39.771 66.4659 -16.7452 89.7845ZM64.2899 37.4478C68.9712 39.6911 74.2082 42.2005 74.2046 47.8507C74.201 53.501 68.9609 56.0104 64.2767 58.2536C64.0484 58.3629 63.8214 58.4716 63.5964 58.58C62.1628 59.2707 60.2845 60.0637 58.2787 60.9105C53.5112 62.9233 48.0235 65.24 46.0756 67.2101C43.3082 70.0091 37.5389 82.1379 35.6924 86.5695C33.8458 91.0012 30.8239 97.2989 24.9689 97.2989C19.1139 97.2989 16.1 91.0012 14.2591 86.5695C12.4182 82.1379 6.66427 70.0091 3.90047 67.2101C1.9551 65.24 -3.5297 62.9232 -8.29473 60.9105C-10.2994 60.0637 -12.1767 59.2707 -13.6094 58.58C-13.8343 58.4716 -14.0611 58.3629 -14.2893 58.2536C-18.9706 56.0104 -24.2076 53.501 -24.204 47.8507C-24.2004 42.2005 -18.9603 39.6911 -14.2761 37.4479C-14.0478 37.3385 -13.8208 37.2298 -13.5958 37.1214C-12.1622 36.4307 -10.2839 35.6378 -8.27815 34.791C-3.51057 32.7782 1.97717 30.4614 3.92505 28.4913C6.69241 25.6924 12.4617 13.5636 14.3083 9.13193C16.1548 4.70026 19.1767 -1.59738 25.0317 -1.59738C30.8867 -1.59738 33.9006 4.70026 35.7415 9.13193C37.5824 13.5636 43.3364 25.6924 46.1002 28.4913C48.0455 30.4614 53.5303 32.7782 58.2954 34.791C60.3 35.6378 62.1773 36.4307 63.6101 37.1214C63.8349 37.2298 64.0617 37.3385 64.2899 37.4478Z" stroke="white" stroke-opacity="0.96" stroke-width="2"/>
  </g>
</svg>
