<svg width="464" height="464" viewBox="0 0 464 464" fill="none" xmlns="http://www.w3.org/2000/svg">
<path d="M279.405 351.635C305.389 419.611 349.624 456.267 362.848 456.267H384.811C390.147 456.267 394.4 452.013 394.4 446.677C394.4 443.12 392.389 439.795 389.141 438.171L378.933 433.067C378.933 433.067 316.525 365.864 331.683 314.669L278.4 309.333L279.405 351.635Z" fill="#F14056"/>
<path d="M63.3359 410.64C84.7573 440.568 106.72 456.267 115.381 456.267H137.344C142.68 456.267 146.933 452.013 146.933 446.677C146.933 443.12 144.923 439.795 141.675 438.171L131.467 433.067C131.467 433.067 92.7999 394.4 92.7999 348L69.5999 355.733L63.3359 410.64Z" fill="#F14056"/>
<path d="M32.3253 30.1831L163.552 90.9903L196.372 21.3671C201.979 9.51965 216.062 4.40019 227.994 10.0069L414.344 97.7956L427.715 69.5458C429.873 65.0682 436.199 65.625 437.637 70.1877L456.05 132.449C456.854 135.008 455.493 137.893 453.011 138.775L393.294 164.302C388.809 166.066 384.331 161.58 386.489 157.103L399.697 129.178L221.9 45.3791L188.918 114.917C183.396 126.842 169.306 131.962 157.381 126.278L17.7711 61.5959C9.04793 57.5514 5.28953 47.181 9.40366 38.4887C13.4714 29.897 23.7026 26.185 32.3253 30.1831Z" fill="url(#paint0_linear_8948_331)"/>
<path d="M402.133 309.333H364.588C356.994 309.333 349.369 309.828 341.984 311.584C266.491 329.595 232 433.067 232 433.067L242.185 438.155C245.425 439.771 247.467 443.081 247.467 446.708C247.467 451.99 243.19 456.267 237.908 456.267H215.93C211.476 456.267 207.54 453.444 206.163 449.206C203.92 442.285 201.067 430.863 201.067 417.6C201.067 386.667 208.8 378.933 208.8 348C162.4 378.933 92.8001 348 92.8001 348C92.8001 394.4 38.6667 433.067 38.6667 433.067L48.8515 438.155C52.0918 439.771 54.1334 443.081 54.1334 446.708C54.1334 451.99 49.8569 456.267 44.575 456.267H22.5969C18.1425 456.267 14.2062 453.444 12.8297 449.206C10.587 442.285 7.7334 430.863 7.7334 417.6C7.7334 386.667 30.9334 378.933 30.9334 348C30.9334 324.8 23.2001 317.067 23.2001 293.867C23.2001 216.533 85.0667 193.333 131.467 193.333C162.4 193.333 170.133 208.8 216.533 208.8C247.467 208.8 255.2 193.333 278.4 193.333C301.6 193.333 324.8 208.8 324.8 208.8C363.467 208.8 378.933 216.533 378.933 216.533L395.924 210.872C399.357 209.728 403.061 211.584 404.206 215.01L409.867 232L422.132 244.265C429.138 251.271 433.067 260.768 433.067 270.667C433.067 280.565 454.782 297.919 454.782 297.919C457.079 300.981 456.661 305.25 453.869 307.864C445.37 315.829 425.333 332.533 402.133 309.333Z" fill="#F14056"/>
<defs>
<linearGradient id="paint0_linear_8948_331" x1="232.008" y1="7.73169" x2="232.008" y2="164.695" gradientUnits="userSpaceOnUse">
<stop stop-color="#F14056"/>
<stop offset="1" stop-color="#FF6174"/>
</linearGradient>
</defs>
</svg>
