<svg width="464" height="464" viewBox="0 0 464 464" fill="none" xmlns="http://www.w3.org/2000/svg">
<path d="M34.9469 305.467C28.9149 301.445 23.3469 296.573 18.7069 290.387C6.87494 274.997 3.85894 254.736 13.3709 240.352C28.8376 217.075 49.7949 217.152 62.3229 208.259C66.5763 204.856 69.3603 199.675 69.6696 194.416C69.9789 190.472 69.9789 181.115 62.8643 170.752C60.2349 166.885 63.6376 161.627 68.1229 162.477C89.7763 166.576 100.526 180.651 100.526 200.293C100.526 214.291 92.4829 223.88 81.3469 232.773C74.0003 238.573 65.4936 242.131 57.9923 245.147C50.0269 248.395 42.6029 251.488 39.9736 255.973C37.8083 259.763 39.1229 266.259 43.0669 271.363C45.0003 273.915 49.2536 278.477 54.0483 281.957L54.1256 301.6L34.9469 305.467Z" fill="#00FFA3"/>
<path d="M396.024 327.584C400.741 331.219 406.309 334.544 412.651 336.555C428.117 341.427 445.053 338.643 452.245 336.168C454.565 335.317 456.808 337.483 456.112 339.803C452.864 351.325 441.341 375.067 404.453 365.323L404.376 365.245C401.051 364.317 397.725 363.003 394.555 361.301L396.024 327.584Z" fill="#00FFA3"/>
<path d="M84.2935 377.928C96.1255 401.515 116 405.149 116 448.533C116 452.787 119.48 456.267 123.733 456.267H146.933C151.187 456.267 154.667 452.787 154.667 448.533V440.723C154.667 439.099 154.048 437.552 152.888 436.392L146.933 430.437C146.933 430.437 123.733 378.933 154.667 355.733V348H92.8001L84.2935 377.928Z" fill="#00FFA3"/>
<path d="M294.949 366.405C295.8 386.667 308.792 410.795 316.061 422.859C318.923 427.499 322.325 431.829 326.115 435.619L326.888 436.392C328.048 437.552 328.667 439.099 328.667 440.723V448.533C328.667 452.787 325.187 456.267 320.933 456.267H297.733C293.48 456.267 290 452.787 290 448.533C290 406.851 270.512 407.779 259.608 376.304L270.667 363.467L294.949 366.405Z" fill="#00FFA3"/>
<path d="M400.2 351.867L397.029 358.285C395.405 361.456 392.157 363.467 388.6 363.467C379.011 363.467 369.653 367.024 363.157 373.984C356.816 380.789 352.717 389.064 350.475 394.864C348.851 398.885 344.443 400.973 340.267 399.581L331.915 396.797C328.048 395.483 325.883 391.539 326.579 387.44C329.285 370.891 317.067 368.648 317.067 348C304.229 367.256 277.395 374.525 258.216 376.381C253.653 376.923 249.477 377.077 246.075 377C248.472 407.933 255.2 430.437 255.2 430.437L261.155 436.392C262.315 437.552 262.933 439.099 262.933 440.723V448.533C262.933 452.787 259.453 456.267 255.2 456.267H232C227.747 456.267 224.267 452.787 224.267 448.533C224.267 448.533 222.952 405.304 201.067 394.4C170.133 378.933 177.867 355.733 177.867 355.733H123.733C92.8001 355.733 92.8001 378.933 61.8667 394.4C30.9334 409.867 38.6667 430.437 38.6667 430.437L44.6214 436.392C45.7814 437.552 46.4001 439.099 46.4001 440.723V448.533C46.4001 452.787 42.9201 456.267 38.6667 456.267H15.4667C11.2134 456.267 7.7334 452.787 7.7334 448.533V417.6C7.7334 378.933 30.9334 386.667 30.9334 332.533C30.9334 301.6 39.7494 281.88 92.8001 262.933C201.067 224.267 201.067 193.333 247.467 193.333C270.667 193.333 278.4 201.067 324.8 232C371.2 262.933 394.4 262.933 394.4 309.333C394.4 325.883 398.344 338.565 400.587 344.365C401.515 346.84 401.36 349.547 400.2 351.867Z" fill="#00FFA3"/>
<path d="M32.3253 142.232L163.552 81.4244L196.372 151.048C201.979 162.895 216.062 168.015 227.994 162.408L414.344 74.619L427.715 102.869C429.873 107.347 436.199 106.79 437.637 102.227L456.05 39.966C456.854 37.4063 455.493 34.5217 453.011 33.6401L393.294 8.11238C388.809 6.34918 384.331 10.8345 386.489 15.3121L399.697 43.2372L221.916 127.02L188.933 57.482C183.411 45.5572 169.321 40.4377 157.396 46.1217L17.7711 110.827C9.04793 114.871 5.28953 125.241 9.40366 133.934C13.4714 142.525 23.7026 146.23 32.3253 142.232Z" fill="url(#paint0_linear_8948_321)"/>
<path d="M258.216 376.381C253.653 376.923 249.477 377.077 246.075 377C245.224 364.936 244.915 351.712 245.997 337.947C246.152 336.245 248.627 336.091 248.936 337.792C250.405 345.293 252.88 362.307 258.216 376.381Z" fill="#006641"/>
<path d="M327.491 318.32C322.063 324.475 317.067 332.526 317.067 348C314.206 352.253 310.726 355.888 306.782 358.981C303.541 334.699 314.855 322.41 324.7 315.373C325.829 314.569 327.198 314.445 327.847 314.886C328.628 315.419 328.868 316.765 327.491 318.32Z" fill="#006641"/>
<defs>
<linearGradient id="paint0_linear_8948_321" x1="232.008" y1="7.71948" x2="232.008" y2="164.683" gradientUnits="userSpaceOnUse">
<stop stop-color="#00FFA3"/>
<stop offset="1" stop-color="#008F5C"/>
</linearGradient>
</defs>
</svg>
