<svg width="512" height="512" viewBox="0 0 512 512" fill="none" xmlns="http://www.w3.org/2000/svg" style="transform: scale(1.3)">
<g clip-path="url(#clip2_208_2702)">
  <path d="M506.621 253.985C507.254 394.894 394.35 509.631 254.463 510.268C114.557 510.906 0.635972 397.194 0.00265142 256.286C-0.630669 115.377 112.273 0.640368 252.179 0.00251182C392.066 -0.616016 505.987 113.077 506.621 253.985Z" fill="#FFE866"/>
  <path d="M381.781 163.839C363.395 158.485 344.357 150.869 325.05 143.195C323.937 138.325 319.658 132.255 310.983 124.814C298.374 113.796 274.692 114.086 254.234 118.957C231.645 113.603 209.326 111.689 187.908 116.869C12.7658 165.482 112.063 284.026 47.752 403.228C56.9064 422.77 157.872 516.658 298.24 506.233C298.24 506.233 249.436 388.113 359.576 331.402C448.913 285.418 513.454 200.023 381.761 163.819L381.781 163.839Z" fill="#4BCC00"/>
  <path d="M266.363 192.26C266.363 219.514 244.427 241.588 217.386 241.588C190.345 241.588 168.409 219.514 168.409 192.26C168.409 165.006 190.345 142.952 217.386 142.952C244.427 142.952 266.363 165.025 266.363 192.26Z" fill="white"/>
  <path d="M443.077 263.252C403.408 291.415 358.25 312.773 294.247 312.773C264.289 312.773 258.205 280.706 238.399 296.421C228.17 304.539 192.129 322.689 163.514 321.317C134.65 319.925 88.5711 303.031 75.6168 241.546C70.4927 303.031 67.8826 348.339 44.9488 400.256C101.246 482.995 199.405 524.158 298.239 506.256C287.626 431.589 352.416 358.467 388.919 321.046C402.736 306.878 429.221 283.741 443.077 263.252Z" fill="#4BCC00"/>
  <ellipse cx="238.03" cy="191.923" rx="28.7401" ry="40.2361" fill="#0D1217"/>
  <path d="M249.526 118.861C265.207 125.129 322.468 144.201 347.242 151.687C321.947 109.715 283.614 112.137 249.526 118.861Z" fill="#35AF00"/>
  <path d="M238.03 191.918L203.541 168.926V214.91L238.03 191.918Z" fill="white"/>
</g>
</svg>
