<svg width="512" height="512" viewBox="0 0 512 512" fill="none" xmlns="http://www.w3.org/2000/svg">
<path d="M292.769 239.5L373.069 319.8L348.169 344.7C342.069 350.7 345.869 361.1 354.369 361.9L455.969 371.1C468.469 372.2 479.069 361.7 477.869 349.2L468.669 247.6C467.869 239.1 457.569 235.3 451.469 241.4L426.569 266.3L307.069 146.8C299.169 138.9 286.369 138.9 278.569 146.8L185.769 239.6L92.9691 146.8C85.0691 138.9 72.269 138.9 64.4691 146.8L39.4691 171.8C31.5691 179.7 31.5691 192.5 39.4691 200.3L171.469 332.3C179.369 340.2 192.169 340.2 199.969 332.3L292.769 239.5Z" fill="url(#paint0_linear_8948_300)"/>
<defs>
<linearGradient id="paint0_linear_8948_300" x1="255.753" y1="371.179" x2="255.753" y2="140.875" gradientUnits="userSpaceOnUse">
<stop stop-color="#F14056"/>
<stop offset="1" stop-color="#FF6174"/>
</linearGradient>
</defs>
</svg>
