<svg width="10" height="10" viewBox="0 0 10 10" fill="none" xmlns="http://www.w3.org/2000/svg" style="transform: scale(0.87)">
<rect width="10" height="10" rx="2" fill="url(#paint0_linear_28_66)"/>
<path d="M1.22569 3.657C1.25369 3.223 1.41935 2.88467 1.72269 2.642C2.03069 2.39933 2.42269 2.278 2.89869 2.278C3.22535 2.278 3.50769 2.33633 3.74569 2.453C3.98369 2.56967 4.16335 2.72833 4.28469 2.929C4.40602 3.12967 4.46669 3.356 4.46669 3.608C4.46669 3.89733 4.38969 4.14467 4.23569 4.35C4.08169 4.55533 3.89735 4.693 3.68269 4.763V4.791C3.95802 4.875 4.17269 5.029 4.32669 5.253C4.48069 5.47233 4.55769 5.75467 4.55769 6.1C4.55769 6.37533 4.49469 6.62033 4.36869 6.835C4.24269 7.04967 4.05602 7.22 3.80869 7.346C3.56135 7.46733 3.26502 7.528 2.91969 7.528C2.41569 7.528 2.00035 7.39967 1.67369 7.143C1.35169 6.88167 1.17902 6.50833 1.15569 6.023H1.92569C1.94435 6.27033 2.04002 6.47333 2.21269 6.632C2.38535 6.786 2.61869 6.863 2.91269 6.863C3.19735 6.863 3.41669 6.786 3.57069 6.632C3.72469 6.47333 3.80169 6.27033 3.80169 6.023C3.80169 5.69633 3.69669 5.46533 3.48669 5.33C3.28135 5.19 2.96402 5.12 2.53469 5.12H2.35269V4.462H2.54169C2.91969 4.45733 3.20669 4.39433 3.40269 4.273C3.60335 4.15167 3.70369 3.96033 3.70369 3.699C3.70369 3.475 3.63135 3.29767 3.48669 3.167C3.34202 3.03167 3.13669 2.964 2.87069 2.964C2.60935 2.964 2.40635 3.03167 2.26169 3.167C2.11702 3.29767 2.03069 3.461 2.00269 3.657H1.22569ZM5.11594 4.882C5.11594 4.07467 5.25127 3.44467 5.52194 2.992C5.79727 2.53467 6.2686 2.306 6.93594 2.306C7.60327 2.306 8.07227 2.53467 8.34294 2.992C8.61827 3.44467 8.75594 4.07467 8.75594 4.882C8.75594 5.69867 8.61827 6.338 8.34294 6.8C8.07227 7.25733 7.60327 7.486 6.93594 7.486C6.2686 7.486 5.79727 7.25733 5.52194 6.8C5.25127 6.338 5.11594 5.69867 5.11594 4.882ZM7.97194 4.882C7.97194 4.504 7.94627 4.18433 7.89494 3.923C7.84827 3.66167 7.75027 3.44933 7.60094 3.286C7.4516 3.118 7.22994 3.034 6.93594 3.034C6.64194 3.034 6.42027 3.118 6.27094 3.286C6.1216 3.44933 6.02127 3.66167 5.96994 3.923C5.92327 4.18433 5.89994 4.504 5.89994 4.882C5.89994 5.274 5.92327 5.603 5.96994 5.869C6.0166 6.135 6.1146 6.34967 6.26394 6.513C6.41794 6.67633 6.64194 6.758 6.93594 6.758C7.22994 6.758 7.4516 6.67633 7.60094 6.513C7.75494 6.34967 7.85527 6.135 7.90194 5.869C7.9486 5.603 7.97194 5.274 7.97194 4.882Z" fill="white"/>
<defs>
<linearGradient id="paint0_linear_28_66" x1="9" y1="0" x2="-1" y2="10" gradientUnits="userSpaceOnUse">
<stop stop-color="#00A3FF"/>
<stop offset="1" stop-color="#40B9FF"/>
</linearGradient>
</defs>
</svg>
