<svg width="8" height="8" viewBox="0 0 8 8" fill="none" xmlns="http://www.w3.org/2000/svg">
<g clip-path="url(#clip0_11846_10738)">
<path d="M4 5.50019V2.82962" stroke="#00FFA3" stroke-width="0.45" stroke-miterlimit="10"/>
<path d="M4 3.12964C4 3.12964 4.15017 2.00371 4.914 1.56271C5.67783 1.12171 6.72799 1.55463 6.72799 1.55463C6.72799 1.55463 6.56419 2.68844 5.814 3.12156C5.05017 3.56256 4 3.12964 4 3.12964Z" stroke="#00FFA3" stroke-width="0.45" stroke-miterlimit="10" stroke-linecap="square"/>
<path d="M3.99995 3.12952C3.99995 3.12952 3.84979 2.00359 3.08596 1.56259C2.32213 1.12159 1.27197 1.55451 1.27197 1.55451C1.27197 1.55451 1.43577 2.68832 2.18596 3.12144C2.94979 3.56244 3.99995 3.12952 3.99995 3.12952Z" stroke="#00FFA3" stroke-width="0.45" stroke-miterlimit="10" stroke-linecap="square"/>
<path d="M1.30005 6.92515C1.30005 6.4281 1.70299 6.02515 2.20005 6.02515C2.34755 6.02515 2.48675 6.06063 2.6096 6.12352C2.79956 5.7113 3.2164 5.42514 3.70006 5.42514C4.36279 5.42514 4.90005 6.02515 4.90005 6.70015" stroke="#00FFA3" stroke-width="0.45" stroke-miterlimit="10" stroke-linecap="square"/>
<path d="M6.70005 6.92521C6.70005 6.42816 6.36255 6.02521 5.80005 6.02521" stroke="#00FFA3" stroke-width="0.45" stroke-miterlimit="10" stroke-linecap="square"/>
</g>
<defs>
<clipPath id="clip0_11846_10738">
<rect width="7.2" height="7.2" fill="white" transform="translate(0.399902 0.399994)"/>
</clipPath>
</defs>
</svg>
