<svg width="400" height="400" viewBox="0 0 400 400" fill="none" xmlns="http://www.w3.org/2000/svg">
<g clip-path="url(#clip0_8948_362)">
<path fill-rule="evenodd" clip-rule="evenodd" d="M200 400C310.457 400 400 310.457 400 200C400 89.543 310.457 0 200 0C89.543 0 0 89.543 0 200C0 310.457 89.543 400 200 400ZM317.188 249.438C317.188 251.843 316.714 254.224 315.794 256.445C314.874 258.667 313.525 260.685 311.825 262.386C310.125 264.086 308.107 265.435 305.885 266.355C303.664 267.275 301.283 267.749 298.878 267.749H228.961C224.125 267.718 219.498 265.774 216.09 262.344C212.682 258.913 210.769 254.274 210.769 249.438C210.769 244.602 212.682 239.963 216.09 236.532C219.498 233.101 224.125 231.158 228.961 231.127H254.671L200 176.458L114.071 262.383C112.375 264.1 110.356 265.465 108.13 266.398C105.905 267.332 103.517 267.817 101.103 267.824C98.6895 267.832 96.2983 267.362 94.067 266.442C91.8357 265.522 89.8083 264.17 88.1015 262.463C86.3947 260.757 85.0421 258.73 84.1216 256.499C83.2011 254.268 82.7308 251.876 82.7378 249.463C82.7447 247.049 83.2289 244.661 84.1623 242.435C85.0956 240.21 86.4599 238.19 88.1766 236.494L187.053 137.616C188.753 135.915 190.771 134.566 192.993 133.645C195.215 132.724 197.596 132.25 200.001 132.25C202.406 132.25 204.787 132.724 207.009 133.645C209.23 134.566 211.249 135.915 212.948 137.616L280.567 205.234V179.522C280.551 177.107 281.013 174.714 281.926 172.478C282.84 170.243 284.186 168.21 285.888 166.497C287.589 164.784 289.613 163.425 291.842 162.497C294.072 161.57 296.462 161.092 298.877 161.092C301.292 161.092 303.682 161.57 305.912 162.497C308.141 163.425 310.165 164.784 311.866 166.497C313.568 168.21 314.914 170.243 315.827 172.478C316.741 174.714 317.202 177.107 317.187 179.522L317.188 249.438Z" fill="url(#paint0_linear_8948_362)"/>
</g>
<defs>
<linearGradient id="paint0_linear_8948_362" x1="200" y1="400" x2="200" y2="0" gradientUnits="userSpaceOnUse">
<stop stop-color="#F14056"/>
<stop offset="1" stop-color="#FF6174"/>
</linearGradient>
<clipPath id="clip0_8948_362">
<rect width="400" height="400" fill="white" transform="matrix(1 0 0 -1 0 400)"/>
</clipPath>
</defs>
</svg>
