<svg width="400" height="400" viewBox="0 0 400 400" fill="none" xmlns="http://www.w3.org/2000/svg">
<g clip-path="url(#clip0_8948_359)">
<path fill-rule="evenodd" clip-rule="evenodd" d="M200 0C310.457 0 400 89.543 400 200C400 310.457 310.457 400 200 400C89.543 400 0 310.457 0 200C0 89.543 89.543 0 200 0ZM317.188 150.562C317.188 148.157 316.714 145.776 315.794 143.555C314.874 141.333 313.525 139.315 311.825 137.614C310.125 135.914 308.107 134.565 305.885 133.645C303.664 132.725 301.283 132.251 298.878 132.251H228.961C224.125 132.282 219.498 134.226 216.09 137.656C212.682 141.087 210.769 145.726 210.769 150.562C210.769 155.398 212.682 160.037 216.09 163.468C219.498 166.899 224.125 168.842 228.961 168.873H254.671L200 223.542L114.071 137.617C112.375 135.9 110.356 134.535 108.13 133.602C105.905 132.668 103.517 132.183 101.103 132.176C98.6895 132.168 96.2983 132.638 94.067 133.558C91.8357 134.478 89.8083 135.83 88.1015 137.537C86.3947 139.243 85.0421 141.27 84.1216 143.501C83.2011 145.732 82.7308 148.124 82.7378 150.537C82.7447 152.951 83.2289 155.339 84.1623 157.565C85.0956 159.79 86.4599 161.81 88.1766 163.506L187.053 262.384C188.753 264.085 190.771 265.434 192.993 266.355C195.215 267.276 197.596 267.75 200.001 267.75C202.406 267.75 204.787 267.276 207.009 266.355C209.23 265.434 211.249 264.085 212.948 262.384L280.567 194.766V220.478C280.551 222.893 281.013 225.286 281.926 227.522C282.84 229.757 284.186 231.79 285.888 233.503C287.589 235.216 289.613 236.575 291.842 237.503C294.072 238.43 296.462 238.908 298.877 238.908C301.292 238.908 303.682 238.43 305.912 237.503C308.141 236.575 310.165 235.216 311.866 233.503C313.568 231.79 314.914 229.757 315.827 227.522C316.741 225.286 317.202 222.893 317.187 220.478L317.188 150.562Z" fill="url(#paint0_linear_8948_359)"/>
</g>
<defs>
<linearGradient id="paint0_linear_8948_359" x1="200" y1="0" x2="200" y2="400" gradientUnits="userSpaceOnUse">
<stop stop-color="#00FFA3"/>
<stop offset="1" stop-color="#008F5C"/>
</linearGradient>
<clipPath id="clip0_8948_359">
<rect width="400" height="400" fill="white"/>
</clipPath>
</defs>
</svg>
