<svg width="12" height="13" viewBox="0 0 12 13" fill="none" xmlns="http://www.w3.org/2000/svg">
<path d="M6 1.5C5.0111 1.5 4.0444 1.79324 3.22215 2.34265C2.39991 2.89206 1.75904 3.67295 1.3806 4.58658C1.00217 5.50021 0.90315 6.50555 1.09608 7.47545C1.289 8.44536 1.76521 9.33627 2.46447 10.0355C3.16373 10.7348 4.05465 11.211 5.02455 11.4039C5.99446 11.5969 6.99979 11.4978 7.91342 11.1194C8.82705 10.741 9.60794 10.1001 10.1573 9.27785C10.7068 8.45561 11 7.48891 11 6.5C11 5.84339 10.8707 5.19321 10.6194 4.58658C10.3681 3.97995 9.99983 3.42876 9.53554 2.96447C9.07124 2.50017 8.52005 2.13188 7.91342 1.8806C7.30679 1.62933 6.65661 1.5 6 1.5ZM6.375 8.75C6.375 8.84946 6.33549 8.94484 6.26517 9.01517C6.19484 9.08549 6.09946 9.125 6 9.125C5.90055 9.125 5.80516 9.08549 5.73484 9.01517C5.66451 8.94484 5.625 8.84946 5.625 8.75V6.4645C5.625 6.36504 5.66451 6.26966 5.73484 6.19934C5.80516 6.12901 5.90055 6.0895 6 6.0895C6.09946 6.0895 6.19484 6.12901 6.26517 6.19934C6.33549 6.26966 6.375 6.36504 6.375 6.4645V8.75ZM6.01 5.25C5.87739 5.25066 5.74995 5.19862 5.65572 5.10532C5.56148 5.01202 5.50817 4.88511 5.5075 4.7525C5.50684 4.61989 5.55888 4.49245 5.65218 4.39821C5.74548 4.30398 5.87239 4.25066 6.005 4.25H6.01C6.14261 4.25 6.26979 4.30268 6.36356 4.39645C6.45732 4.49021 6.51 4.61739 6.51 4.75C6.51 4.88261 6.45732 5.00979 6.36356 5.10355C6.26979 5.19732 6.14261 5.25 6.01 5.25Z" fill="#F14056"/>
</svg>
