<svg width="343" height="456" viewBox="0 0 343 456" fill="none" xmlns="http://www.w3.org/2000/svg">
<rect y="113.058" width="342.942" height="342.942" rx="171.471" fill="#00FFA3"/>
<path d="M114.772 386C98.5243 386 89 376.152 89 358.99V210.01C89 192.848 98.5243 183 114.772 183H171.077C232.144 183 268 218.592 268 283.304C268 348.157 232.004 386 171.077 386H114.772ZM140.403 344.359H164.354C197.829 344.359 215.757 323.96 215.757 283.445C215.757 245.321 196.848 224.641 164.354 224.641H140.403V344.359Z" fill="#006641"/>
<path d="M228.314 78.5388C226.907 76.4763 207.294 47.7224 192.637 26.2348L188.373 24.9128L175.988 29.7149L167.141 47.7872V151.418L171.264 156.231H189.101C192.757 156.231 195.721 153.267 195.721 149.611V95.4172C195.721 91.7811 198.669 88.8332 202.305 88.8332H222.875C228.165 88.8332 231.295 82.9095 228.314 78.5388Z" fill="#00FFA3"/>
<path d="M176.704 2.87392C174.09 -0.957974 168.439 -0.957974 165.825 2.87392L114.214 78.5388C111.233 82.9095 114.363 88.8332 119.654 88.8332H140.223C143.86 88.8332 146.807 91.7811 146.807 95.4172V149.611C146.807 153.267 149.771 156.231 153.427 156.231H171.265C171.265 131.184 171.265 78.4107 171.265 53.0956C171.265 32.2491 183.347 27.1078 192.639 26.2348C184.312 14.0281 177.584 4.16496 176.704 2.87392Z" fill="#00FFA3"/>
</svg>
