<svg width="343" height="456" viewBox="0 0 343 456" fill="none" xmlns="http://www.w3.org/2000/svg">
<rect width="342.942" height="342.942" rx="171.471" transform="matrix(1 0 0 -1 0 342.942)" fill="#F14056"/>
<path d="M114.772 273C98.5243 273 89 263.152 89 245.99V97.0104C89 79.8475 98.5243 70 114.772 70H171.077C232.144 70 268 105.592 268 170.304C268 235.157 232.004 273 171.077 273H114.772ZM140.403 231.359H164.354C197.829 231.359 215.757 210.96 215.757 170.445C215.757 132.321 196.848 111.641 164.354 111.641H140.403V231.359Z" fill="#601A22"/>
<path d="M228.313 377.461C226.907 379.524 207.294 408.278 192.637 429.765L188.372 431.087L175.987 426.285L167.141 408.213V304.582L171.263 299.769H189.101C192.757 299.769 195.721 302.733 195.721 306.389V360.583C195.721 364.219 198.669 367.167 202.305 367.167H222.875C228.165 367.167 231.294 373.091 228.313 377.461Z" fill="#F14056"/>
<path d="M176.703 453.126C174.089 456.958 168.438 456.958 165.824 453.126L114.214 377.461C111.233 373.091 114.362 367.167 119.653 367.167H140.223C143.859 367.167 146.807 364.219 146.807 360.583V306.389C146.807 302.733 149.771 299.769 153.427 299.769H171.265C171.265 324.816 171.265 377.589 171.265 402.904C171.265 423.751 183.346 428.892 192.638 429.765C184.311 441.972 177.584 451.835 176.703 453.126Z" fill="#F14056"/>
</svg>
