<svg width="512" height="512" viewBox="0 0 512 512" fill="none" xmlns="http://www.w3.org/2000/svg">
<path d="M292.769 272.5L373.069 192.2L348.169 167.3C342.069 161.3 345.869 150.9 354.369 150.1L455.969 140.9C468.469 139.8 479.069 150.3 477.869 162.8L468.669 264.4C467.869 272.9 457.569 276.7 451.469 270.6L426.569 245.7L307.069 365.2C299.169 373.1 286.369 373.1 278.569 365.2L185.769 272.4L92.9691 365.2C85.0691 373.1 72.2691 373.1 64.4691 365.2L39.4691 340.2C31.5691 332.3 31.5691 319.5 39.4691 311.7L171.469 179.7C179.369 171.8 192.169 171.8 199.969 179.7L292.769 272.5Z" fill="url(#paint0_linear_8948_294)"/>
<defs>
<linearGradient id="paint0_linear_8948_294" x1="255.753" y1="140.821" x2="255.753" y2="371.125" gradientUnits="userSpaceOnUse">
<stop stop-color="#00FFA3"/>
<stop offset="1" stop-color="#008F5C"/>
</linearGradient>
</defs>
</svg>
