<svg width="16" height="16" viewBox="0 0 16 16" fill="none" xmlns="http://www.w3.org/2000/svg">
<g id="arrow-up-small 2">
<g id="Group">
<path id="1715783897735-2001112_arrow-up-small" d="M4.86205 10.1953C4.98707 10.0703 5.15661 10.0001 5.33339 10.0001C5.51016 10.0001 5.6797 10.0703 5.80472 10.1953L7.33339 11.724L7.33339 2.66663C7.33339 2.48982 7.40363 2.32025 7.52865 2.19522C7.65367 2.0702 7.82324 1.99996 8.00005 1.99996C8.17687 1.99996 8.34644 2.0702 8.47146 2.19522C8.59648 2.32025 8.66672 2.48982 8.66672 2.66663L8.66672 11.724L10.1954 10.1953C10.3211 10.0739 10.4895 10.0067 10.6643 10.0082C10.8391 10.0097 11.0063 10.0798 11.1299 10.2034C11.2535 10.327 11.3237 10.4942 11.3252 10.669C11.3267 10.8438 11.2595 11.0122 11.1381 11.138L8.47139 13.8046C8.40946 13.8667 8.33589 13.916 8.2549 13.9496C8.17391 13.9832 8.08708 14.0005 7.99939 14.0005C7.9117 14.0005 7.82487 13.9832 7.74388 13.9496C7.66288 13.916 7.58932 13.8667 7.52739 13.8046L4.86072 11.138C4.73592 11.0128 4.66595 10.8431 4.6662 10.6664C4.66645 10.4896 4.7369 10.3201 4.86205 10.1953Z" fill="white" fill-opacity="0.7"/>
</g>
</g>
</svg>
