<svg width="9" height="9" viewBox="0 0 9 9" fill="none" xmlns="http://www.w3.org/2000/svg">
<path fill-rule="evenodd" clip-rule="evenodd" d="M6.26925 6.82162L1.06052 1.61289C0.971187 1.52355 0.932569 1.39083 0.953159 1.2439C0.973748 1.09698 1.05186 0.947896 1.17031 0.829446C1.28876 0.710997 1.43784 0.632885 1.58477 0.612295C1.73169 0.591705 1.86442 0.630324 1.95375 0.719655L7.16346 5.92937V2.68894C7.16346 2.60597 7.17981 2.52381 7.21156 2.44715C7.24331 2.3705 7.28985 2.30085 7.34852 2.24218C7.40719 2.18351 7.47684 2.13697 7.55349 2.10522C7.63015 2.07347 7.71231 2.05713 7.79528 2.05713C7.87825 2.05713 7.96041 2.07347 8.03706 2.10522C8.11372 2.13697 8.18337 2.18351 8.24203 2.24218C8.3007 2.30085 8.34724 2.3705 8.379 2.44715C8.41075 2.52381 8.42709 2.60597 8.42709 2.68894L8.42709 7.45284C8.42705 7.53602 8.41062 7.61839 8.37874 7.69522C8.34686 7.77206 8.30016 7.84186 8.2413 7.90064C8.18278 7.95945 8.11317 8.00605 8.0365 8.03773C7.95984 8.06942 7.87764 8.08557 7.79468 8.08524L3.03078 8.08524C2.94781 8.08524 2.86566 8.0689 2.789 8.03715C2.71235 8.0054 2.6427 7.95886 2.58403 7.90019C2.52536 7.84152 2.47882 7.77187 2.44707 7.69521C2.41532 7.61856 2.39897 7.5364 2.39897 7.45343C2.39897 7.37046 2.41531 7.2883 2.44707 7.21165C2.47882 7.13499 2.52536 7.06534 2.58403 7.00667C2.6427 6.948 2.71235 6.90146 2.789 6.86971C2.86566 6.83796 2.94781 6.82162 3.03078 6.82162L6.26925 6.82162Z" fill="#F14056"/>
</svg>
