<svg width="117" height="24" viewBox="0 0 117 24" fill="none" xmlns="http://www.w3.org/2000/svg">
<path opacity="0.65" fill-rule="evenodd" clip-rule="evenodd" d="M11.9796 23.9442C18.5875 23.9442 23.9443 18.5874 23.9443 11.9795C23.9443 5.37152 18.5875 0.0147243 11.9796 0.0147237C5.37166 0.0147231 0.0148637 5.37152 0.0148631 11.9795C0.0148625 18.5874 5.37166 23.9442 11.9796 23.9442ZM16.1796 4.91324C17.169 4.55957 18.2758 4.16389 19.0763 4.96449C19.8769 5.76504 19.4813 6.87178 19.1276 7.86111C19.1104 7.90935 19.0932 7.95731 19.0763 8.00493C18.9687 8.3083 18.8118 8.68993 18.6442 9.09746C18.2459 10.0661 17.7875 11.1811 17.7875 11.7394C17.7875 12.5325 18.6798 15.0773 19.0433 15.9695C19.4068 16.8618 19.8664 18.1869 19.0268 19.0265C18.1872 19.8661 16.8621 19.4066 15.9698 19.043C15.0775 18.6795 12.5328 17.7872 11.7396 17.7872C11.1814 17.7872 10.0664 18.2457 9.09772 18.644C8.69019 18.8115 8.30856 18.9684 8.00519 19.0761C7.95757 19.093 7.90961 19.1101 7.86137 19.1273C6.87204 19.481 5.7653 19.8766 4.96474 19.0761C4.16415 18.2755 4.55982 17.1687 4.9135 16.1794C4.93073 16.1312 4.94786 16.0832 4.96475 16.0356C5.0724 15.7323 5.22933 15.3506 5.39688 14.9431C5.79517 13.9745 6.25363 12.8595 6.25363 12.3012C6.25363 11.508 5.36133 8.96332 4.99779 8.07101C4.63426 7.17871 4.17473 5.85365 5.01431 5.01405C5.85391 4.17447 7.17897 4.634 8.07128 4.99753C8.96358 5.36107 11.5083 6.25337 12.3015 6.25337C12.8597 6.25337 13.9747 5.79491 14.9434 5.39662C15.3509 5.22906 15.7325 5.07214 16.0359 4.96449C16.0835 4.9476 16.1314 4.93047 16.1796 4.91324Z" fill="url(#paint0_linear_9575_10616)"/>
<path opacity="0.65" fill-rule="evenodd" clip-rule="evenodd" d="M20.4399 3.51918C15.7674 -1.15334 8.19177 -1.15334 3.51925 3.51918C-1.15328 8.1917 -1.15328 15.7674 3.51924 20.4399C8.19177 25.1124 15.7674 25.1124 20.4399 20.4399C25.1125 15.7674 25.1125 8.1917 20.4399 3.51918ZM4.01319 14.0063C3.06354 13.5568 2.00119 13.054 2.00119 11.9218C2.00119 10.7896 3.06354 10.2868 4.01319 9.83728C4.05947 9.81537 4.10549 9.79359 4.1511 9.77187C4.44174 9.63347 4.82254 9.47458 5.22919 9.3049C6.19578 8.90159 7.30837 8.43736 7.70314 8.04259C8.26398 7.48174 9.43241 5.0514 9.80631 4.1634C10.1802 3.27539 10.7922 2.01348 11.9796 2.01348C13.167 2.01348 13.779 3.27539 14.1529 4.1634C14.5268 5.0514 15.6952 7.48174 16.2561 8.04259C16.6508 8.43736 17.7634 8.90159 18.73 9.3049C19.1366 9.47458 19.5174 9.63347 19.8081 9.77187C19.8537 9.79359 19.8997 9.81537 19.946 9.83728C20.8956 10.2868 21.958 10.7896 21.958 11.9218C21.958 13.054 20.8957 13.5568 19.946 14.0063C19.8997 14.0282 19.8537 14.05 19.8081 14.0717C19.5174 14.2101 19.1366 14.369 18.73 14.5387C17.7634 14.942 16.6508 15.4062 16.2561 15.801C15.6952 16.3618 14.5268 18.7922 14.1529 19.6802C13.779 20.5682 13.167 21.8301 11.9796 21.8301C10.7922 21.8301 10.1802 20.5682 9.80631 19.6802C9.43241 18.7922 8.26398 16.3618 7.70314 15.801C7.30837 15.4062 6.19578 14.942 5.2292 14.5387C4.82255 14.369 4.44174 14.2101 4.1511 14.0717C4.10549 14.05 4.05947 14.0282 4.01319 14.0063Z" fill="url(#paint1_linear_9575_10616)"/>
<path d="M41.3047 15.7646L39.4252 10.7914L39.3903 10.6989H39.2914H37.3301H37.1184L37.1973 10.8953L40.366 18.7833L40.4021 18.8731H40.4988H42.0563H42.1538L42.1894 18.7823L45.8462 9.47493L45.9229 9.27953H45.713H43.7949H43.6952L43.6607 9.37312L41.3047 15.7646Z" fill="white" stroke="white" stroke-width="0.286159"/>
<path d="M34.0941 9.36936L34.0581 9.27953H33.9613H32H31.7879L31.8673 9.47622L35.6288 18.7836L35.6649 18.8731H35.7614H37.6935H37.905L37.8263 18.6767L34.0941 9.36936Z" fill="white" stroke="white" stroke-width="0.286159"/>
<mask id="path-5-outside-1_9575_10616" maskUnits="userSpaceOnUse" x="46.1318" y="4" width="71" height="16" fill="black">
<rect fill="white" x="46.1318" y="4" width="71" height="16"/>
<path d="M49.449 6.22973C49.449 6.57027 49.3361 6.86036 49.1104 7.1C48.8846 7.33964 48.6113 7.45946 48.2904 7.45946C47.9696 7.45946 47.6963 7.33964 47.4705 7.1C47.2447 6.86036 47.1318 6.57027 47.1318 6.22973C47.1318 5.88919 47.2447 5.5991 47.4705 5.35946C47.6963 5.11982 47.9696 5 48.2904 5C48.6113 5 48.8846 5.11982 49.1104 5.35946C49.3361 5.5991 49.449 5.88919 49.449 6.22973ZM49.1104 9.42703V18.6973H47.4705V9.42703H49.1104Z"/>
<path d="M58.1034 16.1243C58.1034 16.9315 57.7707 17.6126 57.1053 18.1676C56.4398 18.7225 55.6021 19 54.592 19C53.7126 19 52.9402 18.7604 52.2748 18.2811C51.6093 17.7892 51.134 17.1459 50.8488 16.3513L52.3104 15.6892C52.5243 16.2441 52.8333 16.6793 53.2373 16.9946C53.6532 17.2973 54.1048 17.4486 54.592 17.4486C55.1148 17.4486 55.5486 17.3288 55.8932 17.0892C56.2497 16.8495 56.4279 16.5658 56.4279 16.2378C56.4279 15.645 56.0001 15.2099 55.1446 14.9324L53.6473 14.5351C51.948 14.0811 51.0984 13.2108 51.0984 11.9243C51.0984 11.0793 51.4192 10.4045 52.0609 9.9C52.7145 9.38288 53.5463 9.12432 54.5563 9.12432C55.3287 9.12432 56.0239 9.31982 56.6418 9.71081C57.2716 10.1018 57.7113 10.6252 57.9608 11.2811L56.4992 11.9243C56.3329 11.5333 56.0596 11.2306 55.6793 11.0162C55.3109 10.7892 54.895 10.6757 54.4316 10.6757C54.0038 10.6757 53.6176 10.7892 53.273 11.0162C52.9402 11.2432 52.7739 11.5207 52.7739 11.8486C52.7739 12.3784 53.2433 12.7568 54.182 12.9838L55.501 13.3432C57.236 13.7973 58.1034 14.7243 58.1034 16.1243Z"/>
<path d="M63.714 17.4108C64.5221 17.4108 65.1816 17.1018 65.6925 16.4838C66.2273 15.8658 66.4947 15.0586 66.4947 14.0622C66.4947 13.091 66.2273 12.2901 65.6925 11.6595C65.1697 11.0288 64.5102 10.7135 63.714 10.7135C62.9297 10.7135 62.2702 11.0288 61.7355 11.6595C61.2007 12.2901 60.9334 13.091 60.9334 14.0622C60.9334 15.0459 61.2007 15.8468 61.7355 16.4649C62.2702 17.0955 62.9297 17.4108 63.714 17.4108ZM63.4466 19C62.3059 19 61.3255 18.5207 60.5056 17.5622C59.6975 16.591 59.2935 15.4243 59.2935 14.0622C59.2935 12.7 59.6975 11.5333 60.5056 10.5622C61.3255 9.6036 62.3059 9.12432 63.4466 9.12432C64.0883 9.12432 64.6706 9.26937 65.1935 9.55946C65.7282 9.84955 66.1382 10.2342 66.4234 10.7135H66.4947L66.4234 9.42703V5.15135H68.0632V18.6973H66.4947V17.4108H66.4234C66.1382 17.8901 65.7282 18.2748 65.1935 18.5649C64.6706 18.855 64.0883 19 63.4466 19Z"/>
<path d="M69.6513 14.0622C69.6513 12.6369 70.0731 11.4577 70.9168 10.5243C71.7724 9.59099 72.8478 9.12432 74.1431 9.12432C75.4383 9.12432 76.5078 9.59099 77.3515 10.5243C78.2071 11.4577 78.6349 12.6369 78.6349 14.0622C78.6349 15.5 78.2071 16.6793 77.3515 17.6C76.5078 18.5333 75.4383 19 74.1431 19C72.8478 19 71.7724 18.5333 70.9168 17.6C70.0731 16.6667 69.6513 15.4874 69.6513 14.0622ZM71.2911 14.0622C71.2911 15.0586 71.5644 15.8658 72.1111 16.4838C72.6577 17.1018 73.335 17.4108 74.1431 17.4108C74.9511 17.4108 75.6285 17.1018 76.1751 16.4838C76.7217 15.8658 76.995 15.0586 76.995 14.0622C76.995 13.0784 76.7217 12.2775 76.1751 11.6595C75.6166 11.0288 74.9392 10.7135 74.1431 10.7135C73.3469 10.7135 72.6696 11.0288 72.1111 11.6595C71.5644 12.2775 71.2911 13.0784 71.2911 14.0622Z"/>
<path d="M81.765 18.6973H80.1252V9.42703H81.6937V10.7135H81.765C82.0146 10.2595 82.3949 9.88108 82.9058 9.57838C83.4287 9.27568 83.9456 9.12432 84.4566 9.12432C85.0983 9.12432 85.6627 9.28198 86.1499 9.5973C86.6371 9.91261 86.9936 10.3477 87.2194 10.9027C87.9443 9.71712 88.9484 9.12432 90.2317 9.12432C91.2418 9.12432 92.0201 9.45225 92.5668 10.1081C93.1134 10.764 93.3867 11.6973 93.3867 12.9081V18.6973H91.7468V13.173C91.7468 12.3027 91.5983 11.6784 91.3012 11.3C91.0041 10.909 90.5051 10.7135 89.804 10.7135C89.1742 10.7135 88.6454 10.9973 88.2176 11.5649C87.7898 12.1324 87.5759 12.8009 87.5759 13.5703V18.6973H85.936V13.173C85.936 12.3027 85.7875 11.6784 85.4904 11.3C85.1933 10.909 84.6942 10.7135 83.9931 10.7135C83.3633 10.7135 82.8345 10.9973 82.4067 11.5649C81.9789 12.1324 81.765 12.8009 81.765 13.5703V18.6973Z"/>
<path d="M97.5999 6.22973C97.5999 6.57027 97.487 6.86036 97.2612 7.1C97.0354 7.33964 96.7621 7.45946 96.4412 7.45946C96.1204 7.45946 95.8471 7.33964 95.6213 7.1C95.3955 6.86036 95.2826 6.57027 95.2826 6.22973C95.2826 5.88919 95.3955 5.5991 95.6213 5.35946C95.8471 5.11982 96.1204 5 96.4412 5C96.7621 5 97.0354 5.11982 97.2612 5.35946C97.487 5.5991 97.5999 5.88919 97.5999 6.22973ZM97.2612 9.42703V18.6973H95.6213V9.42703H97.2612Z"/>
<path d="M106.254 16.1243C106.254 16.9315 105.922 17.6126 105.256 18.1676C104.591 18.7225 103.753 19 102.743 19C101.863 19 101.091 18.7604 100.426 18.2811C99.7601 17.7892 99.2848 17.1459 98.9996 16.3513L100.461 15.6892C100.675 16.2441 100.984 16.6793 101.388 16.9946C101.804 17.2973 102.256 17.4486 102.743 17.4486C103.266 17.4486 103.699 17.3288 104.044 17.0892C104.4 16.8495 104.579 16.5658 104.579 16.2378C104.579 15.645 104.151 15.2099 103.295 14.9324L101.798 14.5351C100.099 14.0811 99.2492 13.2108 99.2492 11.9243C99.2492 11.0793 99.57 10.4045 100.212 9.9C100.865 9.38288 101.697 9.12432 102.707 9.12432C103.48 9.12432 104.175 9.31982 104.793 9.71081C105.422 10.1018 105.862 10.6252 106.112 11.2811L104.65 11.9243C104.484 11.5333 104.21 11.2306 103.83 11.0162C103.462 10.7892 103.046 10.6757 102.582 10.6757C102.155 10.6757 101.768 10.7892 101.424 11.0162C101.091 11.2432 100.925 11.5207 100.925 11.8486C100.925 12.3784 101.394 12.7568 102.333 12.9838L103.652 13.3432C105.387 13.7973 106.254 14.7243 106.254 16.1243Z"/>
<path d="M111.865 19C110.581 19 109.524 18.5333 108.692 17.6C107.86 16.6667 107.444 15.4874 107.444 14.0622C107.444 12.6495 107.848 11.4766 108.656 10.5432C109.464 9.5973 110.498 9.12432 111.758 9.12432C113.053 9.12432 114.081 9.57207 114.842 10.4676C115.614 11.3505 116 12.5928 116 14.1946L115.982 14.3838H109.12C109.144 15.2919 109.429 16.0234 109.975 16.5784C110.522 17.1333 111.176 17.4108 111.936 17.4108C112.982 17.4108 113.802 16.8559 114.396 15.7459L115.858 16.5027C115.465 17.2847 114.919 17.8964 114.218 18.3378C113.528 18.7793 112.744 19 111.865 19ZM109.245 12.9459H114.253C114.206 12.3027 113.956 11.773 113.505 11.3568C113.065 10.9279 112.471 10.7135 111.722 10.7135C111.104 10.7135 110.57 10.9153 110.118 11.3189C109.678 11.7225 109.387 12.2649 109.245 12.9459Z"/>
</mask>
<path d="M49.449 6.22973C49.449 6.57027 49.3361 6.86036 49.1104 7.1C48.8846 7.33964 48.6113 7.45946 48.2904 7.45946C47.9696 7.45946 47.6963 7.33964 47.4705 7.1C47.2447 6.86036 47.1318 6.57027 47.1318 6.22973C47.1318 5.88919 47.2447 5.5991 47.4705 5.35946C47.6963 5.11982 47.9696 5 48.2904 5C48.6113 5 48.8846 5.11982 49.1104 5.35946C49.3361 5.5991 49.449 5.88919 49.449 6.22973ZM49.1104 9.42703V18.6973H47.4705V9.42703H49.1104Z" fill="white"/>
<path d="M58.1034 16.1243C58.1034 16.9315 57.7707 17.6126 57.1053 18.1676C56.4398 18.7225 55.6021 19 54.592 19C53.7126 19 52.9402 18.7604 52.2748 18.2811C51.6093 17.7892 51.134 17.1459 50.8488 16.3513L52.3104 15.6892C52.5243 16.2441 52.8333 16.6793 53.2373 16.9946C53.6532 17.2973 54.1048 17.4486 54.592 17.4486C55.1148 17.4486 55.5486 17.3288 55.8932 17.0892C56.2497 16.8495 56.4279 16.5658 56.4279 16.2378C56.4279 15.645 56.0001 15.2099 55.1446 14.9324L53.6473 14.5351C51.948 14.0811 51.0984 13.2108 51.0984 11.9243C51.0984 11.0793 51.4192 10.4045 52.0609 9.9C52.7145 9.38288 53.5463 9.12432 54.5563 9.12432C55.3287 9.12432 56.0239 9.31982 56.6418 9.71081C57.2716 10.1018 57.7113 10.6252 57.9608 11.2811L56.4992 11.9243C56.3329 11.5333 56.0596 11.2306 55.6793 11.0162C55.3109 10.7892 54.895 10.6757 54.4316 10.6757C54.0038 10.6757 53.6176 10.7892 53.273 11.0162C52.9402 11.2432 52.7739 11.5207 52.7739 11.8486C52.7739 12.3784 53.2433 12.7568 54.182 12.9838L55.501 13.3432C57.236 13.7973 58.1034 14.7243 58.1034 16.1243Z" fill="white"/>
<path d="M63.714 17.4108C64.5221 17.4108 65.1816 17.1018 65.6925 16.4838C66.2273 15.8658 66.4947 15.0586 66.4947 14.0622C66.4947 13.091 66.2273 12.2901 65.6925 11.6595C65.1697 11.0288 64.5102 10.7135 63.714 10.7135C62.9297 10.7135 62.2702 11.0288 61.7355 11.6595C61.2007 12.2901 60.9334 13.091 60.9334 14.0622C60.9334 15.0459 61.2007 15.8468 61.7355 16.4649C62.2702 17.0955 62.9297 17.4108 63.714 17.4108ZM63.4466 19C62.3059 19 61.3255 18.5207 60.5056 17.5622C59.6975 16.591 59.2935 15.4243 59.2935 14.0622C59.2935 12.7 59.6975 11.5333 60.5056 10.5622C61.3255 9.6036 62.3059 9.12432 63.4466 9.12432C64.0883 9.12432 64.6706 9.26937 65.1935 9.55946C65.7282 9.84955 66.1382 10.2342 66.4234 10.7135H66.4947L66.4234 9.42703V5.15135H68.0632V18.6973H66.4947V17.4108H66.4234C66.1382 17.8901 65.7282 18.2748 65.1935 18.5649C64.6706 18.855 64.0883 19 63.4466 19Z" fill="white"/>
<path d="M69.6513 14.0622C69.6513 12.6369 70.0731 11.4577 70.9168 10.5243C71.7724 9.59099 72.8478 9.12432 74.1431 9.12432C75.4383 9.12432 76.5078 9.59099 77.3515 10.5243C78.2071 11.4577 78.6349 12.6369 78.6349 14.0622C78.6349 15.5 78.2071 16.6793 77.3515 17.6C76.5078 18.5333 75.4383 19 74.1431 19C72.8478 19 71.7724 18.5333 70.9168 17.6C70.0731 16.6667 69.6513 15.4874 69.6513 14.0622ZM71.2911 14.0622C71.2911 15.0586 71.5644 15.8658 72.1111 16.4838C72.6577 17.1018 73.335 17.4108 74.1431 17.4108C74.9511 17.4108 75.6285 17.1018 76.1751 16.4838C76.7217 15.8658 76.995 15.0586 76.995 14.0622C76.995 13.0784 76.7217 12.2775 76.1751 11.6595C75.6166 11.0288 74.9392 10.7135 74.1431 10.7135C73.3469 10.7135 72.6696 11.0288 72.1111 11.6595C71.5644 12.2775 71.2911 13.0784 71.2911 14.0622Z" fill="white"/>
<path d="M81.765 18.6973H80.1252V9.42703H81.6937V10.7135H81.765C82.0146 10.2595 82.3949 9.88108 82.9058 9.57838C83.4287 9.27568 83.9456 9.12432 84.4566 9.12432C85.0983 9.12432 85.6627 9.28198 86.1499 9.5973C86.6371 9.91261 86.9936 10.3477 87.2194 10.9027C87.9443 9.71712 88.9484 9.12432 90.2317 9.12432C91.2418 9.12432 92.0201 9.45225 92.5668 10.1081C93.1134 10.764 93.3867 11.6973 93.3867 12.9081V18.6973H91.7468V13.173C91.7468 12.3027 91.5983 11.6784 91.3012 11.3C91.0041 10.909 90.5051 10.7135 89.804 10.7135C89.1742 10.7135 88.6454 10.9973 88.2176 11.5649C87.7898 12.1324 87.5759 12.8009 87.5759 13.5703V18.6973H85.936V13.173C85.936 12.3027 85.7875 11.6784 85.4904 11.3C85.1933 10.909 84.6942 10.7135 83.9931 10.7135C83.3633 10.7135 82.8345 10.9973 82.4067 11.5649C81.9789 12.1324 81.765 12.8009 81.765 13.5703V18.6973Z" fill="white"/>
<path d="M97.5999 6.22973C97.5999 6.57027 97.487 6.86036 97.2612 7.1C97.0354 7.33964 96.7621 7.45946 96.4412 7.45946C96.1204 7.45946 95.8471 7.33964 95.6213 7.1C95.3955 6.86036 95.2826 6.57027 95.2826 6.22973C95.2826 5.88919 95.3955 5.5991 95.6213 5.35946C95.8471 5.11982 96.1204 5 96.4412 5C96.7621 5 97.0354 5.11982 97.2612 5.35946C97.487 5.5991 97.5999 5.88919 97.5999 6.22973ZM97.2612 9.42703V18.6973H95.6213V9.42703H97.2612Z" fill="white"/>
<path d="M106.254 16.1243C106.254 16.9315 105.922 17.6126 105.256 18.1676C104.591 18.7225 103.753 19 102.743 19C101.863 19 101.091 18.7604 100.426 18.2811C99.7601 17.7892 99.2848 17.1459 98.9996 16.3513L100.461 15.6892C100.675 16.2441 100.984 16.6793 101.388 16.9946C101.804 17.2973 102.256 17.4486 102.743 17.4486C103.266 17.4486 103.699 17.3288 104.044 17.0892C104.4 16.8495 104.579 16.5658 104.579 16.2378C104.579 15.645 104.151 15.2099 103.295 14.9324L101.798 14.5351C100.099 14.0811 99.2492 13.2108 99.2492 11.9243C99.2492 11.0793 99.57 10.4045 100.212 9.9C100.865 9.38288 101.697 9.12432 102.707 9.12432C103.48 9.12432 104.175 9.31982 104.793 9.71081C105.422 10.1018 105.862 10.6252 106.112 11.2811L104.65 11.9243C104.484 11.5333 104.21 11.2306 103.83 11.0162C103.462 10.7892 103.046 10.6757 102.582 10.6757C102.155 10.6757 101.768 10.7892 101.424 11.0162C101.091 11.2432 100.925 11.5207 100.925 11.8486C100.925 12.3784 101.394 12.7568 102.333 12.9838L103.652 13.3432C105.387 13.7973 106.254 14.7243 106.254 16.1243Z" fill="white"/>
<path d="M111.865 19C110.581 19 109.524 18.5333 108.692 17.6C107.86 16.6667 107.444 15.4874 107.444 14.0622C107.444 12.6495 107.848 11.4766 108.656 10.5432C109.464 9.5973 110.498 9.12432 111.758 9.12432C113.053 9.12432 114.081 9.57207 114.842 10.4676C115.614 11.3505 116 12.5928 116 14.1946L115.982 14.3838H109.12C109.144 15.2919 109.429 16.0234 109.975 16.5784C110.522 17.1333 111.176 17.4108 111.936 17.4108C112.982 17.4108 113.802 16.8559 114.396 15.7459L115.858 16.5027C115.465 17.2847 114.919 17.8964 114.218 18.3378C113.528 18.7793 112.744 19 111.865 19ZM109.245 12.9459H114.253C114.206 12.3027 113.956 11.773 113.505 11.3568C113.065 10.9279 112.471 10.7135 111.722 10.7135C111.104 10.7135 110.57 10.9153 110.118 11.3189C109.678 11.7225 109.387 12.2649 109.245 12.9459Z" fill="white"/>
<path d="M49.449 6.22973C49.449 6.57027 49.3361 6.86036 49.1104 7.1C48.8846 7.33964 48.6113 7.45946 48.2904 7.45946C47.9696 7.45946 47.6963 7.33964 47.4705 7.1C47.2447 6.86036 47.1318 6.57027 47.1318 6.22973C47.1318 5.88919 47.2447 5.5991 47.4705 5.35946C47.6963 5.11982 47.9696 5 48.2904 5C48.6113 5 48.8846 5.11982 49.1104 5.35946C49.3361 5.5991 49.449 5.88919 49.449 6.22973ZM49.1104 9.42703V18.6973H47.4705V9.42703H49.1104Z" stroke="white" stroke-width="0.572319" mask="url(#path-5-outside-1_9575_10616)"/>
<path d="M58.1034 16.1243C58.1034 16.9315 57.7707 17.6126 57.1053 18.1676C56.4398 18.7225 55.6021 19 54.592 19C53.7126 19 52.9402 18.7604 52.2748 18.2811C51.6093 17.7892 51.134 17.1459 50.8488 16.3513L52.3104 15.6892C52.5243 16.2441 52.8333 16.6793 53.2373 16.9946C53.6532 17.2973 54.1048 17.4486 54.592 17.4486C55.1148 17.4486 55.5486 17.3288 55.8932 17.0892C56.2497 16.8495 56.4279 16.5658 56.4279 16.2378C56.4279 15.645 56.0001 15.2099 55.1446 14.9324L53.6473 14.5351C51.948 14.0811 51.0984 13.2108 51.0984 11.9243C51.0984 11.0793 51.4192 10.4045 52.0609 9.9C52.7145 9.38288 53.5463 9.12432 54.5563 9.12432C55.3287 9.12432 56.0239 9.31982 56.6418 9.71081C57.2716 10.1018 57.7113 10.6252 57.9608 11.2811L56.4992 11.9243C56.3329 11.5333 56.0596 11.2306 55.6793 11.0162C55.3109 10.7892 54.895 10.6757 54.4316 10.6757C54.0038 10.6757 53.6176 10.7892 53.273 11.0162C52.9402 11.2432 52.7739 11.5207 52.7739 11.8486C52.7739 12.3784 53.2433 12.7568 54.182 12.9838L55.501 13.3432C57.236 13.7973 58.1034 14.7243 58.1034 16.1243Z" stroke="white" stroke-width="0.572319" mask="url(#path-5-outside-1_9575_10616)"/>
<path d="M63.714 17.4108C64.5221 17.4108 65.1816 17.1018 65.6925 16.4838C66.2273 15.8658 66.4947 15.0586 66.4947 14.0622C66.4947 13.091 66.2273 12.2901 65.6925 11.6595C65.1697 11.0288 64.5102 10.7135 63.714 10.7135C62.9297 10.7135 62.2702 11.0288 61.7355 11.6595C61.2007 12.2901 60.9334 13.091 60.9334 14.0622C60.9334 15.0459 61.2007 15.8468 61.7355 16.4649C62.2702 17.0955 62.9297 17.4108 63.714 17.4108ZM63.4466 19C62.3059 19 61.3255 18.5207 60.5056 17.5622C59.6975 16.591 59.2935 15.4243 59.2935 14.0622C59.2935 12.7 59.6975 11.5333 60.5056 10.5622C61.3255 9.6036 62.3059 9.12432 63.4466 9.12432C64.0883 9.12432 64.6706 9.26937 65.1935 9.55946C65.7282 9.84955 66.1382 10.2342 66.4234 10.7135H66.4947L66.4234 9.42703V5.15135H68.0632V18.6973H66.4947V17.4108H66.4234C66.1382 17.8901 65.7282 18.2748 65.1935 18.5649C64.6706 18.855 64.0883 19 63.4466 19Z" stroke="white" stroke-width="0.572319" mask="url(#path-5-outside-1_9575_10616)"/>
<path d="M69.6513 14.0622C69.6513 12.6369 70.0731 11.4577 70.9168 10.5243C71.7724 9.59099 72.8478 9.12432 74.1431 9.12432C75.4383 9.12432 76.5078 9.59099 77.3515 10.5243C78.2071 11.4577 78.6349 12.6369 78.6349 14.0622C78.6349 15.5 78.2071 16.6793 77.3515 17.6C76.5078 18.5333 75.4383 19 74.1431 19C72.8478 19 71.7724 18.5333 70.9168 17.6C70.0731 16.6667 69.6513 15.4874 69.6513 14.0622ZM71.2911 14.0622C71.2911 15.0586 71.5644 15.8658 72.1111 16.4838C72.6577 17.1018 73.335 17.4108 74.1431 17.4108C74.9511 17.4108 75.6285 17.1018 76.1751 16.4838C76.7217 15.8658 76.995 15.0586 76.995 14.0622C76.995 13.0784 76.7217 12.2775 76.1751 11.6595C75.6166 11.0288 74.9392 10.7135 74.1431 10.7135C73.3469 10.7135 72.6696 11.0288 72.1111 11.6595C71.5644 12.2775 71.2911 13.0784 71.2911 14.0622Z" stroke="white" stroke-width="0.572319" mask="url(#path-5-outside-1_9575_10616)"/>
<path d="M81.765 18.6973H80.1252V9.42703H81.6937V10.7135H81.765C82.0146 10.2595 82.3949 9.88108 82.9058 9.57838C83.4287 9.27568 83.9456 9.12432 84.4566 9.12432C85.0983 9.12432 85.6627 9.28198 86.1499 9.5973C86.6371 9.91261 86.9936 10.3477 87.2194 10.9027C87.9443 9.71712 88.9484 9.12432 90.2317 9.12432C91.2418 9.12432 92.0201 9.45225 92.5668 10.1081C93.1134 10.764 93.3867 11.6973 93.3867 12.9081V18.6973H91.7468V13.173C91.7468 12.3027 91.5983 11.6784 91.3012 11.3C91.0041 10.909 90.5051 10.7135 89.804 10.7135C89.1742 10.7135 88.6454 10.9973 88.2176 11.5649C87.7898 12.1324 87.5759 12.8009 87.5759 13.5703V18.6973H85.936V13.173C85.936 12.3027 85.7875 11.6784 85.4904 11.3C85.1933 10.909 84.6942 10.7135 83.9931 10.7135C83.3633 10.7135 82.8345 10.9973 82.4067 11.5649C81.9789 12.1324 81.765 12.8009 81.765 13.5703V18.6973Z" stroke="white" stroke-width="0.572319" mask="url(#path-5-outside-1_9575_10616)"/>
<path d="M97.5999 6.22973C97.5999 6.57027 97.487 6.86036 97.2612 7.1C97.0354 7.33964 96.7621 7.45946 96.4412 7.45946C96.1204 7.45946 95.8471 7.33964 95.6213 7.1C95.3955 6.86036 95.2826 6.57027 95.2826 6.22973C95.2826 5.88919 95.3955 5.5991 95.6213 5.35946C95.8471 5.11982 96.1204 5 96.4412 5C96.7621 5 97.0354 5.11982 97.2612 5.35946C97.487 5.5991 97.5999 5.88919 97.5999 6.22973ZM97.2612 9.42703V18.6973H95.6213V9.42703H97.2612Z" stroke="white" stroke-width="0.572319" mask="url(#path-5-outside-1_9575_10616)"/>
<path d="M106.254 16.1243C106.254 16.9315 105.922 17.6126 105.256 18.1676C104.591 18.7225 103.753 19 102.743 19C101.863 19 101.091 18.7604 100.426 18.2811C99.7601 17.7892 99.2848 17.1459 98.9996 16.3513L100.461 15.6892C100.675 16.2441 100.984 16.6793 101.388 16.9946C101.804 17.2973 102.256 17.4486 102.743 17.4486C103.266 17.4486 103.699 17.3288 104.044 17.0892C104.4 16.8495 104.579 16.5658 104.579 16.2378C104.579 15.645 104.151 15.2099 103.295 14.9324L101.798 14.5351C100.099 14.0811 99.2492 13.2108 99.2492 11.9243C99.2492 11.0793 99.57 10.4045 100.212 9.9C100.865 9.38288 101.697 9.12432 102.707 9.12432C103.48 9.12432 104.175 9.31982 104.793 9.71081C105.422 10.1018 105.862 10.6252 106.112 11.2811L104.65 11.9243C104.484 11.5333 104.21 11.2306 103.83 11.0162C103.462 10.7892 103.046 10.6757 102.582 10.6757C102.155 10.6757 101.768 10.7892 101.424 11.0162C101.091 11.2432 100.925 11.5207 100.925 11.8486C100.925 12.3784 101.394 12.7568 102.333 12.9838L103.652 13.3432C105.387 13.7973 106.254 14.7243 106.254 16.1243Z" stroke="white" stroke-width="0.572319" mask="url(#path-5-outside-1_9575_10616)"/>
<path d="M111.865 19C110.581 19 109.524 18.5333 108.692 17.6C107.86 16.6667 107.444 15.4874 107.444 14.0622C107.444 12.6495 107.848 11.4766 108.656 10.5432C109.464 9.5973 110.498 9.12432 111.758 9.12432C113.053 9.12432 114.081 9.57207 114.842 10.4676C115.614 11.3505 116 12.5928 116 14.1946L115.982 14.3838H109.12C109.144 15.2919 109.429 16.0234 109.975 16.5784C110.522 17.1333 111.176 17.4108 111.936 17.4108C112.982 17.4108 113.802 16.8559 114.396 15.7459L115.858 16.5027C115.465 17.2847 114.919 17.8964 114.218 18.3378C113.528 18.7793 112.744 19 111.865 19ZM109.245 12.9459H114.253C114.206 12.3027 113.956 11.773 113.505 11.3568C113.065 10.9279 112.471 10.7135 111.722 10.7135C111.104 10.7135 110.57 10.9153 110.118 11.3189C109.678 11.7225 109.387 12.2649 109.245 12.9459Z" stroke="white" stroke-width="0.572319" mask="url(#path-5-outside-1_9575_10616)"/>
<defs>
<linearGradient id="paint0_linear_9575_10616" x1="24.5825" y1="0.0147255" x2="-0.246999" y2="23.6693" gradientUnits="userSpaceOnUse">
<stop stop-color="#00A3FF"/>
<stop offset="1" stop-color="#FF00C7"/>
</linearGradient>
<linearGradient id="paint1_linear_9575_10616" x1="26.0501" y1="0.0147863" x2="-2.10574" y2="1.46614" gradientUnits="userSpaceOnUse">
<stop stop-color="#00FFF0"/>
<stop offset="0.0001" stop-color="#13DEF2"/>
<stop offset="0.855974" stop-color="#E26CFF"/>
</linearGradient>
</defs>
</svg>
