<svg xmlns="http://www.w3.org/2000/svg" width="32" height="32" viewBox="0 0 32 32" fill="none">
  <g clip-path="url(#clip0_2270_13099)">
    <path d="M25.3327 22.6663H23.9993C23.2633 22.6663 22.666 22.069 22.666 21.333V14.6663C22.666 13.9303 23.2633 13.333 23.9993 13.333H25.3327C26.806 13.333 27.9993 14.5263 27.9993 15.9997V19.9997C27.9993 21.473 26.806 22.6663 25.3327 22.6663Z" stroke="currentcolor" stroke-width="1.5" stroke-linecap="round" stroke-linejoin="round"/>
    <path d="M8 22.6663H6.66667C5.19333 22.6663 4 21.473 4 19.9997V15.9997C4 14.5263 5.19333 13.333 6.66667 13.333H8C8.736 13.333 9.33333 13.9303 9.33333 14.6663V21.333C9.33333 22.069 8.736 22.6663 8 22.6663Z" stroke="currentcolor" stroke-width="1.5" stroke-linecap="round" stroke-linejoin="round"/>
    <path d="M24.6673 13.3333V12.6667C24.6673 7.88 20.7873 4 16.0007 4C11.214 4 7.33398 7.88 7.33398 12.6667V13.3333" stroke="currentcolor" stroke-width="1.5" stroke-linecap="round" stroke-linejoin="round"/>
    <path d="M16.8333 28.3333H15.1667C14.2467 28.3333 13.5 27.5867 13.5 26.6667C13.5 25.7467 14.2467 25 15.1667 25H16.8333C17.7533 25 18.5 25.7467 18.5 26.6667C18.5 27.5867 17.7533 28.3333 16.8333 28.3333Z" stroke="currentcolor" stroke-width="1.5" stroke-linecap="round" stroke-linejoin="round"/>
    <path d="M18.5 26.667H21.3333C22.8067 26.667 24 25.4737 24 24.0003V22.667" stroke="currentcolor" stroke-width="1.5" stroke-linecap="round" stroke-linejoin="round"/>
  </g>
  <defs>
    <clipPath id="clip0_2270_13099">
      <rect width="32" height="32" fill="currentcolor"/>
    </clipPath>
  </defs>
</svg>
