<svg xmlns="http://www.w3.org/2000/svg" width="24" height="24" viewBox="0 0 24 24" fill="none">
<path fill-rule="evenodd" clip-rule="evenodd" d="M2 5.42969C2 5.01547 2.33579 4.67969 2.75 4.67969H16.2571C16.6713 4.67969 17.0071 5.01547 17.0071 5.42969C17.0071 5.8439 16.6713 6.17969 16.2571 6.17969H2.75C2.33579 6.17969 2 5.8439 2 5.42969Z" fill="white"/>
<path fill-rule="evenodd" clip-rule="evenodd" d="M12 17.75C12 17.3358 12.3358 17 12.75 17H18.75C19.1642 17 19.5 17.3358 19.5 17.75C19.5 18.1642 19.1642 18.5 18.75 18.5H12.75C12.3358 18.5 12 18.1642 12 17.75Z" fill="white"/>
<path fill-rule="evenodd" clip-rule="evenodd" d="M9.1543 3C9.5685 3 9.9043 3.33579 9.9043 3.75V5.43219C9.9043 5.8464 9.5685 6.18219 9.1543 6.18219C8.74008 6.18219 8.4043 5.8464 8.4043 5.43219V3.75C8.4043 3.33579 8.74008 3 9.1543 3Z" fill="white"/>
<path fill-rule="evenodd" clip-rule="evenodd" d="M15.9882 10.457C16.27 10.457 16.5281 10.615 16.6562 10.866L21.4177 20.1925C21.606 20.5614 21.4597 21.0131 21.0908 21.2015C20.7218 21.3898 20.2701 21.2434 20.0817 20.8745L15.9882 12.8565L11.8947 20.8745C11.7064 21.2434 11.2546 21.3898 10.8857 21.2015C10.5168 21.0131 10.3704 20.5614 10.5587 20.1925L15.3202 10.866C15.4484 10.615 15.7064 10.457 15.9882 10.457Z" fill="white"/>
<path fill-rule="evenodd" clip-rule="evenodd" d="M12.7714 4.75307C13.1452 4.57458 13.5929 4.73288 13.7714 5.10666C13.8164 5.20087 13.8321 5.28441 13.837 5.31124C13.8442 5.35062 13.848 5.38596 13.8503 5.41205C13.8548 5.46493 13.856 5.51934 13.8558 5.56952C13.8555 5.67204 13.849 5.79823 13.8361 5.9421C13.8102 6.23176 13.7559 6.62034 13.6582 7.08082C13.463 8.00171 13.0902 9.22932 12.4078 10.542C11.0354 13.1816 8.41833 16.1448 3.55263 17.6334C3.15654 17.7546 2.7372 17.5317 2.61602 17.1356C2.49484 16.7396 2.7177 16.3202 3.11379 16.199C7.54342 14.8438 9.864 12.183 11.0769 9.85C11.6871 8.67633 12.0189 7.58047 12.1909 6.76968C12.2768 6.36432 12.3218 6.035 12.3421 5.80832C12.3523 5.69403 12.3557 5.61244 12.3558 5.56427V5.56047C12.2984 5.23674 12.4603 4.90165 12.7714 4.75307Z" fill="white"/>
<path d="M8.6296 13.0932C7.90892 12.1206 7.38718 11.1048 7.16462 10.1635C7.06931 9.7604 6.66527 9.5109 6.26217 9.6062C5.85907 9.7015 5.60955 10.1056 5.70486 10.5087C5.98774 11.7051 6.62852 12.927 7.4756 14.0547C7.89487 13.7461 8.27853 13.424 8.6296 13.0932Z" fill="white"/>
</svg>