<svg xmlns="http://www.w3.org/2000/svg" width="86" height="111" viewBox="0 0 86 111" fill="none">
    <circle opacity="0.3" cx="43" cy="40.8438" r="40" fill="url(#paint0_linear_1783_25492)"/>
    <path opacity="0.65" fill-rule="evenodd" clip-rule="evenodd" d="M43.1951 63.3145C55.3844 63.3145 65.2659 53.2704 65.2659 40.8806C65.2659 28.4907 55.3844 18.4467 43.1951 18.4467C31.0058 18.4467 21.1244 28.4907 21.1244 40.8806C21.1244 53.2704 31.0058 63.3145 43.1951 63.3145ZM50.9426 27.6324C52.7676 26.9692 54.8091 26.2274 56.286 27.7285C57.7627 29.2296 57.0329 31.3047 56.3806 33.1596C56.3488 33.2501 56.3171 33.34 56.286 33.4293C56.0874 33.9981 55.7979 34.7137 55.4888 35.4778C54.7541 37.294 53.9084 39.3846 53.9084 40.4314C53.9084 41.9186 55.5544 46.6899 56.225 48.363C56.8956 50.036 57.7433 52.5205 56.1945 54.0948C54.6458 55.669 52.2015 54.8074 50.5555 54.1258C48.9095 53.4442 44.2154 51.7711 42.7523 51.7711C41.7225 51.7711 39.6658 52.6306 37.879 53.3774C37.1272 53.6916 36.4232 53.9859 35.8635 54.1877C35.7757 54.2194 35.6873 54.2516 35.5984 54.2839C33.7734 54.947 31.7318 55.6888 30.255 54.1877C28.7782 52.6866 29.5081 50.6114 30.1604 48.7564C30.1922 48.666 30.2238 48.5762 30.255 48.4869C30.4536 47.9181 30.743 47.2026 31.0521 46.4385C31.7868 44.6222 32.6325 42.5316 32.6325 41.4848C32.6325 39.9976 30.9865 35.2263 30.316 33.5533C29.6454 31.8802 28.7977 29.3957 30.3464 27.8214C31.8952 26.2472 34.3395 27.1088 35.9855 27.7905C37.6314 28.4721 42.3256 30.1451 43.7887 30.1451C44.8185 30.1451 46.8752 29.2856 48.6621 28.5388C49.4138 28.2245 50.1178 27.9303 50.6774 27.7285C50.7652 27.6968 50.8536 27.6647 50.9426 27.6324Z" fill="url(#paint1_linear_1783_25492)"/>
    <path opacity="0.65" fill-rule="evenodd" clip-rule="evenodd" d="M58.8015 25.0174C50.1823 16.2564 36.2079 16.2564 27.5887 25.0174C18.9696 33.7784 18.9696 47.9827 27.5887 56.7437C36.2079 65.5047 50.1823 65.5047 58.8015 56.7437C67.4207 47.9827 67.4207 33.7784 58.8015 25.0174ZM28.4999 44.6805C26.7481 43.8377 24.7884 42.8949 24.7884 40.7721C24.7884 38.6492 26.7481 37.7064 28.4998 36.8636C28.5852 36.8226 28.6701 36.7817 28.7542 36.741C29.2904 36.4815 29.9928 36.1836 30.7429 35.8654C32.526 35.1092 34.5783 34.2388 35.3065 33.4986C36.3411 32.447 38.4964 27.8901 39.1861 26.2251C39.8758 24.5601 41.0048 22.194 43.1951 22.194C45.3853 22.194 46.5143 24.5601 47.204 26.2251C47.8937 27.8901 50.0491 32.447 51.0836 33.4986C51.8118 34.2388 53.8642 35.1092 55.6472 35.8654C56.3973 36.1836 57.0998 36.4815 57.6359 36.741C57.72 36.7817 57.8049 36.8226 57.8903 36.8636C59.6421 37.7064 61.6017 38.6492 61.6017 40.7721C61.6017 42.8949 59.6421 43.8377 57.8903 44.6805C57.8049 44.7216 57.72 44.7625 57.6359 44.8032C57.0998 45.0627 56.3973 45.3606 55.6472 45.6787C53.8642 46.435 51.8118 47.3054 51.0836 48.0456C50.0491 49.0972 47.8937 53.6541 47.204 55.3191C46.5143 56.9841 45.3853 59.3502 43.1951 59.3502C41.0048 59.3502 39.8758 56.9841 39.1861 55.3191C38.4964 53.6541 36.3411 49.0972 35.3065 48.0456C34.5783 47.3054 32.5259 46.4349 30.7429 45.6787C29.9928 45.3606 29.2904 45.0627 28.7542 44.8032C28.6701 44.7625 28.5852 44.7216 28.4999 44.6805Z" fill="url(#paint2_linear_1783_25492)"/>
    <path d="M10.0259 107.236L8.12844 102.431L8.09269 102.34H7.99536H6.01733H5.8021L5.88541 102.539L9.08112 110.152L9.11793 110.24H9.21305H10.7838H10.8798L10.9162 110.151L14.6041 101.168L14.6851 100.97H14.4717H12.5373H12.4391L12.4038 101.062L10.0259 107.236Z" fill="white" stroke="white" stroke-width="0.286159"/>
    <path d="M2.75183 101.058L2.71505 100.97H2.61987H0.641846H0.426111L0.510037 101.169L4.30353 110.152L4.34045 110.24H4.43534H6.3839H6.59898L6.51586 110.041L2.75183 101.058Z" fill="white" stroke="white" stroke-width="0.286159"/>
    <mask id="path-6-outside-1_1783_25492" maskUnits="userSpaceOnUse" x="14.9026" y="95.8438" width="71" height="15" fill="black">
        <rect fill="white" x="14.9026" y="95.8438" width="71" height="15"/>
        <path d="M18.2396 98.0306C18.2396 98.3593 18.1258 98.6393 17.8981 98.8706C17.6704 99.1019 17.3947 99.2175 17.0711 99.2175C16.7476 99.2175 16.4719 99.1019 16.2442 98.8706C16.0165 98.6393 15.9026 98.3593 15.9026 98.0306C15.9026 97.702 16.0165 97.422 16.2442 97.1907C16.4719 96.9594 16.7476 96.8438 17.0711 96.8438C17.3947 96.8438 17.6704 96.9594 17.8981 97.1907C18.1258 97.422 18.2396 97.702 18.2396 98.0306ZM17.8981 101.117V110.064H16.2442V101.117H17.8981Z"/>
        <path d="M26.9678 107.581C26.9678 108.36 26.6322 109.017 25.9611 109.553C25.29 110.088 24.4451 110.356 23.4264 110.356C22.5396 110.356 21.7606 110.125 21.0895 109.662C20.4183 109.187 19.939 108.567 19.6513 107.8L21.1254 107.161C21.3411 107.696 21.6527 108.116 22.0602 108.421C22.4796 108.713 22.9351 108.859 23.4264 108.859C23.9537 108.859 24.3912 108.743 24.7387 108.512C25.0982 108.281 25.278 108.007 25.278 107.69C25.278 107.118 24.8466 106.698 23.9837 106.43L22.4737 106.047C20.7599 105.609 19.903 104.769 19.903 103.527C19.903 102.711 20.2266 102.06 20.8737 101.573C21.5329 101.074 22.3718 100.824 23.3905 100.824C24.1695 100.824 24.8705 101.013 25.4937 101.39C26.1289 101.768 26.5723 102.273 26.824 102.906L25.3499 103.527C25.1821 103.15 24.9065 102.857 24.523 102.65C24.1515 102.431 23.732 102.322 23.2646 102.322C22.8332 102.322 22.4437 102.431 22.0961 102.65C21.7606 102.87 21.5928 103.137 21.5928 103.454C21.5928 103.965 22.0662 104.33 23.013 104.549L24.3432 104.896C26.0929 105.335 26.9678 106.229 26.9678 107.581Z"/>
        <path d="M32.6262 108.822C33.4412 108.822 34.1063 108.524 34.6216 107.928C35.1609 107.331 35.4306 106.552 35.4306 105.59C35.4306 104.653 35.1609 103.88 34.6216 103.271C34.0943 102.663 33.4292 102.358 32.6262 102.358C31.8353 102.358 31.1701 102.663 30.6308 103.271C30.0915 103.88 29.8219 104.653 29.8219 105.59C29.8219 106.54 30.0915 107.313 30.6308 107.909C31.1701 108.518 31.8353 108.822 32.6262 108.822ZM32.3566 110.356C31.2061 110.356 30.2174 109.894 29.3904 108.968C28.5755 108.031 28.168 106.905 28.168 105.59C28.168 104.276 28.5755 103.15 29.3904 102.212C30.2174 101.287 31.2061 100.824 32.3566 100.824C33.0037 100.824 33.591 100.964 34.1183 101.244C34.6576 101.524 35.071 101.896 35.3587 102.358H35.4306L35.3587 101.117V96.9898H37.0125V110.064H35.4306V108.822H35.3587C35.071 109.285 34.6576 109.656 34.1183 109.936C33.591 110.216 33.0037 110.356 32.3566 110.356Z"/>
        <path d="M38.6141 105.59C38.6141 104.215 39.0396 103.076 39.8905 102.176C40.7533 101.275 41.8379 100.824 43.1442 100.824C44.4505 100.824 45.5291 101.275 46.38 102.176C47.2429 103.076 47.6743 104.215 47.6743 105.59C47.6743 106.978 47.2429 108.116 46.38 109.005C45.5291 109.906 44.4505 110.356 43.1442 110.356C41.8379 110.356 40.7533 109.906 39.8905 109.005C39.0396 108.104 38.6141 106.966 38.6141 105.59ZM40.268 105.59C40.268 106.552 40.5436 107.331 41.0949 107.928C41.6462 108.524 42.3293 108.822 43.1442 108.822C43.9592 108.822 44.6423 108.524 45.1936 107.928C45.7448 107.331 46.0205 106.552 46.0205 105.59C46.0205 104.641 45.7448 103.868 45.1936 103.271C44.6303 102.663 43.9472 102.358 43.1442 102.358C42.3413 102.358 41.6582 102.663 41.0949 103.271C40.5436 103.868 40.268 104.641 40.268 105.59Z"/>
        <path d="M50.8312 110.064H49.1773V101.117H50.7593V102.358H50.8312C51.0829 101.92 51.4664 101.555 51.9817 101.263C52.509 100.971 53.0303 100.824 53.5457 100.824C54.1928 100.824 54.7621 100.977 55.2534 101.281C55.7448 101.585 56.1043 102.005 56.332 102.541C57.0631 101.397 58.0758 100.824 59.3701 100.824C60.3888 100.824 61.1737 101.141 61.725 101.774C62.2763 102.407 62.5519 103.308 62.5519 104.476V110.064H60.8981V104.732C60.8981 103.892 60.7483 103.29 60.4487 102.924C60.1491 102.547 59.6457 102.358 58.9386 102.358C58.3035 102.358 57.7702 102.632 57.3387 103.18C56.9073 103.728 56.6916 104.373 56.6916 105.116V110.064H55.0377V104.732C55.0377 103.892 54.8879 103.29 54.5883 102.924C54.2887 102.547 53.7853 102.358 53.0783 102.358C52.4431 102.358 51.9098 102.632 51.4783 103.18C51.0469 103.728 50.8312 104.373 50.8312 105.116V110.064Z"/>
        <path d="M66.801 98.0306C66.801 98.3593 66.6872 98.6393 66.4595 98.8706C66.2318 99.1019 65.9561 99.2175 65.6325 99.2175C65.309 99.2175 65.0333 99.1019 64.8056 98.8706C64.5779 98.6393 64.4641 98.3593 64.4641 98.0306C64.4641 97.702 64.5779 97.422 64.8056 97.1907C65.0333 96.9594 65.309 96.8438 65.6325 96.8438C65.9561 96.8438 66.2318 96.9594 66.4595 97.1907C66.6872 97.422 66.801 97.702 66.801 98.0306ZM66.4595 101.117V110.064H64.8056V101.117H66.4595Z"/>
        <path d="M75.5292 107.581C75.5292 108.36 75.1937 109.017 74.5225 109.553C73.8514 110.088 73.0065 110.356 71.9878 110.356C71.101 110.356 70.322 110.125 69.6509 109.662C68.9797 109.187 68.5004 108.567 68.2127 107.8L69.6868 107.161C69.9025 107.696 70.2141 108.116 70.6216 108.421C71.0411 108.713 71.4965 108.859 71.9878 108.859C72.5151 108.859 72.9526 108.743 73.3001 108.512C73.6596 108.281 73.8394 108.007 73.8394 107.69C73.8394 107.118 73.408 106.698 72.5451 106.43L71.0351 106.047C69.3213 105.609 68.4644 104.769 68.4644 103.527C68.4644 102.711 68.788 102.06 69.4351 101.573C70.0943 101.074 70.9332 100.824 71.9519 100.824C72.7309 100.824 73.4319 101.013 74.0551 101.39C74.6903 101.768 75.1337 102.273 75.3854 102.906L73.9113 103.527C73.7435 103.15 73.4679 102.857 73.0844 102.65C72.7129 102.431 72.2934 102.322 71.826 102.322C71.3946 102.322 71.0051 102.431 70.6576 102.65C70.322 102.87 70.1542 103.137 70.1542 103.454C70.1542 103.965 70.6276 104.33 71.5744 104.549L72.9046 104.896C74.6544 105.335 75.5292 106.229 75.5292 107.581Z"/>
        <path d="M81.1876 110.356C79.8933 110.356 78.8267 109.906 77.9878 109.005C77.1489 108.104 76.7294 106.966 76.7294 105.59C76.7294 104.227 77.1369 103.095 77.9518 102.194C78.7668 101.281 79.8094 100.824 81.0798 100.824C82.3861 100.824 83.4227 101.257 84.1897 102.121C84.9687 102.973 85.3582 104.172 85.3582 105.718L85.3402 105.901H78.4192C78.4432 106.777 78.7308 107.483 79.2821 108.019C79.8334 108.554 80.4925 108.822 81.2595 108.822C82.3142 108.822 83.1411 108.287 83.7403 107.215L85.2144 107.946C84.8189 108.701 84.2676 109.291 83.5605 109.717C82.8654 110.143 82.0745 110.356 81.1876 110.356ZM78.5451 104.513H83.5965C83.5486 103.892 83.2969 103.381 82.8415 102.979C82.3981 102.565 81.7988 102.358 81.0438 102.358C80.4206 102.358 79.8813 102.553 79.4259 102.943C78.9825 103.332 78.6889 103.856 78.5451 104.513Z"/>
    </mask>
    <path d="M18.2396 98.0306C18.2396 98.3593 18.1258 98.6393 17.8981 98.8706C17.6704 99.1019 17.3947 99.2175 17.0711 99.2175C16.7476 99.2175 16.4719 99.1019 16.2442 98.8706C16.0165 98.6393 15.9026 98.3593 15.9026 98.0306C15.9026 97.702 16.0165 97.422 16.2442 97.1907C16.4719 96.9594 16.7476 96.8438 17.0711 96.8438C17.3947 96.8438 17.6704 96.9594 17.8981 97.1907C18.1258 97.422 18.2396 97.702 18.2396 98.0306ZM17.8981 101.117V110.064H16.2442V101.117H17.8981Z" fill="white"/>
    <path d="M26.9678 107.581C26.9678 108.36 26.6322 109.017 25.9611 109.553C25.29 110.088 24.4451 110.356 23.4264 110.356C22.5396 110.356 21.7606 110.125 21.0895 109.662C20.4183 109.187 19.939 108.567 19.6513 107.8L21.1254 107.161C21.3411 107.696 21.6527 108.116 22.0602 108.421C22.4796 108.713 22.9351 108.859 23.4264 108.859C23.9537 108.859 24.3912 108.743 24.7387 108.512C25.0982 108.281 25.278 108.007 25.278 107.69C25.278 107.118 24.8466 106.698 23.9837 106.43L22.4737 106.047C20.7599 105.609 19.903 104.769 19.903 103.527C19.903 102.711 20.2266 102.06 20.8737 101.573C21.5329 101.074 22.3718 100.824 23.3905 100.824C24.1695 100.824 24.8705 101.013 25.4937 101.39C26.1289 101.768 26.5723 102.273 26.824 102.906L25.3499 103.527C25.1821 103.15 24.9065 102.857 24.523 102.65C24.1515 102.431 23.732 102.322 23.2646 102.322C22.8332 102.322 22.4437 102.431 22.0961 102.65C21.7606 102.87 21.5928 103.137 21.5928 103.454C21.5928 103.965 22.0662 104.33 23.013 104.549L24.3432 104.896C26.0929 105.335 26.9678 106.229 26.9678 107.581Z" fill="white"/>
    <path d="M32.6262 108.822C33.4412 108.822 34.1063 108.524 34.6216 107.928C35.1609 107.331 35.4306 106.552 35.4306 105.59C35.4306 104.653 35.1609 103.88 34.6216 103.271C34.0943 102.663 33.4292 102.358 32.6262 102.358C31.8353 102.358 31.1701 102.663 30.6308 103.271C30.0915 103.88 29.8219 104.653 29.8219 105.59C29.8219 106.54 30.0915 107.313 30.6308 107.909C31.1701 108.518 31.8353 108.822 32.6262 108.822ZM32.3566 110.356C31.2061 110.356 30.2174 109.894 29.3904 108.968C28.5755 108.031 28.168 106.905 28.168 105.59C28.168 104.276 28.5755 103.15 29.3904 102.212C30.2174 101.287 31.2061 100.824 32.3566 100.824C33.0037 100.824 33.591 100.964 34.1183 101.244C34.6576 101.524 35.071 101.896 35.3587 102.358H35.4306L35.3587 101.117V96.9898H37.0125V110.064H35.4306V108.822H35.3587C35.071 109.285 34.6576 109.656 34.1183 109.936C33.591 110.216 33.0037 110.356 32.3566 110.356Z" fill="white"/>
    <path d="M38.6141 105.59C38.6141 104.215 39.0396 103.076 39.8905 102.176C40.7533 101.275 41.8379 100.824 43.1442 100.824C44.4505 100.824 45.5291 101.275 46.38 102.176C47.2429 103.076 47.6743 104.215 47.6743 105.59C47.6743 106.978 47.2429 108.116 46.38 109.005C45.5291 109.906 44.4505 110.356 43.1442 110.356C41.8379 110.356 40.7533 109.906 39.8905 109.005C39.0396 108.104 38.6141 106.966 38.6141 105.59ZM40.268 105.59C40.268 106.552 40.5436 107.331 41.0949 107.928C41.6462 108.524 42.3293 108.822 43.1442 108.822C43.9592 108.822 44.6423 108.524 45.1936 107.928C45.7448 107.331 46.0205 106.552 46.0205 105.59C46.0205 104.641 45.7448 103.868 45.1936 103.271C44.6303 102.663 43.9472 102.358 43.1442 102.358C42.3413 102.358 41.6582 102.663 41.0949 103.271C40.5436 103.868 40.268 104.641 40.268 105.59Z" fill="white"/>
    <path d="M50.8312 110.064H49.1773V101.117H50.7593V102.358H50.8312C51.0829 101.92 51.4664 101.555 51.9817 101.263C52.509 100.971 53.0303 100.824 53.5457 100.824C54.1928 100.824 54.7621 100.977 55.2534 101.281C55.7448 101.585 56.1043 102.005 56.332 102.541C57.0631 101.397 58.0758 100.824 59.3701 100.824C60.3888 100.824 61.1737 101.141 61.725 101.774C62.2763 102.407 62.5519 103.308 62.5519 104.476V110.064H60.8981V104.732C60.8981 103.892 60.7483 103.29 60.4487 102.924C60.1491 102.547 59.6457 102.358 58.9386 102.358C58.3035 102.358 57.7702 102.632 57.3387 103.18C56.9073 103.728 56.6916 104.373 56.6916 105.116V110.064H55.0377V104.732C55.0377 103.892 54.8879 103.29 54.5883 102.924C54.2887 102.547 53.7853 102.358 53.0783 102.358C52.4431 102.358 51.9098 102.632 51.4783 103.18C51.0469 103.728 50.8312 104.373 50.8312 105.116V110.064Z" fill="white"/>
    <path d="M66.801 98.0306C66.801 98.3593 66.6872 98.6393 66.4595 98.8706C66.2318 99.1019 65.9561 99.2175 65.6325 99.2175C65.309 99.2175 65.0333 99.1019 64.8056 98.8706C64.5779 98.6393 64.4641 98.3593 64.4641 98.0306C64.4641 97.702 64.5779 97.422 64.8056 97.1907C65.0333 96.9594 65.309 96.8438 65.6325 96.8438C65.9561 96.8438 66.2318 96.9594 66.4595 97.1907C66.6872 97.422 66.801 97.702 66.801 98.0306ZM66.4595 101.117V110.064H64.8056V101.117H66.4595Z" fill="white"/>
    <path d="M75.5292 107.581C75.5292 108.36 75.1937 109.017 74.5225 109.553C73.8514 110.088 73.0065 110.356 71.9878 110.356C71.101 110.356 70.322 110.125 69.6509 109.662C68.9797 109.187 68.5004 108.567 68.2127 107.8L69.6868 107.161C69.9025 107.696 70.2141 108.116 70.6216 108.421C71.0411 108.713 71.4965 108.859 71.9878 108.859C72.5151 108.859 72.9526 108.743 73.3001 108.512C73.6596 108.281 73.8394 108.007 73.8394 107.69C73.8394 107.118 73.408 106.698 72.5451 106.43L71.0351 106.047C69.3213 105.609 68.4644 104.769 68.4644 103.527C68.4644 102.711 68.788 102.06 69.4351 101.573C70.0943 101.074 70.9332 100.824 71.9519 100.824C72.7309 100.824 73.4319 101.013 74.0551 101.39C74.6903 101.768 75.1337 102.273 75.3854 102.906L73.9113 103.527C73.7435 103.15 73.4679 102.857 73.0844 102.65C72.7129 102.431 72.2934 102.322 71.826 102.322C71.3946 102.322 71.0051 102.431 70.6576 102.65C70.322 102.87 70.1542 103.137 70.1542 103.454C70.1542 103.965 70.6276 104.33 71.5744 104.549L72.9046 104.896C74.6544 105.335 75.5292 106.229 75.5292 107.581Z" fill="white"/>
    <path d="M81.1876 110.356C79.8933 110.356 78.8267 109.906 77.9878 109.005C77.1489 108.104 76.7294 106.966 76.7294 105.59C76.7294 104.227 77.1369 103.095 77.9518 102.194C78.7668 101.281 79.8094 100.824 81.0798 100.824C82.3861 100.824 83.4227 101.257 84.1897 102.121C84.9687 102.973 85.3582 104.172 85.3582 105.718L85.3402 105.901H78.4192C78.4432 106.777 78.7308 107.483 79.2821 108.019C79.8334 108.554 80.4925 108.822 81.2595 108.822C82.3142 108.822 83.1411 108.287 83.7403 107.215L85.2144 107.946C84.8189 108.701 84.2676 109.291 83.5605 109.717C82.8654 110.143 82.0745 110.356 81.1876 110.356ZM78.5451 104.513H83.5965C83.5486 103.892 83.2969 103.381 82.8415 102.979C82.3981 102.565 81.7988 102.358 81.0438 102.358C80.4206 102.358 79.8813 102.553 79.4259 102.943C78.9825 103.332 78.6889 103.856 78.5451 104.513Z" fill="white"/>
    <path d="M18.2396 98.0306C18.2396 98.3593 18.1258 98.6393 17.8981 98.8706C17.6704 99.1019 17.3947 99.2175 17.0711 99.2175C16.7476 99.2175 16.4719 99.1019 16.2442 98.8706C16.0165 98.6393 15.9026 98.3593 15.9026 98.0306C15.9026 97.702 16.0165 97.422 16.2442 97.1907C16.4719 96.9594 16.7476 96.8438 17.0711 96.8438C17.3947 96.8438 17.6704 96.9594 17.8981 97.1907C18.1258 97.422 18.2396 97.702 18.2396 98.0306ZM17.8981 101.117V110.064H16.2442V101.117H17.8981Z" stroke="white" stroke-width="0.572319" mask="url(#path-6-outside-1_1783_25492)"/>
    <path d="M26.9678 107.581C26.9678 108.36 26.6322 109.017 25.9611 109.553C25.29 110.088 24.4451 110.356 23.4264 110.356C22.5396 110.356 21.7606 110.125 21.0895 109.662C20.4183 109.187 19.939 108.567 19.6513 107.8L21.1254 107.161C21.3411 107.696 21.6527 108.116 22.0602 108.421C22.4796 108.713 22.9351 108.859 23.4264 108.859C23.9537 108.859 24.3912 108.743 24.7387 108.512C25.0982 108.281 25.278 108.007 25.278 107.69C25.278 107.118 24.8466 106.698 23.9837 106.43L22.4737 106.047C20.7599 105.609 19.903 104.769 19.903 103.527C19.903 102.711 20.2266 102.06 20.8737 101.573C21.5329 101.074 22.3718 100.824 23.3905 100.824C24.1695 100.824 24.8705 101.013 25.4937 101.39C26.1289 101.768 26.5723 102.273 26.824 102.906L25.3499 103.527C25.1821 103.15 24.9065 102.857 24.523 102.65C24.1515 102.431 23.732 102.322 23.2646 102.322C22.8332 102.322 22.4437 102.431 22.0961 102.65C21.7606 102.87 21.5928 103.137 21.5928 103.454C21.5928 103.965 22.0662 104.33 23.013 104.549L24.3432 104.896C26.0929 105.335 26.9678 106.229 26.9678 107.581Z" stroke="white" stroke-width="0.572319" mask="url(#path-6-outside-1_1783_25492)"/>
    <path d="M32.6262 108.822C33.4412 108.822 34.1063 108.524 34.6216 107.928C35.1609 107.331 35.4306 106.552 35.4306 105.59C35.4306 104.653 35.1609 103.88 34.6216 103.271C34.0943 102.663 33.4292 102.358 32.6262 102.358C31.8353 102.358 31.1701 102.663 30.6308 103.271C30.0915 103.88 29.8219 104.653 29.8219 105.59C29.8219 106.54 30.0915 107.313 30.6308 107.909C31.1701 108.518 31.8353 108.822 32.6262 108.822ZM32.3566 110.356C31.2061 110.356 30.2174 109.894 29.3904 108.968C28.5755 108.031 28.168 106.905 28.168 105.59C28.168 104.276 28.5755 103.15 29.3904 102.212C30.2174 101.287 31.2061 100.824 32.3566 100.824C33.0037 100.824 33.591 100.964 34.1183 101.244C34.6576 101.524 35.071 101.896 35.3587 102.358H35.4306L35.3587 101.117V96.9898H37.0125V110.064H35.4306V108.822H35.3587C35.071 109.285 34.6576 109.656 34.1183 109.936C33.591 110.216 33.0037 110.356 32.3566 110.356Z" stroke="white" stroke-width="0.572319" mask="url(#path-6-outside-1_1783_25492)"/>
    <path d="M38.6141 105.59C38.6141 104.215 39.0396 103.076 39.8905 102.176C40.7533 101.275 41.8379 100.824 43.1442 100.824C44.4505 100.824 45.5291 101.275 46.38 102.176C47.2429 103.076 47.6743 104.215 47.6743 105.59C47.6743 106.978 47.2429 108.116 46.38 109.005C45.5291 109.906 44.4505 110.356 43.1442 110.356C41.8379 110.356 40.7533 109.906 39.8905 109.005C39.0396 108.104 38.6141 106.966 38.6141 105.59ZM40.268 105.59C40.268 106.552 40.5436 107.331 41.0949 107.928C41.6462 108.524 42.3293 108.822 43.1442 108.822C43.9592 108.822 44.6423 108.524 45.1936 107.928C45.7448 107.331 46.0205 106.552 46.0205 105.59C46.0205 104.641 45.7448 103.868 45.1936 103.271C44.6303 102.663 43.9472 102.358 43.1442 102.358C42.3413 102.358 41.6582 102.663 41.0949 103.271C40.5436 103.868 40.268 104.641 40.268 105.59Z" stroke="white" stroke-width="0.572319" mask="url(#path-6-outside-1_1783_25492)"/>
    <path d="M50.8312 110.064H49.1773V101.117H50.7593V102.358H50.8312C51.0829 101.92 51.4664 101.555 51.9817 101.263C52.509 100.971 53.0303 100.824 53.5457 100.824C54.1928 100.824 54.7621 100.977 55.2534 101.281C55.7448 101.585 56.1043 102.005 56.332 102.541C57.0631 101.397 58.0758 100.824 59.3701 100.824C60.3888 100.824 61.1737 101.141 61.725 101.774C62.2763 102.407 62.5519 103.308 62.5519 104.476V110.064H60.8981V104.732C60.8981 103.892 60.7483 103.29 60.4487 102.924C60.1491 102.547 59.6457 102.358 58.9386 102.358C58.3035 102.358 57.7702 102.632 57.3387 103.18C56.9073 103.728 56.6916 104.373 56.6916 105.116V110.064H55.0377V104.732C55.0377 103.892 54.8879 103.29 54.5883 102.924C54.2887 102.547 53.7853 102.358 53.0783 102.358C52.4431 102.358 51.9098 102.632 51.4783 103.18C51.0469 103.728 50.8312 104.373 50.8312 105.116V110.064Z" stroke="white" stroke-width="0.572319" mask="url(#path-6-outside-1_1783_25492)"/>
    <path d="M66.801 98.0306C66.801 98.3593 66.6872 98.6393 66.4595 98.8706C66.2318 99.1019 65.9561 99.2175 65.6325 99.2175C65.309 99.2175 65.0333 99.1019 64.8056 98.8706C64.5779 98.6393 64.4641 98.3593 64.4641 98.0306C64.4641 97.702 64.5779 97.422 64.8056 97.1907C65.0333 96.9594 65.309 96.8438 65.6325 96.8438C65.9561 96.8438 66.2318 96.9594 66.4595 97.1907C66.6872 97.422 66.801 97.702 66.801 98.0306ZM66.4595 101.117V110.064H64.8056V101.117H66.4595Z" stroke="white" stroke-width="0.572319" mask="url(#path-6-outside-1_1783_25492)"/>
    <path d="M75.5292 107.581C75.5292 108.36 75.1937 109.017 74.5225 109.553C73.8514 110.088 73.0065 110.356 71.9878 110.356C71.101 110.356 70.322 110.125 69.6509 109.662C68.9797 109.187 68.5004 108.567 68.2127 107.8L69.6868 107.161C69.9025 107.696 70.2141 108.116 70.6216 108.421C71.0411 108.713 71.4965 108.859 71.9878 108.859C72.5151 108.859 72.9526 108.743 73.3001 108.512C73.6596 108.281 73.8394 108.007 73.8394 107.69C73.8394 107.118 73.408 106.698 72.5451 106.43L71.0351 106.047C69.3213 105.609 68.4644 104.769 68.4644 103.527C68.4644 102.711 68.788 102.06 69.4351 101.573C70.0943 101.074 70.9332 100.824 71.9519 100.824C72.7309 100.824 73.4319 101.013 74.0551 101.39C74.6903 101.768 75.1337 102.273 75.3854 102.906L73.9113 103.527C73.7435 103.15 73.4679 102.857 73.0844 102.65C72.7129 102.431 72.2934 102.322 71.826 102.322C71.3946 102.322 71.0051 102.431 70.6576 102.65C70.322 102.87 70.1542 103.137 70.1542 103.454C70.1542 103.965 70.6276 104.33 71.5744 104.549L72.9046 104.896C74.6544 105.335 75.5292 106.229 75.5292 107.581Z" stroke="white" stroke-width="0.572319" mask="url(#path-6-outside-1_1783_25492)"/>
    <path d="M81.1876 110.356C79.8933 110.356 78.8267 109.906 77.9878 109.005C77.1489 108.104 76.7294 106.966 76.7294 105.59C76.7294 104.227 77.1369 103.095 77.9518 102.194C78.7668 101.281 79.8094 100.824 81.0798 100.824C82.3861 100.824 83.4227 101.257 84.1897 102.121C84.9687 102.973 85.3582 104.172 85.3582 105.718L85.3402 105.901H78.4192C78.4432 106.777 78.7308 107.483 79.2821 108.019C79.8334 108.554 80.4925 108.822 81.2595 108.822C82.3142 108.822 83.1411 108.287 83.7403 107.215L85.2144 107.946C84.8189 108.701 84.2676 109.291 83.5605 109.717C82.8654 110.143 82.0745 110.356 81.1876 110.356ZM78.5451 104.513H83.5965C83.5486 103.892 83.2969 103.381 82.8415 102.979C82.3981 102.565 81.7988 102.358 81.0438 102.358C80.4206 102.358 79.8813 102.553 79.4259 102.943C78.9825 103.332 78.6889 103.856 78.5451 104.513Z" stroke="white" stroke-width="0.572319" mask="url(#path-6-outside-1_1783_25492)"/>
    <defs>
        <linearGradient id="paint0_linear_1783_25492" x1="0.866663" y1="80.8437" x2="83.8754" y2="1.76262" gradientUnits="userSpaceOnUse">
            <stop stop-color="#00A3FF"/>
            <stop offset="1" stop-color="#FF00C7"/>
        </linearGradient>
        <linearGradient id="paint1_linear_1783_25492" x1="66.443" y1="18.4467" x2="19.9307" y2="62.0409" gradientUnits="userSpaceOnUse">
            <stop stop-color="#00A3FF"/>
            <stop offset="1" stop-color="#FF00C7"/>
        </linearGradient>
        <linearGradient id="paint2_linear_1783_25492" x1="69.1503" y1="18.4467" x2="17.2082" y2="21.0808" gradientUnits="userSpaceOnUse">
            <stop stop-color="#00FFF0"/>
            <stop offset="0.0001" stop-color="#13DEF2"/>
            <stop offset="0.855974" stop-color="#E26CFF"/>
        </linearGradient>
    </defs>
</svg>
