<svg xmlns="http://www.w3.org/2000/svg" width="441" height="132" viewBox="0 0 441 132" fill="none">
    <path d="M282.08 42.084C279.499 49.3424 273.299 47.9646 270.521 46.3684C273.391 50.0532 273.476 49.744 273.579 53.909C282.395 54.9171 286.033 49.9606 286.75 47.3563L282.08 42.084Z" fill="#FF00C7"/>
    <path d="M392.559 12C389.978 19.2584 383.778 17.8806 381 16.2845C383.87 19.9692 383.955 19.66 384.058 23.825C392.875 24.8331 396.512 19.8766 397.229 17.2723L392.559 12Z" fill="#FF00C7"/>
    <path d="M139.517 110C137.615 115.185 133.047 114.2 131 113.06C133.115 115.692 133.177 115.471 133.253 118.446C139.75 119.167 142.43 115.626 142.958 113.766L139.517 110Z" fill="#FF00C7"/>
    <path d="M115.25 0C106.055 1.24464 104.632 8.93146 105.07 12.6193L110.652 14.5208C109.733 5.80833 113.334 1.21007 115.25 0Z" fill="#FF00C7"/>
    <path d="M62.1042 30.125C52.909 31.3696 51.486 39.0565 51.9238 42.7443L57.5066 44.6458C56.5871 35.9333 60.1885 31.3351 62.1042 30.125Z" fill="#FF00C7"/>
    <path d="M349.229 52C344.149 50.9333 340.527 44.8889 339.351 42L333 45C334.976 51.6667 341.35 54.8889 344.29 55.6667L349.229 52Z" fill="#78EFD9"/>
    <path d="M389.229 103C384.149 101.933 380.527 95.8889 379.351 93L373 96C374.976 102.667 381.35 105.889 384.29 106.667L389.229 103Z" fill="#78EFD9"/>
    <path d="M76.2292 94C71.1487 92.9333 67.5266 86.8889 66.3505 84L60 87C61.9757 93.6667 68.3498 96.8889 71.2899 97.6667L76.2292 94Z" fill="#78EFD9"/>
    <path d="M164.104 32.5C160.628 31.7 158.15 27.1667 157.345 25L153 27.25C154.352 32.25 158.713 34.6667 160.725 35.25L164.104 32.5Z" fill="#78EFD9"/>
    <path d="M16.1042 115.5C12.6281 114.7 10.1498 110.167 9.34511 108L5 110.25C6.35181 115.25 10.713 117.667 12.7246 118.25L16.1042 115.5Z" fill="#78EFD9"/>
    <path d="M307 112.768L311.828 102L315.542 106.556C313.759 112.519 311.085 115.114 309.971 115.667L307 112.768Z" fill="#00A3FF"/>
    <path d="M280 14.7677L284.828 4L288.542 8.55556C286.759 14.5192 284.085 17.1145 282.971 17.6667L280 14.7677Z" fill="#00A3FF"/>
    <path d="M431.958 94.7052L436.786 83.9375L440.5 88.4931C438.717 94.4567 436.044 97.052 434.929 97.6042L431.958 94.7052Z" fill="#00A3FF"/>
    <path d="M76 129.095L81.3107 119L85.3958 123.271C83.435 128.862 80.4937 131.295 79.2681 131.812L76 129.095Z" fill="#00A3FF"/>
    <path d="M112.5 69.2607L117.811 59.166L121.896 63.4368C119.935 69.0278 116.994 71.4608 115.768 71.9785L112.5 69.2607Z" fill="#00A3FF"/>
    <path d="M0 22.0947L5.31069 12L9.39583 16.2708C7.43496 21.8617 4.49366 24.2948 3.26812 24.8125L0 22.0947Z" fill="#00A3FF"/>
</svg>
