<svg width="25" height="25" viewBox="0 0 25 25" fill="none" xmlns="http://www.w3.org/2000/svg">
  <g clip-path="url(#clip0_3337_39239)">
    <path fill-rule="evenodd" clip-rule="evenodd"
      d="M24.0352 12.1816C24.0352 5.55352 18.6633 0.181641 12.0352 0.181641C5.40703 0.181641 0.0351562 5.55352 0.0351562 12.1816C0.0351562 18.8098 5.40703 24.1816 12.0352 24.1816C18.6633 24.1816 24.0352 18.8098 24.0352 12.1816ZM7.81875 12.1816C7.81875 14.5137 9.70781 16.4004 12.0375 16.4004C14.1258 16.4004 15.8555 14.877 16.1906 12.8848H20.4422C20.0836 17.216 16.4578 20.6191 12.0352 20.6191C7.37578 20.6191 3.59766 16.841 3.59766 12.1816C3.59766 7.52227 7.37578 3.74414 12.0352 3.74414C16.4578 3.74414 20.0836 7.14727 20.4422 11.4785H16.193C15.8602 9.48633 14.1258 7.96289 12.0375 7.96289C9.70781 7.96289 7.81875 9.84961 7.81875 12.1816Z"
      fill="#131822" />
  </g>
  <defs>
    <clipPath id="clip0_3337_39239">
      <rect width="24" height="24" fill="white" transform="translate(0.0351562 0.181641)" />
    </clipPath>
  </defs>
</svg>
