<svg xmlns="http://www.w3.org/2000/svg" width="140" height="141" viewBox="0 0 140 141" fill="none">
    <circle cx="70" cy="70.5" r="70" fill="white" fill-opacity="0.1"/>
    <path d="M43 61.7705V57.039C43 50.5911 48.2278 45.3633 54.6786 45.3633H58.5461" stroke="white" stroke-width="4.5" stroke-linecap="round" stroke-linejoin="round"/>
    <path d="M43 82.957V87.6886C43 94.1365 48.2278 99.3643 54.6786 99.3643H58.4498" stroke="white" stroke-width="4.5" stroke-linecap="round" stroke-linejoin="round"/>
    <path d="M96.9972 82.957V87.6886C96.9972 94.1365 91.7694 99.3643 85.3185 99.3643H81.4512" stroke="white" stroke-width="4.5" stroke-linecap="round" stroke-linejoin="round"/>
    <path d="M61.4385 71.7566L72.6349 60.5582C72.4471 59.7034 72.3187 58.8419 72.3187 57.9308C72.3187 51.1237 77.8369 45.6055 84.6442 45.6055C91.4512 45.6055 96.9697 51.1237 96.9697 57.9308C96.9697 64.7381 91.4512 70.2563 84.6442 70.2563C83.3227 70.2563 82.0447 70.0481 80.8513 69.6632L78.3136 72.1952H75.3661V76.6895H70.798V79.6127C70.798 80.4398 70.1275 81.1103 69.3004 81.1103H62.4975C61.6704 81.1103 61 80.4398 61 79.6127V72.8153C61 72.4184 61.1577 72.0374 61.4385 71.7566Z" stroke="white" stroke-width="4.5" stroke-linecap="round" stroke-linejoin="round"/>
    <path d="M88.0748 58.0564C88.4285 56.0002 86.8046 54.2182 84.7949 54.3016" stroke="white" stroke-width="4.5" stroke-linecap="round" stroke-linejoin="round"/>
</svg>
