<svg width="25" height="25" viewBox="0 0 25 25" fill="none" xmlns="http://www.w3.org/2000/svg">
  <g clip-path="url(#clip0_3337_39232)">
    <path fill-rule="evenodd" clip-rule="evenodd"
      d="M52.4082 6.53447L52.1817 5.45897H49.0347V18.212H52.6707V9.55697C53.5309 8.43197 54.9822 8.65097 55.4442 8.79422V5.46047C54.9597 5.28647 53.2594 4.96697 52.4082 6.53297V6.53447ZM45.1107 2.29997L41.5587 3.05447L41.5437 14.726C41.5437 16.8785 43.1622 18.4707 45.3222 18.4707C46.5109 18.4707 47.3892 18.2442 47.8759 17.9885V15.026C47.4094 15.212 45.1137 15.8795 45.1137 13.736V8.56097H47.8759V5.45822H45.1137L45.1107 2.29997ZM35.2602 9.15947C35.2602 8.59097 35.7327 8.37197 36.4962 8.37197C37.76 8.39933 39.0002 8.72029 40.1187 9.30947V5.88197C38.9654 5.42851 37.7353 5.20236 36.4962 5.21597C33.5532 5.21597 31.5784 6.75797 31.5784 9.33197C31.5784 13.3595 37.1097 12.7055 37.1097 14.4417C37.1097 15.1212 36.5247 15.3312 35.7124 15.3312C34.5079 15.3312 32.9524 14.8332 31.7322 14.1687V17.6412C32.9883 18.1876 34.3426 18.4726 35.7124 18.479C38.7372 18.479 40.8222 16.985 40.8222 14.3652C40.8222 10.0182 35.2594 10.7952 35.2594 9.15797L35.2602 9.15947ZM10.9452 7.31822C10.9452 6.29072 11.8002 5.89322 13.1817 5.89322C15.4681 5.94262 17.7117 6.52316 19.7352 7.58897V1.38647C17.6487 0.566504 15.4233 0.15775 13.1817 0.182719C7.85666 0.182719 4.28516 2.97197 4.28516 7.62947C4.28516 14.9165 14.2917 13.733 14.2917 16.874C14.2917 18.1025 13.2417 18.4835 11.7642 18.4835C9.58541 18.4835 6.77141 17.582 4.56416 16.382V22.6655C6.83666 23.6543 9.28663 24.1702 11.7649 24.182C17.2377 24.182 21.0102 21.4782 21.0102 16.7397C21.0102 8.87522 10.9452 10.28 10.9452 7.31972V7.31822Z"
      fill="#131822" />
  </g>
  <defs>
    <clipPath id="clip0_3337_39232">
      <rect width="24" height="24" fill="white" transform="translate(0.535156 0.181641)" />
    </clipPath>
  </defs>
</svg>
