<svg width="24" height="24" viewBox="0 0 24 24" fill="none" xmlns="http://www.w3.org/2000/svg">
<path fill-rule="evenodd" clip-rule="evenodd" d="M21.1143 12.0728C18.3744 12.961 16.2267 15.1087 15.3384 17.8498C14.4501 15.1087 12.3024 12.961 9.5625 12.0728C12.3024 11.1845 14.4501 9.03676 15.3384 6.29688C16.2267 9.03676 18.3744 11.1845 21.1143 12.0728Z" fill="#E511CD" stroke="#E511CD" stroke-width="1.5" stroke-linecap="round" stroke-linejoin="round"/>
<path fill-rule="evenodd" clip-rule="evenodd" d="M8.9831 5.56773C8.02726 5.8776 7.27801 6.62685 6.96811 7.58311C6.65821 6.62685 5.90896 5.8776 4.95312 5.56773C5.90896 5.25782 6.65821 4.50857 6.96811 3.55273C7.27801 4.50857 8.02726 5.25782 8.9831 5.56773Z" fill="#E511CD" stroke="#E511CD" stroke-width="1.5" stroke-linecap="round" stroke-linejoin="round"/>
<path fill-rule="evenodd" clip-rule="evenodd" d="M9.0918 17.4561C7.6738 17.9158 6.5623 19.0273 6.10256 20.446C5.64281 19.0273 4.53129 17.9158 3.11328 17.4561C4.53129 16.9964 5.64281 15.8848 6.10256 14.4668C6.5623 15.8848 7.6738 16.9964 9.0918 17.4561Z" fill="#E511CD" stroke="#E511CD" stroke-width="1.5" stroke-linecap="round" stroke-linejoin="round"/>
</svg>
