<svg width="312" height="66" viewBox="0 0 312 66" fill="none" xmlns="http://www.w3.org/2000/svg">
  <path fill-rule="evenodd" clip-rule="evenodd"
    d="M53.5788 11.2799C53.5788 7.93939 51.9611 5.3027 48.8674 5.3027C45.7625 5.3027 43.8824 7.93882 43.8824 11.2533C43.8824 15.1813 46.1008 17.1647 49.2847 17.1647C50.8377 17.1647 52.0122 16.8127 52.8994 16.3166V13.7066C52.0122 14.1505 50.9944 14.4241 49.7024 14.4241C48.4366 14.4241 47.3144 13.9802 47.1708 12.4408H53.551C53.551 12.2705 53.5771 11.5927 53.5771 11.2794L53.5788 11.2799ZM47.1378 10.0408C47.1378 8.56606 48.0381 7.95301 48.8606 7.95301C49.6565 7.95301 50.5051 8.56606 50.5051 10.0408H47.1378ZM38.852 5.30384C37.5731 5.30384 36.7517 5.90383 36.2942 6.32162L36.1239 5.51273H33.2477V20.7283L36.5099 20.0369L36.523 16.3439C36.993 16.6833 37.6844 17.1658 38.8333 17.1658C41.1691 17.1658 43.2961 15.2926 43.2961 11.15C43.283 7.36551 41.1299 5.30327 38.8458 5.30327L38.852 5.30384ZM38.0687 14.2952C37.2989 14.2952 36.8426 14.0211 36.5287 13.6822L36.5156 8.84023C36.855 8.46162 37.3245 8.20107 38.0687 8.20107C39.2562 8.20107 40.0781 9.53219 40.0781 11.2413C40.0781 12.9897 39.2692 14.2952 38.0687 14.2952ZM28.7594 4.53412L32.0347 3.83025V1.18164L28.7594 1.87303V4.53412ZM28.7594 5.52579H32.0347V16.9439H28.7594V5.52579ZM25.2485 6.49077L25.0396 5.52579H22.2207V16.945H25.483V9.20579C26.2527 8.20107 27.5577 8.38385 27.9624 8.52746V5.52635C27.5446 5.36969 26.0182 5.08246 25.248 6.49134L25.2485 6.49077ZM18.7241 2.68759L15.5402 3.36705L15.5271 13.8196C15.5271 15.7507 16.9757 17.1732 18.9069 17.1732C19.9769 17.1732 20.7596 16.9773 21.1905 16.7418V14.0926C20.7727 14.2629 18.711 14.8623 18.711 12.9312V8.30552H21.1905V5.52579H18.7099L18.7241 2.68759ZM9.90295 8.83399C9.90295 8.32482 10.3207 8.13012 11.0121 8.13012C12.1407 8.15416 13.2482 8.43979 14.2477 8.96455V5.9044C13.1646 5.473 12.0946 5.30441 11.0121 5.30441C8.36295 5.30441 6.60156 6.68775 6.60156 8.99747C6.60156 12.5991 11.5605 12.0247 11.5605 13.5783C11.5605 14.1783 11.0382 14.3742 10.3077 14.3742C9.22462 14.3742 7.84129 13.9303 6.74518 13.3297V16.4347C7.95879 16.9569 9.18603 17.1726 10.3077 17.1726C13.0221 17.1726 14.8885 15.8284 14.8885 13.4926C14.8755 9.60428 9.90295 10.2957 9.90295 8.83399Z"
    fill="#635BFF" />
  <path
    d="M106.015 5.82227H101.807C101.667 5.82218 101.532 5.87185 101.426 5.96233C101.321 6.05281 101.25 6.17816 101.229 6.31577L99.5267 17.1071C99.5188 17.1572 99.522 17.2084 99.5358 17.2571C99.5497 17.3059 99.5739 17.351 99.6069 17.3895C99.6399 17.428 99.6808 17.4589 99.7269 17.48C99.7729 17.5012 99.823 17.5121 99.8737 17.512H101.883C102.022 17.5121 102.157 17.4623 102.263 17.3717C102.369 17.2811 102.439 17.1556 102.461 17.0179L102.92 14.1073C102.941 13.9697 103.011 13.8443 103.117 13.7537C103.223 13.6631 103.358 13.6133 103.497 13.6132H104.829C107.601 13.6132 109.201 12.2717 109.619 9.61342C109.807 8.45041 109.627 7.53662 109.082 6.89666C108.484 6.19394 107.423 5.82227 106.015 5.82227ZM106.5 9.76356C106.27 11.2736 105.116 11.2736 104.001 11.2736H103.366L103.811 8.45349C103.824 8.37098 103.866 8.29584 103.93 8.24158C103.993 8.18732 104.074 8.15751 104.158 8.15751H104.449C105.209 8.15751 105.926 8.15751 106.296 8.59071C106.517 8.84916 106.585 9.23313 106.5 9.76356ZM118.594 9.71495H116.579C116.496 9.71495 116.415 9.74476 116.351 9.79902C116.288 9.85328 116.246 9.92842 116.233 10.0109L116.143 10.5746L116.003 10.3703C115.566 9.7371 114.593 9.52542 113.622 9.52542C111.395 9.52542 109.493 11.2121 109.123 13.5781C108.93 14.7583 109.204 15.8869 109.874 16.6739C110.488 17.3976 111.367 17.6991 112.412 17.6991C114.206 17.6991 115.201 16.5453 115.201 16.5453L115.112 17.1053C115.104 17.1553 115.106 17.2065 115.12 17.2554C115.134 17.3042 115.158 17.3494 115.191 17.388C115.224 17.4266 115.265 17.4577 115.311 17.479C115.357 17.5003 115.407 17.5113 115.457 17.5114H117.273C117.412 17.5115 117.547 17.4617 117.653 17.3711C117.759 17.2805 117.829 17.155 117.85 17.0173L118.94 10.1198C118.948 10.0699 118.945 10.0188 118.931 9.97008C118.917 9.92137 118.893 9.8762 118.86 9.8377C118.828 9.7992 118.787 9.76829 118.741 9.7471C118.695 9.7259 118.645 9.71493 118.594 9.71495ZM115.785 13.6372C115.591 14.7885 114.677 15.5614 113.512 15.5614C112.926 15.5614 112.459 15.3737 112.159 15.018C111.861 14.6648 111.747 14.1621 111.842 13.6021C112.024 12.4606 112.953 11.6625 114.101 11.6625C114.673 11.6625 115.138 11.8527 115.444 12.2114C115.752 12.5739 115.873 13.0797 115.785 13.6372ZM129.327 9.71495H127.302C127.207 9.7151 127.113 9.73855 127.028 9.78327C126.944 9.82798 126.872 9.89261 126.818 9.97155L124.025 14.0858L122.841 10.1322C122.805 10.0116 122.73 9.90589 122.629 9.83075C122.528 9.75561 122.406 9.71501 122.28 9.71495H120.29C120.234 9.7148 120.179 9.728 120.129 9.75344C120.079 9.77888 120.036 9.81583 120.004 9.86122C119.971 9.90661 119.95 9.95912 119.942 10.0144C119.934 10.0696 119.939 10.1261 119.957 10.1789L122.187 16.725L120.09 19.6854C120.053 19.7379 120.031 19.7996 120.026 19.8638C120.022 19.9281 120.035 19.9923 120.065 20.0495C120.094 20.1067 120.139 20.1546 120.194 20.1881C120.249 20.2216 120.312 20.2393 120.376 20.2392H122.399C122.494 20.2394 122.587 20.2166 122.67 20.1729C122.754 20.1291 122.826 20.0658 122.88 19.9882L129.615 10.2657C129.652 10.2131 129.673 10.1515 129.677 10.0876C129.681 10.0237 129.668 9.95991 129.638 9.90317C129.608 9.84643 129.564 9.79889 129.509 9.76571C129.454 9.73254 129.391 9.71498 129.327 9.71495Z"
    fill="#003087" />
  <path
    d="M136.032 5.8219H131.823C131.683 5.82196 131.549 5.8717 131.443 5.96217C131.337 6.05264 131.267 6.1779 131.245 6.31541L129.543 17.1067C129.535 17.1567 129.538 17.2078 129.552 17.2566C129.566 17.3053 129.59 17.3504 129.623 17.3889C129.656 17.4274 129.697 17.4583 129.743 17.4795C129.789 17.5007 129.839 17.5116 129.889 17.5116H132.049C132.147 17.5115 132.241 17.4766 132.315 17.4132C132.389 17.3498 132.438 17.2621 132.453 17.1658L132.936 14.1069C132.957 13.9693 133.027 13.8439 133.133 13.7533C133.239 13.6627 133.374 13.6129 133.513 13.6128H134.845C137.617 13.6128 139.217 12.2714 139.635 9.61306C139.824 8.45005 139.642 7.53626 139.098 6.8963C138.5 6.19357 137.44 5.8219 136.032 5.8219ZM136.517 9.7632C136.288 11.2733 135.134 11.2733 134.018 11.2733H133.383L133.829 8.45313C133.842 8.37062 133.884 8.29541 133.947 8.24112C134.011 8.18683 134.092 8.15704 134.175 8.15715H134.466C135.225 8.15715 135.943 8.15715 136.313 8.59035C136.534 8.84879 136.601 9.23277 136.517 9.7632ZM148.611 9.71459H146.596C146.513 9.71436 146.432 9.7441 146.369 9.79842C146.305 9.85273 146.263 9.92801 146.251 10.0106L146.161 10.5742L146.02 10.3699C145.584 9.73674 144.611 9.52506 143.64 9.52506C141.413 9.52506 139.512 11.2117 139.142 13.5777C138.95 14.758 139.222 15.8865 139.892 16.6735C140.507 17.3972 141.384 17.6987 142.43 17.6987C144.224 17.6987 145.219 16.5449 145.219 16.5449L145.129 17.1049C145.121 17.1551 145.124 17.2064 145.138 17.2553C145.152 17.3042 145.176 17.3495 145.209 17.3881C145.242 17.4268 145.283 17.4578 145.329 17.479C145.376 17.5002 145.426 17.5111 145.477 17.511H147.291C147.431 17.511 147.565 17.4611 147.671 17.3705C147.777 17.2799 147.847 17.1545 147.868 17.0169L148.958 10.1195C148.966 10.0694 148.963 10.0182 148.949 9.96943C148.935 9.92068 148.911 9.87552 148.877 9.83705C148.844 9.79859 148.803 9.76772 148.757 9.74658C148.711 9.72544 148.661 9.71453 148.611 9.71459ZM145.801 13.6368C145.608 14.7881 144.693 15.561 143.528 15.561C142.944 15.561 142.475 15.3733 142.175 15.0176C141.877 14.6644 141.765 14.1617 141.858 13.6017C142.041 12.4603 142.969 11.6622 144.117 11.6622C144.689 11.6622 145.154 11.8523 145.461 12.211C145.769 12.5735 145.891 13.0793 145.801 13.6368ZM150.986 6.11789L149.259 17.1067C149.251 17.1567 149.254 17.2078 149.268 17.2566C149.282 17.3053 149.306 17.3504 149.339 17.3889C149.372 17.4274 149.412 17.4583 149.458 17.4795C149.504 17.5007 149.554 17.5116 149.605 17.5116H151.341C151.63 17.5116 151.875 17.3024 151.919 17.0175L153.623 6.2268C153.63 6.17678 153.627 6.12565 153.614 6.0769C153.6 6.02816 153.576 5.98297 153.543 5.94444C153.51 5.90591 153.469 5.87495 153.423 5.85369C153.377 5.83243 153.327 5.82138 153.277 5.82129H151.332C151.249 5.82158 151.168 5.85159 151.105 5.90594C151.041 5.96029 150.999 6.03542 150.986 6.11789Z"
    fill="#0070E0" />
  <path
    d="M82.0497 19.6105L82.3715 17.5663L81.6546 17.5497H78.2314L80.6104 2.4657C80.6175 2.41961 80.6409 2.3776 80.6763 2.34733C80.7118 2.31706 80.757 2.30054 80.8036 2.30078H86.5755C88.4917 2.30078 89.8141 2.69953 90.5045 3.48656C90.8282 3.85577 91.0344 4.24159 91.134 4.66618C91.2386 5.11169 91.2405 5.64396 91.1383 6.29315L91.131 6.34054V6.75651L91.4546 6.93988C91.7017 7.06507 91.9238 7.23441 92.11 7.43955C92.3869 7.75522 92.5659 8.15642 92.6416 8.63209C92.7198 9.12129 92.6939 9.70341 92.566 10.3624C92.4183 11.1205 92.1795 11.7808 91.8571 12.3211C91.5726 12.8051 91.1901 13.2243 90.7341 13.5518C90.3058 13.8558 89.7969 14.0865 89.2215 14.2342C88.664 14.3794 88.0284 14.4527 87.3312 14.4527H86.882C86.5608 14.4527 86.2488 14.5683 86.0039 14.7757C85.7593 14.9853 85.5971 15.2749 85.5461 15.5929L85.5122 15.7769L84.9436 19.3797L84.9178 19.512C84.911 19.5539 84.8993 19.5748 84.8821 19.589C84.8654 19.6026 84.8446 19.6102 84.823 19.6105H82.0497Z"
    fill="white" />
  <path
    d="M91.7612 6.3877C91.744 6.49784 91.7243 6.61045 91.7022 6.72614C90.941 10.6342 88.3368 11.9843 85.0109 11.9843H83.3175C82.9107 11.9843 82.568 12.2796 82.5046 12.6808L81.6376 18.1796L81.392 19.7383C81.3823 19.8001 81.386 19.8633 81.403 19.9235C81.42 19.9838 81.4498 20.0396 81.4905 20.0872C81.5311 20.1348 81.5816 20.1731 81.6384 20.1993C81.6953 20.2255 81.7571 20.2391 81.8197 20.2392H84.8232C85.1789 20.2392 85.481 19.9807 85.537 19.63L85.5666 19.4774L86.1321 15.8886L86.1684 15.6917C86.2237 15.3398 86.5265 15.0813 86.8822 15.0813H87.3314C90.2413 15.0813 92.5194 13.8998 93.1852 10.481C93.4633 9.05276 93.3193 7.86022 92.5834 7.0215C92.3501 6.76205 92.0715 6.54727 91.7612 6.3877Z"
    fill="#0070E0" />
  <path
    d="M90.9653 6.07031C90.7222 6 90.475 5.94512 90.225 5.90601C89.7311 5.8301 89.2319 5.79368 88.7322 5.79709H84.2082C84.036 5.79696 83.8695 5.85843 83.7387 5.97038C83.6079 6.08234 83.5214 6.23739 83.495 6.40752L82.5326 12.5031L82.5049 12.681C82.5349 12.4869 82.6333 12.31 82.7824 12.1823C82.9315 12.0545 83.1214 11.9843 83.3178 11.9844H85.0112C88.3371 11.9844 90.9413 10.6337 91.7025 6.72627C91.7252 6.61058 91.7443 6.49797 91.7615 6.38783C91.5607 6.2825 91.3513 6.19419 91.1357 6.12384C91.0792 6.10509 91.0224 6.08724 90.9653 6.07031Z"
    fill="#001C64" />
  <path
    d="M83.495 6.40748C83.5212 6.2373 83.6076 6.08217 83.7385 5.97028C83.8693 5.85838 84.036 5.79713 84.2082 5.79767H88.7322C89.2682 5.79767 89.7685 5.83274 90.225 5.90658C90.534 5.95514 90.8387 6.02777 91.1364 6.1238C91.361 6.19826 91.5696 6.28625 91.7622 6.38779C91.9886 4.94357 91.7603 3.96024 90.9795 3.06984C90.1186 2.08959 88.5648 1.66992 86.5766 1.66992H80.8047C80.3986 1.66992 80.0521 1.96529 79.9894 2.36711L77.5852 17.6062C77.574 17.6769 77.5783 17.7493 77.5977 17.8182C77.6171 17.8872 77.6512 17.9511 77.6977 18.0056C77.7442 18.0601 77.802 18.1039 77.867 18.1339C77.932 18.164 78.0028 18.1796 78.0744 18.1797H81.6379L82.5326 12.5031L83.495 6.40748Z"
    fill="#003087" />
  <path
    d="M180.911 0.737305C179.096 0.737305 177.627 2.20258 177.627 4.01157V17.8987C177.627 19.7062 179.096 21.1723 180.911 21.1723H194.845C196.659 21.1723 198.129 19.7063 198.129 17.8987V17.7566C198.068 17.7312 192.801 15.5414 190.123 14.2583C188.317 16.4737 185.988 17.8178 183.569 17.8178C179.479 17.8178 178.09 14.2498 180.026 11.9011C180.449 11.3891 181.167 10.8999 182.282 10.6261C184.026 10.199 186.802 10.8928 189.403 11.7485C189.871 10.8893 190.265 9.94297 190.558 8.93544H182.541V8.12621H186.675V6.67496H181.668V5.86518H186.675V3.7951C186.675 3.7951 186.675 3.4464 187.029 3.4464H189.05V5.86512H194V6.6751H189.05V8.12621H193.09C192.704 9.7049 192.117 11.158 191.38 12.4337C192.606 12.8758 193.707 13.2951 194.527 13.5689C197.263 14.4815 198.03 14.593 198.129 14.6047V4.01164C198.129 2.20265 196.659 0.737373 194.846 0.737373H180.911L180.911 0.737305ZM183.159 11.8091C182.984 11.8112 182.807 11.8207 182.63 11.8381C182.118 11.8894 181.156 12.1147 180.63 12.5782C179.055 13.948 179.998 16.4521 183.187 16.4521C185.041 16.4521 186.893 15.2707 188.348 13.379C186.472 12.4666 184.857 11.7895 183.159 11.8091Z"
    fill="#4DA2E4" />
  <path
    d="M233.786 14.9443L232.871 16.9308L231.942 14.9443H231.035L232.448 17.6909V19.6068H233.28V17.6909L233.285 17.6802L234.693 14.9443H233.786ZM227.085 16.1461L227.731 18.0799H226.417L227.085 16.1461ZM227.929 18.6675L228.24 19.6066H229.113L227.395 14.9439H226.728L225.016 19.6066H225.889L226.214 18.6675H227.929ZM221.419 17.1732H220.492V15.5781H221.419C221.884 15.5781 222.163 15.9852 222.163 16.3788C222.163 16.7639 221.902 17.1731 221.419 17.1731M221.466 14.9441H219.653V19.6068H220.492V17.8142H221.466C222.37 17.8142 223.002 17.2238 223.002 16.3788C223.002 15.5338 222.37 14.9442 221.466 14.9442M215.412 19.6068H216.252V14.9442H215.413L215.412 19.6068ZM209.511 14.9443V19.6069H212.335V18.9716H210.35V14.9443H209.511ZM204.732 16.1461L205.377 18.0799H204.064L204.732 16.1461ZM205.576 18.6675L205.887 19.6066H206.759L205.041 14.9439H204.375L202.663 19.6066H203.535L203.86 18.6675H205.576ZM211.482 5.8294H207.883V4.54021H212.056V3.73731H207.883V2.10371H206.023C205.819 2.10371 205.654 2.27482 205.654 2.48517V3.73731H201.51V4.54021H205.654V5.82946H202.157V6.63161H209.123C209.123 6.63161 208.737 8.13837 206.826 9.75759C205.114 8.462 204.542 7.43022 204.542 7.43022H202.673C203.429 8.74012 204.503 9.78899 205.66 10.6211C204.598 11.3113 203.219 11.9767 201.438 12.5093V13.4705C201.438 13.4705 204.187 12.9521 206.844 11.387C209.505 12.94 212.178 13.4705 212.178 13.4705V12.5606C210.467 11.9382 209.112 11.2536 208.048 10.5934C209.589 9.45174 210.94 7.90221 211.482 5.8294ZM223.172 2.26461H221.298V4.22121H216.681V5.00913H221.298V12.0436C221.282 12.2048 221.155 12.3302 220.996 12.3388H220.044V13.1539H222.472C222.856 13.1382 223.163 12.8194 223.172 12.4244V5.00906H223.932V4.22114H223.172L223.172 2.26461ZM219.221 6.33646C219.153 6.19675 219.013 6.10043 218.85 6.099H217.29L218.506 9.92666H220.352L219.221 6.33646ZM214.611 2.17197L212.462 7.25244H214.111V13.2977H215.914V5.2788H215.26L216.618 2.17203L214.611 2.17197ZM235.513 13.0203L234.855 10.7971C234.811 10.6552 234.682 10.5525 234.53 10.5525H232.784L233.291 12.2602H231.238V8.95176H235.268V8.16453H231.238V6.60716H235.268V5.81993H225.212V6.60716H229.241V8.16446H225.212V8.95169H229.241V12.2602H225.212V13.0475H235.514L235.505 13.0203H235.513ZM227.308 3.94166H233.176V5.1032H235.273V3.72695C235.272 3.72409 235.272 3.72266 235.272 3.71912C235.272 3.40966 235.029 3.1594 234.729 3.15442H231.336V2.07129H229.143V3.15436H225.212V5.1032H227.308L227.308 3.94166Z"
    fill="white" />
  <path fill-rule="evenodd" clip-rule="evenodd"
    d="M267.898 3.88638C267.36 4.52984 266.499 5.0373 265.639 4.96477C265.531 4.09479 265.953 3.1705 266.446 2.59969C266.983 1.93812 267.924 1.46687 268.686 1.43066C268.776 2.33685 268.426 3.22493 267.898 3.88638ZM268.677 5.13699C267.919 5.09288 267.228 5.36745 266.669 5.58925C266.31 5.73201 266.005 5.85286 265.773 5.85286C265.513 5.85286 265.196 5.72551 264.841 5.58249C264.374 5.39524 263.841 5.18109 263.282 5.19129C262 5.20952 260.808 5.94349 260.154 7.11239C258.809 9.45045 259.804 12.912 261.104 14.815C261.74 15.7574 262.502 16.7906 263.506 16.7542C263.947 16.7374 264.265 16.6011 264.594 16.46C264.972 16.2976 265.366 16.129 265.979 16.129C266.572 16.129 266.948 16.2933 267.309 16.451C267.652 16.601 267.982 16.7449 268.471 16.7361C269.511 16.718 270.165 15.7937 270.802 14.8512C271.488 13.8398 271.79 12.8526 271.836 12.7028L271.841 12.6855C271.841 12.6855 271.832 12.6804 271.817 12.6735C271.587 12.5672 269.832 11.7551 269.816 9.57728C269.799 7.74936 271.207 6.82316 271.429 6.67733C271.443 6.66841 271.452 6.66242 271.456 6.65936C270.56 5.31825 269.161 5.17319 268.677 5.13699ZM275.874 16.6364V2.50906H281.118C283.824 2.50906 285.716 4.39383 285.716 7.14872C285.716 9.90347 283.788 11.8065 281.046 11.8065H278.043V16.6364H275.874ZM278.043 4.35763H280.544C282.426 4.35763 283.502 5.37255 283.502 7.15777C283.502 8.94299 282.426 9.96695 280.535 9.96695H278.043V4.35763ZM292.877 14.9419C292.303 16.0474 291.039 16.7452 289.677 16.7452C287.66 16.7452 286.253 15.5309 286.253 13.7004C286.253 11.8881 287.616 10.846 290.134 10.6919L292.841 10.5287V9.74949C292.841 8.59856 292.097 7.97332 290.771 7.97332C289.677 7.97332 288.879 8.54426 288.718 9.41412H286.764C286.827 7.58365 288.53 6.25158 290.833 6.25158C293.316 6.25158 294.929 7.56555 294.929 9.60443V16.6364H292.922V14.9419H292.877ZM290.26 15.0688C289.103 15.0688 288.368 14.5069 288.368 13.646C288.368 12.758 289.077 12.2414 290.43 12.16L292.841 12.0058V12.8033C292.841 14.1263 291.729 15.0688 290.26 15.0688ZM301.589 17.1893C300.719 19.6631 299.724 20.4786 297.609 20.4786C297.448 20.4786 296.91 20.4605 296.784 20.4243V18.7298C296.919 18.7479 297.251 18.766 297.421 18.766C298.38 18.766 298.918 18.3582 299.249 17.298L299.446 16.6726L295.772 6.38747H298.039L300.594 14.7334H300.638L303.193 6.38747H305.398L301.589 17.1893Z"
    fill="white" />
  <path fill-rule="evenodd" clip-rule="evenodd"
    d="M54.5058 60.7436V54.9933L57.6166 54.9922C58.899 54.9929 59.9769 54.59 60.8501 53.7832C61.7326 53.0175 62.2259 51.9167 62.2008 50.7693C62.2182 49.6282 61.7258 48.5356 60.8501 47.7723C59.9846 46.9612 58.8205 46.5186 57.6166 46.5429H52.623V60.7436H54.5058ZM54.5058 53.2484V48.2913L57.6633 48.2902C58.3671 48.2709 59.0455 48.5454 59.5263 49.0437C60.0101 49.4994 60.283 50.1252 60.283 50.7789C60.283 51.4326 60.0101 52.0586 59.5263 52.5142C59.0395 53.002 58.3633 53.2685 57.6633 53.2484H54.5058Z"
    fill="white" />
  <path fill-rule="evenodd" clip-rule="evenodd"
    d="M69.8358 51.7929C69.0304 51.0721 67.932 50.7119 66.5403 50.7119C64.7526 50.7119 63.4026 51.3463 62.4904 52.6154L64.1488 53.6273C64.7616 52.7676 65.5938 52.3378 66.6456 52.3378C67.3161 52.3303 67.965 52.5677 68.4629 53.0029C68.9593 53.4006 69.2448 53.9935 69.2406 54.6176V55.0346C68.5171 54.638 67.5964 54.4396 66.4783 54.4396C65.1686 54.4412 64.1215 54.7388 63.3372 55.3326C62.5529 55.9262 62.1607 56.7258 62.1607 57.7312C62.1436 58.6467 62.5535 59.5209 63.2764 60.1107C64.0201 60.7452 64.9444 61.0625 66.0491 61.0625C67.3433 61.0625 68.3802 60.5072 69.1599 59.3968H69.2418V60.7452H71.0427V54.7569C71.0434 53.5015 70.6411 52.5134 69.8358 51.7929ZM64.7288 58.9606C64.3344 58.6852 64.1018 58.242 64.1043 57.7708C64.1043 57.2417 64.3604 56.801 64.8762 56.4384C65.3868 56.0811 66.0245 55.9025 66.7894 55.9025C67.8396 55.9025 68.6582 56.129 69.2452 56.5823C69.2452 57.3483 68.9334 58.0156 68.3097 58.5845C67.7479 59.1288 66.9863 59.4352 66.1918 59.4365C65.6621 59.446 65.1453 59.278 64.7288 58.9606Z"
    fill="white" />
  <path fill-rule="evenodd" clip-rule="evenodd"
    d="M81.3802 51.0283L75.0932 65.0273H73.1495L75.4826 60.129L71.3486 51.0283H73.3952L76.3831 58.0079H76.424L79.33 51.0283H81.3802Z"
    fill="white" />
  <path fill-rule="evenodd" clip-rule="evenodd"
    d="M46.8981 53.7545C46.8988 53.1986 46.8503 52.6436 46.7531 52.0957H38.8125V55.2377H43.3605C43.1725 56.2517 42.565 57.1473 41.6788 57.7169V59.7564H44.3931C45.9824 58.3366 46.8981 56.2371 46.8981 53.7545Z"
    fill="#5887ED" />
  <path fill-rule="evenodd" clip-rule="evenodd"
    d="M38.8121 61.7267C41.0844 61.7267 42.9976 61.0037 44.3928 59.7574L41.6784 57.7179C40.923 58.2142 39.9501 58.4974 38.8121 58.4974C36.616 58.4974 34.7518 57.063 34.0853 55.1299H31.2891V57.2317C32.7183 59.9874 35.6292 61.7265 38.8121 61.7267Z"
    fill="#5DA961" />
  <path fill-rule="evenodd" clip-rule="evenodd"
    d="M34.0854 55.1299C33.7329 54.117 33.7329 53.02 34.0854 52.0071V49.9053H31.2892C30.0937 52.2101 30.0937 54.927 31.2892 57.2317L34.0854 55.1299Z"
    fill="#F0C048" />
  <path fill-rule="evenodd" clip-rule="evenodd"
    d="M38.8121 48.64C40.0129 48.6209 41.1731 49.0605 42.0422 49.8637L44.4454 47.5352C42.9215 46.1485 40.9026 45.3871 38.8121 45.4107C35.6292 45.4108 32.7183 47.15 31.2891 49.9055L34.0853 52.0074C34.7518 50.0744 36.616 48.64 38.8121 48.64Z"
    fill="#D85545" />
  <path
    d="M122.651 51.8428C119.542 51.8428 117.113 54.2027 117.113 57.3619C117.113 60.5211 119.481 62.8608 122.651 62.8608C125.821 62.8608 128.23 60.4807 128.23 57.3417C128.23 54.2229 125.862 51.8428 122.651 51.8428ZM122.672 60.584C120.902 60.584 119.604 59.2091 119.604 57.3627C119.604 55.4953 120.881 54.1212 122.651 54.1212C124.442 54.1212 125.739 55.5163 125.739 57.3627C125.739 59.2091 124.442 60.584 122.672 60.584ZM128.909 54.2439H130.453V62.6565H132.923V52.0479H128.909V54.2439ZM110.897 54.1204C112.194 54.1204 113.223 54.9205 113.614 56.1105H116.228C115.755 53.5665 113.655 51.8428 110.918 51.8428C107.809 51.8428 105.38 54.2027 105.38 57.3627C105.38 60.5226 107.748 62.8615 110.918 62.8615C113.594 62.8615 115.734 61.1379 116.208 58.5729H113.614C113.243 59.7629 112.214 60.584 110.917 60.584C109.126 60.584 107.87 59.2091 107.87 57.3627C107.871 55.4953 109.106 54.1204 110.897 54.1204ZM175.844 56.3365L174.032 56.0701C173.168 55.9474 172.55 55.66 172.55 54.9826C172.55 54.2439 173.353 53.8749 174.444 53.8749C175.638 53.8749 176.4 54.3876 176.564 55.2289H178.952C178.684 53.095 177.037 51.8436 174.506 51.8436C171.891 51.8436 170.162 53.1774 170.162 55.065C170.162 56.8702 171.295 57.9173 173.579 58.2451L175.391 58.5115C176.276 58.6343 176.77 58.9838 176.77 59.6402C176.77 60.4815 175.906 60.8302 174.712 60.8302C173.25 60.8302 172.426 60.2352 172.303 59.3326H169.874C170.101 61.4051 171.727 62.8615 174.691 62.8615C177.388 62.8615 179.178 61.6303 179.178 59.5167C179.178 57.6291 177.882 56.6442 175.844 56.3365ZM131.688 47.6777C130.782 47.6777 130.103 48.3341 130.103 49.2367C130.103 50.1394 130.782 50.7957 131.688 50.7957C132.594 50.7957 133.273 50.1394 133.273 49.2367C133.273 48.3341 132.594 47.6777 131.688 47.6777ZM167.939 55.6802C167.939 53.3824 166.539 51.8436 163.575 51.8436C160.776 51.8436 159.211 53.2597 158.902 55.4347H161.352C161.475 54.5934 162.134 53.8959 163.534 53.8959C164.79 53.8959 165.407 54.4497 165.407 55.1271C165.407 56.0095 164.275 56.2348 162.875 56.3785C160.981 56.5836 158.635 57.2399 158.635 59.7024C158.635 61.6109 160.055 62.8413 162.32 62.8413C164.09 62.8413 165.202 62.1026 165.758 60.9328C165.84 61.9791 166.622 62.6565 167.714 62.6565H169.155V60.4613H167.94V55.6802H167.939ZM165.51 58.3476C165.51 59.7637 164.275 60.8101 162.772 60.8101C161.845 60.8101 161.063 60.4201 161.063 59.5998C161.063 58.5535 162.319 58.2661 163.472 58.1433C164.583 58.0408 165.201 57.7946 165.51 57.3223V58.3476ZM152.397 51.8428C151.018 51.8428 149.865 52.4177 149.041 53.3817V47.5752H146.571V62.6565H149V61.2614C149.824 62.2665 150.997 62.8615 152.397 62.8615C155.361 62.8615 157.605 60.5226 157.605 57.3627C157.605 54.2027 155.32 51.8428 152.397 51.8428ZM152.027 60.584C150.256 60.584 148.959 59.2091 148.959 57.3627C148.959 55.5163 150.276 54.1212 152.047 54.1212C153.838 54.1212 155.093 55.4961 155.093 57.3627C155.093 59.2091 153.797 60.584 152.027 60.584ZM140.663 51.8428C139.057 51.8428 138.007 52.4992 137.39 53.4228V52.0479H134.94V62.6557H137.41V56.8904C137.41 55.2692 138.439 54.1204 139.962 54.1204C141.383 54.1204 142.268 55.1255 142.268 56.5828V62.6565H144.738V56.3987C144.739 53.7304 143.36 51.8428 140.663 51.8428ZM190.954 57.0139C190.954 53.9775 188.73 51.8436 185.745 51.8436C182.575 51.8436 180.249 54.2237 180.249 57.3627C180.249 60.6663 182.74 62.8615 185.786 62.8615C188.36 62.8615 190.377 61.3429 190.891 59.1889H188.318C187.947 60.1327 187.042 60.6663 185.827 60.6663C184.241 60.6663 183.047 59.6814 182.78 57.9577H190.953V57.0139H190.954ZM182.925 56.1928C183.316 54.7154 184.428 53.9977 185.704 53.9977C187.104 53.9977 188.174 54.7977 188.421 56.1928H182.925Z"
    fill="#2856F4" />
  <path fill-rule="evenodd" clip-rule="evenodd"
    d="M235.344 49.3593C235.909 49.3593 236.396 49.4597 236.806 49.6575C237.217 49.8569 237.557 50.1257 237.829 50.4637C238.098 50.8033 238.298 51.2006 238.427 51.6554C238.556 52.1118 238.62 52.6022 238.62 53.1275C238.62 53.9336 238.472 54.6961 238.172 55.4144C237.872 56.1336 237.465 56.7575 236.947 57.2899C236.43 57.8215 235.82 58.2405 235.115 58.5498C234.412 58.8602 233.648 59.0146 232.827 59.0146C232.721 59.0146 232.534 59.012 232.271 59.006C232.007 59.0007 231.704 58.9739 231.365 58.928C231.024 58.8809 230.663 58.8108 230.281 58.7169C229.9 58.6248 229.538 58.4953 229.197 58.3314L232.244 45.5929L234.974 45.1719L233.883 49.6921C234.116 49.5874 234.352 49.506 234.587 49.4472C234.823 49.39 235.075 49.3593 235.344 49.3593ZM233.055 56.8609C233.466 56.8609 233.853 56.7605 234.217 56.5628C234.582 56.3655 234.897 56.0984 235.161 55.7657C235.424 55.4322 235.633 55.0557 235.786 54.6351C235.938 54.2149 236.015 53.7765 236.015 53.3201C236.015 52.7596 235.921 52.3222 235.733 52.0063C235.545 51.6912 235.198 51.5333 234.694 51.5333C234.528 51.5333 234.315 51.5644 234.051 51.6203C233.786 51.6804 233.549 51.8037 233.337 51.9895L232.175 56.7904C232.245 56.8021 232.307 56.8142 232.36 56.8251C232.411 56.8367 232.468 56.8454 232.525 56.8515C232.586 56.8584 232.655 56.8613 232.738 56.8613C232.821 56.8613 232.926 56.8609 233.055 56.8609Z"
    fill="white" />
  <path fill-rule="evenodd" clip-rule="evenodd"
    d="M241.453 58.7708H238.846L241.047 49.5543H243.672L241.453 58.7708ZM242.721 48.4322C242.357 48.4322 242.027 48.324 241.735 48.1085C241.439 47.894 241.293 47.5634 241.293 47.118C241.293 46.8732 241.343 46.6429 241.442 46.4266C241.543 46.2103 241.675 46.0232 241.839 45.8653C242.004 45.7083 242.195 45.5828 242.411 45.4879C242.629 45.3949 242.861 45.3486 243.108 45.3486C243.472 45.3486 243.8 45.4564 244.094 45.6723C244.386 45.8891 244.534 46.2197 244.534 46.6624C244.534 46.9082 244.484 47.1393 244.384 47.3556C244.284 47.572 244.153 47.758 243.988 47.9168C243.825 48.0739 243.632 48.199 243.416 48.2929C243.198 48.3872 242.968 48.4322 242.721 48.4322Z"
    fill="white" />
  <path fill-rule="evenodd" clip-rule="evenodd"
    d="M245.955 47.2579L248.686 46.8369L248.015 49.5532H250.939L250.411 51.6903H247.504L246.73 54.9145C246.659 55.1832 246.618 55.4342 246.607 55.6669C246.595 55.9015 246.624 56.1027 246.694 56.2719C246.765 56.4415 246.891 56.5722 247.073 56.6652C247.255 56.7592 247.516 56.8063 247.857 56.8063C248.138 56.8063 248.412 56.7799 248.677 56.7267C248.94 56.6752 249.207 56.6025 249.477 56.5078L249.671 58.5065C249.319 58.635 248.938 58.7458 248.526 58.8388C248.115 58.9328 247.627 58.9781 247.064 58.9781C246.254 58.9781 245.626 58.8591 245.179 58.6208C244.733 58.3805 244.417 58.053 244.228 57.6381C244.041 57.2249 243.958 56.748 243.981 56.211C244.006 55.6726 244.087 55.1066 244.228 54.5108L245.955 47.2579Z"
    fill="white" />
  <path fill-rule="evenodd" clip-rule="evenodd"
    d="M250.824 55.0919C250.824 54.2978 250.953 53.5497 251.212 52.8482C251.469 52.1468 251.841 51.5336 252.322 51.0069C252.803 50.4829 253.387 50.068 254.075 49.7638C254.76 49.4604 255.527 49.3076 256.373 49.3076C256.902 49.3076 257.374 49.357 257.79 49.4569C258.208 49.5573 258.586 49.6876 258.927 49.8507L258.028 51.885C257.793 51.7901 257.549 51.7067 257.297 51.6305C257.045 51.5535 256.737 51.5162 256.373 51.5162C255.503 51.5162 254.815 51.8145 254.303 52.409C253.794 53.0044 253.536 53.8054 253.536 54.8106C253.536 55.4064 253.666 55.8876 253.925 56.2563C254.183 56.6245 254.659 56.8076 255.351 56.8076C255.692 56.8076 256.022 56.7721 256.337 56.7029C256.655 56.6327 256.936 56.545 257.183 56.4403L257.378 58.525C257.048 58.6526 256.685 58.7678 256.286 58.8681C255.886 58.9656 255.41 59.0154 254.858 59.0154C254.13 59.0154 253.513 58.9097 253.009 58.7007C252.505 58.4887 252.088 58.207 251.759 57.8504C251.429 57.4931 251.192 57.0754 251.046 56.5964C250.898 56.1191 250.824 55.6163 250.824 55.0919Z"
    fill="white" />
  <path fill-rule="evenodd" clip-rule="evenodd"
    d="M262.404 59.0158C261.782 59.0158 261.241 58.922 260.783 58.7354C260.326 58.5485 259.948 58.2867 259.648 57.947C259.348 57.609 259.123 57.2083 258.97 56.747C258.816 56.2862 258.742 55.7751 258.742 55.2156C258.742 54.5133 258.856 53.8115 259.084 53.1113C259.312 52.4104 259.65 51.7803 260.098 51.2199C260.542 50.6587 261.09 50.2 261.736 49.8421C262.38 49.4873 263.121 49.3086 263.954 49.3086C264.564 49.3086 265.102 49.4029 265.567 49.5895C266.029 49.7763 266.41 50.0399 266.712 50.3778C267.01 50.7175 267.236 51.1165 267.388 51.5787C267.542 52.0386 267.617 52.551 267.617 53.1109C267.617 53.8111 267.505 54.5129 267.284 55.2152C267.061 55.9136 266.732 56.5454 266.297 57.1067C265.863 57.667 265.32 58.1253 264.668 58.4818C264.016 58.8376 263.261 59.0158 262.404 59.0158ZM263.707 51.5168C263.32 51.5168 262.979 51.6284 262.686 51.8491C262.392 52.072 262.146 52.3523 261.947 52.6903C261.746 53.0295 261.597 53.4008 261.496 53.8029C261.397 54.2065 261.347 54.5877 261.347 54.9503C261.347 55.535 261.442 55.9902 261.628 56.3182C261.818 56.6441 262.157 56.808 262.651 56.808C263.039 56.808 263.378 56.6973 263.673 56.4745C263.965 56.2533 264.211 55.973 264.412 55.6341C264.611 55.2965 264.762 54.9245 264.862 54.5215C264.961 54.1192 265.011 53.7357 265.011 53.3739C265.011 52.7907 264.917 52.3346 264.729 52.007C264.541 51.6803 264.2 51.5168 263.707 51.5168Z"
    fill="white" />
  <path fill-rule="evenodd" clip-rule="evenodd"
    d="M270.457 58.7708H267.849L270.05 49.5543H272.676L270.457 58.7708ZM271.724 48.4322C271.36 48.4322 271.031 48.324 270.738 48.1085C270.444 47.894 270.297 47.5634 270.297 47.118C270.297 46.8732 270.347 46.6429 270.447 46.4266C270.547 46.2103 270.679 46.0232 270.844 45.8653C271.008 45.7083 271.2 45.5828 271.416 45.4879C271.633 45.3949 271.864 45.3486 272.111 45.3486C272.476 45.3486 272.805 45.4564 273.098 45.6723C273.392 45.8891 273.539 46.2197 273.539 46.6624C273.539 46.9082 273.487 47.1393 273.388 47.3556C273.289 47.572 273.158 47.758 272.993 47.9168C272.828 48.0739 272.638 48.199 272.422 48.2929C272.203 48.3872 271.972 48.4322 271.724 48.4322Z"
    fill="white" />
  <path fill-rule="evenodd" clip-rule="evenodd"
    d="M274.553 49.974C274.751 49.9164 274.972 49.8472 275.213 49.772C275.454 49.6966 275.723 49.6266 276.024 49.5634C276.322 49.4985 276.658 49.4461 277.028 49.4046C277.398 49.3631 277.818 49.3428 278.287 49.3428C279.661 49.3428 280.609 49.7408 281.132 50.5353C281.655 51.3298 281.746 52.4168 281.406 53.7941L280.207 58.7704H277.583L278.745 53.8988C278.816 53.5946 278.872 53.3003 278.913 53.0131C278.955 52.7288 278.952 52.4778 278.904 52.2605C278.858 52.0459 278.749 51.8706 278.579 51.7344C278.407 51.5998 278.147 51.5332 277.794 51.5332C277.454 51.5332 277.109 51.5695 276.756 51.6395L275.047 58.7704H272.422L274.553 49.974Z"
    fill="white" />
  <path fill-rule="evenodd" clip-rule="evenodd"
    d="M243.057 64.2621L242.545 65.1865H241.992C242.382 64.4871 242.762 63.8432 243.133 63.2548C243.503 62.6663 243.869 62.1107 244.231 61.5879H244.727C244.779 61.8476 244.827 62.1103 244.871 62.3746C244.914 62.6394 244.957 62.9172 244.998 63.2081C245.04 63.4988 245.08 63.8074 245.118 64.1327C245.157 64.4582 245.197 64.8091 245.239 65.1869H244.727C244.71 65.0312 244.694 64.8745 244.68 64.7169C244.666 64.5594 244.65 64.408 244.633 64.2626L243.057 64.2621ZM244.586 63.8567C244.558 63.5767 244.526 63.2976 244.49 63.0207C244.453 62.7437 244.41 62.4581 244.362 62.1639C244.24 62.3405 244.089 62.5685 243.908 62.8467C243.727 63.1258 243.521 63.4621 243.292 63.8567H244.586Z"
    fill="white" />
  <path fill-rule="evenodd" clip-rule="evenodd"
    d="M247.088 65.2643C246.861 65.2643 246.662 65.2314 246.49 65.1656C246.318 65.0998 246.174 65.0064 246.059 64.8853C245.945 64.7645 245.858 64.6178 245.801 64.4465C245.744 64.2751 245.715 64.0821 245.715 63.8676C245.715 63.556 245.764 63.2583 245.864 62.9744C245.963 62.6909 246.104 62.4399 246.286 62.2219C246.469 62.0038 246.689 61.8298 246.947 61.6995C247.204 61.5698 247.491 61.5049 247.808 61.5049C248.079 61.5049 248.296 61.5326 248.458 61.5879C248.619 61.6434 248.735 61.6952 248.805 61.7438L248.596 62.1591C248.515 62.1072 248.407 62.0578 248.27 62.0111C248.132 61.9648 247.97 61.941 247.782 61.941C247.542 61.941 247.326 61.9974 247.135 62.1103C246.943 62.2227 246.781 62.3682 246.649 62.5464C246.517 62.7247 246.416 62.9254 246.346 63.1487C246.277 63.372 246.242 63.5927 246.242 63.8108C246.242 64.4859 246.536 64.8234 247.124 64.8234C247.249 64.8234 247.362 64.8143 247.461 64.797C247.56 64.7801 247.648 64.7598 247.724 64.7372C247.801 64.7147 247.869 64.6901 247.928 64.662C247.987 64.6343 248.039 64.61 248.084 64.5893L248.147 65.0255C248.105 65.0497 248.051 65.0757 247.983 65.1033C247.915 65.131 247.836 65.157 247.745 65.1817C247.655 65.2059 247.554 65.2258 247.442 65.2414C247.331 65.257 247.213 65.2643 247.088 65.2643Z"
    fill="white" />
  <path fill-rule="evenodd" clip-rule="evenodd"
    d="M250.021 65.2643C249.795 65.2643 249.596 65.2314 249.423 65.1656C249.251 65.0998 249.108 65.0064 248.993 64.8853C248.878 64.7645 248.792 64.6178 248.735 64.4465C248.677 64.2751 248.648 64.0821 248.648 63.8676C248.648 63.556 248.698 63.2583 248.797 62.9744C248.896 62.6909 249.037 62.4399 249.22 62.2219C249.403 62.0038 249.623 61.8298 249.88 61.6995C250.138 61.5698 250.424 61.5049 250.741 61.5049C251.013 61.5049 251.229 61.5326 251.391 61.5879C251.553 61.6434 251.669 61.6952 251.738 61.7438L251.529 62.1591C251.449 62.1072 251.341 62.0578 251.203 62.0111C251.066 61.9648 250.903 61.941 250.715 61.941C250.475 61.941 250.259 61.9974 250.068 62.1103C249.877 62.2227 249.715 62.3682 249.583 62.5464C249.45 62.7247 249.349 62.9254 249.28 63.1487C249.21 63.372 249.176 63.5927 249.176 63.8108C249.176 64.4859 249.47 64.8234 250.058 64.8234C250.183 64.8234 250.295 64.8143 250.394 64.797C250.493 64.7801 250.581 64.7598 250.658 64.7372C250.734 64.7147 250.802 64.6901 250.861 64.662C250.921 64.6343 250.973 64.61 251.018 64.5893L251.081 65.0255C251.039 65.0497 250.984 65.0757 250.916 65.1033C250.848 65.131 250.769 65.157 250.679 65.1817C250.588 65.2059 250.487 65.2258 250.376 65.2414C250.265 65.257 250.146 65.2643 250.021 65.2643Z"
    fill="white" />
  <path fill-rule="evenodd" clip-rule="evenodd"
    d="M251.422 65.1863L252.288 61.5879H254.423L254.324 62.0085H252.69L252.429 63.0938H253.88L253.781 63.504H252.335L252.027 64.7657H253.781L253.682 65.1863H251.422Z"
    fill="white" />
  <path fill-rule="evenodd" clip-rule="evenodd"
    d="M255.933 61.5527C256.355 61.5527 256.672 61.6324 256.886 61.7916C257.1 61.9509 257.207 62.1829 257.207 62.4875C257.207 62.7229 257.163 62.9267 257.074 63.0976C256.985 63.269 256.859 63.41 256.695 63.5212C256.532 63.632 256.335 63.7138 256.106 63.7675C255.876 63.8211 255.62 63.8484 255.338 63.8484H254.978L254.655 65.188H254.148L255.004 61.6363C255.151 61.6017 255.305 61.5792 255.469 61.5689C255.633 61.558 255.787 61.5527 255.933 61.5527ZM255.871 61.9786C255.624 61.9786 255.474 61.9856 255.422 61.9993L255.077 63.4274H255.406C255.552 63.4274 255.702 63.4147 255.855 63.3885C256.008 63.3625 256.146 63.3166 256.268 63.2512C256.389 63.1855 256.489 63.0945 256.568 62.9782C256.646 62.8622 256.685 62.7129 256.685 62.5295C256.685 62.3322 256.612 62.1911 256.466 62.1058C256.32 62.021 256.121 61.9786 255.871 61.9786Z"
    fill="white" />
  <path fill-rule="evenodd" clip-rule="evenodd"
    d="M260.295 61.5879L260.196 62.0085H259.105L258.338 65.1863H257.831L258.599 62.0085H257.508L257.607 61.5879H260.295Z"
    fill="white" />
  <path fill-rule="evenodd" clip-rule="evenodd"
    d="M259.825 65.1863L260.692 61.5879H262.826L262.727 62.0085H261.094L260.833 63.0938H262.283L262.184 63.504H260.739L260.431 64.7657H262.184L262.085 65.1863H259.825Z"
    fill="white" />
  <path fill-rule="evenodd" clip-rule="evenodd"
    d="M264.33 61.5527C264.866 61.5527 265.266 61.6783 265.53 61.9292C265.795 62.1802 265.927 62.5186 265.927 62.9444C265.927 63.2422 265.88 63.5286 265.786 63.8033C265.692 64.0791 265.546 64.3218 265.348 64.5334C265.149 64.7441 264.896 64.9124 264.588 65.037C264.28 65.1617 263.912 65.224 263.484 65.224C263.338 65.224 263.18 65.2171 263.009 65.2032C262.839 65.1894 262.689 65.1651 262.561 65.1306L263.401 61.6359C263.547 61.6013 263.702 61.5787 263.865 61.5684C264.029 61.558 264.184 61.5527 264.33 61.5527ZM264.288 61.9786C264.027 61.9786 263.871 61.9856 263.818 61.9993L263.15 64.7723C263.178 64.7791 263.225 64.7852 263.291 64.7904C263.357 64.7957 263.465 64.7982 263.615 64.7982C263.89 64.7982 264.138 64.7528 264.359 64.6611C264.58 64.5693 264.767 64.4412 264.92 64.2763C265.073 64.1119 265.191 63.9168 265.275 63.69C265.358 63.4633 265.4 63.2149 265.4 62.9449C265.4 62.6403 265.311 62.4031 265.134 62.233C264.956 62.0638 264.674 61.9786 264.288 61.9786Z"
    fill="white" />
  <path fill-rule="evenodd" clip-rule="evenodd"
    d="M269.826 65.1863H269.319L269.721 63.5144H268.046L267.644 65.1863H267.138L268.004 61.5879H268.51L268.145 63.0938H269.821L270.186 61.5879H270.692L269.826 65.1863Z"
    fill="white" />
  <path fill-rule="evenodd" clip-rule="evenodd"
    d="M270.624 65.1863L271.491 61.5879H273.625L273.526 62.0085H271.892L271.631 63.0938H273.082L272.982 63.504H271.537L271.229 64.7657H272.982L272.883 65.1863H270.624Z"
    fill="white" />
  <path fill-rule="evenodd" clip-rule="evenodd"
    d="M275.137 61.5527C275.523 61.5527 275.829 61.6307 276.055 61.7865C276.281 61.9422 276.394 62.1708 276.394 62.4715C276.394 62.7761 276.305 63.0318 276.126 63.2379C275.946 63.4438 275.695 63.5917 275.371 63.6814C275.413 63.7545 275.462 63.8471 275.517 63.9596C275.573 64.0721 275.631 64.1967 275.69 64.3335C275.748 64.4697 275.806 64.6121 275.862 64.7588C275.918 64.9063 275.966 65.0487 276.008 65.1872H275.491C275.443 65.0557 275.392 64.9225 275.34 64.7875C275.288 64.6523 275.235 64.5226 275.181 64.3979C275.127 64.2733 275.073 64.1565 275.019 64.0475C274.966 63.9383 274.916 63.8419 274.87 63.7593C274.825 63.7627 274.78 63.7652 274.735 63.7671C274.689 63.7687 274.645 63.7697 274.599 63.7697H274.197L273.858 65.1872H273.352L274.208 61.6355C274.354 61.6008 274.508 61.5783 274.672 61.5679C274.836 61.558 274.99 61.5527 275.137 61.5527ZM275.074 61.9786C274.827 61.9786 274.677 61.9856 274.625 61.9993L274.296 63.3602H274.604C274.747 63.3602 274.893 63.3499 275.043 63.3291C275.192 63.3084 275.329 63.2676 275.452 63.2071C275.575 63.1465 275.676 63.0617 275.755 62.9527C275.833 62.8436 275.872 62.6991 275.872 62.519C275.872 62.3252 275.798 62.1867 275.651 62.1036C275.503 62.0202 275.31 61.9786 275.074 61.9786Z"
    fill="white" />
  <path fill-rule="evenodd" clip-rule="evenodd"
    d="M276.433 65.1863L277.299 61.5879H279.434L279.334 62.0085H277.7L277.439 63.0938H278.89L278.791 63.504H277.345L277.038 64.7657H278.791L278.691 65.1863H276.433Z"
    fill="white" />
  <path fill-rule="evenodd" clip-rule="evenodd"
    d="M221.911 59.0156C225.752 59.0156 228.867 55.917 228.867 52.0947C228.867 48.2724 225.752 45.1738 221.911 45.1738C218.069 45.1738 214.954 48.2724 214.954 52.0947C214.954 55.917 218.069 59.0156 221.911 59.0156ZM224.978 51.1081C225.116 50.1868 224.411 49.6917 223.447 49.3612L223.76 48.1128L222.997 47.9233L222.692 49.1388C222.492 49.089 222.285 49.0419 222.08 48.9956L222.387 47.7723L221.624 47.5827L221.311 48.8307C221.145 48.793 220.981 48.7559 220.823 48.7164L220.824 48.7125L219.771 48.4512L219.568 49.2625C219.568 49.2625 220.134 49.3915 220.122 49.3997C220.432 49.4768 220.488 49.68 220.478 49.8415L220.122 51.263C220.143 51.2681 220.171 51.2755 220.202 51.2886C220.176 51.2816 220.149 51.2751 220.121 51.2681L219.621 53.2604C219.584 53.3534 219.487 53.4937 219.271 53.4405C219.279 53.4513 218.716 53.3028 218.716 53.3028L218.337 54.1726L219.33 54.4189C219.515 54.4648 219.697 54.5131 219.875 54.5586L219.559 55.8208L220.321 56.0103L220.634 54.7616C220.843 54.8174 221.045 54.8698 221.243 54.9186L220.931 56.1614L221.694 56.3509L222.011 55.0913C223.313 55.3362 224.292 55.2375 224.704 54.0657C225.036 53.1219 224.687 52.578 224.002 52.2232C224.501 52.1089 224.877 51.7827 224.978 51.1081ZM223.233 53.5421C222.997 54.4855 221.401 53.9753 220.883 53.8472L221.302 52.1752C221.82 52.3037 223.48 52.5581 223.233 53.5421ZM223.469 51.0946C223.254 51.9523 221.925 51.5166 221.494 51.4101L221.874 49.8931C222.305 50.0004 223.693 50.1998 223.469 51.0946Z"
    fill="#EA9B43" />
</svg>
