<svg xmlns="http://www.w3.org/2000/svg" width="25" height="25" viewBox="0 0 25 25" fill="none">
  <path opacity="0.65" fill-rule="evenodd" clip-rule="evenodd" d="M12.5151 24.126C19.0161 24.126 24.2861 18.7692 24.2861 12.1612C24.2861 5.55328 19.0161 0.196487 12.5151 0.196486C6.01409 0.196486 0.744005 5.55328 0.744004 12.1612C0.744004 18.7692 6.01408 24.126 12.5151 24.126ZM16.647 5.0947C17.6203 4.74103 18.7092 4.34535 19.4968 5.14595C20.2845 5.94652 19.8952 7.0533 19.5473 8.04265C19.5303 8.09085 19.5135 8.13878 19.4968 8.18639C19.3909 8.48976 19.2366 8.8714 19.0717 9.27893C18.6799 10.2476 18.2288 11.3625 18.2288 11.9208C18.2288 12.714 19.1067 15.2587 19.4643 16.151C19.822 17.0433 20.2741 18.3684 19.4481 19.208C18.6221 20.0476 17.3185 19.588 16.4406 19.2245C15.5627 18.861 13.0592 17.9687 12.2789 17.9687C11.7297 17.9687 10.6327 18.4271 9.67973 18.8254C9.27881 18.993 8.90337 19.1499 8.6049 19.2575C8.55806 19.2744 8.51088 19.2916 8.46343 19.3088C7.4901 19.6625 6.40129 20.0581 5.61368 19.2575C4.82605 18.457 5.2153 17.3502 5.56325 16.3608C5.5802 16.3126 5.59706 16.2647 5.61368 16.2171C5.71959 15.9137 5.87396 15.5321 6.0388 15.1246C6.43065 14.156 6.8817 13.0409 6.8817 12.4826C6.8817 11.6895 6.00383 9.14477 5.6462 8.25247C5.28855 7.36017 4.83644 6.03511 5.66245 5.19551C6.48845 4.35592 7.79207 4.81546 8.66992 5.17898C9.54779 5.54252 12.0513 6.43483 12.8316 6.43483C13.3809 6.43483 14.4778 5.97638 15.4308 5.57809C15.8317 5.41052 16.2072 5.2536 16.5056 5.14595C16.5524 5.12906 16.5996 5.11192 16.647 5.0947Z" fill="url(#paint0_linear_3337_39244)"/>
  <path opacity="0.65" fill-rule="evenodd" clip-rule="evenodd" d="M20.8385 3.69991C16.2416 -0.972619 8.78856 -0.972619 4.19167 3.6999C-0.405219 8.37243 -0.405219 15.9481 4.19167 20.6206C8.78856 25.2931 16.2416 25.2931 20.8385 20.6206C25.4354 15.9481 25.4354 8.37243 20.8385 3.69991ZM4.67678 14.187C3.7425 13.7375 2.69734 13.2347 2.69734 12.1025C2.69734 10.9703 3.7425 10.4675 4.67678 10.018C4.72231 9.99609 4.76758 9.97431 4.81246 9.95259C5.09839 9.81419 5.47303 9.6553 5.87309 9.48562C6.82403 9.08231 7.91861 8.61808 8.30699 8.22331C8.85876 7.66246 10.0083 5.23213 10.3761 4.34412C10.744 3.45611 11.3461 2.1942 12.5142 2.1942C13.6824 2.1942 14.2845 3.45611 14.6523 4.34412C15.0202 5.23213 16.1697 7.66247 16.7215 8.22331C17.1098 8.61808 18.2044 9.08231 19.1554 9.48563C19.5554 9.6553 19.9301 9.81419 20.216 9.9526C20.2609 9.97432 20.3061 9.9961 20.3517 10.018C21.286 10.4675 22.3311 10.9703 22.3311 12.1025C22.3311 13.2347 21.286 13.7375 20.3517 14.187C20.3061 14.2089 20.2609 14.2307 20.216 14.2524C19.9301 14.3908 19.5554 14.5497 19.1554 14.7194C18.2044 15.1227 17.1098 15.5869 16.7215 15.9817C16.1697 16.5426 15.0202 18.9729 14.6523 19.8609C14.2845 20.7489 13.6824 22.0108 12.5142 22.0108C11.3461 22.0108 10.744 20.7489 10.3761 19.8609C10.0083 18.9729 8.85876 16.5425 8.30699 15.9817C7.91861 15.5869 6.82404 15.1227 5.8731 14.7194C5.47303 14.5497 5.09839 14.3908 4.81246 14.2524C4.76758 14.2307 4.72231 14.2089 4.67678 14.187Z" fill="url(#paint1_linear_3337_39244)"/>
  <defs>
    <linearGradient id="paint0_linear_3337_39244" x1="24.9139" y1="0.196488" x2="0.10738" y2="23.4467" gradientUnits="userSpaceOnUse">
      <stop stop-color="#131822"/>
      <stop offset="1" stop-color="#131822"/>
    </linearGradient>
    <linearGradient id="paint1_linear_3337_39244" x1="26.3578" y1="0.195511" x2="-1.34462" y2="1.60038" gradientUnits="userSpaceOnUse">
      <stop stop-color="#131822"/>
      <stop offset="0.0001"/>
      <stop offset="0.855974" stop-color="#131822"/>
    </linearGradient>
  </defs>
</svg>
