<svg width="54" height="55" viewBox="0 0 54 55" fill="none" xmlns="http://www.w3.org/2000/svg">
  <circle cx="27" cy="27.5" r="27" fill="#1A1F37" />
  <path opacity="0.65" fill-rule="evenodd" clip-rule="evenodd"
    d="M27.2064 44.4238C36.1452 44.4238 43.3916 37.0582 43.3916 27.9723C43.3916 18.8864 36.1452 11.5208 27.2064 11.5208C18.2675 11.5208 11.0212 18.8864 11.0212 27.9723C11.0212 37.0582 18.2675 44.4238 27.2064 44.4238ZM32.8884 18.257C34.2268 17.7707 35.7239 17.2267 36.8069 18.3275C37.8898 19.4283 37.3547 20.95 36.8762 22.3103C36.8529 22.3767 36.8297 22.4426 36.8069 22.5081C36.6613 22.9252 36.449 23.4499 36.2223 24.0102C35.6835 25.3422 35.0634 26.8753 35.0634 27.6429C35.0634 28.7335 36.2704 32.2325 36.7622 33.4594C37.2539 34.6863 37.8756 36.5083 36.7398 37.6627C35.6041 38.8172 33.8116 38.1853 32.6045 37.6855C31.3975 37.1856 27.9551 35.9587 26.8822 35.9587C26.127 35.9587 24.6187 36.5891 23.3084 37.1367C22.7571 37.3671 22.2408 37.5829 21.8304 37.7309C21.7661 37.7541 21.7012 37.7777 21.636 37.8014C20.2977 38.2877 18.8005 38.8317 17.7175 37.7309C16.6345 36.6301 17.1698 35.1083 17.6482 33.748C17.6715 33.6817 17.6947 33.6158 17.7175 33.5503C17.8631 33.1331 18.0754 32.6084 18.3021 32.048C18.8409 30.7162 19.461 29.1831 19.461 28.4154C19.461 27.3248 18.254 23.8258 17.7622 22.5989C17.2705 21.372 16.6488 19.5501 17.7846 18.3956C18.9203 17.2412 20.7128 17.873 21.9199 18.3729C23.1269 18.8728 26.5693 20.0997 27.6422 20.0997C28.3974 20.0997 29.9057 19.4693 31.216 18.9216C31.7673 18.6912 32.2836 18.4755 32.694 18.3275C32.7584 18.3042 32.8232 18.2807 32.8884 18.257Z"
    fill="url(#paint0_linear_3192_38259)" />
  <path opacity="0.65" fill-rule="evenodd" clip-rule="evenodd"
    d="M38.6511 16.3393C32.3303 9.9146 22.0824 9.9146 15.7617 16.3393C9.441 22.764 9.441 33.1806 15.7617 39.6053C22.0824 46.03 32.3303 46.03 38.6511 39.6053C44.9718 33.1806 44.9718 22.764 38.6511 16.3393ZM16.4294 30.759C15.1448 30.1409 13.7077 29.4495 13.7077 27.8928C13.7077 26.336 15.1448 25.6446 16.4294 25.0266C16.492 24.9964 16.5543 24.9665 16.616 24.9366C17.0092 24.7463 17.5243 24.5278 18.0744 24.2945C19.3819 23.74 20.887 23.1017 21.421 22.5589C22.1797 21.7877 23.7603 18.446 24.266 17.225C24.7718 16.004 25.5997 14.2688 27.2059 14.2688C28.8121 14.2688 29.64 16.004 30.1458 17.225C30.6516 18.446 32.2322 21.7877 32.9909 22.5589C33.5249 23.1017 35.0299 23.74 36.3375 24.2945C36.8876 24.5278 37.4027 24.7463 37.7959 24.9366C37.8576 24.9665 37.9198 24.9964 37.9824 25.0266C39.2671 25.6446 40.7042 26.336 40.7042 27.8928C40.7042 29.4495 39.2671 30.1409 37.9824 30.759C37.9198 30.7891 37.8576 30.819 37.7959 30.8489C37.4027 31.0392 36.8876 31.2577 36.3375 31.491C35.03 32.0455 33.5249 32.6839 32.9909 33.2267C32.2322 33.9978 30.6516 37.3395 30.1458 38.5605C29.64 39.7816 28.8121 41.5167 27.2059 41.5167C25.5997 41.5167 24.7718 39.7816 24.266 38.5605C23.7603 37.3395 22.1797 33.9978 21.421 33.2267C20.887 32.6838 19.3819 32.0455 18.0744 31.491C17.5243 31.2577 17.0092 31.0392 16.616 30.8489C16.5543 30.819 16.492 30.7891 16.4294 30.759Z"
    fill="url(#paint1_linear_3192_38259)" />
  <defs>
    <linearGradient id="paint0_linear_3192_38259" x1="44.2548" y1="11.5208" x2="10.1458" y2="43.4899"
      gradientUnits="userSpaceOnUse">
      <stop stop-color="#00A3FF" />
      <stop offset="1" stop-color="#FF00C7" />
    </linearGradient>
    <linearGradient id="paint1_linear_3192_38259" x1="46.2402" y1="11.5208" x2="8.14932" y2="13.4525"
      gradientUnits="userSpaceOnUse">
      <stop stop-color="#00FFF0" />
      <stop offset="0.0001" stop-color="#13DEF2" />
      <stop offset="0.855974" stop-color="#E26CFF" />
    </linearGradient>
  </defs>
</svg>
