<svg xmlns="http://www.w3.org/2000/svg" width="12" height="11" viewBox="0 0 12 11" fill="none">
  <path d="M5.83336 0C2.62599 0 -5.83324e-05 2.33392 9.71815e-10 5.25002C9.71815e-10 6.16702 0.257775 7.0583 0.747367 7.83821C1.01045 8.25763 1.03495 8.85438 0.63805 9.66113C0.457858 10.0275 0.705658 10.4615 1.11195 10.5C1.90348 10.5752 2.62669 10.388 3.53646 10.0077C4.26119 10.29 5.02579 10.5 5.83336 10.5C9.0407 10.5 11.6667 8.16605 11.6667 5.25002C11.6667 2.33392 9.0407 0 5.83336 0ZM4.375 4.10144C4.80197 4.10202 5.16124 4.39188 5.25002 4.94021C5.38267 5.75863 5.19991 6.32971 4.73961 6.90896C4.63937 7.03496 4.46081 7.05019 4.33854 6.94519C4.21622 6.84077 4.1972 6.64821 4.30208 6.52571C4.48414 6.31338 4.6123 6.0923 4.68489 5.79655C4.57228 5.84205 4.45439 5.85144 4.375 5.85144C3.89177 5.85144 3.49994 5.46002 3.5 4.97644C3.5 4.49344 3.89171 4.10144 4.375 4.10144ZM7.29169 4.10144C7.71863 4.10202 8.07791 4.39188 8.16669 4.94021C8.29934 5.75863 8.11658 6.32971 7.65627 6.90896C7.55606 7.03496 7.3775 7.05019 7.25523 6.94519C7.13291 6.84077 7.11389 6.64821 7.21877 6.52571C7.40083 6.31338 7.52899 6.0923 7.60156 5.79655C7.48897 5.84205 7.37108 5.85144 7.29169 5.85144C6.80846 5.85144 6.41663 5.46002 6.41669 4.97644C6.41669 4.49344 6.8084 4.10144 7.29169 4.10144Z" fill="white"/>
</svg>
