<svg xmlns="http://www.w3.org/2000/svg" width="12" height="12" viewBox="0 0 12 12" fill="none">
  <path d="M1.75 9V8.75C1.75 8.612 1.862 8.5 2 8.5H10C10.138 8.5 10.25 8.612 10.25 8.75V9C10.25 10 9.75 10.5 8.75 10.5H3.25C2.25 10.5 1.75 10 1.75 9ZM10.875 7C10.875 6.793 10.707 6.625 10.5 6.625H1.5C1.293 6.625 1.125 6.793 1.125 7C1.125 7.207 1.293 7.375 1.5 7.375H10.5C10.707 7.375 10.875 7.207 10.875 7ZM10.25 5V5.25C10.25 5.388 10.138 5.5 10 5.5H2C1.862 5.5 1.75 5.388 1.75 5.25V5C1.75 3 3.25 1.5 6 1.5C8.75 1.5 10.25 3 10.25 5ZM4.375 3.5C4.375 3.45 4.3645 3.405 4.3445 3.355C4.3245 3.31 4.2995 3.27 4.2645 3.235C4.23 3.2 4.19 3.175 4.145 3.155C4.005 3.095 3.84 3.13 3.735 3.235C3.7 3.27 3.675 3.31 3.655 3.355C3.635 3.4 3.625 3.45 3.625 3.5C3.625 3.55 3.635 3.6 3.655 3.645C3.675 3.69 3.7 3.73 3.735 3.765C3.77 3.8 3.81 3.825 3.855 3.845C3.9 3.865 3.9495 3.875 4 3.875C4.05 3.875 4.0945 3.865 4.145 3.845C4.19 3.825 4.23 3.8 4.2645 3.765C4.335 3.695 4.375 3.6 4.375 3.5ZM6.375 3C6.375 2.95 6.3645 2.9 6.3445 2.855C6.3245 2.81 6.2995 2.77 6.2645 2.735C6.1595 2.63 5.995 2.595 5.855 2.655C5.81 2.675 5.77 2.7 5.735 2.735C5.7 2.77 5.67 2.81 5.655 2.855C5.635 2.9 5.625 2.95 5.625 3C5.625 3.05 5.635 3.1 5.655 3.145C5.675 3.19 5.7 3.23 5.735 3.265C5.77 3.3 5.81 3.325 5.855 3.345C5.9 3.365 5.9495 3.375 6 3.375C6.1 3.375 6.195 3.335 6.2645 3.265C6.2995 3.23 6.3245 3.19 6.3445 3.145C6.3645 3.1 6.375 3.05 6.375 3ZM8.375 3.5C8.375 3.45 8.3645 3.4 8.3445 3.355C8.3245 3.31 8.2995 3.27 8.2645 3.235C8.23 3.2 8.19 3.175 8.145 3.155C8.05 3.115 7.9495 3.115 7.855 3.155C7.81 3.175 7.77 3.2 7.735 3.235C7.7 3.27 7.67 3.31 7.655 3.355C7.635 3.4 7.625 3.45 7.625 3.5C7.625 3.6 7.665 3.695 7.735 3.765C7.77 3.8 7.81 3.825 7.855 3.845C7.9 3.865 7.9495 3.875 8 3.875C8.05 3.875 8.0945 3.865 8.145 3.845C8.19 3.825 8.23 3.8 8.2645 3.765C8.335 3.695 8.375 3.6 8.375 3.5Z" fill="#838C95"/>
</svg>
