<svg xmlns="http://www.w3.org/2000/svg" width="12" height="12" viewBox="0 0 12 12" fill="none">
  <path d="M8.83268 10H8.33268V2.83333C8.33268 1.822 7.51068 1 6.49935 1H3.49935C2.48802 1 1.66602 1.822 1.66602 2.83333V10H1.16602C0.890016 10 0.666016 10.224 0.666016 10.5C0.666016 10.776 0.890016 11 1.16602 11H8.83268C9.10868 11 9.33268 10.776 9.33268 10.5C9.33268 10.224 9.10868 10 8.83268 10ZM3.49935 2H6.49935C6.95868 2 7.33268 2.374 7.33268 2.83333V5.33333H2.66602V2.83333C2.66602 2.374 3.04002 2 3.49935 2Z" fill="#838C95"/>
  <path d="M11.6567 3.95133L10.1854 2.48C9.99005 2.28466 9.67338 2.28466 9.47805 2.48C9.28271 2.67533 9.28271 2.992 9.47805 3.18733L10.1647 3.874V4.83333C10.1647 5.36 10.518 5.80133 10.998 5.94533V7.83333C10.998 8.10933 10.774 8.33333 10.498 8.33333C10.222 8.33333 9.99805 8.10933 9.99805 7.83333V7.16666C9.99805 6.89066 9.77405 6.66666 9.49805 6.66666C9.22205 6.66666 8.99805 6.89066 8.99805 7.16666V7.83333C8.99805 8.66066 9.67071 9.33333 10.498 9.33333C11.3254 9.33333 11.998 8.66066 11.998 7.83333V4.776C11.998 4.46466 11.8774 4.17133 11.6567 3.95133Z" fill="#838C95"/>
</svg>
