<svg xmlns="http://www.w3.org/2000/svg" width="12" height="10" viewBox="0 0 12 10" fill="none">
  <path d="M3.07238 2.23719C3.65552 2.40234 4.27654 2.09706 4.45473 1.55655C4.63292 1.01603 4.30354 0.445567 3.72034 0.280417C3.1372 0.110286 2.52162 0.415561 2.33799 0.956019C2.15986 1.50152 2.49462 2.07204 3.07238 2.23719ZM11.9603 5.57523C11.8361 5.90553 11.442 6.07566 11.0856 5.96056C11.0748 5.95557 11.0586 5.95053 11.0424 5.94555L8.67733 4.97464L6.73884 6.0606L7.91056 6.38591C8.08875 6.47599 8.20757 6.63616 8.25075 6.81631L8.59095 9.26349C8.60714 9.36359 8.59632 9.47371 8.55857 9.57375C8.43438 9.90903 8.04019 10.0792 7.6838 9.96412C7.4408 9.88406 7.26804 9.68387 7.2356 9.45865L6.96022 7.45687L5.14132 6.95309C4.77254 6.84948 4.53573 6.51602 4.46017 6.20576L4.03897 4.00877L3.1642 5.02469C3.1102 5.08476 3.03463 5.12479 2.95901 5.15479L0.458948 4.90455C0.458948 4.89957 0.453573 4.89957 0.453573 4.89957C0.199818 4.88456 9.53674e-07 4.68935 9.53674e-07 4.44919C9.53674e-07 4.19894 0.216005 3.99376 0.485949 3.99376C0.491323 3.98878 0.491323 3.98878 0.496761 3.98878L2.61344 4.22397L4.15235 2.31226C4.24954 2.21216 4.35754 2.12707 4.4871 2.06202L8.13194 0.0752403C8.2615 0.000166926 8.41269 -0.0198175 8.56388 0.0202099C8.84464 0.100265 9.00127 0.370552 8.92027 0.63076C8.87708 0.760863 8.78526 0.860961 8.66107 0.921031L6.10164 2.31226L6.52284 4.70939L8.30475 3.69851C8.47213 3.61342 8.67733 3.58839 8.87171 3.65344C8.88789 3.65344 8.89871 3.65842 8.90952 3.66346L11.604 4.77948C11.9225 4.91463 12.0792 5.25489 11.9603 5.57523Z" fill="#838C95"/>
</svg>
