<svg width="12" height="12" viewBox="0 0 12 12" fill="none" xmlns="http://www.w3.org/2000/svg">
<g id="Timer Clock Fast 1" clip-path="url(#clip0_4934_30605)">
<g id="Group">
<path id="Vector" d="M1.5 7.5H4.5" stroke="#838C95" stroke-linecap="round" stroke-linejoin="round"/>
<path id="Vector_2" d="M4.5 9H2.5" stroke="#838C95" stroke-linecap="round" stroke-linejoin="round"/>
<path id="Vector_3" d="M4.5 10.5H3.5" stroke="#838C95" stroke-linecap="round" stroke-linejoin="round"/>
<path id="Vector_4" d="M6 4.5V6.5" stroke="#838C95" stroke-linecap="round" stroke-linejoin="round"/>
<path id="Vector_5" d="M5 1H7" stroke="#838C95" stroke-linecap="round" stroke-linejoin="round"/>
<path id="Vector_6" d="M2.03458 5.99993C2.13109 5.23651 2.44583 4.51716 2.94104 3.92819C3.43625 3.33922 4.09088 2.90565 4.82639 2.6795C5.5619 2.45336 6.34704 2.44425 7.0876 2.65326C7.82817 2.86228 8.49269 3.28054 9.00143 3.85786C9.51017 4.43518 9.84152 5.14704 9.95572 5.90801C10.0699 6.66898 9.96212 7.44674 9.64526 8.14796C9.32839 8.84918 8.81592 9.44408 8.16933 9.86127C7.52275 10.2785 6.76952 10.5002 6.00003 10.4999" stroke="#838C95" stroke-linecap="round" stroke-linejoin="round"/>
</g>
</g>
<defs>
<clipPath id="clip0_4934_30605">
<rect width="12" height="12" fill="white"/>
</clipPath>
</defs>
</svg>
