<svg xmlns="http://www.w3.org/2000/svg" width="54" height="55" viewBox="0 0 54 55" fill="none">
  <circle cx="27" cy="27.5" r="27" fill="#1A1F37"/>
  <path opacity="0.65" fill-rule="evenodd" clip-rule="evenodd" d="M27.2064 44.4238C36.1452 44.4238 43.3916 37.0582 43.3916 27.9723C43.3916 18.8864 36.1452 11.5208 27.2064 11.5208C18.2675 11.5208 11.0212 18.8864 11.0212 27.9723C11.0212 37.0582 18.2675 44.4238 27.2064 44.4238ZM32.8884 18.2559C34.2268 17.7695 35.7239 17.2256 36.8069 18.3263C37.8898 19.4271 37.3547 20.9489 36.8762 22.3092C36.8529 22.3755 36.8297 22.4415 36.8069 22.5069C36.6613 22.9241 36.449 23.4488 36.2223 24.0091C35.6835 25.341 35.0634 26.8742 35.0634 27.6418C35.0634 28.7324 36.2704 32.2314 36.7622 33.4583C37.2539 34.6852 37.8756 36.5072 36.7398 37.6616C35.6041 38.8161 33.8116 38.1842 32.6045 37.6843C31.3975 37.1845 27.9551 35.9576 26.8822 35.9576C26.127 35.9576 24.6187 36.588 23.3084 37.1356C22.7571 37.366 22.2408 37.5818 21.8304 37.7298C21.7661 37.753 21.7012 37.7766 21.636 37.8003C20.2977 38.2866 18.8005 38.8306 17.7175 37.7298C16.6345 36.629 17.1698 35.1072 17.6482 33.7469C17.6715 33.6806 17.6947 33.6147 17.7175 33.5492C17.8631 33.132 18.0754 32.6073 18.3021 32.0469C18.8409 30.715 19.461 29.1819 19.461 28.4143C19.461 27.3237 18.254 23.8247 17.7622 22.5978C17.2705 21.3709 16.6488 19.5489 17.7846 18.3945C18.9203 17.2401 20.7128 17.8719 21.9199 18.3718C23.1269 18.8716 26.5693 20.0986 27.6422 20.0986C28.3974 20.0986 29.9057 19.4682 31.216 18.9205C31.7673 18.6901 32.2836 18.4744 32.694 18.3263C32.7584 18.3031 32.8232 18.2796 32.8884 18.2559Z" fill="url(#paint0_linear_3236_82442)"/>
  <path opacity="0.65" fill-rule="evenodd" clip-rule="evenodd" d="M38.6511 16.3383C32.3303 9.91363 22.0824 9.91363 15.7617 16.3383C9.441 22.7631 9.441 33.1796 15.7617 39.6043C22.0824 46.029 32.3303 46.029 38.6511 39.6043C44.9718 33.1796 44.9718 22.7631 38.6511 16.3383ZM16.4294 30.7585C15.1448 30.1405 13.7077 29.4491 13.7077 27.8923C13.7077 26.3356 15.1448 25.6442 16.4294 25.0261C16.492 24.996 16.5543 24.9661 16.616 24.9362C17.0092 24.7459 17.5243 24.5274 18.0744 24.2941C19.3819 23.7396 20.887 23.1012 21.421 22.5584C22.1797 21.7873 23.7603 18.4456 24.266 17.2246C24.7718 16.0035 25.5997 14.2684 27.2059 14.2684C28.8121 14.2684 29.64 16.0035 30.1458 17.2246C30.6516 18.4456 32.2322 21.7873 32.9909 22.5584C33.5249 23.1013 35.0299 23.7396 36.3375 24.2941C36.8876 24.5274 37.4027 24.7459 37.7959 24.9362C37.8576 24.9661 37.9198 24.996 37.9824 25.0261C39.2671 25.6442 40.7042 26.3356 40.7042 27.8923C40.7042 29.4491 39.2671 30.1405 37.9824 30.7585C37.9198 30.7887 37.8576 30.8186 37.7959 30.8485C37.4027 31.0388 36.8876 31.2573 36.3375 31.4906C35.03 32.0451 33.5249 32.6834 32.9909 33.2262C32.2322 33.9974 30.6516 37.3391 30.1458 38.5601C29.64 39.7811 28.8121 41.5163 27.2059 41.5163C25.5997 41.5163 24.7718 39.7811 24.266 38.5601C23.7603 37.3391 22.1797 33.9974 21.421 33.2262C20.887 32.6834 19.3819 32.0451 18.0744 31.4906C17.5243 31.2573 17.0092 31.0388 16.616 30.8485C16.5543 30.8186 16.492 30.7887 16.4294 30.7585Z" fill="url(#paint1_linear_3236_82442)"/>
  <defs>
    <linearGradient id="paint0_linear_3236_82442" x1="44.2548" y1="11.5208" x2="10.1458" y2="43.4899" gradientUnits="userSpaceOnUse">
      <stop stop-color="#00A3FF"/>
      <stop offset="1" stop-color="#FF00C7"/>
    </linearGradient>
    <linearGradient id="paint1_linear_3236_82442" x1="46.2402" y1="11.5198" x2="8.14932" y2="13.4515" gradientUnits="userSpaceOnUse">
      <stop stop-color="#00FFF0"/>
      <stop offset="0.0001" stop-color="#13DEF2"/>
      <stop offset="0.855974" stop-color="#E26CFF"/>
    </linearGradient>
  </defs>
</svg>
