<svg width="232" height="162" viewBox="0 0 232 162" fill="none" xmlns="http://www.w3.org/2000/svg">
<g opacity="0.2" clip-path="url(#clip0_1673_15606)">
<path opacity="0.47" d="M45.0003 114.388C45.0003 114.789 44.6798 115.111 44.2809 115.111C43.882 115.111 43.5615 114.789 43.5615 114.388C43.5615 113.988 43.882 113.666 44.2809 113.666C44.6798 113.666 45.0003 113.988 45.0003 114.388Z" fill="white"/>
<path opacity="0.47" d="M2.15103 63.45C2.15103 64.0435 1.66669 64.5298 1.07552 64.5298C0.484339 64.5298 0 64.0435 0 63.45C0 62.8564 0.484339 62.3701 1.07552 62.3701C1.66669 62.3701 2.15103 62.8564 2.15103 63.45Z" fill="white"/>
<path opacity="0.47" d="M128.92 63.0917C128.92 63.8855 128.279 64.5291 127.488 64.5291C126.698 64.5291 126.057 63.8855 126.057 63.0917C126.057 62.2979 126.698 61.6543 127.488 61.6543C128.279 61.6543 128.92 62.2979 128.92 63.0917Z" fill="white"/>
<path opacity="0.92" d="M130.714 20.3057C130.714 21.2997 129.909 22.1007 128.926 22.1007C127.944 22.1007 127.139 21.2926 127.139 20.3057C127.139 19.3188 127.944 18.5107 128.926 18.5107C129.909 18.5107 130.714 19.3188 130.714 20.3057Z" fill="white"/>
<path opacity="0.47" d="M90.8421 131.651C90.8421 132.051 90.5216 132.373 90.1227 132.373C89.7238 132.373 89.4033 132.051 89.4033 131.651C89.4033 131.251 89.7238 130.929 90.1227 130.929C90.5216 130.929 90.8421 131.251 90.8421 131.651Z" fill="white"/>
<path opacity="0.47" d="M21.126 88.9794C21.126 89.7732 20.485 90.4168 19.6943 90.4168C18.9037 90.4168 18.2627 89.7732 18.2627 88.9794C18.2627 88.1856 18.9037 87.542 19.6943 87.542C20.485 87.542 21.126 88.1856 21.126 88.9794Z" fill="white"/>
<path opacity="0.92" d="M9.6725 21.7434C9.6725 22.4085 9.1383 22.9448 8.4759 22.9448C7.81349 22.9448 7.2793 22.4085 7.2793 21.7434C7.2793 21.0783 7.81349 20.542 8.4759 20.542C9.1383 20.542 9.6725 21.0783 9.6725 21.7434Z" fill="white"/>
<path opacity="0.47" d="M115.5 84.9752C115.5 85.2398 115.287 85.4544 115.023 85.4544C114.76 85.4544 114.546 85.2398 114.546 84.9752C114.546 84.7106 114.76 84.4961 115.023 84.4961C115.287 84.4961 115.5 84.7106 115.5 84.9752Z" fill="white"/>
<path opacity="0.92" d="M122.83 154.178C122.83 154.843 122.296 155.379 121.633 155.379C120.971 155.379 120.437 154.843 120.437 154.178C120.437 153.513 120.971 152.977 121.633 152.977C122.296 152.977 122.83 153.513 122.83 154.178Z" fill="white"/>
<path opacity="0.47" d="M216.621 142.4C216.621 142.779 216.315 143.079 215.944 143.079C215.574 143.079 215.268 142.772 215.268 142.4C215.268 142.028 215.574 141.721 215.944 141.721C216.315 141.721 216.621 142.028 216.621 142.4Z" fill="white"/>
<path opacity="0.92" d="M3.93849 128.533C3.93849 129.327 3.29745 129.971 2.50684 129.971C1.71623 129.971 1.0752 129.327 1.0752 128.533C1.0752 127.739 1.71623 127.096 2.50684 127.096C3.29745 127.096 3.93849 127.739 3.93849 128.533Z" fill="white"/>
<path opacity="0.71" d="M76.2767 96.1735C76.2767 96.5739 75.9561 96.8957 75.5573 96.8957C75.1584 96.8957 74.8379 96.5739 74.8379 96.1735C74.8379 95.773 75.1584 95.4512 75.5573 95.4512C75.9561 95.4512 76.2767 95.773 76.2767 96.1735Z" fill="white"/>
<path opacity="0.47" d="M105.69 9.77866L106.074 10.9443C106.196 11.3162 106.488 11.6094 106.858 11.731L108.019 12.1171C108.154 12.16 108.154 12.3531 108.019 12.396L106.858 12.7822C106.488 12.9038 106.196 13.197 106.074 13.5688L105.69 14.7345C105.647 14.8704 105.455 14.8704 105.412 14.7345L105.027 13.5688C104.906 13.197 104.614 12.9038 104.244 12.7822L103.083 12.396C102.948 12.3531 102.948 12.16 103.083 12.1171L104.244 11.731C104.614 11.6094 104.906 11.3162 105.027 10.9443L105.412 9.77866C105.455 9.64279 105.647 9.64279 105.69 9.77866Z" fill="white"/>
<path opacity="0.92" d="M208.779 17.0738C208.779 17.4743 208.458 17.7961 208.059 17.7961C207.66 17.7961 207.34 17.4743 207.34 17.0738C207.34 16.6734 207.66 16.3516 208.059 16.3516C208.458 16.3516 208.779 16.6734 208.779 17.0738Z" fill="white"/>
<path opacity="0.47" d="M225.937 87.9144L226.286 88.98C226.4 89.3232 226.663 89.5878 227.005 89.7022L228.067 90.0527C228.188 90.0956 228.188 90.2672 228.067 90.3101L227.005 90.6605C226.663 90.7749 226.4 91.0395 226.286 91.3828L225.937 92.4483C225.894 92.5699 225.723 92.5699 225.68 92.4483L225.331 91.3828C225.217 91.0395 224.954 90.7749 224.612 90.6605L223.551 90.3101C223.43 90.2672 223.43 90.0956 223.551 90.0527L224.612 89.7022C224.954 89.5878 225.217 89.3232 225.331 88.98L225.68 87.9144C225.723 87.7928 225.894 87.7928 225.937 87.9144Z" fill="white"/>
<path opacity="0.47" d="M141.911 -2.00592L142.075 -1.51963C142.125 -1.36231 142.246 -1.24073 142.403 -1.19068L142.887 -1.0262C142.944 -1.00474 142.944 -0.926078 142.887 -0.904625L142.403 -0.740145C142.246 -0.690086 142.125 -0.568515 142.075 -0.411187L141.911 0.0750997C141.89 0.13231 141.811 0.13231 141.79 0.0750997L141.626 -0.411187C141.576 -0.568515 141.455 -0.690086 141.299 -0.740145L140.814 -0.904625C140.757 -0.926078 140.757 -1.00474 140.814 -1.0262L141.299 -1.19068C141.455 -1.24073 141.576 -1.36231 141.626 -1.51963L141.79 -2.00592C141.811 -2.06313 141.89 -2.06313 141.911 -2.00592Z" fill="white"/>
</g>
<defs>
<clipPath id="clip0_1673_15606">
<rect width="342" height="173" fill="white" transform="translate(0 -6)"/>
</clipPath>
</defs>
</svg>
