<svg width="24" height="24" viewBox="0 0 24 24" fill="none" xmlns="http://www.w3.org/2000/svg">
<g clip-path="url(#clip0_10254_27941)">
<path d="M12.001 9V8" stroke="white" stroke-width="1.5" stroke-linecap="round" stroke-linejoin="round"/>
<path d="M12.001 15V16" stroke="white" stroke-width="1.5" stroke-linecap="round" stroke-linejoin="round"/>
<path d="M10.2661 14.2857C10.392 14.5023 10.5722 14.6823 10.7888 14.8081C11.0054 14.934 11.251 15.0013 11.5015 15.0034H12.5975C12.9401 15.0031 13.2708 14.8777 13.5273 14.6506C13.7839 14.4235 13.9485 14.1105 13.9904 13.7705C14.0322 13.4305 13.9484 13.0869 13.7546 12.8043C13.5608 12.5218 13.2704 12.3199 12.9381 12.2366L11.0638 11.7657C10.7315 11.6824 10.4411 11.4804 10.2473 11.1979C10.0535 10.9154 9.96965 10.5718 10.0115 10.2318C10.0534 9.89177 10.218 9.57876 10.4746 9.35169C10.7311 9.12461 11.0618 8.99913 11.4044 8.99886H12.5004C12.7504 9.00059 12.9957 9.06736 13.2121 9.19259C13.4285 9.31783 13.6086 9.49722 13.7347 9.71313" stroke="white" stroke-width="1.5" stroke-linecap="round" stroke-linejoin="round"/>
<path d="M12 3C13.78 3 15.5201 3.52784 17.0001 4.51677C18.4802 5.50571 19.6337 6.91131 20.3149 8.55585C20.9961 10.2004 21.1743 12.01 20.8271 13.7558C20.4798 15.5016 19.6226 17.1053 18.364 18.364C17.1053 19.6226 15.5016 20.4798 13.7558 20.8271C12.01 21.1743 10.2004 20.9961 8.55585 20.3149C6.91131 19.6337 5.50571 18.4802 4.51677 17.0001C3.52784 15.5201 3 13.78 3 12C3 9.61305 3.94821 7.32387 5.63604 5.63604C7.32387 3.94821 9.61305 3 12 3Z" stroke="white" stroke-width="1.5" stroke-linecap="round" stroke-linejoin="round"/>
<path d="M12 3C13.78 3 15.5201 3.52784 17.0001 4.51677C18.4802 5.50571 19.6337 6.91131 20.3149 8.55585C20.9961 10.2004 21.1743 12.01 20.8271 13.7558C20.4798 15.5016 19.6226 17.1053 18.364 18.364C17.1053 19.6226 15.5016 20.4798 13.7558 20.8271C12.01 21.1743 10.2004 20.9961 8.55585 20.3149C6.91131 19.6337 5.50571 18.4802 4.51677 17.0001C3.52784 15.5201 3 13.78 3 12C3 9.61305 3.94821 7.32387 5.63604 5.63604C7.32387 3.94821 9.61305 3 12 3Z" stroke="white" stroke-width="1.5" stroke-linecap="round" stroke-linejoin="round"/>
</g>
<defs>
<clipPath id="clip0_10254_27941">
<rect width="24" height="24" fill="white"/>
</clipPath>
</defs>
</svg>
