<svg width="22" height="22" viewBox="0 0 22 22" fill="none"
    xmlns="http://www.w3.org/2000/svg">
    <path d="M17.5695 11.817C17.2829 11.817 17.0416 11.5983 17.0039 11.3117C16.8229 9.6073 15.9028 8.06126 14.485 7.08085C14.2286 6.89985 14.1682 6.55293 14.3417 6.29652C14.5227 6.0401 14.8771 5.97977 15.126 6.15323C16.8153 7.32218 17.9013 9.16234 18.12 11.191C18.1502 11.5003 17.9315 11.7793 17.6147 11.817C17.6072 11.817 17.5846 11.817 17.5695 11.817Z" fill="white" fill-opacity="0.4"/>
    <path d="M4.65132 11.8538C4.6287 11.8538 4.61361 11.8538 4.59099 11.8538C4.28179 11.8161 4.05554 11.537 4.08571 11.2278C4.28933 9.19912 5.36777 7.3665 7.03444 6.18246C7.29086 6.00146 7.64531 6.06179 7.82631 6.31821C8.0073 6.57462 7.94697 6.92908 7.69056 7.11008C6.28783 8.09804 5.38285 9.64407 5.20939 11.3485C5.18677 11.6351 4.9379 11.8538 4.65132 11.8538Z" fill="white" fill-opacity="0.4"/>
    <path d="M11.114 19.0105C9.99785 19.0105 8.93447 18.7541 7.93899 18.2564C7.65995 18.1131 7.54683 17.7737 7.69012 17.4947C7.83341 17.2156 8.17278 17.1025 8.45182 17.2458C10.0808 18.0678 12.0416 18.0829 13.6857 17.291C13.9647 17.1553 14.3041 17.276 14.4398 17.555C14.5756 17.834 14.4549 18.1734 14.1759 18.3092C13.2105 18.7767 12.1849 19.0105 11.114 19.0105Z" fill="white" fill-opacity="0.4"/>
    <path d="M11.1133 8.3244C9.64273 8.3244 8.45117 7.13282 8.45117 5.6622C8.45117 4.19158 9.64273 3 11.1133 3C12.5839 3 13.7755 4.19158 13.7755 5.6622C13.7755 7.13282 12.5764 8.3244 11.1133 8.3244ZM11.1133 4.13879C10.2687 4.13879 9.5824 4.82508 9.5824 5.66974C9.5824 6.51441 10.2687 7.2007 11.1133 7.2007C11.958 7.2007 12.6443 6.51441 12.6443 5.66974C12.6443 4.82508 11.9504 4.13879 11.1133 4.13879Z" fill="white" fill-opacity="0.4"/>
    <path d="M5.66216 17.5471C4.19156 17.5471 3 16.3555 3 14.8849C3 13.4218 4.19156 12.2227 5.66216 12.2227C7.13276 12.2227 8.32432 13.4142 8.32432 14.8849C8.32432 16.3479 7.13276 17.5471 5.66216 17.5471ZM5.66216 13.3539C4.81751 13.3539 4.13123 14.0402 4.13123 14.8849C4.13123 15.7295 4.81751 16.4158 5.66216 16.4158C6.50681 16.4158 7.19309 15.7295 7.19309 14.8849C7.19309 14.0402 6.50681 13.3539 5.66216 13.3539Z" fill="white" fill-opacity="0.4"/>
    <path d="M16.4766 17.5471C15.006 17.5471 13.8145 16.3555 13.8145 14.8849C13.8145 13.4218 15.006 12.2227 16.4766 12.2227C17.9472 12.2227 19.1388 13.4142 19.1388 14.8849C19.1312 16.3479 17.9397 17.5471 16.4766 17.5471ZM16.4766 13.3539C15.632 13.3539 14.9457 14.0402 14.9457 14.8849C14.9457 15.7295 15.632 16.4158 16.4766 16.4158C17.3213 16.4158 18.0075 15.7295 18.0075 14.8849C18 14.0402 17.3213 13.3539 16.4766 13.3539Z" fill="white" fill-opacity="0.4"/>
</svg>
