<svg width="24" height="24" viewBox="0 0 24 24" fill="none" xmlns="http://www.w3.org/2000/svg">
<g id="Dollar Cash Circle 1" clip-path="url(#clip0_10254_37619)">
<g id="Group">
<path id="Vector" d="M12.001 9V8" stroke="white" stroke-width="1.5" stroke-linecap="round" stroke-linejoin="round"/>
<path id="Vector_2" d="M12.001 15V16" stroke="white" stroke-width="1.5" stroke-linecap="round" stroke-linejoin="round"/>
<path id="Vector_3" d="M10.2661 14.2856C10.3921 14.5022 10.5722 14.6822 10.7888 14.8081C11.0054 14.9339 11.2511 15.0012 11.5016 15.0033H12.5976C12.9402 15.0031 13.2708 14.8776 13.5274 14.6505C13.7839 14.4234 13.9486 14.1104 13.9904 13.7704C14.0323 13.4304 13.9484 13.0868 13.7546 12.8043C13.5608 12.5218 13.2704 12.3198 12.9381 12.2365L11.0639 11.7656C10.7316 11.6823 10.4412 11.4804 10.2474 11.1979C10.0536 10.9153 9.96969 10.5717 10.0115 10.2317C10.0534 9.89169 10.2181 9.57869 10.4746 9.35161C10.7312 9.12454 11.0618 8.99906 11.4044 8.99878H12.5004C12.7504 9.00051 12.9957 9.06728 13.2121 9.19251C13.4285 9.31775 13.6086 9.49714 13.7347 9.71306" stroke="white" stroke-width="1.5" stroke-linecap="round" stroke-linejoin="round"/>
<path id="a" d="M12 3C13.78 3 15.5201 3.52784 17.0001 4.51677C18.4802 5.50571 19.6337 6.91131 20.3149 8.55585C20.9961 10.2004 21.1743 12.01 20.8271 13.7558C20.4798 15.5016 19.6226 17.1053 18.364 18.364C17.1053 19.6226 15.5016 20.4798 13.7558 20.8271C12.01 21.1743 10.2004 20.9961 8.55585 20.3149C6.91131 19.6337 5.50571 18.4802 4.51677 17.0001C3.52784 15.5201 3 13.78 3 12C3 9.61305 3.94821 7.32387 5.63604 5.63604C7.32387 3.94821 9.61305 3 12 3Z" stroke="white" stroke-width="1.5" stroke-linecap="round" stroke-linejoin="round"/>
<path id="a_2" d="M12 3C13.78 3 15.5201 3.52784 17.0001 4.51677C18.4802 5.50571 19.6337 6.91131 20.3149 8.55585C20.9961 10.2004 21.1743 12.01 20.8271 13.7558C20.4798 15.5016 19.6226 17.1053 18.364 18.364C17.1053 19.6226 15.5016 20.4798 13.7558 20.8271C12.01 21.1743 10.2004 20.9961 8.55585 20.3149C6.91131 19.6337 5.50571 18.4802 4.51677 17.0001C3.52784 15.5201 3 13.78 3 12C3 9.61305 3.94821 7.32387 5.63604 5.63604C7.32387 3.94821 9.61305 3 12 3Z" stroke="white" stroke-width="1.5" stroke-linecap="round" stroke-linejoin="round"/>
</g>
</g>
<defs>
<clipPath id="clip0_10254_37619">
<rect width="24" height="24" fill="white"/>
</clipPath>
</defs>
</svg>
