<svg width="25" height="25" viewBox="0 0 25 25" fill="none" xmlns="http://www.w3.org/2000/svg">
    <path
        d="M21.6077 15.0556C21.6077 16.5506 19.2587 17.7634 16.3617 17.7634C13.4647 17.7634 11.1167 16.5506 11.1167 15.0556M8.74604 12.651C5.84899 12.651 3.5 11.4392 3.5 9.9431M3.5 5.20816V14.6797C3.5 16.1758 5.84899 17.3875 8.74604 17.3875M3.5 5.20816C3.5 6.70425 5.84899 7.91575 8.74604 7.91575M3.5 5.20816C3.5 3.71315 5.84899 2.5 8.74604 2.5C11.6431 2.5 13.992 3.71287 13.992 5.20787M21.6077 10.3207V19.7922C21.6077 21.2882 19.2587 22.5 16.3617 22.5C13.4647 22.5 11.1167 21.2882 11.1167 19.7922V10.3207M21.6077 10.3207C21.6077 11.8157 19.2587 13.0283 16.3617 13.0283C13.4647 13.0283 11.1167 11.8157 11.1167 10.3207M21.6077 10.3207C21.6077 8.82567 19.2587 7.61252 16.3617 7.61252C13.4647 7.61252 11.1167 8.82567 11.1167 10.3207"
        stroke="white" stroke-width="2" />
</svg>