<svg width="22" height="22" viewBox="0 0 22 22" fill="none"
    xmlns="http://www.w3.org/2000/svg">
    <path d="M16.0619 5.00014C15.7953 5.00028 15.5791 5.21647 15.5791 5.48309C15.5791 5.74972 15.7953 5.9659 16.0619 5.9659H18.2385L12.4256 11.779L9.95582 9.30878C9.77478 9.12774 9.45425 9.12774 9.27321 9.30878L3.14141 15.4406C2.95286 15.6291 2.95286 15.9347 3.14141 16.1232C3.23575 16.2175 3.35926 16.2646 3.48278 16.2646C3.6063 16.2646 3.72981 16.2175 3.82415 16.1232L9.61458 10.3328L12.0845 12.8028C12.175 12.8933 12.2978 12.9443 12.4259 12.9443C12.554 12.9443 12.6767 12.8933 12.7673 12.8028L18.9588 6.61114V8.86223C18.9588 9.12886 19.175 9.34504 19.4416 9.34504C19.7082 9.34504 19.9244 9.12886 19.9244 8.86223V5.48281C19.9244 5.21619 19.7082 5 19.4416 5L16.0619 5.00014Z" fill="currentColor"/>
</svg>
