<svg width="52" height="52" viewBox="0 0 52 52" fill="none" xmlns="http://www.w3.org/2000/svg">
<path fill-rule="evenodd" clip-rule="evenodd" d="M36.8332 8.83325V12.8284C33.6864 10.8767 29.9745 9.74992 25.9995 9.74992C22.0247 9.74992 18.3131 10.8766 15.1665 12.8279V8.83325C15.1665 6.34797 17.1812 4.33325 19.6665 4.33325H32.3332C34.8185 4.33325 36.8332 6.34797 36.8332 8.83325ZM43.3337 30.3333C43.3337 39.9062 35.5733 47.6666 26.0003 47.6666C16.4274 47.6666 8.66699 39.9062 8.66699 30.3333C8.66699 20.7604 16.4274 13 26.0003 13C35.5733 13 43.3337 20.7604 43.3337 30.3333ZM24.2948 22.7685C24.9922 21.2994 27.0072 21.2994 27.7046 22.7685L28.9098 25.3077C29.1868 25.8911 29.7221 26.2955 30.3413 26.389L33.0364 26.7962C34.5958 27.0318 35.2185 29.0243 34.0901 30.1679L32.1399 32.1443C31.6918 32.5984 31.4874 33.2527 31.5931 33.894L32.0535 36.6847C32.3199 38.2995 30.6897 39.5309 29.2949 38.7685L26.8844 37.4509C26.3305 37.1482 25.6688 37.1482 25.115 37.4509L22.7044 38.7685C21.3096 39.5309 19.6794 38.2995 19.9458 36.6847L20.4062 33.894C20.512 33.2527 20.3075 32.5984 19.8594 32.1443L17.9092 30.1679C16.7808 29.0243 17.4035 27.0318 18.9629 26.7962L21.658 26.389C22.2772 26.2955 22.8126 25.8911 23.0895 25.3077L24.2948 22.7685Z" fill="url(#paint0_linear_70_1997)"/>
<defs>
<linearGradient id="paint0_linear_70_1997" x1="26.0003" y1="4.33325" x2="26.0003" y2="47.6666" gradientUnits="userSpaceOnUse">
<stop stop-color="white"/>
<stop offset="0.15625" stop-color="white" stop-opacity="0.84375"/>
<stop offset="1" stop-color="white" stop-opacity="0"/>
</linearGradient>
</defs>
</svg>
