<svg xmlns="http://www.w3.org/2000/svg" width="19" height="19" viewBox="0 0 19 19" fill="none">
    <path d="M9.50002 17.6663C10.5727 17.6677 11.635 17.4571 12.6261 17.0466C13.6171 16.6361 14.5172 16.0338 15.2747 15.2743C16.0342 14.5168 16.6365 13.6167 17.047 12.6257C17.4575 11.6347 17.6681 10.5723 17.6667 9.49968C17.6681 8.42702 17.4574 7.36466 17.0469 6.37366C16.6364 5.38265 16.0341 4.48253 15.2747 3.72503C14.5172 2.96554 13.6171 2.36324 12.6261 1.95274C11.635 1.54223 10.5727 1.33162 9.50002 1.33301C8.42736 1.33165 7.365 1.54227 6.37399 1.95277C5.38299 2.36327 4.48287 2.96556 3.72537 3.72503C2.9659 4.48253 2.3636 5.38265 1.9531 6.37366C1.5426 7.36466 1.33198 8.42702 1.33335 9.49968C1.33196 10.5723 1.54257 11.6347 1.95307 12.6257C2.36357 13.6167 2.96588 14.5168 3.72537 15.2743C4.48287 16.0338 5.38299 16.6361 6.37399 17.0466C7.365 17.4571 8.42736 17.6677 9.50002 17.6663Z" stroke="#F1AA40" stroke-width="1.5" stroke-linejoin="round"/>
    <path fill-rule="evenodd" clip-rule="evenodd" d="M9.49956 14.1667C9.65427 14.1667 9.80265 14.1052 9.91204 13.9958C10.0214 13.8864 10.0829 13.738 10.0829 13.5833C10.0829 13.4286 10.0214 13.2802 9.91204 13.1709C9.80265 13.0615 9.65427 13 9.49956 13C9.34485 13 9.19648 13.0615 9.08708 13.1709C8.97769 13.2802 8.91623 13.4286 8.91623 13.5833C8.91623 13.738 8.97769 13.8864 9.08708 13.9958C9.19648 14.1052 9.34485 14.1667 9.49956 14.1667Z" fill="#F1AA40"/>
    <path d="M9.49954 5.2998L9.49954 9.4998" stroke="#F1AA40" stroke-width="1.5" stroke-linecap="round" stroke-linejoin="round"/>
</svg>
