<svg width="16" height="20" viewBox="0 0 16 20" fill="none" xmlns="http://www.w3.org/2000/svg">
<path fill-rule="evenodd" clip-rule="evenodd" d="M14 14.5V8.5C14 5.43 12.37 2.86 9.5 2.18V1.5C9.5 0.67 8.83 0 8 0C7.17 0 6.5 0.67 6.5 1.5V2.18C3.64 2.86 2 5.42 2 8.5V14.5H1C0.447715 14.5 0 14.9477 0 15.5C0 16.0523 0.447715 16.5 1 16.5H15C15.5523 16.5 16 16.0523 16 15.5C16 14.9477 15.5523 14.5 15 14.5H14ZM4 14.5H12V8.5C12 6.02 10.49 4 8 4C5.51 4 4 6.02 4 8.5V14.5Z" fill="white" fill-opacity="0.8"/>
<path fill-rule="evenodd" clip-rule="evenodd" d="M10 17.5C10 18.6 9.1 19.5 8 19.5C6.9 19.5 6 18.6 6 17.5H10Z" fill="white" fill-opacity="0.8"/>
</svg>
