<svg width="61" height="28" viewBox="0 0 61 28" fill="none" xmlns="http://www.w3.org/2000/svg">
<rect x="0.979736" y="0.638184" width="59.1342" height="26.6684" rx="13.3342" fill="white"/>
<path d="M13.545 18.9722V8.85295H17.4187C18.15 8.85295 18.7577 8.96824 19.242 9.19882C19.7295 9.42611 20.0935 9.73739 20.3339 10.1327C20.5777 10.528 20.6996 10.9759 20.6996 11.4766C20.6996 11.8884 20.6205 12.2408 20.4624 12.534C20.3043 12.8239 20.0918 13.0594 19.825 13.2406C19.5582 13.4218 19.2601 13.5519 18.9307 13.6309V13.7297C19.2897 13.7495 19.634 13.8599 19.9634 14.0608C20.296 14.2584 20.5678 14.5384 20.7786 14.9008C20.9894 15.2631 21.0948 15.7012 21.0948 16.2151C21.0948 16.7388 20.968 17.2099 20.7144 17.6282C20.4607 18.0433 20.0786 18.371 19.5681 18.6115C19.0575 18.8519 18.4152 18.9722 17.6411 18.9722H13.545ZM15.3781 17.4405H17.3496C18.0149 17.4405 18.4942 17.3136 18.7874 17.06C19.0838 16.8031 19.2321 16.4737 19.2321 16.0718C19.2321 15.772 19.158 15.5019 19.0097 15.2615C18.8615 15.0177 18.6507 14.8266 18.3773 14.6883C18.1039 14.5467 17.7778 14.4758 17.399 14.4758H15.3781V17.4405ZM15.3781 13.1566H17.1914C17.5077 13.1566 17.7926 13.0989 18.0462 12.9836C18.2999 12.8651 18.4992 12.6987 18.6441 12.4846C18.7923 12.2672 18.8664 12.0103 18.8664 11.7138C18.8664 11.3218 18.7281 10.999 18.4514 10.7454C18.178 10.4917 17.7712 10.3649 17.231 10.3649H15.3781V13.1566ZM22.6896 18.9722V8.85295H29.271V10.3896H24.5227V13.1368H28.9301V14.6735H24.5227V17.4355H29.3105V18.9722H22.6896ZM30.6965 10.3896V8.85295H38.7701V10.3896H35.6425V18.9722H33.8242V10.3896H30.6965ZM40.4031 18.9722H38.4465L42.009 8.85295H44.272L47.8394 18.9722H45.8827L43.18 10.9282H43.1009L40.4031 18.9722ZM40.4674 15.0045H45.8037V16.477H40.4674V15.0045Z" fill="#03101C"/>
</svg>
