<svg width="11" height="7" viewBox="0 0 11 7" xmlns="http://www.w3.org/2000/svg">
<path d="M10.0197 0.287835C9.83646 0.103478 9.5886 0 9.33025 0C9.07189 0 8.82403 0.103478 8.64081 0.287835L5.13003 3.79183L1.66815 0.287835C1.48493 0.103478 1.23707 0 0.978712 0C0.720357 0 0.472498 0.103478 0.28927 0.287835C0.19761 0.379853 0.124858 0.489329 0.0752095 0.609949C0.0255612 0.730569 0 0.859945 0 0.990614C0 1.12128 0.0255612 1.25066 0.0752095 1.37128C0.124858 1.4919 0.19761 1.60138 0.28927 1.69339L4.4357 5.89027C4.52661 5.98305 4.63477 6.05668 4.75394 6.10694C4.87311 6.15719 5.00093 6.18306 5.13003 6.18306C5.25913 6.18306 5.38695 6.15719 5.50612 6.10694C5.62529 6.05668 5.73345 5.98305 5.82436 5.89027L10.0197 1.69339C10.1113 1.60138 10.1841 1.4919 10.2337 1.37128C10.2834 1.25066 10.309 1.12128 10.309 0.990614C10.309 0.859945 10.2834 0.730569 10.2337 0.609949C10.1841 0.489329 10.1113 0.379853 10.0197 0.287835Z" />
</svg>
