<svg width="188" height="188" viewBox="0 0 188 188" fill="none" xmlns="http://www.w3.org/2000/svg">
<mask id="path-1-inside-1_2041_12414" fill="white">
<path d="M187.995 93.0244C188.178 110.683 183.384 128.036 174.16 143.095C164.937 158.155 151.658 170.311 135.845 178.172L124.128 154.604C135.514 148.944 145.075 140.191 151.715 129.349C158.356 118.506 161.808 106.012 161.676 93.2976L187.995 93.0244Z"/>
</mask>
<path d="M187.995 93.0244C188.178 110.683 183.384 128.036 174.16 143.095C164.937 158.155 151.658 170.311 135.845 178.172L124.128 154.604C135.514 148.944 145.075 140.191 151.715 129.349C158.356 118.506 161.808 106.012 161.676 93.2976L187.995 93.0244Z" stroke="#FF449F" stroke-width="82.5342" mask="url(#path-1-inside-1_2041_12414)"/>
<mask id="path-2-inside-2_2041_12414" fill="white">
<path d="M137.619 177.267C122.297 185.293 105.057 188.936 87.7975 187.795C70.538 186.654 53.9281 180.772 39.7963 170.798L54.9733 149.295C65.1482 156.476 77.1074 160.711 89.5342 161.533C101.961 162.354 114.374 159.731 125.406 153.952L137.619 177.267Z"/>
</mask>
<path d="M137.619 177.267C122.297 185.293 105.057 188.936 87.7975 187.795C70.538 186.654 53.9281 180.772 39.7963 170.798L54.9733 149.295C65.1482 156.476 77.1074 160.711 89.5342 161.533C101.961 162.354 114.374 159.731 125.406 153.952L137.619 177.267Z" stroke="#FFF5B7" stroke-width="82.5342" mask="url(#path-2-inside-2_2041_12414)"/>
<mask id="path-3-inside-3_2041_12414" fill="white">
<path d="M39.6002 170.659C27.0979 161.787 16.9553 149.992 10.0563 136.302C3.15734 122.612 -0.288573 107.442 0.0189095 92.1146L26.3336 92.6425C26.1122 103.678 28.5933 114.6 33.5605 124.457C38.5278 134.314 45.8305 142.807 54.8321 149.195L39.6002 170.659Z"/>
</mask>
<path d="M39.6002 170.659C27.0979 161.787 16.9553 149.992 10.0563 136.302C3.15734 122.612 -0.288573 107.442 0.0189095 92.1146L26.3336 92.6425C26.1122 103.678 28.5933 114.6 33.5605 124.457C38.5278 134.314 45.8305 142.807 54.8321 149.195L39.6002 170.659Z" stroke="#00EAD3" stroke-width="82.5342" mask="url(#path-3-inside-3_2041_12414)"/>
<mask id="path-4-inside-4_2041_12414" fill="white">
<path d="M0 94C1.51881e-06 76.6269 4.81465 59.5936 13.9094 44.7913C23.0042 29.9889 36.0233 17.9966 51.5212 10.1456L63.4153 33.6249C52.2567 39.2775 42.883 47.912 36.3348 58.5697C29.7865 69.2274 26.32 81.4914 26.32 94H0Z"/>
</mask>
<path d="M0 94C1.51881e-06 76.6269 4.81465 59.5936 13.9094 44.7913C23.0042 29.9889 36.0233 17.9966 51.5212 10.1456L63.4153 33.6249C52.2567 39.2775 42.883 47.912 36.3348 58.5697C29.7865 69.2274 26.32 81.4914 26.32 94H0Z" stroke="#5800FF" stroke-width="82.5342" mask="url(#path-4-inside-4_2041_12414)"/>
<mask id="path-5-inside-5_2041_12414" fill="white">
<path d="M50.883 10.472C66.2776 2.52536 83.5688 -1.01228 100.847 0.249734C118.126 1.51175 134.72 7.52433 148.796 17.6236L133.453 39.009C123.318 31.7375 111.371 27.4085 98.9302 26.4998C86.4896 25.5912 74.0398 28.1383 62.9557 33.8599L50.883 10.472Z"/>
</mask>
<path d="M50.883 10.472C66.2776 2.52536 83.5688 -1.01228 100.847 0.249734C118.126 1.51175 134.72 7.52433 148.796 17.6236L133.453 39.009C123.318 31.7375 111.371 27.4085 98.9302 26.4998C86.4896 25.5912 74.0398 28.1383 62.9557 33.8599L50.883 10.472Z" stroke="#920BD2" stroke-width="82.5342" mask="url(#path-5-inside-5_2041_12414)"/>
<mask id="path-6-inside-6_2041_12414" fill="white">
<path d="M148.643 17.5134C161.375 26.6096 171.635 38.7404 178.493 52.8056L154.835 64.34C149.897 54.2131 142.51 45.4789 133.343 38.9297L148.643 17.5134Z"/>
</mask>
<path d="M148.643 17.5134C161.375 26.6096 171.635 38.7404 178.493 52.8056L154.835 64.34C149.897 54.2131 142.51 45.4789 133.343 38.9297L148.643 17.5134Z" stroke="#F55353" stroke-width="82.5342" mask="url(#path-6-inside-6_2041_12414)"/>
<mask id="path-7-inside-7_2041_12414" fill="white">
<path d="M178.427 52.672C184.654 65.3924 187.926 79.3555 187.999 93.518L161.679 93.653C161.627 83.4559 159.271 73.4026 154.788 64.2438L178.427 52.672Z"/>
</mask>
<path d="M178.427 52.672C184.654 65.3924 187.926 79.3555 187.999 93.518L161.679 93.653C161.627 83.4559 159.271 73.4026 154.788 64.2438L178.427 52.672Z" stroke="#F58B5F" stroke-width="82.5342" mask="url(#path-7-inside-7_2041_12414)"/>
</svg>
