<svg width="104" height="32" viewBox="0 0 104 32" fill="none" xmlns="http://www.w3.org/2000/svg">
<path d="M3 18.8048L4.88126 15.9982L7.67224 17.869" stroke="#00A3FF" stroke-width="1.5" stroke-linecap="round" stroke-linejoin="round"/>
<path d="M21.0004 13.1914L19.1191 15.9981L16.3281 14.1272" stroke="#00A3FF" stroke-width="1.5" stroke-linecap="round" stroke-linejoin="round"/>
<path d="M4.91211 16.1523C4.9922 19.9984 8.13576 23.0924 12.001 23.0924C14.422 23.0924 16.5601 21.8788 17.8389 20.0272" stroke="#00A3FF" stroke-width="1.5" stroke-linecap="round" stroke-linejoin="round"/>
<path d="M19.0889 15.8463C19.0088 12.0002 15.8653 8.90625 12 8.90625C9.57902 8.90625 7.44095 10.1198 6.16211 11.9715" stroke="#00A3FF" stroke-width="1.5" stroke-linecap="round" stroke-linejoin="round"/>
<path d="M32.76 9.1V17.96C32.76 19.0133 33.0333 19.8067 33.58 20.34C34.14 20.8733 34.9133 21.14 35.9 21.14C36.9 21.14 37.6733 20.8733 38.22 20.34C38.78 19.8067 39.06 19.0133 39.06 17.96V9.1H41.34V17.92C41.34 19.0533 41.0933 20.0133 40.6 20.8C40.1067 21.5867 39.4467 22.1733 38.62 22.56C37.7933 22.9467 36.88 23.14 35.88 23.14C34.88 23.14 33.9667 22.9467 33.14 22.56C32.3267 22.1733 31.68 21.5867 31.2 20.8C30.72 20.0133 30.48 19.0533 30.48 17.92V9.1H32.76ZM46.5886 13.6C46.9753 13.0933 47.5019 12.6667 48.1686 12.32C48.8353 11.9733 49.5886 11.8 50.4286 11.8C51.3886 11.8 52.2619 12.04 53.0486 12.52C53.8486 12.9867 54.4753 13.6467 54.9286 14.5C55.3819 15.3533 55.6086 16.3333 55.6086 17.44C55.6086 18.5467 55.3819 19.54 54.9286 20.42C54.4753 21.2867 53.8486 21.9667 53.0486 22.46C52.2619 22.94 51.3886 23.18 50.4286 23.18C49.5886 23.18 48.8419 23.0133 48.1886 22.68C47.5353 22.3333 47.0019 21.9067 46.5886 21.4V28.24H44.3086V11.98H46.5886V13.6ZM53.2886 17.44C53.2886 16.68 53.1286 16.0267 52.8086 15.48C52.5019 14.92 52.0886 14.5 51.5686 14.22C51.0619 13.9267 50.5153 13.78 49.9286 13.78C49.3553 13.78 48.8086 13.9267 48.2886 14.22C47.7819 14.5133 47.3686 14.94 47.0486 15.5C46.7419 16.06 46.5886 16.72 46.5886 17.48C46.5886 18.24 46.7419 18.9067 47.0486 19.48C47.3686 20.04 47.7819 20.4667 48.2886 20.76C48.8086 21.0533 49.3553 21.2 49.9286 21.2C50.5153 21.2 51.0619 21.0533 51.5686 20.76C52.0886 20.4533 52.5019 20.0133 52.8086 19.44C53.1286 18.8667 53.2886 18.2 53.2886 17.44ZM57.1033 17.44C57.1033 16.3333 57.3299 15.3533 57.7833 14.5C58.2499 13.6467 58.8766 12.9867 59.6633 12.52C60.4633 12.04 61.3499 11.8 62.3233 11.8C63.0433 11.8 63.7499 11.96 64.4433 12.28C65.1499 12.5867 65.7099 13 66.1233 13.52V8.2H68.4233V23H66.1233V21.34C65.7499 21.8733 65.2299 22.3133 64.5633 22.66C63.9099 23.0067 63.1566 23.18 62.3033 23.18C61.3433 23.18 60.4633 22.94 59.6633 22.46C58.8766 21.9667 58.2499 21.2867 57.7833 20.42C57.3299 19.54 57.1033 18.5467 57.1033 17.44ZM66.1233 17.48C66.1233 16.72 65.9633 16.06 65.6433 15.5C65.3366 14.94 64.9299 14.5133 64.4233 14.22C63.9166 13.9267 63.3699 13.78 62.7833 13.78C62.1966 13.78 61.6499 13.9267 61.1433 14.22C60.6366 14.5 60.2233 14.92 59.9033 15.48C59.5966 16.0267 59.4433 16.68 59.4433 17.44C59.4433 18.2 59.5966 18.8667 59.9033 19.44C60.2233 20.0133 60.6366 20.4533 61.1433 20.76C61.6633 21.0533 62.2099 21.2 62.7833 21.2C63.3699 21.2 63.9166 21.0533 64.4233 20.76C64.9299 20.4667 65.3366 20.04 65.6433 19.48C65.9633 18.9067 66.1233 18.24 66.1233 17.48ZM70.658 17.44C70.658 16.3333 70.8846 15.3533 71.338 14.5C71.8046 13.6467 72.4313 12.9867 73.218 12.52C74.018 12.04 74.898 11.8 75.858 11.8C76.7246 11.8 77.478 11.9733 78.118 12.32C78.7713 12.6533 79.2913 13.0733 79.678 13.58V11.98H81.978V23H79.678V21.36C79.2913 21.88 78.7646 22.3133 78.098 22.66C77.4313 23.0067 76.6713 23.18 75.818 23.18C74.8713 23.18 74.0046 22.94 73.218 22.46C72.4313 21.9667 71.8046 21.2867 71.338 20.42C70.8846 19.54 70.658 18.5467 70.658 17.44ZM79.678 17.48C79.678 16.72 79.518 16.06 79.198 15.5C78.8913 14.94 78.4846 14.5133 77.978 14.22C77.4713 13.9267 76.9246 13.78 76.338 13.78C75.7513 13.78 75.2046 13.9267 74.698 14.22C74.1913 14.5 73.778 14.92 73.458 15.48C73.1513 16.0267 72.998 16.68 72.998 17.44C72.998 18.2 73.1513 18.8667 73.458 19.44C73.778 20.0133 74.1913 20.4533 74.698 20.76C75.218 21.0533 75.7646 21.2 76.338 21.2C76.9246 21.2 77.4713 21.0533 77.978 20.76C78.4846 20.4667 78.8913 20.04 79.198 19.48C79.518 18.9067 79.678 18.24 79.678 17.48ZM87.6327 13.84V19.94C87.6327 20.3533 87.726 20.6533 87.9127 20.84C88.1127 21.0133 88.446 21.1 88.9127 21.1H90.3127V23H88.5127C87.486 23 86.6993 22.76 86.1527 22.28C85.606 21.8 85.3327 21.02 85.3327 19.94V13.84H84.0327V11.98H85.3327V9.24H87.6327V11.98H90.3127V13.84H87.6327ZM102.514 17.22C102.514 17.6333 102.487 18.0067 102.434 18.34H94.0141C94.0807 19.22 94.4074 19.9267 94.9941 20.46C95.5807 20.9933 96.3007 21.26 97.1541 21.26C98.3807 21.26 99.2474 20.7467 99.7541 19.72H102.214C101.881 20.7333 101.274 21.5667 100.394 22.22C99.5274 22.86 98.4474 23.18 97.1541 23.18C96.1007 23.18 95.1541 22.9467 94.3141 22.48C93.4874 22 92.8341 21.3333 92.3541 20.48C91.8874 19.6133 91.6541 18.6133 91.6541 17.48C91.6541 16.3467 91.8807 15.3533 92.3341 14.5C92.8007 13.6333 93.4474 12.9667 94.2741 12.5C95.1141 12.0333 96.0741 11.8 97.1541 11.8C98.1941 11.8 99.1207 12.0267 99.9341 12.48C100.747 12.9333 101.381 13.5733 101.834 14.4C102.287 15.2133 102.514 16.1533 102.514 17.22ZM100.134 16.5C100.121 15.66 99.8207 14.9867 99.2341 14.48C98.6474 13.9733 97.9207 13.72 97.0541 13.72C96.2674 13.72 95.5941 13.9733 95.0341 14.48C94.4741 14.9733 94.1407 15.6467 94.0341 16.5H100.134Z" fill="#00A3FF"/>
</svg>
