<svg width="121" height="137" viewBox="0 0 121 137" fill="none" xmlns="http://www.w3.org/2000/svg">
<path d="M5.69597 36.6236C7.19681 36.1368 8.01923 34.5285 7.53115 33.0301C7.04307 31.533 5.43119 30.7142 3.93035 31.2011C2.42829 31.6867 1.6071 33.2961 2.09518 34.7933C2.58326 36.2905 4.19513 37.1093 5.69597 36.6236Z" fill="#2A2E38"/>
<path d="M11.9346 27.3209C12.9546 26.9902 13.5135 25.8969 13.1816 24.878C12.8497 23.8604 11.754 23.3028 10.7327 23.6334C9.71258 23.9653 9.15373 25.0586 9.48562 26.0763C9.81752 27.0951 10.9133 27.6515 11.9346 27.3209Z" fill="#2A2E38"/>
<path d="M105.575 37.0056C107.345 35.3913 107.468 32.6507 105.85 30.8839C104.232 29.117 101.485 28.9938 99.7141 30.6081C97.9424 32.2224 97.8191 34.963 99.4371 36.7298C101.056 38.4967 103.803 38.6199 105.575 37.0056Z" fill="#2A2E38"/>
<path d="M119.449 29.1049C120.196 28.4252 120.247 27.2709 119.566 26.5266C118.884 25.7835 117.727 25.731 116.982 26.4107C116.236 27.0903 116.184 28.2446 116.866 28.9889C117.547 29.732 118.703 29.7845 119.449 29.1049Z" fill="#2A2E38"/>
<path d="M10.7498 130.486C11.4953 129.806 11.5478 128.652 10.8657 127.909C10.1848 127.165 9.0281 127.112 8.28256 127.793C7.5358 128.473 7.48455 129.627 8.16542 130.37C8.84751 131.114 10.0043 131.166 10.7498 130.486Z" fill="#2A2E38"/>
<path d="M56.8123 136.423C88.1896 136.423 113.625 111.048 113.625 79.7466C113.625 48.4462 88.1896 23.071 56.8123 23.071C25.4362 23.071 0 48.4462 0 79.7466C0 111.048 25.4362 136.423 56.8123 136.423Z" fill="#2A2E38"/>
<path d="M98.5355 49.0708V53.8601H98.1926H93.5059L22.4051 53.5185C21.0336 53.5185 19.6609 53.2903 18.4041 52.9486C18.2894 52.9486 18.1759 52.8339 18.0612 52.8339C16.3468 52.2641 14.8606 51.4661 13.7173 50.3252C12.6887 49.299 12.0029 47.9312 12.0029 46.5621C12.0029 44.0534 14.0602 42.001 17.0326 40.8602C18.0612 40.4038 19.2045 40.1756 20.4613 40.0621C20.9189 40.0621 21.4899 39.9487 21.9475 39.9487H89.3914C90.0771 39.9487 90.7629 40.0621 91.3339 40.1756C91.7915 40.2903 92.3638 40.4038 92.8201 40.632C96.2501 42.001 98.5355 45.1943 98.5355 49.0708Z" fill="#313840"/>
<path opacity="0.4" d="M98.1929 53.8601H93.5061L22.4053 53.5184C21.0338 53.5184 19.6611 53.2903 18.4043 52.9486C18.2896 52.9486 18.1761 52.8339 18.0614 52.8339C16.3471 52.2641 14.8609 51.4661 13.7175 50.3252C14.518 49.4137 15.6613 48.7292 17.0328 48.2728C18.0614 47.8165 19.2047 47.5883 20.4615 47.4748C20.9191 47.3601 21.4902 47.3601 21.9477 47.3601H89.3916C90.0774 47.3601 90.7631 47.4748 91.3342 47.5883C91.7917 47.703 92.364 47.8165 92.8204 48.0446C95.4499 49.0708 97.3937 51.2379 98.1929 53.8601Z" fill="#020305"/>
<path d="M59.0183 26.0034C59.0183 26.0034 39.7834 25.2876 32 44.7313C39.7834 64.1749 59.0183 63.4592 59.0183 63.4592C59.0183 63.4592 78.2532 64.1749 86.0366 44.7313C78.2532 25.2876 59.0183 26.0034 59.0183 26.0034Z" fill="#93FFD8"/>
<path d="M73.8539 40.1661C72.9243 39.1494 71.9947 38.1472 70.8909 37.3483C70.368 36.9126 69.787 36.564 69.2205 36.2009C68.93 36.0266 68.625 35.8814 68.3345 35.7071C68.044 35.5328 67.739 35.402 67.434 35.2568C66.2139 34.6903 64.9212 34.2546 63.614 33.9641C63.28 33.8915 62.9604 33.8334 62.6263 33.7608C62.2923 33.7172 61.9582 33.6591 61.6241 33.6155C60.9705 33.5429 60.2734 33.4848 59.6488 33.4993H59.6343H59.6052C58.7773 33.4993 57.8768 33.5865 57.0198 33.7317C56.1629 33.8624 55.3059 34.0658 54.4635 34.3272C52.7932 34.8501 51.1809 35.5763 49.7285 36.535C48.2615 37.4936 46.9397 38.6846 45.8068 40.0499C44.6884 41.4152 43.7443 42.9403 42.96 44.5671C43.5264 42.8532 44.3398 41.2264 45.3856 39.7304C46.4459 38.2489 47.7531 36.9417 49.2491 35.8668C50.7597 34.8065 52.4155 33.9641 54.173 33.4267C55.9305 32.8747 57.7315 32.5407 59.6197 32.5552H59.5907C61.0432 32.5552 62.423 32.7731 63.7883 33.1217C65.1536 33.4557 66.4754 33.9786 67.71 34.6322C68.0295 34.792 68.3345 34.9518 68.625 35.1406C68.9155 35.3294 69.2205 35.5037 69.511 35.7071C70.063 36.1283 70.644 36.5204 71.1378 37.0143C72.2126 37.9293 73.0696 39.0332 73.8539 40.1661Z" fill="#020204"/>
<path d="M45.5732 49.2171C46.5028 50.2048 47.4324 51.1634 48.5217 51.9332C49.0446 52.3544 49.6256 52.6885 50.1776 53.0371C50.7585 53.3421 51.3395 53.6762 51.9496 53.9376C53.1551 54.4895 54.4188 54.8962 55.7114 55.1867C56.031 55.2594 56.3651 55.3175 56.6846 55.3756C57.0041 55.4191 57.3382 55.4772 57.6578 55.5063C58.3114 55.5789 58.9795 55.637 59.6041 55.6225H59.6331C60.461 55.6225 61.3615 55.5353 62.2185 55.3901C63.0755 55.2594 63.9324 55.056 64.7748 54.7946C66.4452 54.2717 68.0574 53.5454 69.5099 52.5868C70.9769 51.6282 72.2986 50.4372 73.4315 49.0719C74.5499 47.7065 75.494 46.1814 76.2784 44.5547C75.7264 46.2686 74.8985 47.8954 73.8527 49.3914C72.7924 50.8729 71.4852 52.1801 69.9892 53.255C68.4786 54.3153 66.8228 55.1432 65.0653 55.6951C63.3078 56.247 61.5068 56.5811 59.6186 56.5666H59.6476C58.2242 56.5666 56.8734 56.3487 55.5226 56.0146C54.1864 55.6806 52.8937 55.1867 51.6736 54.5622C51.3686 54.4169 51.0636 54.2572 50.7731 54.0683C50.4826 53.8795 50.1921 53.7197 49.9016 53.5164C49.3497 53.1097 48.7832 52.7321 48.2894 52.2528C47.2145 51.3813 46.3576 50.3064 45.5732 49.2171Z" fill="#020204"/>
<path d="M52.4881 36.2621L51.1519 33.4589C55.3204 31.469 59.0823 31.469 59.6197 31.4835C60.1426 31.469 63.919 31.469 68.0876 33.4589L66.7513 36.2621C63.0766 34.5046 59.7069 34.5773 59.6778 34.5918H59.6197H59.5616C59.5326 34.5918 56.1629 34.5046 52.4881 36.2621Z" fill="#020204"/>
<path d="M59.4593 57.6558C58.5443 57.6558 54.9567 57.5251 51.0496 55.6223L52.4004 52.8336C56.1041 54.6347 59.532 54.5475 59.561 54.5475H59.6191H59.6772C59.7063 54.5475 63.076 54.6347 66.7507 52.8772L68.087 55.6804C63.9184 57.6703 60.1565 57.6703 59.6191 57.6558C59.5755 57.6558 59.532 57.6558 59.4593 57.6558Z" fill="#020204"/>
<path d="M59.6198 51.5432C55.7708 51.5432 52.6479 48.4204 52.6479 44.5714C52.6479 40.7223 55.7708 37.5995 59.6198 37.5995C63.4688 37.5995 66.5916 40.7223 66.5916 44.5714C66.5916 48.4204 63.4688 51.5432 59.6198 51.5432ZM59.6198 40.6933C57.4847 40.6933 55.7417 42.4363 55.7417 44.5714C55.7417 46.7065 57.4847 48.4495 59.6198 48.4495C61.7549 48.4495 63.4979 46.7065 63.4979 44.5714C63.4979 42.4363 61.7549 40.6933 59.6198 40.6933Z" fill="#020204"/>
<path d="M107.224 61.2728V121.143C107.224 125.248 103.908 128.554 99.794 128.554H27.8928C21.948 128.554 17.2612 125.704 14.4035 123.423C13.032 122.283 12.2315 120.572 12.2315 118.861C12.2315 118.063 12.2315 117.15 12.2315 116.239C12.2315 114.985 12.2315 113.616 12.2315 112.133C12.2315 105.291 12.2315 96.1679 12.1168 86.8176C12.1168 85.4485 12.1168 84.0807 12.1168 82.7116C12.1168 77.8089 12.1168 72.9049 12.0034 68.3426C12.0034 66.9748 12.0034 65.6069 12.0034 64.2379C12.0034 55.1145 11.8887 48.2728 11.8887 46.6756C11.8887 49.4125 14.4035 51.8077 17.8322 52.8339C17.9469 52.8339 18.0616 52.9486 18.1763 52.9486C19.4331 53.2903 20.8046 53.5185 22.1761 53.5185L93.2781 53.8601H98.4225H99.6793C103.908 53.8601 107.224 57.1681 107.224 61.2728Z" fill="#555C6F"/>
<path d="M92.8205 81.6855C90.3056 81.6855 88.0202 82.7117 86.4193 84.3089C84.8196 85.9049 83.7898 88.1855 83.7898 90.6942C83.7898 90.8089 83.7898 91.0371 83.7898 91.1505C84.0192 95.9398 88.0202 99.7029 92.8205 99.7029H107.224V81.6855H92.8205Z" fill="#313840"/>
<path d="M107.224 78.264V80.4311C107.11 80.4311 106.995 80.4311 106.766 80.4311H92.1347C89.6198 80.4311 87.3332 81.4573 85.7335 83.0545C84.2473 84.5371 83.2187 86.7029 83.104 88.9835C83.104 89.0982 83.104 89.3263 83.104 89.4398C83.104 94.4573 87.105 98.4485 92.1347 98.4485H106.766C107.453 98.4485 108.139 98.2216 108.367 97.8787C108.482 97.7652 108.595 97.537 108.595 97.4223V79.2914C108.595 78.7204 108.024 78.3787 107.224 78.264Z" fill="#38414D"/>
<path d="M91.4487 94.8002C94.4162 94.8002 96.8212 92.4 96.8212 89.4398C96.8212 86.4797 94.4162 84.0807 91.4487 84.0807C88.4812 84.0807 86.0762 86.4797 86.0762 89.4398C86.0762 92.4 88.4812 94.8002 91.4487 94.8002Z" fill="#CED7E2"/>
<path d="M51.5434 14.0885L48 6.78925" stroke="#93FFD8" stroke-width="2.44039" stroke-linecap="round" stroke-linejoin="round"/>
<path d="M59.7737 11.5797V6.78925" stroke="#93FFD8" stroke-width="2.44039" stroke-linecap="round" stroke-linejoin="round"/>
<path d="M68.2334 13.6321L72.3491 2" stroke="#93FFD8" stroke-width="2.44039" stroke-linecap="round" stroke-linejoin="round"/>
<path fill-rule="evenodd" clip-rule="evenodd" d="M62.757 119.318C62.9851 119.432 63.2133 119.546 63.5574 119.546H106.652V116.581H64.0138L56.6987 111.222L56.8122 110.765C57.1551 110.195 57.2698 109.396 57.2698 108.713C57.2698 105.633 54.7549 103.124 51.6691 103.124C48.582 103.124 46.0671 105.633 46.0671 108.713C46.0671 111.791 48.582 114.3 51.6691 114.3C52.583 114.3 53.4969 114.072 54.2974 113.616L54.6402 113.502L62.757 119.318ZM48.9244 108.713C48.9244 107.23 50.0677 106.089 51.5539 106.089C53.0401 106.089 54.1834 107.23 54.1834 108.713C54.1834 109.396 53.8405 109.967 53.383 110.537C52.9254 111.107 52.2396 111.335 51.5539 111.335C50.0677 111.335 48.9244 110.195 48.9244 108.713Z" fill="#38414D"/>
<path fill-rule="evenodd" clip-rule="evenodd" d="M12.9172 112.589V115.554V115.669H20.9193C21.2622 115.669 21.7197 115.441 21.9479 115.213L42.9816 94.8002H58.9845L59.0992 95.1418C59.8996 97.4224 61.9569 98.9049 64.357 98.9049C67.4441 98.9049 69.9589 96.3962 69.9589 93.3176C69.9589 90.2391 67.4441 87.7303 64.357 87.7303C62.0716 87.7303 60.0131 89.2117 59.2139 91.3787L59.0992 91.7216H42.5241C42.1812 91.7216 41.7236 91.9486 41.4954 92.1767L20.4617 112.589H12.9172ZM61.8424 93.3176C61.8424 91.8351 62.9857 90.6942 64.4719 90.6942C65.8434 90.6942 67.1014 91.9486 67.1014 93.3176C67.1014 94.8002 65.9581 95.9398 64.4719 95.9398C62.9857 95.9398 61.8424 94.8002 61.8424 93.3176Z" fill="#38414D"/>
<path fill-rule="evenodd" clip-rule="evenodd" d="M28.2352 68.1157C29.0345 70.3963 31.0929 71.8788 33.4931 71.8788C36.5789 71.8788 39.0937 69.3701 39.2084 66.405C39.2084 63.3265 36.6936 60.8177 33.6077 60.8177C31.2064 60.8177 29.1492 62.3003 28.3487 64.4661L28.2352 64.809H12.6887V67.7741H28.1205L28.2352 68.1157ZM30.8634 66.405C30.8634 64.9224 32.0068 63.7828 33.493 63.7828C34.9792 63.7828 36.1225 64.9224 36.1225 66.405C36.1225 67.8875 34.9792 69.0284 33.493 69.0284C32.0068 69.0284 30.8634 67.8875 30.8634 66.405Z" fill="#38414D"/>
<path fill-rule="evenodd" clip-rule="evenodd" d="M17.1464 86.4747C17.9469 88.7553 20.0054 90.2378 22.4055 90.2378C25.3779 90.2378 27.8927 87.8438 27.8927 84.764C27.8927 81.6855 25.4913 79.1768 22.4055 79.1768C20.1188 79.1768 18.0616 80.6593 17.2611 82.8264L17.1464 83.168H12.9172V86.1331H17.033L17.1464 86.4747ZM19.7762 84.764C19.7762 83.2815 20.9195 82.1418 22.4057 82.1418C23.7772 82.1418 24.9205 83.2815 25.0352 84.764C25.0352 86.2465 23.8919 87.3874 22.4057 87.3874C20.9195 87.3874 19.7762 86.2465 19.7762 84.764Z" fill="#38414D"/>
<path fill-rule="evenodd" clip-rule="evenodd" d="M50.7538 82.1418C47.6679 82.1418 45.1531 79.6331 45.1531 76.5545C45.1531 73.4747 47.6679 70.966 50.7538 70.966C51.8971 70.966 52.9257 71.3089 53.8409 71.8787L54.1837 72.1069L67.4436 62.5271C67.6718 62.299 68.0147 62.299 68.3575 62.299H89.1619V61.8426C90.077 59.7902 92.0196 58.5359 94.3062 58.5359C97.3933 58.5359 99.7934 61.0446 99.7934 64.0097C99.7934 67.0895 97.2786 69.5982 94.3062 69.5982C91.7914 69.5982 89.6194 68.0009 88.9337 65.6069L88.5908 65.264H68.7004L55.8981 74.5009L56.0116 74.8438C56.1263 75.3002 56.241 75.87 56.241 76.4398C56.241 79.6331 53.8409 82.1418 50.7538 82.1418ZM50.7538 73.9311C49.2676 73.9311 48.1242 75.072 48.1242 76.5545C48.1242 78.0371 49.2676 79.1767 50.7538 79.1767C52.24 79.1767 53.3833 78.0371 53.3833 76.5545C53.3833 75.1855 52.1253 73.9311 50.7538 73.9311ZM91.4484 64.1244C91.4484 62.6419 92.5917 61.501 94.0779 61.501C95.5641 61.501 96.7062 62.6419 96.7062 64.1244C96.7062 65.6069 95.5641 66.7466 94.0779 66.7466C92.5917 66.7466 91.4484 65.6069 91.4484 64.1244Z" fill="#38414D"/>
</svg>
