<svg width="240" height="191" viewBox="0 0 240 191" fill="none" xmlns="http://www.w3.org/2000/svg">
<path d="M30.3849 39C32.2674 38.3846 33.2974 36.3509 32.6856 34.4575C32.0737 32.5641 30.0517 31.5281 28.1692 32.1435C26.2868 32.7589 25.2567 34.7927 25.8686 36.6861C26.4804 38.5794 28.5025 39.6154 30.3849 39Z" fill="#2A2E37"/>
<path d="M38.2092 27.2387C39.4893 26.8202 40.1897 25.4373 39.7736 24.1498C39.3576 22.8623 37.9826 22.1578 36.7025 22.5763C35.4225 22.9947 34.722 24.3777 35.1381 25.6652C35.5542 26.9527 36.9291 27.6572 38.2092 27.2387Z" fill="#2A2E37"/>
<path d="M183.517 51.2088C185.738 49.1674 185.894 45.7014 183.864 43.4675C181.834 41.2336 178.388 41.0775 176.167 43.119C173.946 45.1605 173.791 48.6264 175.821 50.8603C177.85 53.0943 181.296 53.2503 183.517 51.2088Z" fill="#2A2E37"/>
<path d="M183.93 26.6458C184.865 25.7862 184.93 24.3269 184.076 23.3862C183.221 22.4456 181.77 22.3799 180.835 23.2395C179.9 24.0991 179.834 25.5584 180.689 26.499C181.544 27.4396 182.995 27.5053 183.93 26.6458Z" fill="#2A2E37"/>
<path d="M101.97 157.288C141.321 157.288 173.222 125.203 173.222 85.6232C173.222 46.0436 141.321 13.958 101.97 13.958C62.6184 13.958 30.7178 46.0436 30.7178 85.6232C30.7178 125.203 62.6184 157.288 101.97 157.288Z" fill="#2A2E37"/>
<path d="M63.9795 55.6305V63.4171V125.71C63.9795 128.593 66.2733 130.901 68.9972 130.901H169.352C172.22 130.901 174.37 128.593 174.37 125.71V63.4171V55.9189C174.37 52.8908 171.933 50.4395 168.922 50.4395H68.9972L63.9795 55.6305Z" fill="#3D4457"/>
<g filter="url(#filter0_d_970_4682)">
<path d="M35.5928 48.7086V57.9371V131.477C35.5928 134.793 38.3167 137.533 41.6141 137.533H160.176C163.474 137.533 166.198 134.793 166.198 131.477V57.9371V48.9969C166.198 45.3921 163.33 42.6523 159.89 42.6523H41.6141L35.5928 48.7086Z" fill="#474E61"/>
</g>
<path d="M127.347 55.0532H35.5938V48.7086C35.5938 45.3921 38.3177 42.6523 41.6151 42.6523H160.177C163.475 42.6523 166.199 45.3921 166.199 48.7086V55.0532H145.984H127.347Z" fill="url(#paint0_linear_970_4682)"/>
<path d="M43.3342 51.1595C44.4427 51.1595 45.3414 50.2557 45.3414 49.1408C45.3414 48.0259 44.4427 47.1221 43.3342 47.1221C42.2258 47.1221 41.3271 48.0259 41.3271 49.1408C41.3271 50.2557 42.2258 51.1595 43.3342 51.1595Z" fill="#12141C"/>
<path opacity="0.6" d="M49.0706 51.1595C50.1791 51.1595 51.0777 50.2557 51.0777 49.1408C51.0777 48.0259 50.1791 47.1221 49.0706 47.1221C47.9621 47.1221 47.0635 48.0259 47.0635 49.1408C47.0635 50.2557 47.9621 51.1595 49.0706 51.1595Z" fill="#12141C"/>
<path opacity="0.4" d="M54.9475 51.1595C56.056 51.1595 56.9546 50.2557 56.9546 49.1408C56.9546 48.0259 56.056 47.1221 54.9475 47.1221C53.839 47.1221 52.9404 48.0259 52.9404 49.1408C52.9404 50.2557 53.839 51.1595 54.9475 51.1595Z" fill="#12141C"/>
<path d="M95.3778 90.6742L72.0094 90.53C71.0059 90.53 70.2891 89.6649 70.2891 88.7997C70.2891 87.7903 71.1492 87.0693 72.0094 87.0693L95.3778 87.2135C96.3814 87.2135 97.0982 88.0787 97.0982 88.9439C97.0982 89.8091 96.3814 90.6742 95.3778 90.6742Z" fill="#242B37"/>
<path d="M150.857 90.6742L123.905 90.53C122.901 90.53 122.185 89.6649 122.185 88.7997C122.185 87.7903 123.045 87.0693 123.905 87.0693L150.714 87.2135C151.718 87.2135 152.434 88.0787 152.434 88.9439C152.578 89.8091 151.861 90.6742 150.857 90.6742Z" fill="#242B37"/>
<path d="M132.938 124.559L105.985 124.415C104.981 124.415 104.265 123.55 104.265 122.684C104.265 121.675 105.125 120.954 105.985 120.954L132.938 121.098C133.941 121.098 134.658 121.963 134.658 122.829C134.658 123.838 133.798 124.559 132.938 124.559Z" fill="#93FFD8"/>
<path d="M116.309 90.5297L103.262 90.3855C102.259 90.3855 101.542 89.5203 101.542 88.6552C101.542 87.6458 102.402 86.9248 103.262 86.9248L116.309 87.069C117.312 87.069 118.029 87.9342 118.029 88.7993C118.172 89.8087 117.312 90.5297 116.309 90.5297Z" fill="url(#paint1_linear_970_4682)"/>
<path d="M62.6891 90.3855H53.0837C52.0801 90.3855 51.3633 89.5203 51.3633 88.6552C51.3633 87.6458 52.0801 86.9248 53.0837 86.9248H62.6891C63.6926 86.9248 64.4094 87.79 64.4094 88.6552C64.4094 89.6645 63.6926 90.3855 62.6891 90.3855Z" fill="url(#paint2_linear_970_4682)"/>
<path d="M99.9644 101.921L85.9147 101.777C84.9112 101.777 84.1943 100.912 84.1943 100.047C84.1943 99.0374 85.0545 98.3164 85.9147 98.3164L99.9644 98.4606C100.968 98.4606 101.685 99.3258 101.685 100.191C101.828 101.056 100.968 101.921 99.9644 101.921Z" fill="#93FFD8"/>
<path d="M143.546 102.21L107.848 101.777C106.845 101.777 106.128 100.912 106.128 100.047C106.128 99.0374 106.988 98.3164 107.848 98.3164L143.546 98.749C144.55 98.749 145.266 99.6142 145.266 100.479C145.266 101.345 144.406 102.21 143.546 102.21Z" fill="#242B37"/>
<path d="M76.5954 101.777H53.0837C52.0801 101.777 51.3633 100.912 51.3633 100.047C51.3633 99.0374 52.2235 98.3164 53.0837 98.3164H76.5954C77.599 98.3164 78.3158 99.1816 78.3158 100.047C78.3158 100.912 77.599 101.777 76.5954 101.777Z" fill="#242B37"/>
<path d="M118.458 113.168L85.9147 113.024C84.9112 113.024 84.1943 112.159 84.1943 111.294C84.1943 110.284 85.0545 109.563 85.9147 109.563L118.602 109.708C119.605 109.708 120.322 110.573 120.322 111.438C120.322 112.447 119.462 113.168 118.458 113.168Z" fill="url(#paint3_linear_970_4682)"/>
<path d="M76.5954 113.024H53.0837C52.0801 113.024 51.3633 112.159 51.3633 111.294C51.3633 110.284 52.2235 109.563 53.0837 109.563H76.5954C77.599 109.563 78.3158 110.429 78.3158 111.294C78.3158 112.159 77.599 113.024 76.5954 113.024Z" fill="#242B37"/>
<path d="M96.9524 124.415L79.0319 124.271C78.0283 124.271 77.3115 123.406 77.3115 122.541C77.3115 121.532 78.1717 120.811 79.0319 120.811L96.9524 120.955C97.956 120.955 98.6728 121.82 98.6728 122.685C98.6728 123.694 97.956 124.415 96.9524 124.415Z" fill="#242B37"/>
<path d="M67.5635 124.271H53.0837C52.0801 124.271 51.3633 123.406 51.3633 122.541C51.3633 121.532 52.2235 120.811 53.0837 120.811H67.5635C68.567 120.811 69.2838 121.676 69.2838 122.541C69.4272 123.55 68.567 124.271 67.5635 124.271Z" fill="#93FFD8"/>
<path d="M119.031 73.2256L53.0837 72.9373C52.0801 72.9373 51.3633 72.0721 51.3633 71.2069C51.3633 70.1975 52.2235 69.4766 53.0837 69.4766L119.031 69.765C120.035 69.765 120.752 70.6301 120.752 71.4953C120.752 72.5047 120.035 73.2256 119.031 73.2256Z" fill="#242B37"/>
<path d="M11.8708 65.6088C12.1576 65.8972 12.3009 66.1856 12.3009 66.6182C10.8673 70.7998 10.4372 70.944 12.3009 71.665C12.4443 71.665 12.5877 71.9534 12.4443 72.0976C12.0142 73.2512 11.8708 74.1163 11.4407 73.9721C4.70262 71.5208 11.5841 66.9066 8.14336 65.6088C8 65.6088 8 65.4646 8 65.3204L8.71682 63.1575C8.71682 63.0133 8.86018 63.0133 9.00355 63.0133C10.7239 63.5901 10.8673 62.2923 11.4407 60.7061C12.1576 58.399 14.0213 57.678 16.1718 58.399C16.6019 58.5432 17.032 58.6874 16.8886 58.9758C16.1718 61.1387 16.3151 60.9945 15.4549 60.7061C13.3045 59.9852 13.8779 65.753 11.8708 65.6088Z" fill="#93FFD8"/>
<path d="M196.955 66.0404C196.811 66.0404 196.811 66.1846 196.955 66.0404C197.242 66.3288 197.385 66.6172 197.385 67.0498C195.951 71.2315 195.521 71.3757 197.385 72.0966C197.528 72.0966 197.672 72.385 197.528 72.5292C197.098 73.6828 196.955 74.548 196.525 74.4038C189.787 71.9525 196.668 67.3382 193.227 66.0404C193.084 66.0404 193.084 65.8962 193.084 65.752L193.801 63.5891C193.801 63.4449 193.944 63.4449 194.088 63.4449C195.808 64.0217 195.951 62.7239 196.525 61.1378C197.242 58.8307 199.105 58.1097 201.256 58.8307C201.686 58.9749 202.116 59.119 201.973 59.4074C201.256 61.5704 201.399 61.4262 200.539 61.1378C198.245 60.561 198.962 66.1846 196.955 66.0404Z" fill="url(#paint4_linear_970_4682)"/>
<path d="M113.23 3.74908C113.087 3.60489 113.087 3.60489 113.23 3.74908C112.943 4.03748 112.657 4.32587 112.37 4.32587C108.069 3.60489 107.782 3.1723 107.352 5.04685C107.352 5.19104 107.209 5.33524 106.922 5.33524C105.632 5.04685 104.915 5.19104 104.915 4.61426C106.205 -2.59552 111.94 3.60489 112.513 0.144195C112.513 -8.27243e-07 112.657 0 112.8 0L114.951 0.432586C115.094 0.432586 115.094 0.576782 115.094 0.720978C114.807 2.45133 115.954 2.45132 117.818 2.73972C120.112 3.1723 121.259 4.75845 120.828 7.06558C120.685 7.49817 120.685 7.93076 120.398 7.93076C118.248 7.49817 118.248 7.78656 118.535 6.77719C118.821 4.18167 113.23 5.76782 113.23 3.74908Z" fill="url(#paint5_linear_970_4682)"/>
<path d="M69.4277 13.6686C68.4241 14.678 68.2808 16.4083 69.2843 17.4177C69.8578 18.1387 70.8613 18.4271 71.8649 18.1387C72.295 18.7155 72.295 19.4364 72.0082 20.0132L70.4312 22.3203C70.2879 22.4645 70.1445 22.7529 70.1445 22.8971L68.5675 21.1668C68.9976 19.7248 68.2808 18.2829 66.8471 17.8503C65.4135 17.4177 63.9798 18.1387 63.5497 19.5806C63.1196 21.0226 63.8365 22.4645 65.2701 22.8971C65.7002 23.0413 66.2737 23.0413 66.7038 22.8971L70.8613 27.3672C70.4312 28.8091 71.1481 30.2511 72.5817 30.6837C74.0153 31.1163 75.449 30.3953 75.8791 28.9533C75.8791 28.8091 75.8791 28.8091 76.0224 28.6649C76.0224 28.3766 76.0224 28.0882 76.0224 27.944C75.8791 26.502 74.5888 25.3484 73.0118 25.6368C72.8684 25.6368 72.8684 25.6368 72.7251 25.6368C72.295 25.0601 72.1516 24.3391 72.5817 23.7623L74.1587 21.4552C75.1623 19.869 75.0189 17.8503 73.872 16.4083C73.872 16.2641 73.872 16.1199 74.0153 16.1199C74.0153 15.8315 74.0153 15.5431 74.0153 15.399C73.872 13.957 72.5817 12.9476 71.1481 13.0918C70.2879 13.0918 69.8578 13.236 69.4277 13.6686ZM65.4135 19.7248C65.8436 19.4364 66.2737 19.4364 66.7038 19.7248C66.9905 20.1574 66.9905 20.59 66.7038 21.0226C66.2737 21.311 65.8436 21.311 65.4135 21.0226C64.9834 20.7342 64.9834 20.1574 65.4135 19.7248ZM74.0153 27.7998C74.1587 27.944 74.1587 28.0882 74.1587 28.2324C74.1587 28.6649 73.7286 29.0975 73.1552 29.0975C72.7251 29.0975 72.295 28.6649 72.295 28.0882C72.295 27.944 72.4383 27.6556 72.4383 27.5114C72.5817 27.223 72.8684 27.223 73.1552 27.223C73.5853 27.3672 73.872 27.5114 74.0153 27.7998ZM70.4312 14.9664C70.718 14.5338 71.2914 14.5338 71.7215 14.8222C71.8649 14.8222 71.8649 14.9664 71.8649 15.1106C71.8649 15.2548 71.8649 15.2548 72.0082 15.399C72.0082 15.5431 72.0082 15.5431 72.0082 15.6873C72.0082 15.8315 72.0082 15.8315 72.0082 15.8315C71.8649 15.9757 71.7215 16.1199 71.5782 16.2641C71.1481 16.5525 70.5746 16.2641 70.4312 15.8315C70.2879 15.6873 70.2879 15.2548 70.4312 14.9664Z" fill="#69738D"/>
<path d="M138.386 22.0341L136.235 23.1876C134.085 21.0247 130.787 21.0247 128.637 23.1876C127.49 24.3412 126.917 26.0715 127.203 27.8019L124.91 28.8113C124.479 28.9555 124.336 29.5322 124.623 29.8206L125.483 31.551C125.626 31.9836 126.2 32.1278 126.487 31.8394L128.637 30.6858C130.787 32.8487 134.085 32.8487 136.235 30.6858C137.382 29.5322 137.956 27.8019 137.669 26.0715L139.819 24.918C140.25 24.7738 140.393 24.197 140.106 23.9086L139.246 22.1783C139.246 22.0341 138.673 21.8899 138.386 22.0341ZM133.655 29.388C132.364 30.109 130.787 29.5322 130.071 28.2345C129.354 26.9367 129.927 25.3506 131.218 24.6296C132.508 23.9086 134.085 24.4854 134.802 25.7831C135.375 27.0809 134.945 28.6671 133.655 29.388Z" fill="#69738D"/>
<path d="M27.354 116.78L25.0602 112.599C24.2 111.013 22.3363 110.436 20.7593 111.301L20.3292 111.445L19.8991 110.724C19.7557 110.436 19.469 110.436 19.1823 110.58C19.0389 110.58 19.0389 110.724 18.8955 110.868L17.7486 113.752C17.6053 114.041 17.7486 114.329 18.0354 114.473C18.0354 114.473 18.0354 114.473 18.1787 114.473L21.1894 115.05C21.4761 115.05 21.7628 114.906 21.7628 114.618C21.7628 114.473 21.7628 114.329 21.7628 114.329L21.3327 113.608L21.7628 113.32C22.1929 113.031 22.9097 113.176 23.0531 113.752L25.3469 117.934C24.9169 118.655 24.9169 119.52 25.3469 120.241C25.9204 121.395 27.2107 121.683 28.3576 121.106C28.7877 120.818 29.0744 120.53 29.3612 120.097C29.5045 119.953 29.5045 119.664 29.5045 119.52C29.6479 118.222 28.7877 117.069 27.4974 116.925C27.4974 116.78 27.354 116.78 27.354 116.78ZM27.0673 119.664C26.9239 119.664 26.9239 119.664 27.0673 119.664C26.6372 119.376 26.4939 118.943 26.7806 118.511C26.924 118.222 27.2107 118.078 27.4974 118.078C27.6408 118.078 27.9275 118.222 28.0709 118.367C28.3576 118.655 28.3576 119.088 28.0709 119.376C27.6408 119.809 27.354 119.809 27.0673 119.664Z" fill="#69738D"/>
<path d="M14.7381 113.031C13.7346 113.608 13.3045 115.05 13.8779 116.059C14.308 116.78 15.0249 117.212 15.8851 117.212L19.8992 124.422C20.186 124.999 20.7594 125.143 21.3329 124.855C21.9063 124.566 22.0497 123.99 21.763 123.413L17.7488 116.203C18.1789 115.482 18.1789 114.617 17.7488 113.896C17.1753 112.887 15.7417 112.454 14.7381 113.031ZM16.1718 115.626C15.7417 115.771 15.3116 115.771 15.1682 115.338C15.0249 114.905 15.0249 114.473 15.455 114.329C15.885 114.184 16.3151 114.184 16.4585 114.617C16.6019 115.05 16.4585 115.482 16.1718 115.626Z" fill="#69738D"/>
<path d="M185.696 93.6981L185.84 93.4097C186.27 92.5446 186.27 91.6794 185.84 90.8142L184.549 88.0745C184.406 87.9303 184.406 87.6419 184.549 87.4977L184.979 86.4883L185.696 86.9209C185.983 87.0651 186.27 86.9209 186.413 86.6325C186.413 86.4883 186.413 86.3441 186.413 86.3441L185.84 83.1718C185.84 82.8835 185.553 82.7393 185.266 82.7393H185.123L182.256 84.037C181.969 84.1812 181.825 84.4696 181.969 84.758C181.969 84.9022 182.112 84.9022 182.256 85.0464L182.972 85.479L182.542 86.4883C182.399 86.6325 182.256 86.7767 182.112 86.7767L179.102 87.2093C178.241 87.3535 177.381 87.9303 177.094 88.6513L176.951 88.9397C175.661 88.9397 174.657 89.949 174.657 91.2468C174.657 92.5446 175.661 93.5539 176.951 93.5539C178.241 93.5539 179.245 92.5446 179.245 91.2468C179.245 90.8142 179.102 90.3816 178.815 90.0932L178.958 89.8048C179.102 89.6606 179.245 89.5164 179.388 89.5164L181.969 89.0839C182.256 89.0839 182.542 89.2281 182.686 89.5164L183.833 91.9678C183.976 92.112 183.976 92.4004 183.833 92.5446L183.689 92.8329C182.399 92.8329 181.395 93.9865 181.539 95.1401C181.539 96.4378 182.686 97.4472 183.833 97.303C185.123 97.303 186.126 96.1494 185.983 94.9959C186.126 94.5633 185.983 94.1307 185.696 93.6981ZM176.664 92.112C176.234 91.9678 176.091 91.391 176.378 91.1026C176.521 90.67 177.094 90.5258 177.381 90.8142C177.811 90.9584 177.955 91.5352 177.668 91.8236C177.525 92.112 176.951 92.2562 176.664 92.112ZM183.402 95.7169C182.972 95.5727 182.829 94.9959 183.116 94.7075C183.259 94.2749 183.833 94.1307 184.119 94.4191C184.406 94.7075 184.693 95.1401 184.406 95.4285C184.263 95.7169 183.833 95.8611 183.402 95.7169Z" fill="#69738D"/>
<path d="M91.6482 148.78C90.788 148.924 90.0712 149.501 89.7844 150.366C87.4906 150.798 85.6269 149.068 85.1968 148.203C86.057 147.194 85.9136 145.752 84.91 144.886C83.9065 144.021 82.4729 144.165 81.6127 145.175C80.7525 146.184 80.8958 147.626 81.8994 148.491C82.1861 148.636 82.4729 148.924 82.7596 148.924L83.7631 154.259C82.7596 155.124 82.6162 156.566 83.4764 157.576C84.3366 158.585 85.7702 158.729 86.7738 157.864C86.9171 157.864 86.9171 157.72 87.0605 157.72C87.2039 157.576 87.3472 157.431 87.4906 157.143C88.0641 155.99 87.634 154.548 86.3437 153.971C86.2003 153.971 86.2003 153.827 86.057 153.827L85.6269 151.808C86.9171 152.673 88.4942 152.961 90.0712 152.817H90.2145C91.0747 153.827 92.5084 153.971 93.5119 153.106C93.6553 153.106 93.6553 152.961 93.6553 152.961C93.7986 152.817 93.942 152.673 94.0854 152.385C94.6588 151.231 94.2287 149.789 93.0818 149.212C92.6517 148.78 92.0783 148.636 91.6482 148.78ZM83.333 145.752C83.7631 145.607 84.1932 145.896 84.3366 146.473C84.48 146.905 84.1932 147.338 83.6198 147.482C83.1897 147.626 82.7596 147.338 82.6162 146.761C82.6162 146.328 82.9029 145.896 83.333 145.752ZM85.6269 156.71C85.3401 156.999 84.7667 156.855 84.48 156.566C84.1932 156.278 84.3366 155.701 84.6233 155.413C84.6233 155.413 84.7667 155.269 84.91 155.269C85.0534 155.124 85.3401 155.269 85.4835 155.269C85.9136 155.557 86.057 155.99 85.7702 156.422C85.9136 156.566 85.7702 156.566 85.6269 156.71ZM92.0783 151.952C91.6482 151.952 91.3614 151.519 91.3614 151.087C91.3614 150.798 91.6482 150.51 91.9349 150.366C92.0783 150.366 92.365 150.366 92.5084 150.366C92.9385 150.51 93.0818 151.087 92.9385 151.519C92.6517 151.808 92.365 151.952 92.0783 151.952Z" fill="#69738D"/>
<path d="M238.124 100.359C237.803 101.328 237.803 102.297 237.482 103.588C231.706 125.224 215.019 141.047 194.482 146.213C186.138 148.474 177.153 148.475 168.168 146.86C136.079 140.079 115.541 108.432 122.28 76.464C129.019 44.1727 160.146 23.5069 192.235 30.2881C203.467 32.5485 214.056 38.3609 222.079 46.4337C236.198 60.319 242.295 80.6615 238.124 100.359Z" fill="url(#paint6_linear_970_4682)"/>
<path d="M215.254 88.1184C215.254 107.243 199.747 122.75 180.622 122.75C161.497 122.75 145.99 107.243 145.99 88.1184C145.99 68.9935 161.497 53.4863 180.622 53.4863C199.747 53.4863 215.254 68.9935 215.254 88.1184ZM184.333 72.0392C184.333 69.9829 182.679 68.3286 180.622 68.3286C178.566 68.3286 176.912 69.9829 176.912 72.0392V89.3553C176.912 91.4115 178.566 93.0658 180.622 93.0658C182.679 93.0658 184.333 91.4115 184.333 89.3553V72.0392ZM180.622 107.908C183.359 107.908 185.57 105.697 185.57 102.961C185.57 100.224 183.359 98.0133 180.622 98.0133C177.886 98.0133 175.675 100.224 175.675 102.961C175.675 105.697 177.886 107.908 180.622 107.908Z" fill="white"/>
<defs>
<filter id="filter0_d_970_4682" x="0.0260773" y="24.869" width="201.739" height="166.014" filterUnits="userSpaceOnUse" color-interpolation-filters="sRGB">
<feFlood flood-opacity="0" result="BackgroundImageFix"/>
<feColorMatrix in="SourceAlpha" type="matrix" values="0 0 0 0 0 0 0 0 0 0 0 0 0 0 0 0 0 0 127 0" result="hardAlpha"/>
<feOffset dy="17.7833"/>
<feGaussianBlur stdDeviation="17.7833"/>
<feColorMatrix type="matrix" values="0 0 0 0 0 0 0 0 0 0 0 0 0 0 0 0 0 0 0.18 0"/>
<feBlend mode="normal" in2="BackgroundImageFix" result="effect1_dropShadow_970_4682"/>
<feBlend mode="normal" in="SourceGraphic" in2="effect1_dropShadow_970_4682" result="shape"/>
</filter>
<linearGradient id="paint0_linear_970_4682" x1="35.3841" y1="48.8274" x2="166.064" y2="48.8274" gradientUnits="userSpaceOnUse">
<stop stop-color="#93FFD8"/>
<stop offset="1" stop-color="#93FFD8" stop-opacity="0"/>
</linearGradient>
<linearGradient id="paint1_linear_970_4682" x1="101.558" y1="88.7433" x2="118.121" y2="88.7433" gradientUnits="userSpaceOnUse">
<stop stop-color="#83A6FF"/>
<stop offset="1" stop-color="#5A78FF"/>
</linearGradient>
<linearGradient id="paint2_linear_970_4682" x1="51.3391" y1="88.603" x2="64.4599" y2="88.603" gradientUnits="userSpaceOnUse">
<stop stop-color="#83A6FF"/>
<stop offset="1" stop-color="#5A78FF"/>
</linearGradient>
<linearGradient id="paint3_linear_970_4682" x1="84.2039" y1="111.354" x2="120.287" y2="111.354" gradientUnits="userSpaceOnUse">
<stop stop-color="#83A6FF"/>
<stop offset="1" stop-color="#5A78FF"/>
</linearGradient>
<linearGradient id="paint4_linear_970_4682" x1="193.179" y1="66.5933" x2="202.088" y2="66.5933" gradientUnits="userSpaceOnUse">
<stop stop-color="#83A6FF"/>
<stop offset="1" stop-color="#5A78FF"/>
</linearGradient>
<linearGradient id="paint5_linear_970_4682" x1="104.902" y1="3.89242" x2="120.869" y2="3.89242" gradientUnits="userSpaceOnUse">
<stop stop-color="#83A6FF"/>
<stop offset="1" stop-color="#5A78FF"/>
</linearGradient>
<linearGradient id="paint6_linear_970_4682" x1="159.49" y1="31.3574" x2="200.029" y2="142.063" gradientUnits="userSpaceOnUse">
<stop stop-color="#FFD83D"/>
<stop offset="1" stop-color="#DDBB33"/>
</linearGradient>
</defs>
</svg>
