<svg width="185" height="36" viewBox="0 0 185 36" fill="none" xmlns="http://www.w3.org/2000/svg">
<g clip-path="url(#clip0_6491_14687)">
<mask id="mask0_6491_14687" style="mask-type:luminance" maskUnits="userSpaceOnUse" x="-2" y="-21" width="188" height="280">
<path d="M-2 -20.9999L-2 258.58L185.277 258.58L185.277 -20.9999L-2 -20.9999Z" fill="white"/>
</mask>
<g mask="url(#mask0_6491_14687)">
<path d="M34.871 19.6022L37.5641 22.7782L27.2751 31.4788L24.582 28.3065L34.871 19.6022Z" fill="white"/>
<path d="M28.305 19.0614L25.125 21.7529L33.8371 32.019L37.0171 29.3276L28.305 19.0614Z" fill="white"/>
<path d="M187.858 26.6627L189.603 28.9478L182.187 34.5879L180.441 32.3028L187.858 26.6627Z" fill="white"/>
<path d="M183.348 26.0549L181.056 27.7995L186.7 35.1953L188.992 33.4545L183.348 26.0549Z" fill="white"/>
<path d="M166.702 7.02039L168.635 11.8963L152.795 18.1626L150.866 13.2867L166.702 7.02039Z" fill="white"/>
<path d="M159.073 3.73298L154.178 5.67141L160.425 21.4509L165.321 19.5125L159.073 3.73298Z" fill="white"/>
<path d="M96.4544 6.47713L97.5257 6.58522L97.1923 10.0371L96.1211 9.92899L96.4544 6.47713Z" fill="white"/>
<path d="M95.1402 7.55082L95.0391 8.62068L98.5074 8.96362L98.6086 7.8975L95.1402 7.55082Z" fill="white"/>
<path d="M101.83 30.5773L104.71 27.4647L114.857 36.7169L111.973 39.8296L101.83 30.5773Z" fill="white"/>
<path d="M102.111 37.2534L105.246 40.1125L114.573 30.0402L111.438 27.181L102.111 37.2534Z" fill="white"/>
<path d="M45.9652 11.2862C45.9652 10.3 45.1619 9.5006 44.1711 9.5006C43.1802 9.5006 42.377 10.3 42.377 11.2862C42.377 12.2723 43.1802 13.0718 44.1711 13.0718C45.1619 13.0718 45.9652 12.2723 45.9652 11.2862Z" stroke="white" stroke-width="1.5" stroke-miterlimit="10"/>
<path d="M12.0213 2.4858C9.19772 2.02763 6.53554 3.93431 6.07518 6.74449C5.61482 9.55466 7.53061 12.2042 10.3542 12.6624C13.1778 13.1205 15.84 11.2138 16.3003 8.40367C16.7607 5.59349 14.8449 2.94397 12.0213 2.4858Z" stroke="white" stroke-width="1.5" stroke-miterlimit="10"/>
<path d="M157.769 35.042C157.769 34.6221 157.427 34.2816 157.005 34.2816C156.583 34.2816 156.241 34.6221 156.241 35.042C156.241 35.462 156.583 35.8025 157.005 35.8025C157.427 35.8025 157.769 35.462 157.769 35.042Z" stroke="white" stroke-width="1.5" stroke-miterlimit="10"/>
<path d="M74.6088 8.66447C69.4357 7.82229 64.5561 11.3133 63.7099 16.4618C62.8637 21.6103 66.3713 26.4667 71.5444 27.3088C76.7175 28.151 81.5971 24.6601 82.4433 19.5116C83.2895 14.3631 79.7819 9.50665 74.6088 8.66447Z" stroke="white" stroke-width="1.5" stroke-miterlimit="10"/>
<path d="M129.429 3.25654C125.546 2.35217 121.661 4.75216 120.752 8.61707C119.844 12.482 122.255 16.3483 126.138 17.2526C130.022 18.157 133.907 15.757 134.815 11.8921C135.724 8.02718 133.313 4.16091 129.429 3.25654Z" stroke="white" stroke-width="1.5" stroke-miterlimit="10"/>
<path d="M132.203 22.1669C133.162 22.1669 133.941 22.9422 133.941 23.8965C133.941 24.8508 133.162 25.6262 132.203 25.6262C131.244 25.6262 130.465 24.8508 130.465 23.8965C130.465 22.9422 131.244 22.1669 132.203 22.1669Z" stroke="white" stroke-width="1.5" stroke-miterlimit="10"/>
<path d="M3.92166 21.7982L-4.8916 21.582L0.681763 29.9583L3.92166 21.7982Z" fill="white"/>
</g>
</g>
<defs>
<clipPath id="clip0_6491_14687">
<rect width="67" height="187" fill="white" transform="translate(-2 46) rotate(-90)"/>
</clipPath>
</defs>
</svg>
