<svg width="109" height="12" viewBox="0 0 109 12" fill="none" xmlns="http://www.w3.org/2000/svg">
<path d="M0 11.1375V0.0789894H2.30347V11.1375H0ZM3.20841 11.1375V9.19436H3.29067C3.94881 9.19436 4.38756 8.93107 4.60694 8.40447C4.68372 8.23596 4.72212 8.06218 4.72212 7.88314C4.72212 7.35654 4.50274 6.9774 4.06398 6.74569C3.8446 6.62984 3.60329 6.57192 3.34003 6.57192H3.20841V4.64458H3.34003C3.95429 4.64458 4.37659 4.39181 4.60694 3.88628C4.68372 3.70724 4.72212 3.52293 4.72212 3.33335C4.72212 2.81729 4.49725 2.43814 4.04753 2.1959C3.81718 2.08005 3.5649 2.02213 3.29067 2.02213H3.20841V0.0789894H3.60329C5.02924 0.0789894 6.0329 0.579255 6.61425 1.57979C6.88847 2.06426 7.02559 2.59612 7.02559 3.17537C7.02559 4.09165 6.73491 4.83415 6.15356 5.40287C6.06581 5.4766 5.98354 5.54505 5.90676 5.60825C6.54295 6.06112 6.91041 6.75096 7.00913 7.67777C7.0201 7.80415 7.02559 7.92527 7.02559 8.04112C7.02559 9.06272 6.65264 9.86314 5.90676 10.4424C5.2925 10.9058 4.52467 11.1375 3.60329 11.1375H3.20841Z" fill="white"/>
<path d="M8.22668 11.1375V0.0789894H10.5466V8.9258H14.4131V11.1375H8.22668Z" fill="white"/>
<path d="M15.1865 11.1375L17.3089 1.94314H17.5557L18.5429 6.36654L17.457 11.1375H15.1865ZM18.691 9.79468L19.1846 7.61458H19.7769L18.0329 0.0789894H20.3199L23.0347 11.1375H20.7312L20.4022 9.79468H18.691Z" fill="white"/>
<path d="M23.9726 8.27809V2.9542C23.9726 2.34335 24.2084 1.7483 24.68 1.16904C25.3053 0.400213 26.1499 0.0105319 27.2139 0V2.2275C26.7532 2.23803 26.457 2.4434 26.3254 2.84362C26.3034 2.88575 26.2925 2.92261 26.2925 2.9542V8.27809C26.2925 8.4466 26.3857 8.60984 26.5722 8.76782C26.7477 8.91527 26.9616 8.98899 27.2139 8.98899V11.2165C25.9853 11.2165 25.0585 10.7215 24.4332 9.73149C24.1261 9.22596 23.9726 8.74149 23.9726 8.27809ZM28.1023 11.2165V8.98899C28.1023 8.98899 28.2285 8.9416 28.4808 8.84681C28.6343 8.74149 28.7385 8.63091 28.7934 8.51506C28.8482 8.37814 28.8757 8.1833 28.8757 7.93053V7.74096L31.1462 8.26229C31.1462 9.17857 30.7623 9.93686 29.9945 10.5372C29.4131 10.9901 28.7824 11.2165 28.1023 11.2165ZM28.1023 2.2275V0C28.9031 0 29.627 0.337021 30.2742 1.01106C30.8555 1.62192 31.1462 2.28016 31.1462 2.9858L28.8757 3.55452V3.31755C28.8757 3.05426 28.8482 2.85942 28.7934 2.73303C28.7495 2.62771 28.6672 2.53293 28.5466 2.44867C28.4369 2.36442 28.3382 2.30649 28.2504 2.27489L28.1023 2.2275Z" fill="white"/>
<path d="M32.1663 11.1375V0.0789894H34.4863V11.1375H32.1663ZM35.1444 5.75043L36.9049 0.0789894H39.1919L37.4479 5.75043L39.2577 11.1375H36.9872L35.1444 5.75043Z" fill="white"/>
<path d="M61.5698 0.0161154V1.51487H56.8023V4.81858H60.5194V6.31734H56.8023V11.2165H54.96V0.0161154H61.5698Z" fill="url(#paint0_linear_6487_13997)"/>
<path d="M69.1114 11.2165L66.5256 6.73634H65.1196V11.2165H63.2772V0.0161154H67.1559C68.0178 0.0161154 68.7451 0.166528 69.3377 0.467354C69.941 0.768179 70.3881 1.17107 70.679 1.67603C70.9807 2.18098 71.1315 2.74503 71.1315 3.36817C71.1315 4.09875 70.9161 4.76486 70.4851 5.36651C70.0649 5.95742 69.4131 6.36031 68.5296 6.57519L71.3093 11.2165H69.1114ZM65.1196 5.26982H67.1559C67.8454 5.26982 68.3626 5.09792 68.7074 4.75412C69.0629 4.41032 69.2407 3.94833 69.2407 3.36817C69.2407 2.78801 69.0683 2.33677 68.7235 2.01446C68.3788 1.6814 67.8562 1.51487 67.1559 1.51487H65.1196V5.26982Z" fill="url(#paint1_linear_6487_13997)"/>
<path d="M75.3308 0.0161154V11.2165H73.4884V0.0161154H75.3308Z" fill="url(#paint2_linear_6487_13997)"/>
<path d="M81.4182 0.0161154C82.6141 0.0161154 83.6592 0.247107 84.5534 0.709089C85.4585 1.16033 86.1534 1.8157 86.6382 2.6752C87.1338 3.52396 87.3816 4.51775 87.3816 5.65659C87.3816 6.79543 87.1338 7.78386 86.6382 8.62187C86.1534 9.45989 85.4585 10.1045 84.5534 10.5558C83.6592 10.9962 82.6141 11.2165 81.4182 11.2165H77.7496V0.0161154H81.4182ZM81.4182 9.71774C82.7326 9.71774 83.74 9.36319 84.4403 8.6541C85.1406 7.94502 85.4908 6.94585 85.4908 5.65659C85.4908 4.3566 85.1406 3.34131 84.4403 2.61074C83.74 1.88016 82.7326 1.51487 81.4182 1.51487H79.592V9.71774H81.4182Z" fill="url(#paint3_linear_6487_13997)"/>
<path d="M95.9791 8.92807H91.2762L90.4682 11.2165H88.545L92.5691 0H94.7024L98.7265 11.2165H96.7871L95.9791 8.92807ZM95.4619 7.42931L93.6357 2.22396L91.7934 7.42931H95.4619Z" fill="url(#paint4_linear_6487_13997)"/>
<path d="M108.799 0.0161154L105.082 7.15535V11.2165H103.24V7.15535L99.5065 0.0161154H101.559L104.161 5.51155L106.763 0.0161154H108.799Z" fill="url(#paint5_linear_6487_13997)"/>
<path opacity="0.65" fill-rule="evenodd" clip-rule="evenodd" d="M47.0987 11.1904C50.1869 11.1904 52.6904 8.68691 52.6904 5.59866C52.6904 2.51042 50.1869 0.00689675 47.0987 0.00689648C44.0104 0.00689621 41.5069 2.51042 41.5069 5.59866C41.5069 8.68691 44.0104 11.1904 47.0987 11.1904ZM49.0615 2.29622C49.5239 2.13094 50.0412 1.94604 50.4153 2.32019C50.7895 2.69435 50.6046 3.21161 50.4393 3.67397C50.4312 3.6965 50.4232 3.7189 50.4153 3.74115C50.365 3.88295 50.2916 4.06132 50.2133 4.25179C50.0272 4.70449 49.8129 5.22556 49.8129 5.48647C49.8129 5.85715 50.23 7.04643 50.3999 7.46345C50.5698 7.88047 50.7845 8.49975 50.3921 8.89214C49.9998 9.28452 49.3805 9.06976 48.9635 8.89986C48.5464 8.72996 47.3572 8.31293 46.9865 8.31293C46.7256 8.31293 46.2045 8.52718 45.7518 8.71332C45.5613 8.79164 45.383 8.86498 45.2412 8.9153C45.2189 8.92319 45.1965 8.9312 45.174 8.93925C44.7116 9.10454 44.1944 9.28946 43.8202 8.9153C43.446 8.54114 43.631 8.02388 43.7962 7.56149C43.8043 7.53897 43.8123 7.51658 43.8202 7.49434C43.8705 7.35255 43.9438 7.17419 44.0222 6.98373C44.2083 6.53103 44.4226 6.00994 44.4226 5.74903C44.4226 5.37834 44.0055 4.18906 43.8356 3.77204C43.6657 3.35502 43.451 2.73575 43.8434 2.34335C44.2358 1.95097 44.855 2.16574 45.272 2.33563C45.6891 2.50554 46.8784 2.92255 47.249 2.92255C47.5099 2.92255 48.031 2.7083 48.4837 2.52216C48.6742 2.44383 48.8526 2.3705 48.9943 2.32019C49.0166 2.31229 49.039 2.30428 49.0615 2.29622Z" fill="url(#paint6_linear_6487_13997)"/>
<path opacity="0.65" fill-rule="evenodd" clip-rule="evenodd" d="M51.0526 1.64469C48.8689 -0.539036 45.3284 -0.539036 43.1447 1.64468C40.961 3.82841 40.961 7.36892 43.1447 9.55264C45.3284 11.7364 48.8689 11.7364 51.0526 9.55264C53.2364 7.36892 53.2364 3.82841 51.0526 1.64469ZM43.3755 6.54585C42.9317 6.33578 42.4352 6.10078 42.4352 5.57164C42.4352 5.04251 42.9317 4.80751 43.3755 4.59744C43.3971 4.5872 43.4186 4.57703 43.44 4.56687C43.5758 4.50219 43.7538 4.42793 43.9438 4.34863C44.3955 4.16015 44.9155 3.94318 45.1 3.75869C45.3621 3.49657 45.9082 2.36075 46.0829 1.94573C46.2577 1.53072 46.5437 0.940961 47.0986 0.940961C47.6536 0.940961 47.9396 1.53072 48.1143 1.94573C48.2891 2.36075 48.8351 3.49657 49.0973 3.75869C49.2818 3.94318 49.8017 4.16015 50.2535 4.34864C50.4435 4.42793 50.6215 4.50219 50.7573 4.56688C50.7786 4.57703 50.8001 4.58721 50.8218 4.59744C51.2656 4.80751 51.7621 5.04252 51.7621 5.57165C51.7621 6.10078 51.2656 6.33578 50.8218 6.54585C50.8001 6.55608 50.7786 6.56626 50.7573 6.57642C50.6215 6.6411 50.4435 6.71536 50.2535 6.79466C49.8017 6.98315 49.2818 7.20011 49.0973 7.3846C48.8351 7.64672 48.2891 8.78254 48.1143 9.19756C47.9396 9.61257 47.6536 10.2023 47.0986 10.2023C46.5437 10.2023 46.2577 9.61257 46.0829 9.19756C45.9082 8.78254 45.3621 7.64672 45.1 7.3846C44.9155 7.20011 44.3955 6.98315 43.9438 6.79466C43.7538 6.71536 43.5758 6.6411 43.44 6.57641C43.4186 6.56626 43.3971 6.55609 43.3755 6.54585Z" fill="url(#paint7_linear_6487_13997)"/>
<defs>
<linearGradient id="paint0_linear_6487_13997" x1="15.8793" y1="15.5395" x2="134.373" y2="-1.03814" gradientUnits="userSpaceOnUse">
<stop stop-color="#FF00C7"/>
<stop offset="1" stop-color="#00A3FF"/>
</linearGradient>
<linearGradient id="paint1_linear_6487_13997" x1="15.8793" y1="15.5395" x2="134.373" y2="-1.03814" gradientUnits="userSpaceOnUse">
<stop stop-color="#FF00C7"/>
<stop offset="1" stop-color="#00A3FF"/>
</linearGradient>
<linearGradient id="paint2_linear_6487_13997" x1="15.8793" y1="15.5395" x2="134.373" y2="-1.03814" gradientUnits="userSpaceOnUse">
<stop stop-color="#FF00C7"/>
<stop offset="1" stop-color="#00A3FF"/>
</linearGradient>
<linearGradient id="paint3_linear_6487_13997" x1="15.8793" y1="15.5395" x2="134.373" y2="-1.03814" gradientUnits="userSpaceOnUse">
<stop stop-color="#FF00C7"/>
<stop offset="1" stop-color="#00A3FF"/>
</linearGradient>
<linearGradient id="paint4_linear_6487_13997" x1="15.8793" y1="15.5395" x2="134.373" y2="-1.03814" gradientUnits="userSpaceOnUse">
<stop stop-color="#FF00C7"/>
<stop offset="1" stop-color="#00A3FF"/>
</linearGradient>
<linearGradient id="paint5_linear_6487_13997" x1="15.8793" y1="15.5395" x2="134.373" y2="-1.03814" gradientUnits="userSpaceOnUse">
<stop stop-color="#FF00C7"/>
<stop offset="1" stop-color="#00A3FF"/>
</linearGradient>
<linearGradient id="paint6_linear_6487_13997" x1="52.9887" y1="0.00689735" x2="41.3845" y2="11.062" gradientUnits="userSpaceOnUse">
<stop stop-color="#00A3FF"/>
<stop offset="1" stop-color="#FF00C7"/>
</linearGradient>
<linearGradient id="paint7_linear_6487_13997" x1="53.6746" y1="0.00689247" x2="40.5158" y2="0.685187" gradientUnits="userSpaceOnUse">
<stop stop-color="#00FFF0"/>
<stop offset="0.0001" stop-color="#13DEF2"/>
<stop offset="0.855974" stop-color="#E26CFF"/>
</linearGradient>
</defs>
</svg>
