<svg width="158" height="24" viewBox="0 0 158 24" fill="none" xmlns="http://www.w3.org/2000/svg">
<rect width="158" height="24" rx="12" fill="url(#paint0_linear_6828_80)"/>
<path d="M27.084 11.932C27.6627 12.0627 28.12 12.352 28.456 12.8C28.8013 13.2387 28.974 13.7427 28.974 14.312C28.974 15.152 28.6847 15.81 28.106 16.286C27.5273 16.762 26.7153 17 25.67 17H20.784V7.13H25.516C26.524 7.13 27.3127 7.354 27.882 7.802C28.4607 8.25 28.75 8.88 28.75 9.692C28.75 10.2707 28.596 10.756 28.288 11.148C27.9893 11.5307 27.588 11.792 27.084 11.932ZM23.528 11.05H24.914C25.6047 11.05 25.95 10.7653 25.95 10.196C25.95 9.608 25.6047 9.314 24.914 9.314H23.528V11.05ZM25.124 14.788C25.8147 14.788 26.16 14.4987 26.16 13.92C26.16 13.6213 26.0667 13.3927 25.88 13.234C25.7027 13.0753 25.446 12.996 25.11 12.996H23.528V14.788H25.124ZM32.9206 14.9H35.9866V17H30.1766V7.13H32.9206V14.9ZM43.2975 15.39H39.7975L39.2655 17H36.3815L39.9795 7.13H43.1435L46.7275 17H43.8295L43.2975 15.39ZM42.6115 13.29L41.5475 10.098L40.4975 13.29H42.6115ZM47.2859 12.044C47.2859 11.0733 47.4866 10.21 47.8879 9.454C48.2986 8.68867 48.8772 8.096 49.6239 7.676C50.3706 7.24667 51.2292 7.032 52.1999 7.032C53.4319 7.032 54.4679 7.36333 55.3079 8.026C56.1479 8.67933 56.6892 9.57067 56.9319 10.7H53.9779C53.8006 10.3267 53.5532 10.042 53.2359 9.846C52.9279 9.65 52.5686 9.552 52.1579 9.552C51.5232 9.552 51.0146 9.78067 50.6319 10.238C50.2586 10.686 50.0719 11.288 50.0719 12.044C50.0719 12.8093 50.2586 13.4207 50.6319 13.878C51.0146 14.326 51.5232 14.55 52.1579 14.55C52.5686 14.55 52.9279 14.452 53.2359 14.256C53.5532 14.06 53.8006 13.7753 53.9779 13.402H56.9319C56.6892 14.5313 56.1479 15.4273 55.3079 16.09C54.4679 16.7433 53.4319 17.07 52.1999 17.07C51.2292 17.07 50.3706 16.86 49.6239 16.44C48.8772 16.0107 48.2986 15.418 47.8879 14.662C47.4866 13.8967 47.2859 13.024 47.2859 12.044ZM64.0693 17L60.9753 12.674V17H58.2313V7.13H60.9753V11.386L64.0413 7.13H67.2053L63.5793 11.918L67.3873 17H64.0693ZM75.0815 7.13V9.314H71.1335V11.05H74.0455V13.136H71.1335V17H68.3895V7.13H75.0815ZM81.2351 17L79.2751 13.36H78.9811V17H76.2371V7.13H80.5631C81.3565 7.13 82.0285 7.27 82.5791 7.55C83.1298 7.82067 83.5451 8.19867 83.8251 8.684C84.1051 9.16 84.2451 9.69667 84.2451 10.294C84.2451 10.966 84.0585 11.5587 83.6851 12.072C83.3211 12.576 82.7845 12.9353 82.0751 13.15L84.3011 17H81.2351ZM78.9811 11.484H80.3391C80.7125 11.484 80.9925 11.3953 81.1791 11.218C81.3658 11.0407 81.4591 10.784 81.4591 10.448C81.4591 10.1307 81.3611 9.88333 81.1651 9.706C80.9785 9.51933 80.7031 9.426 80.3391 9.426H78.9811V11.484ZM88.237 7.13V17H85.493V7.13H88.237ZM93.7056 7.13C94.7416 7.13 95.647 7.34 96.4216 7.76C97.2056 8.17067 97.8076 8.74933 98.2276 9.496C98.6476 10.2427 98.8576 11.0967 98.8576 12.058C98.8576 13.01 98.643 13.8593 98.2136 14.606C97.7936 15.3527 97.1916 15.9407 96.4076 16.37C95.633 16.79 94.7323 17 93.7056 17H89.7996V7.13H93.7056ZM93.4956 14.578C94.2983 14.578 94.9283 14.3587 95.3856 13.92C95.843 13.4813 96.0716 12.8607 96.0716 12.058C96.0716 11.246 95.843 10.6207 95.3856 10.182C94.9283 9.734 94.2983 9.51 93.4956 9.51H92.5436V14.578H93.4956ZM106.339 15.39H102.839L102.307 17H99.4225L103.021 7.13H106.185L109.769 17H106.871L106.339 15.39ZM105.653 13.29L104.589 10.098L103.539 13.29H105.653ZM119.637 7.13L116.165 13.864V17H113.407V13.864L109.935 7.13H113.071L114.807 10.938L116.543 7.13H119.637ZM120.157 14.802C121.063 14.0927 121.805 13.4813 122.383 12.968C122.962 12.4547 123.447 11.9273 123.839 11.386C124.231 10.8353 124.427 10.3127 124.427 9.818C124.427 9.51933 124.357 9.286 124.217 9.118C124.087 8.95 123.891 8.866 123.629 8.866C123.359 8.866 123.149 8.98267 122.999 9.216C122.85 9.44 122.78 9.77133 122.789 10.21H120.129C120.157 9.37933 120.339 8.69333 120.675 8.152C121.011 7.60133 121.45 7.2 121.991 6.948C122.533 6.68667 123.135 6.556 123.797 6.556C124.945 6.556 125.799 6.84067 126.359 7.41C126.919 7.97933 127.199 8.71667 127.199 9.622C127.199 10.5927 126.873 11.5027 126.219 12.352C125.575 13.2013 124.768 13.962 123.797 14.634H127.297V16.86H120.157V14.802ZM128.38 15.32V13.052L132.678 6.92H135.688V12.94H136.766V15.32H135.688V17H132.916V15.32H128.38ZM133.126 10.014L131.194 12.94H133.126V10.014Z" fill="white"/>
<defs>
<linearGradient id="paint0_linear_6828_80" x1="-141.971" y1="47.5714" x2="215.083" y2="-60.3277" gradientUnits="userSpaceOnUse">
<stop stop-color="#FF00C7"/>
<stop offset="1" stop-color="#00A3FF"/>
</linearGradient>
</defs>
</svg>
