<svg width="196" height="218" viewBox="0 0 196 218" fill="none" xmlns="http://www.w3.org/2000/svg">
<path d="M103.396 184.253C144.578 184.253 177.965 150.866 177.965 109.537C177.965 68.2076 144.431 34.8208 103.396 34.8208C62.2144 34.8208 28.8276 68.2076 28.8276 109.537C28.8276 150.866 62.2144 184.253 103.396 184.253Z" fill="#28323E"/>
<path d="M182.598 157.744C185.928 157.744 188.628 155.045 188.628 151.714C188.628 148.384 185.928 145.684 182.598 145.684C179.267 145.684 176.567 148.384 176.567 151.714C176.567 155.045 179.267 157.744 182.598 157.744Z" fill="#28323E"/>
<path d="M191.423 134.212C193.697 134.212 195.541 132.368 195.541 130.094C195.541 127.819 193.697 125.975 191.423 125.975C189.148 125.975 187.305 127.819 187.305 130.094C187.305 132.368 189.148 134.212 191.423 134.212Z" fill="#28323E"/>
<path d="M7.64808 139.835C11.872 139.835 15.2962 136.411 15.2962 132.187C15.2962 127.963 11.872 124.539 7.64808 124.539C3.42416 124.539 0 127.963 0 132.187C0 136.411 3.42416 139.835 7.64808 139.835Z" fill="#28323E"/>
<g filter="url(#filter0_d_1239_2756)">
<rect x="50.8948" y="142" width="106.073" height="42.5733" rx="6" fill="#232D37"/>
</g>
<path d="M84 158.645H147.454" stroke="#3B4853" stroke-width="2" stroke-miterlimit="10"/>
<path d="M84 169.795H120.936" stroke="#3B4853" stroke-width="2" stroke-miterlimit="10"/>
<g filter="url(#filter1_d_1239_2756)">
<rect x="40.6528" y="76.0028" width="125.636" height="55.3892" rx="6" fill="#5C6479"/>
</g>
<path d="M64.5958 116.52C57.7895 116.52 52.3444 111.071 52.3444 104.26C52.3444 97.449 57.7895 92 64.5958 92C71.4021 92 76.8471 97.449 76.8471 104.26C76.8471 110.935 71.4021 116.52 64.5958 116.52Z" fill="#C6CDDF"/>
<path d="M68.9942 172C64.553 172 61 168.444 61 164C61 159.556 64.553 156 68.9942 156C73.4355 156 76.9885 159.556 76.9885 164C76.9885 168.356 73.4355 172 68.9942 172Z" fill="#3B4853"/>
<path d="M66.6421 165.506C66.6852 165.463 66.7436 165.439 66.8046 165.439H72.4161C72.5189 165.439 72.5702 165.563 72.4974 165.635L71.3889 166.743C71.3458 166.786 71.2874 166.811 71.2264 166.811H65.6149C65.5921 166.811 65.5699 166.804 65.551 166.791C65.5322 166.779 65.5174 166.761 65.5087 166.74C65.5001 166.719 65.4978 166.696 65.5022 166.673C65.5066 166.651 65.5176 166.63 65.5336 166.614L66.6421 165.506Z" fill="white"/>
<path d="M66.6421 161.367C66.6856 161.325 66.7438 161.301 66.8046 161.3H72.4161C72.5189 161.3 72.5702 161.424 72.4974 161.496L71.3892 162.605C71.3461 162.648 71.2877 162.672 71.2267 162.672H65.6149C65.5921 162.672 65.5699 162.665 65.551 162.652C65.5322 162.64 65.5174 162.622 65.5087 162.601C65.5001 162.58 65.4978 162.557 65.5022 162.534C65.5066 162.512 65.5176 162.492 65.5336 162.476L66.6421 161.367Z" fill="white"/>
<path d="M71.3889 163.423C71.3458 163.38 71.2874 163.356 71.2264 163.356H65.6149C65.5921 163.356 65.5699 163.363 65.551 163.376C65.5322 163.388 65.5174 163.406 65.5087 163.427C65.5001 163.448 65.4978 163.471 65.5022 163.494C65.5066 163.516 65.5176 163.536 65.5336 163.553L66.6421 164.661C66.6852 164.704 66.7436 164.728 66.8046 164.728H72.4161C72.4388 164.728 72.461 164.721 72.4799 164.709C72.4988 164.696 72.5135 164.678 72.5222 164.657C72.5309 164.636 72.5332 164.613 72.5288 164.591C72.5244 164.568 72.5134 164.548 72.4974 164.532L71.3889 163.423Z" fill="white"/>
<path d="M85.5222 103.697H148.34" stroke="#8E96AB" stroke-width="2" stroke-miterlimit="10"/>
<path d="M85.5222 92.4799H148.34" stroke="#8E96AB" stroke-width="2" stroke-miterlimit="10"/>
<path d="M85.5222 114.915H123.662" stroke="#8E96AB" stroke-width="2" stroke-miterlimit="10"/>
<path d="M36.1747 54.9611H31.2136V50H26.9611V54.9611H22V59.3553H26.9611V64.3165H31.2136V59.3553H36.1747V54.9611Z" fill="#5C6479"/>
<path d="M180.175 176.961H175.214V172H170.961V176.961H166V181.355H170.961V186.316H175.214V181.355H180.175V176.961Z" fill="#5C6479"/>
<path d="M69.5364 102.684C69.7607 101.186 68.6205 100.381 67.0617 99.8444L67.5676 97.8159L66.3329 97.5087L65.8407 99.4834C65.5162 99.4025 65.1826 99.3262 64.8514 99.2507L65.3471 97.2626L64.1132 96.955L63.6076 98.9828C63.339 98.9216 63.075 98.8611 62.819 98.7975L62.8205 98.7908L61.1178 98.3658L60.7895 99.6845C60.7895 99.6845 61.7057 99.8944 61.686 99.9074C62.1862 100.032 62.2766 100.363 62.2615 100.625L61.6856 102.936C61.7201 102.945 61.7647 102.957 61.8139 102.977L61.6835 102.945L60.876 106.182C60.8148 106.334 60.6598 106.561 60.3103 106.475C60.3226 106.493 59.4128 106.251 59.4128 106.251L58.8 107.665L60.4066 108.065C60.7055 108.14 60.9983 108.218 61.2869 108.292L60.7761 110.344L62.0094 110.651L62.5153 108.622C62.8521 108.713 63.179 108.797 63.499 108.877L62.9948 110.897L64.2295 111.204L64.7403 109.157C66.8458 109.555 68.4289 109.395 69.0951 107.491C69.632 105.957 69.0684 105.073 67.9607 104.496C68.7675 104.31 69.375 103.78 69.5371 102.684H69.5364ZM66.7158 106.639C66.3343 108.172 63.7528 107.344 62.9161 107.136L63.5939 104.418C64.4306 104.627 67.1144 105.04 66.7158 106.639ZM67.0976 102.661C66.7495 104.056 64.6011 103.347 63.904 103.174L64.5189 100.709C65.2157 100.882 67.4604 101.207 67.0976 102.661Z" fill="white"/>
<path d="M108.333 66.6667H97.6667" stroke="url(#paint0_linear_1239_2756)" stroke-width="1.5" stroke-linecap="round" stroke-linejoin="round"/>
<path d="M119.667 33.44V33.3333C119.667 24.13 112.203 16.6667 103 16.6667C93.7967 16.6667 86.3334 24.13 86.3334 33.3333V33.44V41.68C86.3334 42.76 85.7234 43.7433 84.76 44.2267L83.0834 45.0633C80.99 46.1133 79.6667 48.2533 79.6667 50.5933C79.6667 54.0067 82.4334 56.7733 85.8467 56.7733H120.153C123.567 56.7733 126.333 54.0067 126.333 50.5933C126.333 48.2533 125.01 46.1133 122.917 45.0667L121.24 44.23C120.277 43.7433 119.667 42.76 119.667 41.68V33.44Z" fill="url(#paint1_linear_1239_2756)" stroke="url(#paint2_linear_1239_2756)" stroke-width="1.5" stroke-linecap="round" stroke-linejoin="round"/>
<path d="M126.17 20.1633C123.797 15.9967 120.337 12.5367 116.17 10.1633" stroke="url(#paint3_linear_1239_2756)" stroke-width="1.5" stroke-linecap="round" stroke-linejoin="round"/>
<path d="M79.83 20.1633C82.2034 15.9967 85.6634 12.5367 89.83 10.1633" stroke="url(#paint4_linear_1239_2756)" stroke-width="1.5" stroke-linecap="round" stroke-linejoin="round"/>
<defs>
<filter id="filter0_d_1239_2756" x="28.8948" y="131" width="150.073" height="86.5733" filterUnits="userSpaceOnUse" color-interpolation-filters="sRGB">
<feFlood flood-opacity="0" result="BackgroundImageFix"/>
<feColorMatrix in="SourceAlpha" type="matrix" values="0 0 0 0 0 0 0 0 0 0 0 0 0 0 0 0 0 0 127 0" result="hardAlpha"/>
<feOffset dy="11"/>
<feGaussianBlur stdDeviation="11"/>
<feColorMatrix type="matrix" values="0 0 0 0 0 0 0 0 0 0 0 0 0 0 0 0 0 0 0.27 0"/>
<feBlend mode="normal" in2="BackgroundImageFix" result="effect1_dropShadow_1239_2756"/>
<feBlend mode="normal" in="SourceGraphic" in2="effect1_dropShadow_1239_2756" result="shape"/>
</filter>
<filter id="filter1_d_1239_2756" x="18.6528" y="65.0028" width="169.636" height="99.3892" filterUnits="userSpaceOnUse" color-interpolation-filters="sRGB">
<feFlood flood-opacity="0" result="BackgroundImageFix"/>
<feColorMatrix in="SourceAlpha" type="matrix" values="0 0 0 0 0 0 0 0 0 0 0 0 0 0 0 0 0 0 127 0" result="hardAlpha"/>
<feOffset dy="11"/>
<feGaussianBlur stdDeviation="11"/>
<feColorMatrix type="matrix" values="0 0 0 0 0 0 0 0 0 0 0 0 0 0 0 0 0 0 0.27 0"/>
<feBlend mode="normal" in2="BackgroundImageFix" result="effect1_dropShadow_1239_2756"/>
<feBlend mode="normal" in="SourceGraphic" in2="effect1_dropShadow_1239_2756" result="shape"/>
</filter>
<linearGradient id="paint0_linear_1239_2756" x1="103" y1="66.6667" x2="103" y2="67.6667" gradientUnits="userSpaceOnUse">
<stop stop-color="#E3EAF6"/>
<stop offset="1" stop-color="#ADB6C8"/>
</linearGradient>
<linearGradient id="paint1_linear_1239_2756" x1="103" y1="16.6667" x2="103" y2="56.7733" gradientUnits="userSpaceOnUse">
<stop stop-color="#E3EAF6"/>
<stop offset="1" stop-color="#ADB6C8"/>
</linearGradient>
<linearGradient id="paint2_linear_1239_2756" x1="103" y1="16.6667" x2="103" y2="56.7733" gradientUnits="userSpaceOnUse">
<stop stop-color="#E3EAF6"/>
<stop offset="1" stop-color="#ADB6C8"/>
</linearGradient>
<linearGradient id="paint3_linear_1239_2756" x1="121.17" y1="10.1633" x2="121.17" y2="20.1633" gradientUnits="userSpaceOnUse">
<stop stop-color="#E3EAF6"/>
<stop offset="1" stop-color="#ADB6C8"/>
</linearGradient>
<linearGradient id="paint4_linear_1239_2756" x1="84.83" y1="10.1633" x2="84.83" y2="20.1633" gradientUnits="userSpaceOnUse">
<stop stop-color="#E3EAF6"/>
<stop offset="1" stop-color="#ADB6C8"/>
</linearGradient>
</defs>
</svg>
