<svg width="198" height="33" viewBox="0 0 198 33" fill="none" xmlns="http://www.w3.org/2000/svg">
<path opacity="0.65" fill-rule="evenodd" clip-rule="evenodd" d="M16.2053 32.9233C25.1442 32.9233 32.3905 25.5577 32.3905 16.4718C32.3905 7.3859 25.1442 0.0203012 16.2053 0.0203004C7.26647 0.0202996 0.0201057 7.3859 0.0201049 16.4718C0.0201041 25.5577 7.26647 32.9233 16.2053 32.9233ZM21.8868 6.75572C23.2251 6.26943 24.7223 5.72542 25.8053 6.82621C26.8882 7.927 26.353 9.44879 25.8746 10.8091C25.8513 10.8754 25.8281 10.9413 25.8053 11.0068C25.6596 11.424 25.4474 11.9487 25.2207 12.509C24.6819 13.8409 24.0617 15.374 24.0617 16.1417C24.0617 17.2323 25.2688 20.7313 25.7606 21.9582C26.2523 23.1851 26.874 25.0071 25.7382 26.1615C24.6025 27.3159 22.81 26.6841 21.6029 26.1842C20.3959 25.6844 16.9535 24.4574 15.8806 24.4574C15.1254 24.4574 13.6171 25.0878 12.3067 25.6355C11.7555 25.8659 11.2392 26.0816 10.8288 26.2297C10.7644 26.2529 10.6996 26.2764 10.6344 26.3001C9.29604 26.7864 7.79888 27.3304 6.71591 26.2297C5.63294 25.1289 6.16814 23.6071 6.64656 22.2467C6.66988 22.1804 6.69306 22.1145 6.71591 22.0491C6.86153 21.6319 7.0738 21.1072 7.30047 20.5468C7.83926 19.2149 8.45943 17.6818 8.45943 16.9142C8.45943 15.8236 7.25238 12.3246 6.76062 11.0977C6.26885 9.87078 5.64722 8.04881 6.78297 6.89437C7.91872 5.73993 9.7112 6.3718 10.9183 6.87165C12.1253 7.37151 15.5677 8.59842 16.6406 8.59842C17.3958 8.59842 18.9041 7.96804 20.2144 7.42039C20.7657 7.18999 21.2819 6.97423 21.6923 6.82621C21.7567 6.80298 21.8216 6.77942 21.8868 6.75572Z" fill="url(#paint0_linear_140_436)"/>
<path opacity="0.65" fill-rule="evenodd" clip-rule="evenodd" d="M27.6492 4.83884C21.3285 -1.58588 11.0805 -1.58588 4.75982 4.83884C-1.5609 11.2636 -1.5609 21.6801 4.75982 28.1048C11.0805 34.5295 21.3285 34.5295 27.6492 28.1048C33.9699 21.6801 33.9699 11.2636 27.6492 4.83884ZM5.42811 19.2586C4.14348 18.6406 2.70638 17.9492 2.70638 16.3924C2.70638 14.8357 4.14348 14.1443 5.42811 13.5262C5.49072 13.4961 5.55296 13.4661 5.61466 13.4363C6.00783 13.246 6.52297 13.0275 7.07306 12.7942C8.38059 12.2396 9.88563 11.6013 10.4196 11.0585C11.1783 10.2874 12.7589 6.94564 13.2647 5.72463C13.7705 4.50362 14.5984 2.76849 16.2046 2.76849C17.8108 2.76849 18.6387 4.50362 19.1445 5.72463C19.6503 6.94564 21.2309 10.2874 21.9895 11.0585C22.5236 11.6013 24.0286 12.2396 25.3361 12.7942C25.8862 13.0275 26.4014 13.246 26.7945 13.4363C26.8562 13.4661 26.9185 13.4961 26.9811 13.5262C28.2657 14.1443 29.7028 14.8357 29.7028 16.3924C29.7028 17.9492 28.2657 18.6406 26.9811 19.2586C26.9185 19.2887 26.8562 19.3187 26.7945 19.3485C26.4014 19.5388 25.8862 19.7573 25.3362 19.9906C24.0286 20.5452 22.5236 21.1835 21.9895 21.7263C21.2309 22.4975 19.6503 25.8392 19.1445 27.0602C18.6387 28.2812 17.8108 30.0163 16.2046 30.0163C14.5984 30.0163 13.7705 28.2812 13.2647 27.0602C12.7589 25.8392 11.1783 22.4975 10.4196 21.7263C9.88563 21.1835 8.38059 20.5452 7.07305 19.9906C6.52296 19.7573 6.00783 19.5388 5.61466 19.3485C5.55296 19.3187 5.49072 19.2887 5.42811 19.2586Z" fill="url(#paint1_linear_140_436)"/>
<path d="M51.8498 20.1346L49.9524 15.3298L49.9167 15.2393H49.8193H47.8413H47.6261L47.7094 15.4377L50.9051 23.051L50.9419 23.1387H51.037H52.6078H52.7037L52.7402 23.0499L56.4281 14.0667L56.5091 13.8693H56.2957H54.3613H54.2631L54.2278 13.961L51.8498 20.1346Z" fill="white" stroke="white" stroke-width="0.286159"/>
<path d="M44.5758 13.9571L44.539 13.8693H44.4438H42.4658H42.2501L42.334 14.0681L46.1275 23.0512L46.1644 23.1387H46.2593H48.2079H48.423L48.3398 22.9403L44.5758 13.9571Z" fill="white" stroke="white" stroke-width="0.286159"/>
<mask id="path-5-outside-1_140_436" maskUnits="userSpaceOnUse" x="56.7266" y="8.74384" width="71" height="15" fill="black">
<rect fill="white" x="56.7266" y="8.74384" width="71" height="15"/>
<path d="M60.0636 10.9307C60.0636 11.2594 59.9497 11.5394 59.722 11.7707C59.4943 12.002 59.2187 12.1176 58.8951 12.1176C58.5715 12.1176 58.2959 12.002 58.0682 11.7707C57.8405 11.5394 57.7266 11.2594 57.7266 10.9307C57.7266 10.6021 57.8405 10.3221 58.0682 10.0908C58.2959 9.85948 58.5715 9.74384 58.8951 9.74384C59.2187 9.74384 59.4943 9.85948 59.722 10.0908C59.9497 10.3221 60.0636 10.6021 60.0636 10.9307ZM59.722 14.0167V22.964H58.0682V14.0167H59.722Z"/>
<path d="M68.7918 20.4807C68.7918 21.2598 68.4562 21.9171 67.7851 22.4528C67.114 22.9884 66.2691 23.2562 65.2504 23.2562C64.3635 23.2562 63.5846 23.0249 62.9134 22.5623C62.2423 22.0876 61.7629 21.4667 61.4753 20.6998L62.9494 20.0607C63.1651 20.5963 63.4767 21.0163 63.8842 21.3206C64.3036 21.6128 64.759 21.7589 65.2504 21.7589C65.7777 21.7589 66.2151 21.6432 66.5627 21.412C66.9222 21.1807 67.102 20.9068 67.102 20.5903C67.102 20.0181 66.6705 19.5981 65.8077 19.3303L64.2976 18.9469C62.5839 18.5086 61.727 17.6687 61.727 16.427C61.727 15.6114 62.0506 14.9601 62.6977 14.4732C63.3569 13.9741 64.1958 13.7245 65.2144 13.7245C65.9934 13.7245 66.6945 13.9132 67.3177 14.2906C67.9529 14.6679 68.3963 15.1731 68.648 15.8061L67.1739 16.427C67.0061 16.0496 66.7305 15.7574 66.347 15.5505C65.9754 15.3314 65.556 15.2218 65.0886 15.2218C64.6572 15.2218 64.2677 15.3314 63.9201 15.5505C63.5846 15.7696 63.4168 16.0374 63.4168 16.3539C63.4168 16.8652 63.8902 17.2304 64.8369 17.4495L66.1672 17.7965C67.9169 18.2347 68.7918 19.1295 68.7918 20.4807Z"/>
<path d="M74.4502 21.7224C75.2651 21.7224 75.9303 21.4241 76.4456 20.8276C76.9849 20.2311 77.2546 19.452 77.2546 18.4904C77.2546 17.553 76.9849 16.78 76.4456 16.1713C75.9183 15.5627 75.2532 15.2583 74.4502 15.2583C73.6592 15.2583 72.9941 15.5627 72.4548 16.1713C71.9155 16.78 71.6458 17.553 71.6458 18.4904C71.6458 19.4399 71.9155 20.2129 72.4548 20.8094C72.9941 21.418 73.6592 21.7224 74.4502 21.7224ZM74.1805 23.2562C73.03 23.2562 72.0413 22.7936 71.2144 21.8684C70.3995 20.9311 69.992 19.8051 69.992 18.4904C69.992 17.1756 70.3995 16.0496 71.2144 15.1123C72.0413 14.1871 73.03 13.7245 74.1805 13.7245C74.8277 13.7245 75.4149 13.8645 75.9423 14.1445C76.4816 14.4245 76.895 14.7958 77.1826 15.2583H77.2546L77.1826 14.0167V9.88992H78.8365V22.964H77.2546V21.7224H77.1826C76.895 22.185 76.4816 22.5562 75.9423 22.8362C75.4149 23.1162 74.8277 23.2562 74.1805 23.2562Z"/>
<path d="M80.4381 18.4904C80.4381 17.1148 80.8635 15.9766 81.7144 15.0757C82.5773 14.1749 83.6619 13.7245 84.9682 13.7245C86.2745 13.7245 87.3531 14.1749 88.204 15.0757C89.0669 15.9766 89.4983 17.1148 89.4983 18.4904C89.4983 19.8781 89.0669 21.0163 88.204 21.905C87.3531 22.8058 86.2745 23.2562 84.9682 23.2562C83.6619 23.2562 82.5773 22.8058 81.7144 21.905C80.8635 21.0041 80.4381 19.8659 80.4381 18.4904ZM82.0919 18.4904C82.0919 19.452 82.3676 20.2311 82.9189 20.8276C83.4701 21.4241 84.1533 21.7224 84.9682 21.7224C85.7831 21.7224 86.4662 21.4241 87.0175 20.8276C87.5688 20.2311 87.8445 19.452 87.8445 18.4904C87.8445 17.5408 87.5688 16.7678 87.0175 16.1713C86.4543 15.5627 85.7712 15.2583 84.9682 15.2583C84.1652 15.2583 83.4821 15.5627 82.9189 16.1713C82.3676 16.7678 82.0919 17.5408 82.0919 18.4904Z"/>
<path d="M92.6552 22.964H91.0013V14.0167H92.5833V15.2583H92.6552C92.9068 14.8201 93.2903 14.4549 93.8057 14.1627C94.333 13.8706 94.8543 13.7245 95.3696 13.7245C96.0168 13.7245 96.586 13.8767 97.0774 14.181C97.5688 14.4853 97.9283 14.9053 98.156 15.4409C98.8871 14.2967 99.8997 13.7245 101.194 13.7245C102.213 13.7245 102.998 14.041 103.549 14.674C104.1 15.307 104.376 16.2079 104.376 17.3765V22.964H102.722V17.6321C102.722 16.7922 102.572 16.1896 102.273 15.8244C101.973 15.447 101.47 15.2583 100.763 15.2583C100.127 15.2583 99.5941 15.5322 99.1627 16.08C98.7313 16.6278 98.5155 17.273 98.5155 18.0156V22.964H96.8617V17.6321C96.8617 16.7922 96.7119 16.1896 96.4123 15.8244C96.1127 15.447 95.6093 15.2583 94.9022 15.2583C94.2671 15.2583 93.7338 15.5322 93.3023 16.08C92.8709 16.6278 92.6552 17.273 92.6552 18.0156V22.964Z"/>
<path d="M108.625 10.9307C108.625 11.2594 108.511 11.5394 108.283 11.7707C108.056 12.002 107.78 12.1176 107.457 12.1176C107.133 12.1176 106.857 12.002 106.63 11.7707C106.402 11.5394 106.288 11.2594 106.288 10.9307C106.288 10.6021 106.402 10.3221 106.63 10.0908C106.857 9.85948 107.133 9.74384 107.457 9.74384C107.78 9.74384 108.056 9.85948 108.283 10.0908C108.511 10.3221 108.625 10.6021 108.625 10.9307ZM108.283 14.0167V22.964H106.63V14.0167H108.283Z"/>
<path d="M117.353 20.4807C117.353 21.2598 117.018 21.9171 116.347 22.4528C115.675 22.9884 114.83 23.2562 113.812 23.2562C112.925 23.2562 112.146 23.0249 111.475 22.5623C110.804 22.0876 110.324 21.4667 110.037 20.6998L111.511 20.0607C111.727 20.5963 112.038 21.0163 112.446 21.3206C112.865 21.6128 113.32 21.7589 113.812 21.7589C114.339 21.7589 114.777 21.6432 115.124 21.412C115.484 21.1807 115.663 20.9068 115.663 20.5903C115.663 20.0181 115.232 19.5981 114.369 19.3303L112.859 18.9469C111.145 18.5086 110.288 17.6687 110.288 16.427C110.288 15.6114 110.612 14.9601 111.259 14.4732C111.918 13.9741 112.757 13.7245 113.776 13.7245C114.555 13.7245 115.256 13.9132 115.879 14.2906C116.514 14.6679 116.958 15.1731 117.209 15.8061L115.735 16.427C115.568 16.0496 115.292 15.7574 114.908 15.5505C114.537 15.3314 114.117 15.2218 113.65 15.2218C113.219 15.2218 112.829 15.3314 112.482 15.5505C112.146 15.7696 111.978 16.0374 111.978 16.3539C111.978 16.8652 112.452 17.2304 113.398 17.4495L114.729 17.7965C116.478 18.2347 117.353 19.1295 117.353 20.4807Z"/>
<path d="M123.012 23.2562C121.717 23.2562 120.651 22.8058 119.812 21.905C118.973 21.0041 118.553 19.8659 118.553 18.4904C118.553 17.1269 118.961 15.9948 119.776 15.094C120.591 14.181 121.633 13.7245 122.904 13.7245C124.21 13.7245 125.247 14.1567 126.014 15.021C126.793 15.8731 127.182 17.0722 127.182 18.6182L127.164 18.8008H120.243C120.267 19.6773 120.555 20.3833 121.106 20.9189C121.657 21.4546 122.317 21.7224 123.084 21.7224C124.138 21.7224 124.965 21.1867 125.564 20.1155L127.038 20.8459C126.643 21.6006 126.092 22.191 125.385 22.6171C124.689 23.0432 123.898 23.2562 123.012 23.2562ZM120.369 17.413H125.42C125.373 16.7922 125.121 16.2809 124.665 15.8792C124.222 15.4653 123.623 15.2583 122.868 15.2583C122.245 15.2583 121.705 15.4531 121.25 15.8427C120.806 16.2322 120.513 16.7557 120.369 17.413Z"/>
</mask>
<path d="M60.0636 10.9307C60.0636 11.2594 59.9497 11.5394 59.722 11.7707C59.4943 12.002 59.2187 12.1176 58.8951 12.1176C58.5715 12.1176 58.2959 12.002 58.0682 11.7707C57.8405 11.5394 57.7266 11.2594 57.7266 10.9307C57.7266 10.6021 57.8405 10.3221 58.0682 10.0908C58.2959 9.85948 58.5715 9.74384 58.8951 9.74384C59.2187 9.74384 59.4943 9.85948 59.722 10.0908C59.9497 10.3221 60.0636 10.6021 60.0636 10.9307ZM59.722 14.0167V22.964H58.0682V14.0167H59.722Z" fill="white"/>
<path d="M68.7918 20.4807C68.7918 21.2598 68.4562 21.9171 67.7851 22.4528C67.114 22.9884 66.2691 23.2562 65.2504 23.2562C64.3635 23.2562 63.5846 23.0249 62.9134 22.5623C62.2423 22.0876 61.7629 21.4667 61.4753 20.6998L62.9494 20.0607C63.1651 20.5963 63.4767 21.0163 63.8842 21.3206C64.3036 21.6128 64.759 21.7589 65.2504 21.7589C65.7777 21.7589 66.2151 21.6432 66.5627 21.412C66.9222 21.1807 67.102 20.9068 67.102 20.5903C67.102 20.0181 66.6705 19.5981 65.8077 19.3303L64.2976 18.9469C62.5839 18.5086 61.727 17.6687 61.727 16.427C61.727 15.6114 62.0506 14.9601 62.6977 14.4732C63.3569 13.9741 64.1958 13.7245 65.2144 13.7245C65.9934 13.7245 66.6945 13.9132 67.3177 14.2906C67.9529 14.6679 68.3963 15.1731 68.648 15.8061L67.1739 16.427C67.0061 16.0496 66.7305 15.7574 66.347 15.5505C65.9754 15.3314 65.556 15.2218 65.0886 15.2218C64.6572 15.2218 64.2677 15.3314 63.9201 15.5505C63.5846 15.7696 63.4168 16.0374 63.4168 16.3539C63.4168 16.8652 63.8902 17.2304 64.8369 17.4495L66.1672 17.7965C67.9169 18.2347 68.7918 19.1295 68.7918 20.4807Z" fill="white"/>
<path d="M74.4502 21.7224C75.2651 21.7224 75.9303 21.4241 76.4456 20.8276C76.9849 20.2311 77.2546 19.452 77.2546 18.4904C77.2546 17.553 76.9849 16.78 76.4456 16.1713C75.9183 15.5627 75.2532 15.2583 74.4502 15.2583C73.6592 15.2583 72.9941 15.5627 72.4548 16.1713C71.9155 16.78 71.6458 17.553 71.6458 18.4904C71.6458 19.4399 71.9155 20.2129 72.4548 20.8094C72.9941 21.418 73.6592 21.7224 74.4502 21.7224ZM74.1805 23.2562C73.03 23.2562 72.0413 22.7936 71.2144 21.8684C70.3995 20.9311 69.992 19.8051 69.992 18.4904C69.992 17.1756 70.3995 16.0496 71.2144 15.1123C72.0413 14.1871 73.03 13.7245 74.1805 13.7245C74.8277 13.7245 75.4149 13.8645 75.9423 14.1445C76.4816 14.4245 76.895 14.7958 77.1826 15.2583H77.2546L77.1826 14.0167V9.88992H78.8365V22.964H77.2546V21.7224H77.1826C76.895 22.185 76.4816 22.5562 75.9423 22.8362C75.4149 23.1162 74.8277 23.2562 74.1805 23.2562Z" fill="white"/>
<path d="M80.4381 18.4904C80.4381 17.1148 80.8635 15.9766 81.7144 15.0757C82.5773 14.1749 83.6619 13.7245 84.9682 13.7245C86.2745 13.7245 87.3531 14.1749 88.204 15.0757C89.0669 15.9766 89.4983 17.1148 89.4983 18.4904C89.4983 19.8781 89.0669 21.0163 88.204 21.905C87.3531 22.8058 86.2745 23.2562 84.9682 23.2562C83.6619 23.2562 82.5773 22.8058 81.7144 21.905C80.8635 21.0041 80.4381 19.8659 80.4381 18.4904ZM82.0919 18.4904C82.0919 19.452 82.3676 20.2311 82.9189 20.8276C83.4701 21.4241 84.1533 21.7224 84.9682 21.7224C85.7831 21.7224 86.4662 21.4241 87.0175 20.8276C87.5688 20.2311 87.8445 19.452 87.8445 18.4904C87.8445 17.5408 87.5688 16.7678 87.0175 16.1713C86.4543 15.5627 85.7712 15.2583 84.9682 15.2583C84.1652 15.2583 83.4821 15.5627 82.9189 16.1713C82.3676 16.7678 82.0919 17.5408 82.0919 18.4904Z" fill="white"/>
<path d="M92.6552 22.964H91.0013V14.0167H92.5833V15.2583H92.6552C92.9068 14.8201 93.2903 14.4549 93.8057 14.1627C94.333 13.8706 94.8543 13.7245 95.3696 13.7245C96.0168 13.7245 96.586 13.8767 97.0774 14.181C97.5688 14.4853 97.9283 14.9053 98.156 15.4409C98.8871 14.2967 99.8997 13.7245 101.194 13.7245C102.213 13.7245 102.998 14.041 103.549 14.674C104.1 15.307 104.376 16.2079 104.376 17.3765V22.964H102.722V17.6321C102.722 16.7922 102.572 16.1896 102.273 15.8244C101.973 15.447 101.47 15.2583 100.763 15.2583C100.127 15.2583 99.5941 15.5322 99.1627 16.08C98.7313 16.6278 98.5155 17.273 98.5155 18.0156V22.964H96.8617V17.6321C96.8617 16.7922 96.7119 16.1896 96.4123 15.8244C96.1127 15.447 95.6093 15.2583 94.9022 15.2583C94.2671 15.2583 93.7338 15.5322 93.3023 16.08C92.8709 16.6278 92.6552 17.273 92.6552 18.0156V22.964Z" fill="white"/>
<path d="M108.625 10.9307C108.625 11.2594 108.511 11.5394 108.283 11.7707C108.056 12.002 107.78 12.1176 107.457 12.1176C107.133 12.1176 106.857 12.002 106.63 11.7707C106.402 11.5394 106.288 11.2594 106.288 10.9307C106.288 10.6021 106.402 10.3221 106.63 10.0908C106.857 9.85948 107.133 9.74384 107.457 9.74384C107.78 9.74384 108.056 9.85948 108.283 10.0908C108.511 10.3221 108.625 10.6021 108.625 10.9307ZM108.283 14.0167V22.964H106.63V14.0167H108.283Z" fill="white"/>
<path d="M117.353 20.4807C117.353 21.2598 117.018 21.9171 116.347 22.4528C115.675 22.9884 114.83 23.2562 113.812 23.2562C112.925 23.2562 112.146 23.0249 111.475 22.5623C110.804 22.0876 110.324 21.4667 110.037 20.6998L111.511 20.0607C111.727 20.5963 112.038 21.0163 112.446 21.3206C112.865 21.6128 113.32 21.7589 113.812 21.7589C114.339 21.7589 114.777 21.6432 115.124 21.412C115.484 21.1807 115.663 20.9068 115.663 20.5903C115.663 20.0181 115.232 19.5981 114.369 19.3303L112.859 18.9469C111.145 18.5086 110.288 17.6687 110.288 16.427C110.288 15.6114 110.612 14.9601 111.259 14.4732C111.918 13.9741 112.757 13.7245 113.776 13.7245C114.555 13.7245 115.256 13.9132 115.879 14.2906C116.514 14.6679 116.958 15.1731 117.209 15.8061L115.735 16.427C115.568 16.0496 115.292 15.7574 114.908 15.5505C114.537 15.3314 114.117 15.2218 113.65 15.2218C113.219 15.2218 112.829 15.3314 112.482 15.5505C112.146 15.7696 111.978 16.0374 111.978 16.3539C111.978 16.8652 112.452 17.2304 113.398 17.4495L114.729 17.7965C116.478 18.2347 117.353 19.1295 117.353 20.4807Z" fill="white"/>
<path d="M123.012 23.2562C121.717 23.2562 120.651 22.8058 119.812 21.905C118.973 21.0041 118.553 19.8659 118.553 18.4904C118.553 17.1269 118.961 15.9948 119.776 15.094C120.591 14.181 121.633 13.7245 122.904 13.7245C124.21 13.7245 125.247 14.1567 126.014 15.021C126.793 15.8731 127.182 17.0722 127.182 18.6182L127.164 18.8008H120.243C120.267 19.6773 120.555 20.3833 121.106 20.9189C121.657 21.4546 122.317 21.7224 123.084 21.7224C124.138 21.7224 124.965 21.1867 125.564 20.1155L127.038 20.8459C126.643 21.6006 126.092 22.191 125.385 22.6171C124.689 23.0432 123.898 23.2562 123.012 23.2562ZM120.369 17.413H125.42C125.373 16.7922 125.121 16.2809 124.665 15.8792C124.222 15.4653 123.623 15.2583 122.868 15.2583C122.245 15.2583 121.705 15.4531 121.25 15.8427C120.806 16.2322 120.513 16.7557 120.369 17.413Z" fill="white"/>
<path d="M60.0636 10.9307C60.0636 11.2594 59.9497 11.5394 59.722 11.7707C59.4943 12.002 59.2187 12.1176 58.8951 12.1176C58.5715 12.1176 58.2959 12.002 58.0682 11.7707C57.8405 11.5394 57.7266 11.2594 57.7266 10.9307C57.7266 10.6021 57.8405 10.3221 58.0682 10.0908C58.2959 9.85948 58.5715 9.74384 58.8951 9.74384C59.2187 9.74384 59.4943 9.85948 59.722 10.0908C59.9497 10.3221 60.0636 10.6021 60.0636 10.9307ZM59.722 14.0167V22.964H58.0682V14.0167H59.722Z" stroke="white" stroke-width="0.572319" mask="url(#path-5-outside-1_140_436)"/>
<path d="M68.7918 20.4807C68.7918 21.2598 68.4562 21.9171 67.7851 22.4528C67.114 22.9884 66.2691 23.2562 65.2504 23.2562C64.3635 23.2562 63.5846 23.0249 62.9134 22.5623C62.2423 22.0876 61.7629 21.4667 61.4753 20.6998L62.9494 20.0607C63.1651 20.5963 63.4767 21.0163 63.8842 21.3206C64.3036 21.6128 64.759 21.7589 65.2504 21.7589C65.7777 21.7589 66.2151 21.6432 66.5627 21.412C66.9222 21.1807 67.102 20.9068 67.102 20.5903C67.102 20.0181 66.6705 19.5981 65.8077 19.3303L64.2976 18.9469C62.5839 18.5086 61.727 17.6687 61.727 16.427C61.727 15.6114 62.0506 14.9601 62.6977 14.4732C63.3569 13.9741 64.1958 13.7245 65.2144 13.7245C65.9934 13.7245 66.6945 13.9132 67.3177 14.2906C67.9529 14.6679 68.3963 15.1731 68.648 15.8061L67.1739 16.427C67.0061 16.0496 66.7305 15.7574 66.347 15.5505C65.9754 15.3314 65.556 15.2218 65.0886 15.2218C64.6572 15.2218 64.2677 15.3314 63.9201 15.5505C63.5846 15.7696 63.4168 16.0374 63.4168 16.3539C63.4168 16.8652 63.8902 17.2304 64.8369 17.4495L66.1672 17.7965C67.9169 18.2347 68.7918 19.1295 68.7918 20.4807Z" stroke="white" stroke-width="0.572319" mask="url(#path-5-outside-1_140_436)"/>
<path d="M74.4502 21.7224C75.2651 21.7224 75.9303 21.4241 76.4456 20.8276C76.9849 20.2311 77.2546 19.452 77.2546 18.4904C77.2546 17.553 76.9849 16.78 76.4456 16.1713C75.9183 15.5627 75.2532 15.2583 74.4502 15.2583C73.6592 15.2583 72.9941 15.5627 72.4548 16.1713C71.9155 16.78 71.6458 17.553 71.6458 18.4904C71.6458 19.4399 71.9155 20.2129 72.4548 20.8094C72.9941 21.418 73.6592 21.7224 74.4502 21.7224ZM74.1805 23.2562C73.03 23.2562 72.0413 22.7936 71.2144 21.8684C70.3995 20.9311 69.992 19.8051 69.992 18.4904C69.992 17.1756 70.3995 16.0496 71.2144 15.1123C72.0413 14.1871 73.03 13.7245 74.1805 13.7245C74.8277 13.7245 75.4149 13.8645 75.9423 14.1445C76.4816 14.4245 76.895 14.7958 77.1826 15.2583H77.2546L77.1826 14.0167V9.88992H78.8365V22.964H77.2546V21.7224H77.1826C76.895 22.185 76.4816 22.5562 75.9423 22.8362C75.4149 23.1162 74.8277 23.2562 74.1805 23.2562Z" stroke="white" stroke-width="0.572319" mask="url(#path-5-outside-1_140_436)"/>
<path d="M80.4381 18.4904C80.4381 17.1148 80.8635 15.9766 81.7144 15.0757C82.5773 14.1749 83.6619 13.7245 84.9682 13.7245C86.2745 13.7245 87.3531 14.1749 88.204 15.0757C89.0669 15.9766 89.4983 17.1148 89.4983 18.4904C89.4983 19.8781 89.0669 21.0163 88.204 21.905C87.3531 22.8058 86.2745 23.2562 84.9682 23.2562C83.6619 23.2562 82.5773 22.8058 81.7144 21.905C80.8635 21.0041 80.4381 19.8659 80.4381 18.4904ZM82.0919 18.4904C82.0919 19.452 82.3676 20.2311 82.9189 20.8276C83.4701 21.4241 84.1533 21.7224 84.9682 21.7224C85.7831 21.7224 86.4662 21.4241 87.0175 20.8276C87.5688 20.2311 87.8445 19.452 87.8445 18.4904C87.8445 17.5408 87.5688 16.7678 87.0175 16.1713C86.4543 15.5627 85.7712 15.2583 84.9682 15.2583C84.1652 15.2583 83.4821 15.5627 82.9189 16.1713C82.3676 16.7678 82.0919 17.5408 82.0919 18.4904Z" stroke="white" stroke-width="0.572319" mask="url(#path-5-outside-1_140_436)"/>
<path d="M92.6552 22.964H91.0013V14.0167H92.5833V15.2583H92.6552C92.9068 14.8201 93.2903 14.4549 93.8057 14.1627C94.333 13.8706 94.8543 13.7245 95.3696 13.7245C96.0168 13.7245 96.586 13.8767 97.0774 14.181C97.5688 14.4853 97.9283 14.9053 98.156 15.4409C98.8871 14.2967 99.8997 13.7245 101.194 13.7245C102.213 13.7245 102.998 14.041 103.549 14.674C104.1 15.307 104.376 16.2079 104.376 17.3765V22.964H102.722V17.6321C102.722 16.7922 102.572 16.1896 102.273 15.8244C101.973 15.447 101.47 15.2583 100.763 15.2583C100.127 15.2583 99.5941 15.5322 99.1627 16.08C98.7313 16.6278 98.5155 17.273 98.5155 18.0156V22.964H96.8617V17.6321C96.8617 16.7922 96.7119 16.1896 96.4123 15.8244C96.1127 15.447 95.6093 15.2583 94.9022 15.2583C94.2671 15.2583 93.7338 15.5322 93.3023 16.08C92.8709 16.6278 92.6552 17.273 92.6552 18.0156V22.964Z" stroke="white" stroke-width="0.572319" mask="url(#path-5-outside-1_140_436)"/>
<path d="M108.625 10.9307C108.625 11.2594 108.511 11.5394 108.283 11.7707C108.056 12.002 107.78 12.1176 107.457 12.1176C107.133 12.1176 106.857 12.002 106.63 11.7707C106.402 11.5394 106.288 11.2594 106.288 10.9307C106.288 10.6021 106.402 10.3221 106.63 10.0908C106.857 9.85948 107.133 9.74384 107.457 9.74384C107.78 9.74384 108.056 9.85948 108.283 10.0908C108.511 10.3221 108.625 10.6021 108.625 10.9307ZM108.283 14.0167V22.964H106.63V14.0167H108.283Z" stroke="white" stroke-width="0.572319" mask="url(#path-5-outside-1_140_436)"/>
<path d="M117.353 20.4807C117.353 21.2598 117.018 21.9171 116.347 22.4528C115.675 22.9884 114.83 23.2562 113.812 23.2562C112.925 23.2562 112.146 23.0249 111.475 22.5623C110.804 22.0876 110.324 21.4667 110.037 20.6998L111.511 20.0607C111.727 20.5963 112.038 21.0163 112.446 21.3206C112.865 21.6128 113.32 21.7589 113.812 21.7589C114.339 21.7589 114.777 21.6432 115.124 21.412C115.484 21.1807 115.663 20.9068 115.663 20.5903C115.663 20.0181 115.232 19.5981 114.369 19.3303L112.859 18.9469C111.145 18.5086 110.288 17.6687 110.288 16.427C110.288 15.6114 110.612 14.9601 111.259 14.4732C111.918 13.9741 112.757 13.7245 113.776 13.7245C114.555 13.7245 115.256 13.9132 115.879 14.2906C116.514 14.6679 116.958 15.1731 117.209 15.8061L115.735 16.427C115.568 16.0496 115.292 15.7574 114.908 15.5505C114.537 15.3314 114.117 15.2218 113.65 15.2218C113.219 15.2218 112.829 15.3314 112.482 15.5505C112.146 15.7696 111.978 16.0374 111.978 16.3539C111.978 16.8652 112.452 17.2304 113.398 17.4495L114.729 17.7965C116.478 18.2347 117.353 19.1295 117.353 20.4807Z" stroke="white" stroke-width="0.572319" mask="url(#path-5-outside-1_140_436)"/>
<path d="M123.012 23.2562C121.717 23.2562 120.651 22.8058 119.812 21.905C118.973 21.0041 118.553 19.8659 118.553 18.4904C118.553 17.1269 118.961 15.9948 119.776 15.094C120.591 14.181 121.633 13.7245 122.904 13.7245C124.21 13.7245 125.247 14.1567 126.014 15.021C126.793 15.8731 127.182 17.0722 127.182 18.6182L127.164 18.8008H120.243C120.267 19.6773 120.555 20.3833 121.106 20.9189C121.657 21.4546 122.317 21.7224 123.084 21.7224C124.138 21.7224 124.965 21.1867 125.564 20.1155L127.038 20.8459C126.643 21.6006 126.092 22.191 125.385 22.6171C124.689 23.0432 123.898 23.2562 123.012 23.2562ZM120.369 17.413H125.42C125.373 16.7922 125.121 16.2809 124.665 15.8792C124.222 15.4653 123.623 15.2583 122.868 15.2583C122.245 15.2583 121.705 15.4531 121.25 15.8427C120.806 16.2322 120.513 16.7557 120.369 17.413Z" stroke="white" stroke-width="0.572319" mask="url(#path-5-outside-1_140_436)"/>
<rect x="137.182" y="5" width="59" height="23" rx="11.5" fill="white"/>
<path d="M157.294 16.192C157.598 16.24 157.874 16.364 158.122 16.564C158.378 16.764 158.578 17.012 158.722 17.308C158.874 17.604 158.95 17.92 158.95 18.256C158.95 18.68 158.842 19.064 158.626 19.408C158.41 19.744 158.094 20.012 157.678 20.212C157.27 20.404 156.786 20.5 156.226 20.5H153.106V12.136H156.106C156.674 12.136 157.158 12.232 157.558 12.424C157.958 12.608 158.258 12.86 158.458 13.18C158.658 13.5 158.758 13.86 158.758 14.26C158.758 14.756 158.622 15.168 158.35 15.496C158.086 15.816 157.734 16.048 157.294 16.192ZM154.198 15.748H156.034C156.546 15.748 156.942 15.628 157.222 15.388C157.502 15.148 157.642 14.816 157.642 14.392C157.642 13.968 157.502 13.636 157.222 13.396C156.942 13.156 156.538 13.036 156.01 13.036H154.198V15.748ZM156.13 19.6C156.674 19.6 157.098 19.472 157.402 19.216C157.706 18.96 157.858 18.604 157.858 18.148C157.858 17.684 157.698 17.32 157.378 17.056C157.058 16.784 156.63 16.648 156.094 16.648H154.198V19.6H156.13ZM161.558 13.024V15.82H164.606V16.72H161.558V19.6H164.966V20.5H160.466V12.124H164.966V13.024H161.558ZM171.766 12.136V13.024H169.486V20.5H168.394V13.024H166.102V12.136H171.766ZM178.054 18.64H174.406L173.734 20.5H172.582L175.606 12.184H176.866L179.878 20.5H178.726L178.054 18.64ZM177.742 17.752L176.23 13.528L174.718 17.752H177.742Z" fill="#131822"/>
<defs>
<linearGradient id="paint0_linear_140_436" x1="33.2537" y1="0.0202953" x2="-0.85525" y2="31.9894" gradientUnits="userSpaceOnUse">
<stop stop-color="#00A3FF"/>
<stop offset="1" stop-color="#FF00C7"/>
</linearGradient>
<linearGradient id="paint1_linear_140_436" x1="35.2383" y1="0.0202911" x2="-2.85257" y2="1.95198" gradientUnits="userSpaceOnUse">
<stop stop-color="#00FFF0"/>
<stop offset="0.0001" stop-color="#13DEF2"/>
<stop offset="0.855974" stop-color="#E26CFF"/>
</linearGradient>
</defs>
</svg>
