<svg width="24" height="24" viewBox="0 0 24 24" fill="none" xmlns="http://www.w3.org/2000/svg">
<path d="M20.1498 9.62357C20.3428 10.3349 20.4445 11.0828 20.4445 11.8585C20.4445 16.5778 16.6218 20.4005 11.9034 20.4005C7.18402 20.4005 3.36035 16.5778 3.36035 11.8585C3.36035 7.1487 7.18402 3.31543 11.9034 3.31543C12.6138 3.31543 13.306 3.40854 13.9712 3.56598" stroke="white" stroke-width="1.44" stroke-linecap="round" stroke-linejoin="round"/>
<path d="M11.9118 7.23755H11.9031C9.34378 7.23755 7.27499 9.30637 7.27499 11.8542C7.27499 14.4126 9.34378 16.4805 11.9031 16.4805C14.3684 16.4805 16.3998 14.5413 16.5102 12.0942" stroke="white" stroke-width="1.44" stroke-linecap="round" stroke-linejoin="round"/>
<path d="M20.6403 5.39555H18.5081V3.26245" stroke="white" stroke-width="1.44" stroke-linecap="round" stroke-linejoin="round"/>
<path d="M13.1606 10.7495L18.5098 5.40039" stroke="white" stroke-width="1.44" stroke-linecap="round" stroke-linejoin="round"/>
</svg>
