<svg width="128" height="48" viewBox="0 0 128 48" fill="none" xmlns="http://www.w3.org/2000/svg">
<path opacity="0.65" fill-rule="evenodd" clip-rule="evenodd" d="M16.6146 40.4233C25.5534 40.4233 32.7998 33.0577 32.7998 23.9718C32.7998 14.8859 25.5534 7.52029 16.6146 7.52029C7.67574 7.52029 0.429369 14.8859 0.429369 23.9718C0.429368 33.0577 7.67574 40.4233 16.6146 40.4233ZM22.2961 14.2557C23.6344 13.7693 25.1316 13.2254 26.2145 14.3261C27.2975 15.4269 26.7623 16.9487 26.2839 18.309C26.2606 18.3754 26.2374 18.4413 26.2145 18.5067C26.0689 18.9239 25.8566 19.4486 25.63 20.0089C25.0912 21.3409 24.471 22.874 24.471 23.6416C24.471 24.7322 25.6781 28.2312 26.1698 29.4581C26.6616 30.685 27.2832 32.507 26.1475 33.6614C25.0117 34.8159 23.2192 34.184 22.0122 33.6841C20.8051 33.1843 17.3628 31.9574 16.2899 31.9574C15.5346 31.9574 14.0264 32.5878 12.716 33.1354C12.1647 33.3658 11.6485 33.5816 11.2381 33.7296C11.1737 33.7528 11.1089 33.7764 11.0437 33.8001C9.70534 34.2864 8.20816 34.8304 7.12517 33.7296C6.04219 32.6288 6.57741 31.107 7.05582 29.7467C7.07913 29.6804 7.10231 29.6145 7.12517 29.549C7.2708 29.1318 7.48306 28.6071 7.70973 28.0467C8.24852 26.7148 8.8687 25.1817 8.8687 24.4141C8.8687 23.3235 7.66164 19.8245 7.16988 18.5976C6.67812 17.3707 6.05647 15.5487 7.19223 14.3943C8.32799 13.2399 10.1205 13.8717 11.3275 14.3716C12.5346 14.8714 15.9769 16.0984 17.0499 16.0984C17.8051 16.0984 19.3133 15.468 20.6237 14.9203C21.175 14.6899 21.6912 14.4742 22.1016 14.3261C22.166 14.3029 22.2309 14.2794 22.2961 14.2557Z" fill="url(#paint0_linear_5834_28227)"/>
<path opacity="0.65" fill-rule="evenodd" clip-rule="evenodd" d="M28.0583 12.3391C21.7376 5.91436 11.4897 5.91436 5.16894 12.3391C-1.15178 18.7638 -1.15178 29.1803 5.16894 35.605C11.4897 42.0298 21.7376 42.0298 28.0583 35.605C34.379 29.1803 34.379 18.7638 28.0583 12.3391ZM5.83723 26.7587C4.5526 26.1407 3.1155 25.4493 3.1155 23.8925C3.1155 22.3358 4.5526 21.6444 5.83723 21.0263C5.89984 20.9962 5.96208 20.9662 6.02378 20.9364C6.41695 20.7461 6.93208 20.5276 7.48218 20.2943C8.78971 19.7397 10.2948 19.1014 10.8288 18.5586C11.5875 17.7875 13.168 14.4457 13.6738 13.2247C14.1796 12.0037 15.0075 10.2686 16.6137 10.2686C18.2199 10.2686 19.0478 12.0037 19.5536 13.2247C20.0594 14.4457 21.64 17.7875 22.3987 18.5586C22.9327 19.1014 24.4377 19.7397 25.7453 20.2943C26.2954 20.5276 26.8105 20.7461 27.2037 20.9364C27.2654 20.9663 27.3276 20.9962 27.3902 21.0263C28.6748 21.6444 30.1119 22.3358 30.1119 23.8925C30.1119 25.4493 28.6748 26.1407 27.3902 26.7587C27.3276 26.7888 27.2654 26.8188 27.2037 26.8486C26.8105 27.0389 26.2954 27.2574 25.7453 27.4907C24.4377 28.0453 22.9327 28.6836 22.3987 29.2264C21.64 29.9976 20.0594 33.3393 19.5536 34.5603C19.0478 35.7813 18.2199 37.5164 16.6137 37.5164C15.0075 37.5164 14.1796 35.7813 13.6738 34.5603C13.168 33.3393 11.5874 29.9976 10.8288 29.2264C10.2947 28.6836 8.7897 28.0453 7.48217 27.4907C6.93208 27.2574 6.41694 27.0389 6.02378 26.8486C5.96208 26.8188 5.89983 26.7888 5.83723 26.7587Z" fill="url(#paint1_linear_5834_28227)"/>
<path d="M52.2602 28.0285L50.228 22.8824H48.25L51.4457 30.4956H53.0165L56.7044 21.5125H54.77L52.2602 28.0285Z" fill="white" fill-opacity="0.8"/>
<path d="M52.2585 27.6347L50.3611 22.8299L50.3254 22.7393H50.228H48.25H48.0348L48.1181 22.9378L51.3138 30.551L51.3506 30.6387H51.4457H53.0165H53.1124L53.1489 30.55L56.8367 21.5668L56.9178 21.3694H56.7044H54.77H54.6718L54.6365 21.461L52.2585 27.6347Z" stroke="white" stroke-opacity="0.8" stroke-width="0.286159"/>
<path d="M44.853 21.5125L48.6171 30.4956H46.6685L42.875 21.5125H44.853Z" fill="white" fill-opacity="0.8"/>
<path d="M44.985 21.4572L44.9482 21.3694H44.853H42.875H42.6593L42.7432 21.5681L46.5367 30.5513L46.5736 30.6387H46.6685H48.6171H48.8321L48.749 30.4403L44.985 21.4572Z" stroke="white" stroke-opacity="0.8" stroke-width="0.286159"/>
<mask id="path-7-outside-1_5834_28227" maskUnits="userSpaceOnUse" x="57.1357" y="16.2439" width="71" height="15" fill="black">
<rect fill="white" x="57.1357" y="16.2439" width="71" height="15"/>
<path d="M60.4727 18.4308C60.4727 18.7595 60.3589 19.0395 60.1311 19.2708C59.9034 19.502 59.6278 19.6177 59.3042 19.6177C58.9806 19.6177 58.705 19.502 58.4773 19.2708C58.2496 19.0395 58.1357 18.7595 58.1357 18.4308C58.1357 18.1021 58.2496 17.8221 58.4773 17.5908C58.705 17.3595 58.9806 17.2439 59.3042 17.2439C59.6278 17.2439 59.9034 17.3595 60.1311 17.5908C60.3589 17.8221 60.4727 18.1021 60.4727 18.4308ZM60.1311 21.5167V30.4641H58.4773V21.5167H60.1311Z"/>
<path d="M69.2009 27.9808C69.2009 28.7598 68.8653 29.4172 68.1942 29.9528C67.5231 30.4885 66.6782 30.7563 65.6595 30.7563C64.7727 30.7563 63.9937 30.525 63.3225 30.0624C62.6514 29.5876 62.172 28.9668 61.8844 28.1999L63.3585 27.5608C63.5742 28.0964 63.8858 28.5164 64.2933 28.8207C64.7127 29.1129 65.1681 29.2589 65.6595 29.2589C66.1868 29.2589 66.6243 29.1433 66.9718 28.912C67.3313 28.6807 67.5111 28.4068 67.5111 28.0903C67.5111 27.5182 67.0797 27.0982 66.2168 26.8304L64.7067 26.4469C62.993 26.0087 62.1361 25.1687 62.1361 23.927C62.1361 23.1114 62.4597 22.4602 63.1068 21.9732C63.766 21.4741 64.6049 21.2246 65.6236 21.2246C66.4025 21.2246 67.1036 21.4133 67.7268 21.7906C68.362 22.168 68.8054 22.6732 69.0571 23.3062L67.583 23.927C67.4152 23.5497 67.1396 23.2575 66.7561 23.0506C66.3846 22.8314 65.9651 22.7219 65.4977 22.7219C65.0663 22.7219 64.6768 22.8314 64.3292 23.0506C63.9937 23.2697 63.8259 23.5375 63.8259 23.854C63.8259 24.3653 64.2993 24.7305 65.246 24.9496L66.5763 25.2965C68.326 25.7348 69.2009 26.6295 69.2009 27.9808Z"/>
<path d="M74.8593 29.2224C75.6743 29.2224 76.3394 28.9242 76.8547 28.3277C77.394 27.7312 77.6637 26.9521 77.6637 25.9904C77.6637 25.0531 77.394 24.2801 76.8547 23.6714C76.3274 23.0627 75.6623 22.7584 74.8593 22.7584C74.0683 22.7584 73.4032 23.0627 72.8639 23.6714C72.3246 24.2801 72.055 25.0531 72.055 25.9904C72.055 26.9399 72.3246 27.7129 72.8639 28.3094C73.4032 28.9181 74.0683 29.2224 74.8593 29.2224ZM74.5897 30.7563C73.4392 30.7563 72.4504 30.2937 71.6235 29.3685C70.8086 28.4312 70.4011 27.3051 70.4011 25.9904C70.4011 24.6757 70.8086 23.5497 71.6235 22.6123C72.4504 21.6872 73.4392 21.2246 74.5897 21.2246C75.2368 21.2246 75.8241 21.3646 76.3514 21.6445C76.8907 21.9245 77.3041 22.2958 77.5918 22.7584H77.6637L77.5918 21.5167V17.39H79.2456V30.4641H77.6637V29.2224H77.5918C77.3041 29.685 76.8907 30.0563 76.3514 30.3363C75.8241 30.6163 75.2368 30.7563 74.5897 30.7563Z"/>
<path d="M80.8472 25.9904C80.8472 24.6148 81.2727 23.4766 82.1235 22.5758C82.9864 21.675 84.071 21.2246 85.3773 21.2246C86.6836 21.2246 87.7622 21.675 88.6131 22.5758C89.476 23.4766 89.9074 24.6148 89.9074 25.9904C89.9074 27.3782 89.476 28.5164 88.6131 29.405C87.7622 30.3059 86.6836 30.7563 85.3773 30.7563C84.071 30.7563 82.9864 30.3059 82.1235 29.405C81.2727 28.5042 80.8472 27.366 80.8472 25.9904ZM82.5011 25.9904C82.5011 26.9521 82.7767 27.7312 83.328 28.3277C83.8793 28.9242 84.5624 29.2224 85.3773 29.2224C86.1923 29.2224 86.8754 28.9242 87.4267 28.3277C87.9779 27.7312 88.2536 26.9521 88.2536 25.9904C88.2536 25.0409 87.9779 24.2679 87.4267 23.6714C86.8634 23.0627 86.1803 22.7584 85.3773 22.7584C84.5744 22.7584 83.8912 23.0627 83.328 23.6714C82.7767 24.2679 82.5011 25.0409 82.5011 25.9904Z"/>
<path d="M93.0643 30.4641H91.4104V21.5167H92.9924V22.7584H93.0643C93.3159 22.3202 93.6995 21.955 94.2148 21.6628C94.7421 21.3706 95.2634 21.2246 95.7787 21.2246C96.4259 21.2246 96.9952 21.3767 97.4865 21.6811C97.9779 21.9854 98.3374 22.4054 98.5651 22.941C99.2962 21.7967 100.309 21.2246 101.603 21.2246C102.622 21.2246 103.407 21.5411 103.958 22.1741C104.509 22.8071 104.785 23.7079 104.785 24.8766V30.4641H103.131V25.1322C103.131 24.2922 102.981 23.6897 102.682 23.3245C102.382 22.9471 101.879 22.7584 101.172 22.7584C100.537 22.7584 100.003 23.0323 99.5718 23.5801C99.1404 24.1279 98.9247 24.7731 98.9247 25.5157V30.4641H97.2708V25.1322C97.2708 24.2922 97.121 23.6897 96.8214 23.3245C96.5218 22.9471 96.0184 22.7584 95.3114 22.7584C94.6762 22.7584 94.1429 23.0323 93.7114 23.5801C93.28 24.1279 93.0643 24.7731 93.0643 25.5157V30.4641Z"/>
<path d="M109.034 18.4308C109.034 18.7595 108.92 19.0395 108.693 19.2708C108.465 19.502 108.189 19.6177 107.866 19.6177C107.542 19.6177 107.266 19.502 107.039 19.2708C106.811 19.0395 106.697 18.7595 106.697 18.4308C106.697 18.1021 106.811 17.8221 107.039 17.5908C107.266 17.3595 107.542 17.2439 107.866 17.2439C108.189 17.2439 108.465 17.3595 108.693 17.5908C108.92 17.8221 109.034 18.1021 109.034 18.4308ZM108.693 21.5167V30.4641H107.039V21.5167H108.693Z"/>
<path d="M117.762 27.9808C117.762 28.7598 117.427 29.4172 116.756 29.9528C116.084 30.4885 115.24 30.7563 114.221 30.7563C113.334 30.7563 112.555 30.525 111.884 30.0624C111.213 29.5876 110.733 28.9668 110.446 28.1999L111.92 27.5608C112.136 28.0964 112.447 28.5164 112.855 28.8207C113.274 29.1129 113.73 29.2589 114.221 29.2589C114.748 29.2589 115.186 29.1433 115.533 28.912C115.893 28.6807 116.073 28.4068 116.073 28.0903C116.073 27.5182 115.641 27.0982 114.778 26.8304L113.268 26.4469C111.554 26.0087 110.697 25.1687 110.697 23.927C110.697 23.1114 111.021 22.4602 111.668 21.9732C112.327 21.4741 113.166 21.2246 114.185 21.2246C114.964 21.2246 115.665 21.4133 116.288 21.7906C116.923 22.168 117.367 22.6732 117.618 23.3062L116.144 23.927C115.977 23.5497 115.701 23.2575 115.317 23.0506C114.946 22.8314 114.527 22.7219 114.059 22.7219C113.628 22.7219 113.238 22.8314 112.891 23.0506C112.555 23.2697 112.387 23.5375 112.387 23.854C112.387 24.3653 112.861 24.7305 113.807 24.9496L115.138 25.2965C116.887 25.7348 117.762 26.6295 117.762 27.9808Z"/>
<path d="M123.421 30.7563C122.126 30.7563 121.06 30.3059 120.221 29.405C119.382 28.5042 118.963 27.366 118.963 25.9904C118.963 24.627 119.37 23.4949 120.185 22.5941C121 21.6811 122.043 21.2246 123.313 21.2246C124.619 21.2246 125.656 21.6567 126.423 22.521C127.202 23.3732 127.591 24.5722 127.591 26.1182L127.573 26.3008H120.652C120.676 27.1773 120.964 27.8834 121.515 28.419C122.066 28.9546 122.726 29.2224 123.493 29.2224C124.547 29.2224 125.374 28.6868 125.973 27.6156L127.447 28.346C127.052 29.1007 126.501 29.6911 125.794 30.1172C125.099 30.5432 124.308 30.7563 123.421 30.7563ZM120.778 24.9131H125.83C125.782 24.2922 125.53 23.781 125.075 23.3792C124.631 22.9654 124.032 22.7584 123.277 22.7584C122.654 22.7584 122.114 22.9532 121.659 23.3427C121.216 23.7323 120.922 24.2557 120.778 24.9131Z"/>
</mask>
<path d="M60.4727 18.4308C60.4727 18.7595 60.3589 19.0395 60.1311 19.2708C59.9034 19.502 59.6278 19.6177 59.3042 19.6177C58.9806 19.6177 58.705 19.502 58.4773 19.2708C58.2496 19.0395 58.1357 18.7595 58.1357 18.4308C58.1357 18.1021 58.2496 17.8221 58.4773 17.5908C58.705 17.3595 58.9806 17.2439 59.3042 17.2439C59.6278 17.2439 59.9034 17.3595 60.1311 17.5908C60.3589 17.8221 60.4727 18.1021 60.4727 18.4308ZM60.1311 21.5167V30.4641H58.4773V21.5167H60.1311Z" fill="white" fill-opacity="0.8"/>
<path d="M69.2009 27.9808C69.2009 28.7598 68.8653 29.4172 68.1942 29.9528C67.5231 30.4885 66.6782 30.7563 65.6595 30.7563C64.7727 30.7563 63.9937 30.525 63.3225 30.0624C62.6514 29.5876 62.172 28.9668 61.8844 28.1999L63.3585 27.5608C63.5742 28.0964 63.8858 28.5164 64.2933 28.8207C64.7127 29.1129 65.1681 29.2589 65.6595 29.2589C66.1868 29.2589 66.6243 29.1433 66.9718 28.912C67.3313 28.6807 67.5111 28.4068 67.5111 28.0903C67.5111 27.5182 67.0797 27.0982 66.2168 26.8304L64.7067 26.4469C62.993 26.0087 62.1361 25.1687 62.1361 23.927C62.1361 23.1114 62.4597 22.4602 63.1068 21.9732C63.766 21.4741 64.6049 21.2246 65.6236 21.2246C66.4025 21.2246 67.1036 21.4133 67.7268 21.7906C68.362 22.168 68.8054 22.6732 69.0571 23.3062L67.583 23.927C67.4152 23.5497 67.1396 23.2575 66.7561 23.0506C66.3846 22.8314 65.9651 22.7219 65.4977 22.7219C65.0663 22.7219 64.6768 22.8314 64.3292 23.0506C63.9937 23.2697 63.8259 23.5375 63.8259 23.854C63.8259 24.3653 64.2993 24.7305 65.246 24.9496L66.5763 25.2965C68.326 25.7348 69.2009 26.6295 69.2009 27.9808Z" fill="white" fill-opacity="0.8"/>
<path d="M74.8593 29.2224C75.6743 29.2224 76.3394 28.9242 76.8547 28.3277C77.394 27.7312 77.6637 26.9521 77.6637 25.9904C77.6637 25.0531 77.394 24.2801 76.8547 23.6714C76.3274 23.0627 75.6623 22.7584 74.8593 22.7584C74.0683 22.7584 73.4032 23.0627 72.8639 23.6714C72.3246 24.2801 72.055 25.0531 72.055 25.9904C72.055 26.9399 72.3246 27.7129 72.8639 28.3094C73.4032 28.9181 74.0683 29.2224 74.8593 29.2224ZM74.5897 30.7563C73.4392 30.7563 72.4504 30.2937 71.6235 29.3685C70.8086 28.4312 70.4011 27.3051 70.4011 25.9904C70.4011 24.6757 70.8086 23.5497 71.6235 22.6123C72.4504 21.6872 73.4392 21.2246 74.5897 21.2246C75.2368 21.2246 75.8241 21.3646 76.3514 21.6445C76.8907 21.9245 77.3041 22.2958 77.5918 22.7584H77.6637L77.5918 21.5167V17.39H79.2456V30.4641H77.6637V29.2224H77.5918C77.3041 29.685 76.8907 30.0563 76.3514 30.3363C75.8241 30.6163 75.2368 30.7563 74.5897 30.7563Z" fill="white" fill-opacity="0.8"/>
<path d="M80.8472 25.9904C80.8472 24.6148 81.2727 23.4766 82.1235 22.5758C82.9864 21.675 84.071 21.2246 85.3773 21.2246C86.6836 21.2246 87.7622 21.675 88.6131 22.5758C89.476 23.4766 89.9074 24.6148 89.9074 25.9904C89.9074 27.3782 89.476 28.5164 88.6131 29.405C87.7622 30.3059 86.6836 30.7563 85.3773 30.7563C84.071 30.7563 82.9864 30.3059 82.1235 29.405C81.2727 28.5042 80.8472 27.366 80.8472 25.9904ZM82.5011 25.9904C82.5011 26.9521 82.7767 27.7312 83.328 28.3277C83.8793 28.9242 84.5624 29.2224 85.3773 29.2224C86.1923 29.2224 86.8754 28.9242 87.4267 28.3277C87.9779 27.7312 88.2536 26.9521 88.2536 25.9904C88.2536 25.0409 87.9779 24.2679 87.4267 23.6714C86.8634 23.0627 86.1803 22.7584 85.3773 22.7584C84.5744 22.7584 83.8912 23.0627 83.328 23.6714C82.7767 24.2679 82.5011 25.0409 82.5011 25.9904Z" fill="white" fill-opacity="0.8"/>
<path d="M93.0643 30.4641H91.4104V21.5167H92.9924V22.7584H93.0643C93.3159 22.3202 93.6995 21.955 94.2148 21.6628C94.7421 21.3706 95.2634 21.2246 95.7787 21.2246C96.4259 21.2246 96.9952 21.3767 97.4865 21.6811C97.9779 21.9854 98.3374 22.4054 98.5651 22.941C99.2962 21.7967 100.309 21.2246 101.603 21.2246C102.622 21.2246 103.407 21.5411 103.958 22.1741C104.509 22.8071 104.785 23.7079 104.785 24.8766V30.4641H103.131V25.1322C103.131 24.2922 102.981 23.6897 102.682 23.3245C102.382 22.9471 101.879 22.7584 101.172 22.7584C100.537 22.7584 100.003 23.0323 99.5718 23.5801C99.1404 24.1279 98.9247 24.7731 98.9247 25.5157V30.4641H97.2708V25.1322C97.2708 24.2922 97.121 23.6897 96.8214 23.3245C96.5218 22.9471 96.0184 22.7584 95.3114 22.7584C94.6762 22.7584 94.1429 23.0323 93.7114 23.5801C93.28 24.1279 93.0643 24.7731 93.0643 25.5157V30.4641Z" fill="white" fill-opacity="0.8"/>
<path d="M109.034 18.4308C109.034 18.7595 108.92 19.0395 108.693 19.2708C108.465 19.502 108.189 19.6177 107.866 19.6177C107.542 19.6177 107.266 19.502 107.039 19.2708C106.811 19.0395 106.697 18.7595 106.697 18.4308C106.697 18.1021 106.811 17.8221 107.039 17.5908C107.266 17.3595 107.542 17.2439 107.866 17.2439C108.189 17.2439 108.465 17.3595 108.693 17.5908C108.92 17.8221 109.034 18.1021 109.034 18.4308ZM108.693 21.5167V30.4641H107.039V21.5167H108.693Z" fill="white" fill-opacity="0.8"/>
<path d="M117.762 27.9808C117.762 28.7598 117.427 29.4172 116.756 29.9528C116.084 30.4885 115.24 30.7563 114.221 30.7563C113.334 30.7563 112.555 30.525 111.884 30.0624C111.213 29.5876 110.733 28.9668 110.446 28.1999L111.92 27.5608C112.136 28.0964 112.447 28.5164 112.855 28.8207C113.274 29.1129 113.73 29.2589 114.221 29.2589C114.748 29.2589 115.186 29.1433 115.533 28.912C115.893 28.6807 116.073 28.4068 116.073 28.0903C116.073 27.5182 115.641 27.0982 114.778 26.8304L113.268 26.4469C111.554 26.0087 110.697 25.1687 110.697 23.927C110.697 23.1114 111.021 22.4602 111.668 21.9732C112.327 21.4741 113.166 21.2246 114.185 21.2246C114.964 21.2246 115.665 21.4133 116.288 21.7906C116.923 22.168 117.367 22.6732 117.618 23.3062L116.144 23.927C115.977 23.5497 115.701 23.2575 115.317 23.0506C114.946 22.8314 114.527 22.7219 114.059 22.7219C113.628 22.7219 113.238 22.8314 112.891 23.0506C112.555 23.2697 112.387 23.5375 112.387 23.854C112.387 24.3653 112.861 24.7305 113.807 24.9496L115.138 25.2965C116.887 25.7348 117.762 26.6295 117.762 27.9808Z" fill="white" fill-opacity="0.8"/>
<path d="M123.421 30.7563C122.126 30.7563 121.06 30.3059 120.221 29.405C119.382 28.5042 118.963 27.366 118.963 25.9904C118.963 24.627 119.37 23.4949 120.185 22.5941C121 21.6811 122.043 21.2246 123.313 21.2246C124.619 21.2246 125.656 21.6567 126.423 22.521C127.202 23.3732 127.591 24.5722 127.591 26.1182L127.573 26.3008H120.652C120.676 27.1773 120.964 27.8834 121.515 28.419C122.066 28.9546 122.726 29.2224 123.493 29.2224C124.547 29.2224 125.374 28.6868 125.973 27.6156L127.447 28.346C127.052 29.1007 126.501 29.6911 125.794 30.1172C125.099 30.5432 124.308 30.7563 123.421 30.7563ZM120.778 24.9131H125.83C125.782 24.2922 125.53 23.781 125.075 23.3792C124.631 22.9654 124.032 22.7584 123.277 22.7584C122.654 22.7584 122.114 22.9532 121.659 23.3427C121.216 23.7323 120.922 24.2557 120.778 24.9131Z" fill="white" fill-opacity="0.8"/>
<path d="M60.4727 18.4308C60.4727 18.7595 60.3589 19.0395 60.1311 19.2708C59.9034 19.502 59.6278 19.6177 59.3042 19.6177C58.9806 19.6177 58.705 19.502 58.4773 19.2708C58.2496 19.0395 58.1357 18.7595 58.1357 18.4308C58.1357 18.1021 58.2496 17.8221 58.4773 17.5908C58.705 17.3595 58.9806 17.2439 59.3042 17.2439C59.6278 17.2439 59.9034 17.3595 60.1311 17.5908C60.3589 17.8221 60.4727 18.1021 60.4727 18.4308ZM60.1311 21.5167V30.4641H58.4773V21.5167H60.1311Z" stroke="white" stroke-opacity="0.8" stroke-width="0.572319" mask="url(#path-7-outside-1_5834_28227)"/>
<path d="M69.2009 27.9808C69.2009 28.7598 68.8653 29.4172 68.1942 29.9528C67.5231 30.4885 66.6782 30.7563 65.6595 30.7563C64.7727 30.7563 63.9937 30.525 63.3225 30.0624C62.6514 29.5876 62.172 28.9668 61.8844 28.1999L63.3585 27.5608C63.5742 28.0964 63.8858 28.5164 64.2933 28.8207C64.7127 29.1129 65.1681 29.2589 65.6595 29.2589C66.1868 29.2589 66.6243 29.1433 66.9718 28.912C67.3313 28.6807 67.5111 28.4068 67.5111 28.0903C67.5111 27.5182 67.0797 27.0982 66.2168 26.8304L64.7067 26.4469C62.993 26.0087 62.1361 25.1687 62.1361 23.927C62.1361 23.1114 62.4597 22.4602 63.1068 21.9732C63.766 21.4741 64.6049 21.2246 65.6236 21.2246C66.4025 21.2246 67.1036 21.4133 67.7268 21.7906C68.362 22.168 68.8054 22.6732 69.0571 23.3062L67.583 23.927C67.4152 23.5497 67.1396 23.2575 66.7561 23.0506C66.3846 22.8314 65.9651 22.7219 65.4977 22.7219C65.0663 22.7219 64.6768 22.8314 64.3292 23.0506C63.9937 23.2697 63.8259 23.5375 63.8259 23.854C63.8259 24.3653 64.2993 24.7305 65.246 24.9496L66.5763 25.2965C68.326 25.7348 69.2009 26.6295 69.2009 27.9808Z" stroke="white" stroke-opacity="0.8" stroke-width="0.572319" mask="url(#path-7-outside-1_5834_28227)"/>
<path d="M74.8593 29.2224C75.6743 29.2224 76.3394 28.9242 76.8547 28.3277C77.394 27.7312 77.6637 26.9521 77.6637 25.9904C77.6637 25.0531 77.394 24.2801 76.8547 23.6714C76.3274 23.0627 75.6623 22.7584 74.8593 22.7584C74.0683 22.7584 73.4032 23.0627 72.8639 23.6714C72.3246 24.2801 72.055 25.0531 72.055 25.9904C72.055 26.9399 72.3246 27.7129 72.8639 28.3094C73.4032 28.9181 74.0683 29.2224 74.8593 29.2224ZM74.5897 30.7563C73.4392 30.7563 72.4504 30.2937 71.6235 29.3685C70.8086 28.4312 70.4011 27.3051 70.4011 25.9904C70.4011 24.6757 70.8086 23.5497 71.6235 22.6123C72.4504 21.6872 73.4392 21.2246 74.5897 21.2246C75.2368 21.2246 75.8241 21.3646 76.3514 21.6445C76.8907 21.9245 77.3041 22.2958 77.5918 22.7584H77.6637L77.5918 21.5167V17.39H79.2456V30.4641H77.6637V29.2224H77.5918C77.3041 29.685 76.8907 30.0563 76.3514 30.3363C75.8241 30.6163 75.2368 30.7563 74.5897 30.7563Z" stroke="white" stroke-opacity="0.8" stroke-width="0.572319" mask="url(#path-7-outside-1_5834_28227)"/>
<path d="M80.8472 25.9904C80.8472 24.6148 81.2727 23.4766 82.1235 22.5758C82.9864 21.675 84.071 21.2246 85.3773 21.2246C86.6836 21.2246 87.7622 21.675 88.6131 22.5758C89.476 23.4766 89.9074 24.6148 89.9074 25.9904C89.9074 27.3782 89.476 28.5164 88.6131 29.405C87.7622 30.3059 86.6836 30.7563 85.3773 30.7563C84.071 30.7563 82.9864 30.3059 82.1235 29.405C81.2727 28.5042 80.8472 27.366 80.8472 25.9904ZM82.5011 25.9904C82.5011 26.9521 82.7767 27.7312 83.328 28.3277C83.8793 28.9242 84.5624 29.2224 85.3773 29.2224C86.1923 29.2224 86.8754 28.9242 87.4267 28.3277C87.9779 27.7312 88.2536 26.9521 88.2536 25.9904C88.2536 25.0409 87.9779 24.2679 87.4267 23.6714C86.8634 23.0627 86.1803 22.7584 85.3773 22.7584C84.5744 22.7584 83.8912 23.0627 83.328 23.6714C82.7767 24.2679 82.5011 25.0409 82.5011 25.9904Z" stroke="white" stroke-opacity="0.8" stroke-width="0.572319" mask="url(#path-7-outside-1_5834_28227)"/>
<path d="M93.0643 30.4641H91.4104V21.5167H92.9924V22.7584H93.0643C93.3159 22.3202 93.6995 21.955 94.2148 21.6628C94.7421 21.3706 95.2634 21.2246 95.7787 21.2246C96.4259 21.2246 96.9952 21.3767 97.4865 21.6811C97.9779 21.9854 98.3374 22.4054 98.5651 22.941C99.2962 21.7967 100.309 21.2246 101.603 21.2246C102.622 21.2246 103.407 21.5411 103.958 22.1741C104.509 22.8071 104.785 23.7079 104.785 24.8766V30.4641H103.131V25.1322C103.131 24.2922 102.981 23.6897 102.682 23.3245C102.382 22.9471 101.879 22.7584 101.172 22.7584C100.537 22.7584 100.003 23.0323 99.5718 23.5801C99.1404 24.1279 98.9247 24.7731 98.9247 25.5157V30.4641H97.2708V25.1322C97.2708 24.2922 97.121 23.6897 96.8214 23.3245C96.5218 22.9471 96.0184 22.7584 95.3114 22.7584C94.6762 22.7584 94.1429 23.0323 93.7114 23.5801C93.28 24.1279 93.0643 24.7731 93.0643 25.5157V30.4641Z" stroke="white" stroke-opacity="0.8" stroke-width="0.572319" mask="url(#path-7-outside-1_5834_28227)"/>
<path d="M109.034 18.4308C109.034 18.7595 108.92 19.0395 108.693 19.2708C108.465 19.502 108.189 19.6177 107.866 19.6177C107.542 19.6177 107.266 19.502 107.039 19.2708C106.811 19.0395 106.697 18.7595 106.697 18.4308C106.697 18.1021 106.811 17.8221 107.039 17.5908C107.266 17.3595 107.542 17.2439 107.866 17.2439C108.189 17.2439 108.465 17.3595 108.693 17.5908C108.92 17.8221 109.034 18.1021 109.034 18.4308ZM108.693 21.5167V30.4641H107.039V21.5167H108.693Z" stroke="white" stroke-opacity="0.8" stroke-width="0.572319" mask="url(#path-7-outside-1_5834_28227)"/>
<path d="M117.762 27.9808C117.762 28.7598 117.427 29.4172 116.756 29.9528C116.084 30.4885 115.24 30.7563 114.221 30.7563C113.334 30.7563 112.555 30.525 111.884 30.0624C111.213 29.5876 110.733 28.9668 110.446 28.1999L111.92 27.5608C112.136 28.0964 112.447 28.5164 112.855 28.8207C113.274 29.1129 113.73 29.2589 114.221 29.2589C114.748 29.2589 115.186 29.1433 115.533 28.912C115.893 28.6807 116.073 28.4068 116.073 28.0903C116.073 27.5182 115.641 27.0982 114.778 26.8304L113.268 26.4469C111.554 26.0087 110.697 25.1687 110.697 23.927C110.697 23.1114 111.021 22.4602 111.668 21.9732C112.327 21.4741 113.166 21.2246 114.185 21.2246C114.964 21.2246 115.665 21.4133 116.288 21.7906C116.923 22.168 117.367 22.6732 117.618 23.3062L116.144 23.927C115.977 23.5497 115.701 23.2575 115.317 23.0506C114.946 22.8314 114.527 22.7219 114.059 22.7219C113.628 22.7219 113.238 22.8314 112.891 23.0506C112.555 23.2697 112.387 23.5375 112.387 23.854C112.387 24.3653 112.861 24.7305 113.807 24.9496L115.138 25.2965C116.887 25.7348 117.762 26.6295 117.762 27.9808Z" stroke="white" stroke-opacity="0.8" stroke-width="0.572319" mask="url(#path-7-outside-1_5834_28227)"/>
<path d="M123.421 30.7563C122.126 30.7563 121.06 30.3059 120.221 29.405C119.382 28.5042 118.963 27.366 118.963 25.9904C118.963 24.627 119.37 23.4949 120.185 22.5941C121 21.6811 122.043 21.2246 123.313 21.2246C124.619 21.2246 125.656 21.6567 126.423 22.521C127.202 23.3732 127.591 24.5722 127.591 26.1182L127.573 26.3008H120.652C120.676 27.1773 120.964 27.8834 121.515 28.419C122.066 28.9546 122.726 29.2224 123.493 29.2224C124.547 29.2224 125.374 28.6868 125.973 27.6156L127.447 28.346C127.052 29.1007 126.501 29.6911 125.794 30.1172C125.099 30.5432 124.308 30.7563 123.421 30.7563ZM120.778 24.9131H125.83C125.782 24.2922 125.53 23.781 125.075 23.3792C124.631 22.9654 124.032 22.7584 123.277 22.7584C122.654 22.7584 122.114 22.9532 121.659 23.3427C121.216 23.7323 120.922 24.2557 120.778 24.9131Z" stroke="white" stroke-opacity="0.8" stroke-width="0.572319" mask="url(#path-7-outside-1_5834_28227)"/>
<defs>
<linearGradient id="paint0_linear_5834_28227" x1="33.663" y1="7.5203" x2="-0.445978" y2="39.4894" gradientUnits="userSpaceOnUse">
<stop stop-color="#00A3FF"/>
<stop offset="1" stop-color="#FF00C7"/>
</linearGradient>
<linearGradient id="paint1_linear_5834_28227" x1="35.6474" y1="7.52054" x2="-2.44346" y2="9.45222" gradientUnits="userSpaceOnUse">
<stop stop-color="#00FFF0"/>
<stop offset="0.0001" stop-color="#13DEF2"/>
<stop offset="0.855974" stop-color="#E26CFF"/>
</linearGradient>
</defs>
</svg>
