<svg width="24" height="24" viewBox="0 0 24 24" fill="none" xmlns="http://www.w3.org/2000/svg">
<path opacity="0.65" fill-rule="evenodd" clip-rule="evenodd" d="M11.9796 23.9442C18.5875 23.9442 23.9443 18.5874 23.9443 11.9795C23.9443 5.37152 18.5875 0.0147243 11.9796 0.0147237C5.37166 0.0147231 0.0148637 5.37152 0.0148631 11.9795C0.0148625 18.5874 5.37166 23.9442 11.9796 23.9442ZM16.1792 4.91324C17.1686 4.55957 18.2753 4.16389 19.0759 4.96449C19.8765 5.76504 19.4808 6.87178 19.1272 7.86111C19.1099 7.90935 19.0928 7.95731 19.0759 8.00493C18.9682 8.3083 18.8113 8.68993 18.6438 9.09746C18.2455 10.0661 17.787 11.1811 17.787 11.7394C17.787 12.5325 18.6793 15.0773 19.0428 15.9695C19.4064 16.8618 19.8659 18.1869 19.0263 19.0265C18.1867 19.8661 16.8617 19.4066 15.9694 19.043C15.0771 18.6795 12.5323 17.7872 11.7392 17.7872C11.1809 17.7872 10.0659 18.2457 9.09728 18.644C8.68974 18.8115 8.30812 18.9684 8.00475 19.0761C7.95712 19.093 7.90916 19.1101 7.86093 19.1273C6.8716 19.481 5.76486 19.8766 4.96429 19.0761C4.16371 18.2755 4.55937 17.1687 4.91306 16.1794C4.93028 16.1312 4.94742 16.0832 4.96431 16.0356C5.07196 15.7323 5.22888 15.3506 5.39644 14.9431C5.79472 13.9745 6.25319 12.8595 6.25319 12.3012C6.25319 11.508 5.36089 8.96332 4.99735 8.07101C4.63382 7.17871 4.17429 5.85365 5.01387 5.01405C5.85347 4.17447 7.17853 4.634 8.07083 4.99753C8.96314 5.36107 11.5079 6.25337 12.301 6.25337C12.8593 6.25337 13.9743 5.79491 14.9429 5.39662C15.3505 5.22906 15.7321 5.07214 16.0355 4.96449C16.0831 4.9476 16.131 4.93047 16.1792 4.91324Z" fill="url(#paint0_linear_4595_7382)"/>
<path opacity="0.65" fill-rule="evenodd" clip-rule="evenodd" d="M20.4399 3.51918C15.7674 -1.15334 8.19177 -1.15334 3.51925 3.51918C-1.15328 8.1917 -1.15328 15.7674 3.51924 20.4399C8.19177 25.1124 15.7674 25.1124 20.4399 20.4399C25.1125 15.7674 25.1125 8.1917 20.4399 3.51918ZM4.01292 14.0063C3.06327 13.5568 2.00091 13.0539 2.00091 11.9218C2.00091 10.7896 3.06327 10.2867 4.01291 9.83726C4.0592 9.81535 4.10521 9.79357 4.15082 9.77185C4.44146 9.63345 4.82227 9.47456 5.22891 9.30488C6.1955 8.90157 7.30809 8.43734 7.70286 8.04257C8.2637 7.48172 9.43213 5.05138 9.80603 4.16338C10.1799 3.27537 10.792 2.01346 11.9793 2.01346C13.1667 2.01346 13.7787 3.27537 14.1526 4.16338C14.5265 5.05139 15.6949 7.48172 16.2558 8.04257C16.6505 8.43734 17.7631 8.90157 18.7297 9.30488C19.1364 9.47456 19.5172 9.63345 19.8078 9.77185C19.8534 9.79357 19.8994 9.81535 19.9457 9.83726C20.8954 10.2867 21.9577 10.7896 21.9577 11.9218C21.9577 13.054 20.8954 13.5568 19.9457 14.0063C19.8994 14.0282 19.8534 14.05 19.8078 14.0717C19.5172 14.2101 19.1364 14.369 18.7297 14.5386C17.7631 14.942 16.6505 15.4062 16.2558 15.801C15.6949 16.3618 14.5265 18.7921 14.1526 19.6802C13.7787 20.5682 13.1667 21.8301 11.9793 21.8301C10.7919 21.8301 10.1799 20.5682 9.80603 19.6802C9.43213 18.7921 8.2637 16.3618 7.70285 15.801C7.30809 15.4062 6.1955 14.942 5.22892 14.5386C4.82227 14.369 4.44146 14.2101 4.15082 14.0717C4.10521 14.05 4.0592 14.0282 4.01292 14.0063Z" fill="url(#paint1_linear_4595_7382)"/>
<defs>
<linearGradient id="paint0_linear_4595_7382" x1="24.5825" y1="0.0147255" x2="-0.246999" y2="23.6693" gradientUnits="userSpaceOnUse">
<stop stop-color="#00A3FF"/>
<stop offset="1" stop-color="#FF00C7"/>
</linearGradient>
<linearGradient id="paint1_linear_4595_7382" x1="26.0501" y1="0.0147863" x2="-2.10574" y2="1.46614" gradientUnits="userSpaceOnUse">
<stop stop-color="#00FFF0"/>
<stop offset="0.0001" stop-color="#13DEF2"/>
<stop offset="0.855974" stop-color="#E26CFF"/>
</linearGradient>
</defs>
</svg>
