<svg width="10" height="10" viewBox="0 0 10 10" fill="none" xmlns="http://www.w3.org/2000/svg" style="transform: scale(0.87)">
<rect width="10" height="10" rx="2" fill="url(#paint0_linear_28_65)"/>
<path d="M1.35932 4.882C1.35932 4.07467 1.49465 3.44467 1.76532 2.992C2.04065 2.53467 2.51198 2.306 3.17932 2.306C3.84665 2.306 4.31565 2.53467 4.58632 2.992C4.86165 3.44467 4.99932 4.07467 4.99932 4.882C4.99932 5.69867 4.86165 6.338 4.58632 6.8C4.31565 7.25733 3.84665 7.486 3.17932 7.486C2.51198 7.486 2.04065 7.25733 1.76532 6.8C1.49465 6.338 1.35932 5.69867 1.35932 4.882ZM4.21532 4.882C4.21532 4.504 4.18965 4.18433 4.13832 3.923C4.09165 3.66167 3.99365 3.44933 3.84432 3.286C3.69498 3.118 3.47332 3.034 3.17932 3.034C2.88532 3.034 2.66365 3.118 2.51432 3.286C2.36498 3.44933 2.26465 3.66167 2.21332 3.923C2.16665 4.18433 2.14332 4.504 2.14332 4.882C2.14332 5.274 2.16665 5.603 2.21332 5.869C2.25998 6.135 2.35798 6.34967 2.50732 6.513C2.66132 6.67633 2.88532 6.758 3.17932 6.758C3.47332 6.758 3.69498 6.67633 3.84432 6.513C3.99832 6.34967 4.09865 6.135 4.14532 5.869C4.19198 5.603 4.21532 5.274 4.21532 4.882ZM8.79769 3.013L6.85169 7.5H6.04669L8.01369 3.097H5.42369V2.418H8.79769V3.013Z" fill="white"/>
<defs>
<linearGradient id="paint0_linear_28_65" x1="9" y1="0" x2="-1" y2="10" gradientUnits="userSpaceOnUse">
<stop stop-color="#9747FF"/>
<stop offset="1" stop-color="#A070DD"/>
</linearGradient>
</defs>
</svg>
