<svg width="34" height="15" viewBox="0 0 34 15" fill="none" xmlns="http://www.w3.org/2000/svg">
<rect width="34" height="15" rx="7.5" fill="url(#paint0_linear_6016_790)"/>
<path d="M12.25 11H11.34L7.68 5.45V11H6.77V4.02H7.68L11.34 9.56V4.02H12.25V11ZM18.8013 8.05C18.8013 8.22333 18.7913 8.40667 18.7713 8.6H14.3913C14.4246 9.14 14.6079 9.56333 14.9413 9.87C15.2813 10.17 15.6913 10.32 16.1713 10.32C16.5646 10.32 16.8913 10.23 17.1513 10.05C17.4179 9.86333 17.6046 9.61667 17.7113 9.31H18.6913C18.5446 9.83667 18.2513 10.2667 17.8113 10.6C17.3713 10.9267 16.8246 11.09 16.1713 11.09C15.6513 11.09 15.1846 10.9733 14.7713 10.74C14.3646 10.5067 14.0446 10.1767 13.8113 9.75C13.5779 9.31667 13.4613 8.81667 13.4613 8.25C13.4613 7.68333 13.5746 7.18667 13.8013 6.76C14.0279 6.33333 14.3446 6.00667 14.7513 5.78C15.1646 5.54667 15.6379 5.43 16.1713 5.43C16.6913 5.43 17.1513 5.54333 17.5513 5.77C17.9513 5.99667 18.2579 6.31 18.4713 6.71C18.6913 7.10333 18.8013 7.55 18.8013 8.05ZM17.8613 7.86C17.8613 7.51333 17.7846 7.21667 17.6313 6.97C17.4779 6.71667 17.2679 6.52667 17.0013 6.4C16.7413 6.26667 16.4513 6.2 16.1313 6.2C15.6713 6.2 15.2779 6.34667 14.9513 6.64C14.6313 6.93333 14.4479 7.34 14.4013 7.86H17.8613ZM27.3024 5.52L25.5924 11H24.6524L23.3324 6.65L22.0124 11H21.0724L19.3524 5.52H20.2824L21.5424 10.12L22.9024 5.52H23.8324L25.1624 10.13L26.4024 5.52H27.3024Z" fill="white"/>
<defs>
<linearGradient id="paint0_linear_6016_790" x1="-40" y1="24" x2="51.2518" y2="19.1239" gradientUnits="userSpaceOnUse">
<stop stop-color="#FF00C7"/>
<stop offset="1" stop-color="#00A3FF"/>
</linearGradient>
</defs>
</svg>
