<svg width="32" height="32" viewBox="0 0 32 32" fill="none" xmlns="http://www.w3.org/2000/svg">
<rect width="32" height="32" rx="8" fill="white" fill-opacity="0.05"/>
<g clip-path="url(#clip0_5366_1057)">
<path d="M17.1 12.5625V12.7125H17.25H18.5C19.1075 12.7125 19.6 13.205 19.6 13.8125V18.1875C19.6 18.4498 19.3873 18.6625 19.125 18.6625H11.625C11.3627 18.6625 11.15 18.4498 11.15 18.1875V15.6875C11.15 15.08 11.6425 14.5875 12.25 14.5875H13.5H13.65V14.4375V11.9375C13.65 11.33 14.1425 10.8375 14.75 10.8375H16C16.6075 10.8375 17.1 11.33 17.1 11.9375V12.5625ZM17.25 13.6625H17.1V13.8125V17.5625V17.7125H17.25H18.5H18.65V17.5625V13.8125V13.6625H18.5H17.25ZM16.15 11.9375V11.7875H16H14.75H14.6V11.9375V17.5625V17.7125H14.75H16H16.15V17.5625V11.9375ZM13.65 15.6875V15.5375H13.5H12.25H12.1V15.6875V17.5625V17.7125H12.25H13.5H13.65V17.5625V15.6875Z" fill="white" stroke="#3D4955" stroke-width="0.3"/>
<path fill-rule="evenodd" clip-rule="evenodd" d="M21.6373 9.20069C18.203 5.76644 12.635 5.76644 9.20069 9.20069C5.76644 12.635 5.76644 18.203 9.20069 21.6373C12.4864 24.9229 17.7252 25.0651 21.1799 22.0638L24.3081 25.1919C24.5521 25.436 24.9479 25.436 25.1919 25.1919C25.436 24.9479 25.436 24.5521 25.1919 24.3081L22.0638 21.1799C25.0651 17.7252 24.9229 12.4864 21.6373 9.20069ZM10.0846 10.0846C13.0307 7.13847 17.8073 7.13847 20.7534 10.0846C23.6995 13.0307 23.6995 17.8073 20.7534 20.7534C17.8073 23.6995 13.0307 23.6995 10.0846 20.7534C7.13847 17.8073 7.13847 13.0307 10.0846 10.0846Z" fill="white"/>
</g>
<defs>
<clipPath id="clip0_5366_1057">
<rect width="20" height="20" fill="white" transform="translate(6 6)"/>
</clipPath>
</defs>
</svg>
