<svg xmlns="http://www.w3.org/2000/svg" width="20" height="20" viewBox="0 0 20 20" fill="none">
  <g clip-path="url(#clip0_6449_11859)">
    <path d="M11.6667 15L15 17.5V15H15.8333C16.7542 15 17.5 14.2542 17.5 13.3334V8.33335C17.5 7.41252 16.7542 6.66669 15.8333 6.66669H9.16667C8.24583 6.66669 7.5 7.41252 7.5 8.33335V13.3334C7.5 14.2542 8.24583 15 9.16667 15H11.6667Z" fill="white" stroke="white" stroke-linecap="round" stroke-linejoin="round"/>
    <path d="M7.5 12.5L5 14.1666V11.6666H4.16667C3.24583 11.6666 2.5 10.9208 2.5 9.99998V4.99998C2.5 4.07915 3.24583 3.33331 4.16667 3.33331H11.6667C12.5875 3.33331 13.3333 4.07915 13.3333 4.99998V6.66665" stroke="white" stroke-linecap="round" stroke-linejoin="round"/>
  </g>
  <defs>
    <clipPath id="clip0_6449_11859">
      <rect width="20" height="20" fill="white"/>
    </clipPath>
  </defs>
</svg>
