<svg xmlns="http://www.w3.org/2000/svg" width="20" height="20" viewBox="0 0 20 20" fill="none">
  <g clip-path="url(#clip0_2443_26968)">
    <path d="M8.05469 15.1562V15.5562C8.05469 15.8115 8.10496 16.0643 8.20264 16.3001C8.30033 16.5359 8.4435 16.7502 8.62399 16.9307C8.80449 17.1112 9.01876 17.2544 9.25459 17.352C9.49042 17.4497 9.74317 17.5 9.99843 17.5H10C10.2554 17.5001 10.5082 17.4499 10.7442 17.3523C10.9802 17.2547 11.1946 17.1115 11.3752 16.931C11.5559 16.7505 11.6992 16.5362 11.797 16.3003C11.8948 16.0644 11.9452 15.8116 11.9453 15.5562V15.1562" stroke="white" stroke-linecap="round" stroke-linejoin="round"/>
    <path d="M14.6461 15.1562C15.0715 15.1562 15.4794 14.9873 15.7802 14.6865C16.081 14.3857 16.25 13.9777 16.25 13.5523C16.2496 13.1024 16.071 12.6709 15.7531 12.3523L14.6875 11.2875V8.125C14.6875 6.8818 14.1936 5.68951 13.3146 4.81044C12.4355 3.93136 11.2432 3.4375 10 3.4375C8.7568 3.4375 7.56451 3.93136 6.68544 4.81044C5.80636 5.68951 5.3125 6.8818 5.3125 8.125V11.2875L4.24688 12.3523C3.92903 12.6709 3.75036 13.1024 3.75 13.5523C3.75 13.9777 3.91898 14.3857 4.21977 14.6865C4.52057 14.9873 4.92853 15.1562 5.35391 15.1562H14.6461Z" stroke="white" stroke-linecap="round" stroke-linejoin="round"/>
    <path d="M18.3512 2.5L16.6846 3.61109" stroke="white" stroke-linecap="round" stroke-linejoin="round"/>
    <path d="M19.1665 7.5H17.5176" stroke="white" stroke-linecap="round" stroke-linejoin="round"/>
    <path d="M1.64893 2.5L3.31559 3.61109" stroke="white" stroke-linecap="round" stroke-linejoin="round"/>
    <path d="M0.833496 7.5H2.48241" stroke="white" stroke-linecap="round" stroke-linejoin="round"/>
  </g>
  <defs>
    <clipPath id="clip0_2443_26968">
      <rect width="20" height="20" fill="white"/>
    </clipPath>
  </defs>
</svg>
