<svg width="121" height="120" viewBox="0 0 121 120" fill="none" xmlns="http://www.w3.org/2000/svg">
<path fill-rule="evenodd" clip-rule="evenodd" d="M45.792 65.6094L45.792 65.6098C54.3558 65.691 61.9061 66.6243 67.4054 69.0877C70.1951 70.3373 72.5969 72.0419 74.2953 74.3607C76.0193 76.7146 76.8789 79.5133 76.8604 82.6749L76.86 82.7459L76.8562 82.8168C76.6875 85.9865 75.5306 88.9227 73.3295 91.0785C71.1132 93.2492 68.0733 94.3976 64.5887 94.3976H26.9386C23.4517 94.3976 20.4043 93.251 18.1843 91.0802C15.9774 88.9221 14.8204 85.9795 14.6699 82.7992L14.6665 82.7283V82.6574C14.6665 79.4914 15.536 76.6914 17.2624 74.3369C18.9643 72.0158 21.365 70.3086 24.1547 69.058C29.6533 66.5931 37.1912 65.6707 45.7421 65.6097L45.792 65.6094ZM20.6668 82.5855C20.7699 84.4577 21.4297 85.8618 22.3794 86.7904C23.3278 87.7179 24.796 88.3977 26.9386 88.3977H64.5887C66.7233 88.3977 68.1839 87.7197 69.131 86.7921C70.0815 85.8612 70.7461 84.4507 70.8606 82.5681C70.8595 80.6075 70.3388 79.1132 69.4545 77.9059C68.5339 76.6488 67.0798 75.5162 64.9525 74.5633C60.6222 72.6236 54.1026 71.6905 45.76 71.6097C37.4346 71.6708 30.9327 72.5948 26.6092 74.533C24.4857 75.4849 23.0286 76.6198 22.1012 77.8847C21.209 79.1015 20.6794 80.6093 20.6668 82.5855Z" fill="url(#paint0_linear_1528_5387)"/>
<path fill-rule="evenodd" clip-rule="evenodd" d="M28.604 42.5891C28.604 33.0907 36.3043 25.3906 45.8029 25.3906C55.3019 25.3906 63.002 33.0907 63.002 42.5891C63.002 52.0875 55.302 59.7876 45.8029 59.7876C36.3042 59.7876 28.604 52.0875 28.604 42.5891ZM45.8029 31.3905C39.6181 31.3905 34.6041 36.4043 34.6041 42.5891C34.6041 48.7739 39.6181 53.7877 45.8029 53.7877C51.9881 53.7877 57.0019 48.7739 57.0019 42.5891C57.0019 36.4043 51.9881 31.3905 45.8029 31.3905Z" fill="url(#paint1_linear_1528_5387)"/>
<path fill-rule="evenodd" clip-rule="evenodd" d="M73.4973 55.9573C73.5386 56.463 73.7792 56.9644 74.1661 57.3513C74.5529 57.7381 75.0543 57.9787 75.5601 58.0201C75.7934 58.0392 76.0188 58.0151 76.2262 57.9514L91.1831 57.9533C91.454 57.9533 91.7223 57.9 91.9726 57.7963C92.2229 57.6927 92.4503 57.5407 92.6419 57.3492C92.8335 57.1576 92.9854 56.9302 93.0891 56.6799C93.1927 56.4296 93.246 56.1613 93.246 55.8903C93.246 55.6194 93.1926 55.3511 93.0889 55.1008C92.9851 54.8504 92.8331 54.623 92.6415 54.4314C92.4499 54.2398 92.2225 54.0878 91.9721 53.984C91.7218 53.8803 91.4535 53.8269 91.1826 53.8269L80.609 53.8256L97.4961 36.9384C97.8245 36.6101 97.9857 36.1415 97.9443 35.6358C97.9029 35.1301 97.6624 34.6287 97.2755 34.2418C96.8887 33.855 96.3872 33.6144 95.8815 33.573C95.3758 33.5317 94.9072 33.6929 94.5789 34.0212L77.6868 50.9133L77.6855 40.3298C77.6855 40.0589 77.6321 39.7906 77.5283 39.5403C77.4246 39.2899 77.2726 39.0625 77.081 38.8708C76.8894 38.6792 76.6619 38.5272 76.4116 38.4235C76.1613 38.3198 75.893 38.2664 75.622 38.2664C75.3511 38.2663 75.0828 38.3197 74.8325 38.4233C74.5822 38.527 74.3548 38.6789 74.1632 38.8705C73.9716 39.062 73.8197 39.2895 73.716 39.5398C73.6124 39.7901 73.5591 40.0584 73.5591 40.3293L73.5609 55.3076C73.501 55.5104 73.4787 55.7301 73.4973 55.9573Z" fill="url(#paint2_linear_1528_5387)"/>
<defs>
<linearGradient id="paint0_linear_1528_5387" x1="57.2537" y1="64.5298" x2="52.763" y2="90.449" gradientUnits="userSpaceOnUse">
<stop stop-color="#33353F"/>
<stop offset="1" stop-color="#262830"/>
</linearGradient>
<linearGradient id="paint1_linear_1528_5387" x1="52.1579" y1="24.1007" x2="41.6853" y2="52.0796" gradientUnits="userSpaceOnUse">
<stop stop-color="#33353F"/>
<stop offset="1" stop-color="#262830"/>
</linearGradient>
<linearGradient id="paint2_linear_1528_5387" x1="101.553" y1="36.7866" x2="75.7456" y2="46.1365" gradientUnits="userSpaceOnUse">
<stop stop-color="#33353F"/>
<stop offset="1" stop-color="#262830"/>
</linearGradient>
</defs>
</svg>
