<svg width="112" height="112" viewBox="0 0 112 112" fill="none" xmlns="http://www.w3.org/2000/svg">
<path d="M57.6996 74.6667H44.3009C40.7729 74.6667 37.3756 76.0013 34.7856 78.3953L34.4869 78.6753C32.8442 80.1967 31.5656 82.0633 30.7349 84.1447L29.1016 88.2467" stroke="#303340" stroke-width="5" stroke-linecap="round" stroke-linejoin="round"/>
<path d="M67.8828 34.7533C74.2614 41.1319 74.2614 51.4735 67.8828 57.8521C61.5042 64.2307 51.1625 64.2307 44.7839 57.8521C38.4054 51.4735 38.4054 41.1319 44.7839 34.7533C51.1625 28.3747 61.5042 28.3747 67.8828 34.7533Z" fill="#17181A" stroke="url(#paint0_linear_5735_27800)" stroke-width="5" stroke-linecap="round" stroke-linejoin="round"/>
<path d="M83.335 67C92.3552 67 99.67 74.3115 99.67 83.335C99.67 92.169 92.1559 99.6798 83.3219 99.67C74.305 99.6635 67 92.3519 67 83.335C67 74.3148 74.3115 67 83.335 67Z" stroke="white" stroke-width="4" stroke-linecap="round" stroke-linejoin="round"/>
<path d="M85.405 89.1111L79.6289 83.335L85.405 77.5589" stroke="white" stroke-width="4" stroke-linecap="round" stroke-linejoin="round"/>
<path d="M98 56C98 47.6932 95.5368 39.5729 90.9217 32.666C86.3067 25.7592 79.7472 20.3759 72.0727 17.1971C64.3982 14.0182 55.9534 13.1864 47.8062 14.807C39.659 16.4276 32.1753 20.4277 26.3015 26.3015C20.4277 32.1753 16.4276 39.659 14.807 47.8062C13.1865 55.9534 14.0182 64.3982 17.1971 72.0727C20.376 79.7472 25.7592 86.3067 32.6661 90.9217C39.5729 95.5367 47.6932 98 56 98" stroke="url(#paint1_linear_5735_27800)" stroke-width="6" stroke-linecap="round" stroke-linejoin="round"/>
<defs>
<linearGradient id="paint0_linear_5735_27800" x1="62.3684" y1="28.7443" x2="52.4224" y2="55.3155" gradientUnits="userSpaceOnUse">
<stop stop-color="#5B607B"/>
<stop offset="1" stop-color="#30333F"/>
</linearGradient>
<linearGradient id="paint1_linear_5735_27800" x1="71.5187" y1="10.85" x2="45.9433" y2="79.1758" gradientUnits="userSpaceOnUse">
<stop stop-color="#5B607B"/>
<stop offset="1" stop-color="#30333F"/>
</linearGradient>
</defs>
</svg>
