<svg width="121" height="120" viewBox="0 0 121 120" fill="none" xmlns="http://www.w3.org/2000/svg">
<path fill-rule="evenodd" clip-rule="evenodd" d="M43.9705 22.8375C36.1492 22.8375 29.8096 29.1772 29.8096 36.9986V78.5556C29.8096 86.3767 36.1492 92.7164 43.9705 92.7164H55.0045C56.8685 92.7164 58.3796 94.2276 58.3796 96.0915C58.3796 97.9559 56.8685 99.4665 55.0045 99.4665H43.9705C32.4213 99.4665 23.0596 90.105 23.0596 78.5556V36.9986C23.0596 25.4492 32.4213 16.0874 43.9705 16.0874H74.1823C85.7315 16.0874 95.0929 25.4492 95.0929 36.9986V51.3252C95.0929 53.1891 93.5823 54.7003 91.7179 54.7003C89.854 54.7003 88.3429 53.1891 88.3429 51.3252V36.9986C88.3429 29.1772 82.0033 22.8375 74.1823 22.8375H43.9705Z" fill="url(#paint0_linear_1528_3972)"/>
<path fill-rule="evenodd" clip-rule="evenodd" d="M41.1517 44.9161C41.1517 43.0521 42.6628 41.541 44.5267 41.541H62.0056C63.8695 41.541 65.3806 43.0521 65.3806 44.9161C65.3806 46.78 63.8695 48.2911 62.0056 48.2911H44.5267C42.6628 48.2911 41.1517 46.78 41.1517 44.9161ZM41.1475 63.8031C41.1475 61.9387 42.6585 60.428 44.5225 60.428H51.6594C53.5235 60.428 55.0346 61.9387 55.0346 63.8031C55.0346 65.667 53.5235 67.1782 51.6594 67.1782H44.5225C42.6585 67.1782 41.1475 65.667 41.1475 63.8031Z" fill="url(#paint1_linear_1528_3972)"/>
<path d="M80.8476 103.165C79.8054 103.168 78.7726 102.965 77.8092 102.569C76.8453 102.172 75.9696 101.588 75.2316 100.852L73.733 99.3582C73.5031 99.131 73.1926 99.0032 72.869 99.0027H70.7765C68.6606 98.9991 66.6325 98.1572 65.1371 96.6604C63.6413 95.1642 62.8003 93.1355 62.798 91.0196V88.9136C62.7998 88.7466 62.7683 88.581 62.7049 88.4262C62.6414 88.2719 62.5478 88.1315 62.429 88.0136L60.98 86.5645C59.4874 85.0759 58.6449 83.0563 58.6377 80.948C58.6301 78.8397 59.4577 76.8142 60.9395 75.3143L61.0745 75.1838L62.4245 73.8338C62.6527 73.6043 62.7805 73.2938 62.78 72.9698V70.8773C62.7836 68.7627 63.6247 66.7359 65.1191 65.2396C66.6131 63.7438 68.6395 62.9004 70.754 62.8941H72.8555C73.1804 62.8941 73.4923 62.7663 73.724 62.5386L75.1776 61.0851C76.6702 59.5861 78.6966 58.7401 80.812 58.7325C82.9279 58.7248 84.9601 59.5564 86.4636 61.0446L87.9531 62.5341C88.066 62.6484 88.2006 62.7393 88.3486 62.801C88.4971 62.8631 88.6565 62.8946 88.8171 62.8941H90.9186C93.035 62.8968 95.064 63.7384 96.5607 65.2351C98.0574 66.7318 98.8989 68.7609 98.9016 70.8773V72.9743C98.903 73.297 99.029 73.6061 99.2526 73.8383L100.72 75.3053C102.215 76.7998 103.056 78.8253 103.061 80.9385C103.066 83.0518 102.234 85.0813 100.747 86.5825L99.2481 88.081C99.0263 88.3083 98.9034 88.6143 98.9061 88.9316V91.0376C98.9039 93.1526 98.0624 95.1804 96.5661 96.6753C95.0703 98.1702 93.0426 99.0108 90.9276 99.0117H88.8126C88.6542 99.0113 88.4967 99.0419 88.35 99.1022C88.2033 99.1625 88.0701 99.2511 87.9576 99.3627L86.4771 100.834C85.7427 101.578 84.8683 102.168 83.9044 102.571C82.9401 102.974 81.906 103.183 80.8611 103.183L80.8476 103.165ZM65.6735 80.1249C65.4706 80.3616 65.3644 80.6663 65.377 80.9777C65.3896 81.2891 65.5196 81.5843 65.741 81.8034L67.217 83.284C68.7088 84.778 69.5471 86.8026 69.548 88.9136V91.0196C69.548 91.3459 69.6772 91.6591 69.9076 91.8899C70.138 92.1212 70.4503 92.2517 70.7765 92.2526H72.869C74.9787 92.2567 77.0014 93.0928 78.4986 94.5792L79.9611 96.0372C80.0785 96.1569 80.2185 96.2514 80.3733 96.3153C80.5276 96.3796 80.6937 96.412 80.8611 96.4107C81.0213 96.412 81.1801 96.3805 81.3277 96.3189C81.4753 96.2568 81.609 96.1659 81.7206 96.0507L83.2101 94.5657C83.9472 93.8258 84.8247 93.2399 85.7899 92.8412C86.7556 92.4425 87.7902 92.2396 88.8351 92.2436H90.9456C91.1076 92.2445 91.2683 92.213 91.4181 92.1509C91.568 92.0893 91.7039 91.9984 91.8186 91.8836C92.0486 91.6514 92.1777 91.3378 92.1786 91.0106V88.9136C92.1741 86.8075 93.0057 84.7861 94.4916 83.293L95.9721 81.8124C96.0873 81.6977 96.1782 81.5613 96.2408 81.411C96.3029 81.2607 96.3348 81.1001 96.3348 80.9372C96.3348 80.7747 96.3029 80.6136 96.2408 80.4638C96.1782 80.3135 96.0873 80.1771 95.9721 80.0619L94.5006 78.5859C93.7604 77.8479 93.1736 76.9704 92.774 76.0042C92.3748 75.0376 92.171 74.0021 92.1741 72.9563V70.8593C92.1741 70.5326 92.0445 70.2189 91.8132 69.9876C91.5819 69.7563 91.2678 69.6263 90.9411 69.6263H88.8396C87.7938 69.6294 86.7574 69.4251 85.7913 69.025C84.8247 68.625 83.9476 68.0368 83.2101 67.2952L81.7476 65.8417L81.6801 65.7787C81.4546 65.5748 81.1608 65.4623 80.8566 65.4637C80.6955 65.4632 80.5353 65.4952 80.3863 65.5568C80.2369 65.6185 80.1019 65.7094 79.9881 65.8237L78.5211 67.2952C77.0208 68.7834 74.9953 69.6209 72.8825 69.6263H70.7855C70.4593 69.6276 70.1465 69.7581 69.9166 69.989C69.6862 70.2203 69.557 70.533 69.557 70.8593V72.9563C69.5584 74.0012 69.3541 75.0358 68.9549 76.0011C68.5558 76.9663 67.9694 77.8434 67.2305 78.5814L65.768 80.0484L65.6735 80.1249ZM78.7146 88.7201C78.2704 88.7201 77.8308 88.6319 77.4208 88.4613C77.0104 88.2903 76.6383 88.0405 76.3251 87.7255L72.185 83.5765C71.5712 82.9393 71.2319 82.0861 71.2409 81.2013C71.2499 80.3162 71.6059 79.4702 72.2327 78.8456C72.8591 78.2205 73.7065 77.8668 74.5912 77.8605C75.4764 77.8537 76.3282 78.1953 76.9641 78.8109L78.7191 80.5659L84.8661 74.4188C85.5024 73.8041 86.3547 73.4635 87.2398 73.4707C88.1245 73.4779 88.971 73.8325 89.597 74.458C90.2234 75.0835 90.5784 75.9295 90.5865 76.8147C90.5946 77.6994 90.2548 78.5521 89.6406 79.1889L81.0906 87.739C80.4588 88.3664 79.6047 88.7192 78.7146 88.7201Z" fill="url(#paint2_linear_1528_3972)"/>
<defs>
<linearGradient id="paint0_linear_1528_3972" x1="72.3841" y1="12.9607" x2="44.1773" y2="78.0627" gradientUnits="userSpaceOnUse">
<stop stop-color="#33353F"/>
<stop offset="1" stop-color="#262830"/>
</linearGradient>
<linearGradient id="paint1_linear_1528_3972" x1="57.741" y1="40.5796" x2="49.6023" y2="61.1318" gradientUnits="userSpaceOnUse">
<stop stop-color="#33353F"/>
<stop offset="1" stop-color="#262830"/>
</linearGradient>
<linearGradient id="paint2_linear_1528_3972" x1="89.0564" y1="57.0655" x2="75.5162" y2="93.2165" gradientUnits="userSpaceOnUse">
<stop stop-color="#33353F"/>
<stop offset="1" stop-color="#262830"/>
</linearGradient>
</defs>
</svg>
