<svg width="112" height="112" viewBox="0 0 112 112" fill="none" xmlns="http://www.w3.org/2000/svg">
<path d="M63.4665 93.3333H48.5332" stroke="white" stroke-width="4" stroke-linecap="round" stroke-linejoin="round"/>
<path d="M79.334 46.816V46.6667C79.334 33.782 68.8853 23.3333 56.0007 23.3333C43.116 23.3333 32.6673 33.782 32.6673 46.6667V46.816V58.352C32.6673 59.864 31.8133 61.2407 30.4647 61.9173L28.1173 63.0887C25.1867 64.5587 23.334 67.5547 23.334 70.8307C23.334 75.6093 27.2073 79.4827 31.986 79.4827H80.0153C84.794 79.4827 88.6673 75.6093 88.6673 70.8307C88.6673 67.5547 86.8147 64.5587 83.884 63.0933L81.5367 61.922C80.188 61.2407 79.334 59.864 79.334 58.352V46.816Z" fill="#17181A" stroke="url(#paint0_linear_5735_27830)" stroke-width="6" stroke-linecap="round" stroke-linejoin="round"/>
<path d="M88.4375 28.2287C85.1148 22.3953 80.2708 17.5513 74.4375 14.2287" stroke="white" stroke-width="4" stroke-linecap="round" stroke-linejoin="round"/>
<path d="M23.5625 28.2287C26.8852 22.3953 31.7292 17.5513 37.5625 14.2287" stroke="white" stroke-width="4" stroke-linecap="round" stroke-linejoin="round"/>
<defs>
<linearGradient id="paint0_linear_5735_27830" x1="68.0707" y1="21.2277" x2="52.8906" y2="68.4155" gradientUnits="userSpaceOnUse">
<stop stop-color="#5B607B"/>
<stop offset="1" stop-color="#30333F"/>
</linearGradient>
</defs>
</svg>
