<svg width="120" height="120" viewBox="0 0 120 120" fill="none" xmlns="http://www.w3.org/2000/svg">
<path d="M27.2217 38.5352C26.6557 38.5355 26.0987 38.3935 25.602 38.1222C25.1053 37.8509 24.6848 37.459 24.3792 36.9827C24.0736 36.5063 23.8925 35.9607 23.853 35.396C23.8134 34.8314 23.9167 34.2659 24.1529 33.7515C26.5591 28.587 30.1647 24.0724 34.6693 20.5841C35.0167 20.2929 35.4191 20.0746 35.8526 19.9424C36.286 19.8101 36.7417 19.7665 37.1923 19.8141C37.6431 19.8618 38.0796 19.9998 38.4758 20.2198C38.8721 20.4398 39.2199 20.7373 39.4987 21.0947C39.7774 21.452 39.9813 21.8619 40.0983 22.2998C40.2152 22.7377 40.2428 23.1946 40.1793 23.6434C40.1158 24.0922 39.9627 24.5236 39.7288 24.9118C39.495 25.3001 39.1853 25.6373 38.8183 25.9033C35.1588 28.7259 32.2272 32.3827 30.2682 36.5686C30.0006 37.1527 29.5717 37.6481 29.032 37.9965C28.4922 38.3449 27.8641 38.5318 27.2217 38.5352Z" fill="url(#paint0_linear_1528_5690)"/>
<path d="M95.2796 38.5352C94.6334 38.5354 94.0012 38.3497 93.4576 38.0002C92.914 37.6507 92.4829 37.1521 92.2151 36.5641C90.2648 32.3804 87.3407 28.7249 83.6876 25.9033C83.3208 25.6373 83.0112 25.3001 82.7772 24.9118C82.5432 24.5236 82.3902 24.0922 82.3268 23.6434C82.2633 23.1946 82.2907 22.7377 82.4073 22.2998C82.5243 21.8619 82.7282 21.452 83.0072 21.0947C83.2857 20.7373 83.634 20.4398 84.03 20.2198C84.4265 19.9998 84.8625 19.8618 85.3134 19.8141C85.7639 19.7665 86.2197 19.8101 86.6535 19.9424C87.0869 20.0746 87.4892 20.2929 87.8366 20.5841C92.3438 24.0707 95.9488 28.5878 98.3486 33.756C98.5367 34.1603 98.6429 34.5978 98.6614 35.0433C98.6794 35.4887 98.6092 35.9334 98.4548 36.3518C98.3005 36.7701 98.0651 37.1537 97.7618 37.4806C97.459 37.8074 97.0936 38.071 96.6881 38.2562C96.2431 38.4461 95.7634 38.5412 95.2796 38.5352Z" fill="url(#paint1_linear_1528_5690)"/>
<path fill-rule="evenodd" clip-rule="evenodd" d="M61.2494 28.6619C61.2014 28.6619 61.1535 28.6609 61.1057 28.6589C54.7793 28.7058 48.7226 31.2398 44.2466 35.7167C39.7359 40.2285 37.1989 46.3451 37.1917 52.7252V58.2334C37.1889 61.9888 36.359 65.6978 34.7615 69.0968L32.8178 73.2325C32.3761 74.1716 32.1785 75.2071 32.2437 76.2431C32.309 77.2794 32.6347 78.2821 33.1908 79.1587C33.7468 80.0349 34.5151 80.7572 35.4246 81.2576C36.334 81.758 37.3551 82.0204 38.3931 82.0213H84.1223C85.1605 82.0204 86.1816 81.758 87.091 81.2576C88 80.7572 88.7686 80.0349 89.3248 79.1587C89.881 78.2821 90.2068 77.2794 90.2721 76.2431C90.3373 75.2071 90.1398 74.1716 89.6979 73.2325L87.7539 69.0923C86.1573 65.6929 85.3275 61.9843 85.3239 58.2289V52.7252C85.3167 46.3435 82.7782 40.2255 78.2656 35.7135C73.7864 31.235 67.7255 28.702 61.3953 28.6588C61.3468 28.6609 61.2982 28.6619 61.2494 28.6619ZM64.6244 19.4996V22.0934C71.5546 22.857 78.0589 25.9556 83.036 30.9328C88.8145 36.7113 92.0604 44.5486 92.0604 52.7207V58.2244C92.0689 60.988 92.6832 63.716 93.8604 66.2167L95.8089 70.3524C96.7359 72.3216 97.1495 74.4934 97.0122 76.6656C96.875 78.8383 96.191 80.9408 95.0237 82.7777C93.8564 84.6151 92.244 86.1272 90.3355 87.1744C88.4275 88.2216 86.2855 88.7692 84.1088 88.767L84.1179 88.7715H77.5196C77.2243 92.6507 75.5518 96.3129 72.7823 99.0833C69.7223 102.144 65.5732 103.866 61.2451 103.871C56.9165 103.866 52.7666 102.144 49.7061 99.0837C46.9359 96.3133 45.2626 92.6511 44.9664 88.7715H38.3887C36.2121 88.7737 34.0701 88.2261 32.1619 87.1789C30.2536 86.1317 28.641 84.6196 27.4737 82.7822C26.3064 80.9453 25.6224 78.8428 25.4852 76.6701C25.3479 74.4979 25.7617 72.3261 26.6884 70.3569L28.6372 66.2212C29.8249 63.7241 30.4397 60.9938 30.437 58.2289V52.7207C30.437 44.5486 33.6832 36.7113 39.4615 30.9328C44.4389 25.9553 50.9439 22.8566 57.8744 22.0932V19.4996C57.8744 18.6045 58.2299 17.7461 58.8631 17.1131C59.4958 16.4801 60.3544 16.1245 61.2494 16.1245C62.1445 16.1245 63.0031 16.4801 63.6358 17.1131C64.2689 17.7461 64.6244 18.6045 64.6244 19.4996ZM51.7213 88.7715C51.8129 89.6271 52.0195 90.4686 52.3373 91.2724C52.8058 92.4582 53.5069 93.5382 54.3988 94.4495C55.2902 95.3608 56.3549 96.0848 57.5303 96.5794C58.7057 97.0735 59.968 97.3282 61.2429 97.3282C62.5177 97.3282 63.78 97.0735 64.9549 96.5794C66.1303 96.0848 67.1955 95.3608 68.0869 94.4495C68.9789 93.5382 69.6795 92.4582 70.1484 91.2724C70.4663 90.4686 70.6729 89.6271 70.7644 88.7715H51.7213Z" fill="url(#paint2_linear_1528_5690)"/>
<defs>
<linearGradient id="paint0_linear_1528_5690" x1="35.0525" y1="19.0927" x2="28.7604" y2="33.7748" gradientUnits="userSpaceOnUse">
<stop stop-color="#33353F"/>
<stop offset="1" stop-color="#262830"/>
</linearGradient>
<linearGradient id="paint1_linear_1528_5690" x1="93.5032" y1="19.0927" x2="87.2117" y2="33.7758" gradientUnits="userSpaceOnUse">
<stop stop-color="#33353F"/>
<stop offset="1" stop-color="#262830"/>
</linearGradient>
<linearGradient id="paint2_linear_1528_5690" x1="74.4725" y1="12.834" x2="43.6278" y2="80.0539" gradientUnits="userSpaceOnUse">
<stop stop-color="#33353F"/>
<stop offset="1" stop-color="#262830"/>
</linearGradient>
</defs>
</svg>
