<svg width="112" height="112" viewBox="0 0 112 112" fill="none" xmlns="http://www.w3.org/2000/svg">
<path d="M85.6984 26.3015C102.1 42.7035 102.1 69.2964 85.6984 85.6984C69.2964 102.1 42.7035 102.1 26.3015 85.6984C9.89949 69.2964 9.89949 42.7035 26.3015 26.3015C42.7035 9.89949 69.2965 9.89949 85.6984 26.3015Z" fill="#17181A"/>
<path d="M82.8942 88.2467L81.2609 84.1447C80.4349 82.0633 79.1516 80.1967 77.5089 78.6753L77.2102 78.4C74.6249 76.0013 71.2276 74.6667 67.6996 74.6667H44.3009C40.7729 74.6667 37.3756 76.0013 34.7856 78.3953L34.4869 78.6753C32.8442 80.1967 31.5656 82.0633 30.7349 84.1447L29.1016 88.2467" stroke="white" stroke-width="4" stroke-linecap="round" stroke-linejoin="round"/>
<path d="M67.5488 34.7533C73.9274 41.1319 73.9274 51.4735 67.5488 57.8521C61.1702 64.2307 50.8285 64.2307 44.45 57.8521C38.0714 51.4735 38.0714 41.1319 44.45 34.7533C50.8285 28.3747 61.1702 28.3747 67.5488 34.7533Z" stroke="white" stroke-width="4" stroke-linecap="round" stroke-linejoin="round"/>
<path d="M85.6984 26.3015C102.1 42.7035 102.1 69.2964 85.6984 85.6984C69.2964 102.1 42.7035 102.1 26.3015 85.6984C9.89949 69.2964 9.89949 42.7035 26.3015 26.3015C42.7035 9.89949 69.2965 9.89949 85.6984 26.3015Z" stroke="url(#paint0_linear_5735_27730)" stroke-width="6" stroke-linecap="round" stroke-linejoin="round"/>
<defs>
<linearGradient id="paint0_linear_5735_27730" x1="71.5186" y1="10.85" x2="45.9433" y2="79.1758" gradientUnits="userSpaceOnUse">
<stop stop-color="#5B607B"/>
<stop offset="1" stop-color="#30333F"/>
</linearGradient>
</defs>
</svg>
