<svg width="120" height="120" viewBox="0 0 120 120" fill="none" xmlns="http://www.w3.org/2000/svg">
<path fill-rule="evenodd" clip-rule="evenodd" d="M62.0435 67.2075C72.4327 67.3061 81.5551 68.4396 88.181 71.4078C91.5389 72.9122 94.413 74.9565 96.4403 77.7249C98.4968 80.5325 99.5255 83.8737 99.5035 87.6609L99.503 87.741L99.499 87.8207C99.2969 91.6137 97.9136 95.112 95.2964 97.6757C92.6616 100.256 89.0409 101.629 84.8699 101.629H39.1527C34.9788 101.629 31.349 100.258 28.7101 97.6775C26.0858 95.1111 24.7029 91.6056 24.5228 87.8009L24.519 87.7212V87.6411C24.519 83.8481 25.5598 80.505 27.6193 77.6957C29.6513 74.9246 32.5242 72.8771 35.8819 71.3718C42.5065 68.4018 51.6138 67.2818 61.9873 67.208L62.0435 67.2075ZM31.2693 87.5606C31.3961 89.8943 32.2198 91.6686 33.4293 92.8512C34.6377 94.0329 36.491 94.8789 39.1527 94.8789H84.8699C87.5222 94.8789 89.3667 94.0347 90.5732 92.853C91.7832 91.6677 92.613 89.8862 92.7539 87.5408C92.7539 85.1045 92.1063 83.2307 90.9948 81.7133C89.8419 80.1392 88.0343 78.7383 85.4216 77.5679C80.1111 75.1892 72.1479 74.0561 62.0075 73.958C51.8874 74.0318 43.9458 75.1541 38.6432 77.531C36.035 78.7001 34.2236 80.1041 33.0629 81.6872C31.9419 83.2158 31.2834 85.1054 31.2693 87.5606Z" fill="url(#paint0_linear_1528_41)"/>
<path fill-rule="evenodd" clip-rule="evenodd" d="M62.0281 25.1255C54.37 25.1255 48.1616 31.3337 48.1616 38.9919C48.1616 46.65 54.37 52.8581 62.0281 52.8581C69.6863 52.8581 75.8945 46.65 75.8945 38.9919C75.8945 31.3337 69.6863 25.1255 62.0281 25.1255ZM41.4116 38.9919C41.4116 27.6058 50.6419 18.3755 62.0281 18.3755C73.4141 18.3755 82.6445 27.6058 82.6445 38.9919C82.6445 50.378 73.4141 59.6081 62.0281 59.6081C50.6419 59.6081 41.4116 50.378 41.4116 38.9919Z" fill="url(#paint1_linear_1528_41)"/>
<defs>
<linearGradient id="paint0_linear_1528_41" x1="75.8645" y1="65.9167" x2="70.5369" y2="96.9227" gradientUnits="userSpaceOnUse">
<stop stop-color="#33353F"/>
<stop offset="1" stop-color="#262830"/>
</linearGradient>
<linearGradient id="paint1_linear_1528_41" x1="69.6457" y1="16.8293" x2="57.0917" y2="50.3681" gradientUnits="userSpaceOnUse">
<stop stop-color="#33353F"/>
<stop offset="1" stop-color="#262830"/>
</linearGradient>
</defs>
</svg>
