<svg xmlns="http://www.w3.org/2000/svg" width="20" height="20" viewBox="0 0 20 20" fill="none">
  <g clip-path="url(#clip0_2443_26930)">
    <path d="M14.8026 15.759L14.5109 15.0265C14.3634 14.6548 14.1343 14.3215 13.8409 14.0498L13.7876 14.0007C13.3259 13.5723 12.7193 13.334 12.0893 13.334H7.91094C7.28094 13.334 6.67428 13.5723 6.21178 13.9998L6.15844 14.0498C5.86511 14.3215 5.63678 14.6548 5.48844 15.0265L5.19678 15.759" stroke="white" stroke-linecap="round" stroke-linejoin="round"/>
    <path d="M12.0626 6.20584C13.2016 7.34487 13.2016 9.1916 12.0626 10.3306C10.9235 11.4697 9.0768 11.4697 7.93777 10.3306C6.79874 9.1916 6.79874 7.34487 7.93777 6.20584C9.0768 5.0668 10.9235 5.0668 12.0626 6.20584Z" stroke="white" stroke-linecap="round" stroke-linejoin="round"/>
    <path d="M15.3033 4.6967C18.2322 7.62563 18.2322 12.3744 15.3033 15.3033C12.3743 18.2322 7.62562 18.2322 4.6967 15.3033C1.76777 12.3743 1.76777 7.62562 4.6967 4.6967C7.62563 1.76777 12.3744 1.76777 15.3033 4.6967Z" stroke="white" stroke-linecap="round" stroke-linejoin="round"/>
  </g>
  <defs>
    <clipPath id="clip0_2443_26930">
      <rect width="20" height="20" fill="white"/>
    </clipPath>
  </defs>
</svg>
