<svg width="121" height="120" viewBox="0 0 121 120" fill="none" xmlns="http://www.w3.org/2000/svg">
<g id="illustration/ referral">
<path id="Vector (Stroke)" fill-rule="evenodd" clip-rule="evenodd" d="M47.1909 66.2637L47.1909 66.2642C55.6314 66.353 63.1672 67.3704 68.6926 70.1121C71.5083 71.5092 73.9127 73.4082 75.5982 75.9574C77.2972 78.5269 78.1245 81.545 78.1068 84.9296L78.1064 85.0018L78.1029 85.0739C77.9403 88.4551 76.8288 91.6411 74.6316 94.0246C72.391 96.4551 69.2567 97.7888 65.6313 97.7888H28.6793C25.0525 97.7888 21.9107 96.4576 19.6661 94.0265C17.4629 91.6401 16.3521 88.4475 16.2072 85.0559L16.2041 84.9839V84.9118C16.2041 81.522 17.0413 78.5017 18.7427 75.9314C20.4315 73.38 22.8346 71.4781 25.6504 70.0798C31.1758 67.3361 38.7003 66.3307 47.1287 66.2642L47.1909 66.2637ZM22.9544 84.8389C23.0576 86.9421 23.7294 88.4768 24.6257 89.4477C25.4909 90.3848 26.781 91.0389 28.6793 91.0389H65.6313C67.5211 91.0389 68.8041 90.3873 69.6685 89.4496C70.5661 88.4758 71.2421 86.9345 71.357 84.8211C71.3568 82.6346 70.8296 80.9839 69.9676 79.6801C69.0825 78.3416 67.7025 77.156 65.6923 76.1586C61.5713 74.1138 55.3001 73.1022 47.151 73.0141C39.0193 73.0808 32.7663 74.0827 28.6526 76.1254C26.6463 77.1217 25.2632 78.3098 24.3714 79.657C23.5017 80.9709 22.9659 82.6358 22.9544 84.8389Z" fill="url(#paint0_linear_1528_4887)"/>
<path id="Vector (Stroke)_2" fill-rule="evenodd" clip-rule="evenodd" d="M79.8835 70.986C80.0327 69.1281 81.6597 67.7428 83.5177 67.8919C89.0226 68.3336 94.0286 69.4625 97.7364 71.8628C101.684 74.4183 103.97 78.308 103.943 83.4439L103.943 83.516L103.939 83.5881C103.802 86.4466 102.86 89.1837 100.956 91.249C99.0088 93.3614 96.2919 94.5076 93.1875 94.5076H86.1409C84.2769 94.5076 82.7658 92.9966 82.7658 91.1327C82.7658 89.2687 84.2769 87.7577 86.1409 87.7577H93.1875C94.5562 87.7577 95.4217 87.2937 95.9927 86.6742C96.5981 86.0175 97.1037 84.9241 97.1932 83.3352C97.1888 80.6079 96.1204 78.8576 94.0681 77.529C91.7578 76.0334 88.0827 75.0298 82.9778 74.6201C81.1198 74.471 79.7344 72.844 79.8835 70.986Z" fill="url(#paint1_linear_1528_4887)"/>
<path id="Vector (Stroke)_3" fill-rule="evenodd" clip-rule="evenodd" d="M29.1943 41.0195C29.1943 31.148 37.197 23.1455 47.0688 23.1455C56.9408 23.1455 64.9431 31.148 64.9431 41.0195C64.9431 50.891 56.9407 58.8934 47.0688 58.8934C37.197 58.8934 29.1943 50.8911 29.1943 41.0195ZM47.0688 29.8954C40.925 29.8954 35.9444 34.8758 35.9444 41.0195C35.9444 47.1631 40.9249 52.1434 47.0688 52.1434C53.2127 52.1434 58.193 47.1632 58.193 41.0195C58.193 34.8758 53.2127 29.8954 47.0688 29.8954Z" fill="url(#paint2_linear_1528_4887)"/>
<path id="Vector (Stroke)_4" fill-rule="evenodd" clip-rule="evenodd" d="M70.3628 45.4383C70.3628 38.3587 76.1022 32.6196 83.1821 32.6196C90.2617 32.6196 96.001 38.3588 96.001 45.4383C96.001 52.5178 90.2617 58.2571 83.1821 58.2571C76.1021 58.2571 70.3628 52.5179 70.3628 45.4383ZM83.1821 39.3695C79.83 39.3695 77.1129 42.0867 77.1129 45.4383C77.1129 48.79 79.8301 51.5072 83.1821 51.5072C86.5336 51.5072 89.2509 48.7901 89.2509 45.4383C89.2509 42.0866 86.5337 39.3695 83.1821 39.3695Z" fill="url(#paint3_linear_1528_4887)"/>
</g>
<defs>
<linearGradient id="paint0_linear_1528_4887" x1="58.5919" y1="65.0815" x2="53.2142" y2="93.2919" gradientUnits="userSpaceOnUse">
<stop stop-color="#33353F"/>
<stop offset="1" stop-color="#262830"/>
</linearGradient>
<linearGradient id="paint1_linear_1528_4887" x1="96.3549" y1="66.8824" x2="87.6269" y2="87.9613" gradientUnits="userSpaceOnUse">
<stop stop-color="#33353F"/>
<stop offset="1" stop-color="#262830"/>
</linearGradient>
<linearGradient id="paint2_linear_1528_4887" x1="53.6731" y1="21.805" x2="42.7893" y2="50.8825" gradientUnits="userSpaceOnUse">
<stop stop-color="#33353F"/>
<stop offset="1" stop-color="#262830"/>
</linearGradient>
<linearGradient id="paint3_linear_1528_4887" x1="87.9184" y1="31.6582" x2="80.1128" y2="52.512" gradientUnits="userSpaceOnUse">
<stop stop-color="#33353F"/>
<stop offset="1" stop-color="#262830"/>
</linearGradient>
</defs>
</svg>
