<svg width="112" height="112" viewBox="0 0 112 112" fill="none" xmlns="http://www.w3.org/2000/svg">
<path d="M70 88.6667V86.3333C70 82.0015 68.2792 77.847 65.2161 74.7839C62.153 71.7208 57.9985 70 53.6667 70H30.3333C26.0015 70 21.847 71.7208 18.7839 74.7839C15.7208 77.847 14 82.0015 14 86.3333V88.6667" stroke="url(#paint0_linear_5735_27845)" stroke-width="6" stroke-linecap="round" stroke-linejoin="round"/>
<path d="M41.9993 51.3334C51.02 51.3334 58.3327 44.0207 58.3327 35C58.3327 25.9794 51.02 18.6667 41.9993 18.6667C32.9787 18.6667 25.666 25.9794 25.666 35C25.666 44.0207 32.9787 51.3334 41.9993 51.3334Z" fill="#17181A" stroke="url(#paint1_linear_5735_27845)" stroke-width="6" stroke-linecap="round" stroke-linejoin="round"/>
<path d="M102.667 88.6667V86.3333C102.667 82.0015 100.946 77.847 97.8827 74.7839C94.8197 71.7208 90.6652 70 86.3333 70H84" stroke="white" stroke-width="4" stroke-linecap="round" stroke-linejoin="round"/>
<path d="M74.666 18.6667C78.9979 18.6667 83.1523 20.3875 86.2154 23.4506C89.2785 26.5137 90.9994 30.6681 90.9994 35C90.9994 39.3319 89.2785 43.4863 86.2154 46.5494C83.1523 49.6125 78.9979 51.3333 74.666 51.3333" stroke="white" stroke-width="4" stroke-linecap="round" stroke-linejoin="round"/>
<defs>
<linearGradient id="paint0_linear_5735_27845" x1="52.3458" y1="69.3" x2="50.219" y2="86.3455" gradientUnits="userSpaceOnUse">
<stop stop-color="#5B607B"/>
<stop offset="1" stop-color="#30333F"/>
</linearGradient>
<linearGradient id="paint1_linear_5735_27845" x1="48.0344" y1="17.4417" x2="38.0884" y2="44.0129" gradientUnits="userSpaceOnUse">
<stop stop-color="#5B607B"/>
<stop offset="1" stop-color="#30333F"/>
</linearGradient>
</defs>
</svg>
