<svg xmlns="http://www.w3.org/2000/svg" width="20" height="20" viewBox="0 0 20 20" fill="none">
  <g clip-path="url(#clip0_2443_26948)">
    <path d="M15.8332 14.166H12.9457C12.6673 14.166 12.4065 14.3052 12.2523 14.5368L11.914 15.0443C11.7598 15.276 11.499 15.4152 11.2207 15.4152H7.11234C6.834 15.4152 6.57317 15.276 6.419 15.0443L6.08067 14.5368C5.92567 14.3052 5.66567 14.166 5.3865 14.166H2.49984C2.03984 14.166 1.6665 14.5393 1.6665 14.9993V15.8327C1.6665 16.7535 2.41234 17.4993 3.33317 17.4993H14.9998C15.9207 17.4993 16.6665 16.7535 16.6665 15.8327V14.9993C16.6665 14.5393 16.2932 14.166 15.8332 14.166Z" stroke="white" stroke-linecap="round" stroke-linejoin="round"/>
    <path d="M15.833 14.1667V10" stroke="white" stroke-linecap="round" stroke-linejoin="round"/>
    <path d="M2.5 14.166V5.83268C2.5 4.91185 3.24583 4.16602 4.16667 4.16602H7.5" stroke="white" stroke-linecap="round" stroke-linejoin="round"/>
    <path d="M10 3.16602V6.16602C10 6.99435 10.6717 7.66602 11.5 7.66602H16C16.8283 7.66602 17.5 6.99435 17.5 6.16602V3.16602C17.5 2.33768 16.8283 1.66602 16 1.66602H11.5C10.6717 1.66602 10 2.33768 10 3.16602Z" stroke="white" stroke-linecap="round" stroke-linejoin="round"/>
    <path d="M17.5 4.16602H10" stroke="white" stroke-linecap="round" stroke-linejoin="round"/>
  </g>
  <defs>
    <clipPath id="clip0_2443_26948">
      <rect width="20" height="20" fill="white"/>
    </clipPath>
  </defs>
</svg>
