<svg width="121" height="120" viewBox="0 0 121 120" fill="none" xmlns="http://www.w3.org/2000/svg">
<path fill-rule="evenodd" clip-rule="evenodd" d="M57.8052 51.5443C57.8052 49.8668 59.1652 48.5068 60.8427 48.5068H71.7935C73.471 48.5068 74.831 49.8668 74.831 51.5443C74.831 53.222 73.471 54.582 71.7935 54.582H60.8427C59.1652 54.582 57.8052 53.222 57.8052 51.5443ZM57.8052 68.2047C57.8052 66.5272 59.1652 65.1672 60.8427 65.1672H82.2911C83.9686 65.1672 85.3286 66.5272 85.3286 68.2047C85.3286 69.107 84.9353 69.9174 84.3104 70.4739C83.7738 70.9518 83.0662 71.2422 82.2911 71.2422H60.8427C59.1652 71.2422 57.8052 69.8822 57.8052 68.2047Z" fill="url(#paint0_linear_1528_4406)"/>
<path fill-rule="evenodd" clip-rule="evenodd" d="M41.1235 46.5034C41.3303 46.4099 41.5341 46.3428 41.7298 46.2955V32.6477C41.7298 27.4707 46.9853 23.1786 52.1583 25.8309L52.1899 25.8473L54.8293 27.2398C55.5453 27.6135 56.3979 27.6524 57.2338 27.2902L64.7186 23.9642C68.5305 22.3029 72.7712 22.3029 76.5831 23.9642L76.6037 23.9732L84.0622 27.2895C84.9026 27.6525 85.7527 27.6139 86.4736 27.2389L86.478 27.2366L89.1429 25.8309C94.2986 23.1875 99.5717 27.4166 99.5717 32.65L99.536 79.1281C99.5356 84.2031 98.2433 88.7124 95.399 91.9965C92.5004 95.3426 88.32 97.0351 83.3765 97.0351H34.2185C30.4584 97.0351 27.0482 95.5204 24.5994 93.0718C22.1266 90.5989 20.5967 87.1928 20.5967 83.4527V54.0998C20.5967 48.857 25.8783 44.642 31.0293 47.283L31.0609 47.2994L33.7004 48.6919C34.4157 49.0654 35.2678 49.1044 36.1031 48.7429L41.1235 46.5034ZM59.6719 32.8545L67.1547 29.5292C69.4134 28.5479 71.8879 28.5479 74.1466 29.5292L81.6067 32.8462L81.6282 32.8555C84.0776 33.9221 86.8632 33.8896 89.2912 32.6209L89.3021 32.6153L91.9257 31.2311C92.2521 31.0679 92.564 31.097 92.8649 31.3023C93.1848 31.5207 93.4963 31.9671 93.4967 32.6477L93.461 79.1261C93.461 83.2393 92.4129 86.165 90.8071 88.019C89.2547 89.8111 86.8741 90.9601 83.3765 90.9601H45.5432C46.9723 88.8096 47.8048 86.2285 47.8048 83.4527V32.6477C47.8048 31.9919 48.1104 31.5397 48.4433 31.311C48.7536 31.098 49.0625 31.0746 49.3759 31.2312L51.9996 32.6153L52.0073 32.6194C54.4332 33.8901 57.2249 33.9224 59.6719 32.8545ZM41.7298 83.4527C41.7298 87.5982 38.3697 90.9601 34.2185 90.9601C32.115 90.9601 30.2371 90.1181 28.895 88.776C27.5061 87.3872 26.6717 85.5048 26.6717 83.4527V54.0998C26.6717 53.4169 26.9838 52.9722 27.3039 52.754C27.6052 52.5486 27.9189 52.5195 28.2466 52.6831L30.8703 54.0674L30.8782 54.0714C33.304 55.3423 36.0959 55.3747 38.5426 54.3067L41.7298 52.8848V83.4527Z" fill="url(#paint1_linear_1528_4406)"/>
<defs>
<linearGradient id="paint0_linear_1528_4406" x1="76.6517" y1="47.6543" x2="70.7014" y2="66.8985" gradientUnits="userSpaceOnUse">
<stop stop-color="#33353F"/>
<stop offset="1" stop-color="#262830"/>
</linearGradient>
<linearGradient id="paint1_linear_1528_4406" x1="74.6745" y1="19.9314" x2="53.0781" y2="81.2435" gradientUnits="userSpaceOnUse">
<stop stop-color="#33353F"/>
<stop offset="1" stop-color="#262830"/>
</linearGradient>
</defs>
</svg>
