<svg xmlns="http://www.w3.org/2000/svg" width="18" height="18" viewBox="0 0 18 18" fill="none">
  <g clip-path="url(#clip0_7776_2815)">
    <path d="M9.1875 2.52248C10.1385 5.62065 12.5674 8.04932 15.6658 8.99992C12.5675 9.95052 10.1385 12.3792 9.1875 15.4767C8.23651 12.3792 5.80759 9.95052 2.70925 8.99992C5.80759 8.04932 8.23651 5.62065 9.1875 2.52248Z" stroke="currentColor"/>
    <path d="M14.7888 3.92877C14.6804 4.01169 14.5791 4.1016 14.4866 4.1957C14.4007 4.28298 14.3188 4.37744 14.2429 4.47776C14.1631 4.37475 14.0773 4.27828 13.9883 4.18978C13.9002 4.10219 13.8044 4.0179 13.7023 3.93944C13.8105 3.85647 13.9116 3.7668 14.0039 3.67341C14.0909 3.58549 14.1743 3.49006 14.2518 3.38855C14.3298 3.49036 14.4137 3.58599 14.5011 3.67401C14.5895 3.76314 14.6859 3.84894 14.7888 3.92877Z" stroke="currentColor"/>
  </g>
  <defs>
    <clipPath id="clip0_7776_2815">
      <rect width="18" height="18" fill="white"/>
    </clipPath>
  </defs>
</svg>
