<svg width="120" height="120" viewBox="0 0 120 120" fill="none" xmlns="http://www.w3.org/2000/svg">
<path fill-rule="evenodd" clip-rule="evenodd" d="M75.1553 25.4185C87.0604 25.4185 96.7443 35.1023 96.7443 47.011V72.8478C96.7443 84.7529 87.0604 94.4403 75.1553 94.4403H44.037C32.1319 94.4403 22.4443 84.7529 22.4443 72.8478V47.011C22.4443 35.1023 32.1319 25.4185 44.037 25.4185H75.1553ZM75.1553 30.8184H44.037C35.1091 30.8184 27.8443 38.0831 27.8443 47.011V72.8478C27.8443 81.7757 35.1091 89.0404 44.037 89.0404H75.1553C84.0832 89.0404 91.3444 81.7757 91.3444 72.8478V71.8398L79.472 71.842C72.6428 71.842 67.0845 66.2873 67.0809 59.4618C67.0809 52.6291 72.6392 47.0707 79.472 47.0671L91.3444 47.065V47.011C91.3444 38.0831 84.0832 30.8184 75.1553 30.8184ZM91.3444 52.4649L79.472 52.4671C75.6164 52.4707 72.4808 55.6062 72.4808 59.4582C72.4808 63.3065 75.62 66.4421 79.472 66.4421L91.3444 66.4399V52.4649ZM81.1193 56.535C82.6097 56.535 83.8193 57.7446 83.8193 59.235C83.8193 60.7253 82.6097 61.9349 81.1193 61.9349H79.9962C78.5058 61.9349 77.2962 60.7253 77.2962 59.235C77.2962 57.7446 78.5058 56.535 79.9962 56.535H81.1193ZM60.9101 41.7554C62.4005 41.7554 63.6101 42.965 63.6101 44.4554C63.6101 45.9457 62.4005 47.1553 60.9101 47.1553H41.4738C39.9834 47.1553 38.7738 45.9457 38.7738 44.4554C38.7738 42.965 39.9834 41.7554 41.4738 41.7554H60.9101Z" fill="url(#paint0_linear_1528_5525)"/>
<defs>
<linearGradient id="paint0_linear_1528_5525" x1="73.321" y1="22.8301" x2="53.4645" y2="79.9344" gradientUnits="userSpaceOnUse">
<stop stop-color="#33353F"/>
<stop offset="1" stop-color="#262830"/>
</linearGradient>
</defs>
</svg>
