<svg width="24" height="24" viewBox="-14 -14 112 112" fill="none" xmlns="http://www.w3.org/2000/svg">
<path d="M71.4661 12.2928C67.9688 8.7955 63.0687 10.7785 58.8012 12.2928C54.5336 13.8071 46.5492 17.6616 43.2453 17.6616C39.9414 17.6616 29.3414 13.9448 25.6246 12.4305C21.9077 10.9162 16.3881 9.00198 12.8908 12.4993C9.39349 15.9966 11.3077 21.5162 12.822 25.2331C14.3363 28.9499 18.0531 39.5499 18.0531 42.8538C18.0531 46.1577 14.1986 54.1421 12.6843 58.4097C11.17 62.6772 9.18699 67.5773 12.6843 71.0746C16.1816 74.5719 21.0817 72.5888 25.3492 71.0746C29.6168 69.5603 37.6012 65.7058 40.9051 65.7058C44.209 65.7058 54.809 69.4226 58.5258 70.9369C62.2427 72.4512 67.7623 74.3654 71.2596 70.8681C74.7569 67.3708 72.8427 61.8512 71.3284 58.1343C69.8141 54.4175 66.0973 43.8175 66.0973 40.5136C66.0973 37.2097 69.9518 29.2253 71.4661 24.9577C72.9804 20.6902 74.9634 15.7901 71.4661 12.2928Z" fill="" stroke="white" stroke-width="4" stroke-linecap="round" stroke-linejoin="round"/>
<path d="M10.1532 48.4227C9.96951 48.3352 9.78698 48.2486 9.60581 48.1627C7.67733 47.2482 5.90415 46.4074 4.52912 45.3114C3.11426 44.1836 2.33789 42.9553 2.33789 41.2729C2.33789 39.5906 3.11426 38.3623 4.52912 37.2345C5.90414 36.1384 7.67731 35.2976 9.60578 34.3831C9.78696 34.2972 9.96951 34.2107 10.1532 34.1232C11.3348 33.5605 12.8291 32.9376 14.4715 32.253C15.642 31.765 16.8878 31.2457 18.1492 30.6945C19.6149 30.054 21.0656 29.3839 22.3136 28.7132C23.5211 28.0642 24.7013 27.3306 25.5035 26.5284C26.2749 25.757 27.1241 24.4991 27.9353 23.1604C28.7758 21.7731 29.6744 20.1305 30.5372 18.4665C32.2612 15.1417 33.8908 11.6375 34.6934 9.73152C35.467 7.89407 36.4019 5.89045 37.6551 4.35534C38.8833 2.85087 40.242 1.99994 41.9029 1.99994C43.5638 1.99994 44.9225 2.85087 46.1507 4.35534C47.4039 5.89045 48.3388 7.89407 49.1124 9.73152C49.9149 11.6375 51.5446 15.1417 53.2685 18.4665C54.1314 20.1305 55.0299 21.7731 55.8705 23.1604C56.6817 24.4991 57.5309 25.757 58.3022 26.5284C59.1045 27.3306 60.2847 28.0642 61.4921 28.7132C62.7402 29.3839 64.1909 30.054 65.6566 30.6945C66.918 31.2457 68.1637 31.765 69.3342 32.2529C70.9767 32.9376 72.471 33.5605 73.6526 34.1232C73.8363 34.2107 74.0188 34.2972 74.2 34.3831C76.1284 35.2976 77.9016 36.1384 79.2767 37.2345C80.6915 38.3623 81.4679 39.5906 81.4679 41.2729C81.4679 42.9553 80.6915 44.1836 79.2767 45.3114C77.9017 46.4074 76.1285 47.2482 74.2001 48.1626C74.0189 48.2486 73.8363 48.3352 73.6526 48.4227C72.471 48.9853 70.9767 49.6082 69.3342 50.2929C68.1637 50.7808 66.918 51.3002 65.6566 51.8514C64.1909 52.4918 62.7401 53.1619 61.4921 53.8327C60.2847 54.4817 59.1045 55.2152 58.3022 56.0175C57.5309 56.7888 56.6817 58.0467 55.8705 59.3855C55.0299 60.7728 54.1314 62.4153 53.2685 64.0794C51.5446 67.4042 49.9149 70.9083 49.1124 72.8143C48.3387 74.6518 47.4039 76.6554 46.1507 78.1905C44.9225 79.695 43.5637 80.5459 41.9029 80.5459C40.242 80.5459 38.8833 79.695 37.6551 78.1905C36.4019 76.6554 35.467 74.6518 34.6934 72.8143C33.8908 70.9083 32.2612 67.4042 30.5372 64.0794C29.6744 62.4153 28.7758 60.7728 27.9353 59.3855C27.1241 58.0467 26.2749 56.7888 25.5035 56.0175C24.7013 55.2152 23.5211 54.4817 22.3136 53.8327C21.0656 53.1619 19.6149 52.4918 18.1492 51.8514C16.8878 51.3001 15.6421 50.7809 14.4716 50.2929C12.8291 49.6082 11.3348 48.9853 10.1532 48.4227Z" stroke="white" stroke-width="4"/>
<defs>

</defs>
</svg>
