<svg width="24" height="24" viewBox="0 0 24 24" fill="none"
    xmlns="http://www.w3.org/2000/svg">
    <rect width="24" height="24" rx="12" fill="white" fill-opacity="0.1"/>
    <path d="M10.5 16.25V7.75C10.5 7.33579 10.1642 7 9.75 7C9.33579 7 9 7.33579 9 7.75V16.25C9 16.6642 9.33579 17 9.75 17C10.1642 17 10.5 16.6642 10.5 16.25Z" fill="white" fill-opacity="0.8"/>
    <path d="M15 16.25V7.75C15 7.33579 14.6642 7 14.25 7C13.8358 7 13.5 7.33579 13.5 7.75V16.25C13.5 16.6642 13.8358 17 14.25 17C14.6642 17 15 16.6642 15 16.25Z" fill="white" fill-opacity="0.8"/>
</svg>
