<svg width="20" height="20" viewBox="0 0 20 20" fill="none" xmlns="http://www.w3.org/2000/svg">
<g style="mix-blend-mode:multiply">
<path d="M11.5042 18.4956C16.1963 17.6648 19.3266 13.1877 18.4958 8.49557C17.6651 3.80345 13.188 0.673169 8.49584 1.50389C3.80372 2.33462 0.673436 6.81177 1.50416 11.5039C2.33489 16.196 6.81204 19.3263 11.5042 18.4956Z" fill="#B8B8B8"/>
</g>
<path d="M9.98936 18.6975C14.762 18.6975 18.6311 14.8284 18.6311 10.0558C18.6311 5.28308 14.762 1.41406 9.98936 1.41406C5.21668 1.41406 1.34766 5.28308 1.34766 10.0558C1.34766 14.8284 5.21668 18.6975 9.98936 18.6975Z" fill="url(#paint0_linear_7889_33661)"/>
<path d="M8.76735 13.6141H6.46717V10.0084H4.16699V7.70825H8.75699V13.6141H8.76735ZM13.3677 13.6141H10.7463L13.2123 7.70825H15.8337L13.3677 13.6141ZM10.736 7.70825C11.4612 7.70825 12.0518 8.29884 12.0518 9.02412C12.0518 9.7494 11.4612 10.34 10.736 10.34C10.0107 10.34 9.4201 9.7494 9.4201 9.02412C9.43046 8.29884 10.0107 7.70825 10.736 7.70825Z" fill="white"/>
<defs>
<linearGradient id="paint0_linear_7889_33661" x1="18.7395" y1="18.6135" x2="1.23947" y2="1.11346" gradientUnits="userSpaceOnUse">
<stop stop-color="#C600F1"/>
<stop offset="1" stop-color="#14A4ED"/>
</linearGradient>
</defs>
</svg>
