<svg width="74" height="85" viewBox="0 0 74 85" fill="none" xmlns="http://www.w3.org/2000/svg">
<path d="M36.937 69C54.5748 69 68.874 54.7008 68.874 37C68.874 19.2992 54.5118 5 36.937 5C19.2992 5 5 19.2992 5 37C5 54.7008 19.2992 69 36.937 69Z" fill="white" fill-opacity="0.05"/>
<g filter="url(#filter0_d_14729_3382)">
<path d="M58.6687 21.0002L59.1726 61.5671C59.1726 62.9529 58.0388 64.0238 56.653 64.0238H17.0939C15.7081 64.0238 14.5742 62.89 14.5742 61.5671V9.40964C14.5742 8.02381 15.7081 6.95294 17.0939 6.95294H45.7553L58.6687 21.0002Z" fill="#4B5868"/>
</g>
<path d="M33.8507 55.8975H32.4019C32.0869 55.8975 31.835 55.5826 31.835 55.2046C31.835 54.8267 32.0869 54.5117 32.4019 54.5117H33.8507C34.1657 54.5117 34.4176 54.8267 34.4176 55.2046C34.4176 55.6456 34.1657 55.8975 33.8507 55.8975Z" fill="#CED7E2"/>
<path d="M29.4405 55.8975H20.9995C20.6846 55.8975 20.4326 55.5826 20.4326 55.2046C20.4326 54.8267 20.6846 54.5117 20.9995 54.5117H29.4405C29.7555 54.5117 30.0074 54.8267 30.0074 55.2046C30.0074 55.6456 29.7555 55.8975 29.4405 55.8975Z" fill="#A9AFC4"/>
<path d="M40.2121 15.4566H21.2515C20.8106 15.4566 20.4326 15.0787 20.4326 14.6377C20.4326 14.1968 20.8106 13.8188 21.2515 13.8188H40.2121C40.6531 13.8188 41.031 14.1968 41.031 14.6377C41.031 15.0787 40.6531 15.4566 40.2121 15.4566Z" fill="#A9AFC4"/>
<path d="M28.5586 19.9921H21.2515C20.8106 19.9921 20.4326 19.6142 20.4326 19.1732C20.4326 18.7323 20.8106 18.3543 21.2515 18.3543H28.4956C28.9366 18.3543 29.3145 18.7323 29.3145 19.1732C29.3145 19.6142 28.9366 19.9921 28.5586 19.9921Z" fill="#A9AFC4"/>
<path d="M45.7559 6.95294V18.1655C45.7559 19.7403 47.1417 21.0002 48.7165 21.0002H58.6692" fill="#3F4B5A"/>
<g filter="url(#filter1_d_14729_3382)">
<path d="M61.6931 64.9686C61.0631 64.9686 60.4332 64.7166 59.9293 64.1497L49.4096 53.63L49.0317 53.882C45.6301 56.4017 41.6616 57.7245 37.6301 57.7245C32.7797 57.7245 27.9293 55.7717 24.3387 52.3702C20.5592 48.7796 18.4805 43.9292 18.4805 38.6379C18.4805 28.1182 27.0474 19.5513 37.5671 19.5513C44.7482 19.5513 51.0474 23.3308 54.449 29.756C57.7876 36.1182 57.3466 43.5513 53.2521 49.5355L53.0002 49.9135L63.5828 60.4962C64.6537 61.567 64.4017 62.6379 64.2127 63.2048C63.7088 64.2127 62.7009 64.9686 61.6931 64.9686ZM37.5671 24.7796C29.882 24.7796 23.7088 31.0158 23.7088 38.6379C23.7088 47.3308 30.8269 52.5591 37.7561 52.5591C41.9765 52.5591 45.819 50.6694 48.5277 47.2678C51.8663 43.1103 52.4332 37.504 50.1025 32.6536C47.7088 27.8032 42.9214 24.7796 37.5671 24.7796Z" fill="url(#paint0_linear_14729_3382)"/>
</g>
<defs>
<filter id="filter0_d_14729_3382" x="0.71595" y="0.0238075" width="72.315" height="84.7874" filterUnits="userSpaceOnUse" color-interpolation-filters="sRGB">
<feFlood flood-opacity="0" result="BackgroundImageFix"/>
<feColorMatrix in="SourceAlpha" type="matrix" values="0 0 0 0 0 0 0 0 0 0 0 0 0 0 0 0 0 0 127 0" result="hardAlpha"/>
<feOffset dy="6.92913"/>
<feGaussianBlur stdDeviation="6.92913"/>
<feColorMatrix type="matrix" values="0 0 0 0 0 0 0 0 0 0 0 0 0 0 0 0 0 0 0.27 0"/>
<feBlend mode="normal" in2="BackgroundImageFix" result="effect1_dropShadow_14729_3382"/>
<feBlend mode="normal" in="SourceGraphic" in2="effect1_dropShadow_14729_3382" result="shape"/>
</filter>
<filter id="filter1_d_14729_3382" x="15.9608" y="19.5513" width="50.9404" height="50.4567" filterUnits="userSpaceOnUse" color-interpolation-filters="sRGB">
<feFlood flood-opacity="0" result="BackgroundImageFix"/>
<feColorMatrix in="SourceAlpha" type="matrix" values="0 0 0 0 0 0 0 0 0 0 0 0 0 0 0 0 0 0 127 0" result="hardAlpha"/>
<feOffset dy="2.51969"/>
<feGaussianBlur stdDeviation="1.25984"/>
<feComposite in2="hardAlpha" operator="out"/>
<feColorMatrix type="matrix" values="0 0 0 0 0 0 0 0 0 0 0 0 0 0 0 0 0 0 0.25 0"/>
<feBlend mode="normal" in2="BackgroundImageFix" result="effect1_dropShadow_14729_3382"/>
<feBlend mode="normal" in="SourceGraphic" in2="effect1_dropShadow_14729_3382" result="shape"/>
</filter>
<linearGradient id="paint0_linear_14729_3382" x1="29.0095" y1="31.4733" x2="48.4473" y2="64.7315" gradientUnits="userSpaceOnUse">
<stop stop-color="#E3EAF7"/>
<stop offset="1" stop-color="#ADB6C8"/>
</linearGradient>
</defs>
</svg>
