<svg width="12" height="12" viewBox="0 0 12 12" fill="none" xmlns="http://www.w3.org/2000/svg">
<g clip-path="url(#clip0_4934_30617)">
<path d="M3.539 10.904C4.893 10.904 5.991 9.806 5.991 8.452C5.991 7.098 4.8935 6 3.539 6C2.1845 6 1.087 7.098 1.087 8.452" stroke="#838C95" stroke-linecap="round" stroke-linejoin="round"/>
<path d="M3.5415 10.9064C3.1725 10.9064 2.823 10.8249 2.509 10.6794L1 10.9999L1.3155 9.4879C1.169 9.1729 1.087 8.8219 1.087 8.4519" stroke="#838C95" stroke-linecap="round" stroke-linejoin="round"/>
<path d="M3.2785 6.01391C3.0995 5.60341 3 5.15591 3 4.68641C3 2.67791 4.799 1.06641 7 1.06641C9.201 1.06641 11 2.67791 11 4.68641C11 5.87341 10.369 6.91841 9.4005 7.57741C9.401 7.95541 9.4 8.46491 9.4 8.99991L7.8305 8.22691C7.562 8.27841 7.2845 8.30641 7 8.30641C6.6465 8.30641 6.3035 8.26441 5.9765 8.18591" stroke="#838C95" stroke-linecap="round" stroke-linejoin="round"/>
</g>
<defs>
<clipPath id="clip0_4934_30617">
<rect width="12" height="12" fill="white"/>
</clipPath>
</defs>
</svg>
