<svg width="25" height="25" viewBox="0 0 25 25" fill="none" xmlns="http://www.w3.org/2000/svg">
<mask id="mask0_65_5668" style="mask-type:alpha" maskUnits="userSpaceOnUse" x="0" y="0" width="25" height="25">
<rect x="0.713867" y="0.96582" width="24" height="24" fill="#D9D9D9"/>
</mask>
<g mask="url(#mask0_65_5668)">
<path fill-rule="evenodd" clip-rule="evenodd" d="M18.3224 2.96582L19.287 4.11625L19.2091 6.73402L21.6391 6.63508L22.6766 7.69871L18.6429 11.7324H15.6694L12.0572 15.3485L10.7598 14.0511L14.3631 10.444V6.92514L18.3224 2.96582ZM16.1979 7.68513V9.89765H17.8829L19.2103 8.57028L17.3166 8.64738L17.3804 6.50257L16.1979 7.68513Z" fill="#D9D9D9"/>
<path d="M11.9255 7.49553C8.1656 7.21292 4.88848 10.0318 4.60586 13.7918C4.32325 17.5517 7.14217 20.8288 10.9021 21.1114C14.662 21.394 17.9391 18.5751 18.2218 14.8152L20.0514 14.9527C19.6928 19.7231 15.535 23.2996 10.7646 22.941C5.99417 22.5825 2.41767 18.4246 2.77624 13.6542C3.1348 8.88384 7.29265 5.30734 12.0631 5.66591L11.9255 7.49553Z" fill="#D9D9D9"/>
<path d="M11.6509 11.1331C9.90005 11.0015 8.37405 12.3141 8.24245 14.0649C8.11085 15.8158 9.42348 17.3418 11.1743 17.4734C12.9251 17.605 14.4511 16.2923 14.5827 14.5415L16.4123 14.679C16.2048 17.4403 13.7981 19.5105 11.0368 19.303C8.27548 19.0954 6.20527 16.6887 6.41282 13.9274C6.62037 11.1661 9.02709 9.09591 11.7884 9.30347L11.6509 11.1331Z" fill="#D9D9D9"/>
</g>
</svg>
