<svg width="25" height="25" viewBox="0 0 25 25" fill="none" xmlns="http://www.w3.org/2000/svg">
<mask id="mask0_65_5687" style="mask-type:alpha" maskUnits="userSpaceOnUse" x="0" y="0" width="25" height="25">
<rect x="0.713867" y="0.96582" width="24" height="24" fill="#D9D9D9"/>
</mask>
<g mask="url(#mask0_65_5687)">
<path d="M2.71387 20.8302V18.0776C2.71387 17.5205 2.8574 17.0084 3.14445 16.5411C3.43085 16.0744 3.81163 15.7182 4.28678 15.4725C5.30262 14.9646 5.9466 14.5835 6.99521 14.3292C8.04382 14.0755 9.10882 13.9487 10.1902 13.9487C11.2716 13.9487 12.3366 14.0755 13.3852 14.3292C14.4338 14.5835 15.2731 14.9646 16.2889 15.4725C16.7641 15.7182 17.1448 16.0744 17.4312 16.5411C17.7183 17.0084 17.8618 17.5205 17.8618 18.0776V20.8302H2.71387ZM20.0209 20.8302V17.881C20.0209 17.1601 19.8204 16.4677 19.4193 15.8038C19.0175 15.1405 18.448 14.5713 17.7107 14.0962C19.4818 14.3045 22.7139 15.6936 22.7139 17.881V20.8302H20.0209ZM10.1902 12.9656C9.10882 12.9656 8.18309 12.5806 7.41302 11.8105C6.64295 11.0405 6.25791 10.1147 6.25791 9.03336C6.25791 7.95198 6.64295 7.02626 7.41302 6.25618C8.18309 5.48611 9.10882 5.10107 10.1902 5.10107C11.2716 5.10107 12.1973 5.48611 12.9674 6.25618C13.7374 7.02626 14.1225 7.95198 14.1225 9.03336C14.1225 10.1147 13.7374 11.0405 12.9674 11.8105C12.1973 12.5806 11.2716 12.9656 10.1902 12.9656ZM20.0209 9.03336C20.0209 10.1147 19.6359 11.0405 18.8658 11.8105C18.0957 12.5806 17.17 12.9656 16.0886 12.9656C15.9084 12.9656 15.679 12.9453 15.4005 12.9047C15.1219 12.8634 14.8926 12.8182 14.7123 12.769C15.1547 12.2447 15.4945 11.6631 15.7318 11.0241C15.9697 10.3851 16.0886 9.72151 16.0886 9.03336C16.0886 8.34521 15.9697 7.68164 15.7318 7.04264C15.4945 6.40364 15.1547 5.82199 14.7123 5.29769C14.9417 5.21577 15.1711 5.16235 15.4005 5.13745C15.6299 5.1132 15.8592 5.10107 16.0886 5.10107C17.17 5.10107 18.0957 5.48611 18.8658 6.25618C19.6359 7.02626 20.0209 7.95198 20.0209 9.03336ZM4.68001 18.8641H15.8957V18.0776C15.8957 17.8974 15.8508 17.7335 15.761 17.5861C15.6706 17.4386 15.5516 17.3239 15.4042 17.242C14.5194 16.7996 13.8194 16.4677 12.9182 16.2462C12.0171 16.0253 11.1077 15.9149 10.1902 15.9149C9.27266 15.9149 8.36332 16.0253 7.46217 16.2462C6.56102 16.4677 6.05631 16.7996 5.17155 17.242C5.02408 17.3239 4.90546 17.4386 4.81567 17.5861C4.72523 17.7335 4.68001 17.8974 4.68001 18.0776V18.8641ZM10.1902 10.9995C10.7309 10.9995 11.1939 10.8068 11.5793 10.4215C11.964 10.0367 12.1563 9.57405 12.1563 9.03336C12.1563 8.49267 11.964 8.02997 11.5793 7.64526C11.1939 7.2599 10.7309 7.06722 10.1902 7.06722C9.64951 7.06722 9.18681 7.2599 8.8021 7.64526C8.41674 8.02997 8.22405 8.49267 8.22405 9.03336C8.22405 9.57405 8.41674 10.0367 8.8021 10.4215C9.18681 10.8068 9.64951 10.9995 10.1902 10.9995Z" fill="#D3D3D4"/>
</g>
</svg>
