<svg width="45" height="45" viewBox="0 0 25 25" fill="none" xmlns="http://www.w3.org/2000/svg">
<mask id="mask0_65_5655" style="mask-type:alpha" maskUnits="userSpaceOnUse" x="0" y="0" width="25" height="25">
<rect x="0.713867" y="0.96582" width="45" height="45" fill="#D9D9D9"/>
</mask>
<g mask="url(#mask0_65_5655)">
<path d="M5.71387 21.9658C5.16387 21.9658 4.69287 21.7702 4.30087 21.3788C3.90953 20.9868 3.71387 20.5158 3.71387 19.9658V5.96582C3.71387 5.41582 3.90953 4.94482 4.30087 4.55282C4.69287 4.16149 5.16387 3.96582 5.71387 3.96582H19.7139C20.2639 3.96582 20.7349 4.16149 21.1269 4.55282C21.5182 4.94482 21.7139 5.41582 21.7139 5.96582V19.9658C21.7139 20.5158 21.5182 20.9868 21.1269 21.3788C20.7349 21.7702 20.2639 21.9658 19.7139 21.9658H5.71387ZM5.71387 19.9658H19.7139V5.96582H5.71387V19.9658Z" fill="#D3D3D4"/>
<path fill-rule="evenodd" clip-rule="evenodd" d="M18.0785 10.9827L13.8575 15.6864L11.0535 13.0327L8.80602 15.7059L7.27515 14.4189L10.8876 10.122L13.7406 12.8221L16.59 9.64697L18.0785 10.9827Z" fill="#D3D3D4"/>
</g>
</svg>
