<svg xmlns="http://www.w3.org/2000/svg" width="24" height="24" viewBox="0 0 24 24" fill="none">
  <path d="M12.5059 11.7487C12.2108 11.4536 11.7322 11.4536 11.4371 11.7487L9.29948 13.8863C9.00434 14.1814 9.00434 14.66 9.29948 14.9551L11.4371 17.0927C11.7322 17.3878 12.2108 17.3878 12.5059 17.0927L14.6435 14.9551C14.9386 14.66 14.9386 14.1814 14.6435 13.8863L12.5059 11.7487Z" stroke="white" stroke-opacity="0.96" stroke-width="1.25" stroke-linecap="round" stroke-linejoin="round"/>
  <path d="M11.9707 8.06641V11.5275" stroke="white" stroke-opacity="0.96" stroke-width="1.25" stroke-linecap="round" stroke-linejoin="round"/>
  <path d="M14.9219 14.4434H18.4089C18.9688 14.4434 19.4226 14.8972 19.4226 15.4571V17.6145" stroke="white" stroke-opacity="0.96" stroke-width="1.25" stroke-linecap="round" stroke-linejoin="round"/>
  <path d="M11.9699 5.7437V5.70335M11.8066 5.73489C11.8066 5.64409 11.8798 5.57031 11.9706 5.57031C12.0613 5.57031 12.1351 5.64409 12.1351 5.73489C12.1351 5.82568 12.0613 5.89944 11.9706 5.89944C11.8798 5.89944 11.8066 5.82568 11.8066 5.73489Z" stroke="white" stroke-opacity="0.96" stroke-width="1.25" stroke-linecap="round" stroke-linejoin="round"/>
  <path d="M14.4309 5.7437V5.70335M14.2676 5.73489C14.2676 5.64409 14.3413 5.57031 14.4321 5.57031C14.5229 5.57031 14.5961 5.64409 14.5961 5.73489C14.5961 5.82568 14.5229 5.89944 14.4321 5.89944C14.3413 5.89944 14.2676 5.82568 14.2676 5.73489Z" stroke="white" stroke-opacity="0.96" stroke-width="1.25" stroke-linecap="round" stroke-linejoin="round"/>
  <path d="M9.50769 5.7437V5.70335M9.34375 5.73489C9.34375 5.64409 9.41752 5.57031 9.50831 5.57031C9.59911 5.57031 9.67288 5.64409 9.67288 5.73489C9.67288 5.82568 9.59911 5.89944 9.50831 5.89944C9.41752 5.89944 9.34375 5.82568 9.34375 5.73489Z" stroke="white" stroke-opacity="0.96" stroke-width="1.25" stroke-linecap="round" stroke-linejoin="round"/>
  <path d="M15.5083 3.23242H8.42501C7.09003 3.23242 6.00781 4.31464 6.00781 5.64962V5.64963C6.00781 6.98461 7.09003 8.06683 8.42501 8.06683H15.5083C16.8433 8.06683 17.9255 6.98461 17.9255 5.64963V5.64962C17.9255 4.31464 16.8433 3.23242 15.5083 3.23242Z" stroke="white" stroke-opacity="0.96" stroke-width="1.25" stroke-linecap="round" stroke-linejoin="round"/>
  <path d="M17.8464 19.1901C17.8464 20.061 18.5523 20.7669 19.4232 20.7669C20.294 20.7669 21 20.061 21 19.1901C21 18.3192 20.294 17.6133 19.4232 17.6133C18.5523 17.6133 17.8464 18.3192 17.8464 19.1901Z" stroke="white" stroke-opacity="0.96" stroke-width="1.25" stroke-linecap="round" stroke-linejoin="round"/>
  <path d="M9.07691 14.4434H5.58991C5.03004 14.4434 4.57617 14.8972 4.57617 15.4571V17.6145" stroke="white" stroke-opacity="0.96" stroke-width="1.25" stroke-linecap="round" stroke-linejoin="round"/>
  <path d="M6.15364 19.1901C6.15364 20.061 5.44767 20.7669 4.57682 20.7669C3.70597 20.7669 3 20.061 3 19.1901C3 18.3192 3.70597 17.6133 4.57682 17.6133C5.44767 17.6133 6.15364 18.3192 6.15364 19.1901Z" stroke="white" stroke-opacity="0.96" stroke-width="1.25" stroke-linecap="round" stroke-linejoin="round"/>
</svg>
