<svg width="209" height="298" viewBox="0 0 209 298" fill="none" xmlns="http://www.w3.org/2000/svg">
<path d="M209 297.6L209.004 299.6L211 299.596V297.6H209ZM209 252H211V250H209V252ZM95 252L93.8481 250.365L88.6888 254H95V252ZM5.4 106L3.40574 106.151L3.54614 108H5.4V106ZM54.2 106V108H56.3901L56.1918 105.819L54.2 106ZM7.4 256.8L6.31374 255.121L5.4 255.712V256.8H7.4ZM7.4 298H5.4V300.004L7.40397 300L7.4 298ZM211 297.6V252H207V297.6H211ZM209 250H95V254H209V250ZM96.1519 253.635C166.567 204.024 208.2 159.895 208.2 99.2H204.2C204.2 157.705 164.233 200.776 93.8481 250.365L96.1519 253.635ZM208.2 99.2C208.2 69.1367 198.033 43.8942 179.846 26.1677C161.663 8.44529 135.631 -1.60001 104.2 -1.60001V2.39999C134.769 2.39999 159.738 12.1547 177.054 29.0322C194.367 45.9058 204.2 70.0632 204.2 99.2H208.2ZM104.2 -1.60001C72.3444 -1.60001 45.8836 9.16277 27.9951 28.1277C10.102 47.0974 0.969832 74.0786 3.40574 106.151L7.39426 105.849C5.03017 74.7214 13.898 48.9026 30.9049 30.8723C47.9164 12.8372 73.2556 2.39999 104.2 2.39999V-1.60001ZM5.4 108H54.2V104H5.4V108ZM56.1918 105.819C54.4247 86.3812 58.6705 71.9825 66.9584 62.4633C75.2373 52.9544 87.8231 48 103.4 48V44C86.9769 44 73.1628 49.2455 63.9416 59.8367C54.7295 70.4174 50.3753 86.0188 52.2082 106.181L56.1918 105.819ZM103.4 48C118.613 48 131.267 52.4806 140.109 61.0372C148.939 69.582 154.2 82.4177 154.2 99.6H158.2C158.2 81.5823 152.661 67.6179 142.891 58.1628C133.133 48.7193 119.387 44 103.4 44V48ZM154.2 99.6C154.2 120.955 145.9 141.291 123.238 165.586C100.516 189.944 63.4937 218.134 6.31374 255.121L8.48626 258.479C65.7063 221.466 103.084 193.056 126.163 168.314C149.3 143.509 158.2 122.245 158.2 99.6H154.2ZM5.4 256.8V298H9.4V256.8H5.4ZM7.40397 300L209.004 299.6L208.996 295.6L7.39603 296L7.40397 300Z" fill="url(#paint0_linear_77_353)"/>
<defs>
<linearGradient id="paint0_linear_77_353" x1="106" y1="-78" x2="106" y2="322" gradientUnits="userSpaceOnUse">
<stop stop-color="white"/>
<stop offset="1" stop-color="#2F2F2F" stop-opacity="0"/>
</linearGradient>
</defs>
</svg>
