<svg width="226" height="293" viewBox="0 0 226 293" fill="none" xmlns="http://www.w3.org/2000/svg">
<path d="M226 238.2V240.2H228V238.2H226ZM226 192.6H228V190.6H226V192.6ZM190.8 192.6H188.8V194.6H190.8V192.6ZM190.8 115.8H192.8V113.8H190.8V115.8ZM142.4 115.8V113.8H140.4V115.8H142.4ZM142.4 192.6V194.6H144.4V192.6H142.4ZM57.2 192.6L55.485 191.571L53.6676 194.6H57.2V192.6ZM172.4 0.599998L174.115 1.62899L175.932 -1.4H172.4V0.599998ZM115.2 0.599998V-1.4H114.066L113.483 -0.426361L115.2 0.599998ZM0.4 192.6L-1.31656 191.574L-1.6 192.048V192.6H0.4ZM0.4 237.8H-1.6V239.794L0.394367 239.8L0.4 237.8ZM142.4 238.2H144.4V236.206L142.406 236.2L142.4 238.2ZM142.4 293H140.4V295H142.4V293ZM190.8 293V295H192.8V293H190.8ZM190.8 238.2V236.2H188.8V238.2H190.8ZM228 238.2V192.6H224V238.2H228ZM226 190.6H190.8V194.6H226V190.6ZM192.8 192.6V115.8H188.8V192.6H192.8ZM190.8 113.8H142.4V117.8H190.8V113.8ZM140.4 115.8V192.6H144.4V115.8H140.4ZM142.4 190.6H57.2V194.6H142.4V190.6ZM58.915 193.629L174.115 1.62899L170.685 -0.428993L55.485 191.571L58.915 193.629ZM172.4 -1.4H115.2V2.6H172.4V-1.4ZM113.483 -0.426361L-1.31656 191.574L2.11656 193.626L116.917 1.62636L113.483 -0.426361ZM-1.6 192.6V237.8H2.4V192.6H-1.6ZM0.394367 239.8L142.394 240.2L142.406 236.2L0.405634 235.8L0.394367 239.8ZM140.4 238.2V293H144.4V238.2H140.4ZM142.4 295H190.8V291H142.4V295ZM192.8 293V238.2H188.8V293H192.8ZM190.8 240.2H226V236.2H190.8V240.2Z" fill="url(#paint0_linear_107_185)"/>
<defs>
<linearGradient id="paint0_linear_107_185" x1="110" y1="-83" x2="110" y2="317" gradientUnits="userSpaceOnUse">
<stop stop-color="white"/>
<stop offset="1" stop-color="#2F2F2F" stop-opacity="0"/>
</linearGradient>
</defs>
</svg>
