<svg width="89" height="154" viewBox="0 0 89 154" fill="none" xmlns="http://www.w3.org/2000/svg">
<path d="M4.24323 39.7556C4.24323 39.7556 -5.77629 57.3616 6.59156 75.4191C18.9594 93.4766 72.8143 89.8651 81.7379 109.728C81.7379 109.728 93.7927 93.7775 73.5971 80.6859C53.4015 67.5942 14.2627 65.638 4.24323 39.7556Z" fill="#D86658"/>
<path d="M76.5008 -56C76.5008 -56 91.4874 -37.1036 71.4023 -11.6543C51.4716 13.7949 -1.83118 15.1664 0.486334 54.4832C0.486334 54.4832 10.9924 42.5967 44.0556 30.2531C77.1188 17.9094 85.3073 -4.33959 88.5519 -19.8834C91.7964 -35.2749 76.3463 -56 76.3463 -56H76.5008Z" fill="#EF7966"/>
<path d="M25.5479 126.66L36.0855 139.205L22.5596 153.919C22.5596 153.919 68.1704 141.528 79.3372 129.757C90.504 118.141 93.6496 101.259 79.809 87.6292C79.809 87.6292 90.1894 122.013 25.7051 126.66H25.5479Z" fill="#EF7966"/>
</svg>
