<svg width="108" height="239" viewBox="0 0 108 239" fill="none" xmlns="http://www.w3.org/2000/svg">
<path d="M17.168 -15.6122C17.168 -15.6122 -5.83882 25.8021 23.3621 56.7684C52.4366 87.7346 95.6692 92.1404 92.1297 128.016C92.1297 128.016 70.2606 114.421 50.2876 101.707C30.3147 88.9934 -28.8456 36.7536 17.168 -15.4863V-15.6122Z" fill="#07C5BD"/>
<path d="M89.3103 -104C83.7594 -96.6207 76.5684 -88.9869 67.3588 -81.0987C12.7324 -34.2783 -5.56052 -4.88837 1.50434 32.2626C1.50434 32.2626 1.37818 -5.65175 70.639 -60.1059C89.9411 -75.2462 101.043 -90.2592 107.099 -104H89.1842H89.3103Z" fill="#1FE1D9"/>
<path d="M24.4527 168.689C24.4527 168.689 19.2345 184.674 57.0345 196.912C94.7072 209.149 88.2163 238.496 88.2163 238.496L80.5799 228.131L71.5436 238.371C71.5436 238.371 74.4708 224.01 53.8527 217.142C26.6163 208.026 16.18 196.912 14.9073 182.051C13.7618 167.066 24.3254 168.564 24.3254 168.564L24.4527 168.689Z" fill="#07C5BD"/>
<path d="M21.8464 197.985C21.8464 197.985 12.5542 179.779 37.1588 167.383C61.7634 154.988 108.224 155.504 93.0426 113.281C93.0426 113.281 84.9284 133.295 54.1726 140.526C23.4169 147.628 3.52382 172.807 21.8464 197.985Z" fill="#1FE1D9"/>
</svg>
