<svg width="16" height="16" viewBox="0 0 16 16" fill="none" xmlns="http://www.w3.org/2000/svg">
<g id="Crypto, Currency, Bitcoin, Ethereum 1" clip-path="url(#clip0_3230_7385)">
<g id="Group">
<g id="Group_2">
<path id="Vector" d="M3.43994 4.10662C3.74727 3.74662 4.09727 3.42595 4.48127 3.14795" stroke="#131920" stroke-linecap="round" stroke-linejoin="round"/>
<path id="Vector_2" d="M11.3333 12.9878C10.38 13.6265 9.23396 13.9998 7.99996 13.9998C7.39196 13.9998 6.80596 13.9078 6.2533 13.7398" stroke="#131920" stroke-linecap="round" stroke-linejoin="round"/>
<path id="Vector_3" d="M4.23263 12.6667C3.37863 11.9767 2.72263 11.0553 2.34863 10" stroke="#131920" stroke-linecap="round" stroke-linejoin="round"/>
<path id="Vector_4" d="M2.34867 6C2.12667 6.62667 2 7.29733 2 8" stroke="#131920" stroke-linecap="round" stroke-linejoin="round"/>
<path id="Vector_5" d="M6.2533 2.26C6.80596 2.092 7.39196 2 7.99996 2C11.314 2 14 4.686 14 8C14 9.23667 13.618 10.3793 12.9753 11.3333" stroke="#131920" stroke-linecap="round" stroke-linejoin="round"/>
<path id="Vector_6" d="M9.12071 10.4415H6.25671V7.98682H9.12005C9.79805 7.98682 10.348 8.53682 10.348 9.21482C10.348 9.89215 9.79871 10.4415 9.12071 10.4415Z" stroke="#131920" stroke-linecap="round" stroke-linejoin="round"/>
<path id="Vector_7" d="M6.25671 7.98659V5.45459H8.81005C9.50938 5.45459 10.076 6.02126 10.076 6.72059C10.076 7.41992 9.50938 7.98659 8.81005 7.98659" stroke="#131920" stroke-linecap="round" stroke-linejoin="round"/>
<path id="Vector_8" d="M7.85596 4.72754V5.45287" stroke="#131920" stroke-linecap="round" stroke-linejoin="round"/>
<path id="Vector_9" d="M7.85596 11.2726V10.4546" stroke="#131920" stroke-linecap="round" stroke-linejoin="round"/>
</g>
</g>
</g>
<defs>
<clipPath id="clip0_3230_7385">
<rect width="16" height="16" fill="white"/>
</clipPath>
</defs>
</svg>
