<svg width="16" height="16" viewBox="0 0 16 16" fill="none" xmlns="http://www.w3.org/2000/svg">
<g id="icon/Notification">
<path id="Vector" fill-rule="evenodd" clip-rule="evenodd" d="M3.62525 6.37762C3.62525 3.95952 5.58542 2 8.00284 2C10.4203 2 12.3805 3.95952 12.3805 6.37762L12.3812 7.25653C12.3812 7.77673 12.4953 8.2898 12.7171 8.76007L13.0278 9.42033C13.5026 10.4296 12.7664 11.5901 11.6508 11.5901H4.35496C3.23931 11.5901 2.50311 10.4296 2.97791 9.42033L3.28861 8.76007C3.50979 8.2898 3.6246 7.77673 3.6246 7.25653L3.62525 6.37762Z" stroke="#131920" stroke-linecap="round" stroke-linejoin="round"/>
<path id="Vector_2" d="M5.93127 11.9312C5.93127 13.0721 6.85621 13.9977 7.99715 13.9977C9.13875 13.9977 10.0637 13.0721 10.0637 11.9312" stroke="#131920" stroke-linecap="round" stroke-linejoin="round"/>
</g>
</svg>
