<svg xmlns="http://www.w3.org/2000/svg" width="17" height="16" viewBox="0 0 17 16" fill="none">
  <path d="M12.6762 8.52909C13.1106 8.69053 13.1106 9.30502 12.6762 9.46646L10.0824 10.4303C9.47744 10.6578 9.00244 11.1303 8.77744 11.7353L7.8137 14.3322C7.65237 14.7669 7.03751 14.7669 6.87618 14.3322L5.91244 11.7353C5.68744 11.1303 5.21244 10.6553 4.60744 10.4303L2.01373 9.46646C1.57927 9.30502 1.57927 8.69053 2.01372 8.52909L4.60744 7.56527C5.21244 7.34027 5.68744 6.86527 5.91244 6.26027L6.87625 3.66656C7.03769 3.23211 7.65219 3.23211 7.81363 3.66656L8.77744 6.26027C9.00244 6.86527 9.47744 7.34027 10.0824 7.56527L12.6762 8.52909Z" fill="#131920"/>
  <path d="M14.988 4.31435C15.4226 4.47547 15.423 5.09004 14.9886 5.25175L14.645 5.37969C14.605 5.39469 14.5725 5.42969 14.555 5.46969L14.4278 5.8127C14.2667 6.24732 13.6521 6.24774 13.4904 5.81334L13.3625 5.46969C13.3475 5.42969 13.3175 5.39719 13.2725 5.37969L12.9288 5.25175C12.4944 5.09004 12.4949 4.47547 12.9295 4.31435L13.2725 4.18719C13.315 4.17219 13.345 4.13719 13.3625 4.09719L13.4904 3.75353C13.6521 3.31914 14.2667 3.31956 14.4278 3.75417L14.555 4.09719C14.57 4.13719 14.605 4.16969 14.645 4.18719L14.988 4.31435Z" fill="#131920"/>
  <path d="M11.3186 1.43309C11.4923 1.4975 11.4927 1.74307 11.3191 1.80794L10.9998 1.92734C10.9573 1.94234 10.9273 1.97734 10.9098 2.01734L10.7904 2.33671C10.7255 2.51024 10.4799 2.50991 10.4155 2.33621L10.2973 2.01734C10.2823 1.97734 10.2473 1.94484 10.2048 1.92734L9.88618 1.80787C9.7129 1.74289 9.71323 1.49767 9.88668 1.43316L10.2048 1.31484C10.2473 1.29984 10.2823 1.26484 10.2973 1.22234L10.4156 0.90426C10.4801 0.730805 10.7253 0.730477 10.7903 0.903758L10.9098 1.22234C10.9248 1.26484 10.9548 1.29984 10.9998 1.31484L11.3186 1.43309Z" fill="#131920"/>
</svg>
