<svg width="24" height="24" viewBox="0 0 24 24" fill="none" xmlns="http://www.w3.org/2000/svg">
<path fill-rule="evenodd" clip-rule="evenodd" d="M13.9654 4C14.7905 4 15.5455 4.45535 15.9347 5.18216C16.1877 5.656 16.465 6.1347 16.643 6.33027C16.9816 6.6854 17.4467 6.89557 17.9381 6.91308C19.6291 6.91308 21 8.284 21 9.97498V9.97698V15.6193C21 17.8873 19.1611 19.7262 16.8941 19.7262H7.10595C4.83795 19.7262 3 17.8873 3 15.6193V9.97698C3.00195 8.28692 4.37189 6.91892 6.06195 6.91892C6.5533 6.89946 7.01741 6.69027 7.35697 6.33416C7.53892 6.13373 7.83178 5.63654 8.09935 5.15297C8.49243 4.44173 9.23968 4 10.0531 4H13.9654Z" stroke="white" stroke-opacity="0.96" stroke-width="1.5" stroke-linecap="round" stroke-linejoin="round"/>
<path fill-rule="evenodd" clip-rule="evenodd" d="M15.0944 12.9681C15.0944 11.2605 13.7098 9.875 12.0013 9.875C10.2927 9.875 8.9082 11.2605 8.9082 12.9681C8.9082 14.6766 10.2927 16.0612 12.0013 16.0612C13.7098 16.0612 15.0944 14.6766 15.0944 12.9681Z" stroke="white" stroke-opacity="0.96" stroke-width="1.5" stroke-linecap="round" stroke-linejoin="round"/>
</svg>
