<svg width="24" height="24" viewBox="0 0 24 24" fill="none" xmlns="http://www.w3.org/2000/svg">
<path d="M18.9419 5.55564C17.6473 4.94991 16.263 4.5097 14.8157 4.25903C14.638 4.58038 14.4304 5.01259 14.2872 5.35641C12.7487 5.12505 11.2245 5.12505 9.7143 5.35641C9.57116 5.01259 9.3588 4.58038 9.17947 4.25903C7.73067 4.5097 6.3448 4.95153 5.05016 5.55885C2.43887 9.50485 1.73099 13.3528 2.08493 17.1462C3.81688 18.4396 5.49534 19.2253 7.14548 19.7394C7.55291 19.1787 7.91628 18.5826 8.22931 17.9544C7.63313 17.7278 7.06211 17.4483 6.52256 17.1237C6.6657 17.0177 6.80571 16.9068 6.94098 16.7927C10.2318 18.3319 13.8074 18.3319 17.0589 16.7927C17.1958 16.9068 17.3358 17.0177 17.4774 17.1237C16.9362 17.4499 16.3637 17.7294 15.7675 17.956C16.0805 18.5826 16.4423 19.1803 16.8513 19.741C18.503 19.2268 20.183 18.4412 21.915 17.1462C22.3303 12.7487 21.2056 8.93608 18.9419 5.55564ZM8.67765 14.8133C7.68977 14.8133 6.87963 13.8911 6.87963 12.768C6.87963 11.6449 7.67247 10.7211 8.67765 10.7211C9.68285 10.7211 10.493 11.6433 10.4757 12.768C10.4772 13.8911 9.68285 14.8133 8.67765 14.8133ZM15.3223 14.8133C14.3344 14.8133 13.5243 13.8911 13.5243 12.768C13.5243 11.6449 14.3171 10.7211 15.3223 10.7211C16.3275 10.7211 17.1376 11.6433 17.1203 12.768C17.1203 13.8911 16.3275 14.8133 15.3223 14.8133Z" fill="white" fill-opacity="0.96"/>
</svg>
