<svg width="16" height="16" viewBox="0 0 16 16" fill="none" xmlns="http://www.w3.org/2000/svg">
  <path opacity="0.65" fill-rule="evenodd" clip-rule="evenodd" d="M7.9864 15.9628C12.3917 15.9628 15.9629 12.3916 15.9629 7.98631C15.9629 3.58101 12.3917 0.00981109 7.98641 0.0098107C3.5811 0.00981032 0.00990404 3.58101 0.00990365 7.98631C0.00990327 12.3916 3.5811 15.9628 7.9864 15.9628ZM10.7861 3.2755C11.4457 3.03972 12.1835 2.77594 12.7173 3.30966C13.251 3.84338 12.9872 4.58121 12.7515 5.24077C12.74 5.27292 12.7285 5.30489 12.7173 5.33662C12.6455 5.53886 12.5409 5.79327 12.4292 6.06496C12.1637 6.71074 11.858 7.45407 11.858 7.82626C11.858 8.35503 12.4529 10.0515 12.6952 10.6464C12.9376 11.2412 13.244 12.1246 12.6842 12.6843C12.1245 13.2441 11.2411 12.9377 10.6463 12.6954C10.0514 12.453 8.3549 11.8581 7.82613 11.8581C7.45393 11.8581 6.71062 12.1638 6.06485 12.4293C5.79317 12.541 5.53876 12.6456 5.3365 12.7174C5.30476 12.7287 5.27281 12.7401 5.24066 12.7516C4.5811 12.9873 3.84325 13.2511 3.30954 12.7174C2.77582 12.1837 3.0396 11.4458 3.27538 10.7862C3.28687 10.7541 3.29828 10.7222 3.30954 10.6904C3.3813 10.4882 3.4859 10.2338 3.59761 9.96214C3.86314 9.31636 4.16879 8.573 4.16879 8.2008C4.16879 7.67203 3.57393 5.97555 3.33157 5.38069C3.08922 4.78581 2.78285 3.90243 3.34259 3.34271C3.90231 2.78299 4.78569 3.08934 5.38057 3.33169C5.97543 3.57405 7.67191 4.16891 8.20068 4.16891C8.57288 4.16891 9.31619 3.86328 9.96196 3.59775C10.2336 3.48604 10.4881 3.38142 10.6903 3.30966C10.722 3.2984 10.754 3.28699 10.7861 3.2755Z" fill="url(#paint0_linear_1609_16653)"/>
  <path opacity="0.65" fill-rule="evenodd" clip-rule="evenodd" d="M13.6266 2.3461C10.5116 -0.768914 5.46118 -0.768914 2.34616 2.3461C-0.768851 5.46112 -0.768852 10.5116 2.34616 13.6266C5.46118 16.7416 10.5116 16.7416 13.6266 13.6266C16.7416 10.5116 16.7416 5.46112 13.6266 2.3461ZM2.67565 9.3375C2.04255 9.03784 1.33431 8.70262 1.33431 7.94783C1.33431 7.19304 2.04255 6.85782 2.67564 6.55816C2.7065 6.54355 2.73718 6.52903 2.76759 6.51455C2.96135 6.42228 3.21522 6.31636 3.48632 6.20324C4.13071 5.93436 4.87243 5.62488 5.13561 5.3617C5.50951 4.9878 6.28846 3.36757 6.53773 2.77557C6.78699 2.18356 7.19501 1.34229 7.98658 1.34229C8.77816 1.34229 9.18617 2.18356 9.43544 2.77557C9.6847 3.36758 10.4637 4.9878 10.8376 5.3617C11.1007 5.62488 11.8425 5.93436 12.4868 6.20324C12.7579 6.31636 13.0118 6.42229 13.2056 6.51455C13.236 6.52903 13.2667 6.54355 13.2975 6.55816C13.9306 6.85782 14.6389 7.19304 14.6389 7.94783C14.6389 8.70262 13.9306 9.03784 13.2975 9.3375C13.2667 9.3521 13.236 9.36662 13.2056 9.3811C13.0118 9.47337 12.7579 9.5793 12.4868 9.69242C11.8425 9.96129 11.1007 10.2708 10.8376 10.534C10.4637 10.9079 9.6847 12.5281 9.43544 13.1201C9.18617 13.7121 8.77816 14.5534 7.98658 14.5534C7.19501 14.5534 6.78699 13.7121 6.53773 13.1201C6.28846 12.5281 5.50951 10.9079 5.13561 10.534C4.87243 10.2708 4.13071 9.96129 3.48632 9.69242C3.21522 9.5793 2.96135 9.47337 2.76759 9.3811C2.73718 9.36662 2.7065 9.3521 2.67565 9.3375Z" fill="url(#paint1_linear_1609_16653)"/>
  <defs>
  <linearGradient id="paint0_linear_1609_16653" x1="16.3883" y1="0.00981195" x2="-0.164661" y2="15.7796" gradientUnits="userSpaceOnUse">
  <stop stop-color="#00A3FF"/>
  <stop offset="1" stop-color="#FF00C7"/>
  </linearGradient>
  <linearGradient id="paint1_linear_1609_16653" x1="17.3668" y1="0.00983753" x2="-1.40382" y2="0.977405" gradientUnits="userSpaceOnUse">
  <stop stop-color="#00FFF0"/>
  <stop offset="0.0001" stop-color="#13DEF2"/>
  <stop offset="0.855974" stop-color="#E26CFF"/>
  </linearGradient>
  </defs>
  </svg>
