<svg width="401" height="64" viewBox="0 0 401 64" fill="none" xmlns="http://www.w3.org/2000/svg">
<path opacity="0.4" d="M168.682 51.1399L168.125 50.8477L167.966 51.4558C162.677 71.623 144.325 86.5 122.5 86.5C110.319 86.5 99.2206 81.8665 90.8705 74.265L90.369 73.8084L90.0811 74.4225C82.5828 90.4212 66.3347 101.5 47.5 101.5C21.5426 101.5 0.5 80.4574 0.5 54.5C0.5 28.5426 21.5426 7.5 47.5 7.5C59.6814 7.5 70.7794 12.1335 79.1295 19.735L79.631 20.1916L79.9189 19.5775C87.4172 3.57885 103.665 -7.5 122.5 -7.5C130.376 -7.5 137.798 -5.56305 144.318 -2.13993L144.875 -1.84768L145.034 -2.45579C150.323 -22.623 168.675 -37.5 190.5 -37.5C216.457 -37.5 237.5 -16.4574 237.5 9.5C237.5 35.4574 216.457 56.5 190.5 56.5C182.624 56.5 175.202 54.563 168.682 51.1399Z" stroke="url(#paint0_linear_275_25485)"/>
<path d="M255.682 63.1399L255.125 62.8477L254.966 63.4558C249.677 83.623 231.325 98.5 209.5 98.5C197.319 98.5 186.221 93.8665 177.87 86.265L177.369 85.8084L177.081 86.4225C169.583 102.421 153.335 113.5 134.5 113.5C108.543 113.5 87.5 92.4574 87.5 66.5C87.5 40.5426 108.543 19.5 134.5 19.5C146.681 19.5 157.779 24.1335 166.13 31.735L166.631 32.1916L166.919 31.5775C174.417 15.5788 190.665 4.5 209.5 4.5C217.376 4.5 224.798 6.43695 231.318 9.86007L231.875 10.1523L232.034 9.54421C237.323 -10.623 255.675 -25.5 277.5 -25.5C303.457 -25.5 324.5 -4.45738 324.5 21.5C324.5 47.4574 303.457 68.5 277.5 68.5C269.624 68.5 262.202 66.563 255.682 63.1399Z" stroke="url(#paint1_linear_275_25485)"/>
<path d="M361.859 68.4719L361.445 68.4577L361.354 68.8618C356.635 89.834 337.897 105.5 315.5 105.5C307.341 105.5 299.669 103.422 292.983 99.7655L292.626 99.57L292.362 99.8809C283.74 110.048 270.874 116.5 256.5 116.5C230.543 116.5 209.5 95.4574 209.5 69.5C209.5 43.5426 230.543 22.5 256.5 22.5C264.659 22.5 272.331 24.5785 279.017 28.2345L279.374 28.43L279.638 28.1191C288.26 17.9518 301.126 11.5 315.5 11.5C316.049 11.5 316.596 11.5094 317.141 11.5281L317.555 11.5423L317.646 11.1381C322.365 -9.83403 341.103 -25.5 363.5 -25.5C380.595 -25.5 395.559 -16.3736 403.784 -2.72481L403.935 -2.47532L404.226 -2.48307C404.649 -2.49433 405.074 -2.5 405.5 -2.5C431.457 -2.5 452.5 18.5426 452.5 44.5C452.5 70.4574 431.457 91.5 405.5 91.5C388.405 91.5 373.441 82.3736 365.216 68.7248L365.065 68.4753L364.774 68.4831C364.351 68.4943 363.926 68.5 363.5 68.5C362.951 68.5 362.404 68.4906 361.859 68.4719Z" stroke="url(#paint2_linear_275_25485)"/>
<defs>
<linearGradient id="paint0_linear_275_25485" x1="119" y1="-38" x2="206.5" y2="82" gradientUnits="userSpaceOnUse">
<stop stop-color="#61C9EE"/>
<stop offset="1" stop-color="#61C9EE" stop-opacity="0"/>
</linearGradient>
<linearGradient id="paint1_linear_275_25485" x1="206" y1="-26" x2="322" y2="52" gradientUnits="userSpaceOnUse">
<stop stop-color="#73D6F6"/>
<stop offset="1" stop-color="#73D6F6" stop-opacity="0"/>
</linearGradient>
<linearGradient id="paint2_linear_275_25485" x1="244.5" y1="24" x2="331" y2="117" gradientUnits="userSpaceOnUse">
<stop stop-color="#86EBFD"/>
<stop offset="1" stop-color="#86EBFD" stop-opacity="0"/>
</linearGradient>
</defs>
</svg>
