<svg width="364" height="64" viewBox="0 0 364 64" fill="none" xmlns="http://www.w3.org/2000/svg">
<path opacity="0.4" d="M195.318 51.1399L195.875 50.8477L196.034 51.4558C201.323 71.623 219.675 86.5 241.5 86.5C253.681 86.5 264.779 81.8665 273.13 74.265L273.631 73.8084L273.919 74.4225C281.417 90.4212 297.665 101.5 316.5 101.5C342.457 101.5 363.5 80.4574 363.5 54.5C363.5 28.5426 342.457 7.5 316.5 7.5C304.319 7.5 293.221 12.1335 284.87 19.735L284.369 20.1916L284.081 19.5775C276.583 3.57885 260.335 -7.5 241.5 -7.5C233.624 -7.5 226.202 -5.56305 219.682 -2.13993L219.125 -1.84768L218.966 -2.45579C213.677 -22.623 195.325 -37.5 173.5 -37.5C147.543 -37.5 126.5 -16.4574 126.5 9.5C126.5 35.4574 147.543 56.5 173.5 56.5C181.376 56.5 188.798 54.563 195.318 51.1399Z" stroke="url(#paint0_linear_275_25490)"/>
<path d="M108.318 63.1399L108.875 62.8477L109.034 63.4558C114.323 83.623 132.675 98.5 154.5 98.5C166.681 98.5 177.779 93.8665 186.13 86.265L186.631 85.8084L186.919 86.4225C194.417 102.421 210.665 113.5 229.5 113.5C255.457 113.5 276.5 92.4574 276.5 66.5C276.5 40.5426 255.457 19.5 229.5 19.5C217.319 19.5 206.221 24.1335 197.87 31.735L197.369 32.1916L197.081 31.5775C189.583 15.5788 173.335 4.5 154.5 4.5C146.624 4.5 139.202 6.43695 132.682 9.86007L132.125 10.1523L131.966 9.54421C126.677 -10.623 108.325 -25.5 86.5 -25.5C60.5426 -25.5 39.5 -4.45738 39.5 21.5C39.5 47.4574 60.5426 68.5 86.5 68.5C94.3762 68.5 101.798 66.563 108.318 63.1399Z" stroke="url(#paint1_linear_275_25490)"/>
<path d="M2.14091 68.4719L2.55493 68.4577L2.64587 68.8618C7.36452 89.834 26.1033 105.5 48.5 105.5C56.6588 105.5 64.3307 103.422 71.0166 99.7655L71.3742 99.57L71.6378 99.8809C80.2598 110.048 93.1262 116.5 107.5 116.5C133.457 116.5 154.5 95.4574 154.5 69.5C154.5 43.5426 133.457 22.5 107.5 22.5C99.3412 22.5 91.6693 24.5785 84.9834 28.2345L84.6258 28.43L84.3622 28.1191C75.7402 17.9518 62.8738 11.5 48.5 11.5C47.9508 11.5 47.4037 11.5094 46.8591 11.5281L46.4451 11.5423L46.3541 11.1381C41.6355 -9.83403 22.8967 -25.5 0.5 -25.5C-16.595 -25.5 -31.5589 -16.3736 -39.7843 -2.72481L-39.9347 -2.47532L-40.2259 -2.48307C-40.6492 -2.49433 -41.0739 -2.5 -41.5 -2.5C-67.4574 -2.5 -88.5 18.5426 -88.5 44.5C-88.5 70.4574 -67.4574 91.5 -41.5 91.5C-24.405 91.5 -9.44112 82.3736 -1.21565 68.7248L-1.06531 68.4753L-0.774109 68.4831C-0.350784 68.4943 0.0739288 68.5 0.5 68.5C1.04924 68.5 1.59627 68.4906 2.14091 68.4719Z" stroke="url(#paint2_linear_275_25490)"/>
<defs>
<linearGradient id="paint0_linear_275_25490" x1="245" y1="-38" x2="157.5" y2="82" gradientUnits="userSpaceOnUse">
<stop stop-color="#61C9EE"/>
<stop offset="1" stop-color="#61C9EE" stop-opacity="0"/>
</linearGradient>
<linearGradient id="paint1_linear_275_25490" x1="158" y1="-26" x2="42" y2="52" gradientUnits="userSpaceOnUse">
<stop stop-color="#73D6F6"/>
<stop offset="1" stop-color="#73D6F6" stop-opacity="0"/>
</linearGradient>
<linearGradient id="paint2_linear_275_25490" x1="119.5" y1="24" x2="33" y2="117" gradientUnits="userSpaceOnUse">
<stop stop-color="#86EBFD"/>
<stop offset="1" stop-color="#86EBFD" stop-opacity="0"/>
</linearGradient>
</defs>
</svg>
