<svg width="36" height="37" viewBox="0 0 36 37" fill="none" xmlns="http://www.w3.org/2000/svg">
<path fill-rule="evenodd" clip-rule="evenodd" d="M29.6659 7.08336C31.2978 6.39625 33.0472 7.77615 32.7591 9.52319L29.3557 30.1582C29.0276 32.1479 26.8423 33.2894 25.017 32.298C23.4895 31.4684 21.2234 30.1914 19.181 28.8569C18.1611 28.1905 15.0382 26.0536 15.422 24.5323C15.7502 23.2317 21.0002 18.3448 24.0002 15.4386C25.1786 14.297 24.6419 13.6375 23.2502 14.6886C19.7978 17.296 14.255 21.2604 12.422 22.3761C10.8048 23.3605 9.96046 23.5283 8.95329 23.3605C7.11409 23.0539 5.40895 22.5793 4.01682 22.0022C2.13526 21.2223 2.22691 18.6366 4.01554 17.8835L29.6659 7.08336Z" fill="white"/>
</svg>
