<svg width="32" height="32" viewBox="0 0 32 32" fill="none" xmlns="http://www.w3.org/2000/svg">
<g clip-path="url(#clip0_2335_9244)">
<path d="M16 32C24.8366 32 32 24.8366 32 16C32 7.16344 24.8366 0 16 0C7.16344 0 0 7.16344 0 16C0 24.8366 7.16344 32 16 32Z" fill="#988430"/>
<path d="M15.9992 31.4874C24.5527 31.4874 31.4867 24.5534 31.4867 15.9999C31.4867 7.44643 24.5527 0.512451 15.9992 0.512451C7.4457 0.512451 0.511719 7.44643 0.511719 15.9999C0.511719 24.5534 7.4457 31.4874 15.9992 31.4874Z" fill="#7A6A2A"/>
<path d="M15.9991 31.1612C24.3723 31.1612 31.1602 24.3733 31.1602 16C31.1602 7.62676 24.3723 0.838867 15.9991 0.838867C7.62578 0.838867 0.837891 7.62676 0.837891 16C0.837891 24.3733 7.62578 31.1612 15.9991 31.1612Z" fill="#BA9F33"/>
<path fill-rule="evenodd" clip-rule="evenodd" d="M6.99512 14.2914C6.9045 14.2086 6.80875 14.1257 6.72069 14.0429C6.63263 13.9601 6.54217 13.8772 6.45155 13.7944L6.18224 13.5384C6.1382 13.4944 6.09161 13.4556 6.04758 13.4114C6.00355 13.3727 5.95184 13.3286 5.9078 13.2897C5.55043 12.9506 5.191 12.6115 4.83858 12.2722C5.20363 12.6062 5.56101 12.9378 5.92607 13.2768L6.05287 13.4037C6.0969 13.4476 6.14349 13.4865 6.18753 13.5305L6.45667 13.779C6.54729 13.8618 6.63536 13.9447 6.72598 14.035C6.8166 14.1253 6.90467 14.2084 6.99529 14.291L6.99512 14.2914ZM2.25212 14.2402C2.25212 14.2402 3.55175 14.3747 4.18612 14.4653C4.77372 14.5482 6.61197 14.8303 6.61197 14.8303L2.25212 14.2402ZM2.25212 14.2402C2.61718 14.2712 2.98224 14.31 3.34729 14.3489C3.53366 14.367 3.71235 14.3876 3.89104 14.4057L4.1653 14.437C4.25592 14.4498 4.34398 14.4627 4.43461 14.4757L5.5221 14.6491L6.06567 14.7397C6.24436 14.7708 6.42305 14.8046 6.60941 14.8356C6.43073 14.8175 6.24436 14.7916 6.06567 14.7657L5.5221 14.688L4.43461 14.5276C4.34398 14.5146 4.25592 14.4963 4.1653 14.4835L3.89087 14.452C3.71218 14.4339 3.52581 14.4079 3.34712 14.3871C2.98207 14.3433 2.61701 14.2965 2.25195 14.2397L2.25212 14.2402ZM6.48261 15.1689C6.48261 15.1689 5.09492 15.5212 4.62627 15.6559C4.16547 15.7827 2.76993 16.2073 2.76993 16.2073L6.48244 15.1691L6.48261 15.1689Z" fill="#CFB66C"/>
<path fill-rule="evenodd" clip-rule="evenodd" d="M6.48335 15.1689C6.1753 15.2596 5.86895 15.3476 5.55646 15.4306L4.62957 15.6791C4.32152 15.7697 4.01517 15.8578 3.70797 15.9484L3.24717 16.0752C3.09442 16.1192 2.93912 16.158 2.78125 16.2022C2.93383 16.151 3.0893 16.0986 3.24205 16.0545L3.70285 15.9071C4.0109 15.8112 4.31725 15.7205 4.62445 15.6248C4.93762 15.5471 5.24585 15.4642 5.55902 15.3891C5.85666 15.314 6.17001 15.2391 6.48335 15.1691V15.1689ZM2.96506 17.0616C3.11763 17.0046 4.87823 16.1841 5.28732 15.9924C5.49212 15.8965 6.0874 15.6852 6.0874 15.6852L2.96506 17.0616Z" fill="#CFB66C"/>
<path fill-rule="evenodd" clip-rule="evenodd" d="M2.96501 17.0615C3.0995 17.0103 3.22648 16.9476 3.35584 16.8881L3.73899 16.7094L4.50801 16.3392C4.76401 16.2175 5.01284 16.0832 5.27687 15.9688C5.41152 15.912 5.54618 15.8654 5.68066 15.8214L5.88546 15.7567C5.95527 15.7386 6.02012 15.7178 6.09026 15.6997C5.83426 15.8214 5.56478 15.925 5.30844 16.0439C5.05244 16.1709 4.79064 16.2745 4.52644 16.3883L3.74462 16.7326C3.48213 16.8389 3.22613 16.9527 2.96484 17.0615H2.96501ZM3.13568 17.7783C3.13568 17.7783 4.73039 16.8437 5.27925 16.5433C5.56666 16.3829 6.49611 15.9219 6.49611 15.9219L3.13568 17.7783Z" fill="#CFB66C"/>
<path fill-rule="evenodd" clip-rule="evenodd" d="M3.13477 17.7787C3.40391 17.613 3.67834 17.4447 3.95277 17.2739L4.36237 17.0252C4.50215 16.9424 4.6368 16.8648 4.77931 16.782C4.91909 16.6991 5.05374 16.6163 5.19608 16.5386C5.26384 16.4968 5.33483 16.4604 5.40839 16.4299L5.62582 16.3212C5.91322 16.1814 6.20062 16.0389 6.50356 15.9172C6.22912 16.0908 5.94684 16.2384 5.66473 16.391C5.52495 16.4687 5.38245 16.5386 5.24267 16.6163C5.10289 16.6939 4.96824 16.7769 4.82573 16.852C4.68596 16.9348 4.5513 17.0124 4.40896 17.0875L3.9869 17.3179L3.13511 17.7787H3.13477ZM6.48222 16.1268C6.48222 16.1268 5.49065 16.888 5.16962 17.1314C4.8486 17.3747 3.90362 18.0582 3.90362 18.0582L6.48222 16.1268Z" fill="#CFB66C"/>
<path fill-rule="evenodd" clip-rule="evenodd" d="M12.1734 22.2653L11.666 21.3048L11.9611 20.1034L14.0659 19.2906L13.1701 17.4525L13.6128 15.5961L14.444 13.9338L17.0123 13.5301L18.8996 11.7307L22.9747 12.0388L23.7746 16.3961L22.2342 21.8821L21.3566 24.7224L17.7993 24.857L16.1476 23.7127L14.2136 22.9048L12.1734 22.2653Z" fill="#E2CC85"/>
<path fill-rule="evenodd" clip-rule="evenodd" d="M18.414 22.2344C18.414 22.2344 17.922 22.4597 17.0828 22.4078C16.8399 22.0816 15.1391 21.9289 15.1391 21.9289C15.1391 21.9289 14.9268 21.8642 14.5513 22.0195C14.1734 22.1731 13.8161 22.1542 13.4821 22.237C13.1481 22.3197 12.8165 21.8849 12.5605 21.7942C12.3045 21.6985 11.965 21.4681 11.965 21.4681L11.2482 21.3981L9.8088 20.7897L7.52204 18.5115L6.90064 19.4843L6.70898 20.6882L7.40036 22.1148L9.26182 23.8105L12.8916 24.7321L15.043 24.0982L17.7381 22.959L18.414 22.2342V22.2344Z" fill="#F1D789"/>
<path fill-rule="evenodd" clip-rule="evenodd" d="M5.51755 14.1826L5.97835 12.7873L6.52738 11.8862L8.29549 11.7385L7.76472 13.2868L6.28657 15.9173L6.90012 18.2655L5.8128 18.8091L5.47864 18.2966L5.2095 17.1212L5.19141 15.8007L5.51755 14.1826Z" fill="#F4ECB4"/>
<path fill-rule="evenodd" clip-rule="evenodd" d="M7.49952 22.1386L7.1604 21.6648C7.1604 21.6648 7.06978 21.4395 7.12166 21.2427C7.17286 21.0434 7.16552 21.0304 7.13975 20.9553C7.11398 20.8802 6.89638 20.6213 6.90935 20.3986C6.92215 20.1733 6.89126 20.0983 7.05681 19.9197C7.23021 19.7463 7.17849 19.446 7.17849 19.446L7.40377 19.5857L7.45497 19.5081C7.45497 19.5081 7.53775 19.5728 7.53775 19.6738C7.55584 19.534 7.48075 18.8867 7.65158 18.7392C7.82242 18.5918 8.12535 19.4304 8.12535 19.4304L7.93899 18.2136L7.45992 16.9658L6.60813 15.8266L6.55693 14.5709V14.4622C6.55693 14.4622 6.16593 15.0629 6.05721 15.5374C5.97956 15.8635 6.16593 16.2596 6.12719 16.7283C6.09596 17.1944 6.05721 17.158 6.17105 17.3427C6.28488 17.5273 6.56205 17.9071 6.45333 18.1815C6.35759 18.4172 6.03127 18.2515 6.03127 18.2515C6.03127 18.2515 5.96659 18.443 5.87853 18.5129C5.84747 18.3991 5.81384 18.3266 5.75172 18.2569C5.74643 18.301 5.73363 18.3605 5.73363 18.3605C5.73363 18.3605 5.67663 18.1818 5.61963 17.9566C5.54214 17.6564 5.4592 17.2602 5.38411 17.0479C5.35304 17.1696 5.27539 17.5398 5.27539 17.5398L5.31942 18.1095L5.53173 18.8913L5.73653 19.4033L5.93587 20.0298L6.1091 20.4507L6.24887 20.7717L6.37056 21.4941L6.95816 22.1154L7.27151 22.2553L7.49918 22.1387L7.49952 22.1386Z" fill="#F3E19D"/>
<path fill-rule="evenodd" clip-rule="evenodd" d="M5.82437 13.0434C5.82437 13.0434 5.40231 13.7602 5.28079 14.4828C5.15928 15.2054 5.05039 15.9689 5.12719 16.9527C5.20485 17.9444 5.35247 18.5527 5.4716 18.9877C5.6764 19.7101 6.20683 20.7147 6.20683 20.7147L6.22492 20.6758C6.13576 20.5068 6.0646 20.3289 6.01261 20.145C5.94264 19.8706 5.9167 19.5444 5.85201 19.3968C5.79501 19.2493 5.69927 19.1224 5.65268 18.9411C5.60864 18.7677 5.60148 18.4933 5.46631 18.2888C5.40931 18.2059 5.33933 17.9884 5.31868 17.771C5.29274 17.4447 5.33165 17.0796 5.30059 16.7794C5.24359 16.2797 5.20485 15.9406 5.25656 15.679C5.30827 15.4174 5.57775 14.6746 5.74347 14.0843C5.85219 13.7062 5.78733 13.3878 5.98667 13.0589C6.18601 12.7328 6.30787 12.4454 6.35173 12.246C6.40293 12.0648 5.82368 13.0434 5.82368 13.0434H5.82437Z" fill="#F2E8B0"/>
<path fill-rule="evenodd" clip-rule="evenodd" d="M7.82727 12.7559C7.82727 12.7559 7.60984 12.8207 7.50625 12.9345C7.40265 13.0433 7.35862 13.1339 7.21884 13.3177C7.07907 13.5015 7.07122 13.6517 6.95721 13.8821C6.84338 14.1074 6.59215 14.4465 6.56109 14.5682C6.53003 14.6899 6.47832 15.2594 6.41364 15.5287C6.35663 15.798 6.47832 16.1294 6.47832 16.1294L6.62578 16.0982C6.62578 16.0982 6.62578 16.2899 6.7734 16.4194C6.92086 16.5462 6.9468 15.9895 6.9468 15.9895L7.49822 14.128L8.3292 13.5636L8.41982 13.1079L7.82693 12.7559H7.82727Z" fill="#F5EEC0"/>
<path fill-rule="evenodd" clip-rule="evenodd" d="M8.23086 13.6C8.23086 13.6 7.83986 13.6258 7.64837 13.7657C7.57072 13.8226 7.53966 13.8692 7.45688 13.9391C7.30414 14.0659 7.14866 14.1825 7.07374 14.3487C6.99079 14.5143 6.90017 14.7655 6.83805 15.2393C6.81211 15.4386 6.8121 15.6224 6.79401 15.783C6.76807 16.0004 6.72933 16.1738 6.74998 16.295C6.77592 16.5435 7.03227 16.673 7.05718 16.9552L7.58796 16.686L8.08767 14.7157L9.14921 14.0501L8.54847 13.377L8.23017 13.5988L8.23086 13.6Z" fill="#E6DB9D"/>
<path fill-rule="evenodd" clip-rule="evenodd" d="M5.42986 26.8679C5.43208 26.8485 5.4343 26.829 5.43651 26.8091C5.514 26.1435 5.52714 25.639 5.58397 25.3231C5.66674 24.8752 5.72375 24.7087 5.71078 24.5411C5.69268 24.2719 5.67203 24.0751 5.69798 23.868C5.73672 23.5935 6.00603 23.2674 5.99835 23.0421C5.99306 22.8634 5.90243 22.747 5.82478 22.6383C5.74713 22.5296 5.685 22.439 5.685 22.439C5.685 22.439 6.21578 22.0739 6.21066 20.6033C6.2215 20.6063 6.23193 20.6107 6.24172 20.6162L6.50318 21.3592L6.68187 21.5766L7.36795 22.8556L8.25081 23.7126L9.55555 24.5902L10.3737 25.4806L10.4565 27.8547L9.38728 29.2424L9.21217 29.5595C7.82102 28.8611 6.54533 27.9533 5.42969 26.8678L5.42986 26.8679Z" fill="#E5CB7A"/>
<path fill-rule="evenodd" clip-rule="evenodd" d="M8.69727 29.1392C8.69727 29.1392 8.71536 28.8441 8.95873 28.6525C8.99764 28.7172 9.02341 28.7795 9.01573 28.8259C9.05976 28.7484 9.36781 28.2512 10.0643 28.1217C10.7608 27.9949 10.9291 27.4875 10.9291 27.4875L12.4072 26.1438L14.0978 24.5879L16.1535 23.8654L17.1142 23.6298C17.1142 23.6298 17.1323 23.6997 17.0961 23.855C17.2746 23.8422 17.6707 23.7516 18.0824 23.6065C18.2481 23.5419 18.4036 23.5159 18.4864 23.6014C18.6081 23.7153 18.6261 23.9846 18.6338 24.145C18.8332 24.101 19.0636 23.9095 19.2482 23.9276C19.5435 23.9586 19.8049 24.3056 20.1053 24.3056C20.5014 24.3056 20.6799 24.0622 20.9571 23.8706C21.1228 23.7567 21.3609 23.6146 21.4956 23.5185C21.8166 23.2828 25.2134 22.2446 25.2134 22.2446L26.4043 22.3223L26.5959 23.6013L26.4935 26.9446C26.4809 26.9567 26.4683 26.9694 26.4555 26.9815L21.0406 29.8096L13.5346 30.9602C11.8533 30.6855 10.2308 30.1274 8.73618 29.3097L8.69778 29.1391L8.69727 29.1392Z" fill="#D8C173"/>
<path fill-rule="evenodd" clip-rule="evenodd" d="M5.88477 27.2932C5.99143 27.0702 6.08735 26.8836 6.10424 26.8169C6.11755 26.9514 6.14196 27.2465 6.19111 27.5601C6.08792 27.4724 5.9858 27.3834 5.88477 27.2931V27.2932Z" fill="#F1D789"/>
<path fill-rule="evenodd" clip-rule="evenodd" d="M11.3684 30.4395L12.3391 30.1695L12.4219 30.1954C12.4219 30.1954 12.4659 30.2214 12.4659 30.3093C12.5876 30.2395 12.6912 30.2523 12.7663 30.2058C12.8051 30.2886 12.8438 30.563 13.0148 30.5967C13.1933 30.6356 13.385 30.519 13.5792 30.3716C13.7707 30.2188 13.9888 30.0271 14.1538 29.9495C14.2144 30.0608 14.268 30.1758 14.3144 30.2937C14.5319 30.1203 14.9099 29.4162 15.4483 29.429C15.604 29.0612 15.864 28.7471 16.1962 28.5255C16.6959 28.1863 17.0091 28.1604 17.4001 28.1915C17.5554 27.9897 17.7467 27.8186 17.9645 27.6866C18.0292 27.7126 18.2078 27.8213 18.4306 27.7177C18.6558 27.6143 18.9095 27.2129 19.2435 27.1611C19.4234 27.1364 19.6064 27.1748 19.7613 27.2699C19.7613 27.2699 20.7341 26.3041 21.4053 25.983C21.3793 25.9054 21.3276 25.6129 22.1146 24.9655C22.1586 25.0044 22.1276 25.1131 22.1586 25.1191C22.1714 25.1191 22.3634 25.0363 22.6064 24.8498C22.9068 24.6247 23.2666 24.389 23.484 24.3243C23.8936 24.2026 24.3281 24.4511 24.3281 24.4511C24.3651 24.4252 24.4063 24.4059 24.4498 24.3941C24.5532 24.376 24.6283 24.3631 24.6853 24.3429C24.6802 24.4776 24.7553 24.708 24.6853 24.9073C24.7664 24.9529 24.8522 24.9894 24.9413 25.016C24.8975 25.1118 24.8016 25.3551 24.6411 25.4717C24.7756 25.5364 24.7937 25.6115 24.9854 25.6765C24.9077 25.7852 24.7806 25.9718 24.7239 26.0861C24.6669 26.2078 24.4623 26.7126 24.3716 26.9041C24.2759 27.0958 24.1465 27.4479 24.0842 27.5185C24.0219 27.5892 23.7968 27.8887 23.6234 28.0361C23.777 27.9791 24.4054 27.7877 24.672 27.7151C24.5927 27.8315 24.1904 28.4283 23.8037 29.0023C21.952 30.1121 19.8851 30.8146 17.7406 31.0628C15.5962 31.3111 13.4234 31.0995 11.3672 30.442L11.3684 30.4395Z" fill="#E0CD81"/>
<path fill-rule="evenodd" clip-rule="evenodd" d="M8.2935 13.5302C8.2935 13.5302 8.06839 13.5302 8.02436 13.5613C7.98033 13.5923 8.24964 13.6572 8.33241 13.6882C8.41519 13.7193 8.59388 13.8616 8.64047 13.9756C8.6845 14.0844 10.2586 14.7185 10.2586 14.7185L11.3718 14.6615L11.7556 14.1313L11.0255 13.4918L11.5375 11.9824L10.8593 12.0911L9.22824 13.0639L8.41007 13.3773L8.2935 13.5302Z" fill="#DFC57C"/>
<path fill-rule="evenodd" clip-rule="evenodd" d="M10.7397 14.0299C10.7558 14.056 10.7785 14.0773 10.8055 14.0919C10.8324 14.1064 10.8627 14.1136 10.8933 14.1127C11.1237 14.1127 11.3359 14.1697 11.4239 14.2861C11.5716 14.4726 11.9807 15.0681 11.9807 15.0681L12.9593 15.4202L13.0224 14.2678L11.9532 13.5249L10.7363 13.9727V14.0297H10.7391L10.7397 14.0299Z" fill="#E5CC7C"/>
<path fill-rule="evenodd" clip-rule="evenodd" d="M10.5481 14.4571C10.5481 14.4571 10.7266 14.47 10.9519 14.3871C11.1772 14.3041 11.5474 14.1256 11.708 14.1956C11.9331 14.2913 11.8865 14.5917 12.13 14.8612C12.2775 15.0269 12.5468 15.0218 12.6995 15.2005C12.8523 15.3792 13.3778 15.2962 13.3778 15.2962L13.5771 16.3714L12.7772 17.3968L12.5156 18.6705H11.4339L10.4457 18.2785L9.95898 17.1009L10.2024 15.9099L10.5481 14.4571Z" fill="#D2C281"/>
<path fill-rule="evenodd" clip-rule="evenodd" d="M12.6397 14.5087C12.6665 14.517 12.6944 14.5214 12.7224 14.5217C12.6914 14.5476 12.6265 14.6045 12.6525 14.7521C12.6784 14.8997 12.7612 15.0861 12.6914 15.1999C12.7471 15.2609 12.7886 15.3334 12.8131 15.4122C12.8571 15.5392 12.8701 15.6556 13.1573 15.6739C13.1158 15.6994 13.0776 15.7298 13.0435 15.7645C13.0435 15.7645 13.2428 15.9379 13.3438 16.0983C13.4473 16.0939 13.7217 16.0085 13.7217 16.0085L13.7787 16.0475L13.9004 15.9963C13.9004 15.9963 13.7865 15.9522 13.8693 15.6752C13.947 15.4319 14.0169 15.4448 14.0229 15.4267C14.0289 15.4087 14.0799 15.1523 14.0799 15.0487C14.1187 14.9142 14.1497 14.5051 14.1497 14.5051L14.0669 13.6016L13.601 13.3194L13.2221 12.9536L12.8648 13.6267L12.6294 13.8614L12.6113 14.4439L12.6397 14.5087Z" fill="#E2C270"/>
<path fill-rule="evenodd" clip-rule="evenodd" d="M13.7598 13.7527C13.7598 13.7527 13.8425 13.9882 13.8738 14.1695C13.8848 14.1343 13.8909 14.0977 13.8919 14.0608C13.8919 14.0608 13.9565 14.4181 13.9693 14.5658C13.9953 14.5605 14.0205 14.5528 14.0263 14.5786C14.0321 14.6043 14.0912 14.8919 14.0775 15.0523C14.1854 14.8745 14.3345 14.7253 14.5124 14.6175C14.616 14.5526 14.7377 14.4828 14.8647 14.4775C15.064 14.4724 15.2089 14.6045 15.4471 14.6045C16.0218 14.6045 16.5423 14.1825 16.9255 14.0531C17.2076 13.9572 17.4509 13.8874 17.6218 13.7319C17.7047 13.6621 17.8524 13.5068 17.9868 13.2762C18.1655 12.969 18.3519 12.7016 18.5384 12.668C18.454 12.6835 18.3682 12.6895 18.2824 12.6861C18.2824 12.6861 18.3394 12.629 18.436 12.5514C18.5326 12.4737 18.6483 12.378 18.8139 12.378C19.1091 12.378 19.2566 12.4219 19.4223 12.4219C19.588 12.4167 19.6838 12.378 19.6838 12.378C19.6838 12.378 19.8573 12.4997 20.2482 12.4997C20.6392 12.5048 20.9006 12.5384 21.1053 12.5567C21.3099 12.5749 21.9958 12.4997 22.1926 12.5055C22.3209 12.5104 22.4468 12.5413 22.5629 12.5961L21.9286 10.7529L19.6498 8.76123L18.2932 9.72174L16.2063 11.8085L14.1869 12.5567L13.7649 13.0305V13.7527H13.7598Z" fill="#CCB360"/>
<path fill-rule="evenodd" clip-rule="evenodd" d="M18.2913 12.6963C18.2913 12.6963 18.3483 12.6395 18.4439 12.5618C18.5395 12.4842 18.6564 12.3883 18.8219 12.3883C19.117 12.3883 19.2647 12.4323 19.4304 12.4323C19.5961 12.4272 19.6918 12.3883 19.6918 12.3883C19.6918 12.3883 19.8656 12.5098 20.2562 12.5098C20.6472 12.5149 20.9087 12.5485 21.1133 12.5666C21.3179 12.5847 22.0039 12.5098 22.2006 12.5154C22.3289 12.5203 22.4548 12.5511 22.5708 12.606L22.2834 11.7749L21.9496 11.1407L20.9968 10.0972C20.9968 10.0972 19.8533 9.42414 19.8446 9.41902C19.8395 9.4139 19.4485 9.3103 19.4485 9.3103L18.4129 9.93682L17.4732 12.368L17.4551 12.88L18.0633 13.1674C18.2161 12.9114 18.3845 12.7066 18.5424 12.6806C18.3999 12.6962 18.2912 12.6962 18.2912 12.6962L18.2913 12.6963Z" fill="#D5B457"/>
<path fill-rule="evenodd" clip-rule="evenodd" d="M18.2786 12.8699C18.188 12.8751 18.1131 12.857 18.0922 12.7923C18.0146 12.5749 17.9525 12.5438 17.8874 12.5438C17.8224 12.5438 17.7347 12.6836 17.6826 12.6964C17.6306 12.7092 17.5688 12.536 17.5688 12.536L17.5118 12.51C17.5118 12.51 17.1778 12.7274 16.9423 12.9838C16.7068 13.2401 16.3209 13.6752 16.1475 13.7526C15.9741 13.8301 15.3785 13.8562 15.1747 13.9003C14.9709 13.9443 14.745 14.0919 14.7139 14.1255C14.6828 14.1592 14.8047 14.1953 14.8228 14.229C14.8409 14.26 14.6233 14.2471 14.6052 14.2802C14.5924 14.3061 14.6564 14.4536 14.6881 14.5287C14.7437 14.501 14.8046 14.486 14.8666 14.4846C15.066 14.4795 15.2111 14.6116 15.4491 14.6116C16.0239 14.6116 16.5443 14.1895 16.9274 14.06C17.2097 13.9643 17.4531 13.8943 17.6239 13.739C17.7067 13.6692 17.8543 13.5137 17.989 13.2833C18.0873 13.1254 18.1832 12.9778 18.2791 12.8691L18.2786 12.8699Z" fill="#D2B257"/>
<path fill-rule="evenodd" clip-rule="evenodd" d="M10.0347 25.6829C10.0347 25.6829 9.98352 25.4913 9.50906 24.9968C9.37441 24.8571 9.29163 24.7408 9.20101 24.6577C8.97573 24.4452 8.84363 24.3884 8.68321 24.2667C8.33112 24.0053 7.94797 24.0053 7.65289 23.6842C7.35781 23.3632 7.01392 22.7498 6.77498 22.123C6.53946 21.4965 6.47461 21.2971 6.47461 21.279C6.47461 21.2609 6.53946 21.1393 6.62224 21.1573C6.70501 21.1754 6.70501 21.3359 6.72583 21.3748C6.76707 21.4383 6.81384 21.498 6.86561 21.5533C6.98729 21.6932 7.16069 21.8605 7.24875 22.11C7.23066 21.8977 7.15813 21.6622 7.15813 21.6622C7.15813 21.6622 7.61381 21.9496 8.00208 22.2498C8.39307 22.5502 8.5535 22.6538 8.66768 22.8452C8.78185 23.0367 9.05082 23.5417 9.17968 23.6894C9.30853 23.837 11.0741 24.3935 11.0741 24.3935L11.9139 25.0197L12.3309 25.9336L12.0046 26.4456L11.378 26.5803L10.3605 26.1246L10.0347 25.6827V25.6829Z" fill="#D2B159"/>
<path fill-rule="evenodd" clip-rule="evenodd" d="M7.77539 22.5347C7.77539 22.5347 7.9877 22.8738 8.5055 23.1948C8.97159 23.4771 9.70939 23.7335 10.3671 23.8862C10.745 23.9768 11.123 24.0466 11.4621 24.0519C12.3761 24.0647 13.0051 23.8034 13.7846 23.7179C14.2066 23.6739 14.7244 23.6403 15.2629 23.5131C15.9541 23.3474 16.3632 23.1609 16.9199 22.8987C17.3237 22.7124 17.694 22.5726 17.9942 22.3939C18.4163 22.1454 18.7243 21.8684 19.0817 21.7856C19.0377 21.9073 18.9911 22.1248 18.639 22.35C18.8254 22.3447 19.0817 22.3319 19.0817 22.3319C19.0817 22.3319 18.8332 22.4794 18.3956 22.8108C18.1263 23.0156 17.7691 23.3623 17.4041 23.5927C17.1684 23.7403 16.912 23.8487 16.7438 23.9371C16.3342 24.1623 16.1689 24.2762 15.8998 24.5515C15.9956 24.5463 16.0034 24.5515 16.0034 24.5515C16.0034 24.5515 15.6641 24.5955 15.4209 24.7249C15.3697 24.7249 15.281 24.7068 15.1257 24.7508C15.004 24.7895 14.8434 24.8778 14.6778 24.9242C14.4421 24.9942 14.3647 24.9631 14.3647 24.9631L14.4034 25.0408C14.4034 25.0408 14.0962 25.0355 13.9938 25.0459C14.0119 25.051 14.0068 25.0589 14.0068 25.0589C13.9888 25.0619 13.9715 25.068 13.9556 25.077C13.9063 25.1089 13.8521 25.1325 13.7951 25.1468C13.7641 25.1519 13.7381 25.1519 13.6992 25.1597C13.7122 25.1908 13.8132 25.3645 13.8598 25.4669C13.8211 25.4929 13.2384 25.933 13.2384 25.933C13.2565 25.9615 13.2713 25.9919 13.2825 26.0236C13.3006 26.0805 13.3084 26.1634 13.3265 26.2022C13.3704 26.2798 13.3963 26.2928 13.3963 26.2928C13.3963 26.2928 13.3265 26.3058 13.2046 26.3368C13.1012 26.3628 12.9742 26.4066 12.795 26.4326C12.7401 26.4397 12.6847 26.444 12.6293 26.4455C12.6553 26.5025 12.7691 26.72 12.5593 26.971C12.3496 27.2221 12.2849 27.2586 12.2202 27.419C12.1877 27.3944 12.153 27.3727 12.1166 27.3542C12.0468 27.3231 11.9509 27.2767 11.9173 27.2144C11.8977 27.2974 11.8717 27.3787 11.8396 27.4578C11.775 27.6311 11.6792 27.8022 11.6611 27.9315C11.5912 27.8539 11.4618 27.7011 11.2831 27.7322C11.1044 27.7632 10.9621 28.0066 10.931 28.0766C10.931 28.0326 10.9 27.9989 10.8923 28.0506C10.887 28.1076 10.7887 28.7029 10.2398 29.1846C10.2347 29.0629 10.2347 28.7936 10.2217 28.7057C10.1705 28.7569 10.1079 28.8325 9.73499 28.9931C9.36993 29.1535 9.42779 29.3141 9.42779 29.3141C9.42779 29.3141 9.39672 29.0581 9.5935 28.7884C9.79284 28.5193 9.91453 28.3923 9.91453 28.3717C9.91131 28.3506 9.90233 28.3309 9.88859 28.3147C9.86264 28.2887 9.81093 28.2577 9.81093 28.237C9.84199 28.2242 10.15 28.0766 10.132 27.7709C10.1139 27.4967 9.99747 27.3542 9.91453 27.2533C9.90173 27.2403 10.0364 27.1446 10.0181 27.1135C10.0052 27.0954 9.8396 26.9736 9.81878 26.9087C9.82368 26.87 9.83237 26.8319 9.84472 26.7949C9.86281 26.7379 9.87579 26.699 9.87067 26.6602C9.85769 26.5955 9.78772 26.4169 9.76707 26.3988C9.78516 26.4039 9.91453 26.3988 9.91453 26.3988C9.91453 26.3988 9.8111 26.233 9.79284 26.1554C9.77458 26.0777 9.73584 25.8731 9.71519 25.8344C9.75922 25.8395 9.86793 25.8472 9.86793 25.8344C9.87322 25.7955 9.77219 25.7308 9.81673 25.6808C9.8478 25.6859 9.90736 25.7118 9.96419 25.7844C9.93313 25.7014 9.88142 25.541 9.77253 25.4763C9.82373 25.4582 9.99781 25.4115 10.1506 25.5021C10.3033 25.5927 10.3554 25.7195 10.3554 25.7195C10.3554 25.7195 10.446 25.7895 10.5859 25.8931C10.7464 26.0199 10.9508 26.2003 11.2771 26.3279C11.3471 26.3669 11.5256 26.3669 11.6552 26.3409C11.7116 26.3275 11.7656 26.3057 11.8156 26.2762C11.8336 26.2656 11.8527 26.2569 11.8726 26.2503C11.8448 26.1944 11.8127 26.1407 11.7768 26.0897C11.8209 26.0897 11.8726 26.095 11.8726 26.095C11.8726 26.095 11.9036 26.025 11.7639 25.8902C11.7949 25.8591 11.8338 25.839 11.8338 25.7866C11.7898 25.7815 11.7122 25.7168 11.6941 25.6908C11.7198 25.6727 11.7588 25.6132 11.8028 25.5951C11.7639 25.564 11.6681 25.4345 11.6241 25.4217C11.6662 25.4061 11.7069 25.387 11.7458 25.3647C11.7458 25.3647 11.5284 25.3077 11.4584 25.2611C11.3884 25.2099 11.285 25.1213 11.2229 25.0954C11.158 25.0694 11.0442 25.0566 10.9976 25.0048C11.0414 25.0177 11.1114 25.0048 11.1633 25.0048C11.202 25.0048 11.2203 25.0099 11.2331 25.0099C11.228 24.9918 11.228 24.9529 11.329 24.9401C11.3776 24.9328 11.4248 24.9179 11.4688 24.896C11.4688 24.896 11.3729 24.8909 11.264 24.7873C11.1551 24.6837 11.0646 24.601 11.0025 24.588C10.9378 24.575 10.8162 24.632 10.7411 24.6267C10.6375 24.6139 10.5934 24.5621 10.5934 24.5621C10.5934 24.5621 10.2492 24.5931 9.48547 24.1272C8.82516 23.7232 8.53776 23.366 8.53776 23.366C8.47596 23.3436 8.41623 23.3158 8.35924 23.2831C8.11075 23.1537 7.76635 22.8844 7.77676 22.5321L7.77539 22.5347Z" fill="#C2A44D"/>
<path fill-rule="evenodd" clip-rule="evenodd" d="M17.299 6.99554C17.3589 7.015 17.4121 7.05089 17.4526 7.09914C17.5743 7.23891 17.6519 7.50293 17.3749 7.78522C17.4837 7.82396 17.5285 7.83642 17.6234 7.82396C17.5277 7.93796 17.3103 8.18133 17.2973 8.39364C17.2843 8.56704 17.393 8.61892 17.393 8.61892C17.393 8.61892 17.2273 8.81041 17.2196 9.13092C17.2979 9.04267 17.3835 8.96125 17.4756 8.88755C17.6673 8.73481 17.9313 8.56141 18.11 8.45269C18.1076 8.49826 18.1137 8.54388 18.1281 8.58718C18.1281 8.58718 18.4619 8.31275 18.7425 8.4346C18.8693 8.49161 18.8123 8.67012 18.8123 8.67012C18.8123 8.67012 18.9859 8.60544 19.1076 8.72713C19.2292 8.84881 19.4013 9.16267 19.4895 9.28435C19.5282 9.34136 19.6293 9.45007 19.7327 9.61835C19.874 9.85394 19.992 10.1028 20.085 10.3613C20.0901 10.2266 20.1237 10.017 20.507 10.1489C20.8902 10.2836 21.325 10.5659 21.6901 11.1217C22.0551 11.6776 22.1456 12.3052 22.3294 12.5441C22.5158 12.7745 22.7074 13.1576 22.7204 13.3182C22.7334 13.4788 22.6634 13.9965 23.0465 15.3971C23.1553 14.9623 23.321 13.9965 23.321 13.9965L23.4116 13.1447L23.5152 10.5091L20.763 8.22264L18.6116 6.66138L17.2109 6.79603L17.2988 6.99537L17.299 6.99554Z" fill="#CAA13E"/>
<path fill-rule="evenodd" clip-rule="evenodd" d="M22.4127 10.9176C22.4127 10.9176 22.3738 10.6616 21.7267 10.2264C21.0793 9.79671 20.5745 9.79671 20.1086 9.43165C19.7512 9.14425 19.3784 8.48394 19.1358 8.26651C18.9001 8.05164 18.8613 7.43024 18.8613 7.43024L19.6561 6.76464L20.8382 5.0561L21.8374 3.95581L22.3163 4.62141L22.9819 5.40323L23.3521 6.97217L23.4867 9.26866L22.4115 10.9178L22.4127 10.9176Z" fill="#B59544"/>
<path fill-rule="evenodd" clip-rule="evenodd" d="M23.2127 13.6704C23.2323 13.3221 23.1893 12.9731 23.0857 12.64C22.9151 12.1093 22.5422 11.1668 22.3689 10.8139C22.299 10.4229 22.3509 10.3919 22.426 10.3478C22.501 10.3038 22.7833 10.143 22.938 9.57897C23.0926 9.01491 23.5723 8.99648 23.5723 8.99648L23.8674 8.77905L24.3154 9.89999L24.7062 10.9124L24.8279 11.6865L24.9185 12.3467L24.7062 13.7422L23.6578 14.6898L23.2126 13.6704H23.2127Z" fill="#C89D3A"/>
<path fill-rule="evenodd" clip-rule="evenodd" d="M8.58203 29.2248V29.1961C8.60382 29.1825 8.62305 29.1651 8.63886 29.1449C8.65695 29.1189 8.67009 29.0879 8.68289 29.0802C8.70884 29.0672 8.83052 29.029 8.8952 29.0413C8.95989 29.0536 9.13089 29.1241 9.22152 29.1189C9.40789 29.1138 9.62532 28.9713 9.96972 29.0362C10.4875 29.1319 10.6092 29.484 10.9096 29.6833C11.1144 29.8233 11.3264 29.761 11.3574 29.761H11.4272C11.4402 29.761 11.5359 29.6523 11.5878 29.6576C11.6914 29.6627 11.7016 29.7482 11.7663 29.7533C11.9191 29.7714 12.2143 29.6757 12.362 29.7146C12.4057 29.7283 12.4455 29.7524 12.478 29.7848C12.5104 29.8172 12.5346 29.857 12.5483 29.9008C12.5794 29.9965 12.5534 30.1182 12.4784 30.1882C12.3179 30.3356 12.1652 30.4756 12.1341 30.5978C12.1736 30.6279 12.2116 30.66 12.2478 30.694C10.9668 30.3677 9.7343 29.8742 8.58203 29.2263V29.2248Z" fill="#CEB052"/>
<path fill-rule="evenodd" clip-rule="evenodd" d="M22.3691 24.052C22.3691 24.052 22.7729 23.5135 22.9129 23.2468C23.0527 22.9718 22.4702 19.4902 22.4702 19.4902L23.6404 15.656L23.6092 14.4081C23.6092 14.4081 23.6662 13.2559 23.8009 12.7562C23.9615 13.0436 24.4612 13.3906 24.5699 13.5744C24.6211 13.2222 24.795 12.4792 24.7692 11.687C24.865 11.8345 25.0954 13.3181 25.0954 13.3181L25.3258 14.3173L25.6261 15.3789L25.9601 16.5L26.1595 17.2741L26.2733 17.4605L26.3692 17.7866L26.4598 18.1389L26.7213 18.9647L26.8749 19.643L26.9966 20.8728C27.0231 20.967 27.0421 21.0631 27.0536 21.1602C27.0587 21.2949 27.0355 21.3725 27.0355 21.3959C27.0355 21.4193 27.0795 21.691 27.0614 21.8956C27.0355 22.1004 27.0355 22.2607 26.8749 22.4076C26.7143 22.5546 26.6134 23.4328 26.6134 23.4328L26.326 23.2413C26.326 23.2413 26.383 22.9797 26.2484 22.7416C26.1137 22.5035 25.8523 22.4542 25.7046 22.4931C25.5572 22.5242 25.2621 22.5706 25.1662 22.6535C25.0756 22.7363 24.853 22.9927 24.6484 23.1092C24.3924 23.2628 23.9753 23.2749 23.7527 23.3266C23.5275 23.3778 23.279 23.5314 23.0173 23.7098C22.8122 23.8426 22.5956 23.9568 22.3702 24.0511L22.3691 24.052Z" fill="#CCA847"/>
<path fill-rule="evenodd" clip-rule="evenodd" d="M22.3691 29.7088C22.3691 29.7088 22.3862 29.7199 22.4191 29.738C24.2585 28.8763 25.9066 27.6547 27.2661 26.1455C27.2512 25.6215 27.2319 25.0845 27.2108 24.8855C27.1669 24.4634 27.198 24.0337 27.185 23.7852C27.172 23.5367 27.0323 22.5243 26.9676 22.2628C26.8976 22.0014 26.7628 21.8718 26.7423 21.8718C26.7242 21.8771 26.6153 22.3639 26.6153 22.4862C26.6153 22.6086 26.5894 22.9032 26.5894 22.9783C26.5713 22.973 26.5636 22.9271 26.5636 22.9083C26.5377 22.973 26.5066 23.087 26.4936 23.0999C26.4807 23.1129 26.5117 22.9912 26.4936 22.9653C26.4756 22.9393 26.4424 22.9523 26.4496 22.8876C26.4527 22.8493 26.4587 22.8112 26.4677 22.7738C26.4677 22.7738 26.39 22.8876 26.3332 23.1776C26.2762 23.465 26.2762 23.4728 26.2556 23.4986C26.2375 23.5299 26.1339 23.6333 26.1286 23.6722C26.1235 23.742 26.2245 23.812 26.2322 23.8507C26.2373 23.9156 26.1416 24.2158 26.1105 24.3627C26.0794 24.5096 26.0924 24.7976 26.0593 24.9452C26.0334 25.0798 26.0081 25.1575 25.9195 25.2143C25.9842 25.2273 26.0463 25.2454 26.0463 25.2454C26.0463 25.2454 26.1369 25.6285 25.9065 25.9549C25.8238 26.0687 25.8031 26.1206 25.7151 26.2242C25.5415 26.4157 25.4068 26.6338 25.3939 26.7756C25.3849 26.7337 25.3789 26.6913 25.3758 26.6486C25.3758 26.6486 25.1066 26.962 24.9926 27.1406C24.8452 27.371 24.6405 27.3581 24.583 27.4151C24.5255 27.4721 24.5131 27.5755 24.5318 27.6584C24.4806 27.6712 24.3844 27.6895 24.3195 27.8888C24.2885 27.9923 24.2108 28.0936 24.0891 28.1633C23.9674 28.2329 23.8198 28.2539 23.7447 28.272C23.8094 28.2901 23.8353 28.2901 23.8664 28.3107C23.8277 28.3754 23.649 28.4765 23.4496 28.606C23.2503 28.7277 23.1544 28.9062 23.1052 29.0228C23.054 29.1315 22.9784 29.2014 22.8567 29.2144C22.9079 29.2455 22.9837 29.3178 23.0225 29.3412C22.9654 29.3542 22.8689 29.3542 22.6963 29.5018C22.5151 29.652 22.4529 29.696 22.37 29.709L22.3691 29.7088Z" fill="#C39D3C"/>
<path fill-rule="evenodd" clip-rule="evenodd" d="M18.7665 30.9085C18.8656 30.839 18.973 30.7821 19.0861 30.739C19.4899 30.5786 19.9171 30.5475 20.0854 30.4958C20.246 30.4446 20.3728 30.3739 20.5721 30.3352C20.5668 30.3806 20.5624 30.4233 20.5576 30.4635C19.9699 30.6483 19.3715 30.7969 18.7656 30.9085H18.7665Z" fill="#D2BA6B"/>
<path fill-rule="evenodd" clip-rule="evenodd" d="M26.2136 20.2876C26.2136 20.2876 26.1308 20.7354 25.9832 21.0177C25.8355 21.3 25.676 21.6908 25.676 21.6908C25.6769 21.6027 25.6873 21.515 25.707 21.4292C25.5207 21.5379 25.0675 21.7995 24.939 21.9159C24.8173 22.0246 24.6127 22.2163 24.561 22.3069C24.6827 21.9497 24.8095 21.6287 24.8303 21.481C24.6439 21.6157 23.7739 22.3328 23.3209 22.8066L21.9099 23.9484C21.747 24.0362 21.5793 24.1147 21.4076 24.1836C21.1644 24.287 20.877 24.375 20.6647 24.458C20.7217 24.3052 20.8121 24.1704 20.9391 24.041C21.0738 23.9142 21.4776 23.4767 21.5397 23.273C21.5967 23.0607 21.6097 22.9339 21.5346 22.7552C21.4646 22.7733 21.3042 22.7812 21.1955 22.8122C21.0867 22.8433 20.9702 22.9597 20.9702 22.9597C20.9702 22.9597 21.0529 22.4859 21.2316 22.0381C21.097 22.0432 20.8666 22.082 20.8666 22.082C20.8666 22.082 21.1876 21.5435 21.737 21.1682C21.5687 21.204 21.4041 21.2551 21.2451 21.3208C20.9241 21.4554 20.572 21.6548 20.3105 21.7635C20.458 21.5587 21.4936 20.0807 22.1099 18.7033C22.7243 17.3286 22.9538 16.9765 23.0885 16.2387C23.1583 15.8736 23.1397 15.3341 23.1583 14.851C23.1764 14.3719 23.2359 13.9422 23.1972 13.6548C23.3576 13.8541 23.9584 14.416 23.979 15.6717C23.9971 16.9273 23.4044 18.6232 22.7751 19.537C22.9287 19.581 23.3267 19.6329 23.7357 18.9226C24.1446 18.2123 24.1396 18.014 24.2873 17.7187C24.3053 17.8663 24.3001 17.918 24.3001 17.918C24.3001 17.918 24.8957 17.1958 25.1778 16.287C25.2348 16.678 25.4031 17.0224 25.1389 17.7395C24.9034 18.3867 24.5953 18.5447 24.5953 18.5447C24.5953 18.5447 24.7481 18.5188 24.9732 18.3841C25.0121 18.4799 25.0044 18.5889 25.0691 18.6275C25.1338 18.6661 25.2218 18.7311 25.2348 18.7932C25.3046 18.6896 25.4133 18.5575 25.4471 18.4592C25.4212 18.664 25.4031 19.5595 25.4983 20.0152C25.6978 19.9971 25.9023 19.9841 26.042 19.6242C25.9463 19.9764 25.9463 20.1886 26.011 20.489C26.1171 20.4166 26.2129 20.2871 26.2129 20.2871L26.2136 20.2876Z" fill="#C0993A"/>
<path fill-rule="evenodd" clip-rule="evenodd" d="M19.4869 6.0169C19.4869 6.0169 19.2876 6.09967 18.9484 6.09967C18.6534 6.09967 18.7361 5.98584 18.2753 5.98584C17.566 5.98584 15.0883 6.39544 14.6533 6.38964C14.371 6.38452 15.6059 6.51132 15.6059 6.51132L18.7621 6.55535L19.3963 6.50415L19.632 6.02458L19.4869 6.0169Z" fill="#A88F33"/>
<path fill-rule="evenodd" clip-rule="evenodd" d="M11.3039 12.1865C11.3039 12.1865 10.9 12.4945 10.7291 12.7302C10.5583 12.9659 10.4677 13.1211 10.2734 13.3127C10.319 13.3144 10.3646 13.3083 10.4081 13.2946C10.4081 13.2946 10.4081 13.3458 10.377 13.3593C10.4039 13.3563 10.431 13.3593 10.4566 13.3682C10.4821 13.3771 10.5053 13.3915 10.5245 13.4105C10.4675 13.4416 10.3122 13.597 10.4339 13.7808C10.5245 13.9206 10.7161 13.9334 10.7161 13.9334C10.7161 13.9334 10.6721 14.0604 10.8559 14.0474C11.252 14.0293 11.6947 13.8558 11.8992 13.8998C12.104 13.951 12.2204 13.9698 12.3653 14.221C12.5189 14.4695 12.6527 14.5084 12.6527 14.5084C12.6527 14.5084 12.7433 14.2778 12.7227 13.9336C12.797 13.748 12.8382 13.5509 12.8444 13.3511L12.7097 12.3595L12.1221 11.6165L11.3609 12.0385L11.3039 12.186V12.1865Z" fill="#E3C571"/>
<path fill-rule="evenodd" clip-rule="evenodd" d="M12.0254 12.0388C12.0254 12.0388 12.0824 12.1735 12.3206 12.1863C12.2947 12.2433 12.2947 12.2511 12.3026 12.295C12.3077 12.339 12.3154 12.4037 12.3154 12.4037C12.3416 12.391 12.3653 12.3737 12.3853 12.3525C12.3983 12.4095 12.3724 12.4999 12.3853 12.5648C12.3933 12.6042 12.4063 12.6425 12.4241 12.6786C12.4278 12.6698 12.4322 12.6612 12.437 12.6529C12.4422 12.6399 12.4882 12.7926 12.6157 12.9089C12.6156 12.891 12.62 12.8734 12.6285 12.8577C12.6305 12.8901 12.6412 12.9215 12.6596 12.9483C12.65 12.9437 12.6413 12.9376 12.6338 12.9302C12.6338 12.9302 12.6466 13.3398 12.7166 13.5516C12.7283 13.5379 12.7387 13.5232 12.7477 13.5076C12.7477 13.4948 12.7425 13.6216 12.7296 13.7124C12.7115 13.803 12.7244 13.9298 12.7244 13.9298C12.7711 13.893 12.8224 13.8626 12.877 13.8392C12.9547 13.8079 13.0818 13.7122 13.1593 13.4999C13.2042 13.3796 13.2389 13.2558 13.2629 13.1297C13.2879 13.1779 13.3052 13.2297 13.3141 13.2833C13.3194 13.348 13.4411 13.3144 13.4411 13.3144L13.467 13.0321L13.6206 12.3926L13.7604 11.9965L14.4335 10.9481L15.6497 10.0115L16.7112 10.2548L17.6069 9.03797L16.0639 8.11108L14.6037 8.26383L13.2784 10.0994L12.217 11.7642L12.0254 12.0386V12.0388Z" fill="#D8B65B"/>
<path fill-rule="evenodd" clip-rule="evenodd" d="M19.6744 9.3826C19.6744 9.3826 19.5838 9.40069 19.3223 9.5362C19.0608 9.67171 18.8796 9.71472 18.7786 9.91405C18.6775 10.1134 18.6699 10.2714 18.6699 10.2714C18.6699 10.2714 18.8485 10.1938 18.9521 10.1678C19.0608 10.1421 19.1825 10.1497 19.1696 10.1938C19.1571 10.224 19.1398 10.2519 19.1184 10.2766C19.1184 10.2766 19.3232 10.2714 19.3177 10.3725C19.3122 10.4735 19.279 10.5848 19.2402 10.6339C19.2013 10.6851 19.0409 10.7609 19.0228 10.8205C18.9788 10.9422 19.0409 10.9473 19.0175 11.0456C18.9994 11.1415 18.9141 11.3279 18.6344 11.654C18.3469 11.9803 18.2248 12.2107 18.2248 12.2107C18.2248 12.2107 18.085 11.9493 18.0124 11.724C17.9612 11.7497 17.6863 11.9025 17.6863 11.9025L17.0494 9.68382L17.0622 9.5362C17.0622 9.5362 17.1192 9.4664 17.1321 9.33686C17.0364 9.3058 17.0234 9.27986 16.8965 9.15834C16.7695 9.03683 16.6661 8.88903 16.4539 8.788C16.4229 8.73099 16.3839 8.65351 16.2286 8.62228C16.0733 8.59105 15.9801 8.56545 15.9801 8.56545C15.9801 8.56545 16.0629 8.53421 16.1018 8.46953C16.0059 8.4825 15.9284 8.51356 15.7187 8.50844C15.5064 8.50315 15.483 8.49547 15.3666 8.51356C15.2502 8.53165 15.1106 8.58354 15.0585 8.40485C15.0015 8.36082 14.8799 8.39973 14.7763 8.5523C14.6727 8.70488 14.6365 8.82674 14.4371 8.8863C14.4231 8.97417 14.3924 9.05853 14.3465 9.13479C14.2895 9.23071 14.1989 9.32645 14.0772 9.46879C13.8856 9.69407 13.9166 10.0642 13.6111 10.3465C13.3031 10.6286 13.6623 9.56453 13.6623 9.56453L14.1542 8.38693L15.5548 7.01733L17.7297 6.86987L17.942 7.99627L19.0035 8.36133L19.6741 9.38396L19.6744 9.3826Z" fill="#D3AE4D"/>
<path fill-rule="evenodd" clip-rule="evenodd" d="M20.0191 9.63114L19.1052 8.31343L18.4657 7.82139C18.4657 7.82139 18.01 6.98274 17.979 6.9568C17.953 6.93871 17.5233 6.89211 17.2489 6.87402L17.3001 7.00083C17.36 7.02029 17.4132 7.05618 17.4537 7.10442C17.5753 7.2442 17.653 7.50822 17.376 7.7905C17.4847 7.82924 17.5296 7.8417 17.6245 7.82924C17.5288 7.94325 17.3113 8.18662 17.2984 8.39893C17.2854 8.57233 17.3941 8.62404 17.3941 8.62404C17.3941 8.62404 17.2284 8.8157 17.2207 9.13604C17.299 9.04779 17.3846 8.96637 17.4767 8.89267C17.6684 8.73907 17.9324 8.56635 18.1111 8.45764C18.1086 8.50326 18.1148 8.54894 18.1292 8.5923C18.1292 8.5923 18.463 8.31786 18.7436 8.43955C18.8704 8.49655 18.8134 8.67524 18.8134 8.67524C18.8134 8.67524 18.9869 8.61056 19.1086 8.73224C19.2303 8.85393 19.4037 9.1671 19.4918 9.28896C19.5305 9.34596 19.6315 9.45467 19.735 9.62278C19.8763 9.85842 19.9943 10.1073 20.0872 10.3659C20.0923 10.2623 20.1132 10.1174 20.292 10.1174L20.0201 9.63063L20.0191 9.63114Z" fill="#CAA13E"/>
<path fill-rule="evenodd" clip-rule="evenodd" d="M6.31781 13.3748C6.31781 13.3748 6.25313 13.2142 6.31781 12.901C6.38249 12.5878 6.48353 12.4402 6.51715 11.9794C6.55077 11.5186 6.85114 10.9438 6.85114 10.9438L7.68212 10.5659L8.2699 10.7263L8.44329 11.5135L7.70021 11.9231C7.70021 11.9231 7.66147 12.0965 7.45172 12.2362C7.24197 12.376 6.95201 12.4847 6.88221 12.6272C6.84048 12.7145 6.81002 12.8067 6.79158 12.9017C6.79158 12.9017 6.57927 12.8576 6.45247 12.9974C6.31781 13.1399 6.32293 13.2667 6.31781 13.3754V13.3748Z" fill="#F4EFC8"/>
<path fill-rule="evenodd" clip-rule="evenodd" d="M7.99417 13.1651C7.99417 13.1651 7.9242 13.2091 7.87249 13.3187C7.82129 13.2359 7.69892 12.7439 7.6938 12.3012C7.68868 11.8584 7.66223 11.7487 7.76463 11.5961C7.86703 11.4436 8.2686 11.2828 8.2116 11.008C8.1546 10.7466 7.91635 10.6378 7.62383 10.7129C7.41903 10.7641 7.26662 11.1997 7.05431 11.4171C6.89371 11.5828 6.70223 11.5569 6.65051 11.6475C6.58054 11.7692 6.64522 11.8909 6.62457 11.9685C6.61928 11.9945 6.5546 12.1342 6.43803 12.3025C6.20251 12.6416 5.80384 13.1207 5.75195 13.5504C5.77004 13.3071 5.75724 13.3019 5.82193 13.0326L5.78301 12.968L6.03901 12.1291L6.20473 11.4379L6.57508 10.2805L7.22737 9.0974L7.86173 8.38794L8.52187 8.43197L8.59953 9.42354L8.97755 11.2852L9.77235 12.2638L8.49849 13.121L7.99366 13.1651H7.99417Z" fill="#EBCC73"/>
<path fill-rule="evenodd" clip-rule="evenodd" d="M8.39085 13.5168C8.39085 13.5168 8.28213 13.5427 8.24322 13.522C8.20431 13.5014 8.16574 13.478 8.17854 13.4521C8.19134 13.4261 8.26131 13.3823 8.26131 13.3614C8.26275 13.3426 8.2568 13.324 8.24472 13.3095C8.23265 13.295 8.21539 13.2858 8.19663 13.2838C8.13707 13.2761 8.11898 13.3149 8.11898 13.3149C8.11898 13.3149 8.06197 13.271 8.01555 13.2637C8.04302 13.2603 8.07066 13.2585 8.09833 13.2584C8.02678 13.226 7.95089 13.2042 7.87305 13.1937C7.93773 13.1549 8.06471 13.0409 8.14748 13.0409C8.23025 13.0409 8.28213 13.0281 8.26916 12.9841C8.25619 12.9401 8.19151 12.8754 8.12171 12.8494C8.14748 12.8184 8.16574 12.7718 8.10362 12.6446C8.03876 12.5178 8.06471 12.4323 8.08553 12.4014C8.10362 12.3625 8.1683 12.2927 8.19936 12.2487C8.23042 12.2047 8.25636 12.1451 8.30808 12.114C8.33402 12.096 8.41679 12.0628 8.49973 12.0313C8.59036 12.0002 8.66545 11.9613 8.71716 12.0002C8.77417 12.0389 8.74823 12.0908 8.74823 12.0908C8.74823 12.0908 8.92691 12.026 9.08734 12.1089C9.24794 12.1864 9.63893 12.2357 9.63893 12.2357L9.77905 12.518L8.85216 13.3128L8.46901 13.5045L8.39136 13.5173L8.39085 13.5168Z" fill="#E5C66B"/>
<path fill-rule="evenodd" clip-rule="evenodd" d="M9.67741 12.2175C9.67741 12.2175 9.39001 12.4091 9.32533 12.4789C9.36407 12.4842 9.42875 12.5102 9.40281 12.5489C9.37175 12.5877 9.18538 12.7223 9.08179 12.8493C8.97307 12.9761 8.86948 13.1367 8.8333 13.2143C8.79456 13.2841 8.4993 13.4888 8.39844 13.5145C8.61075 13.5145 9.03793 13.2531 9.19835 13.2531C9.19323 13.3307 9.24238 13.4188 9.33301 13.4265C9.42363 13.4342 9.68509 13.4835 10.0372 13.2661C10.3893 13.0537 10.2729 12.8957 10.4203 12.7923C10.7026 12.6057 10.8164 12.44 10.9718 12.3366C11.1271 12.2332 11.2074 12.2096 11.2074 12.2096C11.2074 12.2096 11.2126 12.132 11.2586 12.1398C11.2713 12.1413 11.2832 12.1461 11.2933 12.1539C11.3033 12.1617 11.3111 12.172 11.3156 12.1839C11.3156 12.1839 11.585 11.9922 11.93 11.9405C11.922 11.9369 11.9156 11.9304 11.912 11.9224C11.912 11.9224 11.9377 11.9094 11.943 11.8965C11.943 11.8965 11.9611 11.8705 11.9741 11.8835C11.987 11.8965 12.0051 11.9922 12.0311 12.0311C12.0881 12.0052 12.1968 11.7618 12.1968 11.7618L12.4584 11.0136V10.3301L12.2536 10.369L10.7176 11.0213L9.78545 11.9871L9.67673 12.2175H9.67741Z" fill="#E6BD62"/>
<path fill-rule="evenodd" clip-rule="evenodd" d="M14.0999 8.86482C14.1829 8.84466 14.2626 8.81234 14.3362 8.7689C14.3052 8.85184 14.3052 8.94247 14.1705 9.13925C14.0359 9.33603 14.0307 9.36453 13.922 9.56899C13.8133 9.7813 13.8003 10.0868 13.6967 10.2213C13.7432 10.1987 13.793 10.1839 13.8442 10.1774C13.8442 10.1774 13.7408 10.268 13.6967 10.3638C13.6527 10.4595 13.5751 10.6589 13.3836 10.7807C13.1921 10.9026 12.9485 10.9801 12.6871 11.2675C12.4255 11.5496 12.1563 11.9069 12.0215 12.0355C12.0915 11.9138 12.1872 11.6704 12.2131 11.51C12.2391 11.3496 12.2079 11.1577 12.2519 10.9456C12.2959 10.7334 12.2959 10.5805 12.5079 10.2102C12.7199 9.83983 13.0827 8.55318 13.0827 8.55318L13.8645 8.30469L14.1002 8.86396L14.0999 8.86482Z" fill="#B6933F"/>
<path fill-rule="evenodd" clip-rule="evenodd" d="M13.5354 8.39094C13.5354 8.39094 13.2999 8.73005 13.2352 9.03043C13.1706 9.3308 13.2299 9.30486 13.1912 9.45249C13.168 9.5425 13.168 9.63691 13.1912 9.72692C13.2728 9.59551 13.3845 9.48541 13.517 9.40572C13.7397 9.27124 13.921 9.17532 14.029 9.06149C14.1377 8.9398 14.2283 8.74047 14.4639 8.58772C14.3681 8.57475 14.2335 8.53072 14.2079 8.53652C14.3038 8.4278 14.591 8.26209 14.881 8.06275C15.1684 7.85795 15.1503 7.77535 15.6164 7.57089C15.4636 7.59683 15.3911 7.55792 15.2641 7.57089C15.3153 7.46217 15.4945 7.41029 15.6737 7.23177C15.8529 7.05325 15.5599 6.78906 15.5599 6.78906L14.1946 7.61492L13.5344 8.39162L13.5354 8.39094Z" fill="#C49937"/>
<path fill-rule="evenodd" clip-rule="evenodd" d="M9.83008 7.77467L9.86114 7.52618L10.2521 6.89966L10.6612 5.79937V4.29512L10.6302 3.42523L10.6948 2.85554L10.744 2.67447L10.7959 2.60449L11.1297 2.77789L11.5907 3.40441L11.6347 4.61358L11.1867 6.52163L9.90773 7.91717L9.83008 7.77467Z" fill="#DFC068"/>
<path fill-rule="evenodd" clip-rule="evenodd" d="M10.847 2.53449C10.847 2.53449 10.6422 2.53978 10.5985 3.39158C10.5548 4.24338 10.5336 4.69121 10.5026 5.11327C10.4715 5.53532 10.3992 5.7915 10.3628 6.04016C10.3264 6.28882 10.3058 6.62776 10.1894 6.83495C10.1382 6.9307 10.0288 7.23107 9.77246 7.45635C9.48506 7.70484 9.05566 7.87841 8.99064 7.89138C8.87663 7.91715 8.29927 7.97415 8.06375 8.10369C7.98097 8.14772 7.83847 8.19943 7.6806 8.34706C7.36726 8.62917 6.95049 9.134 6.65012 9.74243C6.18932 10.6512 5.72852 13.2169 5.72852 13.2169L5.83211 13.0435C5.83211 13.0435 5.84508 12.8131 6.07548 12.4091C6.30076 12.0053 6.23608 11.5522 6.54925 10.778C6.67094 10.483 6.82368 10.0998 7.01005 9.77349C7.3053 9.24272 7.66251 8.78704 8.02245 8.53855C8.61005 8.13475 9.25739 8.04669 9.25739 8.04669L9.95388 7.58589C9.95388 7.58589 10.0756 7.35037 10.2362 7.08105C10.4613 6.7032 10.7482 6.28114 10.8108 5.66759C10.9067 4.75879 10.6761 4.16334 10.6891 3.62488C10.7021 3.08643 10.7072 2.69031 10.8161 2.5944C10.925 2.49848 10.8472 2.53483 10.8472 2.53483L10.847 2.53449Z" fill="#A88F33"/>
<path fill-rule="evenodd" clip-rule="evenodd" d="M10.848 6.59935C10.848 6.59935 11.1552 5.8433 11.2958 5.17275C11.3218 5.0381 11.3735 4.90361 11.3864 4.7949C11.4511 4.16053 11.4692 3.89907 11.3864 3.5521C11.3218 3.2961 11.0733 3.06536 10.9437 2.8865C10.8169 2.69996 10.7574 2.6305 10.7833 2.59125C10.8093 2.552 10.9101 2.48782 11.0084 2.4955C11.1129 2.49855 11.2157 2.52281 11.3105 2.56682C11.4054 2.61083 11.4902 2.67366 11.56 2.7515C11.7594 2.9819 11.9172 3.7639 11.9172 3.7639L12.0833 4.79575L12.5053 6.09538L10.8483 6.60038L10.848 6.59935Z" fill="#C99E3D"/>
<path fill-rule="evenodd" clip-rule="evenodd" d="M13.7345 5.81248C13.7345 5.81248 13.6775 5.83825 13.5741 5.81248C13.5785 5.85474 13.5712 5.8974 13.5529 5.93577C13.5346 5.97413 13.5061 6.0067 13.4705 6.0299C13.3618 5.98587 12.3441 6.07394 12.3441 6.07394C12.3441 6.07394 11.8703 5.99099 11.7227 5.36448C11.6193 4.94754 11.8004 4.3729 11.7408 3.99488C11.6502 3.43816 11.5234 3.32928 11.5104 3.15605C11.4974 2.98282 11.4845 2.93862 11.4845 2.8299C11.4275 2.81693 11.3938 2.79884 11.337 2.79884C11.324 2.74764 11.3498 2.70293 11.293 2.6123C11.324 2.62528 11.5363 2.65122 11.7848 2.88674C11.9896 3.0784 11.9896 3.1482 12.0205 3.18711C12.0593 3.22585 12.3726 3.49431 12.5073 3.76192C12.6419 4.02952 12.9034 4.88285 12.9629 5.02263C12.981 5.07963 13.0199 5.13664 13.1165 5.266C13.2667 5.45254 13.4867 5.76093 13.7352 5.81213L13.7345 5.81248Z" fill="#B58634"/>
<path fill-rule="evenodd" clip-rule="evenodd" d="M12.0566 3.19995C12.2135 3.45331 12.3544 3.71619 12.4785 3.98707C12.6313 4.3313 12.7219 4.61358 12.9136 4.84398C12.81 4.54378 12.6262 3.95344 12.5174 3.7437C12.3958 3.52183 12.1473 3.2829 12.0566 3.20012V3.19995Z" fill="#A88F33"/>
<path fill-rule="evenodd" clip-rule="evenodd" d="M10.2959 7.45647C10.2959 7.45647 10.0345 7.52115 9.54773 7.77749C9.38713 7.86027 9.23455 7.93007 9.08693 7.99492C8.70344 8.16832 8.29213 8.32858 7.96582 8.41698C7.99176 8.44804 8.00456 8.46084 8.00456 8.46084C8.00456 8.46084 8.00456 8.58782 8.07453 8.66018C8.03579 8.69909 7.51782 9.05118 7.67073 10.2291C7.77416 10.1904 7.89584 10.1385 7.91393 10.1385C7.94517 10.1438 7.95285 10.2291 7.99159 10.2291C8.03033 10.2291 8.15731 10.1779 8.29196 10.0038C8.28684 10.0738 8.20919 10.778 8.62596 11.2518C8.70361 11.1611 8.90039 10.8608 8.90039 10.8608L8.90551 10.765C8.90551 10.765 8.9236 10.431 9.03248 10.1255C9.14137 9.82003 9.35351 9.59475 9.35351 9.59475L10.4613 8.01284L10.2956 7.4563L10.2959 7.45647Z" fill="#E6C367"/>
<path fill-rule="evenodd" clip-rule="evenodd" d="M9.26164 9.77924C9.21092 9.81508 9.15504 9.84299 9.09592 9.86201C9.07783 9.79733 9.05189 9.57461 9.20464 9.35718C9.38332 9.09555 9.77415 8.75643 9.88287 8.48678C9.95284 8.31321 9.92178 7.87835 10.5432 7.32164C11.1646 6.76492 11.4078 6.57344 11.4078 6.57344L12.4123 6.0686L13.6473 6.55535L13.0337 8.96004L12.5574 10.0864L10.663 9.72923L9.26147 9.77924H9.26164Z" fill="#DCBA5A"/>
<path fill-rule="evenodd" clip-rule="evenodd" d="M9.98438 9.12616L10.2201 8.83108V8.62133C10.2201 8.62133 10.4815 8.55135 10.7636 8.26395C11.0458 7.97655 11.4367 7.42512 11.7812 7.45875C12.1256 7.49766 12.1592 8.20695 12.1722 8.40646C12.1851 8.60597 12.2292 9.05875 12.299 9.30229C12.3766 9.54566 11.4601 10.4673 11.4601 10.4673L10.8377 10.941L9.98438 9.12616Z" fill="#E9CE77"/>
<path fill-rule="evenodd" clip-rule="evenodd" d="M10.7129 11.5832C10.7129 11.5832 10.9045 11.2828 10.7641 11.2182C10.8469 11.0318 10.9996 10.835 10.9996 10.835C10.9996 10.835 11.1083 10.5659 11.4604 10.2344C11.8125 9.903 12.0301 9.68284 12.0871 9.46029C12.1222 9.31525 12.1414 9.16679 12.1441 9.01758C12.1822 9.04867 12.2229 9.07637 12.2658 9.10035C12.3228 9.12629 12.5919 9.34884 12.5532 9.79684C12.5144 10.2448 12.3484 10.4312 12.3484 10.4312C12.3484 10.4312 12.188 10.5916 12.0741 10.6746C11.9523 10.7574 11.9084 10.8531 11.7038 10.8609C11.7248 10.8442 11.7485 10.8311 11.7738 10.822C11.7738 10.822 11.5614 10.7963 11.4474 10.8997C11.3334 11.0031 11.0911 11.3217 10.9694 11.4177C10.8477 11.4953 10.7134 11.5834 10.7134 11.5834L10.7129 11.5832Z" fill="#CDAE50"/>
<path fill-rule="evenodd" clip-rule="evenodd" d="M19.3212 6.54752C19.0154 6.43604 18.6939 6.37316 18.3686 6.36115C17.8248 6.34306 17.03 6.37412 16.2508 6.37924C15.4119 6.38436 14.6508 6.09184 13.5945 6.04013C13.4211 5.93653 12.9801 5.48341 11.6035 6.44392C11.6863 6.4388 12.6029 6.23161 12.9212 6.63046C13.2423 7.02658 13.1516 7.69969 13.1078 7.86012C13.0248 8.21749 12.7555 8.73785 12.647 9.10291C12.5384 9.46797 12.564 9.6598 12.4864 9.9158C12.4087 10.1718 12.2379 10.2989 12.3387 10.594C12.4734 10.5113 12.5435 10.5113 12.7685 10.0064C12.9934 9.50159 12.9472 9.14165 13.3201 8.71447C13.6851 8.28473 14.2929 7.69696 14.524 7.54933C14.755 7.40171 16.5899 6.44904 18.5111 7.35784C18.9744 7.30869 19.3214 6.54735 19.3214 6.54735L19.3212 6.54752Z" fill="#D2A83E"/>
<path fill-rule="evenodd" clip-rule="evenodd" d="M12.3773 6.19523C12.3754 6.17577 12.3711 6.15663 12.3645 6.13823C12.3465 6.10036 12.3229 6.06544 12.2945 6.03463C12.2945 6.03463 11.8388 5.95186 11.6084 5.97763C11.2045 6.02166 10.8394 6.52137 10.6686 6.77771C10.4977 7.03406 10.2854 7.43 10.055 7.63463C10.0575 7.6147 10.053 7.59451 10.0421 7.57763C10.0421 7.57763 10.055 7.59572 10.0293 7.62166C10.0035 7.6476 10.0033 7.6604 10.0163 7.67286L10.0552 7.7116C10.068 7.7116 10.4254 7.55101 10.9121 7.0972C11.4299 6.62343 11.826 6.3804 12.0332 6.29712C12.1437 6.25016 12.2592 6.21598 12.3775 6.19523H12.3773Z" fill="#C29637"/>
<path fill-rule="evenodd" clip-rule="evenodd" d="M21.2167 4.24854C21.2167 4.24854 21.1338 4.35196 21.0302 4.46596C20.7998 4.70933 20.4994 4.9836 20.2431 5.26588C19.9999 5.53519 19.7254 5.74494 19.4172 6.09703C19.109 6.44911 18.7516 6.83994 18.6612 6.95394C18.5784 7.06795 18.5137 7.25432 18.5137 7.35006C18.4697 7.319 18.418 7.28538 18.418 7.28538C18.4397 7.32602 18.4658 7.36424 18.4956 7.39938C18.5603 7.49001 18.6612 7.60418 18.7131 7.67382C18.7767 7.76246 18.8224 7.8627 18.8475 7.9689C18.8786 7.97402 19.0779 8.01293 19.3266 7.60384C19.5753 7.19475 19.9012 6.74692 19.9012 6.74692L20.419 5.9779L20.7454 5.32561L21.155 4.5955L21.2172 4.24854H21.2167Z" fill="#AC8132"/>
<path fill-rule="evenodd" clip-rule="evenodd" d="M21.747 3.72559C21.747 3.72559 21.4336 3.98159 21.3119 4.13519C21.1903 4.28879 20.9023 4.6919 20.9023 4.6919L21.0059 4.67893L21.5316 4.21301L21.7364 3.84795L21.7468 3.72627L21.747 3.72559Z" fill="#A88F33"/>
<path fill-rule="evenodd" clip-rule="evenodd" d="M21.6518 24.3004C21.6518 24.3004 21.6466 24.0881 21.7658 23.9613C21.8874 23.8343 22.1955 23.648 22.4959 22.9489C22.7962 22.2499 22.8297 22.092 22.8297 22.092C22.8297 22.092 22.2912 22.5528 21.9593 22.6615C22.037 22.5009 22.081 22.3871 22.1199 22.3041C22.0759 22.2654 21.8895 22.2214 21.8714 22.2007C21.9748 22.0971 22.0318 21.8433 22.2416 21.6751C22.5109 21.4703 23.0028 21.1184 23.385 20.8047C23.7673 20.491 24.519 19.7614 24.6149 19.5491C24.6719 19.6318 24.6847 19.6836 24.6847 19.6836C24.6847 19.6836 24.3068 20.1756 24.11 20.4888C23.9365 20.7581 23.9494 20.9108 23.9494 20.9108L24.3068 20.7572C24.3068 20.7572 24.4102 21.1404 23.9418 21.723C24.1466 21.6454 24.2292 21.692 24.3456 21.6271C24.1539 21.749 23.8899 21.9147 23.6414 22.3702C23.398 22.8259 23.0666 23.3566 22.5075 23.6879C21.9637 24.0374 21.6504 24.2989 21.6504 24.2989L21.6518 24.3004Z" fill="#A67A2E"/>
<path fill-rule="evenodd" clip-rule="evenodd" d="M20.2489 6.81688C20.2489 6.81688 20.0366 7.25942 20.0055 7.60382C20.0004 7.68677 19.9796 7.75145 19.9796 7.84719C19.9745 8.15525 19.9977 8.49965 19.9284 8.66008C19.9024 8.5954 19.8895 8.55136 19.8635 8.52559C19.8248 8.63431 19.7548 8.97342 19.6978 9.10023C19.672 9.01745 19.615 8.73005 19.6203 8.39094C19.6256 8.05182 19.6331 7.98697 19.6331 7.91717C19.6203 8.02059 19.5504 8.16054 19.5244 8.24331C19.4857 8.17351 19.4416 8.08288 19.3898 8.00779C19.3587 8.05899 19.32 8.1346 19.2863 8.17351C19.281 8.14245 19.2682 8.0595 19.2604 7.94311C19.2553 7.80845 19.2474 7.63505 19.2553 7.5987C19.2681 7.5289 19.377 7.25447 19.6074 7.00325C19.8818 6.70287 20.1641 6.12568 20.2469 5.94699C20.3296 5.7683 20.6817 5.02539 20.6817 5.02539H20.951L20.56 5.91593C20.56 5.91593 20.3245 6.40267 20.2028 6.58153C20.0811 6.76039 19.8248 7.2729 19.7108 7.47224C19.7936 7.36352 19.8635 7.30652 19.9465 7.20293C20.0267 7.13039 20.2492 6.81722 20.2492 6.81722L20.2489 6.81688Z" fill="#8C6228"/>
<path fill-rule="evenodd" clip-rule="evenodd" d="M21.7521 3.69189C21.7082 3.82729 21.6386 3.953 21.5473 4.06224C21.3868 4.2539 21.0423 4.51007 20.8742 4.71453C20.7206 4.91387 20.4134 5.45761 20.553 6.10222C20.6042 5.96244 20.7007 5.68545 20.957 5.37211C21.2134 5.05876 21.4878 4.699 21.6226 4.41945C21.7571 4.13716 21.7752 3.91461 21.7752 3.91461L21.8264 3.84993L21.7953 3.7023L21.7513 3.69189H21.7521Z" fill="#CBA94C"/>
<path fill-rule="evenodd" clip-rule="evenodd" d="M26.996 20.8646C26.996 20.8646 26.8924 20.5825 26.8613 20.3262C26.8303 20.0698 26.9125 20.019 26.8173 19.7256C26.7603 19.5469 26.6569 19.572 26.6309 19.5469C26.605 19.5218 26.5869 19.2518 26.592 19.1042C26.5971 18.9566 26.5869 18.7651 26.561 18.6822C26.5222 18.6511 26.4963 18.6252 26.4393 18.4337C26.3746 18.242 26.3435 18.1463 26.3125 18.0894C26.2814 18.0326 26.1906 17.9807 26.1906 17.9237C26.1906 17.8097 26.2942 17.7503 26.2942 17.7189C26.2891 17.6542 26.2114 17.7061 26.1906 17.6879C26.1648 17.6568 26.2555 17.4704 26.2218 17.4445C26.2089 17.4317 26.1182 17.5404 26.0949 17.5093C26.0689 17.4781 26.0379 17.17 25.9913 16.9656C25.9474 16.7663 25.9006 16.6214 25.8955 16.5618C25.8904 16.5048 25.5382 15.5002 25.4528 15.2569C25.384 15.0512 25.3262 14.8421 25.2794 14.6304C25.2535 14.5087 25.2354 14.26 25.2224 14.286C25.2094 14.3119 25.2173 14.4387 25.1965 14.4336C25.1784 14.4283 25.1137 13.9857 25.0931 13.9158C25.075 13.8458 24.9661 13.6086 24.9395 13.4369C24.9135 13.2633 24.8567 12.8102 24.8178 12.5021C24.7789 12.1941 24.7608 12.0673 24.7608 11.9901C24.7671 11.8015 24.7567 11.6126 24.7297 11.4257C24.6785 11.0994 24.5761 10.7033 24.4863 10.4731C24.3129 10.0381 23.852 8.9248 23.7695 8.64781C23.7695 8.57783 23.8602 8.61675 23.8602 8.61675C23.8602 8.61675 24.0853 9.18114 24.251 9.616C24.4116 10.051 24.5643 10.4342 24.6032 10.4731C24.6343 10.5118 24.8777 10.939 24.9864 11.6381C25.0951 12.3371 25.1338 12.9817 25.1987 13.4115C25.2298 13.6163 25.2557 13.8335 25.3204 14.0509C25.3902 14.2866 25.4989 14.53 25.6414 14.9027C25.7631 15.2161 25.8537 15.4775 25.9029 15.7028C25.9599 15.9902 25.9599 16.2077 25.9935 16.3502C26.0247 16.4719 26.0711 16.7151 26.18 17.067C26.2889 17.4189 26.4492 17.8722 26.5579 18.1543C26.7704 18.7187 26.8651 19.1899 26.8972 19.4411C26.9255 19.7 27.0214 20.5958 26.9955 20.865L26.996 20.8646Z" fill="#A88F33"/>
<path fill-rule="evenodd" clip-rule="evenodd" d="M21.7658 3.66085L21.7528 3.69192C21.7528 3.69192 21.7916 3.70489 21.7839 3.75677C21.7844 3.82775 21.7801 3.89869 21.7709 3.96908C21.7581 4.0597 21.7322 4.1295 21.727 4.18651C21.727 4.30819 21.7451 4.44797 21.5734 4.79493C21.5222 4.89068 21.4907 4.97345 21.4647 5.03045C21.4 5.17023 21.3871 5.19105 21.3301 5.25573C21.4207 5.20453 21.747 4.99973 21.9126 5.03045C21.7987 5.09514 21.6252 5.22211 21.5164 5.38783C21.5424 5.39295 21.6511 5.41377 21.8236 5.38783C22.111 5.3438 22.4321 5.2402 22.7142 5.26085C23.0224 5.27894 22.9007 4.89068 22.9007 4.89068L22.5451 4.10885L21.8719 3.63525L21.7658 3.66102V3.66085Z" fill="#BE9C44"/>
<path fill-rule="evenodd" clip-rule="evenodd" d="M23.5203 9.51723C23.5203 9.51723 23.22 9.21686 23.0983 8.18603C22.9766 7.15043 23.0025 5.62603 23.0025 5.62603L22.7592 5.03058C22.7592 5.03058 22.708 4.63446 22.5805 4.48701C22.453 4.33955 22.2026 4.09089 22.0886 3.9692C21.9746 3.84752 21.8452 3.6818 21.7676 3.65586C21.8063 3.59118 21.9799 3.22612 22.6451 3.221C23.3104 3.21588 23.5155 3.58606 23.585 3.72071C23.6545 3.85537 23.9682 4.43751 24.0845 5.54685C24.1933 6.65481 24.1986 6.73776 24.1805 7.1209C24.1675 7.33321 24.0975 7.82507 23.9757 8.35056C23.8644 8.796 23.7427 9.29315 23.52 9.51826L23.5203 9.51723Z" fill="#A17C34"/>
<path fill-rule="evenodd" clip-rule="evenodd" d="M22.5792 10.4C22.6793 10.4072 22.7793 10.3846 22.8666 10.3351C22.9624 10.33 23.3093 10.374 23.5759 10.0349C23.594 10.1124 23.6408 10.3223 23.5189 10.5087C23.5838 10.4438 23.6795 10.4181 23.6925 10.4C23.6976 10.4957 23.7882 10.7908 23.4051 11.5079C23.5085 11.3941 23.6302 11.3992 23.7389 11.3863C23.7442 11.5209 23.8166 11.9739 23.6251 12.2174C23.4983 12.3831 23.2911 12.3312 23.2911 12.3312C23.2941 12.2951 23.2941 12.2587 23.2911 12.2225C23.286 12.1525 23.26 12.0827 23.2783 12.0361C23.1782 11.9904 23.087 11.9273 23.009 11.8496C22.7837 11.6373 22.4912 11.275 22.4705 11.0057C22.4446 10.7053 22.7139 10.6406 22.7139 10.6406C22.6913 10.6204 22.6721 10.5968 22.6569 10.5706C22.6439 10.5268 22.6309 10.4568 22.5792 10.4Z" fill="#8C6228"/>
<path fill-rule="evenodd" clip-rule="evenodd" d="M20.5828 7.1431C20.5828 7.1431 20.5698 7.12501 20.5 7.20778C20.513 7.12501 20.5259 7.04718 20.5311 6.97209C20.5641 6.90257 20.6069 6.83809 20.658 6.7806C20.6191 6.85808 20.5932 6.92806 20.5932 6.92806C20.5932 6.92806 20.6891 6.74937 20.8289 6.64066C20.9246 6.563 21.0463 6.52682 21.098 6.45429C21.155 6.37663 21.142 6.36366 21.155 6.35069C21.155 6.35069 21.282 6.26792 21.4762 6.02438C21.502 5.99332 21.5409 5.9597 21.5668 5.92863C21.6107 5.91054 21.7143 5.86395 21.836 5.80166C21.963 5.73186 22.1053 5.63611 22.1934 5.59686C22.3668 5.51921 22.5507 5.52706 22.6361 5.4052C22.7007 5.38711 22.7705 5.19289 22.7577 5.02734C22.8535 5.06609 23.3454 5.37158 23.5138 6.03957C23.6355 6.51334 23.4179 7.24345 23.3273 7.59571C23.2366 7.94796 23.2238 8.20925 23.0969 8.36968C22.9363 8.58216 22.4186 8.88168 22.2917 9.02999C22.1829 9.15167 21.8568 9.45973 21.8696 9.68228C21.8826 9.84799 22.087 9.93828 22.1312 9.96968C22.1754 10.0011 22.1751 10.0397 22.258 10.0209C22.341 10.0021 22.3719 9.96388 22.4057 9.96388C22.4444 9.969 22.4444 9.97685 22.4625 9.97685C22.4756 9.97646 22.4887 9.97468 22.5014 9.97156C22.5014 9.97156 22.4884 10.2072 21.937 10.2788C21.8981 10.284 21.8594 10.2968 21.81 10.3047C21.8749 10.2736 21.9136 10.2736 21.9836 10.1779C21.906 10.1649 21.6832 10.152 21.6262 10.1339C21.6443 10.1028 21.7039 10.0199 21.753 9.98111C21.7971 9.94237 21.7479 9.92991 21.7092 9.95005C21.6425 9.99543 21.5785 10.0447 21.5175 10.0975C21.4528 10.1545 21.3958 10.2322 21.2922 10.3023C21.2612 10.1987 21.2663 10.0019 21.3881 9.8596C21.3569 9.86472 21.2974 9.95534 21.2405 9.93725C21.2302 9.84282 21.2364 9.74732 21.2586 9.65497C21.2897 9.5384 21.458 9.33395 21.458 9.33395L22.2708 7.8814L22.4442 6.78111L20.5828 7.14276V7.1431Z" fill="#92723A"/>
<path fill-rule="evenodd" clip-rule="evenodd" d="M20.5391 7.20513C20.5391 7.20513 20.4951 7.23619 20.5831 7.29575C20.5701 7.31384 20.5391 7.37853 20.5002 7.42256C20.4563 7.47376 20.4095 7.5055 20.3915 7.54953C20.3527 7.64016 20.3217 7.70228 20.3217 7.74119C20.3217 7.7801 20.3087 8.02859 20.2 8.18902C20.1611 8.24602 20.117 8.34177 20.086 8.40645C20.0213 8.52028 19.9643 8.61125 19.9513 8.66245C19.9255 8.75307 19.9074 9.00156 19.9074 9.00156C19.9074 9.00156 19.9644 8.93159 19.9851 8.90582C19.9539 8.9705 19.9202 9.04031 19.8711 9.09219C19.9022 9.06625 19.9928 9.00156 20.1455 8.86691C20.3578 8.68839 20.6893 8.38802 21.0932 8.15011C20.9714 8.19414 20.868 8.19414 20.7852 8.20711C20.8499 8.14243 21.4324 7.45891 21.7378 7.39423C21.7564 7.37071 21.7656 7.34118 21.7638 7.31128L21.5022 7.28551L20.9714 7.39935L20.8939 6.98975L20.5391 7.20462V7.20513Z" fill="#B18E3E"/>
<path fill-rule="evenodd" clip-rule="evenodd" d="M21.3818 9.53531C21.3818 9.53531 21.3118 9.60511 21.2471 9.77868C21.1973 9.72668 21.1546 9.66832 21.1201 9.60511C21.0244 9.44469 20.8769 9.24006 20.5325 9.35662C20.5274 9.24791 20.5196 9.19091 20.5325 9.11325C20.5895 9.10045 20.7629 8.96068 20.9363 8.75605C21.0582 8.61627 21.172 8.45567 21.2497 8.25122C21.3009 8.2123 21.3895 8.14762 21.5057 8.07253C21.6714 7.95869 21.8707 7.80322 21.9018 7.62982C21.8241 7.66088 21.6584 7.73853 21.4098 7.72573C21.5057 7.6817 21.6531 7.63511 21.635 7.44345C21.674 7.41751 21.705 7.39942 21.705 7.39942C21.6758 7.38969 21.6451 7.38529 21.6144 7.38645C21.6091 7.36836 21.6014 7.34259 21.5574 7.35539C21.5134 7.36819 21.5062 7.36836 21.5004 7.38645C21.4823 7.39174 21.4227 7.38645 21.3787 7.41768C21.3347 7.44891 21.213 7.55217 21.1664 7.57026C21.1845 7.53919 21.2103 7.49277 21.2103 7.49277C21.2103 7.49277 21.0835 7.50557 20.9928 7.54397C20.8271 7.60098 20.6356 7.70457 20.4414 7.80543C20.4595 7.77437 20.4673 7.75423 20.4801 7.74843C20.4929 7.74263 20.5242 7.73563 20.5242 7.73034C20.5242 7.72505 20.5114 7.67914 20.5191 7.66054C20.5771 7.53753 20.6456 7.41973 20.7239 7.30845C20.8145 7.1866 20.8326 7.0132 20.8326 7.0132L21.2287 6.81386L22.3419 6.55786L23.0644 6.60189L22.9738 7.10161L22.5471 7.97405L22.182 8.76885L21.7651 9.25576L21.3819 9.53531H21.3818Z" fill="#543E26"/>
<path fill-rule="evenodd" clip-rule="evenodd" d="M23.1874 7.37287C23.1874 7.37287 22.7524 7.91132 22.6307 7.99427C22.7084 7.82855 23.1874 6.8421 23.3608 6.56766C23.3221 6.5366 23.2702 6.5366 23.3919 6.05566C23.2885 6.29886 23.2521 6.42584 23.1668 6.49052C23.0814 6.55521 23.0709 6.53455 23.0132 6.53455C23.0241 6.51485 23.0285 6.49224 23.026 6.46987C23.026 6.46987 22.6609 6.42584 22.4116 6.42584C22.1622 6.42584 21.6687 6.5605 21.3941 6.66921C21.1766 6.75983 21.0549 6.75983 20.9773 6.81667C20.8996 6.88135 20.8556 6.95132 20.8167 6.96941C20.7856 6.9875 20.6382 7.0341 20.6044 7.08325C20.5733 7.13445 20.5216 7.19196 20.5216 7.20493C20.5216 7.2179 20.5086 7.23617 20.5475 7.22302C20.5603 7.2179 20.6563 7.16602 20.765 7.10134C20.9124 7.01857 21.0911 6.92282 21.2207 6.86582C21.5908 6.71819 21.7074 6.74413 21.8729 6.71307C22.0463 6.68201 22.295 6.60948 22.4606 6.60948C22.6263 6.60436 22.9396 6.60948 23.0121 6.62245C22.9811 6.64839 22.9551 6.67945 22.9681 6.78817C22.9681 6.81923 22.9422 6.85285 22.9169 6.92794C22.8394 7.14025 22.6918 7.49234 22.6097 7.67102C22.4959 7.91422 22.3665 8.11885 22.3025 8.24566C22.2385 8.37246 22.0977 8.70646 21.9583 8.88515C21.8188 9.06383 21.746 9.17255 21.7023 9.21146C21.6586 9.25037 21.3449 9.4806 21.3683 9.56355C21.4253 9.54546 21.7852 9.40995 22.0465 9.11572C22.3078 8.82149 22.3599 8.64195 22.5643 8.48135C22.7688 8.32075 22.9294 8.05161 23.0251 7.82906C23.1053 7.62187 23.0872 7.55719 23.1881 7.37338L23.1874 7.37287Z" fill="#806031"/>
<path fill-rule="evenodd" clip-rule="evenodd" d="M13.8131 11.3917C13.8131 11.3917 13.7561 11.6273 13.6266 11.7438C13.4998 11.8578 13.2745 11.9561 13.2487 12.1478C13.2176 12.3393 13.474 12.4352 13.474 12.4352C13.474 12.4352 13.334 12.6656 13.334 12.839C13.334 13.0177 13.3289 13.0513 13.347 13.2221C13.3265 13.2353 13.309 13.2528 13.2958 13.2733C13.2958 13.2733 13.3086 13.4391 13.4356 13.5425C13.5626 13.6459 13.6711 13.7082 13.7358 13.6823C13.7457 13.7034 13.7543 13.725 13.7617 13.7471C13.7617 13.7471 13.8576 13.5037 13.9223 13.2914C13.987 13.074 14.044 13.1049 14.0698 12.8124C14.0956 12.5198 14.377 12.0176 14.377 12.0176L14.569 11.5883L14.2558 11.345L13.8131 11.3916V11.3917Z" fill="#B6903C"/>
<path fill-rule="evenodd" clip-rule="evenodd" d="M14.3955 11.8135C14.3309 11.8798 14.2713 11.9507 14.2172 12.0258C14.1344 12.1398 14.0697 12.2432 13.948 12.2874C13.8264 12.3316 13.7487 12.3313 13.7564 12.4531C13.7641 12.575 13.8781 12.6265 13.9427 12.6887C14.0127 12.7533 14.0697 12.8621 14.0387 12.9839C14.0774 12.9658 14.1474 12.945 14.2121 12.8052C14.2767 12.6654 14.7292 11.8136 14.7292 11.8136H14.3955V11.8135Z" fill="#685026"/>
<path fill-rule="evenodd" clip-rule="evenodd" d="M16.1797 9.84852C16.1797 9.84852 16.2184 9.74509 16.1797 9.67C16.1407 9.59234 15.9052 9.5664 15.7887 9.47834C15.667 9.38772 15.5193 9.32474 15.3977 9.36451C15.4158 9.32047 15.4883 9.22456 15.4287 9.20391C15.3717 9.18582 15.1596 9.28156 15.1026 9.32559C15.0456 9.36963 14.916 9.42134 14.8903 9.45257C14.8645 9.4838 14.8203 9.54319 14.7944 9.51725C14.7684 9.49916 14.7556 9.45257 14.7116 9.47834C14.6675 9.50411 14.4556 9.67768 14.4165 9.77871C14.3774 9.87975 14.2895 10.105 14.0255 10.3612C13.7615 10.6174 13.6475 10.7833 13.7251 10.879C13.8028 10.9747 13.8391 10.9049 13.8521 10.9877C13.8621 11.069 13.8577 11.1514 13.8391 11.2311C13.8081 11.3657 13.7564 11.4925 13.8262 11.5185C14.0048 11.5755 14.1784 11.4673 14.2172 11.5004C14.2948 11.5702 14.1731 11.8214 14.3569 11.8706C14.5435 11.9218 14.7273 11.8265 14.7273 11.8265L15.4055 11.4615L16.058 11.1173L16.3918 10.4569L16.2128 9.90552L16.1786 9.84852H16.1797Z" fill="#D4B968"/>
<path fill-rule="evenodd" clip-rule="evenodd" d="M15.5399 11.4253C15.5399 11.4253 15.4259 11.2519 15.5658 11.099C15.7058 10.9461 15.9049 10.8815 15.9826 10.7858C15.9678 10.7676 15.948 10.7541 15.9256 10.7471C15.9771 10.6548 16.0558 10.5807 16.1509 10.5346C16.1121 10.4958 16.0602 10.4648 16.0034 10.4648C15.8764 10.4648 15.7986 10.5424 15.6822 10.5424C15.5684 10.5424 15.5554 10.4854 15.5554 10.4854C15.5554 10.4854 15.7471 10.4673 15.7288 10.3818C15.7107 10.2912 15.6776 10.2912 15.6776 10.2912C15.6776 10.2912 16.0478 10.1376 16.1125 10.0557C16.1771 9.97377 16.1695 9.877 16.1824 9.83826C16.2263 9.83826 16.4826 9.70361 16.5862 9.76061C16.6898 9.81761 16.6173 9.97292 16.6173 9.97292C16.6173 9.97292 16.9308 9.73723 17.0905 9.50614C17.2303 9.51911 17.2953 9.4104 17.3977 9.4104C17.5247 9.4104 17.7241 9.5838 17.7628 9.95397C17.7887 10.1663 17.8275 10.288 17.7887 10.6634C17.7707 10.8757 17.7758 11.329 17.8399 11.554C17.8838 11.7327 17.9874 11.7146 17.9874 11.7146C17.9715 11.769 17.94 11.8176 17.8968 11.8543C17.8268 11.919 17.8191 12.09 17.8268 12.1547C17.8371 12.202 17.8501 12.2487 17.8657 12.2945C17.8657 12.2945 17.7829 12.3902 17.7621 12.4551C17.744 12.5198 17.6587 12.5638 17.5964 12.5638C17.5341 12.5638 17.5653 12.5585 17.4826 12.5638C17.3998 12.5691 17.3739 12.5819 17.322 12.5638C17.2701 12.5457 17.2313 12.5249 17.2522 12.359C17.2703 12.1933 16.6127 11.8076 16.6127 11.8076L15.5375 11.4244L15.5399 11.4253Z" fill="#CCA849"/>
<path fill-rule="evenodd" clip-rule="evenodd" d="M14.3036 13.0614C14.3036 13.0614 14.5391 13.3748 15.5075 13.3748C15.9683 13.3748 16.1289 13.3307 16.2243 13.3048C16.3279 13.2788 16.7161 13.1263 17.1071 12.6653C17.4592 12.2485 17.3816 12.0777 17.3816 12.0777L17.1768 12.0466L16.5112 12.1373L14.5417 12.9761L14.3027 13.0614H14.3036Z" fill="#585136"/>
<path fill-rule="evenodd" clip-rule="evenodd" d="M15.0263 13.1392C15.0263 13.1392 14.1875 13.3257 14.1875 12.795C14.1875 12.2771 14.7053 11.7334 14.8348 11.6377C14.9695 11.5417 15.2905 11.4329 15.2905 11.4329H16.0647L16.2121 11.8239L16.1474 12.6678L15.0263 13.139V13.1392Z" fill="#252211"/>
<path fill-rule="evenodd" clip-rule="evenodd" d="M15.8004 11.591C15.8004 11.591 15.64 11.4434 15.2749 11.6422C14.9098 11.8411 14.6146 12.2566 14.5965 12.634C14.5784 12.9678 14.8709 13.2165 15.3266 13.2294C15.6657 13.2422 15.8704 13.2035 15.9739 13.1782C15.948 13.1472 15.8133 12.9789 15.8133 12.9789L15.8005 11.5912L15.8004 11.591Z" fill="#C3B378"/>
<path fill-rule="evenodd" clip-rule="evenodd" d="M15.6435 11.6735C15.6435 11.6735 15.6048 11.6425 15.4899 11.7046C15.3942 11.7558 15.2544 11.8911 15.1457 11.9869C15.0757 12.0439 15.0317 12.0697 14.9921 12.1137C14.8315 12.3053 14.6968 12.6187 14.7746 12.774C14.8525 12.9293 15.1086 13.108 15.7611 12.9863L15.6416 11.6737L15.6435 11.6735Z" fill="#E6D89C"/>
<path fill-rule="evenodd" clip-rule="evenodd" d="M15.4314 11.9949C15.4314 11.9949 15.3278 12.1555 15.3278 12.4118C15.3278 12.6733 15.4755 13.0901 16.0192 13.1211C16.436 13.1471 16.7155 12.5206 17.0185 12.2772C17.2489 12.0908 17.3886 12.0855 17.3886 12.0855C17.3886 12.0855 17.1531 11.8295 16.524 11.4979C15.9026 11.1639 15.2062 11.1199 14.8281 11.6326C15.0068 11.6196 15.5842 11.472 15.5842 11.472L15.8665 11.5626L15.4314 11.9951V11.9949Z" fill="#252211"/>
<path fill-rule="evenodd" clip-rule="evenodd" d="M16.2438 12.334C16.2257 12.2953 16.2127 12.2434 16.2878 12.2306C16.3629 12.2178 16.3965 12.2253 16.4224 12.2818C16.4484 12.3383 16.4736 12.3854 16.4352 12.4088C16.3965 12.4294 16.2955 12.4088 16.2436 12.3337L16.2438 12.334ZM16.1221 11.969C16.1221 11.969 16.0961 11.9871 16.1091 11.9509C16.1142 11.907 16.148 11.8292 16.2308 11.8475C16.3136 11.8657 16.2956 11.9562 16.282 11.9821C16.2683 12.0081 16.1992 12.0519 16.1473 12.0333C16.1408 12.0316 16.1347 12.0284 16.1296 12.0239C16.1245 12.0195 16.1205 12.0139 16.118 12.0075C16.1154 12.0012 16.1144 11.9944 16.115 11.9877C16.1156 11.9809 16.1178 11.9744 16.1214 11.9686L16.1221 11.969Z" fill="#6F674D"/>
<path fill-rule="evenodd" clip-rule="evenodd" d="M9.11328 12.1344C9.11328 12.1344 9.31808 12.288 9.55599 12.282C9.79151 12.2767 10.0944 12.0335 10.2342 11.878C10.317 11.7874 10.3878 11.6917 10.4646 11.6166C10.5295 11.5519 10.5733 11.5208 10.6044 11.4768C10.6484 11.4256 10.695 11.3293 10.7184 11.2981C10.6614 11.3421 10.5786 11.42 10.4931 11.4717C10.4103 11.5229 10.2317 11.6191 10.1591 11.6451C10.0893 11.671 9.36433 12.0547 9.36433 12.0547L9.11328 12.1344Z" fill="#AC924C"/>
<path fill-rule="evenodd" clip-rule="evenodd" d="M9.42578 10.2215C9.42578 10.2215 9.53962 10.1439 9.75978 10.0945C9.97208 10.0433 10.3993 10.0039 10.3993 10.0039L10.7513 10.1575L10.8911 10.6883L10.6351 11.2399L10.309 11.4447L9.93863 10.8492L9.42663 10.2225L9.42578 10.2215Z" fill="#9F8E57"/>
<path fill-rule="evenodd" clip-rule="evenodd" d="M8.96561 10.6953L8.84375 10.7862C8.84375 10.7862 8.87498 10.7292 8.90075 10.5558C8.92652 10.3824 9.06135 9.96036 9.25813 9.71699C9.45491 9.47362 9.44979 9.48659 9.44979 9.48659C9.43168 9.48328 9.41307 9.48387 9.39521 9.48831C9.37735 9.49275 9.36064 9.50095 9.34619 9.51236C9.37213 9.45502 9.53785 9.25022 9.70357 9.14782C9.86929 9.04542 9.93397 9.01316 10.1074 9.09662C10.2808 9.18008 10.3248 9.22343 10.4518 9.2183C10.5787 9.21318 10.6873 9.07853 10.6873 9.07853C10.6873 9.07853 10.7132 9.1613 10.6175 9.35296C10.5217 9.54462 10.1437 9.93545 10.1437 9.93545L9.3566 10.4739L8.96561 10.6958V10.6953Z" fill="#EAC970"/>
<path fill-rule="evenodd" clip-rule="evenodd" d="M9.54756 10.1567C9.54756 10.1567 10.1172 10.2344 10.2906 10.074C10.2958 10.092 10.3166 10.092 10.3166 10.105C10.3152 10.1148 10.3106 10.1238 10.3036 10.1308C10.3225 10.1278 10.3415 10.1261 10.3606 10.1257C10.3834 10.1325 10.4069 10.1368 10.4306 10.1386C10.4497 10.1382 10.4687 10.1365 10.4876 10.1333C10.4858 10.1462 10.4814 10.1586 10.4747 10.1697C10.468 10.1809 10.4592 10.1906 10.4487 10.1982C10.4746 10.1982 10.4999 10.2033 10.4999 10.224C10.4999 10.2446 10.505 10.3069 10.4739 10.3199C10.4482 10.327 10.4208 10.3251 10.3963 10.3146C10.3983 10.3636 10.4117 10.4115 10.4352 10.4545C10.4864 10.5503 10.5956 10.6593 10.7424 10.6279C10.7424 10.6279 10.8199 10.8143 10.4937 11.2285C10.4499 11.2855 10.4031 11.3632 10.3463 11.4279C10.3238 11.4768 10.3067 11.528 10.2951 11.5806C10.2951 11.5806 10.8467 11.3683 11.0045 10.8841C11.1651 10.3974 11.1962 9.91848 11.1651 9.47065C11.1598 9.34367 11.1392 9.25322 11.1081 9.18837C11.0305 9.02777 10.8129 9.05371 10.725 9.14434C10.598 9.27131 10.3857 9.58705 10.0906 9.80447C9.79025 10.0219 9.77745 10.0605 9.54688 10.1567H9.54756Z" fill="#D7BC6B"/>
<path fill-rule="evenodd" clip-rule="evenodd" d="M8.86538 10.8558C8.86538 10.8558 8.75666 10.9205 8.69966 11.163C8.64266 11.4115 8.75086 11.7144 8.81349 11.8102C8.87613 11.9059 9.01829 12.1676 9.31321 12.1805C9.3862 12.1801 9.45839 12.1652 9.52552 12.1365C9.62847 12.0893 9.72503 12.0293 9.81292 11.9578C9.93989 11.8621 10.0433 11.7793 10.0303 11.7714C9.99929 11.7585 9.24852 11.1371 9.24852 11.1371L8.96624 10.822L8.86521 10.8562L8.86538 10.8558Z" fill="#585136"/>
<path fill-rule="evenodd" clip-rule="evenodd" d="M9.57451 11.886C9.57451 11.886 9.72726 11.8732 9.81788 11.8162C9.90851 11.7592 9.28711 11.1431 9.28711 11.1431L9.33114 11.8087L9.57451 11.886Z" fill="#453A25"/>
<path fill-rule="evenodd" clip-rule="evenodd" d="M8.9142 10.8091C8.9142 10.8091 8.83655 10.9567 8.83655 10.9956C8.82358 11.1224 8.86249 11.5211 8.89355 11.6479C8.92461 11.7825 9.09289 11.987 9.31049 11.987C9.44497 11.987 9.63151 11.9042 9.63151 11.8836C9.63151 11.8576 9.43985 11.8324 9.38814 11.7359C9.35708 11.6847 9.34411 11.5574 9.33694 11.4287C9.33182 11.346 9.33182 11.2553 9.36288 11.2239C9.43286 11.1463 9.44566 10.9236 9.44566 10.9236L9.69415 10.4619H9.36732L8.97632 10.7053L8.9142 10.8091Z" fill="#84754B"/>
<path fill-rule="evenodd" clip-rule="evenodd" d="M8.81836 10.9514C8.81836 10.9514 9.07436 10.6123 9.3051 10.5345C9.53584 10.4566 9.6391 10.5034 9.6391 10.5034L9.50444 10.8478L9.31278 11.0601L9.32575 11.1688C9.32575 11.1688 9.29452 11.4562 9.48618 11.6556C9.67784 11.8549 9.82017 11.8472 9.90312 11.8472C9.98606 11.8472 10.2241 11.7773 10.3458 11.4899C10.4545 11.2207 10.5452 10.8755 10.3277 10.5293C10.1153 10.1849 9.73996 10.1716 9.66743 10.1716C9.59489 10.1716 9.02538 10.2001 8.81836 10.9509V10.9514Z" fill="#252211"/>
<path fill-rule="evenodd" clip-rule="evenodd" d="M15.3923 12.1035C15.2966 12.0595 15.3872 11.7904 15.4829 11.7074C15.5787 11.6245 15.7004 11.5289 15.9128 11.5157C15.9903 11.5106 16.0654 11.5598 16.0526 11.6117C16.0345 11.7074 15.8999 11.8421 15.7782 11.9378C15.6099 12.0699 15.501 12.1527 15.3923 12.1035Z" fill="#F7F7E7"/>
<path fill-rule="evenodd" clip-rule="evenodd" d="M10.2126 10.6356C10.2826 10.6305 10.3732 10.6868 10.3913 10.7626C10.4094 10.8453 10.3472 11.011 10.2126 11.011C10.1039 11.011 10.0469 10.8764 10.0469 10.8376C10.0481 10.8058 10.057 10.7747 10.0728 10.747C10.0779 10.7392 10.0909 10.6485 10.2126 10.6356Z" fill="#F8F6DE"/>
<path fill-rule="evenodd" clip-rule="evenodd" d="M9.20308 10.6951C9.20308 10.6951 9.02439 10.7778 8.94162 10.9511C8.88248 11.079 8.86458 11.2221 8.89042 11.3607C8.90339 11.4254 8.96807 11.5858 9.01211 11.6428C9.05614 11.6998 9.1157 11.7387 9.15973 11.7334C9.20376 11.7281 9.29422 11.6117 9.29422 11.5419C9.29422 11.4721 9.29951 11.1769 9.38484 11.0163C9.45994 10.8558 9.20359 10.6952 9.20359 10.6952L9.20308 10.6951Z" fill="#D4C38B"/>
<path fill-rule="evenodd" clip-rule="evenodd" d="M9.23017 10.6821C9.19911 10.7002 9.1474 10.7261 9.1602 10.7597C9.17317 10.7908 9.28189 10.8109 9.3208 10.8867C9.36483 10.9644 9.36483 11.0471 9.35186 11.0861C9.38568 11.07 9.41636 11.048 9.44248 11.0212C9.49949 10.9565 9.56929 10.8686 9.62885 10.8686C9.66776 10.8686 9.7065 10.8867 9.74286 10.8867C9.79986 10.8867 9.85669 10.8686 9.86454 10.8091C9.87734 10.7314 9.75583 10.6614 9.68585 10.6744C9.69882 10.6232 9.71691 10.5476 9.65991 10.4957C9.60291 10.4438 9.42439 10.5346 9.38548 10.5606C9.34657 10.5865 9.23017 10.6823 9.23017 10.6823V10.6821Z" fill="#E2D59D"/>
<path fill-rule="evenodd" clip-rule="evenodd" d="M13.3436 16.1217L13.7267 16.0085L13.8354 16.0862C13.8354 16.0862 13.9129 16.2519 14.0348 16.2726C13.9959 16.3553 13.8948 16.4262 13.9001 16.4849C13.9054 16.5436 13.9571 16.5885 13.9571 16.5885C13.9571 16.5885 13.6127 17.158 14.2911 17.7319C14.1305 17.7966 13.9261 17.8855 13.8173 17.9367C13.8948 17.9548 14.0605 17.9879 14.1305 18.0507C14.2005 18.1135 14.2005 18.1335 14.2652 18.1724C14.3299 18.2113 14.3686 18.2631 14.3558 18.2863C14.3118 18.2603 14.1641 18.1828 14.1384 18.2552C14.1126 18.3276 13.4989 18.2992 13.4989 18.2992L12.4633 18.4986C12.4633 18.4986 12.502 18.395 12.3933 18.2992C12.2665 18.1854 12.1112 18.3044 11.9455 18.1775C11.728 18.0118 11.7202 17.8202 11.6504 17.7478C11.7202 17.7038 11.8627 17.6391 12.2018 17.5942C12.1888 17.5683 12.1448 17.4906 12.1708 17.4208C12.2018 17.3302 12.3312 17.2732 12.2924 17.1648C12.3494 17.1518 12.3752 17.1518 12.5177 16.9732C12.6524 16.7945 12.7351 16.7557 12.8387 16.7428C12.9423 16.7298 13.0045 16.7428 13.1961 16.5641C13.3306 16.4373 13.2867 16.3285 13.2867 16.3285C13.2867 16.3285 13.3746 16.3 13.3437 16.1214L13.3436 16.1217Z" fill="#CBAC5A"/>
<path fill-rule="evenodd" clip-rule="evenodd" d="M12.2115 16.1793C12.2167 16.1534 12.2375 16.1404 12.3773 16.1534C12.517 16.1663 13.4024 16.0706 13.6433 16.0576C13.8866 16.0395 14.7435 16.0523 15.1605 16.1404C15.5774 16.2285 15.9993 16.3321 16.2038 16.3838C16.4086 16.4408 16.4731 16.4612 16.4652 16.4872C16.4601 16.5131 16.414 16.5384 16.3876 16.5312C16.3618 16.5261 15.6834 16.3189 15.4738 16.2752C15.2643 16.2315 14.5391 16.1146 14.1426 16.1216C13.7725 16.1269 13.6248 16.1165 13.3117 16.1527C12.9983 16.1916 12.4805 16.2433 12.3252 16.2227C12.1716 16.2046 12.2033 16.2046 12.2112 16.1786L12.2115 16.1793Z" fill="#D6BC6F"/>
<path fill-rule="evenodd" clip-rule="evenodd" d="M14.2968 18.2084C14.2968 18.2084 14.8275 18.4958 15.0192 18.8479C15.159 19.1094 14.9364 19.2389 14.9364 19.2389C14.9364 19.2389 15.2368 19.2389 15.1979 19.4046C15.1798 19.508 14.6801 19.7876 14.3461 19.9352C14.007 20.0828 14.0199 20.0752 13.8542 20.1009C13.6936 20.1269 13.2535 20.0497 13.1628 20.1786C13.0722 20.3074 13.1116 20.4402 13.1369 20.4609C13.1628 20.479 13.3726 20.5049 13.3726 20.5049C13.3726 20.5049 13.3286 20.6266 12.8937 20.6396C12.4588 20.6525 12.35 20.6834 12.324 20.7302C12.2981 20.774 12.4068 20.7483 12.6063 20.7814C12.8056 20.8124 13.0852 20.8326 13.0852 20.8326C13.0852 20.8326 12.9946 20.9102 12.7591 20.9724C12.4897 21.0422 12.0677 21.107 11.9409 21.1847C12.0056 21.2287 12.1015 21.2934 12.1457 21.2985C12.037 21.3244 11.884 21.3814 11.8583 21.4021C11.897 21.428 11.9489 21.4591 11.9489 21.4591C11.9489 21.4591 11.7313 21.7206 11.6045 21.7854C11.4777 21.8503 10.7476 22.1892 10.4964 22.1245C9.86983 21.9588 9.79218 21.2727 9.63943 21.221C9.40903 21.1434 9.30032 21.2985 9.09569 21.1898C9.18631 21.1251 9.23564 21.0864 9.33138 21.0423C9.22779 20.9911 8.69189 20.6513 8.69189 20.6513C8.63585 20.5292 8.57365 20.41 8.50553 20.2941C8.40193 20.1154 8.24953 19.8772 8.13518 19.6674C7.88669 19.2066 7.87372 18.9943 7.64844 18.7329C7.68735 18.6817 7.82183 18.6888 7.82183 18.6888L9.70941 19.3102L13.0564 19.4072L13.9268 18.1646L14.2969 18.2086L14.2968 18.2084Z" fill="#DFC677"/>
<path fill-rule="evenodd" clip-rule="evenodd" d="M9.33789 20.1035C9.35809 20.1259 9.38163 20.1452 9.40769 20.1605C9.47255 20.2045 9.56829 20.2564 9.63297 20.3339C9.65891 20.2951 9.7236 20.2252 9.83777 20.3339C9.95195 20.4426 10.0938 20.3651 10.182 20.3909C10.2726 20.4221 10.2778 20.4349 10.2778 20.4349C10.2778 20.4349 10.329 20.3909 10.4435 20.3443C10.5134 20.3183 10.5962 20.3002 10.6868 20.2745C10.7696 20.2564 10.8602 20.2304 10.9225 20.2304C10.9795 20.2692 11.184 20.4864 12.0047 20.1658C12.7789 19.8654 12.9574 19.8318 13.0869 19.8782C13.0999 19.8471 13.1129 19.7876 13.3122 19.7954C13.3122 19.7126 13.1465 19.4304 13.1465 19.4304L12.2326 19.1172H11.7327L10.2337 19.3916L9.40309 19.8656L9.3384 20.1045L9.33789 20.1035Z" fill="#C4A859"/>
<path fill-rule="evenodd" clip-rule="evenodd" d="M8.83789 19.5781C8.83789 19.5781 8.85598 19.7179 9.06317 19.8655C9.26797 20.0129 9.33231 20.101 9.33231 20.101C9.33231 20.101 9.37122 20.0498 9.40228 19.9976C9.43335 19.9406 9.45929 19.8759 9.511 19.8578C9.61459 19.8138 9.85011 19.8966 9.902 19.8836C9.94603 19.8708 9.93306 19.7802 9.97965 19.7802C10.0884 19.7749 10.1582 19.85 10.1971 19.85C10.236 19.85 10.3316 19.8448 10.3445 19.8242C10.3575 19.8035 10.3626 19.5885 10.5103 19.4849C10.6709 19.3711 10.8676 19.4202 10.9199 19.4462C10.9199 19.4849 10.925 19.5808 11.0286 19.5859C11.1322 19.5911 11.1424 19.573 11.2334 19.604C11.3243 19.6351 11.4327 19.5989 11.4819 19.7515C11.5259 19.7387 11.6295 19.7257 11.6035 19.5781C11.6547 19.5393 11.6995 19.5134 11.8083 19.3607C11.8343 19.3219 11.8781 19.2779 11.9119 19.2209C12.0026 19.2209 12.1113 19.2028 12.2562 19.3296C12.2121 19.3607 12.1862 19.3808 12.1734 19.4124C12.2113 19.4499 12.2459 19.4906 12.2768 19.5341C12.3157 19.5853 12.3417 19.6481 12.3908 19.661C12.4995 19.6921 12.6782 19.6481 12.8776 19.661C13.0692 19.674 13.2297 19.7438 13.2996 19.7878C13.3256 19.775 13.3256 19.7697 13.3903 19.7827C13.4549 19.7957 13.5041 19.8008 13.4343 19.718C13.473 19.7361 13.5171 19.775 13.556 19.7361C13.5949 19.6972 13.6258 19.6404 13.7345 19.6274C13.8432 19.6144 13.8821 19.6325 13.9261 19.5187C13.9831 19.3789 13.7864 19.3789 13.7864 19.3789C13.7864 19.3789 13.877 19.296 13.978 19.1873C14.0997 19.0734 14.2395 18.9258 14.2731 18.7446C14.3301 18.4106 14.004 18.3667 14.004 18.3667L12.4221 18.8534L10.4881 18.7575L8.83891 19.5783L8.83789 19.5781Z" fill="#927D49"/>
<path fill-rule="evenodd" clip-rule="evenodd" d="M7.41768 15.0085C7.41768 15.0085 7.36648 15.0732 7.3349 15.226C7.30333 15.3787 7.31681 15.3606 7.29087 15.4693C7.26493 15.5781 6.9463 16.6602 7.06576 17.0253C7.18523 17.3904 7.39208 17.525 7.52144 17.8201C7.54738 17.8848 7.57264 17.9237 7.58613 17.9807C7.63016 18.1722 7.59142 18.3198 7.64313 18.5115C7.66122 18.5762 7.70798 18.6512 7.77778 18.7289C7.93138 18.8893 8.18175 19.0421 8.28978 19.1508C8.44236 19.3114 8.65996 19.6377 8.93695 19.6686C9.08458 19.6867 9.29433 19.6246 9.46773 19.5211C9.62133 19.4252 9.71622 19.2907 9.87733 19.2139C9.99116 19.1569 10.1128 19.1363 10.2216 19.1103C10.4468 19.0663 10.6515 19.0591 10.7732 19.0844C10.9595 19.1233 11.3997 19.258 11.6436 19.258C11.8341 19.2549 12.0236 19.2288 12.2079 19.1803C12.5781 19.0716 13.026 18.8851 13.3212 18.8023C13.4946 18.7511 13.6344 18.7376 13.7769 18.7065C14.0203 18.6495 14.2247 18.5719 14.3413 18.4243C14.2636 18.3336 14.1679 18.1939 13.6499 18.199C13.0623 18.2119 12.3839 18.5381 12.0499 18.59C11.7159 18.6419 11.571 18.6857 11.1981 18.5511C10.8325 18.415 10.8204 18.3251 10.8204 18.3251C10.8204 18.3251 10.4366 18.0566 10.276 17.3723C10.1154 16.6879 10.276 16.1892 10.6929 15.7153C10.8017 15.5936 10.7757 15.4849 10.7757 15.4849C10.7757 15.4849 11.0501 15.1147 10.9751 14.7681C10.8923 14.4237 10.3615 14.4936 10.3615 14.4936L7.41785 15.0085H7.41768Z" fill="#6E6342"/>
<path fill-rule="evenodd" clip-rule="evenodd" d="M7.85954 16.1606C7.83672 16.2036 7.82598 16.2519 7.82848 16.3004C7.8336 16.3702 7.85442 16.4608 8.064 16.6655C8.24269 16.844 8.20378 17.0433 8.20378 17.0433C8.20378 17.0433 8.29372 17.0614 8.53777 16.9472C8.72943 16.8566 8.79377 17.0172 8.79377 17.0172C8.84956 16.988 8.91003 16.9687 8.97246 16.9602C9.02902 16.955 9.08376 16.9375 9.13289 16.909C9.13289 16.909 9.35817 17.1394 9.55494 17.2481C9.73363 17.344 9.83723 17.4087 9.92529 17.344C10.0081 17.287 10.0081 17.1705 10.0028 17.1188C9.98224 17.071 9.95623 17.0259 9.92529 16.9841C9.86829 16.9013 9.77766 16.8054 9.77169 16.7281C9.75872 16.5496 9.90635 16.3371 9.87511 16.2854C9.84388 16.2337 9.72766 16.2207 9.44026 16.3243C9.14261 16.4226 7.85835 16.1612 7.85835 16.1612L7.85954 16.1606Z" fill="#39331F"/>
<path fill-rule="evenodd" clip-rule="evenodd" d="M8.53838 17.3178C8.53838 17.3178 8.39093 17.178 8.44264 16.4996C8.50524 16.4987 8.56775 16.5048 8.62901 16.5177C8.62901 16.5177 8.70939 17.0433 8.53838 17.3178Z" fill="#292311"/>
<path fill-rule="evenodd" clip-rule="evenodd" d="M7.48769 14.4907C7.50827 14.4755 7.52735 14.4583 7.5447 14.4395C7.4935 14.5352 7.25712 14.9184 7.44878 15.5217C7.64044 16.1223 8.12189 16.5701 8.71479 16.5909C9.30768 16.6117 9.61932 16.3216 9.97567 15.8868C10.1154 15.7134 10.276 15.4958 10.4184 15.3483C10.6307 15.1177 10.7964 15.053 10.7964 14.8305C10.7964 14.3748 10.3303 14.1702 9.64424 13.9657C8.95816 13.7613 8.33932 13.7865 8.0183 13.9265C7.70512 14.079 7.57047 14.2396 7.48752 14.4909L7.48769 14.4907Z" fill="#252211"/>
<path fill-rule="evenodd" clip-rule="evenodd" d="M9.68996 17.5223L9.74116 17.4963C9.74116 17.4963 9.75396 17.2915 9.83691 17.297C9.91968 17.31 9.95859 17.4188 9.95074 17.4576C9.94562 17.4963 9.92497 17.5612 9.84203 17.5533C9.73331 17.5559 9.68945 17.5223 9.68945 17.5223H9.68996Z" fill="#3F3824"/>
<path fill-rule="evenodd" clip-rule="evenodd" d="M9.46094 16.6524C9.46094 16.6524 9.51214 16.6343 9.57477 16.6964C9.62597 16.6964 9.8492 16.6704 9.91918 16.7145C9.98915 16.7585 10.0098 16.7972 10.0098 16.7972C10.0098 16.7972 9.74834 16.8543 9.60583 16.7972C9.46094 16.7481 9.46094 16.6524 9.46094 16.6524Z" fill="#2D2815"/>
<path fill-rule="evenodd" clip-rule="evenodd" d="M10.6124 16.6913C10.6124 16.6783 10.4726 16.5826 10.325 16.5513C10.299 16.5462 10.2937 16.5643 10.2738 16.5643C10.2608 16.5592 10.2557 16.5203 10.2557 16.5203L10.1717 16.5645C10.1717 16.5645 10.1587 16.5826 10.2028 16.6157C10.2415 16.6467 10.3064 16.6727 10.3245 16.7244C10.3425 16.7761 10.3425 16.7942 10.3504 16.802C10.3555 16.8072 10.4461 16.802 10.4902 16.7761C10.5342 16.7502 10.6171 16.7078 10.6119 16.6908L10.6124 16.6913Z" fill="#82764F"/>
<path fill-rule="evenodd" clip-rule="evenodd" d="M9.30469 17.2168C9.30469 17.2168 9.33046 17.0383 9.50403 17.0305C9.68254 17.0175 9.71634 17.1909 9.71634 17.1909L9.61274 17.2945C9.61274 17.2919 9.53509 17.1832 9.30554 17.2168H9.30469Z" fill="#2D2816"/>
<path fill-rule="evenodd" clip-rule="evenodd" d="M10.4317 16.4479C10.4317 16.4479 10.3357 16.5515 10.1236 16.5825C10.1055 16.5566 10.0666 16.5049 10.1236 16.4221C10.1806 16.3393 10.2453 16.3134 10.31 16.3391C10.3385 16.3438 10.3651 16.3565 10.3867 16.3757C10.4083 16.395 10.4239 16.42 10.4317 16.4479Z" fill="#574F35"/>
<path fill-rule="evenodd" clip-rule="evenodd" d="M10.8212 16.5748C10.8265 16.5489 10.8084 16.5437 10.8212 16.5308C10.834 16.5178 10.9041 16.492 10.9171 16.5048C10.9222 16.5101 10.9171 16.5308 10.9171 16.556C10.9171 16.5813 10.9171 16.6072 10.9041 16.6258C10.8861 16.6518 10.8343 16.6648 10.8084 16.6571C10.7825 16.6494 10.7773 16.613 10.7773 16.6059C10.7901 16.6008 10.8212 16.5878 10.8212 16.5748ZM11.2632 16.2953C11.2632 16.2823 11.3073 16.2563 11.3332 16.2563C11.3719 16.2563 11.3719 16.2874 11.3772 16.2953C11.39 16.3004 11.39 16.29 11.403 16.3133C11.416 16.3367 11.4342 16.378 11.4211 16.404C11.408 16.4299 11.3564 16.4478 11.3436 16.4427C11.3255 16.4297 11.2685 16.3133 11.2632 16.2953Z" fill="#82764F"/>
<path fill-rule="evenodd" clip-rule="evenodd" d="M10.375 16.6344C10.375 16.6344 10.432 16.6472 10.5097 16.7121C10.4837 16.7302 10.4448 16.7508 10.4448 16.7508C10.4448 16.7508 10.4397 16.6913 10.375 16.6343V16.6344Z" fill="#6E6342"/>
<path fill-rule="evenodd" clip-rule="evenodd" d="M10.2481 16.0647C10.2352 16.0519 10.2869 16.0208 10.3179 16.0259C10.349 16.0311 10.362 16.0519 10.3956 16.057C10.4292 16.0621 10.4345 16.044 10.4468 16.0311C10.4591 16.0181 10.5038 16.0259 10.5115 16.0311C10.5163 16.0367 10.5206 16.0428 10.5244 16.0492C10.525 16.0393 10.5276 16.0297 10.532 16.0209C10.5364 16.0121 10.5426 16.0043 10.5502 15.998C10.5602 15.9907 10.5716 15.9857 10.5837 15.9835C10.5958 15.9812 10.6083 15.9817 10.6202 15.985C10.6253 16.0031 10.6513 16.0678 10.6461 16.0807C10.641 16.0937 10.5634 16.112 10.5502 16.0988C10.5632 16.13 10.6202 16.1947 10.6279 16.2075C10.6356 16.2203 10.5709 16.2516 10.5451 16.2464C10.5089 16.2439 10.2862 16.1143 10.2475 16.0652L10.2481 16.0647ZM10.5873 15.6349C10.5825 15.6219 10.5733 15.6109 10.5613 15.6039C10.5432 15.5988 10.4837 15.6039 10.4837 15.6349C10.4837 15.666 10.5349 15.8397 10.5924 15.9302C10.6572 16.0208 10.7011 16.0957 10.7451 16.1166C10.7589 16.1229 10.7746 16.1237 10.7891 16.1189C10.8035 16.1141 10.8155 16.104 10.8228 16.0906C10.8279 16.0777 10.8409 15.9819 10.8357 15.7566C10.8306 15.5313 10.8228 15.3139 10.8098 15.3009C10.7968 15.288 10.7451 15.2881 10.727 15.3139C10.7089 15.3397 10.5924 15.5962 10.5871 15.6349H10.5873Z" fill="#585136"/>
<path fill-rule="evenodd" clip-rule="evenodd" d="M10.356 16.9604C10.356 16.9604 10.2654 16.9034 10.1773 16.9423C10.0946 16.9812 10.0997 17.134 10.0997 17.134C10.1183 17.1413 10.1384 17.1439 10.1583 17.1416C10.1782 17.1394 10.1972 17.1323 10.2137 17.121C10.2707 17.0823 10.343 17.0176 10.356 16.9606V16.9604Z" fill="#574F35"/>
<path fill-rule="evenodd" clip-rule="evenodd" d="M10.5278 17.1651C10.5226 17.1139 10.4766 17.1139 10.4766 17.0875C10.4797 17.0748 10.4871 17.0636 10.4974 17.0556C10.5077 17.0476 10.5204 17.0433 10.5334 17.0434C10.5593 17.0434 10.5846 17.0745 10.6163 17.0946C10.6474 17.1127 10.694 17.1458 10.6991 17.1853C10.7042 17.2247 10.6479 17.3327 10.5853 17.3327C10.5226 17.3327 10.5412 17.2161 10.5283 17.1644L10.5278 17.1651ZM11.0275 17.0951C11.0275 17.0951 10.9239 17.1262 10.9316 17.0951C10.9392 17.0641 10.9628 17.0564 10.9964 17.0564C11.0135 17.0385 11.0365 17.0274 11.0611 17.0252C11.0752 17.0245 11.089 17.0291 11.0998 17.0381C11.0998 17.0381 11.1698 17.0071 11.1905 17.0252C11.2111 17.0433 11.1958 17.0433 11.2086 17.0641C11.2249 17.0872 11.2355 17.1138 11.2398 17.1417C11.2398 17.1624 11.1621 17.2064 11.0998 17.1987C11.0275 17.1832 11.0403 17.1081 11.0275 17.0951ZM11.6306 16.9786C11.6306 16.9786 11.6617 16.9967 11.6359 17.0175C11.6178 17.0356 11.5272 17.0687 11.4494 17.0745C11.3717 17.0745 11.3019 17.0873 11.3019 17.0615C11.3019 17.0357 11.3666 16.9839 11.4053 16.9709C11.4131 16.9612 11.423 16.9533 11.4342 16.9479C11.4454 16.9426 11.4577 16.9398 11.4702 16.9398C11.5012 16.9398 11.6228 16.9269 11.6566 16.9217C11.6876 16.9165 11.7136 16.9345 11.6953 16.9605C11.6876 16.9786 11.6306 16.9786 11.6306 16.9786ZM11.8093 16.1792C11.8093 16.1792 11.7704 16.2619 11.7265 16.2619C11.6825 16.2568 11.6825 16.2439 11.6825 16.2309C11.6825 16.2128 11.7265 16.1662 11.7212 16.1532C11.7084 16.1532 11.6772 16.1532 11.6825 16.1222C11.6825 16.0962 11.7265 16.0652 11.7653 16.071C11.7945 16.0469 11.831 16.0333 11.8689 16.0322C11.9129 16.0322 11.9516 16.045 11.9516 16.071C11.9516 16.0969 11.9004 16.1537 11.8817 16.1669C11.861 16.1875 11.8351 16.201 11.8093 16.1797V16.1792ZM11.219 17.7092C11.219 17.7092 11.1678 17.7145 11.1678 17.7403C11.1678 17.7532 11.1806 17.7532 11.1988 17.7455C11.2093 17.745 11.2198 17.7432 11.2299 17.7403C11.235 17.7455 11.235 17.7713 11.2739 17.7713C11.3059 17.767 11.3367 17.7565 11.3645 17.7403C11.3956 17.7275 11.4215 17.7143 11.4215 17.6891C11.4086 17.645 11.3826 17.6242 11.3439 17.6242C11.324 17.6229 11.3042 17.6275 11.2869 17.6372C11.2869 17.6372 11.2739 17.6112 11.2299 17.6372C11.1859 17.6631 11.191 17.6631 11.2039 17.6761C11.2272 17.6967 11.2195 17.7102 11.2195 17.7102L11.219 17.7092ZM10.9264 17.9785C10.9264 17.9655 10.9911 17.9396 11.0092 17.9474C11.0273 17.9526 11.079 18.0509 11.079 18.0613C11.079 18.0743 11.0143 18.1053 10.9884 18.1053C10.9625 18.1053 10.9186 18.0613 10.9186 18.0541C10.9186 18.049 10.9497 18.0413 10.9497 18.036C10.9573 18.0232 10.9264 17.992 10.9264 17.979V17.9785ZM10.7216 17.6005C10.7346 17.5954 10.7346 17.5824 10.7527 17.5694C10.7584 17.5657 10.7648 17.5632 10.7716 17.5623C10.7783 17.5615 10.7852 17.5621 10.7916 17.5643C10.7962 17.5562 10.8025 17.5491 10.8101 17.5437C10.8177 17.5383 10.8264 17.5347 10.8356 17.5331C10.8667 17.5279 10.8926 17.5331 10.8868 17.546C10.8868 17.585 10.9128 17.6107 10.9128 17.6418C10.9128 17.6728 10.8947 17.7118 10.83 17.7377C10.7653 17.7558 10.6773 17.7558 10.6643 17.7507C10.6513 17.7455 10.6384 17.6937 10.6513 17.6677C10.6643 17.6418 10.7005 17.6135 10.7213 17.6005H10.7216Z" fill="#82764F"/>
<path fill-rule="evenodd" clip-rule="evenodd" d="M10.8031 17.6182C10.8031 17.6182 10.7591 17.6441 10.7591 17.6571C10.7552 17.6696 10.7535 17.6827 10.754 17.6958C10.754 17.7035 10.811 17.6907 10.8187 17.6828C10.8212 17.6777 10.8031 17.6316 10.8031 17.6182Z" fill="#6E6342"/>
<path fill-rule="evenodd" clip-rule="evenodd" d="M10.419 17.4964C10.4447 17.5017 10.4888 17.4964 10.5224 17.5094C10.5483 17.5224 10.5664 17.5483 10.5405 17.5794C10.5145 17.6105 10.4893 17.657 10.4318 17.6492C10.3671 17.6441 10.305 17.6105 10.305 17.5845C10.3039 17.5681 10.3061 17.5516 10.3114 17.5361C10.3167 17.5205 10.3251 17.5062 10.336 17.4939C10.362 17.4732 10.3748 17.4862 10.4188 17.4964H10.419Z" fill="#585136"/>
<path fill-rule="evenodd" clip-rule="evenodd" d="M10.3865 17.5225C10.3865 17.5225 10.3038 17.5871 10.2829 17.6184C10.257 17.6494 10.1302 17.8099 10.0915 17.8435C10.1043 17.8208 10.119 17.7992 10.1353 17.7788C10.0841 17.8115 10.0457 17.8609 10.0266 17.9186C9.99554 18.0145 10.2002 18.0662 10.3347 18.1051C10.4691 18.144 10.5212 18.1563 10.5212 18.1563C10.4717 18.0819 10.4292 18.0031 10.3942 17.9208C10.343 17.7991 10.3166 17.7861 10.3502 17.7291C10.3761 17.6721 10.415 17.6334 10.415 17.5894C10.3995 17.5484 10.3865 17.5225 10.3865 17.5225Z" fill="#574F35"/>
<path fill-rule="evenodd" clip-rule="evenodd" d="M7.43589 17.7271C7.45473 17.7306 7.47405 17.7306 7.49289 17.7271C7.53163 17.7218 7.9356 17.5735 8.35766 17.6001C8.67362 17.6192 8.98678 17.6707 9.29223 17.7537C9.823 17.8935 10.4831 18.1705 10.9103 18.3285C11.0242 18.3724 11.1356 18.4502 11.2175 18.4811C11.5438 18.6081 11.5566 18.6081 11.7483 18.6417C11.9736 18.6728 12.204 18.5977 12.4448 18.546C12.7399 18.4811 13.2447 18.45 13.6874 18.3854C13.8306 18.3655 13.9718 18.3335 14.1095 18.2896C14.1095 18.2896 13.7574 18.6417 12.9133 18.7685C12.5721 18.8203 12.2253 18.8247 11.8829 18.7815C11.6136 18.7555 11.4351 18.7166 11.3005 18.6779C11.1477 18.6338 10.8344 18.5173 10.4487 18.4219C10.1794 18.3519 9.87898 18.3002 9.53475 18.2355C8.68551 18.08 7.76391 17.9015 7.43555 17.7281L7.43589 17.7271Z" fill="#252211"/>
<path fill-rule="evenodd" clip-rule="evenodd" d="M6.48311 16.127C6.27831 16.3004 6.06105 16.4661 5.84891 16.6265L5.20942 17.1178C4.99199 17.2783 4.77968 17.444 4.56208 17.6046C4.34448 17.7652 4.12723 17.9178 3.89648 18.0654C4.10128 17.892 4.31854 17.7314 4.53597 17.5735C4.7534 17.4157 4.97885 17.2609 5.1886 17.1008L5.82809 16.6087C6.04808 16.4483 6.26039 16.2826 6.48311 16.1273V16.127ZM5.35176 17.9393C5.35176 17.9393 5.58216 17.7476 5.86956 17.4785C6.22677 17.1446 6.66436 16.7173 6.80413 16.6398L5.35159 17.9394L5.35176 17.9393Z" fill="#CFB66C"/>
<path fill-rule="evenodd" clip-rule="evenodd" d="M5.35156 17.9392C5.46557 17.8254 5.58725 17.7141 5.70894 17.6052L5.89531 17.4448C5.95231 17.3936 6.01716 17.3361 6.07399 17.2791C6.18783 17.1652 6.29927 17.0434 6.41311 16.927C6.46953 16.8684 6.52919 16.8131 6.5918 16.7613C6.6231 16.7336 6.65786 16.71 6.69522 16.6913C6.72645 16.6732 6.76007 16.6401 6.80394 16.6343C6.77817 16.6732 6.7471 16.6913 6.72116 16.7249C6.6901 16.7508 6.66416 16.7819 6.63839 16.8077C6.58139 16.8647 6.5167 16.9164 6.4597 16.9683C6.33802 17.0719 6.21121 17.1731 6.08952 17.2814C5.96784 17.3898 5.854 17.5067 5.73215 17.6154C5.60022 17.7269 5.47854 17.8356 5.35156 17.9397V17.9392ZM6.89985 16.9036C6.89985 16.9036 6.0559 17.7296 5.88234 17.8641L6.89985 16.9036Z" fill="#CFB66C"/>
<path fill-rule="evenodd" clip-rule="evenodd" d="M6.90033 16.9036C6.82441 16.9914 6.74301 17.0744 6.65662 17.1521L6.40062 17.3954C6.31784 17.4782 6.24002 17.5611 6.15212 17.6439C6.0615 17.7216 5.97873 17.7975 5.88281 17.8692L6.1313 17.6258C6.21425 17.5431 6.30487 17.4733 6.39293 17.3903L6.64143 17.1469C6.72676 17.0616 6.8097 16.9787 6.90033 16.9036ZM6.93907 17.3514C6.86128 17.5685 6.76961 17.7804 6.66464 17.9858C6.44721 18.4208 6.12106 18.9644 5.97856 19.2415L6.93907 17.3514Z" fill="#CFB66C"/>
<path fill-rule="evenodd" clip-rule="evenodd" d="M6.93842 17.3516C6.93842 17.4473 6.91248 17.5303 6.88142 17.613C6.85114 17.6959 6.81662 17.7771 6.77799 17.8564C6.73908 17.934 6.69505 18.017 6.65102 18.0921C6.60699 18.1672 6.55527 18.2447 6.51636 18.3225L6.2549 18.7833C6.16428 18.9369 6.07621 19.0913 5.98047 19.239C6.04515 19.0732 6.13322 18.9179 6.21616 18.7652C6.30678 18.6116 6.38956 18.458 6.47216 18.2991C6.51249 18.2199 6.54877 18.1388 6.58087 18.0559C6.61962 17.973 6.65836 17.8953 6.68959 17.8202C6.72833 17.7374 6.75939 17.6596 6.7983 17.5847C6.84216 17.5043 6.87852 17.4267 6.93808 17.3516H6.93842Z" fill="#CFB66C"/>
<path fill-rule="evenodd" clip-rule="evenodd" d="M7.86111 19.4744C7.86111 19.4744 7.60511 19.8135 7.63071 20.2432C7.70051 20.0181 7.78857 19.6737 7.86111 19.4744ZM8.10448 19.8143C8.10448 19.8143 8.01385 20.7359 7.93876 21.1891C8.04491 20.6653 8.06556 20.7093 8.10448 19.8143ZM9.80022 21.2435C9.80022 21.2435 9.41707 22.3699 9.40922 22.6829C9.49217 22.361 9.65259 21.7034 9.80022 21.2426V21.2435Z" fill="#DEC270"/>
<path fill-rule="evenodd" clip-rule="evenodd" d="M10.6953 19.4048C10.6953 19.4048 11.3167 20.43 11.7828 21.305C11.6567 20.8647 11.3665 20.0571 10.6953 19.4048Z" fill="#CBAF59"/>
<path fill-rule="evenodd" clip-rule="evenodd" d="M12.3652 20.9141C12.7064 21.5171 13.0141 22.1386 13.2868 22.7755C13.2351 22.3354 13.0952 21.5821 12.3652 20.9141Z" fill="#E3C677"/>
<path fill-rule="evenodd" clip-rule="evenodd" d="M17.2737 22.4256C17.3771 22.361 17.5817 22.0087 17.7604 21.9208C17.9389 21.8302 18.0736 21.8121 18.2342 21.6334C18.3946 21.4469 18.439 21.333 18.7907 21.1856C19.2827 20.9731 18.9443 20.6987 18.9443 20.6987C18.9985 20.6454 19.0565 20.5962 19.1177 20.5512C19.2447 20.4555 19.3921 20.3389 19.3793 20.1343C19.3613 19.79 19.2966 19.2903 19.0143 19.0004C19.2887 18.9434 19.8142 18.9046 20.1407 18.8218C20.5185 18.7259 20.6921 18.5913 20.6921 18.5913C20.6921 18.5913 20.4747 18.2211 20.8268 17.8484C21.1789 17.4756 21.4663 17.2529 21.6786 16.836C21.4352 16.8049 21.0642 16.6755 20.1173 17.0353C20.1684 17.0594 20.2178 17.087 20.2649 17.1181C20.2649 17.1181 19.6824 17.2787 19.4701 17.4574C19.0998 17.7705 19.0532 18.0269 18.652 18.2185C18.2507 18.4102 17.8468 18.3583 17.5129 18.5136C17.1791 18.6689 17.1298 18.801 17.0079 18.858C17.0339 18.8891 17.0028 18.9408 17.052 18.9848C17.0209 19.0289 16.8397 19.3239 16.6558 19.3239C16.6739 19.3939 16.8292 19.4456 16.8292 19.4456C16.8292 19.4456 16.7154 19.5286 16.4254 19.5492C16.5729 19.7028 16.7128 19.8702 17.0986 20.1136C17.0675 20.1783 16.938 20.2742 16.9898 20.3959C17.0468 20.5176 17.1946 20.6833 17.7846 20.818C17.4843 20.8308 17.1323 20.9007 16.6582 20.8361C16.1845 20.779 16.1068 20.7454 15.8143 20.818C15.8453 20.849 15.9281 20.849 16.0007 20.9318C15.923 20.9369 15.4363 20.8748 15.2705 21.0924C15.0971 21.3175 15.0221 21.6878 15.035 21.9363C14.9444 21.9804 14.8563 22.058 14.9004 22.2186C14.9444 22.3792 15.1748 22.4309 15.3224 22.5318C15.4699 22.6405 15.4829 22.6793 15.6228 22.6535C15.7703 22.6224 15.9877 22.475 16.1147 22.475C16.2416 22.475 16.3321 22.5707 16.3321 22.5707C16.3321 22.5707 16.6765 22.405 16.7101 22.4361C16.7412 22.4671 16.7152 22.6665 16.7489 22.6975C16.783 22.7209 17.1709 22.4905 17.2745 22.4256H17.2737Z" fill="#ECD592"/>
<path fill-rule="evenodd" clip-rule="evenodd" d="M24.8002 12.0648C23.1821 7.8862 19.182 7.11206 19.182 7.11206H7.7697L7.81373 11.3683H10.0865V20.8726H7.76953V25.1211H18.8661C21.5405 25.1211 23.6842 22.4337 23.6842 22.4337C27.1172 17.5613 24.8 12.0648 24.8 12.0648H24.8002ZM18.9257 19.5702C18.9257 19.5702 18.0553 20.826 17.1082 20.826H15.2138L15.169 11.3787H17.6001C17.6001 11.3787 18.7265 11.6142 19.5134 13.8433C19.5134 13.8433 20.5567 17.0348 18.9257 19.5702Z" fill="white" fill-opacity="0.8"/>
</g>
<defs>
<clipPath id="clip0_2335_9244">
<rect width="32" height="32" rx="16" fill="white"/>
</clipPath>
</defs>
</svg>
