<svg width="14" height="21" viewBox="0 0 16 16" fill="currentColor" xmlns="http://www.w3.org/2000/svg">
  <path d="M13.2115 1.9254C8.98169 2.49365 6.5222 4.65425 5.07285 7.16716C4.09031 8.87071 3.56469 10.7519 3.29542 12.4395C3.48013 12.1434 3.67039 11.8669 3.86747 11.6132C4.54894 10.7356 5.35699 10.0714 6.35729 9.8491C6.53174 9.81033 6.70403 9.77269 6.87409 9.73553C9.23493 9.21967 11.1662 8.79768 12.4793 6.77543L11.029 6.12287C10.4692 5.87096 10.4361 5.12757 10.9023 4.79732C12.125 3.93107 12.8369 2.74276 13.2115 1.9254ZM13.9742 0.537759C14.4488 0.500404 14.9422 0.947268 14.7625 1.519C14.5922 2.0606 13.9414 3.85655 12.3556 5.29422L13.6571 5.87986C14.0159 6.04132 14.1408 6.46249 13.9732 6.7868C12.3754 9.87966 9.72443 10.4514 7.21436 10.9929C7.02166 11.0344 6.8298 11.0758 6.6393 11.1181C6.04798 11.2495 5.47649 11.6607 4.89421 12.4105C4.31141 13.161 3.76284 14.1929 3.20553 15.4576C3.04473 15.8225 2.67138 15.9624 2.35904 15.9018C2.03891 15.8398 1.73409 15.5547 1.74517 15.1358C1.80365 12.9259 2.22339 9.50562 3.94673 6.51765C5.69238 3.49102 8.75637 0.948472 13.9742 0.537759Z"/>
</svg>
