<svg width="144" height="56" viewBox="0 0 144 56" fill="none" xmlns="http://www.w3.org/2000/svg">
<g clip-path="url(#clip0_1462_11635)">
<circle cx="24" cy="28" r="18" fill="url(#paint0_linear_1462_11635)"/>
<path d="M24 10C33.964 10 42 18.036 42 28C42 37.964 33.964 46 24 46" stroke="#4B5868" stroke-linecap="round" stroke-linejoin="round"/>
<path d="M24 46C14.036 46 6 37.964 6 28C6 18.036 14.036 10 24 10" stroke="#4B5868" stroke-linecap="round" stroke-linejoin="round"/>
<path d="M20.336 12.12C14.556 21.77 14.556 34.232 20.336 43.882C22.028 46.708 25.974 46.708 27.666 43.882C33.446 34.232 33.446 21.77 27.666 12.12C25.972 9.29399 22.028 9.29399 20.336 12.12Z" stroke="#4B5868" stroke-linecap="round" stroke-linejoin="round"/>
<path d="M8.01953 19.7158C17.8035 22.7378 30.1955 22.7378 39.9775 19.7158" stroke="#4B5868" stroke-linecap="round" stroke-linejoin="round"/>
<path d="M39.9805 36.2841C30.1965 33.2621 17.8045 33.2621 8.02246 36.2841" stroke="#4B5868" stroke-linecap="round" stroke-linejoin="round"/>
</g>
<g clip-path="url(#clip1_1462_11635)">
<path opacity="0.92" d="M101.767 37.9331C101.922 37.8283 102.131 37.8683 102.236 38.023C102.34 38.1777 102.3 38.3862 102.145 38.4911C101.99 38.5959 101.781 38.5559 101.677 38.4012C101.572 38.2465 101.612 38.038 101.767 37.9331Z" fill="white"/>
<path opacity="0.47" d="M98.4695 41.0196C98.6245 40.9147 98.8331 40.9547 98.9377 41.1094C99.0424 41.2641 99.0019 41.4726 98.8469 41.5775C98.6919 41.6823 98.4833 41.6423 98.3787 41.4876C98.274 41.333 98.3145 41.1244 98.4695 41.0196Z" fill="white"/>
<path opacity="0.92" d="M98.8696 36.3923L99.0497 36.937C99.1064 37.1108 99.2431 37.2478 99.4165 37.3046L99.9601 37.485C100.023 37.5051 100.023 37.5953 99.9601 37.6153L99.4165 37.7958C99.2431 37.8526 99.1064 37.9896 99.0497 38.1633L98.8696 38.708C98.8496 38.7715 98.7596 38.7715 98.7395 38.708L98.5595 38.1633C98.5028 37.9896 98.3661 37.8526 98.1926 37.7958L97.6491 37.6153C97.5857 37.5953 97.5857 37.5051 97.6491 37.485L98.1926 37.3046C98.3661 37.2478 98.5028 37.1108 98.5595 36.937L98.7395 36.3923C98.7596 36.3289 98.8496 36.3289 98.8696 36.3923Z" fill="white"/>
<path opacity="0.92" d="M100.901 42.1631L101.399 41.9997C101.559 41.9463 101.683 41.823 101.736 41.6629L101.9 41.166C101.92 41.1093 102 41.1093 102.02 41.166L102.184 41.6629C102.238 41.823 102.361 41.9463 102.522 41.9997L103.02 42.1631C103.076 42.1831 103.076 42.2665 103.02 42.2832L102.522 42.4466C102.361 42.4999 102.238 42.6233 102.184 42.7834L102.02 43.2802C102 43.3369 101.92 43.3369 101.9 43.2802L101.736 42.7834C101.683 42.6233 101.559 42.4999 101.399 42.4466L100.901 42.2832C100.844 42.2631 100.844 42.1831 100.901 42.1631Z" fill="white"/>
<path fill-rule="evenodd" clip-rule="evenodd" d="M130 46.6668H102C98.1337 46.6668 95 43.5332 95 39.6668V14.0002C95 11.4218 97.0883 9.3335 99.6667 9.3335H132.333C134.912 9.3335 137 11.4218 137 14.0002V39.6668C137 43.5332 133.866 46.6668 130 46.6668Z" fill="url(#paint1_linear_1462_11635)"/>
<path d="M134.375 23.5H127.229C126.147 23.5 125.108 23.9748 124.342 24.8185L122.652 26.6815C121.886 27.5252 120.847 28 119.765 28H112.559C111.477 28 110.437 27.5252 109.672 26.6815L107.979 24.8185C107.214 23.9748 106.174 23.5 105.092 23.5H97.625V16.1875C97.625 14.5 98.85 12.25 101.708 12.25H130.292C131.653 12.25 134.375 13.15 134.375 16.75V23.5Z" fill="url(#paint2_linear_1462_11635)"/>
<g clip-path="url(#clip2_1462_11635)">
<circle cx="116" cy="14" r="10.5" fill="url(#paint3_linear_1462_11635)"/>
<path d="M114.684 9.53038C114.813 9.29417 115.003 9.09707 115.235 8.95976C115.467 8.82245 115.731 8.75 116 8.75C116.269 8.75 116.533 8.82245 116.765 8.95976C116.997 9.09707 117.187 9.29417 117.316 9.53038L118.22 11.1835C118.358 11.4352 118.565 11.6422 118.816 11.7799L120.47 12.6839C120.706 12.8131 120.903 13.0034 121.04 13.235C121.178 13.4665 121.25 13.7308 121.25 14C121.25 14.2692 121.178 14.5335 121.04 14.765C120.903 14.9966 120.706 15.1869 120.47 15.3161L118.816 16.2201C118.565 16.3578 118.358 16.5648 118.22 16.8165L117.316 18.4696C117.187 18.7058 116.997 18.9029 116.765 19.0402C116.533 19.1775 116.269 19.25 116 19.25C115.731 19.25 115.467 19.1775 115.235 19.0402C115.003 18.9029 114.813 18.7058 114.684 18.4696L113.78 16.8165C113.642 16.5648 113.435 16.3578 113.184 16.2201L111.53 15.3161C111.294 15.1869 111.097 14.9966 110.96 14.765C110.822 14.5335 110.75 14.2692 110.75 14C110.75 13.7308 110.822 13.4665 110.96 13.235C111.097 13.0034 111.294 12.8131 111.53 12.6839L113.184 11.7799C113.435 11.6422 113.642 11.4352 113.78 11.1835L114.684 9.53038Z" stroke="white" stroke-width="1.5" stroke-linecap="round" stroke-linejoin="round"/>
</g>
</g>
<path d="M49.5 27.4C49.1686 27.4 48.9 27.6686 48.9 28C48.9 28.3314 49.1686 28.6 49.5 28.6V27.4ZM90.5 28L84.5 24.5359V31.4641L90.5 28ZM50.4762 28.6C50.8076 28.6 51.0762 28.3314 51.0762 28C51.0762 27.6686 50.8076 27.4 50.4762 27.4V28.6ZM54.381 27.4C54.0496 27.4 53.781 27.6686 53.781 28C53.781 28.3314 54.0496 28.6 54.381 28.6V27.4ZM56.3333 28.6C56.6647 28.6 56.9333 28.3314 56.9333 28C56.9333 27.6686 56.6647 27.4 56.3333 27.4V28.6ZM60.2381 27.4C59.9067 27.4 59.6381 27.6686 59.6381 28C59.6381 28.3314 59.9067 28.6 60.2381 28.6V27.4ZM62.1905 28.6C62.5218 28.6 62.7905 28.3314 62.7905 28C62.7905 27.6686 62.5218 27.4 62.1905 27.4V28.6ZM66.0952 27.4C65.7639 27.4 65.4952 27.6686 65.4952 28C65.4952 28.3314 65.7639 28.6 66.0952 28.6V27.4ZM68.0476 28.6C68.379 28.6 68.6476 28.3314 68.6476 28C68.6476 27.6686 68.379 27.4 68.0476 27.4V28.6ZM71.9524 27.4C71.621 27.4 71.3524 27.6686 71.3524 28C71.3524 28.3314 71.621 28.6 71.9524 28.6V27.4ZM73.9048 28.6C74.2361 28.6 74.5048 28.3314 74.5048 28C74.5048 27.6686 74.2361 27.4 73.9048 27.4V28.6ZM77.8095 27.4C77.4782 27.4 77.2095 27.6686 77.2095 28C77.2095 28.3314 77.4782 28.6 77.8095 28.6V27.4ZM79.7619 28.6C80.0933 28.6 80.3619 28.3314 80.3619 28C80.3619 27.6686 80.0933 27.4 79.7619 27.4V28.6ZM83.6667 27.4C83.3353 27.4 83.0667 27.6686 83.0667 28C83.0667 28.3314 83.3353 28.6 83.6667 28.6V27.4ZM85.619 28.6C85.9504 28.6 86.219 28.3314 86.219 28C86.219 27.6686 85.9504 27.4 85.619 27.4V28.6ZM89.5238 27.4C89.1924 27.4 88.9238 27.6686 88.9238 28C88.9238 28.3314 89.1924 28.6 89.5238 28.6V27.4ZM49.5 28.6H50.4762V27.4H49.5V28.6ZM54.381 28.6H56.3333V27.4H54.381V28.6ZM60.2381 28.6H62.1905V27.4H60.2381V28.6ZM66.0952 28.6H68.0476V27.4H66.0952V28.6ZM71.9524 28.6H73.9048V27.4H71.9524V28.6ZM77.8095 28.6H79.7619V27.4H77.8095V28.6ZM83.6667 28.6H85.619V27.4H83.6667V28.6Z" fill="#4B5868"/>
<g clip-path="url(#clip3_1462_11635)">
<path d="M75 20H59V36H75V20Z" fill="#1D262F"/>
<path d="M67 22C70.314 22 73 24.686 73 28C73 31.314 70.314 34 67 34" stroke="#4B5868" stroke-linecap="round" stroke-linejoin="round"/>
<path d="M64.9499 33.6327C64.2859 33.3907 63.6752 33.0401 63.1445 32.5947" stroke="#4B5868" stroke-linecap="round" stroke-linejoin="round"/>
<path d="M63.1445 23.4052C63.6752 22.9592 64.2859 22.6085 64.9499 22.3672" stroke="#4B5868" stroke-linecap="round" stroke-linejoin="round"/>
<path d="M61.0957 26.9586C61.219 26.2566 61.463 25.5973 61.807 25.002" stroke="#4B5868" stroke-linecap="round" stroke-linejoin="round"/>
<path d="M61.0957 29.0405C61.219 29.7425 61.463 30.4019 61.807 30.9972" stroke="#4B5868" stroke-linecap="round" stroke-linejoin="round"/>
<path d="M66.8115 25.3242V28.4249L69.2489 29.9109" stroke="#4B5868" stroke-linecap="round" stroke-linejoin="round"/>
</g>
<defs>
<linearGradient id="paint0_linear_1462_11635" x1="45.2559" y1="12.25" x2="-3.8947" y2="27.334" gradientUnits="userSpaceOnUse">
<stop stop-color="#4B5C68" stop-opacity="0.4"/>
<stop offset="1" stop-color="#4B5C68" stop-opacity="0.1"/>
</linearGradient>
<linearGradient id="paint1_linear_1462_11635" x1="140.799" y1="11.6668" x2="84.738" y2="31.0221" gradientUnits="userSpaceOnUse">
<stop stop-color="#4B5C68" stop-opacity="0.4"/>
<stop offset="1" stop-color="#4B5C68" stop-opacity="0.1"/>
</linearGradient>
<linearGradient id="paint2_linear_1462_11635" x1="134.375" y1="12.25" x2="97.6571" y2="26.6142" gradientUnits="userSpaceOnUse">
<stop stop-color="#4B5868"/>
<stop offset="1" stop-color="#4B5868" stop-opacity="0.2"/>
</linearGradient>
<linearGradient id="paint3_linear_1462_11635" x1="128.25" y1="3.0625" x2="104.625" y2="21" gradientUnits="userSpaceOnUse">
<stop stop-color="#1D2732"/>
<stop offset="1" stop-color="#131920"/>
</linearGradient>
<clipPath id="clip0_1462_11635">
<rect width="48" height="48" fill="white" transform="translate(0 4)"/>
</clipPath>
<clipPath id="clip1_1462_11635">
<rect width="56" height="56" fill="white" transform="translate(88)"/>
</clipPath>
<clipPath id="clip2_1462_11635">
<rect width="35" height="35" fill="white" transform="translate(98.5 -3.5)"/>
</clipPath>
<clipPath id="clip3_1462_11635">
<rect width="16" height="16" fill="white" transform="translate(59 20)"/>
</clipPath>
</defs>
</svg>
