
<svg width="24" height="24" viewBox="0 0 24 24" fill="none" xmlns="http://www.w3.org/2000/svg">
<g id="Telegram 1" clip-path="url(#clip0_6332_65280)">
<g id="OBJECTS">
<g id="Group" style="mix-blend-mode:multiply">
<path id="Vector" d="M13.805 22.1949C19.4355 21.198 23.1919 15.8254 22.195 10.1949C21.1981 4.56433 15.8256 0.807998 10.195 1.80487C4.56446 2.80174 0.808124 8.17432 1.80499 13.8049C2.80187 19.4354 8.17445 23.1918 13.805 22.1949Z" fill="#B8B8B8"/>
</g>
<path id="Vector_2" d="M11.9999 22.3827C17.7271 22.3827 22.37 17.7398 22.37 12.0126C22.37 6.2854 17.7271 1.64258 11.9999 1.64258C6.27271 1.64258 1.62988 6.2854 1.62988 12.0126C1.62988 17.7398 6.27271 22.3827 11.9999 22.3827Z" fill="url(#paint0_linear_6332_65280)"/>
<path id="Vector_3" d="M8.10132 13.3862L9.21194 16.783C9.23026 16.8388 9.26191 16.8892 9.30415 16.93C9.34638 16.9708 9.39793 17.0006 9.45431 17.0169C9.5107 17.0333 9.57021 17.0356 9.6277 17.0237C9.68518 17.0118 9.7389 16.9861 9.78418 16.9488L13.0986 14.2102C13.0986 14.2102 9.57451 12.8368 9.57451 12.9101C9.57451 12.9833 8.10132 13.3862 8.10132 13.3862Z" fill="#B5D1DB"/>
<path id="Vector_4" d="M16.8526 6.85366C14.6863 7.71065 7.69669 10.5756 5.04878 11.6605C4.97199 11.6922 4.9068 11.7467 4.86206 11.8167C4.81732 11.8867 4.7952 11.9687 4.7987 12.0517C4.8022 12.1347 4.83115 12.2146 4.88162 12.2806C4.93209 12.3466 5.00164 12.3954 5.08083 12.4205L8.10229 13.3828L9.20925 16.7705C9.22969 16.8334 9.26678 16.8896 9.31659 16.9331C9.36641 16.9767 9.42708 17.0059 9.49217 17.0177C9.5938 17.0369 9.74396 14.2755 9.74396 14.2755C9.74396 14.2755 12.9202 16.6313 14.4263 17.7438C14.5116 17.8068 14.6115 17.8471 14.7166 17.8611C14.8217 17.8751 14.9286 17.8623 15.0274 17.8238C15.1262 17.7853 15.2137 17.7225 15.2817 17.6411C15.3496 17.5597 15.3959 17.4624 15.4161 17.3583L17.37 7.28673C17.3837 7.21901 17.3789 7.14882 17.3561 7.08359C17.3333 7.01835 17.2933 6.9605 17.2403 6.91613C17.1873 6.87177 17.1233 6.84255 17.0551 6.83155C16.9868 6.82055 16.9169 6.82819 16.8526 6.85366Z" fill="white"/>
<path id="Vector_5" d="M9.49119 17.0159C9.59282 17.0351 9.74298 14.2736 9.74298 14.2736L14.9619 9.37246C14.9696 9.36576 14.9745 9.35637 14.9755 9.34621C14.9766 9.33605 14.9737 9.32587 14.9676 9.31773C14.9614 9.30958 14.9524 9.30408 14.9423 9.30235C14.9322 9.30061 14.9219 9.30276 14.9134 9.30836L8.10132 13.3864L9.20827 16.7741C9.22953 16.836 9.26699 16.8911 9.31675 16.9336C9.3665 16.9761 9.42674 17.0045 9.49119 17.0159Z" fill="#D6E2EA"/>
</g>
</g>
<defs>
<linearGradient id="paint0_linear_6332_65280" x1="22.5001" y1="22.2819" x2="1.50006" y2="1.28186" gradientUnits="userSpaceOnUse">
<stop stop-color="#006BB3"/>
<stop offset="1" stop-color="#1D9BF0"/>
</linearGradient>
<clipPath id="clip0_6332_65280">
<rect width="24" height="24" fill="white"/>
</clipPath>
</defs>
</svg>
