<svg width="20" height="20" viewBox="0 0 20 20" fill="none" xmlns="http://www.w3.org/2000/svg">
<g style="mix-blend-mode:multiply">
<path d="M11.5042 18.4958C16.1963 17.6651 19.3266 13.1879 18.4958 8.49582C17.6651 3.80369 13.188 0.673413 8.49584 1.50414C3.80372 2.33486 0.673436 6.81202 1.50416 11.5041C2.33489 16.1963 6.81204 19.3265 11.5042 18.4958Z" fill="#B8B8B8"/>
</g>
<path d="M9.98935 18.6975C14.762 18.6975 18.6311 14.8284 18.6311 10.0558C18.6311 5.28308 14.762 1.41406 9.98935 1.41406C5.21668 1.41406 1.34766 5.28308 1.34766 10.0558C1.34766 14.8284 5.21668 18.6975 9.98935 18.6975Z" fill="url(#paint0_linear_7885_4640)"/>
<g clip-path="url(#clip0_7885_4640)">
<path d="M12.7888 5.78906L14.2263 5.78906L11.07 9.38281L14.7575 14.2578L11.8638 14.2578L9.59814 11.2953L7.00439 14.2578L5.56689 14.2578L8.91064 10.4141L5.37939 5.78906L8.34502 5.78906L10.3919 8.49531L12.7888 5.78906ZM12.2856 13.4141L13.0825 13.4141L7.92627 6.60156L7.07002 6.60156L12.2856 13.4141Z" fill="white"/>
</g>
<defs>
<linearGradient id="paint0_linear_7885_4640" x1="18.7395" y1="18.6135" x2="1.23947" y2="1.11346" gradientUnits="userSpaceOnUse">
<stop stop-color="#141414"/>
<stop offset="1" stop-color="#353535"/>
</linearGradient>
<clipPath id="clip0_7885_4640">
<rect width="9.375" height="8.46875" fill="white" transform="translate(5.41357 5.78906)"/>
</clipPath>
</defs>
</svg>
