<svg xmlns="http://www.w3.org/2000/svg" width="21" height="19" viewBox="0 0 21 19" fill="none">
  <g clip-path="url(#clip0_1997_8576)">
    <path d="M6.00904 3.65208L1.09182 2.71253C0.385238 2.57776 -0.132667 3.36329 0.26972 3.96013L3.07103 8.11492L6.00711 3.65401L6.00904 3.65208Z" fill="url(#paint0_linear_1997_8576)"/>
    <path d="M1.09586 2.80141L5.95724 3.73133L6.00922 3.65431L1.09201 2.71284C0.533674 2.60503 0.0947064 3.0748 0.133212 3.5696C0.15054 3.10753 0.570255 2.69937 1.09586 2.80141Z" fill="url(#paint1_linear_1997_8576)"/>
    <path d="M6.00885 3.65256L3.608 3.19434C3.608 3.19434 3.05544 3.50046 2.45282 3.86627C1.78859 4.26865 1.80977 4.9117 1.80977 4.9117C1.3323 4.65756 1.03195 4.45348 0.269531 3.95868L3.07084 8.11347L6.00692 3.65256H6.00885Z" fill="url(#paint2_linear_1997_8576)"/>
    <path d="M3.76561 6.62075L0.710166 4.51447C0.427147 4.32002 0.0651913 4.61459 0.199962 4.93034L2.57578 10.506L3.76561 6.61882V6.62075Z" fill="url(#paint3_linear_1997_8576)"/>
    <path d="M0.710686 4.60374L3.74496 6.69461L3.76806 6.62145L0.710686 4.51517C0.454621 4.33997 0.138872 4.5633 0.179303 4.84247C0.208183 4.60951 0.483501 4.44586 0.710686 4.60374Z" fill="url(#paint4_linear_1997_8576)"/>
    <path d="M3.76622 6.62092L1.88521 5.3252L1.87365 7.1369L0.631836 5.94514L2.57639 10.5081L3.76622 6.62092Z" fill="url(#paint5_linear_1997_8576)"/>
    <path d="M3.60825 8.95645C3.51584 8.93912 1.94479 7.36423 0.878179 6.28413C0.639442 6.04347 0.23898 6.28991 0.348722 6.61144L2.50506 12.963L3.60633 8.95645H3.60825Z" fill="url(#paint6_linear_1997_8576)"/>
    <path d="M0.877979 6.2839C0.683523 6.08752 0.388953 6.21652 0.34082 6.4437C0.437085 6.2762 0.679673 6.20304 0.845248 6.37247C1.91186 7.45256 3.48291 9.02745 3.57532 9.04478L2.501 12.9493L2.50486 12.9628L3.60613 8.95622C3.51371 8.93889 1.94267 7.364 0.876053 6.2839H0.877979Z" fill="url(#paint7_linear_1997_8576)"/>
    <path d="M3.60827 8.95615C3.54089 8.9446 2.71686 8.1302 1.86203 7.27344C1.86395 7.91456 1.84277 11.0047 1.84277 11.0047L2.507 12.9627L3.60827 8.95615Z" fill="url(#paint8_linear_1997_8576)"/>
    <path d="M4.27084 3.86611L4.18612 2.42792C4.15532 1.91386 4.58659 1.4903 5.09872 1.5288L7.63048 1.71941L4.26891 3.86611H4.27084Z" fill="url(#paint9_linear_1997_8576)"/>
    <path d="M4.19961 2.52998C4.1688 2.01593 4.60007 1.59236 5.1122 1.63087L7.49187 1.80992L7.63049 1.72136L5.09872 1.53075C4.58467 1.49225 4.15533 1.91581 4.18613 2.42987L4.27084 3.86807L4.27855 3.86229L4.20153 2.52998H4.19961Z" fill="url(#paint10_linear_1997_8576)"/>
    <path d="M4.27062 3.8661L4.21094 2.87457L6.40385 1.62891L7.63027 1.72132L4.27062 3.8661Z" fill="#FF8A00"/>
    <path d="M14.249 3.65208L19.1643 2.71253C19.8709 2.57776 20.3888 3.36329 19.9864 3.96013L17.1851 8.11492L14.249 3.65401V3.65208Z" fill="url(#paint11_linear_1997_8576)"/>
    <path d="M19.1624 2.80098L14.301 3.73089L14.249 3.65388L19.1643 2.71434C19.7226 2.60845 20.1616 3.07629 20.1231 3.57109C20.1058 3.10902 19.6861 2.70086 19.1605 2.8029L19.1624 2.80098Z" fill="url(#paint12_linear_1997_8576)"/>
    <path d="M14.249 3.65256L16.6499 3.19434C16.6499 3.19434 17.2024 3.50046 17.805 3.86627C18.4693 4.26865 18.4481 4.9117 18.4481 4.9117C18.9256 4.65756 19.2259 4.45348 19.9883 3.95868L17.187 8.11347L14.2509 3.65256H14.249Z" fill="url(#paint13_linear_1997_8576)"/>
    <path d="M16.4902 6.62075L19.5476 4.51447C19.8306 4.32002 20.1926 4.61459 20.0578 4.93034L17.682 10.506L16.4922 6.61882L16.4902 6.62075Z" fill="url(#paint14_linear_1997_8576)"/>
    <path d="M19.5476 4.60374L16.5133 6.69461L16.4902 6.62145L19.5476 4.51517C19.8037 4.33997 20.1194 4.5633 20.079 4.84247C20.0501 4.60951 19.7748 4.44586 19.5476 4.60374Z" fill="url(#paint15_linear_1997_8576)"/>
    <path d="M16.4902 6.62092L18.3732 5.3252L18.3847 7.1369L19.6246 5.94514L17.6801 10.5081L16.4902 6.62092Z" fill="url(#paint16_linear_1997_8576)"/>
    <path d="M16.6494 8.95645C16.7418 8.93912 18.3129 7.36423 19.3795 6.28413C19.6182 6.04347 20.0187 6.28991 19.9089 6.61144L17.7526 12.963L16.6513 8.95645H16.6494Z" fill="url(#paint17_linear_1997_8576)"/>
    <path d="M19.3795 6.2839C19.574 6.08752 19.8685 6.21652 19.9167 6.4437C19.8204 6.2762 19.5778 6.20304 19.4122 6.37247C18.3456 7.45256 16.7746 9.02745 16.6822 9.04478L17.7565 12.9493L17.7526 12.9628L16.6514 8.95622C16.7438 8.93889 18.3148 7.364 19.3814 6.2839H19.3795Z" fill="url(#paint18_linear_1997_8576)"/>
    <path d="M16.6494 8.95615C16.7168 8.9446 17.5408 8.1302 18.3957 7.27344C18.3937 7.91456 18.4149 11.0047 18.4149 11.0047L17.7507 12.9627L16.6494 8.95615Z" fill="url(#paint19_linear_1997_8576)"/>
    <path d="M15.9876 3.86611L16.0723 2.42792C16.1031 1.91386 15.6718 1.4903 15.1597 1.5288L12.6279 1.71941L15.9895 3.86611H15.9876Z" fill="url(#paint20_linear_1997_8576)"/>
    <path d="M16.0588 2.52998C16.0896 2.01593 15.6583 1.59236 15.1462 1.63087L12.7666 1.80992L12.6279 1.72136L15.1597 1.53075C15.6738 1.49225 16.1031 1.91581 16.0723 2.42987L15.9876 3.86807L15.9799 3.86229L16.0569 2.52998H16.0588Z" fill="url(#paint21_linear_1997_8576)"/>
    <path d="M15.9875 3.8661L16.0453 2.87457L13.8543 1.62891L12.626 1.72132L15.9875 3.8661Z" fill="#FF8A00"/>
    <path d="M10.1295 18.3808C9.90232 18.3808 9.67898 18.3211 9.4826 18.2075L2.64202 14.2588C2.24348 14.0296 1.99512 13.6003 1.99512 13.1402V5.24066C1.99512 4.78052 2.24348 4.35117 2.64202 4.12206L9.4826 0.173277C9.67898 0.0596843 9.90232 0 10.1295 0C10.3567 0 10.58 0.0596843 10.7764 0.173277L17.617 4.12206C18.0155 4.35117 18.2639 4.78052 18.2639 5.24066V13.1382C18.2639 13.5984 18.0155 14.0277 17.617 14.2568L10.7764 18.2056C10.58 18.3192 10.3567 18.3789 10.1295 18.3789V18.3808Z" fill="url(#paint22_linear_1997_8576)"/>
    <path d="M10.1293 18.2631C9.92327 18.2631 9.72111 18.2092 9.54206 18.1053L2.70147 14.1565C2.33952 13.9485 2.11426 13.5577 2.11426 13.1399V5.24041C2.11426 4.82262 2.33952 4.43178 2.70147 4.22385L9.54206 0.275062C9.72111 0.173021 9.92327 0.117188 10.1293 0.117188C10.3353 0.117188 10.5374 0.171096 10.7165 0.275062L17.5571 4.22385C17.919 4.43371 18.1443 4.82262 18.1443 5.24041V13.138C18.1443 13.5558 17.919 13.9466 17.5571 14.1545L10.7165 18.1033C10.5374 18.2054 10.3353 18.2612 10.1293 18.2612V18.2631Z" fill="url(#paint23_linear_1997_8576)"/>
    <path d="M10.1295 17.911C9.98506 17.911 9.84259 17.8725 9.71744 17.8013L2.87686 13.8525C2.62272 13.7062 2.46484 13.4328 2.46484 13.1401V5.24062C2.46484 4.94797 2.62272 4.67458 2.87686 4.52826L9.71744 0.579469C9.84259 0.508233 9.98506 0.469727 10.1295 0.469727C10.2739 0.469727 10.4163 0.508233 10.5415 0.579469L17.3821 4.52826C17.6362 4.67458 17.7941 4.94797 17.7941 5.24062V13.1382C17.7941 13.4308 17.6362 13.7042 17.3821 13.8506L10.5415 17.7993C10.4163 17.8706 10.2739 17.9091 10.1295 17.9091V17.911Z" fill="#C0561A"/>
    <path d="M17.3221 4.63054L10.4816 0.681749C10.264 0.556605 9.99446 0.556605 9.7769 0.681749L2.93631 4.63054C2.71876 4.75568 2.58398 4.98864 2.58398 5.24086V13.1384C2.58398 13.3906 2.71876 13.6236 2.93631 13.7488L9.7769 17.6975C9.99446 17.8227 10.264 17.8227 10.4816 17.6975L17.3221 13.7488C17.5397 13.6236 17.6745 13.3906 17.6745 13.1384V5.24086C17.6745 4.98864 17.5397 4.75568 17.3221 4.63054Z" fill="url(#paint24_linear_1997_8576)"/>
    <path d="M10.1292 17.3245C10.0888 17.3245 10.0464 17.3129 10.0117 17.2937L3.17115 13.3449C3.09799 13.3025 3.05371 13.2255 3.05371 13.1408V5.24129C3.05371 5.15658 3.09799 5.07957 3.17115 5.03721L10.0117 1.08842C10.0483 1.06724 10.0888 1.05762 10.1292 1.05762C10.1696 1.05762 10.212 1.06917 10.2466 1.08842L17.0872 5.03721C17.1604 5.07957 17.2047 5.15658 17.2047 5.24129V13.1389C17.2047 13.2236 17.1604 13.3006 17.0872 13.3429L10.2466 17.2917C10.21 17.3129 10.1696 17.3225 10.1292 17.3225V17.3245Z" fill="url(#paint25_linear_1997_8576)"/>
    <path d="M17.0272 5.13899L10.1867 1.19021C10.1693 1.18058 10.1482 1.1748 10.1289 1.1748C10.1096 1.1748 10.0885 1.18058 10.0692 1.19021L3.22863 5.13899C3.2113 5.14862 3.1959 5.16402 3.18627 5.18135C3.17472 5.19868 3.16895 5.21986 3.16895 5.24103V13.1386C3.16895 13.1598 3.17472 13.179 3.18435 13.1983C3.19397 13.2156 3.20938 13.231 3.2267 13.2406L10.0673 17.1894C10.0846 17.1991 10.1058 17.2048 10.125 17.2048C10.1443 17.2048 10.1655 17.1991 10.1847 17.1894L17.0253 13.2406C17.0407 13.231 17.0542 13.2175 17.0658 13.2041C17.0773 13.1848 17.085 13.1617 17.085 13.1386V5.24103C17.085 5.21986 17.0792 5.2006 17.0696 5.18135C17.06 5.16402 17.0446 5.14862 17.0272 5.13899ZM16.4997 12.8691L10.1289 16.5483L3.75809 12.8691V5.5125L10.1289 1.83326L16.4997 5.5125V12.8691Z" fill="url(#paint26_linear_1997_8576)"/>
    <path d="M3.75811 12.869V5.51244C3.75811 5.51244 3.19785 5.16396 3.18823 5.18129C3.17667 5.19862 3.1709 5.2198 3.1709 5.24097V13.1385C3.1709 13.1597 3.17667 13.179 3.1863 13.1982C3.19593 13.2156 3.75811 12.869 3.75811 12.869Z" fill="url(#paint27_linear_1997_8576)"/>
    <path d="M10.1293 16.5484L3.75846 12.8691C3.75846 12.8691 3.17702 13.181 3.18664 13.1984C3.19627 13.2157 3.21167 13.2311 3.229 13.2407L10.0696 17.1895C10.0869 17.1991 10.1081 17.2049 10.1273 17.2049C10.1466 17.2049 10.1273 16.5445 10.1273 16.5445L10.1293 16.5484Z" fill="url(#paint28_linear_1997_8576)"/>
    <path d="M16.5003 12.8691L10.1295 16.5484C10.1295 16.5484 10.1084 17.2088 10.1295 17.2088C10.1507 17.2088 10.17 17.203 10.1892 17.1934L17.0298 13.2446C17.0452 13.2349 17.0587 13.2215 17.0702 13.208C17.0818 13.1887 16.5023 12.873 16.5023 12.873L16.5003 12.8691Z" fill="url(#paint29_linear_1997_8576)"/>
    <path d="M17.068 13.204C17.0795 13.1848 17.0872 13.1617 17.0872 13.1386V5.24098C17.0872 5.2198 17.0814 5.20055 17.0718 5.18129C17.0622 5.16397 16.5 5.51052 16.5 5.51052V12.8671C16.5 12.8671 17.0583 13.2175 17.068 13.2021V13.204Z" fill="url(#paint30_linear_1997_8576)"/>
    <path d="M10.1297 1.83326L16.5005 5.5125C16.5005 5.5125 17.0819 5.2006 17.0723 5.18328C17.0627 5.16595 17.0472 5.15055 17.0299 5.14092L10.1874 1.19021C10.1701 1.18058 10.1489 1.1748 10.1297 1.1748C10.1104 1.1748 10.1297 1.83518 10.1297 1.83518V1.83326Z" fill="url(#paint31_linear_1997_8576)"/>
    <path d="M3.75851 5.51247L10.1293 1.83323C10.1293 1.83323 10.1505 1.17285 10.1293 1.17285C10.1081 1.17285 10.0889 1.17863 10.0696 1.18825L3.22905 5.13897C3.21172 5.14859 3.19632 5.164 3.18669 5.18132C3.17514 5.19865 3.75658 5.51247 3.75658 5.51247H3.75851Z" fill="url(#paint32_linear_1997_8576)"/>
    <path d="M4.46289 12.4626V5.91854L10.129 2.64746L15.7952 5.91854V12.4626L10.129 15.7337L4.46289 12.4626Z" fill="url(#paint33_linear_1997_8576)"/>
    <path d="M4.46289 12.3262V12.4629L10.129 15.734L15.7952 12.4629V12.3262L10.129 15.5973L4.46289 12.3262Z" fill="url(#paint34_linear_1997_8576)"/>
    <path d="M10.1296 1.83301L3.75879 5.51225V12.8688L10.1296 16.5481L16.5004 12.8688V5.51225L10.1296 1.83301ZM15.7958 12.4626L10.1296 15.7337L4.46345 12.4626V5.91849L10.1296 2.64741L15.7958 5.91849V12.4607V12.4626Z" fill="#37454E"/>
    <path d="M3.89941 12.7884V5.59353L10.1297 1.99707L16.3599 5.59353V12.7884L10.1297 16.3848L3.89941 12.7884ZM4.32105 5.83804V12.5439L10.1278 15.8977L15.9345 12.5439V5.83804L10.1278 2.48417L4.32105 5.83804Z" fill="url(#paint35_linear_1997_8576)"/>
    <path d="M10.129 2.64746L4.46289 5.91854V6.08219L10.129 2.80919L15.7952 6.08219V5.91854L10.129 2.64746Z" fill="url(#paint36_linear_1997_8576)"/>
    <path d="M12.3528 12.5343C12.2951 12.5343 12.2392 12.5227 12.1873 12.4977L10.1349 11.5562L8.08251 12.4977C8.02861 12.5227 7.97277 12.5343 7.91694 12.5343C7.80335 12.5343 7.6936 12.4862 7.61852 12.3995C7.54343 12.3148 7.50685 12.2012 7.52033 12.0876L7.78217 9.84464L6.25348 8.18311C6.15529 8.07722 6.12256 7.92704 6.16684 7.79035C6.21112 7.65365 6.32664 7.54969 6.46719 7.52273L8.68128 7.07799L9.78833 5.11033C9.85956 4.98519 9.99241 4.90625 10.1368 4.90625C10.2812 4.90625 10.4141 4.98326 10.4853 5.11033L11.5923 7.07799L13.8064 7.52273C13.947 7.55161 14.0625 7.65365 14.1068 7.79035C14.1511 7.92704 14.1183 8.07914 14.0201 8.18503L12.4914 9.84657L12.7533 12.0895C12.7668 12.2031 12.7302 12.3167 12.6551 12.4014C12.5781 12.4862 12.4703 12.5362 12.3567 12.5362L12.3528 12.5343Z" fill="#37454E"/>
    <path d="M12.3529 12.3929C12.3163 12.3929 12.2797 12.3852 12.2451 12.3698L10.135 11.4014L8.02484 12.3698C7.99018 12.3852 7.9536 12.3929 7.91702 12.3929C7.84386 12.3929 7.77262 12.3602 7.72256 12.3063C7.67443 12.2523 7.65133 12.1773 7.65903 12.1041L7.92665 9.79759L6.35368 8.08985C6.29014 8.02054 6.26896 7.92428 6.29784 7.83571C6.32672 7.74715 6.40181 7.67976 6.4923 7.66243L8.76993 7.20421L9.90778 5.18073C9.95398 5.09986 10.0387 5.0498 10.133 5.0498C10.2274 5.0498 10.3121 5.09986 10.3583 5.18073L11.4961 7.20421L13.7738 7.66243C13.8662 7.68169 13.9394 7.74715 13.9682 7.83571C13.9971 7.92428 13.9759 8.02247 13.9124 8.08985L12.3394 9.79759L12.607 12.1041C12.6147 12.1773 12.5916 12.2504 12.5435 12.3063C12.4935 12.3621 12.4241 12.3929 12.3491 12.3929H12.3529Z" fill="url(#paint37_linear_1997_8576)"/>
    <path d="M8.23633 9.69176C8.21901 9.634 8.1882 9.58201 8.14777 9.53773L6.68262 7.94551L8.8043 7.52002C8.86013 7.50847 8.91404 7.48536 8.96024 7.45263C9.00645 7.4199 10.1347 9.05448 10.1347 9.05448C10.1347 9.05448 8.25174 9.74566 8.23633 9.69368V9.69176Z" fill="url(#paint38_linear_1997_8576)"/>
    <path d="M6.68066 7.94551L8.80234 7.52002C8.85818 7.50847 8.91209 7.48536 8.95829 7.45263C9.0045 7.4199 10.1327 9.05448 10.1327 9.05448L6.68066 7.94744V7.94551Z" fill="url(#paint39_linear_1997_8576)"/>
    <path d="M10.1352 11.0666C10.0774 11.0666 10.0216 11.0782 9.96961 11.1032L8.00195 12.0062L8.25224 9.85561C8.25802 9.79978 8.25224 9.74587 8.23684 9.69389C8.21951 9.63613 10.1352 9.05469 10.1352 9.05469C10.1352 9.05469 10.1929 11.0686 10.1352 11.0686V11.0666Z" fill="url(#paint40_linear_1997_8576)"/>
    <path d="M8 12.0062L8.25029 9.85561C8.25606 9.79978 8.25029 9.74587 8.23489 9.69389C8.21756 9.63613 10.1332 9.05469 10.1332 9.05469L8 12.0062Z" fill="url(#paint41_linear_1997_8576)"/>
    <path d="M10.3006 11.1032C10.2486 11.0801 10.1928 11.0666 10.135 11.0666C10.0773 11.0666 10.135 9.05273 10.135 9.05273C10.135 9.05273 12.0526 9.63032 12.0353 9.68423C12.018 9.73814 12.0122 9.7959 12.018 9.85366L12.2683 12.0042L10.3006 11.1013V11.1032Z" fill="url(#paint42_linear_1997_8576)"/>
    <path d="M10.1348 9.05273C10.1348 9.05273 12.0524 9.63032 12.035 9.68423C12.0177 9.73814 12.0119 9.7959 12.0177 9.85366L12.268 12.0042L10.1348 9.05273Z" fill="url(#paint43_linear_1997_8576)"/>
    <path d="M10.1348 9.05259C10.1348 9.05259 11.263 7.41608 11.3092 7.45074C11.3554 7.48347 11.4093 7.5085 11.4651 7.52005L13.5868 7.94554L12.1217 9.53776C12.0832 9.58012 12.0524 9.63018 12.035 9.68408C12.0177 9.73799 10.1348 9.05259 10.1348 9.05259Z" fill="url(#paint44_linear_1997_8576)"/>
    <path d="M10.1348 9.05259C10.1348 9.05259 11.263 7.41608 11.3092 7.45074C11.3554 7.48347 11.4093 7.5085 11.4651 7.52005L13.5868 7.94554L10.1348 9.05259Z" fill="url(#paint45_linear_1997_8576)"/>
    <path d="M10.1347 9.05318C10.1347 9.05318 8.91406 7.48406 8.96026 7.45133C9.00647 7.4186 9.04498 7.37432 9.07386 7.32234L10.1347 5.43555L11.1955 7.32234C11.2244 7.3724 11.2629 7.41668 11.3091 7.44941C11.3553 7.48214 10.1347 9.05126 10.1347 9.05126V9.05318Z" fill="url(#paint46_linear_1997_8576)"/>
    <path d="M10.1347 9.05318C10.1347 9.05318 8.91406 7.48406 8.96026 7.45133C9.00647 7.4186 9.04498 7.37432 9.07386 7.32234L10.1347 5.43555V9.05126V9.05318Z" fill="url(#paint47_linear_1997_8576)"/>
    <path d="M10.1346 5.4375L10.1173 9.03203L6.68066 7.94616L10.1077 9.06091L7.99949 12.0066L10.1327 9.08209L12.2679 12.0066L10.1597 9.06284L13.5867 7.94616L10.1501 9.03396L10.1346 5.4375Z" fill="url(#paint48_linear_1997_8576)"/>
    <path style="mix-blend-mode:screen" d="M17.3221 4.63054L10.4816 0.681749C10.264 0.556605 9.99446 0.556605 9.7769 0.681749L2.93631 4.63054C2.71876 4.75568 2.58398 4.98864 2.58398 5.24086V13.1384C2.58398 13.3906 2.71876 13.6236 2.93631 13.7488L9.7769 17.6975C9.99446 17.8227 10.264 17.8227 10.4816 17.6975L17.3221 13.7488C17.5397 13.6236 17.6745 13.3906 17.6745 13.1384V5.24086C17.6745 4.98864 17.5397 4.75568 17.3221 4.63054Z" fill="url(#paint49_linear_1997_8576)"/>
  </g>
  <defs>
    <linearGradient id="paint0_linear_1997_8576" x1="0.454549" y1="3.01096" x2="3.23853" y2="4.96706" gradientUnits="userSpaceOnUse">
      <stop stop-color="#FFF200"/>
      <stop offset="0.74" stop-color="#FF9900"/>
      <stop offset="0.82" stop-color="#FB8D00"/>
      <stop offset="0.98" stop-color="#F36E00"/>
      <stop offset="1" stop-color="#F26900"/>
    </linearGradient>
    <linearGradient id="paint1_linear_1997_8576" x1="0.547152" y1="2.76097" x2="4.31689" y2="4.03167" gradientUnits="userSpaceOnUse">
      <stop stop-color="#FFFF56"/>
      <stop offset="0.13" stop-color="#FFF200"/>
      <stop offset="0.39" stop-color="#FFEF00"/>
      <stop offset="0.56" stop-color="#FFE600"/>
      <stop offset="0.7" stop-color="#FFD700"/>
      <stop offset="0.82" stop-color="#FFC300"/>
      <stop offset="0.94" stop-color="#FFA800"/>
      <stop offset="0.99" stop-color="#FF9900"/>
    </linearGradient>
    <linearGradient id="paint2_linear_1997_8576" x1="0.870224" y1="3.30408" x2="3.37504" y2="5.0638" gradientUnits="userSpaceOnUse">
      <stop stop-color="#FFC400"/>
      <stop offset="0.71" stop-color="#FF7700"/>
    </linearGradient>
    <linearGradient id="paint3_linear_1997_8576" x1="0.140278" y1="4.75706" x2="2.88575" y2="8.20527" gradientUnits="userSpaceOnUse">
      <stop stop-color="#FFF200"/>
      <stop offset="0.74" stop-color="#FF9900"/>
      <stop offset="0.82" stop-color="#FB8D00"/>
      <stop offset="0.98" stop-color="#F36E00"/>
      <stop offset="1" stop-color="#F26900"/>
    </linearGradient>
    <linearGradient id="paint4_linear_1997_8576" x1="0.77037" y1="4.22253" x2="2.22012" y2="6.04193" gradientUnits="userSpaceOnUse">
      <stop stop-color="#FFFF56"/>
      <stop offset="0.13" stop-color="#FFF200"/>
      <stop offset="0.39" stop-color="#FFEF00"/>
      <stop offset="0.56" stop-color="#FFE600"/>
      <stop offset="0.7" stop-color="#FFD700"/>
      <stop offset="0.82" stop-color="#FFC300"/>
      <stop offset="0.94" stop-color="#FFA800"/>
      <stop offset="0.99" stop-color="#FF9900"/>
    </linearGradient>
    <linearGradient id="paint5_linear_1997_8576" x1="0.287208" y1="5.95284" x2="2.84978" y2="8.27283" gradientUnits="userSpaceOnUse">
      <stop stop-color="#FFC400"/>
      <stop offset="0.71" stop-color="#FF7700"/>
    </linearGradient>
    <linearGradient id="paint6_linear_1997_8576" x1="-0.729446" y1="7.32187" x2="3.1404" y2="11.0011" gradientUnits="userSpaceOnUse">
      <stop offset="0.08" stop-color="#FFF200"/>
      <stop offset="0.74" stop-color="#FF9900"/>
      <stop offset="0.82" stop-color="#FB8D00"/>
      <stop offset="0.98" stop-color="#F36E00"/>
      <stop offset="1" stop-color="#F26900"/>
    </linearGradient>
    <linearGradient id="paint7_linear_1997_8576" x1="0.858726" y1="6.14528" x2="1.87528" y2="8.37285" gradientUnits="userSpaceOnUse">
      <stop stop-color="#FFFF56"/>
      <stop offset="0.25" stop-color="#FFF200"/>
      <stop offset="0.47" stop-color="#FFEF00"/>
      <stop offset="0.62" stop-color="#FFE600"/>
      <stop offset="0.74" stop-color="#FFD700"/>
      <stop offset="0.85" stop-color="#FFC300"/>
      <stop offset="0.95" stop-color="#FFA800"/>
      <stop offset="0.99" stop-color="#FF9900"/>
    </linearGradient>
    <linearGradient id="paint8_linear_1997_8576" x1="1.00142" y1="7.07898" x2="2.22591" y2="9.38934" gradientUnits="userSpaceOnUse">
      <stop stop-color="#FFC400"/>
      <stop offset="0.71" stop-color="#FF7700"/>
    </linearGradient>
    <linearGradient id="paint9_linear_1997_8576" x1="4.98897" y1="1.30354" x2="5.79182" y2="2.54728" gradientUnits="userSpaceOnUse">
      <stop stop-color="#FFF200"/>
      <stop offset="0.74" stop-color="#FF9900"/>
      <stop offset="0.82" stop-color="#FB8D00"/>
      <stop offset="0.98" stop-color="#F36E00"/>
      <stop offset="1" stop-color="#F26900"/>
    </linearGradient>
    <linearGradient id="paint10_linear_1997_8576" x1="4.98898" y1="1.30357" x2="5.79183" y2="2.54731" gradientUnits="userSpaceOnUse">
      <stop stop-color="#FFFF56"/>
      <stop offset="0.13" stop-color="#FFF200"/>
      <stop offset="0.39" stop-color="#FFEF00"/>
      <stop offset="0.56" stop-color="#FFE600"/>
      <stop offset="0.7" stop-color="#FFD700"/>
      <stop offset="0.82" stop-color="#FFC300"/>
      <stop offset="0.94" stop-color="#FFA800"/>
      <stop offset="0.99" stop-color="#FF9900"/>
    </linearGradient>
    <linearGradient id="paint11_linear_1997_8576" x1="19.8035" y1="3.01096" x2="17.0215" y2="4.96706" gradientUnits="userSpaceOnUse">
      <stop stop-color="#FFF200"/>
      <stop offset="0.74" stop-color="#FF9900"/>
      <stop offset="0.82" stop-color="#FB8D00"/>
      <stop offset="0.98" stop-color="#F36E00"/>
      <stop offset="1" stop-color="#F26900"/>
    </linearGradient>
    <linearGradient id="paint12_linear_1997_8576" x1="19.7111" y1="2.76054" x2="15.9414" y2="4.03124" gradientUnits="userSpaceOnUse">
      <stop stop-color="#FFFF56"/>
      <stop offset="0.13" stop-color="#FFF200"/>
      <stop offset="0.39" stop-color="#FFEF00"/>
      <stop offset="0.56" stop-color="#FFE600"/>
      <stop offset="0.7" stop-color="#FFD700"/>
      <stop offset="0.82" stop-color="#FFC300"/>
      <stop offset="0.94" stop-color="#FFA800"/>
      <stop offset="0.99" stop-color="#FF9900"/>
    </linearGradient>
    <linearGradient id="paint13_linear_1997_8576" x1="19.3876" y1="3.30408" x2="16.8828" y2="5.0638" gradientUnits="userSpaceOnUse">
      <stop stop-color="#FFC400"/>
      <stop offset="0.71" stop-color="#FF7700"/>
    </linearGradient>
    <linearGradient id="paint14_linear_1997_8576" x1="20.1175" y1="4.75706" x2="17.372" y2="8.20527" gradientUnits="userSpaceOnUse">
      <stop stop-color="#FFF200"/>
      <stop offset="0.74" stop-color="#FF9900"/>
      <stop offset="0.82" stop-color="#FB8D00"/>
      <stop offset="0.98" stop-color="#F36E00"/>
      <stop offset="1" stop-color="#F26900"/>
    </linearGradient>
    <linearGradient id="paint15_linear_1997_8576" x1="19.4879" y1="4.22253" x2="18.0382" y2="6.04193" gradientUnits="userSpaceOnUse">
      <stop stop-color="#FFFF56"/>
      <stop offset="0.13" stop-color="#FFF200"/>
      <stop offset="0.39" stop-color="#FFEF00"/>
      <stop offset="0.56" stop-color="#FFE600"/>
      <stop offset="0.7" stop-color="#FFD700"/>
      <stop offset="0.82" stop-color="#FFC300"/>
      <stop offset="0.94" stop-color="#FFA800"/>
      <stop offset="0.99" stop-color="#FF9900"/>
    </linearGradient>
    <linearGradient id="paint16_linear_1997_8576" x1="19.9712" y1="5.95284" x2="17.4086" y2="8.27283" gradientUnits="userSpaceOnUse">
      <stop stop-color="#FFC400"/>
      <stop offset="0.71" stop-color="#FF7700"/>
    </linearGradient>
    <linearGradient id="paint17_linear_1997_8576" x1="20.989" y1="7.32187" x2="17.1173" y2="11.0011" gradientUnits="userSpaceOnUse">
      <stop offset="0.08" stop-color="#FFF200"/>
      <stop offset="0.74" stop-color="#FF9900"/>
      <stop offset="0.82" stop-color="#FB8D00"/>
      <stop offset="0.98" stop-color="#F36E00"/>
      <stop offset="1" stop-color="#F26900"/>
    </linearGradient>
    <linearGradient id="paint18_linear_1997_8576" x1="19.3988" y1="6.14528" x2="18.3822" y2="8.37285" gradientUnits="userSpaceOnUse">
      <stop stop-color="#FFFF56"/>
      <stop offset="0.25" stop-color="#FFF200"/>
      <stop offset="0.47" stop-color="#FFEF00"/>
      <stop offset="0.62" stop-color="#FFE600"/>
      <stop offset="0.74" stop-color="#FFD700"/>
      <stop offset="0.85" stop-color="#FFC300"/>
      <stop offset="0.95" stop-color="#FFA800"/>
      <stop offset="0.99" stop-color="#FF9900"/>
    </linearGradient>
    <linearGradient id="paint19_linear_1997_8576" x1="19.2563" y1="7.07898" x2="18.0318" y2="9.38934" gradientUnits="userSpaceOnUse">
      <stop stop-color="#FFC400"/>
      <stop offset="0.71" stop-color="#FF7700"/>
    </linearGradient>
    <linearGradient id="paint20_linear_1997_8576" x1="15.2714" y1="1.30354" x2="14.4666" y2="2.54728" gradientUnits="userSpaceOnUse">
      <stop stop-color="#FFF200"/>
      <stop offset="0.74" stop-color="#FF9900"/>
      <stop offset="0.82" stop-color="#FB8D00"/>
      <stop offset="0.98" stop-color="#F36E00"/>
      <stop offset="1" stop-color="#F26900"/>
    </linearGradient>
    <linearGradient id="paint21_linear_1997_8576" x1="15.2714" y1="1.30357" x2="14.4666" y2="2.54731" gradientUnits="userSpaceOnUse">
      <stop stop-color="#FFFF56"/>
      <stop offset="0.13" stop-color="#FFF200"/>
      <stop offset="0.39" stop-color="#FFEF00"/>
      <stop offset="0.56" stop-color="#FFE600"/>
      <stop offset="0.7" stop-color="#FFD700"/>
      <stop offset="0.82" stop-color="#FFC300"/>
      <stop offset="0.94" stop-color="#FFA800"/>
      <stop offset="0.99" stop-color="#FF9900"/>
    </linearGradient>
    <linearGradient id="paint22_linear_1997_8576" x1="8.84725" y1="0.70851" x2="11.4599" y2="17.9861" gradientUnits="userSpaceOnUse">
      <stop stop-color="#FFF985"/>
      <stop offset="0.5" stop-color="#EF8818"/>
      <stop offset="1" stop-color="#D85F1B"/>
    </linearGradient>
    <linearGradient id="paint23_linear_1997_8576" x1="8.86243" y1="0.817996" x2="11.4423" y2="17.8723" gradientUnits="userSpaceOnUse">
      <stop stop-color="#FFDE59"/>
      <stop offset="0.16" stop-color="#FFBA45"/>
      <stop offset="0.71" stop-color="#F29218"/>
      <stop offset="1" stop-color="#FF8400"/>
    </linearGradient>
    <linearGradient id="paint24_linear_1997_8576" x1="8.95095" y1="1.39989" x2="11.3768" y2="17.4472" gradientUnits="userSpaceOnUse">
      <stop stop-color="#BBC9CA"/>
      <stop offset="0.71" stop-color="#6C8093"/>
      <stop offset="1" stop-color="#79859B"/>
    </linearGradient>
    <linearGradient id="paint25_linear_1997_8576" x1="9.01636" y1="1.82966" x2="11.3094" y2="16.9914" gradientUnits="userSpaceOnUse">
      <stop stop-color="#C3D0D1"/>
      <stop offset="1" stop-color="#9DB5C3"/>
    </linearGradient>
    <linearGradient id="paint26_linear_1997_8576" x1="9.03148" y1="1.93722" x2="11.2918" y2="16.8775" gradientUnits="userSpaceOnUse">
      <stop stop-color="#768499"/>
      <stop offset="0.7" stop-color="#677D90"/>
      <stop offset="1" stop-color="#728297"/>
    </linearGradient>
    <linearGradient id="paint27_linear_1997_8576" x1="3.34418" y1="5.36227" x2="3.57714" y2="13.0731" gradientUnits="userSpaceOnUse">
      <stop stop-color="#4E6B81"/>
      <stop offset="0.7" stop-color="#708893"/>
      <stop offset="1" stop-color="#869DB1"/>
    </linearGradient>
    <linearGradient id="paint28_linear_1997_8576" x1="6.3268" y1="12.6785" x2="7.07189" y2="17.6189" gradientUnits="userSpaceOnUse">
      <stop stop-color="#818DB2"/>
      <stop offset="1" stop-color="#91A7B6"/>
    </linearGradient>
    <linearGradient id="paint29_linear_1997_8576" x1="10.0487" y1="16.8892" x2="16.7814" y2="13.0925" gradientUnits="userSpaceOnUse">
      <stop stop-color="#B6C4C6"/>
      <stop offset="0.36" stop-color="#8AA0B6"/>
      <stop offset="1" stop-color="#7F91AB"/>
    </linearGradient>
    <linearGradient id="paint30_linear_1997_8576" x1="16.2728" y1="5.60293" x2="17.403" y2="13.0769" gradientUnits="userSpaceOnUse">
      <stop stop-color="#577088"/>
      <stop offset="0.77" stop-color="#697E91"/>
      <stop offset="1" stop-color="#9FACCE"/>
    </linearGradient>
    <linearGradient id="paint31_linear_1997_8576" x1="13.2063" y1="0.907188" x2="13.9533" y2="5.84558" gradientUnits="userSpaceOnUse">
      <stop stop-color="#3D5971"/>
      <stop offset="1" stop-color="#708893"/>
    </linearGradient>
    <linearGradient id="paint32_linear_1997_8576" x1="3.18669" y1="3.34266" x2="10.1389" y2="3.34266" gradientUnits="userSpaceOnUse">
      <stop stop-color="#7995A0"/>
      <stop offset="1" stop-color="#466479"/>
    </linearGradient>
    <linearGradient id="paint33_linear_1997_8576" x1="9.31657" y1="2.99979" x2="10.9608" y2="15.5239" gradientUnits="userSpaceOnUse">
      <stop stop-color="#E2F1F2"/>
      <stop offset="0.73" stop-color="#6C8093"/>
      <stop offset="0.89" stop-color="#75879E"/>
      <stop offset="1" stop-color="#7E8EA9"/>
    </linearGradient>
    <linearGradient id="paint34_linear_1997_8576" x1="10.0347" y1="11.6716" x2="10.5565" y2="15.6454" gradientUnits="userSpaceOnUse">
      <stop stop-color="#5E7B9A"/>
      <stop offset="1" stop-color="#466479"/>
    </linearGradient>
    <linearGradient id="paint35_linear_1997_8576" x1="8.88786" y1="2.24351" x2="11.3542" y2="16.0402" gradientUnits="userSpaceOnUse">
      <stop stop-color="#405463"/>
      <stop offset="0.67" stop-color="#465771"/>
      <stop offset="1" stop-color="#465D6B"/>
    </linearGradient>
    <linearGradient id="paint36_linear_1997_8576" x1="9.70548" y1="2.78031" x2="10.2311" y2="6.77915" gradientUnits="userSpaceOnUse">
      <stop stop-color="white"/>
      <stop offset="1" stop-color="#B6C1C4"/>
    </linearGradient>
    <linearGradient id="paint37_linear_1997_8576" x1="6.28629" y1="8.72135" x2="13.9817" y2="8.72135" gradientUnits="userSpaceOnUse">
      <stop stop-color="#465D6B"/>
      <stop offset="0.33" stop-color="#465771"/>
      <stop offset="1" stop-color="#405463"/>
    </linearGradient>
    <linearGradient id="paint38_linear_1997_8576" x1="6.68069" y1="8.57316" x2="10.1347" y2="8.57316" gradientUnits="userSpaceOnUse">
      <stop stop-color="#6C8093"/>
      <stop offset="1" stop-color="#CAE1E4"/>
    </linearGradient>
    <linearGradient id="paint39_linear_1997_8576" x1="6.93865" y1="7.49692" x2="10.4581" y2="8.5154" gradientUnits="userSpaceOnUse">
      <stop stop-color="#B4C8CD"/>
      <stop offset="0.21" stop-color="#BDCED3"/>
      <stop offset="0.57" stop-color="#D7E1E4"/>
      <stop offset="1" stop-color="white"/>
    </linearGradient>
    <linearGradient id="paint40_linear_1997_8576" x1="7.85371" y1="11.831" x2="10.0447" y2="9.4436" gradientUnits="userSpaceOnUse">
      <stop stop-color="#678B9A"/>
      <stop offset="1" stop-color="#47687D"/>
    </linearGradient>
    <linearGradient id="paint41_linear_1997_8576" x1="9.17058" y1="9.41279" x2="8.19253" y2="12.0736" gradientUnits="userSpaceOnUse">
      <stop stop-color="#718DA0"/>
      <stop offset="1" stop-color="#C2DADF"/>
    </linearGradient>
    <linearGradient id="paint42_linear_1997_8576" x1="10.214" y1="9.53791" x2="12.3684" y2="11.6076" gradientUnits="userSpaceOnUse">
      <stop stop-color="#7194A9"/>
      <stop offset="1" stop-color="#537083"/>
    </linearGradient>
    <linearGradient id="paint43_linear_1997_8576" x1="10.8818" y1="9.03348" x2="12.5645" y2="11.8136" gradientUnits="userSpaceOnUse">
      <stop stop-color="#658698"/>
      <stop offset="0.3" stop-color="#67889A"/>
      <stop offset="0.52" stop-color="#7191A4"/>
      <stop offset="0.72" stop-color="#819FB4"/>
      <stop offset="0.9" stop-color="#97B3CA"/>
      <stop offset="1" stop-color="#A8C2DB"/>
    </linearGradient>
    <linearGradient id="paint44_linear_1997_8576" x1="10.0308" y1="8.99098" x2="13.8275" y2="8.01293" gradientUnits="userSpaceOnUse">
      <stop stop-color="#3C6078"/>
      <stop offset="1" stop-color="#678B9A"/>
    </linearGradient>
    <linearGradient id="paint45_linear_1997_8576" x1="10.4216" y1="8.31712" x2="13.2923" y2="7.69333" gradientUnits="userSpaceOnUse">
      <stop stop-color="#D3E7E9"/>
      <stop offset="1" stop-color="#6C849B"/>
    </linearGradient>
    <linearGradient id="paint46_linear_1997_8576" x1="9.89981" y1="5.55492" x2="10.2906" y2="8.72396" gradientUnits="userSpaceOnUse">
      <stop stop-color="#6C8093"/>
      <stop offset="1" stop-color="#A2BAC3"/>
    </linearGradient>
    <linearGradient id="paint47_linear_1997_8576" x1="9.80354" y1="5.22761" x2="9.48972" y2="8.90686" gradientUnits="userSpaceOnUse">
      <stop offset="0.21" stop-color="white"/>
      <stop offset="1" stop-color="#809EAF"/>
    </linearGradient>
    <linearGradient id="paint48_linear_1997_8576" x1="9.76307" y1="6.71205" x2="11.1416" y2="11.3058" gradientUnits="userSpaceOnUse">
      <stop stop-color="#C3D0D1"/>
      <stop offset="1" stop-color="#9DB5C3"/>
    </linearGradient>
    <linearGradient id="paint49_linear_1997_8576" x1="8.89511" y1="1.036" x2="9.93285" y2="7.89777" gradientUnits="userSpaceOnUse">
      <stop stop-color="#52C9FF"/>
      <stop offset="0.17" stop-color="#3F9CC6"/>
      <stop offset="0.4" stop-color="#296580"/>
      <stop offset="0.6" stop-color="#173949"/>
      <stop offset="0.78" stop-color="#0A1A21"/>
      <stop offset="0.92" stop-color="#020708"/>
      <stop offset="1"/>
    </linearGradient>
    <clipPath id="clip0_1997_8576">
      <rect width="20" height="18.3808" fill="white" transform="translate(0.128906)"/>
    </clipPath>
  </defs>
</svg>
