<svg xmlns="http://www.w3.org/2000/svg" width="12" height="12" viewBox="0 0 12 12" fill="none">
  <rect width="12" height="12" rx="6" fill="#FFC966"/>
  <path fill-rule="evenodd" clip-rule="evenodd" d="M10.2373 3.44846C10.219 3.28326 10.0791 3.15773 9.91258 3.15773H8.83903C8.85385 2.91408 8.85516 2.7515 8.85516 2.71794C8.85516 2.5972 8.75752 2.5 8.63722 2.5H3.36277C3.3048 2.5 3.24945 2.52267 3.20891 2.56364C3.16794 2.60461 3.14484 2.65996 3.14484 2.71794C3.14484 2.7515 3.14615 2.91408 3.1614 3.15773H2.08742C1.92092 3.15773 1.781 3.28326 1.76269 3.44846C1.75398 3.5243 1.57048 5.31398 2.94477 6.21884C3.00013 6.25501 3.06246 6.27245 3.12435 6.27245C3.23027 6.27245 3.33488 6.22101 3.39764 6.12556C3.49659 5.97475 3.45474 5.77207 3.30437 5.67269C2.55206 5.17755 2.42086 4.27487 2.40647 3.81154H3.22242C3.39198 5.17538 3.93594 7.34861 5.67156 7.59401V8.35939H4.65077C4.55575 8.35939 4.47206 8.42042 4.4433 8.51064L4.13949 9.45909H3.55892C3.37847 9.45909 3.23201 9.60511 3.23201 9.786C3.23201 9.96645 3.37847 10.1129 3.55892 10.1129H8.50385C8.6843 10.1129 8.83075 9.96645 8.83075 9.786C8.83075 9.60511 8.6843 9.45909 8.50385 9.45909H7.92327L7.6199 8.51064C7.5907 8.42042 7.50701 8.35939 7.41243 8.35939H6.32537V7.59488C8.0658 7.35297 8.60933 5.17711 8.77801 3.81154H9.59352C9.5787 4.27487 9.44794 5.17755 8.69563 5.67269C8.54525 5.77207 8.50341 5.97475 8.60279 6.12556C8.66555 6.22101 8.76973 6.27245 8.87564 6.27245C8.93754 6.27245 8.99986 6.25501 9.05566 6.21884C10.4295 5.31398 10.246 3.5243 10.2373 3.44846Z" fill="#664200"/>
</svg>
