<svg xmlns="http://www.w3.org/2000/svg" width="42" height="42" viewBox="0 0 42 42" fill="none">
  <path opacity="0.1" fill-rule="evenodd" clip-rule="evenodd" d="M3.72096 4.71948C4.67754 3.9355 5.88014 3.50122 7.12775 3.5H10.5V1.75H31.5V3.5H34.8716H34.8722C36.2981 3.50139 37.6651 4.06842 38.6734 5.07664C39.6816 6.08486 40.2486 7.45191 40.25 8.87775C40.2555 10.0109 39.8979 11.116 39.2297 12.0312C37.6143 14.2481 34.4112 17.8919 30.3621 20.5041C29.8656 21.4819 29.2145 22.3847 28.4246 23.1746C27.3067 24.2925 25.9627 25.1323 24.5 25.6495V31.5H26.25C26.279 31.5 26.3079 31.5007 26.3368 31.5022C26.7693 31.5236 27.1798 31.7049 27.4874 32.0126C27.5285 32.0536 27.5672 32.0964 27.6037 32.1409C27.8588 32.4523 28 32.8439 28 33.25V36.75H29.75V40.25H12.25V36.75H14V33.25C14 32.7859 14.1844 32.3407 14.5126 32.0126C14.5536 31.9715 14.5964 31.9328 14.6409 31.8963C14.9523 31.6412 15.3439 31.5 15.75 31.5H17.5V25.6495C16.0373 25.1323 14.6933 24.2925 13.5754 23.1746C12.7855 22.3847 12.1344 21.4819 11.6379 20.5041C11.3885 20.3432 11.1424 20.1785 10.8996 20.0103C7.20024 17.4485 4.28619 14.1115 2.77025 12.0295C2.1035 11.1178 1.75 10.0258 1.75 8.87775C1.75139 7.45191 2.31842 6.08486 3.32664 5.07664C3.45267 4.95061 3.5843 4.83148 3.72096 4.71948ZM5.25566 9.01225C5.28002 9.35623 5.39854 9.68688 5.59825 9.968C6.39053 11.0572 8.03494 13.0287 10.1799 14.9431C10.2854 15.0372 10.3921 15.1312 10.5 15.225V7H7.1295C6.78466 7.00018 6.44651 7.09522 6.15208 7.27473C5.85764 7.45424 5.61827 7.7113 5.46016 8.01776C5.30205 8.32422 5.2313 8.66827 5.25566 9.01225ZM34.9368 7.0012C35.2588 7.01284 35.5728 7.10711 35.8484 7.27541C36.1426 7.45505 36.3817 7.71213 36.5396 8.01853C36.6975 8.32493 36.7681 8.66886 36.7437 9.01268C36.7192 9.35651 36.6007 9.687 36.4011 9.968C35.5682 11.1106 33.8009 13.2226 31.5 15.2262L31.5 7H34.8716M34.8722 7C34.8938 7.00003 34.9153 7.00043 34.9368 7.0012L34.8722 7Z" fill="url(#paint0_linear_4128_5185)"/>
  <defs>
    <linearGradient id="paint0_linear_4128_5185" x1="21" y1="1.75" x2="21" y2="40.25" gradientUnits="userSpaceOnUse">
      <stop stop-color="#FFC966"/>
      <stop offset="1" stop-color="#99793D"/>
    </linearGradient>
  </defs>
</svg>
