<svg xmlns="http://www.w3.org/2000/svg" width="43" height="42" viewBox="0 0 43 42" fill="none">
  <path opacity="0.1" d="M11.0419 12.3732C10.9911 12.5413 11.0084 12.7226 11.0899 12.8781C11.1714 13.0335 11.3107 13.1508 11.4778 13.2047L13.7476 13.9126C13.863 13.9486 13.9861 13.9525 14.1036 13.9237C14.2211 13.8949 14.3284 13.8346 14.4142 13.7493C14.4999 13.664 14.5606 13.5569 14.5899 13.4395C14.6192 13.3222 14.6159 13.1991 14.5803 13.0835L13.8778 10.7977C13.8313 10.6457 13.7317 10.5154 13.5972 10.4307C13.4626 10.3459 13.3021 10.3124 13.1449 10.3363C12.9877 10.3601 12.8443 10.4397 12.7409 10.5605C12.6376 10.6813 12.5811 10.8353 12.5818 10.9943L9.76817 8.1604C9.64408 8.03546 9.47545 7.96493 9.29936 7.96431C9.12327 7.96369 8.95415 8.03303 8.82918 8.15708C8.70686 8.28255 8.63811 8.45067 8.6375 8.6259C8.63688 8.80113 8.70443 8.96974 8.82585 9.09607L11.6196 11.9097C11.4881 11.9208 11.363 11.9708 11.2601 12.0534C11.1571 12.136 11.0812 12.2473 11.0419 12.3732ZM22.2171 34.9977L21.5145 32.712C21.4683 32.5597 21.3688 32.4292 21.2342 32.3443C21.0997 32.2594 20.939 32.2258 20.7817 32.2497C20.6244 32.2736 20.4809 32.3533 20.3776 32.4743C20.2742 32.5953 20.2179 32.7494 20.2189 32.9086L17.4049 30.0746C17.2809 29.9497 17.1122 29.8792 16.9361 29.8786C16.7601 29.8779 16.5909 29.9473 16.466 30.0713C16.3428 30.1964 16.2735 30.3646 16.2728 30.5401C16.2722 30.7157 16.3403 30.8844 16.4626 31.0103L19.2564 33.824C19.1249 33.8351 18.9997 33.8851 18.8968 33.9677C18.7939 34.0502 18.718 34.1616 18.6786 34.2875C18.6283 34.4556 18.6458 34.6366 18.7273 34.792C18.8087 34.9474 18.9477 35.0647 19.1146 35.1189L21.3844 35.8268C21.4998 35.8629 21.6229 35.8667 21.7404 35.838C21.8578 35.8092 21.9652 35.7489 22.0509 35.6635C22.1366 35.5782 22.1974 35.4711 22.2267 35.3538C22.256 35.2364 22.2527 35.1133 22.2171 34.9977ZM30.8825 16.5971C30.8812 16.7721 30.9494 16.9405 31.0721 17.0652L33.8659 19.8785C33.7344 19.8896 33.6092 19.9397 33.5063 20.0222C33.4034 20.1048 33.3275 20.2161 33.2881 20.3421C33.2379 20.5101 33.2554 20.6912 33.3369 20.8465C33.4183 21.0019 33.5573 21.1192 33.7241 21.1735L35.9939 21.8814C36.1093 21.9174 36.2324 21.9213 36.3499 21.8925C36.4673 21.8638 36.5747 21.8034 36.6604 21.7181C36.7461 21.6328 36.8069 21.5257 36.8362 21.4083C36.8655 21.291 36.8622 21.1679 36.8266 21.0523L36.124 18.7666C36.0776 18.6145 35.978 18.4842 35.8435 18.3995C35.7089 18.3148 35.5484 18.2813 35.3912 18.3051C35.234 18.329 35.0906 18.4085 34.9872 18.5294C34.8838 18.6502 34.8274 18.8041 34.8281 18.9631C34.8281 18.9631 32.0181 16.1329 32.0145 16.1292C31.9206 16.0396 31.8028 15.9791 31.6752 15.9551C31.5477 15.9312 31.4159 15.9449 31.296 15.9944C31.176 16.044 31.0731 16.1273 30.9996 16.2343C30.9262 16.3413 30.8857 16.4673 30.8825 16.5971ZM42.3019 41.3027C42.3777 41.2284 42.4344 41.1369 42.4674 41.036C42.5003 40.9351 42.5085 40.8277 42.4911 40.723L40.9272 31.7205C40.9045 31.6017 40.85 31.4912 40.7696 31.4008C40.6891 31.3104 40.5857 31.2435 40.4703 31.2072C40.3548 31.1708 40.2317 31.1664 40.114 31.1945C39.9963 31.2225 39.8883 31.2818 39.8016 31.3663L38.5778 32.5981L28.1894 22.4322C28.1274 22.3699 28.0536 22.3205 27.9723 22.2869C27.891 22.2533 27.8038 22.2362 27.7159 22.2365C27.6279 22.2369 27.5409 22.2548 27.4599 22.289C27.3789 22.3233 27.3055 22.3733 27.244 22.4362C27.1825 22.4991 27.1341 22.5736 27.1016 22.6553C27.0691 22.737 27.0531 22.8244 27.0547 22.9124C27.0563 23.0003 27.0753 23.0871 27.1106 23.1676C27.146 23.2481 27.197 23.3208 27.2607 23.3815L38.1199 34.0086C38.2451 34.1311 38.4137 34.1991 38.5889 34.1979C38.7641 34.1966 38.9317 34.1262 39.0552 34.0019L39.8385 33.2137L41.0205 40.0187L34.2587 38.8291L35.0519 38.0312C35.1745 37.9044 35.2425 37.7346 35.2411 37.5582C35.2398 37.3818 35.1692 37.213 35.0446 37.0882L21.7151 24.0622C21.6527 24.0012 21.5789 23.9531 21.4979 23.9207C21.417 23.8882 21.3304 23.872 21.2432 23.873C21.1559 23.8741 21.0697 23.8923 20.9895 23.9266C20.9094 23.9609 20.8367 24.0107 20.7758 24.0731C20.6546 24.2002 20.5879 24.3696 20.59 24.5451C20.5921 24.7206 20.6629 24.8884 20.7871 25.0125L33.6381 37.57L32.4209 38.7945C32.3373 38.8814 32.2788 38.9892 32.2514 39.1066C32.224 39.224 32.2287 39.3466 32.2652 39.4615C32.3016 39.5764 32.3684 39.6793 32.4584 39.7594C32.5485 39.8396 32.6585 39.8939 32.7768 39.9168C32.7768 39.9168 41.7115 41.4887 41.7218 41.4906C41.8266 41.5085 41.9341 41.5007 42.0352 41.4679C42.1362 41.4351 42.2279 41.3783 42.3022 41.3024L42.3019 41.3027ZM20.4288 11.3951C20.348 11.4813 20.2913 11.5871 20.2642 11.7021C20.2371 11.817 20.2406 11.9371 20.2743 12.0502C20.308 12.1634 20.3708 12.2658 20.4564 12.3472C20.542 12.4285 20.6474 12.4861 20.7621 12.514C20.7621 12.514 29.0686 14.2569 29.0826 14.2595C29.1903 14.28 29.3013 14.2738 29.4061 14.2416C29.5109 14.2093 29.6062 14.152 29.6837 14.0745C29.7613 13.9971 29.8188 13.9018 29.8511 13.7971C29.8835 13.6924 29.8898 13.5813 29.8695 13.4736C29.8695 13.4736 28.1303 5.16147 28.1263 5.14155C28.099 5.02618 28.0418 4.92006 27.9604 4.83388C27.879 4.7477 27.7763 4.68452 27.6627 4.6507C27.549 4.61689 27.4285 4.61365 27.3132 4.6413C27.1979 4.66895 27.092 4.72651 27.006 4.80819L25.9844 5.83151L20.6576 -0.114884C20.54 -0.24605 20.3751 -0.325144 20.1993 -0.334764C20.0234 -0.344385 19.8509 -0.283744 19.7197 -0.166183C19.5886 -0.0486216 19.5095 0.11623 19.4998 0.292108C19.4902 0.467985 19.5509 0.640481 19.6684 0.771647C19.6684 0.771647 25.4531 7.22838 25.4638 7.24C25.5248 7.30592 25.5984 7.35897 25.6803 7.39604C25.7621 7.43312 25.8505 7.45348 25.9403 7.45593C26.0302 7.45837 26.1196 7.44285 26.2033 7.41027C26.287 7.3777 26.3634 7.32873 26.428 7.26623L27.0774 6.61545L28.3611 12.7508L22.2344 11.4658L22.8862 10.813C23.0098 10.6893 23.0796 10.5218 23.0805 10.347C23.0813 10.1721 23.0132 10.0039 22.8908 9.87901L12.4278 -0.800202C12.3668 -0.862576 12.2941 -0.912321 12.2139 -0.946597C12.1337 -0.980872 12.0475 -0.999006 11.9602 -0.999961C11.873 -1.00092 11.7864 -0.984677 11.7055 -0.952167C11.6245 -0.919658 11.5508 -0.871517 11.4884 -0.810495C11.3661 -0.685445 11.2967 -0.517961 11.2948 -0.343C11.293 -0.168039 11.3588 0.000878761 11.4785 0.128497L21.4827 10.3395L20.4288 11.3951ZM15.2564 28.0831L13.5105 19.7623C13.4843 19.6464 13.4277 19.5395 13.3466 19.4526C13.2654 19.3658 13.1626 19.3021 13.0487 19.2681C12.9348 19.2342 12.8138 19.2311 12.6984 19.2593C12.5829 19.2875 12.477 19.346 12.3916 19.4286L11.344 20.4752L1.13329 10.1543C1.07195 10.0922 0.998992 10.0429 0.918582 10.0091C0.838176 9.97528 0.751892 9.95764 0.664661 9.95718C0.57743 9.95671 0.490966 9.97344 0.410202 10.0064C0.329441 10.0394 0.255962 10.0879 0.193965 10.1493C0.0705447 10.2741 0.000915027 10.4424 -1.57666e-05 10.6179C-0.00094656 10.7935 0.066894 10.9624 0.188987 11.0886C0.188987 11.0886 10.8489 21.8631 10.8689 21.8834C10.9948 22.0057 11.1633 22.0744 11.3389 22.075C11.5145 22.0755 11.6835 22.0079 11.8102 21.8864L12.4626 21.2349L13.7476 27.3609L7.61294 26.0776L8.26372 25.4278C8.38779 25.2996 8.45607 25.1276 8.45364 24.9492C8.45122 24.7708 8.37828 24.6006 8.25077 24.4759L1.78175 18.3489C1.71877 18.2872 1.64415 18.2388 1.56224 18.2063C1.48033 18.1738 1.39278 18.1579 1.30467 18.1596C1.21656 18.1612 1.12967 18.1804 1.04906 18.216C0.968452 18.2516 0.895732 18.3029 0.835139 18.3669C0.774547 18.4309 0.727294 18.5063 0.696139 18.5887C0.664981 18.6711 0.650546 18.759 0.653663 18.847C0.656783 18.9351 0.677402 19.0216 0.714313 19.1017C0.751224 19.1817 0.803691 19.2536 0.868659 19.3131L6.84195 24.971L5.80501 26.0062C5.7225 26.0918 5.6642 26.1977 5.63607 26.3132C5.60793 26.4287 5.61097 26.5496 5.64488 26.6635C5.67879 26.7774 5.74235 26.8803 5.82905 26.9616C5.91576 27.0429 6.02251 27.0997 6.13837 27.1262C6.13837 27.1262 14.4512 28.865 14.4708 28.8694C14.5784 28.8896 14.6894 28.8832 14.794 28.8509C14.8987 28.8185 14.9939 28.761 15.0713 28.6835C15.1487 28.606 15.206 28.5108 15.2383 28.4061C15.2705 28.3014 15.2767 28.1907 15.2564 28.0831ZM18.3994 20.445C18.2749 20.3205 18.106 20.2506 17.9299 20.2506C17.7538 20.2506 17.5849 20.3205 17.4604 20.445C17.3401 20.5717 17.2731 20.7398 17.2731 20.9145C17.2731 21.0892 17.3401 21.2573 17.4604 21.384L18.7885 22.7121C18.9138 22.8331 19.0815 22.9 19.2556 22.8985C19.4298 22.897 19.5963 22.8272 19.7194 22.704C19.8426 22.5809 19.9124 22.4144 19.9139 22.2402C19.9154 22.0661 19.8485 21.8984 19.7275 21.7731L18.3994 20.445ZM21.7768 17.0675L23.105 18.3957C23.2302 18.5166 23.398 18.5836 23.5721 18.5821C23.7462 18.5806 23.9128 18.5107 24.0359 18.3876C24.159 18.2645 24.2288 18.0979 24.2304 17.9238C24.2319 17.7497 24.1649 17.5819 24.044 17.4567L22.7158 16.1286C22.5906 16.0076 22.4228 15.9407 22.2487 15.9422C22.0746 15.9437 21.9081 16.0135 21.7849 16.1366C21.6618 16.2598 21.592 16.4263 21.5905 16.6004C21.5889 16.7746 21.6559 16.9423 21.7768 17.0675ZM21.0557 18.7848L19.0635 16.7926C18.9694 16.7041 18.8518 16.6447 18.7247 16.6215C18.5977 16.5984 18.4667 16.6124 18.3474 16.6621C18.2282 16.7117 18.1259 16.7948 18.0528 16.9012C17.9797 17.0077 17.939 17.133 17.9355 17.2621C17.9339 17.4375 18.002 17.6064 18.1248 17.7316L20.1167 19.7238C20.2419 19.8448 20.4097 19.9117 20.5838 19.9102C20.7579 19.9087 20.9245 19.8389 21.0476 19.7157C21.1707 19.5926 21.2405 19.426 21.2421 19.2519C21.2436 19.0778 21.1766 18.9101 21.0557 18.7848ZM35.8664 25.895C35.8653 25.9818 35.8814 26.0679 35.9136 26.1485C35.9458 26.229 35.9937 26.3024 36.0543 26.3645L37.3824 27.6926C37.5077 27.8136 37.6754 27.8805 37.8496 27.879C38.0237 27.8775 38.1902 27.8077 38.3133 27.6845C38.4365 27.5614 38.5063 27.3949 38.5078 27.2208C38.5093 27.0466 38.4424 26.8789 38.3214 26.7536L36.9933 25.4255C36.8997 25.3361 36.782 25.2759 36.6547 25.2523C36.5275 25.2287 36.3961 25.2426 36.2766 25.2924C36.1571 25.3422 36.0547 25.4256 35.9818 25.5327C35.909 25.6397 35.8689 25.7656 35.8664 25.895ZM27.6963 35.7186L26.3682 34.3904C26.243 34.2695 26.0752 34.2025 25.9011 34.204C25.727 34.2056 25.5604 34.2754 25.4373 34.3985C25.3142 34.5216 25.2443 34.6882 25.2428 34.8623C25.2413 35.0364 25.3083 35.2042 25.4292 35.3294L26.7574 36.6576C26.8826 36.7785 27.0503 36.8455 27.2245 36.8439C27.3986 36.8424 27.5651 36.7726 27.6883 36.6495C27.8114 36.5263 27.8812 36.3598 27.8827 36.1857C27.8842 36.0116 27.8173 35.8438 27.6963 35.7186Z" fill="url(#paint0_linear_4128_7290)"/>
  <defs>
    <linearGradient id="paint0_linear_4128_7290" x1="21.25" y1="-1" x2="21.25" y2="41.5" gradientUnits="userSpaceOnUse">
      <stop stop-color="#F14056"/>
      <stop offset="1" stop-color="#8B2531"/>
    </linearGradient>
  </defs>
</svg>
