<svg xmlns="http://www.w3.org/2000/svg" width="12" height="12" viewBox="0 0 12 12" fill="none">
  <g clip-path="url(#clip0_4128_7308)">
    <rect width="12" height="12" rx="6" fill="#FF6666"/>
    <path d="M-0.0414195 3.13694L2.36826 6.12601L4.36493 4.78734C4.47626 4.71334 4.61359 4.68668 4.74093 4.71201C4.87093 4.73734 4.98559 4.81468 5.05893 4.92468L7.41093 8.44201L7.64826 7.24534C7.70226 6.97401 7.97159 6.80068 8.23559 6.85201C8.50626 6.90534 8.68293 7.16868 8.62893 7.43934L8.15759 9.81999C8.15293 9.84066 8.13959 9.85866 8.13293 9.87866C8.11959 9.91999 8.10826 9.96132 8.08359 9.99799C8.04759 10.0527 8.00093 10.1007 7.94493 10.138C7.90359 10.166 7.85826 10.1873 7.81093 10.2013C7.76359 10.2153 7.71493 10.2227 7.66693 10.2227C7.63493 10.2227 7.60226 10.2193 7.56959 10.2127L5.18826 9.73932C4.91693 9.68599 4.74159 9.42266 4.79559 9.15199C4.84893 8.88132 5.11159 8.70799 5.38359 8.75932L6.57959 8.99666L4.50626 5.89668L2.54559 7.21134C2.33026 7.35468 2.04026 7.31201 1.87759 7.11001L-0.316406 4.39134C-0.307533 4.15761 -0.249753 3.57181 -0.0414195 3.13694Z" fill="#601A22"/>
  </g>
  <defs>
    <clipPath id="clip0_4128_7308">
      <rect width="12" height="12" rx="6" fill="white"/>
    </clipPath>
  </defs>
</svg>
