<svg xmlns="http://www.w3.org/2000/svg" width="12" height="12" viewBox="0 0 12 12" fill="none">
  <rect width="12" height="12" rx="6" fill="white"/>
  <path d="M5.76323 10.5V9.70714C4.77037 9.60714 3.88465 9.21429 3.0918 8.52143L3.88465 7.57857C4.4918 8.10714 5.12037 8.42143 5.76323 8.52143V6.42143C4.9418 6.22857 4.34894 5.97143 3.96323 5.65C3.58465 5.32857 3.3918 4.85714 3.3918 4.23571C3.3918 3.60714 3.61323 3.1 4.04894 2.7C4.48465 2.3 5.05608 2.08571 5.75608 2.05V1.5H6.44894V2.05714C7.2418 2.11429 7.99894 2.38571 8.70608 2.87143L7.99894 3.87143C7.52037 3.52857 7.00608 3.32143 6.44894 3.24286V5.28571H6.48465C7.32037 5.47857 7.92751 5.74286 8.32037 6.07857C8.71323 6.41429 8.90608 6.89286 8.90608 7.52857C8.90608 8.16429 8.68465 8.67857 8.23465 9.07857C7.78465 9.47857 7.1918 9.69286 6.45608 9.72857V10.5H5.76323ZM4.9918 3.49286C4.80608 3.65714 4.71323 3.85714 4.71323 4.1C4.71323 4.34286 4.78465 4.53571 4.92751 4.67857C5.07037 4.82143 5.34894 4.95714 5.75608 5.08571V3.20714C5.43465 3.23571 5.17751 3.32857 4.9918 3.49286ZM7.27751 8.25C7.47751 8.08571 7.58465 7.87143 7.58465 7.62143C7.58465 7.37143 7.50608 7.16429 7.34894 7.02143C7.1918 6.87143 6.8918 6.73571 6.45608 6.6V8.55714C6.79894 8.52143 7.07751 8.42143 7.27751 8.25Z" fill="#131920"/>
</svg>
