<svg xmlns="http://www.w3.org/2000/svg" width="24" height="37" viewBox="0 0 24 37" fill="none">
  <path opacity="0.1" d="M11.027 36.75V33.5125C6.92875 33.1042 3.27273 31.5 0 28.6708L3.27273 24.8208C5.77887 26.9792 8.37347 28.2625 11.027 28.6708V20.0958C7.63636 19.3083 5.18919 18.2583 3.59705 16.9458C2.0344 15.6333 1.23833 13.7083 1.23833 11.1708C1.23833 8.60417 2.15233 6.53333 3.95086 4.9C5.74939 3.26667 8.10811 2.39167 10.9975 2.24583V0L13.8575 0V2.275C17.1302 2.50833 20.2555 3.61667 23.1745 5.6L20.2555 9.68333C18.2801 8.28333 16.1572 7.4375 13.8575 7.11667V15.4583H14.0049C17.4545 16.2458 19.9607 17.325 21.5823 18.6958C23.2039 20.0667 24 22.0208 24 24.6167C24 27.2125 23.086 29.3125 21.2285 30.9458C19.371 32.5792 16.9238 33.4542 13.887 33.6V36.75H11.027ZM7.84275 8.1375C7.07617 8.80833 6.69288 9.625 6.69288 10.6167C6.69288 11.6083 6.98772 12.3958 7.5774 12.9792C8.16708 13.5625 9.31695 14.1167 10.9975 14.6417V6.97083C9.67076 7.0875 8.60934 7.46667 7.84275 8.1375ZM17.2776 27.5625C18.1032 26.8917 18.5455 26.0167 18.5455 24.9958C18.5455 23.975 18.2211 23.1292 17.5725 22.5458C16.9238 21.9333 15.6855 21.3792 13.887 20.825V28.8167C15.3022 28.6708 16.4521 28.2625 17.2776 27.5625Z" fill="url(#paint0_linear_4128_7004)"/>
  <defs>
    <linearGradient id="paint0_linear_4128_7004" x1="12" y1="0" x2="12" y2="36.75" gradientUnits="userSpaceOnUse">
      <stop stop-color="white"/>
      <stop offset="1" stop-color="#999999"/>
    </linearGradient>
  </defs>
</svg>
