<svg xmlns="http://www.w3.org/2000/svg" width="48" height="48" viewBox="0 0 48 48" fill="none">
  <g opacity="0.1">
    <path d="M34.1789 37.1305C34.4278 35.2224 34.4278 32.4846 33.0175 29.9128C31.6071 27.341 29.6161 25.267 28.1228 23.9396C27.8739 23.6907 27.7909 23.4419 27.7909 23.193C27.7909 22.9441 27.9568 22.6122 28.1228 22.4463C29.5331 21.2019 31.6071 19.0449 33.0175 16.4731C33.8471 15.0628 34.1789 13.5695 34.2619 12.1591H32.6027C32.6027 12.2421 32.6027 12.3251 32.6027 12.491C32.6027 12.6569 32.6027 12.8228 32.5197 12.9058C32.5197 12.9887 32.5197 13.0717 32.4367 13.2376C32.3538 13.4865 32.3538 13.6524 32.2708 13.9013C32.2708 13.9843 32.2708 13.9843 32.1879 14.0672C32.1049 14.3161 32.0219 14.482 31.939 14.7309C31.939 14.8139 31.856 14.8969 31.856 14.9798C31.7731 15.2287 31.6071 15.4776 31.5242 15.7265C31.1923 16.3072 30.8605 16.8879 30.4457 17.3857C30.2797 17.6346 30.0309 17.8835 29.8649 18.1323C29.1183 19.1279 28.2887 19.9575 27.542 20.6212C27.3761 20.7871 27.1272 20.953 26.9613 21.1189C26.3806 21.6167 26.0487 22.3634 26.0487 23.11C26.0487 23.8567 26.3806 24.6033 26.9613 25.1011C27.3761 25.5159 27.8739 25.9307 28.3716 26.5114C28.4546 26.5944 28.5376 26.6774 28.6205 26.7603L28.7035 26.8433C29.699 27.9218 30.6946 29.1662 31.4412 30.6595C31.6071 30.9084 31.6901 31.1573 31.7731 31.4061C31.7731 31.4891 31.856 31.5721 31.856 31.655C31.939 31.9039 32.0219 32.0698 32.1049 32.3187C32.1049 32.4017 32.1049 32.4017 32.1879 32.4846C32.2708 32.7335 32.2708 32.8994 32.3538 33.1483C32.3538 33.2313 32.3538 33.3143 32.4367 33.4802C32.4367 33.6461 32.5197 33.812 32.5197 33.9779C32.5197 34.1439 32.5197 34.3098 32.6027 34.4757C32.6027 34.6416 32.6027 34.7246 32.6027 34.8905C32.6027 35.0564 32.6027 35.1394 32.6027 35.3053C32.6027 35.3883 32.6027 35.4712 32.6027 35.5542C32.6027 35.8031 32.6027 36.052 32.6027 36.2179C32.6027 36.3009 32.6027 36.3009 32.6027 36.3838C32.6027 36.5497 32.6027 36.6327 32.5197 36.7986C32.5197 36.8816 32.5197 36.8816 32.5197 36.9645C32.5197 37.0475 32.5197 37.1305 32.5197 37.2134C32.3538 37.9601 31.6901 38.5408 30.8605 38.5408H17.0059C16.1763 38.5408 15.5126 37.9601 15.3467 37.2134C15.3467 37.1305 15.3467 36.9645 15.2638 36.8816V36.7986C15.2638 36.6327 15.2638 36.5497 15.1808 36.3838V36.3009C15.1808 36.052 15.1808 35.8031 15.0978 35.5542C15.0978 35.4712 15.0978 35.3883 15.0978 35.3053C15.0978 35.1394 15.0978 35.0564 15.0978 34.8905C15.0978 34.7246 15.0978 34.6416 15.0978 34.4757C15.0978 34.3098 15.0978 34.1439 15.1808 33.9779C15.1808 33.812 15.1808 33.6461 15.2638 33.4802C15.2638 33.3972 15.2638 33.3142 15.3467 33.1483C15.4297 32.8994 15.4297 32.6506 15.5126 32.4846C15.5126 32.4017 15.5126 32.4017 15.5126 32.3187C15.5956 32.0698 15.6786 31.9039 15.7615 31.655C15.7615 31.5721 15.8445 31.4891 15.8445 31.4061C15.9275 31.1573 16.0934 30.9084 16.1763 30.6595C16.5082 30.0788 16.84 29.498 17.2548 29.0003C17.3378 28.8343 17.4208 28.7514 17.5037 28.6684C17.5867 28.5025 17.6696 28.4195 17.8356 28.2536C18.8311 27.0092 19.8266 25.9307 20.7392 25.184C21.3199 24.6863 21.6518 23.9396 21.6518 23.193C21.6518 22.4463 21.3199 21.7826 20.8222 21.2019C20.8222 21.2019 20.8222 21.2019 20.7392 21.1189C19.4118 19.9575 17.5037 17.9664 16.2593 15.6435C16.0934 15.3946 16.0104 15.1457 15.9275 14.8969C15.9275 14.8139 15.8445 14.7309 15.8445 14.648C15.7615 14.3991 15.6786 14.2332 15.5956 13.9843C15.5956 13.9013 15.5956 13.9013 15.5126 13.8184C15.4297 13.5695 15.4297 13.4036 15.3467 13.1547C15.3467 13.0717 15.3467 12.9887 15.2638 12.8228C15.2638 12.6569 15.1808 12.491 15.1808 12.408C15.1808 12.3251 15.1808 12.2421 15.1808 12.0762H13.5216C13.6045 13.4865 13.9364 14.9798 14.766 16.3902C16.1763 18.962 18.1674 21.036 19.6607 22.3634C19.9096 22.6122 19.9926 22.8611 19.9926 23.11C19.9926 23.3589 19.8266 23.6907 19.6607 23.8567C18.2504 25.1011 16.1763 27.1751 14.766 29.8299C13.3557 32.4017 13.3557 35.1394 13.6045 37.0475C12.692 37.4623 11.9453 38.4578 11.9453 39.6193C11.9453 40.366 12.526 40.9467 13.1897 40.9467H34.4278C35.0915 40.9467 35.6722 40.366 35.6722 39.6193C35.8382 38.5408 35.1745 37.5453 34.1789 37.1305Z" fill="url(#paint0_linear_4128_7250)"/>
    <path d="M25.0532 25.2728C24.8043 24.775 24.6384 24.3602 24.5554 23.8624C24.4725 23.5306 24.2236 23.2817 23.8917 23.2817C23.5599 23.2817 23.311 23.5306 23.228 23.8624C23.1451 24.3602 22.9792 24.775 22.8132 25.1898V25.2728C22.7303 25.4387 22.5644 25.6876 22.4814 25.8535L22.3984 25.9365C22.2325 26.1024 22.0666 26.2683 21.9007 26.4342C20.6562 27.5127 18.9141 29.3379 17.7526 31.4949C16.7571 33.403 16.84 35.477 17.0059 36.8873H30.9434C31.1923 35.477 31.2753 33.403 30.1968 31.4949C29.0353 29.3379 27.2931 27.5127 26.0487 26.4342C25.8828 26.2683 25.7169 26.1024 25.551 25.9365L25.468 25.8535C25.3021 25.6876 25.2191 25.5217 25.0532 25.2728ZM20.7392 32.5734C20.4074 33.1541 20.1585 33.9837 20.0755 34.8133C20.0755 35.2281 19.6607 35.56 19.2459 35.56H19.1629C18.7481 35.477 18.3333 35.1452 18.4163 34.6474C18.4993 33.5689 18.8311 32.5734 19.3289 31.7437C19.5777 31.3289 20.0755 31.246 20.4903 31.4949C20.9051 31.6608 20.9881 32.1586 20.7392 32.5734ZM22.7303 29.8356C22.5644 30.0016 22.3984 30.2504 22.2325 30.4164C22.0666 30.5823 21.8177 30.7482 21.5688 30.7482C21.4029 30.7482 21.154 30.6653 21.071 30.5823C20.7392 30.2504 20.6562 29.7527 20.9881 29.4208C21.154 29.2549 21.3199 29.006 21.5688 28.8401C21.9007 28.5083 22.3984 28.5083 22.7303 28.7571C23.0621 29.006 23.0621 29.5038 22.7303 29.8356ZM13.2727 10.5057H34.5108C35.1745 10.5057 35.7552 9.92494 35.7552 9.17829C35.7552 7.60203 34.5937 6.35761 33.1004 6.35761H27.0443C26.2976 5.52799 25.2191 4.94727 23.8917 4.94727C22.5644 4.94727 21.4859 5.52799 20.6562 6.35761H14.6001C13.1897 6.35761 11.9453 7.60203 11.9453 9.17829C12.0283 9.92494 12.609 10.5057 13.2727 10.5057Z" fill="url(#paint1_linear_4128_7250)"/>
  </g>
  <defs>
    <linearGradient id="paint0_linear_4128_7250" x1="23.8215" y1="12.0762" x2="23.8215" y2="40.9467" gradientUnits="userSpaceOnUse">
      <stop stop-color="white"/>
      <stop offset="1" stop-color="#999999"/>
    </linearGradient>
    <linearGradient id="paint1_linear_4128_7250" x1="23.8503" y1="4.94727" x2="23.8503" y2="36.8873" gradientUnits="userSpaceOnUse">
      <stop stop-color="white"/>
      <stop offset="1" stop-color="#999999"/>
    </linearGradient>
  </defs>
</svg>
