<svg xmlns="http://www.w3.org/2000/svg" width="12" height="12" viewBox="0 0 12 12" fill="none">
  <rect width="12" height="12" rx="6" fill="#C8C8C8"/>
  <path d="M8.41973 9.47061C8.48195 8.99358 8.48195 8.30915 8.12937 7.6662C7.77678 7.02325 7.27901 6.50474 6.90569 6.1729C6.84347 6.11067 6.82273 6.04845 6.82273 5.98623C6.82273 5.92401 6.86421 5.84105 6.90569 5.79957C7.25827 5.48847 7.77678 4.94922 8.12937 4.30627C8.33677 3.95368 8.41973 3.58036 8.44047 3.22777H8.02567C8.02567 3.24851 8.02567 3.26925 8.02567 3.31073C8.02567 3.35221 8.02567 3.39369 8.00493 3.41443C8.00493 3.43517 8.00493 3.45591 7.98419 3.4974C7.96345 3.55962 7.96345 3.6011 7.9427 3.66332C7.9427 3.68406 7.94271 3.68406 7.92196 3.7048C7.90122 3.76702 7.88048 3.8085 7.85974 3.87072C7.85974 3.89146 7.839 3.9122 7.839 3.93294C7.81826 3.99516 7.77678 4.05738 7.75604 4.1196C7.67308 4.26479 7.59012 4.40997 7.48642 4.53441C7.44494 4.59663 7.38272 4.65885 7.34124 4.72107C7.15457 4.96996 6.94717 5.17736 6.76051 5.34328C6.71903 5.38476 6.65681 5.42624 6.61532 5.46773C6.47014 5.59217 6.38718 5.77883 6.38718 5.96549C6.38718 6.15216 6.47014 6.33882 6.61532 6.46326C6.71903 6.56696 6.84347 6.67066 6.96791 6.81585C6.98865 6.83659 7.00939 6.85733 7.03013 6.87807L7.05087 6.89881C7.29976 7.16843 7.54864 7.47954 7.7353 7.85286C7.77678 7.91508 7.79752 7.9773 7.81826 8.03952C7.81826 8.06026 7.839 8.081 7.839 8.10175C7.85974 8.16397 7.88048 8.20545 7.90122 8.26767C7.90122 8.28841 7.90122 8.28841 7.92196 8.30915C7.94271 8.37137 7.9427 8.41285 7.96344 8.47507C7.96344 8.49581 7.96345 8.51655 7.98419 8.55803C7.98419 8.59951 8.00493 8.64099 8.00493 8.68247C8.00493 8.72395 8.00493 8.76543 8.02567 8.80692C8.02567 8.8484 8.02567 8.86914 8.02567 8.91062C8.02567 8.9521 8.02567 8.97284 8.02567 9.01432C8.02567 9.03506 8.02567 9.0558 8.02567 9.07654C8.02567 9.13876 8.02567 9.20098 8.02567 9.24246C8.02567 9.2632 8.02567 9.2632 8.02567 9.28394C8.02567 9.32542 8.02567 9.34616 8.00493 9.38764C8.00493 9.40838 8.00493 9.40838 8.00493 9.42912C8.00493 9.44986 8.00493 9.47061 8.00493 9.49135C7.96344 9.67801 7.79752 9.82319 7.59012 9.82319H4.12649C3.91908 9.82319 3.75316 9.67801 3.71168 9.49135C3.71168 9.47061 3.71168 9.42912 3.69094 9.40838V9.38764C3.69094 9.34616 3.69094 9.32542 3.6702 9.28394V9.2632C3.6702 9.20098 3.6702 9.13876 3.64946 9.07654C3.64946 9.0558 3.64946 9.03506 3.64946 9.01432C3.64946 8.97284 3.64946 8.9521 3.64946 8.91062C3.64946 8.86914 3.64946 8.8484 3.64946 8.80692C3.64946 8.76543 3.64946 8.72395 3.6702 8.68247C3.6702 8.64099 3.6702 8.59951 3.69094 8.55803C3.69094 8.53729 3.69094 8.51655 3.71168 8.47507C3.73242 8.41285 3.73242 8.35063 3.75316 8.30915C3.75316 8.28841 3.75316 8.28841 3.75316 8.26767C3.7739 8.20545 3.79464 8.16397 3.81538 8.10175C3.81538 8.081 3.83612 8.06026 3.83612 8.03952C3.85686 7.9773 3.89834 7.91508 3.91908 7.85286C4.00205 7.70768 4.08501 7.5625 4.18871 7.43806C4.20945 7.39657 4.23019 7.37583 4.25093 7.35509C4.27167 7.31361 4.29241 7.29287 4.33389 7.25139C4.58277 6.94029 4.83166 6.67066 5.0598 6.484C5.20498 6.35956 5.28794 6.1729 5.28794 5.98623C5.28794 5.79957 5.20498 5.63365 5.08054 5.48847C5.08054 5.48847 5.08054 5.48847 5.0598 5.46773C4.72796 5.17736 4.25093 4.67959 3.93982 4.09886C3.89834 4.03664 3.8776 3.97442 3.85686 3.9122C3.85686 3.89146 3.83612 3.87072 3.83612 3.84998C3.81538 3.78776 3.79464 3.74628 3.7739 3.68406C3.7739 3.66332 3.7739 3.66332 3.75316 3.64258C3.73242 3.58036 3.73242 3.53888 3.71168 3.47666C3.71168 3.45591 3.71168 3.43517 3.69094 3.39369C3.69094 3.35221 3.6702 3.31073 3.6702 3.28999C3.6702 3.26925 3.6702 3.24851 3.6702 3.20703H3.25539C3.27613 3.55962 3.3591 3.93294 3.5665 4.28553C3.91908 4.92848 4.41685 5.44699 4.79018 5.77883C4.8524 5.84105 4.87314 5.90327 4.87314 5.96549C4.87314 6.02771 4.83166 6.11067 4.79018 6.15216C4.43759 6.46326 3.91908 6.98177 3.5665 7.64546C3.21391 8.28841 3.21391 8.97284 3.27613 9.44987C3.04799 9.55357 2.86133 9.80245 2.86133 10.0928C2.86133 10.2795 3.00651 10.4247 3.17243 10.4247H8.48195C8.64787 10.4247 8.79306 10.2795 8.79306 10.0928C8.83454 9.82319 8.66862 9.57431 8.41973 9.47061Z" fill="#131920"/>
  <path d="M6.1383 6.5052C6.07608 6.38076 6.0346 6.27706 6.01386 6.15262C5.99312 6.06966 5.93089 6.00744 5.84793 6.00744C5.76497 6.00744 5.70275 6.06966 5.68201 6.15262C5.66127 6.27706 5.61979 6.38076 5.57831 6.48446V6.5052C5.55757 6.54669 5.51609 6.60891 5.49535 6.65039L5.47461 6.67113C5.43313 6.71261 5.39165 6.75409 5.35017 6.79557C5.03906 7.06519 4.60351 7.52148 4.31315 8.06073C4.06427 8.53776 4.08501 9.05626 4.12649 9.40885H7.61086C7.67308 9.05626 7.69382 8.53776 7.4242 8.06073C7.13383 7.52148 6.69829 7.06519 6.38718 6.79557C6.3457 6.75409 6.30422 6.71261 6.26274 6.67113L6.242 6.65039C6.20052 6.60891 6.17978 6.56743 6.1383 6.5052ZM3.19317 2.81343H8.50269C8.66862 2.81343 8.8138 2.66825 8.8138 2.48158C8.8138 2.08752 8.52343 1.77641 8.15011 1.77641H6.63607C6.4494 1.56901 6.17978 1.42383 5.84793 1.42383C5.51609 1.42383 5.24646 1.56901 5.03906 1.77641H3.52502C3.17243 1.77641 2.86133 2.08752 2.86133 2.48158C2.88207 2.66825 3.02725 2.81343 3.19317 2.81343Z" fill="#131920"/>
</svg>
