<svg xmlns="http://www.w3.org/2000/svg" width="43" height="41" viewBox="0 0 43 41" fill="none">
  <g opacity="0.1">
    <path d="M13.3733 31.4581C13.5413 31.5089 13.7226 31.4916 13.8781 31.4101C14.0335 31.3286 14.1508 31.1893 14.2047 31.0222L14.9126 28.7524C14.9486 28.637 14.9525 28.5139 14.9237 28.3964C14.8949 28.2789 14.8346 28.1716 14.7493 28.0858C14.664 28.0001 14.5569 27.9394 14.4395 27.9101C14.3222 27.8808 14.1991 27.8841 14.0835 27.9197L11.7977 28.6222C11.6457 28.6687 11.5154 28.7683 11.4307 28.9028C11.3459 29.0374 11.3124 29.1979 11.3363 29.3551C11.3601 29.5123 11.4397 29.6557 11.5605 29.7591C11.6813 29.8624 11.8353 29.9189 11.9943 29.9182L9.1604 32.7318C9.03547 32.8559 8.96493 33.0246 8.96431 33.2006C8.96369 33.3767 9.03303 33.5459 9.15708 33.6708C9.28255 33.7931 9.45068 33.8619 9.62591 33.8625C9.80114 33.8631 9.96974 33.7956 10.0961 33.6741L12.9097 30.8804C12.9208 31.0119 12.9708 31.137 13.0534 31.2399C13.136 31.3429 13.2473 31.4188 13.3733 31.4581ZM35.9977 20.2829L33.712 20.9855C33.5597 21.0317 33.4292 21.1312 33.3443 21.2658C33.2594 21.4003 33.2258 21.561 33.2497 21.7183C33.2736 21.8756 33.3533 22.0191 33.4743 22.1224C33.5953 22.2258 33.7494 22.2821 33.9086 22.2811L31.0746 25.095C30.9497 25.2191 30.8792 25.3878 30.8786 25.5639C30.8779 25.7399 30.9473 25.9091 31.0713 26.034C31.1964 26.1572 31.3646 26.2265 31.5401 26.2272C31.7157 26.2278 31.8844 26.1597 32.0103 26.0374L34.824 23.2436C34.8351 23.3751 34.8851 23.5003 34.9677 23.6032C35.0502 23.7061 35.1616 23.782 35.2875 23.8214C35.4556 23.8717 35.6366 23.8542 35.792 23.7727C35.9474 23.6913 36.0647 23.5523 36.1189 23.3854L36.8268 21.1156C36.8629 21.0002 36.8667 20.8771 36.838 20.7596C36.8092 20.6421 36.7489 20.5348 36.6635 20.4491C36.5782 20.3634 36.4711 20.3026 36.3538 20.2733C36.2364 20.244 36.1133 20.2473 35.9977 20.2829ZM17.5971 11.6175C17.7721 11.6188 17.9405 11.5506 18.0652 11.4279L20.8785 8.63413C20.8896 8.76559 20.9397 8.89076 21.0222 8.99367C21.1048 9.09657 21.2161 9.17254 21.3421 9.21187C21.5101 9.26207 21.6912 9.24458 21.8465 9.16312C22.0019 9.08167 22.1192 8.9427 22.1735 8.7759L22.8814 6.50612C22.9174 6.39068 22.9213 6.26759 22.8925 6.15012C22.8638 6.03265 22.8034 5.92527 22.7181 5.83957C22.6328 5.75386 22.5257 5.69308 22.4083 5.6638C22.291 5.63451 22.1679 5.63782 22.0523 5.67338L19.7666 6.37596C19.6145 6.4224 19.4842 6.52199 19.3995 6.65654C19.3148 6.79109 19.2813 6.95162 19.3051 7.10883C19.329 7.26603 19.4085 7.40941 19.5294 7.51279C19.6502 7.61617 19.8041 7.67264 19.9631 7.67189C19.9631 7.67189 17.1329 10.4819 17.1292 10.4855C17.0396 10.5794 16.9791 10.6972 16.9551 10.8248C16.9312 10.9523 16.9449 11.0841 16.9944 11.204C17.044 11.324 17.1273 11.4269 17.2343 11.5004C17.3413 11.5738 17.4673 11.6143 17.5971 11.6175ZM42.3027 0.198137C42.2284 0.122341 42.1369 0.0655685 42.036 0.0326244C41.9351 -0.000319705 41.8277 -0.00846512 41.723 0.00887771L32.7205 1.57276C32.6017 1.59547 32.4912 1.64995 32.4008 1.73041C32.3104 1.81086 32.2435 1.9143 32.2072 2.02973C32.1708 2.14516 32.1664 2.26827 32.1945 2.38599C32.2225 2.50372 32.2818 2.61166 32.3663 2.69835L33.5981 3.92223L23.4322 14.3106C23.3699 14.3726 23.3205 14.4464 23.2869 14.5277C23.2533 14.609 23.2362 14.6962 23.2365 14.7841C23.2369 14.8721 23.2548 14.9591 23.289 15.0401C23.3233 15.1211 23.3733 15.1945 23.4362 15.256C23.4991 15.3175 23.5736 15.3659 23.6553 15.3984C23.737 15.4309 23.8244 15.4469 23.9124 15.4453C24.0003 15.4437 24.0871 15.4247 24.1676 15.3894C24.2481 15.354 24.3208 15.303 24.3815 15.2393L35.0086 4.38011C35.1311 4.25485 35.1991 4.08626 35.1979 3.91107C35.1966 3.73587 35.1262 3.56827 35.0019 3.44477L34.2137 2.6615L41.0187 1.47946L39.8291 8.24133L39.0312 7.4481C38.9044 7.32545 38.7346 7.2575 38.5582 7.25886C38.3818 7.26023 38.213 7.33081 38.0882 7.45541L25.0622 20.7849C25.0012 20.8473 24.9531 20.9211 24.9207 21.0021C24.8882 21.083 24.872 21.1696 24.873 21.2568C24.8741 21.3441 24.8923 21.4303 24.9266 21.5105C24.9609 21.5906 25.0107 21.6633 25.0731 21.7242C25.2002 21.8454 25.3696 21.9121 25.5451 21.91C25.7206 21.9079 25.8884 21.8371 26.0125 21.7129L38.57 8.8619L39.7945 10.0791C39.8814 10.1627 39.9892 10.2212 40.1066 10.2486C40.224 10.276 40.3466 10.2713 40.4615 10.2348C40.5764 10.1984 40.6793 10.1316 40.7594 10.0416C40.8396 9.95154 40.8939 9.84155 40.9168 9.7232C40.9168 9.7232 42.4887 0.788494 42.4906 0.778201C42.5085 0.673446 42.5007 0.565922 42.4679 0.464839C42.4351 0.363757 42.3783 0.272129 42.3024 0.197805L42.3027 0.198137ZM12.3951 22.0712C12.4813 22.152 12.5871 22.2087 12.7021 22.2358C12.817 22.2629 12.9371 22.2594 13.0502 22.2257C13.1634 22.192 13.2658 22.1292 13.3472 22.0436C13.4285 21.958 13.4861 21.8526 13.514 21.7379C13.514 21.7379 15.2569 13.4314 15.2595 13.4174C15.28 13.3097 15.2738 13.1987 15.2416 13.0939C15.2093 12.9891 15.152 12.8938 15.0745 12.8163C14.9971 12.7387 14.9018 12.6812 14.7971 12.6489C14.6924 12.6165 14.5813 12.6102 14.4736 12.6305C14.4736 12.6305 6.16147 14.3697 6.14155 14.3737C6.02618 14.401 5.92006 14.4582 5.83388 14.5396C5.7477 14.621 5.68452 14.7237 5.6507 14.8373C5.61689 14.951 5.61365 15.0715 5.6413 15.1868C5.66895 15.3021 5.72651 15.408 5.80819 15.4939L6.83151 16.5156L0.885117 21.8424C0.753951 21.96 0.674857 22.1249 0.665237 22.3007C0.655616 22.4766 0.716257 22.6491 0.833818 22.7803C0.951379 22.9114 1.11623 22.9905 1.29211 23.0002C1.46799 23.0098 1.64048 22.9491 1.77165 22.8316C1.77165 22.8316 8.22838 17.0469 8.24 17.0362C8.30592 16.9752 8.35897 16.9016 8.39605 16.8197C8.43312 16.7379 8.45348 16.6495 8.45593 16.5597C8.45837 16.4698 8.44285 16.3804 8.41027 16.2967C8.3777 16.213 8.32873 16.1366 8.26623 16.072L7.61545 15.4226L13.7508 14.1389L12.4658 20.2656L11.813 19.6138C11.6893 19.4902 11.5218 19.4204 11.347 19.4195C11.1721 19.4187 11.0039 19.4868 10.879 19.6092L0.199799 30.0722C0.137426 30.1332 0.0876802 30.2059 0.0534048 30.2861C0.0191294 30.3663 0.000995738 30.4525 3.9869e-05 30.5398C-0.000916 30.627 0.0153247 30.7136 0.0478339 30.7945C0.0803432 30.8755 0.128484 30.9492 0.189506 31.0116C0.314556 31.1339 0.48204 31.2033 0.657001 31.2052C0.831962 31.207 1.00088 31.1412 1.1285 31.0215L11.3395 21.0173L12.3951 22.0712ZM29.0831 27.2436L20.7623 28.9895C20.6464 29.0157 20.5395 29.0723 20.4526 29.1534C20.3658 29.2346 20.3021 29.3374 20.2681 29.4513C20.2342 29.5652 20.2311 29.6862 20.2593 29.8016C20.2875 29.9171 20.346 30.023 20.4286 30.1084L21.4752 31.156L11.1543 41.3667C11.0922 41.428 11.0429 41.501 11.0091 41.5814C10.9753 41.6618 10.9576 41.7481 10.9572 41.8353C10.9567 41.9226 10.9734 42.009 11.0064 42.0898C11.0394 42.1706 11.0879 42.244 11.1493 42.306C11.2741 42.4295 11.4424 42.4991 11.6179 42.5C11.7935 42.5009 11.9624 42.4331 12.0886 42.311C12.0886 42.311 22.8631 31.6511 22.8834 31.6311C23.0057 31.5052 23.0744 31.3367 23.075 31.1611C23.0755 30.9855 23.0079 30.8165 22.8864 30.6898L22.2349 30.0374L28.3609 28.7524L27.0776 34.8871L26.4278 34.2363C26.2996 34.1122 26.1276 34.0439 25.9492 34.0464C25.7708 34.0488 25.6007 34.1217 25.4759 34.2492L19.3489 40.7182C19.2872 40.7812 19.2388 40.8559 19.2063 40.9378C19.1738 41.0197 19.1579 41.1072 19.1596 41.1953C19.1612 41.2834 19.1804 41.3703 19.216 41.4509C19.2516 41.5315 19.3029 41.6043 19.3669 41.6649C19.4309 41.7255 19.5063 41.7727 19.5887 41.8039C19.6711 41.835 19.759 41.8495 19.847 41.8463C19.9351 41.8432 20.0217 41.8226 20.1017 41.7857C20.1817 41.7488 20.2536 41.6963 20.3131 41.6313L25.971 35.658L27.0062 36.695C27.0918 36.7775 27.1977 36.8358 27.3132 36.8639C27.4287 36.8921 27.5496 36.889 27.6635 36.8551C27.7774 36.8212 27.8803 36.7577 27.9616 36.6709C28.0429 36.5842 28.0997 36.4775 28.1262 36.3616C28.1262 36.3616 29.865 28.0488 29.8694 28.0292C29.8896 27.9216 29.8832 27.8106 29.8509 27.7059C29.8185 27.6013 29.761 27.5061 29.6835 27.4287C29.606 27.3513 29.5108 27.294 29.4061 27.2617C29.3014 27.2295 29.1907 27.2233 29.0831 27.2436ZM21.445 24.1006C21.3205 24.2251 21.2506 24.394 21.2506 24.5701C21.2506 24.7462 21.3205 24.9151 21.445 25.0396C21.5717 25.1599 21.7398 25.2269 21.9145 25.2269C22.0892 25.2269 22.2573 25.1599 22.384 25.0396L23.7121 23.7115C23.8331 23.5862 23.9 23.4185 23.8985 23.2444C23.897 23.0702 23.8272 22.9037 23.704 22.7806C23.5809 22.6574 23.4144 22.5876 23.2402 22.5861C23.0661 22.5846 22.8984 22.6515 22.7731 22.7725L21.445 24.1006ZM18.0675 20.7232L19.3957 19.395C19.5166 19.2698 19.5836 19.102 19.5821 18.9279C19.5806 18.7538 19.5107 18.5872 19.3876 18.4641C19.2645 18.341 19.0979 18.2712 18.9238 18.2696C18.7497 18.2681 18.5819 18.3351 18.4567 18.456L17.1286 19.7842C17.0076 19.9094 16.9407 20.0772 16.9422 20.2513C16.9437 20.4254 17.0135 20.5919 17.1366 20.7151C17.2598 20.8382 17.4263 20.908 17.6004 20.9095C17.7746 20.9111 17.9423 20.8441 18.0675 20.7232ZM19.7848 21.4443L17.7926 23.4365C17.7041 23.5306 17.6447 23.6482 17.6215 23.7753C17.5984 23.9023 17.6124 24.0333 17.6621 24.1526C17.7117 24.2718 17.7948 24.3741 17.9012 24.4472C18.0077 24.5203 18.133 24.561 18.2621 24.5645C18.4375 24.5661 18.6064 24.498 18.7316 24.3752L20.7238 22.3833C20.8448 22.2581 20.9117 22.0903 20.9102 21.9162C20.9087 21.7421 20.8389 21.5755 20.7157 21.4524C20.5926 21.3293 20.4261 21.2595 20.2519 21.2579C20.0778 21.2564 19.9101 21.3234 19.7848 21.4443ZM26.895 6.63362C26.9818 6.63469 27.0679 6.61865 27.1485 6.5864C27.229 6.55415 27.3024 6.50634 27.3645 6.44569L28.6926 5.11755C28.8136 4.99231 28.8805 4.82456 28.879 4.65045C28.8775 4.47633 28.8077 4.30977 28.6845 4.18665C28.5614 4.06353 28.3949 3.99369 28.2208 3.99217C28.0466 3.99066 27.8789 4.0576 27.7536 4.17856L26.4255 5.5067C26.3361 5.60034 26.2759 5.71798 26.2523 5.84525C26.2287 5.97253 26.2426 6.10393 26.2924 6.22343C26.3422 6.34292 26.4256 6.44534 26.5327 6.51818C26.6397 6.59102 26.7656 6.63113 26.895 6.63362ZM36.7186 14.8037L35.3904 16.1318C35.2695 16.257 35.2025 16.4248 35.204 16.5989C35.2056 16.773 35.2754 16.9396 35.3985 17.0627C35.5216 17.1858 35.6882 17.2557 35.8623 17.2572C36.0364 17.2587 36.2042 17.1917 36.3294 17.0708L37.6576 15.7426C37.7785 15.6174 37.8455 15.4497 37.8439 15.2755C37.8424 15.1014 37.7726 14.9349 37.6495 14.8117C37.5263 14.6886 37.3598 14.6188 37.1857 14.6173C37.0116 14.6158 36.8438 14.6827 36.7186 14.8037Z" fill="url(#paint0_linear_4128_7005)"/>
  </g>
  <defs>
    <linearGradient id="paint0_linear_4128_7005" x1="21.25" y1="0" x2="21.25" y2="42.5" gradientUnits="userSpaceOnUse">
      <stop stop-color="#00FFA3"/>
      <stop offset="1" stop-color="#009962"/>
    </linearGradient>
  </defs>
</svg>
