<svg xmlns="http://www.w3.org/2000/svg" width="12" height="12" viewBox="0 0 12 12" fill="none">
  <g clip-path="url(#clip0_4128_7028)">
    <rect width="12" height="12" rx="6" fill="#00FFA3"/>
    <path d="M-0.0414195 10.2224L2.36826 7.23337L4.36493 8.57203C4.47626 8.64603 4.61359 8.6727 4.74093 8.64737C4.87093 8.62203 4.98559 8.5447 5.05893 8.4347L7.41093 4.91737L7.64826 6.11403C7.70226 6.38537 7.97159 6.5587 8.23559 6.50737C8.50626 6.45403 8.68293 6.1907 8.62893 5.92003L8.15759 3.53939C8.15293 3.51872 8.13959 3.50072 8.13293 3.48072C8.11959 3.43938 8.10826 3.39805 8.08359 3.36139C8.04759 3.30672 8.00093 3.25872 7.94493 3.22139C7.90359 3.19339 7.85826 3.17205 7.81093 3.15805C7.76359 3.14405 7.71493 3.13672 7.66693 3.13672C7.63493 3.13672 7.60226 3.14005 7.56959 3.14672L5.18826 3.62005C4.91693 3.67339 4.74159 3.93672 4.79559 4.20739C4.84893 4.47805 5.11159 4.65139 5.38359 4.60005L6.57959 4.36272L4.50626 7.4627L2.54559 6.14803C2.33026 6.0047 2.04026 6.04737 1.87759 6.24937L-0.316406 8.96803C-0.307533 9.20177 -0.249753 9.78756 -0.0414195 10.2224Z" fill="#006641"/>
  </g>
  <defs>
    <clipPath id="clip0_4128_7028">
      <rect width="12" height="12" rx="6" fill="white"/>
    </clipPath>
  </defs>
</svg>
