<svg xmlns="http://www.w3.org/2000/svg" width="32" height="33" viewBox="0 0 32 33" fill="none">
  <g opacity="0.1">
    <path d="M16 20.5C16.2652 20.5 16.5196 20.3946 16.7071 20.2071C16.8946 20.0196 17 19.7652 17 19.5V12.5C17 12.2348 16.8946 11.9804 16.7071 11.7929C16.5196 11.6054 16.2652 11.5 16 11.5C15.7348 11.5 15.4804 11.6054 15.2929 11.7929C15.1054 11.9804 15 12.2348 15 12.5V19.5C15 19.7652 15.1054 20.0196 15.2929 20.2071C15.4804 20.3946 15.7348 20.5 16 20.5Z" fill="#F14056"/>
    <path d="M16 24.5C16.5523 24.5 17 24.0523 17 23.5C17 22.9477 16.5523 22.5 16 22.5C15.4477 22.5 15 22.9477 15 23.5C15 24.0523 15.4477 24.5 16 24.5Z" fill="#F14056"/>
    <path d="M4.07574 29.4999H27.9237C28.457 29.5003 28.9809 29.3592 29.4419 29.091C29.9029 28.8229 30.2845 28.4372 30.5478 27.9735C30.8111 27.5097 30.9467 26.9844 30.9407 26.4511C30.9347 25.9178 30.7874 25.3957 30.5137 24.9379L18.5887 4.96991C18.3213 4.52179 17.9421 4.15076 17.4883 3.8931C17.0345 3.63545 16.5216 3.5 15.9997 3.5C15.4779 3.5 14.965 3.63545 14.5111 3.8931C14.0573 4.15076 13.6782 4.52179 13.4107 4.96991L1.48573 24.9379C1.21209 25.3957 1.06477 25.9178 1.05878 26.4511C1.0528 26.9844 1.18837 27.5097 1.45168 27.9735C1.71498 28.4372 2.09659 28.8229 2.55757 29.091C3.01856 29.3592 3.54243 29.5003 4.07574 29.4999ZM3.19973 25.9629L15.1267 5.99991C15.219 5.8515 15.3476 5.72907 15.5004 5.64418C15.6531 5.55928 15.825 5.51473 15.9997 5.51473C16.1745 5.51473 16.3464 5.55928 16.4991 5.64418C16.6519 5.72907 16.7805 5.8515 16.8727 5.99991L28.7997 25.9629C28.8891 26.1179 28.9364 26.2935 28.9368 26.4724C28.9373 26.6512 28.8909 26.8271 28.8023 26.9825C28.7138 27.1379 28.5861 27.2674 28.4319 27.3582C28.2778 27.449 28.1026 27.4978 27.9237 27.4999H4.07574C3.89688 27.4978 3.72167 27.449 3.56754 27.3582C3.41341 27.2674 3.28571 27.1379 3.19714 26.9825C3.10857 26.8271 3.06221 26.6512 3.06266 26.4724C3.06312 26.2935 3.11037 26.1179 3.19973 25.9629Z" fill="#F14056"/>
  </g>
</svg>
