<svg width="158" height="128" viewBox="0 0 158 128" fill="none" xmlns="http://www.w3.org/2000/svg">
<g opacity="0.2" clip-path="url(#clip0_2748_4294)">
<path opacity="0.47" d="M156.816 105.659C156.816 106.118 156.442 106.495 155.986 106.495C155.529 106.495 155.155 106.118 155.155 105.659C155.155 105.199 155.529 104.822 155.986 104.822C156.442 104.822 156.816 105.199 156.816 105.659Z" fill="white"/>
<path opacity="0.47" d="M46.5169 50.5167C46.5169 51.1315 46.0221 51.6301 45.4118 51.6301C44.8015 51.6301 44.3066 51.1315 44.3066 50.5167C44.3066 49.9018 44.8015 49.4033 45.4118 49.4033C46.0221 49.4033 46.5169 49.9018 46.5169 50.5167Z" fill="white"/>
<path opacity="0.92" d="M47.9027 17.3757C47.9027 18.1456 47.2814 18.766 46.5226 18.766C45.7639 18.766 45.1426 18.1401 45.1426 17.3757C45.1426 16.6113 45.7639 15.9854 46.5226 15.9854C47.2814 15.9854 47.9027 16.6113 47.9027 17.3757Z" fill="white"/>
<path opacity="0.47" d="M17.1233 103.62C17.1233 103.93 16.8759 104.179 16.568 104.179C16.2601 104.179 16.0127 103.93 16.0127 103.62C16.0127 103.31 16.2601 103.061 16.568 103.061C16.8759 103.061 17.1233 103.31 17.1233 103.62Z" fill="white"/>
<path opacity="0.47" d="M36.1586 67.4658C36.1586 67.6708 35.9937 67.837 35.7903 67.837C35.5868 67.837 35.4219 67.6708 35.4219 67.4658C35.4219 67.2609 35.5868 67.0947 35.7903 67.0947C35.9937 67.0947 36.1586 67.2609 36.1586 67.4658Z" fill="white"/>
<path opacity="0.92" d="M41.8161 121.068C41.8161 121.583 41.4038 121.999 40.8924 121.999C40.3811 121.999 39.9688 121.583 39.9688 121.068C39.9688 120.553 40.3811 120.138 40.8924 120.138C41.4038 120.138 41.8161 120.553 41.8161 121.068Z" fill="white"/>
<path opacity="0.47" d="M134.433 2.80188C134.433 3.06222 134.224 3.27271 133.965 3.27271C133.707 3.27271 133.498 3.06222 133.498 2.80188C133.498 2.54154 133.707 2.33105 133.965 2.33105C134.224 2.33105 134.433 2.54154 134.433 2.80188Z" fill="white"/>
<path opacity="0.47" d="M114.216 111.945C114.216 112.239 113.979 112.471 113.693 112.471C113.407 112.471 113.171 112.233 113.171 111.945C113.171 111.657 113.407 111.419 113.693 111.419C113.979 111.419 114.216 111.657 114.216 111.945Z" fill="white"/>
<path opacity="0.71" d="M5.88016 76.1395C5.88016 76.4497 5.63274 76.699 5.32485 76.699C5.01695 76.699 4.76953 76.4497 4.76953 76.1395C4.76953 75.8293 5.01695 75.5801 5.32485 75.5801C5.63274 75.5801 5.88016 75.8293 5.88016 76.1395Z" fill="white"/>
<path opacity="0.47" d="M28.5858 9.22151L28.8827 10.1244C28.9762 10.4124 29.2016 10.6395 29.4875 10.7337L30.3837 11.0328C30.4882 11.066 30.4882 11.2156 30.3837 11.2488L29.4875 11.5479C29.2016 11.6421 28.9762 11.8692 28.8827 12.1573L28.5858 13.0601C28.5528 13.1654 28.4043 13.1654 28.3714 13.0601L28.0745 12.1573C27.981 11.8692 27.7556 11.6421 27.4697 11.5479L26.5735 11.2488C26.469 11.2156 26.469 11.066 26.5735 11.0328L27.4697 10.7337C27.7556 10.6395 27.981 10.4124 28.0745 10.1244L28.3714 9.22151C28.4043 9.11627 28.5528 9.11627 28.5858 9.22151Z" fill="white"/>
<path opacity="0.47" d="M135.807 44.1118C135.807 44.5715 135.433 44.9482 134.977 44.9482C134.52 44.9482 134.146 44.5715 134.146 44.1118C134.146 43.652 134.52 43.2754 134.977 43.2754C135.433 43.2754 135.807 43.652 135.807 44.1118Z" fill="white"/>
<path opacity="0.92" d="M108.162 14.871C108.162 15.1812 107.915 15.4304 107.607 15.4304C107.299 15.4304 107.052 15.1812 107.052 14.871C107.052 14.5608 107.299 14.3115 107.607 14.3115C107.915 14.3115 108.162 14.5608 108.162 14.871Z" fill="white"/>
<path opacity="0.47" d="M151.84 17.6522C151.84 17.9624 151.593 18.2117 151.285 18.2117C150.977 18.2117 150.729 17.9624 150.729 17.6522C150.729 17.342 150.977 17.0928 151.285 17.0928C151.593 17.0928 151.84 17.342 151.84 17.6522Z" fill="white"/>
<path opacity="0.92" d="M143.11 25.1014L143.407 26.0043C143.501 26.2923 143.726 26.5194 144.012 26.6136L144.908 26.9127C145.013 26.9459 145.013 27.0955 144.908 27.1287L144.012 27.4278C143.726 27.522 143.501 27.7491 143.407 28.0371L143.11 28.94C143.077 29.0453 142.929 29.0453 142.896 28.94L142.599 28.0371C142.505 27.7491 142.28 27.522 141.994 27.4278L141.098 27.1287C140.993 27.0955 140.993 26.9459 141.098 26.9127L141.994 26.6136C142.28 26.5194 142.505 26.2923 142.599 26.0043L142.896 25.1014C142.929 24.9962 143.077 24.9962 143.11 25.1014Z" fill="white"/>
<path opacity="0.92" d="M145.731 68.6282L146.001 69.4536C146.089 69.7194 146.292 69.9244 146.556 70.013L147.375 70.2844C147.469 70.3177 147.469 70.4506 147.375 70.4838L146.556 70.7553C146.292 70.8439 146.089 71.0488 146.001 71.3147L145.731 72.1401C145.698 72.2342 145.561 72.2342 145.533 72.1401L145.264 71.3147C145.176 71.0488 144.973 70.8439 144.709 70.7553L143.889 70.4838C143.796 70.4506 143.796 70.3177 143.889 70.2844L144.709 70.013C144.973 69.9244 145.176 69.7194 145.264 69.4536L145.533 68.6282C145.566 68.5341 145.698 68.5341 145.731 68.6282Z" fill="white"/>
<path opacity="0.47" d="M121.407 69.7415L121.677 70.5669C121.765 70.8327 121.968 71.0377 122.232 71.1263L123.051 71.3977C123.145 71.431 123.145 71.5639 123.051 71.5971L122.232 71.8685C121.968 71.9572 121.765 72.1621 121.677 72.428L121.407 73.2533C121.374 73.3475 121.242 73.3475 121.209 73.2533L120.94 72.428C120.852 72.1621 120.648 71.9572 120.384 71.8685L119.565 71.5971C119.472 71.5639 119.472 71.431 119.565 71.3977L120.384 71.1263C120.648 71.0377 120.852 70.8327 120.94 70.5669L121.209 69.7415C121.242 69.6474 121.374 69.6474 121.407 69.7415Z" fill="white"/>
<path opacity="0.47" d="M56.5457 0.0937817L56.6722 0.470443C56.7107 0.592304 56.8041 0.686469 56.9251 0.725243L57.299 0.852643C57.343 0.869261 57.343 0.930191 57.299 0.946809L56.9251 1.07421C56.8041 1.11298 56.7107 1.20715 56.6722 1.32901L56.5457 1.70567C56.5292 1.74998 56.4688 1.74998 56.4523 1.70567L56.3258 1.32901C56.2873 1.20715 56.1938 1.11298 56.0729 1.07421L55.699 0.946809C55.655 0.930191 55.655 0.869261 55.699 0.852643L56.0729 0.725243C56.1938 0.686469 56.2873 0.592304 56.3258 0.470443L56.4523 0.0937817C56.4688 0.0494686 56.5292 0.0494686 56.5457 0.0937817Z" fill="white"/>
</g>
<defs>
<clipPath id="clip0_2748_4294">
<rect width="264" height="134" fill="white" transform="translate(-53 -3)"/>
</clipPath>
</defs>
</svg>
