<svg width="16" height="16" viewBox="0 0 16 16" fill="none" xmlns="http://www.w3.org/2000/svg">
<g clip-path="url(#clip0_7889_34607)">
<path d="M7.48145 5.60135C7.63195 5.53864 7.79339 5.50635 7.95645 5.50635C8.1195 5.50635 8.28094 5.53864 8.43145 5.60135" stroke="white" stroke-linecap="round" stroke-linejoin="round"/>
<path d="M10.4668 12.926H13.6295C13.8161 12.926 13.9951 12.8519 14.1271 12.7199C14.2591 12.5879 14.3332 12.4089 14.3332 12.2223V11.3663C14.3332 11.2496 14.3042 11.1347 14.2487 11.032C14.1933 10.9293 14.1132 10.842 14.0156 10.778L10.5332 8.49268" stroke="white" stroke-linecap="round" stroke-linejoin="round"/>
<path d="M5.5334 12.926H2.37073C2.27832 12.926 2.18681 12.9078 2.10142 12.8725C2.01604 12.8371 1.93846 12.7853 1.87311 12.7199C1.80777 12.6546 1.75593 12.577 1.72056 12.4916C1.6852 12.4062 1.66699 12.3147 1.66699 12.2223V11.3663C1.66699 11.2496 1.69602 11.1347 1.75147 11.032C1.80691 10.9293 1.88703 10.842 1.98461 10.778L5.46699 8.49268" stroke="white" stroke-linecap="round" stroke-linejoin="round"/>
<path d="M8 10.2739V12.4114" stroke="white" stroke-linecap="round" stroke-linejoin="round"/>
<path d="M6.34294 13.9426L5.85732 13.457C5.73351 13.3332 5.6353 13.1862 5.56829 13.0245C5.50128 12.8627 5.4668 12.6893 5.4668 12.5142V5.62017C5.4668 4.30523 5.98916 3.04414 6.91896 2.11434C7.06094 1.97236 7.2295 1.85973 7.41501 1.78289C7.60051 1.70605 7.79934 1.6665 8.00013 1.6665C8.20092 1.6665 8.39975 1.70605 8.58525 1.78289C8.77076 1.85973 8.93932 1.97236 9.0813 2.11434C9.54169 2.57473 9.90689 3.1213 10.1561 3.72283C10.4052 4.32436 10.5335 4.96908 10.5335 5.62018V12.5142C10.5335 12.6893 10.499 12.8627 10.432 13.0245C10.365 13.1862 10.2667 13.3332 10.1429 13.457L9.65732 13.9426C9.53351 14.0665 9.38653 14.1647 9.22476 14.2317C9.06299 14.2987 8.88961 14.3332 8.71451 14.3332H7.28575C7.11065 14.3332 6.93727 14.2987 6.7755 14.2317C6.61373 14.1647 6.46675 14.0665 6.34294 13.9426Z" stroke="white" stroke-linecap="round" stroke-linejoin="round"/>
</g>
<defs>
<clipPath id="clip0_7889_34607">
<rect width="16" height="16" fill="white"/>
</clipPath>
</defs>
</svg>
