<svg width="14" height="14" viewBox="0 0 14 14" fill="none" xmlns="http://www.w3.org/2000/svg">
<path d="M6.25333 8.41339C6.07653 8.41335 5.90699 8.34309 5.782 8.21806C5.22077 7.66427 4.8781 6.92665 4.81687 6.14059C4.75564 5.35452 4.97996 4.57274 5.44866 3.93872C5.54574 3.79552 5.65746 3.66281 5.782 3.54272L8.022 1.30206C8.64207 0.68207 9.48304 0.3338 10.3599 0.333862C11.2368 0.333925 12.0777 0.682315 12.6977 1.30239C13.3177 1.92247 13.6659 2.76344 13.6659 3.64029C13.6658 4.51715 13.3174 5.35807 12.6973 5.97806L11.4707 7.20472C11.4092 7.2684 11.3356 7.31919 11.2543 7.35413C11.1729 7.38906 11.0855 7.40746 10.9969 7.40823C10.9084 7.40899 10.8206 7.39213 10.7387 7.35861C10.6568 7.32509 10.5823 7.27558 10.5197 7.21299C10.4571 7.15039 10.4076 7.07596 10.3741 6.99403C10.3406 6.9121 10.3237 6.82431 10.3245 6.73579C10.3253 6.64727 10.3437 6.55979 10.3786 6.47845C10.4135 6.39712 10.4643 6.32356 10.528 6.26206L11.7547 5.03539C12.1239 4.66489 12.3312 4.16314 12.3312 3.64006C12.3312 3.11698 12.1239 2.61523 11.7547 2.24472C11.3789 1.8859 10.8793 1.68567 10.3597 1.68567C9.84007 1.68567 9.34046 1.8859 8.96466 2.24472L6.72533 4.48472C6.65888 4.54928 6.59903 4.6203 6.54666 4.69672C6.25895 5.07523 6.11847 5.54533 6.15133 6.01964C6.18419 6.49394 6.38817 6.94018 6.72533 7.27539C6.81854 7.36863 6.88201 7.4874 6.90772 7.6167C6.93343 7.74601 6.92023 7.88003 6.86978 8.00183C6.81934 8.12363 6.73391 8.22774 6.6243 8.30099C6.5147 8.37425 6.38516 8.41336 6.25333 8.41339ZM5.97866 12.6981L8.218 10.4581C8.56763 10.112 8.83312 9.69027 8.994 9.22539C9.20262 8.63669 9.24047 8.00098 9.10315 7.39168C8.96584 6.78239 8.65898 6.22436 8.218 5.78206C8.1565 5.71838 8.08294 5.6676 8.0016 5.63266C7.92026 5.59772 7.83279 5.57933 7.74427 5.57856C7.65575 5.57779 7.56796 5.59466 7.48603 5.62818C7.4041 5.6617 7.32966 5.7112 7.26707 5.7738C7.20447 5.83639 7.15497 5.91082 7.12145 5.99276C7.08793 6.07469 7.07106 6.16247 7.07183 6.25099C7.0726 6.33951 7.09099 6.42699 7.12593 6.50833C7.16087 6.58966 7.21166 6.66323 7.27533 6.72472C7.54228 6.98871 7.72756 7.32399 7.80902 7.69049C7.89047 8.05698 7.86466 8.43918 7.73466 8.79139C7.63919 9.06558 7.48204 9.31419 7.27533 9.51806L5.036 11.7581C4.6602 12.1169 4.16059 12.3171 3.641 12.3171C3.1214 12.3171 2.62179 12.1169 2.246 11.7581C1.87675 11.3876 1.66942 10.8858 1.66942 10.3627C1.66942 9.83965 1.87675 9.33789 2.246 8.96739L3.47266 7.74072C3.53798 7.6798 3.59039 7.60637 3.62678 7.5248C3.66317 7.44322 3.68279 7.35517 3.68449 7.26587C3.68618 7.17656 3.66992 7.08782 3.63665 7.00493C3.60339 6.92203 3.5538 6.84667 3.49085 6.78331C3.42789 6.71995 3.35284 6.66988 3.27016 6.63609C3.18747 6.6023 3.09884 6.58547 3.00953 6.58659C2.92021 6.58772 2.83204 6.60679 2.75023 6.64265C2.66843 6.67852 2.59467 6.73046 2.53333 6.79539L1.30666 8.02206C0.999633 8.32904 0.756075 8.6935 0.589894 9.09461C0.423714 9.49573 0.338166 9.92565 0.338135 10.3598C0.338104 10.794 0.42359 11.2239 0.589714 11.6251C0.755837 12.0262 0.999344 12.3907 1.30633 12.6977C1.61332 13.0048 1.97777 13.2483 2.37889 13.4145C2.78 13.5807 3.20992 13.6662 3.64409 13.6663C4.07827 13.6663 4.5082 13.5808 4.90934 13.4147C5.31048 13.2486 5.67497 13.005 5.982 12.6981H5.97866Z" fill="white"/>
</svg>
