<svg width="9" height="9" viewBox="0 0 9 9" fill="none" xmlns="http://www.w3.org/2000/svg">
<path fill-rule="evenodd" clip-rule="evenodd" d="M7.16366 2.80155L1.95493 8.01028C1.8656 8.09961 1.73287 8.13823 1.58594 8.11764C1.43902 8.09705 1.28994 8.01894 1.17149 7.90049C1.05304 7.78204 0.974926 7.63296 0.954336 7.48603C0.933746 7.33911 0.972365 7.20638 1.0617 7.11705L6.27141 1.90734L3.03098 1.90734C2.94801 1.90734 2.86585 1.89099 2.78919 1.85924C2.71254 1.82749 2.64289 1.78095 2.58422 1.72228C2.52555 1.66361 2.47901 1.59396 2.44726 1.51731C2.41551 1.44065 2.39917 1.3585 2.39917 1.27552C2.39917 1.19255 2.41551 1.1104 2.44726 1.03374C2.47901 0.957085 2.52555 0.887436 2.58422 0.828767C2.64289 0.770098 2.71254 0.723558 2.78919 0.691806C2.86585 0.660055 2.94801 0.643713 3.03098 0.643713L7.79487 0.643712C7.87806 0.643752 7.96042 0.660181 8.03726 0.69206C8.1141 0.723939 8.1839 0.770642 8.24268 0.829505C8.30148 0.88802 8.34808 0.95763 8.37977 1.0343C8.41146 1.11097 8.42761 1.19316 8.42728 1.27612L8.42728 6.04002C8.42728 6.12299 8.41094 6.20514 8.37919 6.2818C8.34744 6.35845 8.3009 6.4281 8.24223 6.48677C8.18356 6.54544 8.11391 6.59198 8.03725 6.62373C7.9606 6.65548 7.87844 6.67183 7.79547 6.67183C7.7125 6.67183 7.63034 6.65549 7.55369 6.62373C7.47703 6.59198 7.40738 6.54544 7.34871 6.48677C7.29004 6.42811 7.2435 6.35846 7.21175 6.2818C7.18 6.20515 7.16366 6.12299 7.16366 6.04002L7.16366 2.80155Z" fill="#00FFA3"/>
</svg>
