<svg width="136" height="42" viewBox="0 0 136 42" fill="none" xmlns="http://www.w3.org/2000/svg">
<path d="M7.61375 24.6139L11.2306 21L7.61375 17.3861L4 21L7.61375 24.6139Z" fill="#F0B90B"/>
<path d="M26.192 18.4209L19.9993 12.2247L13.8065 18.4209L10.1928 14.807L19.9993 5L29.8058 14.807L26.192 18.4209Z" fill="#F0B90B"/>
<path d="M28.7742 21L32.3879 17.3861L35.9985 21L32.3879 24.6139L28.7742 21Z" fill="#F0B90B"/>
<path d="M13.8065 23.5823L19.9993 29.7753L26.192 23.5823L29.8058 27.193L19.9993 37L10.1928 27.193L13.8065 23.5823Z" fill="#F0B90B"/>
<path d="M23.613 21L19.9993 24.6139L16.3855 21L19.9993 17.3861L23.613 21Z" fill="#F0B90B"/>
<path d="M54.2501 18.2262V18.1918C54.2501 16.5712 53.3904 15.7609 51.9913 15.2279C52.851 14.7443 53.5774 13.9856 53.5774 12.6251V12.5908C53.5774 10.6951 52.0601 9.47 49.595 9.47H43.9985V21.536H49.7368C52.4599 21.536 54.2544 20.4335 54.2544 18.2262H54.2501ZM50.9404 13.0679C50.9404 13.9641 50.1989 14.3446 49.0276 14.3446H46.584V11.7977H49.2038C50.3236 11.7977 50.9447 12.2447 50.9447 13.0378L50.9404 13.0679ZM51.6131 17.8952C51.6131 18.7914 50.906 19.2041 49.7325 19.2041H46.584V16.554H49.6509C51.0135 16.554 51.6174 17.0548 51.6174 17.8651L51.6131 17.8952ZM59.8272 21.536V9.47H57.1644V21.536H59.8272ZM74.0956 21.536V9.47H71.4672V16.9001L65.8149 9.47H63.3669V21.536H65.9868V13.8653L71.8283 21.536H74.0956ZM88.7982 21.536L83.6187 9.38403H81.1707L76.002 21.536H78.7078L79.8146 18.8301H84.9168L86.0193 21.536H88.7982ZM83.9733 16.4852H80.7581L82.3614 12.5736L83.9733 16.4852ZM101.45 21.536V9.47H98.822V16.9001L93.1675 9.47H90.7217V21.536H93.3394V13.8653L99.183 21.536H101.45ZM115.151 19.5888L113.464 17.8823C112.517 18.742 111.672 19.2943 110.292 19.2943C108.225 19.2943 106.793 17.5749 106.793 15.503V15.4686C106.793 13.401 108.259 11.7117 110.292 11.7117C111.498 11.7117 112.441 12.2275 113.378 13.0722L115.061 11.1249C113.941 10.0224 112.581 9.26367 110.305 9.26367C106.6 9.26367 104.014 12.0728 104.014 15.4966V15.531C104.014 18.9956 106.651 21.7359 110.202 21.7359C112.525 21.7424 113.903 20.9149 115.143 19.5888H115.151ZM126.478 21.536V19.1718H119.918V16.6335H125.607V14.2693H119.918V11.8321H126.383V9.46785H117.281V21.5339L126.478 21.536Z" fill="#F0B90B"/>
<path d="M43.9985 28.7358H59.9985" stroke="#C19711"/>
<path d="M71.5084 24.3598V25.7158H68.0164V27.8638H70.6924V29.1958H68.0164V32.7358H66.3364V24.3598H71.5084ZM76.0357 24.3598V29.5438C76.0357 30.1118 76.1837 30.5478 76.4797 30.8518C76.7757 31.1478 77.1917 31.2958 77.7277 31.2958C78.2717 31.2958 78.6917 31.1478 78.9877 30.8518C79.2837 30.5478 79.4317 30.1118 79.4317 29.5438V24.3598H81.1237V29.5318C81.1237 30.2438 80.9677 30.8478 80.6557 31.3438C80.3517 31.8318 79.9397 32.1998 79.4197 32.4478C78.9077 32.6958 78.3357 32.8198 77.7037 32.8198C77.0797 32.8198 76.5117 32.6958 75.9997 32.4478C75.4957 32.1998 75.0957 31.8318 74.7997 31.3438C74.5037 30.8478 74.3557 30.2438 74.3557 29.5318V24.3598H76.0357ZM90.1269 24.3598V25.7158H87.8949V32.7358H86.2149V25.7158H83.9829V24.3598H90.1269ZM94.6886 24.3598V29.5438C94.6886 30.1118 94.8366 30.5478 95.1326 30.8518C95.4286 31.1478 95.8446 31.2958 96.3806 31.2958C96.9246 31.2958 97.3446 31.1478 97.6406 30.8518C97.9366 30.5478 98.0846 30.1118 98.0846 29.5438V24.3598H99.7766V29.5318C99.7766 30.2438 99.6206 30.8478 99.3086 31.3438C99.0046 31.8318 98.5926 32.1998 98.0726 32.4478C97.5606 32.6958 96.9886 32.8198 96.3566 32.8198C95.7326 32.8198 95.1646 32.6958 94.6526 32.4478C94.1486 32.1998 93.7486 31.8318 93.4526 31.3438C93.1566 30.8478 93.0086 30.2438 93.0086 29.5318V24.3598H94.6886ZM107.4 32.7358L105.552 29.4718H104.76V32.7358H103.08V24.3598H106.224C106.872 24.3598 107.424 24.4758 107.88 24.7078C108.336 24.9318 108.676 25.2398 108.9 25.6318C109.132 26.0158 109.248 26.4478 109.248 26.9278C109.248 27.4798 109.088 27.9798 108.768 28.4278C108.448 28.8678 107.972 29.1718 107.34 29.3398L109.344 32.7358H107.4ZM104.76 28.2118H106.164C106.62 28.2118 106.96 28.1038 107.184 27.8878C107.408 27.6638 107.52 27.3558 107.52 26.9638C107.52 26.5798 107.408 26.2838 107.184 26.0758C106.96 25.8598 106.62 25.7518 106.164 25.7518H104.76V28.2118ZM114.127 25.7158V27.8158H116.947V29.1478H114.127V31.3678H117.307V32.7358H112.447V24.3478H117.307V25.7158H114.127ZM123.406 32.8198C122.822 32.8198 122.294 32.7198 121.822 32.5198C121.358 32.3198 120.99 32.0318 120.718 31.6558C120.446 31.2798 120.306 30.8358 120.298 30.3238H122.098C122.122 30.6678 122.242 30.9398 122.458 31.1398C122.682 31.3398 122.986 31.4398 123.37 31.4398C123.762 31.4398 124.07 31.3478 124.294 31.1638C124.518 30.9718 124.63 30.7238 124.63 30.4198C124.63 30.1718 124.554 29.9678 124.402 29.8078C124.25 29.6478 124.058 29.5238 123.826 29.4358C123.602 29.3398 123.29 29.2358 122.89 29.1238C122.346 28.9638 121.902 28.8078 121.558 28.6558C121.222 28.4958 120.93 28.2598 120.682 27.9478C120.442 27.6278 120.322 27.2038 120.322 26.6758C120.322 26.1798 120.446 25.7478 120.694 25.3798C120.942 25.0118 121.29 24.7318 121.738 24.5398C122.186 24.3398 122.698 24.2398 123.274 24.2398C124.138 24.2398 124.838 24.4518 125.374 24.8758C125.918 25.2918 126.218 25.8758 126.274 26.6278H124.426C124.41 26.3398 124.286 26.1038 124.054 25.9198C123.83 25.7278 123.53 25.6318 123.154 25.6318C122.826 25.6318 122.562 25.7158 122.362 25.8838C122.17 26.0518 122.074 26.2958 122.074 26.6158C122.074 26.8398 122.146 27.0278 122.29 27.1798C122.442 27.3238 122.626 27.4438 122.842 27.5398C123.066 27.6278 123.378 27.7318 123.778 27.8518C124.322 28.0118 124.766 28.1718 125.11 28.3318C125.454 28.4918 125.75 28.7318 125.998 29.0518C126.246 29.3718 126.37 29.7918 126.37 30.3118C126.37 30.7598 126.254 31.1758 126.022 31.5598C125.79 31.9438 125.45 32.2518 125.002 32.4838C124.554 32.7078 124.022 32.8198 123.406 32.8198Z" fill="#C19711"/>
</svg>
