<svg width="136" height="42" viewBox="0 0 136 42" fill="none" xmlns="http://www.w3.org/2000/svg">
<path d="M 7.6 24.6 L 11.2 21 L 7.6 17.4 L 4 21 L 7.6 24.6 Z" fill="#f0b90b"/>
<path d="M 26.2 18.4 L 20 12.2 L 13.8 18.4 L 10.2 14.8 L 20 5 L 29.8 14.8 L 26.2 18.4 Z" fill="#f0b90b"/>
<path d="M 28.8 21 L 32.4 17.4 L 36 21 L 32.4 24.6 L 28.8 21 Z" fill="#f0b90b"/>
<path d="M 13.8 23.6 L 20 29.8 L 26.2 23.6 L 29.8 27.2 L 20 37 L 10.2 27.2 L 13.8 23.6 Z" fill="#f0b90b"/>
<path d="M 23.6 21 L 20 24.6 L 16.4 21 L 20 17.4 L 23.6 21 Z" fill="#f0b90b"/>
<path d="M 52.4 23.5 V 23.5 C 52.4 21.9 51.5 21.1 50.1 20.5 C 51 20.1 51.7 19.3 51.7 17.9 V 17.9 C 51.7 16 50.2 14.8 47.7 14.8 H 42.1 V 26.8 H 47.9 C 50.6 26.8 52.4 25.7 52.4 23.5 H 52.4 Z M 49.1 18.4 C 49.1 19.3 48.3 19.7 47.2 19.7 H 44.7 V 17.1 H 47.3 C 48.4 17.1 49.1 17.6 49.1 18.4 L 49.1 18.4 Z M 49.7 23.2 C 49.7 24.1 49 24.5 47.9 24.5 H 44.7 V 21.9 H 47.8 C 49.1 21.9 49.7 22.4 49.7 23.2 L 49.7 23.2 Z M 58 26.8 V 14.8 H 55.3 V 26.8 H 58 Z M 72.2 26.8 V 14.8 H 69.6 V 22.2 L 63.9 14.8 H 61.5 V 26.8 H 64.1 V 19.2 L 70 26.8 H 72.2 Z M 86.9 26.8 L 81.7 14.7 H 79.3 L 74.1 26.8 H 76.8 L 77.9 24.1 H 83 L 84.1 26.8 H 86.9 Z M 82.1 21.8 H 78.9 L 80.5 17.9 L 82.1 21.8 Z M 99.6 26.8 V 14.8 H 96.9 V 22.2 L 91.3 14.8 H 88.8 V 26.8 H 91.5 V 19.2 L 97.3 26.8 H 99.6 Z M 113.3 24.9 L 111.6 23.2 C 110.6 24.1 109.8 24.6 108.4 24.6 C 106.3 24.6 104.9 22.9 104.9 20.8 V 20.8 C 104.9 18.7 106.4 17 108.4 17 C 109.6 17 110.6 17.5 111.5 18.4 L 113.2 16.4 C 112.1 15.3 110.7 14.6 108.4 14.6 C 104.7 14.6 102.1 17.4 102.1 20.8 V 20.8 C 102.1 24.3 104.8 27 108.3 27 C 110.7 27.1 112 26.2 113.3 24.9 H 113.3 Z M 124.6 26.8 V 24.5 H 118 V 21.9 H 123.7 V 19.6 H 118 V 17.1 H 124.5 V 14.8 H 115.4 V 26.8 L 124.6 26.8 Z" fill="#f0b90b"/>
</svg>
