<svg width="333" height="140" viewBox="0 0 333 140" fill="none" xmlns="http://www.w3.org/2000/svg">
<path d="M113.876 33C120.609 33 126.509 34.4333 131.576 37.3C136.709 40.1667 140.643 44.2 143.376 49.4C146.176 54.5333 147.576 60.4 147.576 67C147.576 73.6 146.176 79.4667 143.376 84.6C140.643 89.7333 136.709 93.7667 131.576 96.7C126.509 99.5667 120.609 101 113.876 101C107.076 101 101.143 99.5667 96.076 96.7C91.0093 93.7667 87.076 89.7333 84.276 84.6C81.5426 79.4667 80.176 73.6 80.176 67C80.176 60.4 81.5426 54.5333 84.276 49.4C87.076 44.2 91.0093 40.1667 96.076 37.3C101.143 34.4333 107.076 33 113.876 33ZM113.876 44.7C107.143 44.7 101.843 46.6667 97.976 50.6C94.176 54.5333 92.276 60 92.276 67C92.276 74 94.176 79.4667 97.976 83.4C101.843 87.2667 107.143 89.2 113.876 89.2C118.076 89.2 121.809 88.3333 125.076 86.6C128.343 84.8 130.876 82.2333 132.676 78.9C134.476 75.5 135.376 71.5333 135.376 67C135.376 62.4667 134.476 58.5333 132.676 55.2C130.876 51.8 128.343 49.2 125.076 47.4C121.809 45.6 118.076 44.7 113.876 44.7ZM173.758 34H197.358L219.458 100H206.258L198.858 79.3H172.058L164.958 100H151.758L173.758 34ZM195.558 67.6L186.258 39.2H184.858L175.558 67.6H195.558ZM212.988 34H267.388V45.7H246.288V100H234.088V45.7H212.988V34ZM294.703 66.4L275.903 34H283.403L301.103 64.8H302.603L319.603 34H327.203L308.803 66.4L327.603 100H320.103L302.503 67.9H301.103L283.503 100H276.003L294.703 66.4Z" fill="white"/>
<path d="M78.1413 46.091C76.5587 42.2864 73.5247 38.9851 69.401 38.1224C62.9498 36.7842 56.5151 41.5122 55.8305 48.1204C64.0615 44.3214 68.3605 47.5619 68.3605 47.5619C67.4624 48.961 66.5369 50.8964 65.4142 52.1628C65.1568 52.4559 64.8885 52.7102 64.6092 52.9204C61.9695 54.8669 59.4176 55.8623 59.4176 55.8623C61.4493 55.6577 64.4339 53.5452 64.4339 53.5452C65.9892 56.3047 68.47 61.6686 68.4153 68.6971C68.3441 78.3247 63.5632 84.9273 61.6903 87.4379C57.7965 92.6636 53.2018 95.6664 50.0694 97.2921C47.134 98.8184 41.2524 101.323 33.5142 101.097C30.5022 101.008 23.5746 100.4 16.4279 95.8599C7.07967 89.9208 3.56382 81.2223 2.64927 78.7228C1.68542 76.0961 -0.680381 68.6363 1.36231 59.3848C1.98115 56.5756 3.52001 51.3001 7.57254 45.9859C8.81568 44.3546 15.0971 36.4081 26.2251 33.6156C28.8155 32.963 31.0279 32.7529 32.5175 32.681C32.7882 37.0699 33.0435 41.2093 33.3159 45.6246C31.5306 45.8182 24.8725 46.7877 19.8835 51.737C18.5965 53.0144 14.8507 57.0512 13.8266 63.5488C13.5692 65.1912 13.0599 69.687 15.0916 74.7634C15.6338 76.1238 16.6524 78.2472 18.4541 80.3984C23.3226 86.2158 29.9381 87.4877 30.9841 87.6702C38.5908 89.0139 44.7682 85.7402 47.4462 83.6499C49.3793 82.1403 50.9346 80.2048 50.9346 80.2048C52.7309 77.9707 53.6016 75.9579 53.7878 75.521C54.1985 74.5533 55.0802 72.4298 55.2281 69.6151C55.4362 65.617 54.0507 62.4871 53.2018 60.911C53.1197 62.3267 53.1745 63.8087 52.9171 65.2409C52.3201 68.5257 50.1679 70.6049 46.8985 71.1745C49.4341 68.9515 48.9686 66.8446 48.9686 66.8446C48.64 68.3045 47.9007 69.4381 47.0902 70.2897C46.7068 70.6934 46.1811 70.9312 45.628 71.0031H45.617C44.9818 71.0916 44.3739 71.2077 43.7879 71.3515C41.9369 71.7994 40.3049 72.4851 38.8373 73.2316C39.3904 77.4343 35.7869 80.6748 35.5898 81.1283C35.1462 82.1679 35.5898 78.7007 35.6226 78.4021C34.0454 82.6545 29.2152 82.9034 29.2152 82.9034C31.1922 81.8251 32.0082 78.7726 32.4025 76.6325C31.7618 76.8703 31.1375 77.0362 30.5186 77.0638C28.2843 77.18 25.7706 75.8638 24.2482 74.9016C23.3172 74.31 22.66 73.3754 22.4355 72.2971C22.0193 70.24 21.6523 66.7561 23.4322 64.9368C25.557 62.758 31.0444 55.0881 34.9107 49.6301C36.2524 47.7333 35.2886 46.655 37.4463 45.0679C38.5799 44.2329 39.4671 43.4366 40.3433 42.9445C41.1154 42.5131 41.9424 42.2311 42.8022 42.0929C44.1056 41.8772 45.4692 42.0044 46.7452 42.4468L50.9894 43.9343L44.9873 41.0256C45.272 40.4892 45.5678 39.9694 45.8799 39.4717C51.6685 30.093 61.2905 27.7428 66.0166 28.4506C66.044 28.4506 66.0659 28.4506 66.0933 28.4617C67.6924 28.7105 69.0834 29.1142 70.2937 29.6396C80.2552 33.9197 78.1468 46.0854 78.1468 46.0854L78.1413 46.091Z" fill="white"/>
</svg>
