<svg width="381" height="274" viewBox="0 0 381 274" fill="none" xmlns="http://www.w3.org/2000/svg"><path d="M42.986 260.318l-8.856-22.064-.063-.157H24.67l.149.348 14.297 33.509.065.151H46.538l.065-.153 16.498-39.538.145-.347h-9.199l-.063.159-10.998 28.092zM10.08 232.219l-.066-.152H.62l.15.349 16.971 39.538.065.151h9.261l-.148-.348-16.84-39.538z" fill="#fff" stroke="#fff" stroke-width=".5"/><mask id="prefix__a" maskUnits="userSpaceOnUse" x="68.273" y="212.527" width="313" height="61" fill="#000"><path fill="#fff" d="M68.273 212.527h313v61h-313z"/><path d="M79.728 218.751c0 1.447-.509 2.679-1.528 3.697-1.018 1.018-2.251 1.527-3.7 1.527-1.447 0-2.68-.509-3.698-1.527-1.02-1.018-1.529-2.25-1.529-3.697 0-1.446.51-2.679 1.529-3.697 1.018-1.018 2.251-1.527 3.699-1.527s2.68.509 3.7 1.527c1.018 1.018 1.527 2.251 1.527 3.697zM78.2 232.334v39.38h-7.398v-39.38H78.2zM118.776 260.784c0 3.429-1.501 6.322-4.503 8.68-3.003 2.357-6.783 3.536-11.34 3.536-3.968 0-7.453-1.018-10.455-3.054-3.002-2.09-5.147-4.822-6.434-8.198l6.595-2.813c.965 2.358 2.359 4.206 4.182 5.546 1.876 1.286 3.914 1.929 6.112 1.929 2.359 0 4.316-.509 5.871-1.527 1.608-1.018 2.413-2.224 2.413-3.617 0-2.518-1.931-4.367-5.791-5.545l-6.755-1.688c-7.668-1.929-11.501-5.626-11.501-11.091 0-3.59 1.448-6.456 4.343-8.599 2.949-2.197 6.702-3.295 11.259-3.295 3.485 0 6.622.83 9.41 2.491 2.841 1.661 4.825 3.885 5.951 6.671l-6.595 2.732c-.75-1.661-1.984-2.947-3.699-3.858-1.662-.964-3.539-1.446-5.63-1.446-1.93 0-3.672.482-5.227 1.446-1.502.965-2.252 2.144-2.252 3.537 0 2.25 2.118 3.857 6.353 4.822l5.952 1.527c7.827 1.929 11.741 5.867 11.741 11.814zM144.091 266.249c3.645 0 6.621-1.313 8.927-3.938 2.412-2.625 3.619-6.055 3.619-10.287 0-4.126-1.207-7.528-3.619-10.207-2.359-2.679-5.335-4.018-8.927-4.018-3.539 0-6.515 1.339-8.927 4.018-2.413 2.679-3.619 6.081-3.619 10.207 0 4.179 1.206 7.581 3.619 10.207 2.412 2.678 5.388 4.018 8.927 4.018zM142.884 273c-5.147 0-9.57-2.036-13.27-6.108-3.645-4.126-5.468-9.082-5.468-14.868 0-5.787 1.823-10.743 5.468-14.868 3.7-4.072 8.123-6.108 13.27-6.108 2.896 0 5.523.616 7.882 1.848 2.412 1.232 4.262 2.867 5.549 4.903h.322l-.322-5.465V214.17h7.399v57.544h-7.077v-5.465h-.322c-1.287 2.036-3.137 3.67-5.549 4.902-2.359 1.233-4.986 1.849-7.882 1.849zM170.879 252.024c0-6.055 1.903-11.064 5.71-15.029 3.86-3.965 8.713-5.947 14.557-5.947 5.844 0 10.669 1.982 14.476 5.947 3.86 3.965 5.79 8.974 5.79 15.029 0 6.108-1.93 11.117-5.79 15.029-3.807 3.964-8.632 5.947-14.476 5.947-5.844 0-10.697-1.983-14.557-5.947-3.807-3.965-5.71-8.975-5.71-15.029zm7.399 0c0 4.232 1.233 7.662 3.699 10.287 2.467 2.625 5.523 3.938 9.169 3.938 3.645 0 6.702-1.313 9.168-3.938 2.466-2.625 3.699-6.055 3.699-10.287 0-4.179-1.233-7.582-3.699-10.207-2.52-2.679-5.576-4.018-9.168-4.018-3.593 0-6.649 1.339-9.169 4.018-2.466 2.625-3.699 6.028-3.699 10.207zM225.535 271.714h-7.399v-39.38h7.078v5.465h.321c1.126-1.929 2.842-3.537 5.147-4.823 2.359-1.285 4.692-1.928 6.997-1.928 2.895 0 5.442.669 7.64 2.009 2.199 1.339 3.807 3.188 4.826 5.545 3.27-5.036 7.801-7.554 13.591-7.554 4.557 0 8.069 1.393 10.536 4.179 2.466 2.786 3.699 6.751 3.699 11.894v24.593h-7.399v-23.468c0-3.697-.67-6.349-2.01-7.956-1.341-1.661-3.593-2.491-6.756-2.491-2.842 0-5.227 1.205-7.158 3.616-1.93 2.411-2.895 5.251-2.895 8.519v21.78h-7.399v-23.468c0-3.697-.67-6.349-2.01-7.956-1.341-1.661-3.593-2.491-6.756-2.491-2.842 0-5.227 1.205-7.158 3.616-1.93 2.411-2.895 5.251-2.895 8.519v21.78zM296.98 218.751c0 1.447-.509 2.679-1.528 3.697-1.018 1.018-2.252 1.527-3.699 1.527-1.448 0-2.681-.509-3.7-1.527-1.018-1.018-1.528-2.25-1.528-3.697 0-1.446.51-2.679 1.528-3.697 1.019-1.018 2.252-1.527 3.7-1.527 1.447 0 2.681.509 3.699 1.527 1.019 1.018 1.528 2.251 1.528 3.697zm-1.528 13.583v39.38h-7.399v-39.38h7.399zM336.028 260.784c0 3.429-1.501 6.322-4.503 8.68-3.003 2.357-6.783 3.536-11.34 3.536-3.968 0-7.453-1.018-10.455-3.054-3.003-2.09-5.147-4.822-6.434-8.198l6.595-2.813c.965 2.358 2.359 4.206 4.182 5.546 1.876 1.286 3.914 1.929 6.112 1.929 2.359 0 4.316-.509 5.871-1.527 1.608-1.018 2.412-2.224 2.412-3.617 0-2.518-1.93-4.367-5.79-5.545l-6.756-1.688c-7.667-1.929-11.5-5.626-11.5-11.091 0-3.59 1.448-6.456 4.343-8.599 2.949-2.197 6.702-3.295 11.259-3.295 3.485 0 6.622.83 9.41 2.491 2.841 1.661 4.825 3.885 5.951 6.671l-6.595 2.732c-.75-1.661-1.984-2.947-3.699-3.858-1.662-.964-3.539-1.446-5.63-1.446-1.93 0-3.673.482-5.227 1.446-1.502.965-2.252 2.144-2.252 3.537 0 2.25 2.118 3.857 6.353 4.822l5.951 1.527c7.828 1.929 11.742 5.867 11.742 11.814zM361.343 273c-5.791 0-10.563-1.983-14.316-5.947-3.753-3.965-5.629-8.975-5.629-15.029 0-6.001 1.823-10.984 5.468-14.949 3.646-4.018 8.311-6.027 13.994-6.027 5.844 0 10.482 1.902 13.913 5.706 3.485 3.75 5.228 9.028 5.228 15.832l-.081.804h-30.963c.108 3.858 1.394 6.965 3.861 9.323 2.466 2.357 5.415 3.536 8.846 3.536 4.718 0 8.418-2.358 11.099-7.072l6.594 3.214c-1.769 3.322-4.235 5.921-7.399 7.796-3.109 1.875-6.648 2.813-10.615 2.813zm-11.823-25.718h22.599c-.214-2.733-1.34-4.983-3.378-6.751-1.983-1.822-4.664-2.732-8.042-2.732-2.788 0-5.201.857-7.238 2.571-1.984 1.715-3.297 4.019-3.941 6.912z"/></mask><path d="M79.728 218.751c0 1.447-.509 2.679-1.528 3.697-1.018 1.018-2.251 1.527-3.7 1.527-1.447 0-2.68-.509-3.698-1.527-1.02-1.018-1.529-2.25-1.529-3.697 0-1.446.51-2.679 1.529-3.697 1.018-1.018 2.251-1.527 3.699-1.527s2.68.509 3.7 1.527c1.018 1.018 1.527 2.251 1.527 3.697zM78.2 232.334v39.38h-7.398v-39.38H78.2zM118.776 260.784c0 3.429-1.501 6.322-4.503 8.68-3.003 2.357-6.783 3.536-11.34 3.536-3.968 0-7.453-1.018-10.455-3.054-3.002-2.09-5.147-4.822-6.434-8.198l6.595-2.813c.965 2.358 2.359 4.206 4.182 5.546 1.876 1.286 3.914 1.929 6.112 1.929 2.359 0 4.316-.509 5.871-1.527 1.608-1.018 2.413-2.224 2.413-3.617 0-2.518-1.931-4.367-5.791-5.545l-6.755-1.688c-7.668-1.929-11.501-5.626-11.501-11.091 0-3.59 1.448-6.456 4.343-8.599 2.949-2.197 6.702-3.295 11.259-3.295 3.485 0 6.622.83 9.41 2.491 2.841 1.661 4.825 3.885 5.951 6.671l-6.595 2.732c-.75-1.661-1.984-2.947-3.699-3.858-1.662-.964-3.539-1.446-5.63-1.446-1.93 0-3.672.482-5.227 1.446-1.502.965-2.252 2.144-2.252 3.537 0 2.25 2.118 3.857 6.353 4.822l5.952 1.527c7.827 1.929 11.741 5.867 11.741 11.814zM144.091 266.249c3.645 0 6.621-1.313 8.927-3.938 2.412-2.625 3.619-6.055 3.619-10.287 0-4.126-1.207-7.528-3.619-10.207-2.359-2.679-5.335-4.018-8.927-4.018-3.539 0-6.515 1.339-8.927 4.018-2.413 2.679-3.619 6.081-3.619 10.207 0 4.179 1.206 7.581 3.619 10.207 2.412 2.678 5.388 4.018 8.927 4.018zM142.884 273c-5.147 0-9.57-2.036-13.27-6.108-3.645-4.126-5.468-9.082-5.468-14.868 0-5.787 1.823-10.743 5.468-14.868 3.7-4.072 8.123-6.108 13.27-6.108 2.896 0 5.523.616 7.882 1.848 2.412 1.232 4.262 2.867 5.549 4.903h.322l-.322-5.465V214.17h7.399v57.544h-7.077v-5.465h-.322c-1.287 2.036-3.137 3.67-5.549 4.902-2.359 1.233-4.986 1.849-7.882 1.849zM170.879 252.024c0-6.055 1.903-11.064 5.71-15.029 3.86-3.965 8.713-5.947 14.557-5.947 5.844 0 10.669 1.982 14.476 5.947 3.86 3.965 5.79 8.974 5.79 15.029 0 6.108-1.93 11.117-5.79 15.029-3.807 3.964-8.632 5.947-14.476 5.947-5.844 0-10.697-1.983-14.557-5.947-3.807-3.965-5.71-8.975-5.71-15.029zm7.399 0c0 4.232 1.233 7.662 3.699 10.287 2.467 2.625 5.523 3.938 9.169 3.938 3.645 0 6.702-1.313 9.168-3.938 2.466-2.625 3.699-6.055 3.699-10.287 0-4.179-1.233-7.582-3.699-10.207-2.52-2.679-5.576-4.018-9.168-4.018-3.593 0-6.649 1.339-9.169 4.018-2.466 2.625-3.699 6.028-3.699 10.207zM225.535 271.714h-7.399v-39.38h7.078v5.465h.321c1.126-1.929 2.842-3.537 5.147-4.823 2.359-1.285 4.692-1.928 6.997-1.928 2.895 0 5.442.669 7.64 2.009 2.199 1.339 3.807 3.188 4.826 5.545 3.27-5.036 7.801-7.554 13.591-7.554 4.557 0 8.069 1.393 10.536 4.179 2.466 2.786 3.699 6.751 3.699 11.894v24.593h-7.399v-23.468c0-3.697-.67-6.349-2.01-7.956-1.341-1.661-3.593-2.491-6.756-2.491-2.842 0-5.227 1.205-7.158 3.616-1.93 2.411-2.895 5.251-2.895 8.519v21.78h-7.399v-23.468c0-3.697-.67-6.349-2.01-7.956-1.341-1.661-3.593-2.491-6.756-2.491-2.842 0-5.227 1.205-7.158 3.616-1.93 2.411-2.895 5.251-2.895 8.519v21.78zM296.98 218.751c0 1.447-.509 2.679-1.528 3.697-1.018 1.018-2.252 1.527-3.699 1.527-1.448 0-2.681-.509-3.7-1.527-1.018-1.018-1.528-2.25-1.528-3.697 0-1.446.51-2.679 1.528-3.697 1.019-1.018 2.252-1.527 3.7-1.527 1.447 0 2.681.509 3.699 1.527 1.019 1.018 1.528 2.251 1.528 3.697zm-1.528 13.583v39.38h-7.399v-39.38h7.399zM336.028 260.784c0 3.429-1.501 6.322-4.503 8.68-3.003 2.357-6.783 3.536-11.34 3.536-3.968 0-7.453-1.018-10.455-3.054-3.003-2.09-5.147-4.822-6.434-8.198l6.595-2.813c.965 2.358 2.359 4.206 4.182 5.546 1.876 1.286 3.914 1.929 6.112 1.929 2.359 0 4.316-.509 5.871-1.527 1.608-1.018 2.412-2.224 2.412-3.617 0-2.518-1.93-4.367-5.79-5.545l-6.756-1.688c-7.667-1.929-11.5-5.626-11.5-11.091 0-3.59 1.448-6.456 4.343-8.599 2.949-2.197 6.702-3.295 11.259-3.295 3.485 0 6.622.83 9.41 2.491 2.841 1.661 4.825 3.885 5.951 6.671l-6.595 2.732c-.75-1.661-1.984-2.947-3.699-3.858-1.662-.964-3.539-1.446-5.63-1.446-1.93 0-3.673.482-5.227 1.446-1.502.965-2.252 2.144-2.252 3.537 0 2.25 2.118 3.857 6.353 4.822l5.951 1.527c7.828 1.929 11.742 5.867 11.742 11.814zM361.343 273c-5.791 0-10.563-1.983-14.316-5.947-3.753-3.965-5.629-8.975-5.629-15.029 0-6.001 1.823-10.984 5.468-14.949 3.646-4.018 8.311-6.027 13.994-6.027 5.844 0 10.482 1.902 13.913 5.706 3.485 3.75 5.228 9.028 5.228 15.832l-.081.804h-30.963c.108 3.858 1.394 6.965 3.861 9.323 2.466 2.357 5.415 3.536 8.846 3.536 4.718 0 8.418-2.358 11.099-7.072l6.594 3.214c-1.769 3.322-4.235 5.921-7.399 7.796-3.109 1.875-6.648 2.813-10.615 2.813zm-11.823-25.718h22.599c-.214-2.733-1.34-4.983-3.378-6.751-1.983-1.822-4.664-2.732-8.042-2.732-2.788 0-5.201.857-7.238 2.571-1.984 1.715-3.297 4.019-3.941 6.912z" fill="#fff"/><path d="M79.728 218.751c0 1.447-.509 2.679-1.528 3.697-1.018 1.018-2.251 1.527-3.7 1.527-1.447 0-2.68-.509-3.698-1.527-1.02-1.018-1.529-2.25-1.529-3.697 0-1.446.51-2.679 1.529-3.697 1.018-1.018 2.251-1.527 3.699-1.527s2.68.509 3.7 1.527c1.018 1.018 1.527 2.251 1.527 3.697zM78.2 232.334v39.38h-7.398v-39.38H78.2zM118.776 260.784c0 3.429-1.501 6.322-4.503 8.68-3.003 2.357-6.783 3.536-11.34 3.536-3.968 0-7.453-1.018-10.455-3.054-3.002-2.09-5.147-4.822-6.434-8.198l6.595-2.813c.965 2.358 2.359 4.206 4.182 5.546 1.876 1.286 3.914 1.929 6.112 1.929 2.359 0 4.316-.509 5.871-1.527 1.608-1.018 2.413-2.224 2.413-3.617 0-2.518-1.931-4.367-5.791-5.545l-6.755-1.688c-7.668-1.929-11.501-5.626-11.501-11.091 0-3.59 1.448-6.456 4.343-8.599 2.949-2.197 6.702-3.295 11.259-3.295 3.485 0 6.622.83 9.41 2.491 2.841 1.661 4.825 3.885 5.951 6.671l-6.595 2.732c-.75-1.661-1.984-2.947-3.699-3.858-1.662-.964-3.539-1.446-5.63-1.446-1.93 0-3.672.482-5.227 1.446-1.502.965-2.252 2.144-2.252 3.537 0 2.25 2.118 3.857 6.353 4.822l5.952 1.527c7.827 1.929 11.741 5.867 11.741 11.814zM144.091 266.249c3.645 0 6.621-1.313 8.927-3.938 2.412-2.625 3.619-6.055 3.619-10.287 0-4.126-1.207-7.528-3.619-10.207-2.359-2.679-5.335-4.018-8.927-4.018-3.539 0-6.515 1.339-8.927 4.018-2.413 2.679-3.619 6.081-3.619 10.207 0 4.179 1.206 7.581 3.619 10.207 2.412 2.678 5.388 4.018 8.927 4.018zM142.884 273c-5.147 0-9.57-2.036-13.27-6.108-3.645-4.126-5.468-9.082-5.468-14.868 0-5.787 1.823-10.743 5.468-14.868 3.7-4.072 8.123-6.108 13.27-6.108 2.896 0 5.523.616 7.882 1.848 2.412 1.232 4.262 2.867 5.549 4.903h.322l-.322-5.465V214.17h7.399v57.544h-7.077v-5.465h-.322c-1.287 2.036-3.137 3.67-5.549 4.902-2.359 1.233-4.986 1.849-7.882 1.849zM170.879 252.024c0-6.055 1.903-11.064 5.71-15.029 3.86-3.965 8.713-5.947 14.557-5.947 5.844 0 10.669 1.982 14.476 5.947 3.86 3.965 5.79 8.974 5.79 15.029 0 6.108-1.93 11.117-5.79 15.029-3.807 3.964-8.632 5.947-14.476 5.947-5.844 0-10.697-1.983-14.557-5.947-3.807-3.965-5.71-8.975-5.71-15.029zm7.399 0c0 4.232 1.233 7.662 3.699 10.287 2.467 2.625 5.523 3.938 9.169 3.938 3.645 0 6.702-1.313 9.168-3.938 2.466-2.625 3.699-6.055 3.699-10.287 0-4.179-1.233-7.582-3.699-10.207-2.52-2.679-5.576-4.018-9.168-4.018-3.593 0-6.649 1.339-9.169 4.018-2.466 2.625-3.699 6.028-3.699 10.207zM225.535 271.714h-7.399v-39.38h7.078v5.465h.321c1.126-1.929 2.842-3.537 5.147-4.823 2.359-1.285 4.692-1.928 6.997-1.928 2.895 0 5.442.669 7.64 2.009 2.199 1.339 3.807 3.188 4.826 5.545 3.27-5.036 7.801-7.554 13.591-7.554 4.557 0 8.069 1.393 10.536 4.179 2.466 2.786 3.699 6.751 3.699 11.894v24.593h-7.399v-23.468c0-3.697-.67-6.349-2.01-7.956-1.341-1.661-3.593-2.491-6.756-2.491-2.842 0-5.227 1.205-7.158 3.616-1.93 2.411-2.895 5.251-2.895 8.519v21.78h-7.399v-23.468c0-3.697-.67-6.349-2.01-7.956-1.341-1.661-3.593-2.491-6.756-2.491-2.842 0-5.227 1.205-7.158 3.616-1.93 2.411-2.895 5.251-2.895 8.519v21.78zM296.98 218.751c0 1.447-.509 2.679-1.528 3.697-1.018 1.018-2.252 1.527-3.699 1.527-1.448 0-2.681-.509-3.7-1.527-1.018-1.018-1.528-2.25-1.528-3.697 0-1.446.51-2.679 1.528-3.697 1.019-1.018 2.252-1.527 3.7-1.527 1.447 0 2.681.509 3.699 1.527 1.019 1.018 1.528 2.251 1.528 3.697zm-1.528 13.583v39.38h-7.399v-39.38h7.399zM336.028 260.784c0 3.429-1.501 6.322-4.503 8.68-3.003 2.357-6.783 3.536-11.34 3.536-3.968 0-7.453-1.018-10.455-3.054-3.003-2.09-5.147-4.822-6.434-8.198l6.595-2.813c.965 2.358 2.359 4.206 4.182 5.546 1.876 1.286 3.914 1.929 6.112 1.929 2.359 0 4.316-.509 5.871-1.527 1.608-1.018 2.412-2.224 2.412-3.617 0-2.518-1.93-4.367-5.79-5.545l-6.756-1.688c-7.667-1.929-11.5-5.626-11.5-11.091 0-3.59 1.448-6.456 4.343-8.599 2.949-2.197 6.702-3.295 11.259-3.295 3.485 0 6.622.83 9.41 2.491 2.841 1.661 4.825 3.885 5.951 6.671l-6.595 2.732c-.75-1.661-1.984-2.947-3.699-3.858-1.662-.964-3.539-1.446-5.63-1.446-1.93 0-3.673.482-5.227 1.446-1.502.965-2.252 2.144-2.252 3.537 0 2.25 2.118 3.857 6.353 4.822l5.951 1.527c7.828 1.929 11.742 5.867 11.742 11.814zM361.343 273c-5.791 0-10.563-1.983-14.316-5.947-3.753-3.965-5.629-8.975-5.629-15.029 0-6.001 1.823-10.984 5.468-14.949 3.646-4.018 8.311-6.027 13.994-6.027 5.844 0 10.482 1.902 13.913 5.706 3.485 3.75 5.228 9.028 5.228 15.832l-.081.804h-30.963c.108 3.858 1.394 6.965 3.861 9.323 2.466 2.357 5.415 3.536 8.846 3.536 4.718 0 8.418-2.358 11.099-7.072l6.594 3.214c-1.769 3.322-4.235 5.921-7.399 7.796-3.109 1.875-6.648 2.813-10.615 2.813zm-11.823-25.718h22.599c-.214-2.733-1.34-4.983-3.378-6.751-1.983-1.822-4.664-2.732-8.042-2.732-2.788 0-5.201.857-7.238 2.571-1.984 1.715-3.297 4.019-3.941 6.912z" stroke="#fff" mask="url(#prefix__a)"/><path opacity=".65" fill-rule="evenodd" clip-rule="evenodd" d="M190.083 172.94c47.759 0 86.476-38.69 86.476-86.417 0-47.726-38.717-86.417-86.476-86.417-47.76 0-86.476 38.69-86.476 86.417 0 47.727 38.716 86.417 86.476 86.417zm30.355-137.453c7.151-2.555 15.15-5.413 20.936.37 5.786 5.782 2.927 13.776.371 20.921l-.371 1.039c-.778 2.191-1.912 4.947-3.123 7.89-2.879 6.997-6.192 15.05-6.192 19.082 0 5.73 6.449 24.109 9.076 30.553 2.628 6.445 5.949 16.016-.119 22.08s-15.645 2.745-22.095.119c-6.449-2.626-24.841-9.07-30.573-9.07-4.035 0-12.094 3.311-19.095 6.188-2.945 1.21-5.704 2.343-7.896 3.121l-1.039.37c-7.151 2.554-15.15 5.412-20.936-.37-5.787-5.782-2.927-13.776-.371-20.922l.371-1.038c.778-2.191 1.912-4.948 3.123-7.891 2.879-6.996 6.192-15.05 6.192-19.082 0-5.728-6.449-24.108-9.076-30.553-2.628-6.445-5.949-16.015.119-22.08 6.068-6.063 15.645-2.744 22.094-.118 6.45 2.625 24.842 9.07 30.574 9.07 4.035 0 12.094-3.311 19.095-6.188 2.945-1.21 5.704-2.344 7.896-3.121l1.039-.37z" fill="url(#prefix__paint0_linear_322_113)"/><path opacity=".65" fill-rule="evenodd" clip-rule="evenodd" d="M251.23 25.417c-33.771-33.748-88.524-33.748-122.295 0s-33.771 88.465 0 122.212c33.771 33.748 88.524 33.748 122.295 0 33.771-33.747 33.771-88.464 0-122.212zm-118.725 75.745c-6.864-3.247-14.542-6.878-14.542-15.056 0-8.177 7.678-11.809 14.542-15.055l.997-.473c2.1-1 4.853-2.147 7.792-3.373 6.986-2.912 15.027-6.265 17.88-9.117 4.054-4.05 12.499-21.604 15.201-28.018 2.702-6.413 7.126-15.528 15.708-15.528 8.581 0 13.005 9.115 15.707 15.528 2.702 6.414 11.147 23.968 15.201 28.018 2.853 2.852 10.894 6.205 17.88 9.117 2.94 1.226 5.692 2.374 7.792 3.373l.997.473c6.864 3.246 14.542 6.878 14.542 15.055 0 8.178-7.678 11.81-14.542 15.056l-.997.472c-2.1 1-4.852 2.148-7.792 3.373-6.986 2.913-15.027 6.266-17.88 9.117-4.054 4.051-12.499 21.605-15.201 28.018-2.702 6.414-7.126 15.528-15.707 15.528-8.582 0-13.006-9.114-15.708-15.528-2.702-6.413-11.147-23.967-15.201-28.018-2.853-2.851-10.894-6.204-17.88-9.117-2.94-1.225-5.692-2.373-7.792-3.373l-.997-.472z" fill="url(#prefix__paint1_linear_322_113)"/><defs><linearGradient id="prefix__paint0_linear_322_113" x1="281.171" y1=".106" x2="101.831" y2="171.077" gradientUnits="userSpaceOnUse"><stop stop-color="#00A3FF"/><stop offset="1" stop-color="#FF00C7"/></linearGradient><linearGradient id="prefix__paint1_linear_322_113" x1="291.778" y1=".106" x2="88.281" y2="10.603" gradientUnits="userSpaceOnUse"><stop stop-color="#00FFF0"/><stop offset="0" stop-color="#13DEF2"/><stop offset=".856" stop-color="#E26CFF"/></linearGradient></defs></svg>
