<svg xmlns="http://www.w3.org/2000/svg" width="16" height="17" viewBox="0 0 16 17" fill="none">
  <path opacity="0.65" fill-rule="evenodd" clip-rule="evenodd" d="M7.98637 16.4628C12.3917 16.4628 15.9629 12.8916 15.9629 8.48634C15.9629 4.08104 12.3917 0.509842 7.98637 0.509841C3.58107 0.509841 0.00987352 4.08104 0.00987313 8.48633C0.00987275 12.8916 3.58107 16.4628 7.98637 16.4628ZM10.7864 3.7755C11.4459 3.53973 12.1837 3.27597 12.7175 3.80968C13.2512 4.34341 12.9874 5.08125 12.7516 5.74081C12.7401 5.77296 12.7287 5.80491 12.7175 5.83665C12.6457 6.0389 12.5411 6.29332 12.4294 6.56501C12.1638 7.21078 11.8582 7.95409 11.8582 8.32628C11.8582 8.85505 12.4531 10.5515 12.6954 11.1464C12.9378 11.7413 13.2441 12.6246 12.6844 13.1844C12.1247 13.7441 11.2413 13.4377 10.6464 13.1954C10.0516 12.953 8.35509 12.3582 7.82632 12.3582C7.45413 12.3582 6.71083 12.6638 6.06506 12.9293C5.79337 13.041 5.53894 13.1456 5.33668 13.2174C5.30494 13.2287 5.27298 13.2401 5.24084 13.2516C4.58128 13.4874 3.84345 13.7511 3.30972 13.2174C2.77601 12.6837 3.03976 11.9459 3.27554 11.2863C3.28703 11.2542 3.29845 11.2222 3.30972 11.1905C3.38149 10.9882 3.48609 10.7338 3.59779 10.4621C3.86333 9.81635 4.16898 9.07302 4.16898 8.70082C4.16898 8.17205 3.57411 6.47558 3.33176 5.88071C3.0894 5.28584 2.78304 4.40246 3.34277 3.84273C3.90251 3.283 4.78588 3.58936 5.38075 3.83172C5.97562 4.07407 7.67209 4.66894 8.20086 4.66894C8.57306 4.66894 9.31639 4.36329 9.96217 4.09775C10.2338 3.98605 10.4883 3.88145 10.6905 3.80968C10.7222 3.79842 10.7542 3.78699 10.7864 3.7755Z" fill="url(#paint0_linear_7796_4101)"/>
  <path opacity="0.65" fill-rule="evenodd" clip-rule="evenodd" d="M13.6266 2.8461C10.5116 -0.268914 5.46112 -0.268914 2.3461 2.8461C-0.768912 5.96112 -0.768913 11.0116 2.3461 14.1266C5.46112 17.2416 10.5116 17.2416 13.6266 14.1266C16.7416 11.0116 16.7416 5.96112 13.6266 2.8461ZM2.67539 9.8375C2.04229 9.53784 1.33405 9.20262 1.33405 8.44783C1.33405 7.69304 2.04229 7.35782 2.67539 7.05816C2.70624 7.04356 2.73692 7.02903 2.76733 7.01455C2.96109 6.92229 3.21496 6.81636 3.48606 6.70324C4.13045 6.43436 4.87218 6.12488 5.13535 5.8617C5.50925 5.4878 6.28821 3.86758 6.53747 3.27557C6.78674 2.68357 7.19475 1.84229 7.98633 1.84229C8.7779 1.84229 9.18592 2.68357 9.43518 3.27557C9.68445 3.86758 10.4634 5.4878 10.8373 5.8617C11.1005 6.12488 11.8422 6.43437 12.4866 6.70324C12.7577 6.81636 13.0116 6.92229 13.2053 7.01456C13.2357 7.02904 13.2664 7.04356 13.2973 7.05816C13.9304 7.35782 14.6386 7.69304 14.6386 8.44783C14.6386 9.20262 13.9304 9.53784 13.2973 9.8375C13.2664 9.8521 13.2357 9.86663 13.2053 9.88111C13.0116 9.97337 12.7577 10.0793 12.4866 10.1924C11.8422 10.4613 11.1005 10.7708 10.8373 11.034C10.4634 11.4079 9.68445 13.0281 9.43518 13.6201C9.18592 14.2121 8.7779 15.0534 7.98633 15.0534C7.19475 15.0534 6.78674 14.2121 6.53747 13.6201C6.2882 13.0281 5.50925 11.4079 5.13535 11.034C4.87217 10.7708 4.13045 10.4613 3.48606 10.1924C3.21496 10.0793 2.96109 9.97337 2.76733 9.8811C2.73692 9.86663 2.70625 9.85211 2.67539 9.8375Z" fill="url(#paint1_linear_7796_4101)"/>
  <defs>
    <linearGradient id="paint0_linear_7796_4101" x1="16.3883" y1="0.509842" x2="-0.164692" y2="16.2796" gradientUnits="userSpaceOnUse">
      <stop stop-color="#00A3FF"/>
      <stop offset="1" stop-color="#FF00C7"/>
    </linearGradient>
    <linearGradient id="paint1_linear_7796_4101" x1="17.3667" y1="0.509836" x2="-1.40389" y2="1.4774" gradientUnits="userSpaceOnUse">
      <stop stop-color="#00FFF0"/>
      <stop offset="0.0001" stop-color="#13DEF2"/>
      <stop offset="0.855974" stop-color="#E26CFF"/>
    </linearGradient>
  </defs>
</svg>
