<svg width="130" height="33" viewBox="0 0 130 33" fill="none" xmlns="http://www.w3.org/2000/svg">
<path opacity="0.65" fill-rule="evenodd" clip-rule="evenodd" d="M 16.2 32.9 C 25.1 32.9 32.4 25.6 32.4 16.5 C 32.4 7.4 25.1 0 16.2 0 C 7.3 0 0 7.4 0 16.5 C 0 25.6 7.3 32.9 16.2 32.9 Z M 21.9 6.8 C 23.2 6.3 24.7 5.7 25.8 6.8 C 26.9 7.9 26.4 9.4 25.9 10.8 C 25.9 10.9 25.8 10.9 25.8 11 C 25.7 11.4 25.4 11.9 25.2 12.5 C 24.7 13.8 24.1 15.4 24.1 16.1 C 24.1 17.2 25.3 20.7 25.8 22 C 26.3 23.2 26.9 25 25.7 26.2 C 24.6 27.3 22.8 26.7 21.6 26.2 C 20.4 25.7 17 24.5 15.9 24.5 C 15.1 24.5 13.6 25.1 12.3 25.6 C 11.8 25.9 11.2 26.1 10.8 26.2 C 10.8 26.3 10.7 26.3 10.6 26.3 C 9.3 26.8 7.8 27.3 6.7 26.2 C 5.6 25.1 6.2 23.6 6.6 22.2 C 6.7 22.2 6.7 22.1 6.7 22 C 6.9 21.6 7.1 21.1 7.3 20.5 C 7.8 19.2 8.5 17.7 8.5 16.9 C 8.5 15.8 7.3 12.3 6.8 11.1 C 6.3 9.9 5.6 8 6.8 6.9 C 7.9 5.7 9.7 6.4 10.9 6.9 C 12.1 7.4 15.6 8.6 16.6 8.6 C 17.4 8.6 18.9 8 20.2 7.4 C 20.8 7.2 21.3 7 21.7 6.8 C 21.8 6.8 21.8 6.8 21.9 6.8 Z" fill="url(#paint0_linear_140_436)"/>
<path opacity="0.65" fill-rule="evenodd" clip-rule="evenodd" d="M 27.6 4.8 C 21.3 -1.6 11.1 -1.6 4.8 4.8 C -1.6 11.3 -1.6 21.7 4.8 28.1 C 11.1 34.5 21.3 34.5 27.6 28.1 C 34 21.7 34 11.3 27.6 4.8 Z M 5.4 19.3 C 4.1 18.6 2.7 17.9 2.7 16.4 C 2.7 14.8 4.1 14.1 5.4 13.5 C 5.5 13.5 5.6 13.5 5.6 13.4 C 6 13.2 6.5 13 7.1 12.8 C 8.4 12.2 9.9 11.6 10.4 11.1 C 11.2 10.3 12.8 6.9 13.3 5.7 C 13.8 4.5 14.6 2.8 16.2 2.8 C 17.8 2.8 18.6 4.5 19.1 5.7 C 19.7 6.9 21.2 10.3 22 11.1 C 22.5 11.6 24 12.2 25.3 12.8 C 25.9 13 26.4 13.2 26.8 13.4 C 26.9 13.5 26.9 13.5 27 13.5 C 28.3 14.1 29.7 14.8 29.7 16.4 C 29.7 17.9 28.3 18.6 27 19.3 C 26.9 19.3 26.9 19.3 26.8 19.3 C 26.4 19.5 25.9 19.8 25.3 20 C 24 20.5 22.5 21.2 22 21.7 C 21.2 22.5 19.7 25.8 19.1 27.1 C 18.6 28.3 17.8 30 16.2 30 C 14.6 30 13.8 28.3 13.3 27.1 C 12.8 25.8 11.2 22.5 10.4 21.7 C 9.9 21.2 8.4 20.5 7.1 20 C 6.5 19.8 6 19.5 5.6 19.3 C 5.6 19.3 5.5 19.3 5.4 19.3 Z" fill="url(#paint1_linear_140_436)"/>
<path d="M 51.8 20.1 L 50 15.3 L 49.9 15.2 H 49.8 H 47.8 H 47.6 L 47.7 15.4 L 50.9 23.1 L 50.9 23.1 H 51 H 52.6 H 52.7 L 52.7 23 L 56.4 14.1 L 56.5 13.9 H 56.3 H 54.4 H 54.3 L 54.2 14 L 51.8 20.1 Z" fill="white" stroke="white" stroke-width="0.286159"/>
<path d="M 44.6 14 L 44.5 13.9 H 44.4 H 42.5 H 42.3 L 42.3 14.1 L 46.1 23.1 L 46.2 23.1 H 46.3 H 48.2 H 48.4 L 48.3 22.9 L 44.6 14 Z" fill="white" stroke="white" stroke-width="0.286159"/>
<mask id="path-5-outside-1_140_436" maskUnits="userSpaceOnUse" x="56.7266" y="8.74384" width="71" height="15" fill="black">
<rect fill="white" x="56.7" y="8.7" width="71" height="15"/>
<path d="M 60.1 10.9 C 60.1 11.3 59.9 11.5 59.7 11.8 C 59.5 12 59.2 12.1 58.9 12.1 C 58.6 12.1 58.3 12 58.1 11.8 C 57.8 11.5 57.7 11.3 57.7 10.9 C 57.7 10.6 57.8 10.3 58.1 10.1 C 58.3 9.9 58.6 9.7 58.9 9.7 C 59.2 9.7 59.5 9.9 59.7 10.1 C 59.9 10.3 60.1 10.6 60.1 10.9 Z M 59.7 14 V 23 H 58.1 V 14 H 59.7 Z"/>
<path d="M 68.8 20.5 C 68.8 21.3 68.5 21.9 67.8 22.5 C 67.1 23 66.3 23.3 65.3 23.3 C 64.4 23.3 63.6 23 62.9 22.6 C 62.2 22.1 61.8 21.5 61.5 20.7 L 62.9 20.1 C 63.2 20.6 63.5 21 63.9 21.3 C 64.3 21.6 64.8 21.8 65.3 21.8 C 65.8 21.8 66.2 21.6 66.6 21.4 C 66.9 21.2 67.1 20.9 67.1 20.6 C 67.1 20 66.7 19.6 65.8 19.3 L 64.3 18.9 C 62.6 18.5 61.7 17.7 61.7 16.4 C 61.7 15.6 62.1 15 62.7 14.5 C 63.4 14 64.2 13.7 65.2 13.7 C 66 13.7 66.7 13.9 67.3 14.3 C 68 14.7 68.4 15.2 68.6 15.8 L 67.2 16.4 C 67 16 66.7 15.8 66.3 15.6 C 66 15.3 65.6 15.2 65.1 15.2 C 64.7 15.2 64.3 15.3 63.9 15.6 C 63.6 15.8 63.4 16 63.4 16.4 C 63.4 16.9 63.9 17.2 64.8 17.4 L 66.2 17.8 C 67.9 18.2 68.8 19.1 68.8 20.5 Z"/>
<path d="M 74.5 21.7 C 75.3 21.7 75.9 21.4 76.4 20.8 C 77 20.2 77.3 19.5 77.3 18.5 C 77.3 17.6 77 16.8 76.4 16.2 C 75.9 15.6 75.3 15.3 74.5 15.3 C 73.7 15.3 73 15.6 72.5 16.2 C 71.9 16.8 71.6 17.6 71.6 18.5 C 71.6 19.4 71.9 20.2 72.5 20.8 C 73 21.4 73.7 21.7 74.5 21.7 Z M 74.2 23.3 C 73 23.3 72 22.8 71.2 21.9 C 70.4 20.9 70 19.8 70 18.5 C 70 17.2 70.4 16 71.2 15.1 C 72 14.2 73 13.7 74.2 13.7 C 74.8 13.7 75.4 13.9 75.9 14.1 C 76.5 14.4 76.9 14.8 77.2 15.3 H 77.3 L 77.2 14 V 9.9 H 78.8 V 23 H 77.3 V 21.7 H 77.2 C 76.9 22.2 76.5 22.6 75.9 22.8 C 75.4 23.1 74.8 23.3 74.2 23.3 Z"/>
<path d="M 80.4 18.5 C 80.4 17.1 80.9 16 81.7 15.1 C 82.6 14.2 83.7 13.7 85 13.7 C 86.3 13.7 87.4 14.2 88.2 15.1 C 89.1 16 89.5 17.1 89.5 18.5 C 89.5 19.9 89.1 21 88.2 21.9 C 87.4 22.8 86.3 23.3 85 23.3 C 83.7 23.3 82.6 22.8 81.7 21.9 C 80.9 21 80.4 19.9 80.4 18.5 Z M 82.1 18.5 C 82.1 19.5 82.4 20.2 82.9 20.8 C 83.5 21.4 84.2 21.7 85 21.7 C 85.8 21.7 86.5 21.4 87 20.8 C 87.6 20.2 87.8 19.5 87.8 18.5 C 87.8 17.5 87.6 16.8 87 16.2 C 86.5 15.6 85.8 15.3 85 15.3 C 84.2 15.3 83.5 15.6 82.9 16.2 C 82.4 16.8 82.1 17.5 82.1 18.5 Z"/>
<path d="M 92.7 23 H 91 V 14 H 92.6 V 15.3 H 92.7 C 92.9 14.8 93.3 14.5 93.8 14.2 C 94.3 13.9 94.9 13.7 95.4 13.7 C 96 13.7 96.6 13.9 97.1 14.2 C 97.6 14.5 97.9 14.9 98.2 15.4 C 98.9 14.3 99.9 13.7 101.2 13.7 C 102.2 13.7 103 14 103.5 14.7 C 104.1 15.3 104.4 16.2 104.4 17.4 V 23 H 102.7 V 17.6 C 102.7 16.8 102.6 16.2 102.3 15.8 C 102 15.4 101.5 15.3 100.8 15.3 C 100.1 15.3 99.6 15.5 99.2 16.1 C 98.7 16.6 98.5 17.3 98.5 18 V 23 H 96.9 V 17.6 C 96.9 16.8 96.7 16.2 96.4 15.8 C 96.1 15.4 95.6 15.3 94.9 15.3 C 94.3 15.3 93.7 15.5 93.3 16.1 C 92.9 16.6 92.7 17.3 92.7 18 V 23 Z"/>
<path d="M 108.6 10.9 C 108.6 11.3 108.5 11.5 108.3 11.8 C 108.1 12 107.8 12.1 107.5 12.1 C 107.1 12.1 106.9 12 106.6 11.8 C 106.4 11.5 106.3 11.3 106.3 10.9 C 106.3 10.6 106.4 10.3 106.6 10.1 C 106.9 9.9 107.1 9.7 107.5 9.7 C 107.8 9.7 108.1 9.9 108.3 10.1 C 108.5 10.3 108.6 10.6 108.6 10.9 Z M 108.3 14 V 23 H 106.6 V 14 H 108.3 Z"/>
<path d="M 117.4 20.5 C 117.4 21.3 117 21.9 116.3 22.5 C 115.7 23 114.8 23.3 113.8 23.3 C 112.9 23.3 112.1 23 111.5 22.6 C 110.8 22.1 110.3 21.5 110 20.7 L 111.5 20.1 C 111.7 20.6 112 21 112.4 21.3 C 112.9 21.6 113.3 21.8 113.8 21.8 C 114.3 21.8 114.8 21.6 115.1 21.4 C 115.5 21.2 115.7 20.9 115.7 20.6 C 115.7 20 115.2 19.6 114.4 19.3 L 112.9 18.9 C 111.1 18.5 110.3 17.7 110.3 16.4 C 110.3 15.6 110.6 15 111.3 14.5 C 111.9 14 112.8 13.7 113.8 13.7 C 114.6 13.7 115.3 13.9 115.9 14.3 C 116.5 14.7 117 15.2 117.2 15.8 L 115.7 16.4 C 115.6 16 115.3 15.8 114.9 15.6 C 114.5 15.3 114.1 15.2 113.7 15.2 C 113.2 15.2 112.8 15.3 112.5 15.6 C 112.1 15.8 112 16 112 16.4 C 112 16.9 112.5 17.2 113.4 17.4 L 114.7 17.8 C 116.5 18.2 117.4 19.1 117.4 20.5 Z"/>
<path d="M 123 23.3 C 121.7 23.3 120.7 22.8 119.8 21.9 C 119 21 118.6 19.9 118.6 18.5 C 118.6 17.1 119 16 119.8 15.1 C 120.6 14.2 121.6 13.7 122.9 13.7 C 124.2 13.7 125.2 14.2 126 15 C 126.8 15.9 127.2 17.1 127.2 18.6 L 127.2 18.8 H 120.2 C 120.3 19.7 120.6 20.4 121.1 20.9 C 121.7 21.5 122.3 21.7 123.1 21.7 C 124.1 21.7 125 21.2 125.6 20.1 L 127 20.8 C 126.6 21.6 126.1 22.2 125.4 22.6 C 124.7 23 123.9 23.3 123 23.3 Z M 120.4 17.4 H 125.4 C 125.4 16.8 125.1 16.3 124.7 15.9 C 124.2 15.5 123.6 15.3 122.9 15.3 C 122.2 15.3 121.7 15.5 121.3 15.8 C 120.8 16.2 120.5 16.8 120.4 17.4 Z"/>
</mask>
<path d="M 60.1 10.9 C 60.1 11.3 59.9 11.5 59.7 11.8 C 59.5 12 59.2 12.1 58.9 12.1 C 58.6 12.1 58.3 12 58.1 11.8 C 57.8 11.5 57.7 11.3 57.7 10.9 C 57.7 10.6 57.8 10.3 58.1 10.1 C 58.3 9.9 58.6 9.7 58.9 9.7 C 59.2 9.7 59.5 9.9 59.7 10.1 C 59.9 10.3 60.1 10.6 60.1 10.9 Z M 59.7 14 V 23 H 58.1 V 14 H 59.7 Z" fill="white"/>
<path d="M 68.8 20.5 C 68.8 21.3 68.5 21.9 67.8 22.5 C 67.1 23 66.3 23.3 65.3 23.3 C 64.4 23.3 63.6 23 62.9 22.6 C 62.2 22.1 61.8 21.5 61.5 20.7 L 62.9 20.1 C 63.2 20.6 63.5 21 63.9 21.3 C 64.3 21.6 64.8 21.8 65.3 21.8 C 65.8 21.8 66.2 21.6 66.6 21.4 C 66.9 21.2 67.1 20.9 67.1 20.6 C 67.1 20 66.7 19.6 65.8 19.3 L 64.3 18.9 C 62.6 18.5 61.7 17.7 61.7 16.4 C 61.7 15.6 62.1 15 62.7 14.5 C 63.4 14 64.2 13.7 65.2 13.7 C 66 13.7 66.7 13.9 67.3 14.3 C 68 14.7 68.4 15.2 68.6 15.8 L 67.2 16.4 C 67 16 66.7 15.8 66.3 15.6 C 66 15.3 65.6 15.2 65.1 15.2 C 64.7 15.2 64.3 15.3 63.9 15.6 C 63.6 15.8 63.4 16 63.4 16.4 C 63.4 16.9 63.9 17.2 64.8 17.4 L 66.2 17.8 C 67.9 18.2 68.8 19.1 68.8 20.5 Z" fill="white"/>
<path d="M 74.5 21.7 C 75.3 21.7 75.9 21.4 76.4 20.8 C 77 20.2 77.3 19.5 77.3 18.5 C 77.3 17.6 77 16.8 76.4 16.2 C 75.9 15.6 75.3 15.3 74.5 15.3 C 73.7 15.3 73 15.6 72.5 16.2 C 71.9 16.8 71.6 17.6 71.6 18.5 C 71.6 19.4 71.9 20.2 72.5 20.8 C 73 21.4 73.7 21.7 74.5 21.7 Z M 74.2 23.3 C 73 23.3 72 22.8 71.2 21.9 C 70.4 20.9 70 19.8 70 18.5 C 70 17.2 70.4 16 71.2 15.1 C 72 14.2 73 13.7 74.2 13.7 C 74.8 13.7 75.4 13.9 75.9 14.1 C 76.5 14.4 76.9 14.8 77.2 15.3 H 77.3 L 77.2 14 V 9.9 H 78.8 V 23 H 77.3 V 21.7 H 77.2 C 76.9 22.2 76.5 22.6 75.9 22.8 C 75.4 23.1 74.8 23.3 74.2 23.3 Z" fill="white"/>
<path d="M 80.4 18.5 C 80.4 17.1 80.9 16 81.7 15.1 C 82.6 14.2 83.7 13.7 85 13.7 C 86.3 13.7 87.4 14.2 88.2 15.1 C 89.1 16 89.5 17.1 89.5 18.5 C 89.5 19.9 89.1 21 88.2 21.9 C 87.4 22.8 86.3 23.3 85 23.3 C 83.7 23.3 82.6 22.8 81.7 21.9 C 80.9 21 80.4 19.9 80.4 18.5 Z M 82.1 18.5 C 82.1 19.5 82.4 20.2 82.9 20.8 C 83.5 21.4 84.2 21.7 85 21.7 C 85.8 21.7 86.5 21.4 87 20.8 C 87.6 20.2 87.8 19.5 87.8 18.5 C 87.8 17.5 87.6 16.8 87 16.2 C 86.5 15.6 85.8 15.3 85 15.3 C 84.2 15.3 83.5 15.6 82.9 16.2 C 82.4 16.8 82.1 17.5 82.1 18.5 Z" fill="white"/>
<path d="M 92.7 23 H 91 V 14 H 92.6 V 15.3 H 92.7 C 92.9 14.8 93.3 14.5 93.8 14.2 C 94.3 13.9 94.9 13.7 95.4 13.7 C 96 13.7 96.6 13.9 97.1 14.2 C 97.6 14.5 97.9 14.9 98.2 15.4 C 98.9 14.3 99.9 13.7 101.2 13.7 C 102.2 13.7 103 14 103.5 14.7 C 104.1 15.3 104.4 16.2 104.4 17.4 V 23 H 102.7 V 17.6 C 102.7 16.8 102.6 16.2 102.3 15.8 C 102 15.4 101.5 15.3 100.8 15.3 C 100.1 15.3 99.6 15.5 99.2 16.1 C 98.7 16.6 98.5 17.3 98.5 18 V 23 H 96.9 V 17.6 C 96.9 16.8 96.7 16.2 96.4 15.8 C 96.1 15.4 95.6 15.3 94.9 15.3 C 94.3 15.3 93.7 15.5 93.3 16.1 C 92.9 16.6 92.7 17.3 92.7 18 V 23 Z" fill="white"/>
<path d="M 108.6 10.9 C 108.6 11.3 108.5 11.5 108.3 11.8 C 108.1 12 107.8 12.1 107.5 12.1 C 107.1 12.1 106.9 12 106.6 11.8 C 106.4 11.5 106.3 11.3 106.3 10.9 C 106.3 10.6 106.4 10.3 106.6 10.1 C 106.9 9.9 107.1 9.7 107.5 9.7 C 107.8 9.7 108.1 9.9 108.3 10.1 C 108.5 10.3 108.6 10.6 108.6 10.9 Z M 108.3 14 V 23 H 106.6 V 14 H 108.3 Z" fill="white"/>
<path d="M 117.4 20.5 C 117.4 21.3 117 21.9 116.3 22.5 C 115.7 23 114.8 23.3 113.8 23.3 C 112.9 23.3 112.1 23 111.5 22.6 C 110.8 22.1 110.3 21.5 110 20.7 L 111.5 20.1 C 111.7 20.6 112 21 112.4 21.3 C 112.9 21.6 113.3 21.8 113.8 21.8 C 114.3 21.8 114.8 21.6 115.1 21.4 C 115.5 21.2 115.7 20.9 115.7 20.6 C 115.7 20 115.2 19.6 114.4 19.3 L 112.9 18.9 C 111.1 18.5 110.3 17.7 110.3 16.4 C 110.3 15.6 110.6 15 111.3 14.5 C 111.9 14 112.8 13.7 113.8 13.7 C 114.6 13.7 115.3 13.9 115.9 14.3 C 116.5 14.7 117 15.2 117.2 15.8 L 115.7 16.4 C 115.6 16 115.3 15.8 114.9 15.6 C 114.5 15.3 114.1 15.2 113.7 15.2 C 113.2 15.2 112.8 15.3 112.5 15.6 C 112.1 15.8 112 16 112 16.4 C 112 16.9 112.5 17.2 113.4 17.4 L 114.7 17.8 C 116.5 18.2 117.4 19.1 117.4 20.5 Z" fill="white"/>
<path d="M 123 23.3 C 121.7 23.3 120.7 22.8 119.8 21.9 C 119 21 118.6 19.9 118.6 18.5 C 118.6 17.1 119 16 119.8 15.1 C 120.6 14.2 121.6 13.7 122.9 13.7 C 124.2 13.7 125.2 14.2 126 15 C 126.8 15.9 127.2 17.1 127.2 18.6 L 127.2 18.8 H 120.2 C 120.3 19.7 120.6 20.4 121.1 20.9 C 121.7 21.5 122.3 21.7 123.1 21.7 C 124.1 21.7 125 21.2 125.6 20.1 L 127 20.8 C 126.6 21.6 126.1 22.2 125.4 22.6 C 124.7 23 123.9 23.3 123 23.3 Z M 120.4 17.4 H 125.4 C 125.4 16.8 125.1 16.3 124.7 15.9 C 124.2 15.5 123.6 15.3 122.9 15.3 C 122.2 15.3 121.7 15.5 121.3 15.8 C 120.8 16.2 120.5 16.8 120.4 17.4 Z" fill="white"/>
<path d="M 60.1 10.9 C 60.1 11.3 59.9 11.5 59.7 11.8 C 59.5 12 59.2 12.1 58.9 12.1 C 58.6 12.1 58.3 12 58.1 11.8 C 57.8 11.5 57.7 11.3 57.7 10.9 C 57.7 10.6 57.8 10.3 58.1 10.1 C 58.3 9.9 58.6 9.7 58.9 9.7 C 59.2 9.7 59.5 9.9 59.7 10.1 C 59.9 10.3 60.1 10.6 60.1 10.9 Z M 59.7 14 V 23 H 58.1 V 14 H 59.7 Z" stroke="white" stroke-width="0.572319" mask="url(#path-5-outside-1_140_436)"/>
<path d="M 68.8 20.5 C 68.8 21.3 68.5 21.9 67.8 22.5 C 67.1 23 66.3 23.3 65.3 23.3 C 64.4 23.3 63.6 23 62.9 22.6 C 62.2 22.1 61.8 21.5 61.5 20.7 L 62.9 20.1 C 63.2 20.6 63.5 21 63.9 21.3 C 64.3 21.6 64.8 21.8 65.3 21.8 C 65.8 21.8 66.2 21.6 66.6 21.4 C 66.9 21.2 67.1 20.9 67.1 20.6 C 67.1 20 66.7 19.6 65.8 19.3 L 64.3 18.9 C 62.6 18.5 61.7 17.7 61.7 16.4 C 61.7 15.6 62.1 15 62.7 14.5 C 63.4 14 64.2 13.7 65.2 13.7 C 66 13.7 66.7 13.9 67.3 14.3 C 68 14.7 68.4 15.2 68.6 15.8 L 67.2 16.4 C 67 16 66.7 15.8 66.3 15.6 C 66 15.3 65.6 15.2 65.1 15.2 C 64.7 15.2 64.3 15.3 63.9 15.6 C 63.6 15.8 63.4 16 63.4 16.4 C 63.4 16.9 63.9 17.2 64.8 17.4 L 66.2 17.8 C 67.9 18.2 68.8 19.1 68.8 20.5 Z" stroke="white" stroke-width="0.572319" mask="url(#path-5-outside-1_140_436)"/>
<path d="M 74.5 21.7 C 75.3 21.7 75.9 21.4 76.4 20.8 C 77 20.2 77.3 19.5 77.3 18.5 C 77.3 17.6 77 16.8 76.4 16.2 C 75.9 15.6 75.3 15.3 74.5 15.3 C 73.7 15.3 73 15.6 72.5 16.2 C 71.9 16.8 71.6 17.6 71.6 18.5 C 71.6 19.4 71.9 20.2 72.5 20.8 C 73 21.4 73.7 21.7 74.5 21.7 Z M 74.2 23.3 C 73 23.3 72 22.8 71.2 21.9 C 70.4 20.9 70 19.8 70 18.5 C 70 17.2 70.4 16 71.2 15.1 C 72 14.2 73 13.7 74.2 13.7 C 74.8 13.7 75.4 13.9 75.9 14.1 C 76.5 14.4 76.9 14.8 77.2 15.3 H 77.3 L 77.2 14 V 9.9 H 78.8 V 23 H 77.3 V 21.7 H 77.2 C 76.9 22.2 76.5 22.6 75.9 22.8 C 75.4 23.1 74.8 23.3 74.2 23.3 Z" stroke="white" stroke-width="0.572319" mask="url(#path-5-outside-1_140_436)"/>
<path d="M 80.4 18.5 C 80.4 17.1 80.9 16 81.7 15.1 C 82.6 14.2 83.7 13.7 85 13.7 C 86.3 13.7 87.4 14.2 88.2 15.1 C 89.1 16 89.5 17.1 89.5 18.5 C 89.5 19.9 89.1 21 88.2 21.9 C 87.4 22.8 86.3 23.3 85 23.3 C 83.7 23.3 82.6 22.8 81.7 21.9 C 80.9 21 80.4 19.9 80.4 18.5 Z M 82.1 18.5 C 82.1 19.5 82.4 20.2 82.9 20.8 C 83.5 21.4 84.2 21.7 85 21.7 C 85.8 21.7 86.5 21.4 87 20.8 C 87.6 20.2 87.8 19.5 87.8 18.5 C 87.8 17.5 87.6 16.8 87 16.2 C 86.5 15.6 85.8 15.3 85 15.3 C 84.2 15.3 83.5 15.6 82.9 16.2 C 82.4 16.8 82.1 17.5 82.1 18.5 Z" stroke="white" stroke-width="0.572319" mask="url(#path-5-outside-1_140_436)"/>
<path d="M 92.7 23 H 91 V 14 H 92.6 V 15.3 H 92.7 C 92.9 14.8 93.3 14.5 93.8 14.2 C 94.3 13.9 94.9 13.7 95.4 13.7 C 96 13.7 96.6 13.9 97.1 14.2 C 97.6 14.5 97.9 14.9 98.2 15.4 C 98.9 14.3 99.9 13.7 101.2 13.7 C 102.2 13.7 103 14 103.5 14.7 C 104.1 15.3 104.4 16.2 104.4 17.4 V 23 H 102.7 V 17.6 C 102.7 16.8 102.6 16.2 102.3 15.8 C 102 15.4 101.5 15.3 100.8 15.3 C 100.1 15.3 99.6 15.5 99.2 16.1 C 98.7 16.6 98.5 17.3 98.5 18 V 23 H 96.9 V 17.6 C 96.9 16.8 96.7 16.2 96.4 15.8 C 96.1 15.4 95.6 15.3 94.9 15.3 C 94.3 15.3 93.7 15.5 93.3 16.1 C 92.9 16.6 92.7 17.3 92.7 18 V 23 Z" stroke="white" stroke-width="0.572319" mask="url(#path-5-outside-1_140_436)"/>
<path d="M 108.6 10.9 C 108.6 11.3 108.5 11.5 108.3 11.8 C 108.1 12 107.8 12.1 107.5 12.1 C 107.1 12.1 106.9 12 106.6 11.8 C 106.4 11.5 106.3 11.3 106.3 10.9 C 106.3 10.6 106.4 10.3 106.6 10.1 C 106.9 9.9 107.1 9.7 107.5 9.7 C 107.8 9.7 108.1 9.9 108.3 10.1 C 108.5 10.3 108.6 10.6 108.6 10.9 Z M 108.3 14 V 23 H 106.6 V 14 H 108.3 Z" stroke="white" stroke-width="0.572319" mask="url(#path-5-outside-1_140_436)"/>
<path d="M 117.4 20.5 C 117.4 21.3 117 21.9 116.3 22.5 C 115.7 23 114.8 23.3 113.8 23.3 C 112.9 23.3 112.1 23 111.5 22.6 C 110.8 22.1 110.3 21.5 110 20.7 L 111.5 20.1 C 111.7 20.6 112 21 112.4 21.3 C 112.9 21.6 113.3 21.8 113.8 21.8 C 114.3 21.8 114.8 21.6 115.1 21.4 C 115.5 21.2 115.7 20.9 115.7 20.6 C 115.7 20 115.2 19.6 114.4 19.3 L 112.9 18.9 C 111.1 18.5 110.3 17.7 110.3 16.4 C 110.3 15.6 110.6 15 111.3 14.5 C 111.9 14 112.8 13.7 113.8 13.7 C 114.6 13.7 115.3 13.9 115.9 14.3 C 116.5 14.7 117 15.2 117.2 15.8 L 115.7 16.4 C 115.6 16 115.3 15.8 114.9 15.6 C 114.5 15.3 114.1 15.2 113.7 15.2 C 113.2 15.2 112.8 15.3 112.5 15.6 C 112.1 15.8 112 16 112 16.4 C 112 16.9 112.5 17.2 113.4 17.4 L 114.7 17.8 C 116.5 18.2 117.4 19.1 117.4 20.5 Z" stroke="white" stroke-width="0.572319" mask="url(#path-5-outside-1_140_436)"/>
<path d="M 123 23.3 C 121.7 23.3 120.7 22.8 119.8 21.9 C 119 21 118.6 19.9 118.6 18.5 C 118.6 17.1 119 16 119.8 15.1 C 120.6 14.2 121.6 13.7 122.9 13.7 C 124.2 13.7 125.2 14.2 126 15 C 126.8 15.9 127.2 17.1 127.2 18.6 L 127.2 18.8 H 120.2 C 120.3 19.7 120.6 20.4 121.1 20.9 C 121.7 21.5 122.3 21.7 123.1 21.7 C 124.1 21.7 125 21.2 125.6 20.1 L 127 20.8 C 126.6 21.6 126.1 22.2 125.4 22.6 C 124.7 23 123.9 23.3 123 23.3 Z M 120.4 17.4 H 125.4 C 125.4 16.8 125.1 16.3 124.7 15.9 C 124.2 15.5 123.6 15.3 122.9 15.3 C 122.2 15.3 121.7 15.5 121.3 15.8 C 120.8 16.2 120.5 16.8 120.4 17.4 Z" stroke="white" stroke-width="0.572319" mask="url(#path-5-outside-1_140_436)"/>
<rect x="136.2" y="5" width="59" height="23" rx="11.5" fill="white"/>
<path d="M 157.3 16.2 C 157.6 16.2 157.9 16.4 158.1 16.6 C 158.4 16.8 158.6 17 158.7 17.3 C 158.9 17.6 158.9 17.9 158.9 18.3 C 158.9 18.7 158.8 19.1 158.6 19.4 C 158.4 19.7 158.1 20 157.7 20.2 C 157.3 20.4 156.8 20.5 156.2 20.5 H 153.1 V 12.1 H 156.1 C 156.7 12.1 157.2 12.2 157.6 12.4 C 158 12.6 158.3 12.9 158.5 13.2 C 158.7 13.5 158.8 13.9 158.8 14.3 C 158.8 14.8 158.6 15.2 158.3 15.5 C 158.1 15.8 157.7 16 157.3 16.2 Z M 154.2 15.7 H 156 C 156.5 15.7 156.9 15.6 157.2 15.4 C 157.5 15.1 157.6 14.8 157.6 14.4 C 157.6 14 157.5 13.6 157.2 13.4 C 156.9 13.2 156.5 13 156 13 H 154.2 V 15.7 Z M 156.1 19.6 C 156.7 19.6 157.1 19.5 157.4 19.2 C 157.7 19 157.9 18.6 157.9 18.1 C 157.9 17.7 157.7 17.3 157.4 17.1 C 157.1 16.8 156.6 16.6 156.1 16.6 H 154.2 V 19.6 H 156.1 Z M 161.6 13 V 15.8 H 164.6 V 16.7 H 161.6 V 19.6 H 165 V 20.5 H 160.5 V 12.1 H 165 V 13 H 161.6 Z M 171.8 12.1 V 13 H 169.5 V 20.5 H 168.4 V 13 H 166.1 V 12.1 H 171.8 Z M 178.1 18.6 H 174.4 L 173.7 20.5 H 172.6 L 175.6 12.2 H 176.9 L 179.9 20.5 H 178.7 L 178.1 18.6 Z M 177.7 17.8 L 176.2 13.5 L 174.7 17.8 H 177.7 Z" fill="#131822"/>
<defs>
<linearGradient id="paint0_linear_140_436" x1="33.2537" y1="0.0202953" x2="-0.85525" y2="31.9894" gradientUnits="userSpaceOnUse">
<stop stop-color="#00a3ff"/>
<stop offset="1" stop-color="#ff00c7"/>
</linearGradient>
<linearGradient id="paint1_linear_140_436" x1="35.2383" y1="0.0202911" x2="-2.85257" y2="1.95198" gradientUnits="userSpaceOnUse">
<stop stop-color="#00fff0"/>
<stop offset="0" stop-color="#13def2"/>
<stop offset="0.9" stop-color="#e26cff"/>
</linearGradient>
</defs>
</svg>
