<svg width="265" height="248" viewBox="0 0 265 248" fill="none" xmlns="http://www.w3.org/2000/svg">
<path d="M264.346 60.5116C258.953 47.547 248.617 36.2973 234.566 33.3576C212.586 28.7974 190.662 44.9089 188.33 67.4273C216.374 54.4816 231.021 65.524 231.021 65.524C227.961 70.2915 224.808 76.8868 220.983 81.2021C220.106 82.2008 219.191 83.0676 218.24 83.7837C209.246 90.4167 200.551 93.8086 200.551 93.8086C207.474 93.1114 217.643 85.913 217.643 85.913C222.942 95.3161 231.394 113.595 231.208 137.545C230.965 170.352 214.676 192.852 208.295 201.407C195.028 219.214 179.374 229.446 168.701 234.986C158.699 240.187 138.66 248.724 112.295 247.951C102.033 247.649 78.4291 245.577 54.0793 230.106C22.2286 209.868 10.2496 180.226 7.13362 171.709C3.84966 162.758 -4.21097 137.338 2.74879 105.812C4.85724 96.2394 10.1004 78.2624 23.9079 60.1535C28.1435 54.5946 49.5452 27.5161 87.46 17.9999C96.2856 15.7764 103.824 15.0603 108.899 14.8153C109.821 29.7711 110.691 43.8766 111.619 58.9225C105.536 59.582 82.8512 62.8859 65.853 79.7511C61.4682 84.104 48.7055 97.86 45.2163 120.001C44.3394 125.598 42.6041 140.918 49.5265 158.217C51.3738 162.852 54.8443 170.088 60.9831 177.419C77.5708 197.242 100.111 201.576 103.675 202.198C129.592 206.777 150.639 195.622 159.763 188.499C166.35 183.354 171.649 176.759 171.649 176.759C177.769 169.146 180.736 162.287 181.37 160.798C182.769 157.501 185.773 150.265 186.277 140.673C186.986 127.049 182.266 116.383 179.373 111.013C179.094 115.837 179.28 120.887 178.403 125.768C176.369 136.961 169.036 144.046 157.897 145.987C166.536 138.412 164.95 131.232 164.95 131.232C163.831 136.207 161.312 140.07 158.55 142.972C157.244 144.348 155.453 145.158 153.568 145.403H153.531C151.367 145.704 149.295 146.1 147.299 146.59C140.992 148.116 135.432 150.453 130.431 152.997C132.316 167.318 120.038 178.361 119.367 179.906C117.855 183.449 119.367 171.634 119.479 170.616C114.105 185.107 97.6477 185.955 97.6477 185.955C104.384 182.28 107.164 171.879 108.507 164.586C106.324 165.396 104.197 165.962 102.089 166.056C94.4757 166.451 85.9113 161.967 80.7241 158.688C77.5521 156.672 75.3131 153.487 74.5481 149.812C73.13 142.802 71.8798 130.931 77.944 124.731C85.1836 117.307 103.88 91.1705 117.053 72.5716C121.624 66.1082 118.34 62.4336 125.692 57.0255C129.554 54.18 132.577 51.4665 135.563 49.7894C138.193 48.3196 141.011 47.3586 143.94 46.8875C148.381 46.1526 153.027 46.586 157.375 48.0935L171.835 53.1625L151.385 43.2506C152.355 41.4228 153.363 39.6515 154.427 37.9555C174.149 5.99642 206.933 -2.0122 223.035 0.399809C223.129 0.399809 223.203 0.399808 223.296 0.437496C228.745 1.28547 233.484 2.66107 237.608 4.45123C271.548 19.0363 264.365 60.4927 264.365 60.4927L264.346 60.5116Z" fill="#101010"/>
</svg>
