<svg width="96" height="20" viewBox="0 0 96 20" fill="none" xmlns="http://www.w3.org/2000/svg">
<path opacity="0.65" fill-rule="evenodd" clip-rule="evenodd" d="M9.9825 19.9536C15.4891 19.9536 19.9531 15.4896 19.9531 9.98299C19.9531 4.47638 15.4891 0.0123745 9.9825 0.012374C4.47589 0.0123735 0.0118879 4.47638 0.0118875 9.98298C0.011887 15.4896 4.47589 19.9536 9.9825 19.9536ZM13.4824 4.0945C14.3069 3.79976 15.2292 3.47005 15.8964 4.13721C16.5635 4.80437 16.2338 5.72667 15.9391 6.55115C15.9247 6.59131 15.9104 6.63124 15.8964 6.6709C15.8067 6.92374 15.6759 7.24179 15.5362 7.58142C15.2043 8.38863 14.8223 9.31772 14.8223 9.78294C14.8223 10.4439 15.5659 12.5645 15.8688 13.3081C16.1718 14.0517 16.5547 15.1559 15.8551 15.8556C15.1554 16.5552 14.0512 16.1723 13.3076 15.8693C12.564 15.5664 10.4434 14.8228 9.78246 14.8228C9.31723 14.8228 8.38811 15.2048 7.58089 15.5367C7.24127 15.6764 6.92323 15.8072 6.67041 15.8969C6.63075 15.9109 6.59082 15.9252 6.55064 15.9396C5.72618 16.2343 4.80388 16.564 4.13672 15.8969C3.46956 15.2297 3.79927 14.3074 4.09401 13.4829C4.10837 13.4428 4.12265 13.4028 4.13672 13.3632C4.22643 13.1104 4.35719 12.7923 4.49684 12.4527C4.82875 11.6455 5.21079 10.7164 5.21079 10.2511C5.21079 9.59016 4.46719 7.46957 4.16426 6.72598C3.86131 5.98241 3.47836 4.87817 4.17803 4.17851C4.87769 3.47885 5.9819 3.8618 6.7255 4.16475C7.46909 4.46768 9.58968 5.21127 10.2506 5.21127C10.7159 5.21127 11.645 4.82924 12.4522 4.49733C12.7918 4.35768 13.1099 4.22691 13.3627 4.13721C13.4023 4.12314 13.4423 4.10886 13.4824 4.0945Z" fill="url(#paint0_linear_4230_20919)"/>
<path opacity="0.65" fill-rule="evenodd" clip-rule="evenodd" d="M17.0328 2.9327C13.139 -0.961064 6.82599 -0.961065 2.93222 2.9327C-0.961551 6.82647 -0.961551 13.1395 2.93222 17.0333C6.82598 20.9271 13.139 20.9271 17.0328 17.0333C20.9266 13.1395 20.9266 6.82647 17.0328 2.9327ZM3.34379 11.6719C2.55242 11.2973 1.66712 10.8783 1.66712 9.93482C1.66712 8.99133 2.55242 8.57231 3.34379 8.19773C3.38236 8.17948 3.42071 8.16133 3.45872 8.14323C3.70092 8.02789 4.01826 7.89548 4.35713 7.75409C5.16261 7.41799 6.08977 7.03113 6.41874 6.70216C6.88612 6.23479 7.85981 4.20951 8.17139 3.4695C8.48297 2.72949 8.99299 1.6779 9.98246 1.6779C10.9719 1.6779 11.4819 2.72949 11.7935 3.4695C12.1051 4.20951 13.0788 6.23479 13.5462 6.70216C13.8752 7.03113 14.8023 7.418 15.6078 7.75409C15.9467 7.89548 16.264 8.0279 16.5062 8.14323C16.5442 8.16133 16.5826 8.17948 16.6211 8.19774C17.4125 8.57231 18.2978 8.99134 18.2978 9.93482C18.2978 10.8783 17.4125 11.2973 16.6211 11.6719C16.5826 11.6902 16.5442 11.7083 16.5062 11.7264C16.264 11.8418 15.9467 11.9742 15.6078 12.1156C14.8023 12.4517 13.8752 12.8385 13.5462 13.1675C13.0788 13.6349 12.1051 15.6601 11.7935 16.4001C11.4819 17.1402 10.9719 18.1917 9.98246 18.1917C8.99299 18.1917 8.48297 17.1402 8.17139 16.4001C7.85981 15.6601 6.88612 13.6349 6.41874 13.1675C6.08977 12.8385 5.16261 12.4517 4.35713 12.1156C4.01825 11.9742 3.70092 11.8418 3.45872 11.7264C3.42071 11.7083 3.38236 11.6902 3.34379 11.6719Z" fill="url(#paint1_linear_4230_20919)"/>
<path d="M31.9766 13.5775L30.2495 9.0074H28.5684L31.2844 15.7685H32.6194L35.7537 7.79077H34.1097L31.9766 13.5775Z" fill="white"/>
<path d="M25.6811 7.79077L28.8801 15.7685H27.2241L24 7.79077H25.6811Z" fill="white"/>
<path d="M38.9559 5.05405C38.9559 5.34595 38.8591 5.59459 38.6656 5.8C38.4721 6.0054 38.2378 6.10811 37.9628 6.10811C37.6878 6.10811 37.4535 6.0054 37.26 5.8C37.0665 5.59459 36.9697 5.34595 36.9697 5.05405C36.9697 4.76216 37.0665 4.51351 37.26 4.30811C37.4535 4.1027 37.6878 4 37.9628 4C38.2378 4 38.4721 4.1027 38.6656 4.30811C38.8591 4.51351 38.9559 4.76216 38.9559 5.05405ZM38.6656 7.7946V15.7405H37.26V7.7946H38.6656Z" fill="white"/>
<path d="M46.374 13.5351C46.374 14.227 46.0888 14.8108 45.5184 15.2865C44.948 15.7622 44.2299 16 43.3641 16C42.6104 16 41.9484 15.7946 41.378 15.3838C40.8076 14.9622 40.4002 14.4108 40.1557 13.7297L41.4085 13.1622C41.5919 13.6378 41.8567 14.0108 42.203 14.2811C42.5595 14.5405 42.9465 14.6703 43.3641 14.6703C43.8123 14.6703 44.1841 14.5676 44.4795 14.3622C44.785 14.1568 44.9378 13.9135 44.9378 13.6324C44.9378 13.1243 44.5711 12.7514 43.8378 12.5135L42.5544 12.173C41.0979 11.7838 40.3696 11.0378 40.3696 9.93513C40.3696 9.21081 40.6446 8.63243 41.1946 8.2C41.7548 7.75676 42.4678 7.53513 43.3336 7.53513C43.9956 7.53513 44.5915 7.7027 45.1211 8.03784C45.661 8.37297 46.0378 8.82162 46.2517 9.38378L44.9989 9.93513C44.8563 9.6 44.6221 9.34054 44.2961 9.15676C43.9804 8.96216 43.6239 8.86486 43.2266 8.86486C42.86 8.86486 42.5289 8.96216 42.2336 9.15676C41.9484 9.35135 41.8058 9.58919 41.8058 9.87027C41.8058 10.3243 42.2081 10.6486 43.0127 10.8432L44.1433 11.1514C45.6304 11.5405 46.374 12.3351 46.374 13.5351Z" fill="white"/>
<path d="M51.183 14.6378C51.8756 14.6378 52.4409 14.373 52.8789 13.8432C53.3373 13.3135 53.5664 12.6216 53.5664 11.7676C53.5664 10.9351 53.3373 10.2486 52.8789 9.70811C52.4307 9.16757 51.8654 8.8973 51.183 8.8973C50.5108 8.8973 49.9455 9.16757 49.4871 9.70811C49.0288 10.2486 48.7996 10.9351 48.7996 11.7676C48.7996 12.6108 49.0288 13.2973 49.4871 13.827C49.9455 14.3676 50.5108 14.6378 51.183 14.6378ZM50.9538 16C49.976 16 49.1357 15.5892 48.4329 14.7676C47.7403 13.9351 47.394 12.9351 47.394 11.7676C47.394 10.6 47.7403 9.6 48.4329 8.76757C49.1357 7.94595 49.976 7.53513 50.9538 7.53513C51.5039 7.53513 52.003 7.65946 52.4511 7.90811C52.9095 8.15676 53.2609 8.48649 53.5053 8.8973H53.5664L53.5053 7.7946V4.12973H54.9109V15.7405H53.5664V14.6378H53.5053C53.2609 15.0486 52.9095 15.3784 52.4511 15.627C52.003 15.8757 51.5039 16 50.9538 16Z" fill="white"/>
<path d="M56.2721 11.7676C56.2721 10.5459 56.6337 9.53513 57.3569 8.73513C58.0902 7.93513 59.012 7.53513 60.1222 7.53513C61.2324 7.53513 62.1491 7.93513 62.8723 8.73513C63.6057 9.53513 63.9723 10.5459 63.9723 11.7676C63.9723 13 63.6057 14.0108 62.8723 14.8C62.1491 15.6 61.2324 16 60.1222 16C59.012 16 58.0902 15.6 57.3569 14.8C56.6337 14 56.2721 12.9892 56.2721 11.7676ZM57.6777 11.7676C57.6777 12.6216 57.912 13.3135 58.3805 13.8432C58.849 14.373 59.4296 14.6378 60.1222 14.6378C60.8148 14.6378 61.3954 14.373 61.8639 13.8432C62.3325 13.3135 62.5667 12.6216 62.5667 11.7676C62.5667 10.9243 62.3325 10.2378 61.8639 9.70811C61.3852 9.16757 60.8046 8.8973 60.1222 8.8973C59.4398 8.8973 58.8592 9.16757 58.3805 9.70811C57.912 10.2378 57.6777 10.9243 57.6777 11.7676Z" fill="white"/>
<path d="M66.6553 15.7405H65.2497V7.7946H66.5942V8.8973H66.6553C66.8692 8.50811 67.1952 8.18378 67.6331 7.92432C68.0813 7.66486 68.5244 7.53513 68.9624 7.53513C69.5124 7.53513 69.9962 7.67027 70.4138 7.94054C70.8314 8.21081 71.137 8.58378 71.3305 9.05946C71.9518 8.04324 72.8125 7.53513 73.9125 7.53513C74.7783 7.53513 75.4454 7.81622 75.914 8.37838C76.3825 8.94054 76.6168 9.74054 76.6168 10.7784V15.7405H75.2112V11.0054C75.2112 10.2595 75.0838 9.72432 74.8292 9.4C74.5746 9.06486 74.1468 8.8973 73.5458 8.8973C73.006 8.8973 72.5527 9.14054 72.1861 9.62703C71.8194 10.1135 71.636 10.6865 71.636 11.3459V15.7405H70.2304V11.0054C70.2304 10.2595 70.1031 9.72432 69.8485 9.4C69.5939 9.06486 69.1661 8.8973 68.5651 8.8973C68.0253 8.8973 67.572 9.14054 67.2054 9.62703C66.8387 10.1135 66.6553 10.6865 66.6553 11.3459V15.7405Z" fill="white"/>
<path d="M80.228 5.05405C80.228 5.34595 80.1313 5.59459 79.9377 5.8C79.7442 6.0054 79.5099 6.10811 79.2349 6.10811C78.9599 6.10811 78.7257 6.0054 78.5321 5.8C78.3386 5.59459 78.2419 5.34595 78.2419 5.05405C78.2419 4.76216 78.3386 4.51351 78.5321 4.30811C78.7257 4.1027 78.9599 4 79.2349 4C79.5099 4 79.7442 4.1027 79.9377 4.30811C80.1313 4.51351 80.228 4.76216 80.228 5.05405ZM79.9377 7.7946V15.7405H78.5321V7.7946H79.9377Z" fill="white"/>
<path d="M87.6461 13.5351C87.6461 14.227 87.3609 14.8108 86.7905 15.2865C86.2201 15.7622 85.502 16 84.6363 16C83.8825 16 83.2205 15.7946 82.6501 15.3838C82.0797 14.9622 81.6723 14.4108 81.4278 13.7297L82.6807 13.1622C82.864 13.6378 83.1288 14.0108 83.4751 14.2811C83.8316 14.5405 84.2187 14.6703 84.6363 14.6703C85.0844 14.6703 85.4562 14.5676 85.7516 14.3622C86.0571 14.1568 86.2099 13.9135 86.2099 13.6324C86.2099 13.1243 85.8433 12.7514 85.1099 12.5135L83.8265 12.173C82.37 11.7838 81.6417 11.0378 81.6417 9.93513C81.6417 9.21081 81.9167 8.63243 82.4668 8.2C83.027 7.75676 83.7399 7.53513 84.6057 7.53513C85.2678 7.53513 85.8636 7.7027 86.3933 8.03784C86.9331 8.37297 87.31 8.82162 87.5239 9.38378L86.271 9.93513C86.1284 9.6 85.8942 9.34054 85.5682 9.15676C85.2525 8.96216 84.896 8.86486 84.4988 8.86486C84.1321 8.86486 83.8011 8.96216 83.5057 9.15676C83.2205 9.35135 83.0779 9.58919 83.0779 9.87027C83.0779 10.3243 83.4802 10.6486 84.2849 10.8432L85.4155 11.1514C86.9025 11.5405 87.6461 12.3351 87.6461 13.5351Z" fill="white"/>
<path d="M92.4551 16C91.3551 16 90.4486 15.6 89.7356 14.8C89.0226 14 88.6661 12.9892 88.6661 11.7676C88.6661 10.5568 89.0124 9.55135 89.7051 8.75135C90.3977 7.94054 91.2838 7.53513 92.3635 7.53513C93.4737 7.53513 94.3547 7.91892 95.0066 8.68649C95.6687 9.44324 95.9997 10.5081 95.9997 11.8811L95.9844 12.0432H90.1023C90.1227 12.8216 90.3671 13.4486 90.8357 13.9243C91.3042 14.4 91.8644 14.6378 92.5163 14.6378C93.4126 14.6378 94.1154 14.1622 94.6247 13.2108L95.8775 13.8595C95.5414 14.5297 95.0728 15.0541 94.4719 15.4324C93.8811 15.8108 93.2089 16 92.4551 16ZM90.2092 10.8108H94.5024C94.4617 10.2595 94.2478 9.80541 93.8607 9.44865C93.4839 9.08108 92.9746 8.8973 92.3329 8.8973C91.8033 8.8973 91.3449 9.07027 90.9579 9.41622C90.581 9.76216 90.3315 10.227 90.2092 10.8108Z" fill="white"/>
<defs>
<linearGradient id="paint0_linear_4230_20919" x1="20.4849" y1="0.0123756" x2="-0.206318" y2="19.7246" gradientUnits="userSpaceOnUse">
<stop stop-color="#00A3FF"/>
<stop offset="1" stop-color="#FF00C7"/>
</linearGradient>
<linearGradient id="paint1_linear_4230_20919" x1="21.708" y1="0.0123734" x2="-1.75527" y2="1.22183" gradientUnits="userSpaceOnUse">
<stop stop-color="#00FFF0"/>
<stop offset="0.0001" stop-color="#13DEF2"/>
<stop offset="0.855974" stop-color="#E26CFF"/>
</linearGradient>
</defs>
</svg>
