<svg xmlns="http://www.w3.org/2000/svg" width="12" height="48" viewBox="0 0 12 48" fill="none">
  <path opacity="0.4" fill-rule="evenodd" clip-rule="evenodd" d="M1 -0.25C1.41421 -0.25 1.75 0.0857864 1.75 0.5V14.5V17.5V20.25V20.5C1.75 22.2949 3.20507 23.75 5 23.75H11C11.4142 23.75 11.75 24.0858 11.75 24.5C11.75 24.9142 11.4142 25.25 11 25.25H5C3.74279 25.25 2.59965 24.7616 1.75 23.9641L1.75 48C1.75 48.4142 1.41421 48.75 1 48.75C0.585788 48.75 0.25 48.4142 0.25 48V21V20.5V20.25V17.5V14.5V0.5C0.25 0.0857864 0.585786 -0.25 1 -0.25Z" fill="white"/>
</svg>
