<svg xmlns="http://www.w3.org/2000/svg" width="8" height="9" viewBox="0 0 8 9" fill="none">
  <path fill-rule="evenodd" clip-rule="evenodd" d="M5.33165 4.1365L3.79232 5.67583C3.74332 5.72483 3.67965 5.74917 3.61565 5.74917C3.55132 5.74917 3.48765 5.72483 3.43865 5.67583L2.66898 4.90617C2.57132 4.8085 2.57132 4.65017 2.66898 4.5525C2.76665 4.45483 2.92465 4.45483 3.02232 4.5525L3.61565 5.1455L4.97798 3.78283C5.07565 3.68517 5.23398 3.68517 5.33165 3.78283C5.42932 3.8805 5.42932 4.03883 5.33165 4.1365ZM4.00065 1.5625C2.25465 1.5625 0.833984 2.98317 0.833984 4.72917C0.833984 6.4755 2.25465 7.89583 4.00065 7.89583C5.74665 7.89583 7.16732 6.4755 7.16732 4.72917C7.16732 2.98317 5.74665 1.5625 4.00065 1.5625Z" fill="currentcolor" fill-opacity="0.96"/>
</svg>
