<svg width="48" height="48" viewBox="0 0 48 48" fill="none" xmlns="http://www.w3.org/2000/svg">
<path d="M26.85 15.75V15.9H27H30C31.574 15.9 32.85 17.176 32.85 18.75V29.25C32.85 29.9956 32.2456 30.6 31.5 30.6H13.5C12.7544 30.6 12.15 29.9956 12.15 29.25V23.25C12.15 21.676 13.426 20.4 15 20.4H18H18.15V20.25V14.25C18.15 12.676 19.426 11.4 21 11.4H24C25.574 11.4 26.85 12.676 26.85 14.25V15.75ZM27 18.6H26.85V18.75V27.75V27.9H27H30H30.15V27.75V18.75V18.6H30H27ZM24.15 14.25V14.1H24H21H20.85V14.25V27.75V27.9H21H24H24.15V27.75V14.25ZM18.15 23.25V23.1H18H15H14.85V23.25V27.75V27.9H15H18H18.15V27.75V23.25Z" fill="white" stroke="#131920" stroke-width="0.3"/>
<path fill-rule="evenodd" clip-rule="evenodd" d="M37.5295 7.68166C29.2872 -0.560552 15.9239 -0.560552 7.68166 7.68166C-0.560552 15.9239 -0.560552 29.2872 7.68166 37.5295C15.5673 45.4151 28.1405 45.7562 36.4317 38.553L43.9394 46.0607C44.5251 46.6465 45.4749 46.6465 46.0607 46.0607C46.6465 45.4749 46.6465 44.5251 46.0607 43.9394L38.553 36.4317C45.7562 28.1405 45.4151 15.5673 37.5295 7.68166ZM9.80303 9.80303C16.8737 2.73234 28.3375 2.73234 35.4081 9.80303C42.4788 16.8737 42.4788 28.3375 35.4081 35.4081C28.3375 42.4788 16.8737 42.4788 9.80303 35.4081C2.73234 28.3375 2.73234 16.8737 9.80303 9.80303Z" fill="white"/>
</svg>
