<svg width="27" height="16" viewBox="0 0 27 16" fill="none" xmlns="http://www.w3.org/2000/svg">
<g id="Frame 1171278840">
<path d="M0 2.85714C0 1.27919 1.27919 0 2.85714 0H18.6667C23.0849 0 26.6667 3.58172 26.6667 8C26.6667 12.4183 23.0849 16 18.6667 16H2.85714C1.27918 16 0 14.7208 0 13.1429V2.85714Z" fill="url(#paint0_linear_4869_16342)"/>
<path id="Pro" d="M8.542 8.69897L8.54201 8.69898L8.54369 8.69805C9.06566 8.41011 9.45231 8.03639 9.69517 7.57465C9.93392 7.12071 10.0536 6.6368 10.0536 6.12478C10.0536 5.56633 9.92006 5.05726 9.6514 4.6008C9.38945 4.14011 8.98861 3.78092 8.45668 3.52127C7.93016 3.25052 7.29095 3.11862 6.5448 3.11862H3.25391H3.11831V3.25421V12.8921V13.0277H3.25391H4.81708H4.95267V12.8921V9.11708H6.5448C7.34519 9.11708 8.01356 8.98076 8.542 8.69897ZM15.0958 5.12632V4.99073H14.9602C14.4198 4.99073 13.9432 5.10592 13.5354 5.34147C13.2651 5.4949 13.031 5.69155 12.8334 5.93048V5.25113V5.11554H12.6978H11.1346H10.999V5.25113V12.8921V13.0277H11.1346H12.6978H12.8334V12.8921V8.87054C12.8334 8.10541 12.9877 7.60588 13.2597 7.33023C13.5462 7.04921 13.9729 6.89828 14.5626 6.89828H14.9602H15.0958V6.76269V5.12632ZM17.3988 12.649L17.4002 12.6498C17.998 12.9856 18.6657 13.1525 19.4001 13.1525C20.1433 13.1525 20.824 12.9858 21.4394 12.6506L21.4401 12.6503C22.0652 12.3055 22.5584 11.8209 22.918 11.1988C23.2787 10.5749 23.4573 9.8622 23.4573 9.06469C23.4573 8.2678 23.2836 7.55561 22.9325 6.93193C22.5824 6.30981 22.1028 5.82917 21.4951 5.49303C20.8883 5.15746 20.2119 4.99073 19.4686 4.99073C18.7254 4.99073 18.0489 5.15746 17.4422 5.49303C16.8344 5.82917 16.3549 6.30981 16.0047 6.93193C15.6537 7.55561 15.4799 8.2678 15.4799 9.06469C15.4799 9.8699 15.6487 10.5863 15.9902 11.2099L15.9907 11.2107C16.3315 11.8234 16.8013 12.3036 17.3988 12.649ZM20.4596 11.2337L20.4583 11.2345C20.1314 11.4172 19.7794 11.5084 19.4001 11.5084C18.8057 11.5084 18.3164 11.3013 17.9226 10.8862C17.5414 10.4657 17.3417 9.86492 17.3417 9.06469C17.3417 8.52585 17.4394 8.0822 17.6276 7.72763L17.6282 7.72643C17.8187 7.35862 18.071 7.08806 18.3837 6.90839C18.7104 6.72593 19.0621 6.6348 19.4412 6.6348C19.8205 6.6348 20.1725 6.72606 20.4994 6.90878C20.822 7.08904 21.0834 7.36039 21.2828 7.72864L21.2834 7.72984C21.4798 8.0839 21.5818 8.52671 21.5818 9.06469C21.5818 9.60164 21.4757 10.0489 21.2703 10.4125C21.0621 10.7809 20.7917 11.0529 20.4596 11.2337ZM7.7824 7.19047C7.5248 7.42605 7.12091 7.55621 6.5448 7.55621H4.95267V4.67948H6.5448C7.11704 4.67948 7.52089 4.80767 7.78108 5.04021C8.03837 5.27016 8.17806 5.6229 8.17806 6.12478C8.17806 6.59578 8.0412 6.94463 7.7824 7.19047Z" fill="#1D262F" stroke="#1D262F" stroke-width="0.271186"/>
</g>
<defs>
<linearGradient id="paint0_linear_4869_16342" x1="43.7365" y1="-6.79682" x2="-11.5193" y2="19.7404" gradientUnits="userSpaceOnUse">
<stop stop-color="#E09501"/>
<stop offset="1" stop-color="#FFDA6C"/>
</linearGradient>
</defs>
</svg>
