<svg width="6" height="7" viewBox="0 0 6 7" fill="none" xmlns="http://www.w3.org/2000/svg">
<path d="M3.47544 4.83087C3.31365 5.04104 3.23275 5.14613 3.13417 5.1839C3.04779 5.217 2.95221 5.217 2.86583 5.1839C2.76725 5.14613 2.68635 5.04104 2.52456 4.83087L0.743625 2.51737C0.504796 2.20712 0.385382 2.052 0.386944 1.92187C0.388303 1.80866 0.440738 1.70212 0.529619 1.63199C0.63178 1.55137 0.827543 1.55137 1.21907 1.55137L4.78093 1.55137C5.17246 1.55137 5.36822 1.55137 5.47038 1.63199C5.55926 1.70212 5.6117 1.80866 5.61306 1.92187C5.61462 2.052 5.4952 2.20712 5.25638 2.51737L3.47544 4.83087Z" fill="#F14056"/>
</svg>
