<svg width="6" height="6" viewBox="0 0 6 6" fill="none" xmlns="http://www.w3.org/2000/svg">
<path id="Union" fill-rule="evenodd" clip-rule="evenodd" d="M4.13407 4.78303L0.354357 1.00332C0.289533 0.938494 0.261509 0.842179 0.27645 0.735563C0.291391 0.628946 0.348074 0.520762 0.434028 0.434807C0.519982 0.348853 0.628167 0.292171 0.734783 0.27723C0.8414 0.262288 0.937714 0.290312 1.00254 0.355136L4.78304 4.13564L4.78304 1.78411C4.78304 1.7239 4.7949 1.66428 4.81794 1.60866C4.84098 1.55303 4.87475 1.50249 4.91733 1.45991C4.9599 1.41734 5.01044 1.38357 5.06607 1.36053C5.12169 1.33749 5.18131 1.32563 5.24152 1.32563C5.30173 1.32563 5.36135 1.33749 5.41697 1.36053C5.4726 1.38357 5.52314 1.41734 5.56572 1.45991C5.60829 1.50249 5.64206 1.55303 5.6651 1.60866C5.68814 1.66428 5.7 1.7239 5.7 1.78411L5.7 5.24108C5.69997 5.30144 5.68805 5.36121 5.66492 5.41697C5.64179 5.47272 5.60789 5.52337 5.56518 5.56603C5.52272 5.6087 5.4722 5.64252 5.41657 5.66551C5.36094 5.68851 5.30129 5.70023 5.24109 5.69999L1.78412 5.69999C1.72391 5.69999 1.6643 5.68813 1.60867 5.66509C1.55305 5.64205 1.5025 5.60828 1.45993 5.5657C1.41735 5.52313 1.38358 5.47259 1.36054 5.41696C1.3375 5.36134 1.32564 5.30172 1.32564 5.24151C1.32564 5.1813 1.3375 5.12168 1.36054 5.06605C1.38358 5.01043 1.41735 4.95989 1.45993 4.91731C1.5025 4.87474 1.55304 4.84097 1.60867 4.81793C1.6643 4.79489 1.72391 4.78303 1.78412 4.78303L4.13407 4.78303Z" fill="#F14056"/>
</svg>
