<svg width="6" height="6" viewBox="0 0 6 6" fill="none" xmlns="http://www.w3.org/2000/svg">
<path fill-rule="evenodd" clip-rule="evenodd" d="M4.78303 1.86593L1.00332 5.64564C0.938493 5.71047 0.842179 5.73849 0.735563 5.72355C0.628946 5.70861 0.520761 5.65193 0.434807 5.56597C0.348853 5.48002 0.292171 5.37183 0.27723 5.26522C0.262288 5.1586 0.290312 5.06229 0.355136 4.99746L4.13564 1.21696L1.78411 1.21696C1.7239 1.21696 1.66428 1.2051 1.60866 1.18206C1.55303 1.15902 1.50249 1.12525 1.45991 1.08267C1.41734 1.0401 1.38357 0.989557 1.36053 0.933931C1.33749 0.878306 1.32563 0.818687 1.32563 0.758479C1.32563 0.69827 1.33749 0.638651 1.36053 0.583026C1.38357 0.5274 1.41734 0.476858 1.45991 0.434284C1.50249 0.39171 1.55303 0.357938 1.60866 0.334898C1.66428 0.311857 1.7239 0.299998 1.78411 0.299998L5.24108 0.299998C5.30144 0.300027 5.36121 0.311949 5.41697 0.335082C5.47272 0.358214 5.52337 0.392106 5.56603 0.43482C5.6087 0.477282 5.64252 0.527795 5.66551 0.58343C5.68851 0.639064 5.70023 0.698711 5.69999 0.75891L5.69999 4.21588C5.69999 4.27609 5.68813 4.3357 5.66509 4.39133C5.64205 4.44695 5.60828 4.4975 5.5657 4.54007C5.52313 4.58264 5.47259 4.61642 5.41696 4.63946C5.36134 4.6625 5.30172 4.67436 5.24151 4.67436C5.1813 4.67436 5.12168 4.6625 5.06605 4.63946C5.01043 4.61642 4.95989 4.58265 4.91731 4.54007C4.87474 4.4975 4.84097 4.44696 4.81793 4.39133C4.79489 4.3357 4.78303 4.27609 4.78303 4.21588L4.78303 1.86593Z" fill="#00FFA3"/>
</svg>
