<svg width="6" height="7" viewBox="0 0 6 7" fill="none" xmlns="http://www.w3.org/2000/svg">
<path d="M2.52456 2.16913C2.68635 1.95896 2.76725 1.85387 2.86583 1.8161C2.95221 1.783 3.04779 1.783 3.13417 1.8161C3.23275 1.85387 3.31365 1.95896 3.47544 2.16913L5.25638 4.48263C5.4952 4.79288 5.61462 4.948 5.61306 5.07813C5.6117 5.19134 5.55926 5.29788 5.47038 5.36801C5.36822 5.44863 5.17246 5.44863 4.78093 5.44863L1.21907 5.44863C0.827544 5.44863 0.631781 5.44863 0.529621 5.36801C0.44074 5.29788 0.388304 5.19134 0.386945 5.07813C0.385383 4.948 0.504797 4.79288 0.743625 4.48263L2.52456 2.16913Z" fill="#00FFA3"/>
</svg>
