<svg xmlns="http://www.w3.org/2000/svg" width="120" height="120" viewBox="0 0 120 120" fill="none">
  <path d="M69.3035 65.8528L85.9566 51.4513C87.7917 50.1913 88.8211 47.989 88.4844 45.7868C86.6867 34.0151 76.5197 24.998 64.2445 24.998C51.9734 24.998 41.806 34.0151 40.0087 45.7868C39.6719 47.989 40.7011 50.1913 42.5363 51.4513L59.1589 65.8983" stroke="#11C37E" stroke-width="4.5" stroke-linecap="round" stroke-linejoin="round"/>
  <path d="M64.248 64.068V49.5273" stroke="#11C37E" stroke-width="4.5" stroke-linecap="round" stroke-linejoin="round"/>
  <path d="M87.5086 49.5273H40.9629" stroke="#11C37E" stroke-width="4.5" stroke-linecap="round" stroke-linejoin="round"/>
  <path d="M55.1445 65.8855L73.2505 65.8516C78.5178 65.84 81.8019 69.5484 81.8134 74.808L81.8474 85.9666C81.8624 91.2262 78.5934 94.9534 73.3261 94.965L55.2201 94.9989C49.9529 95.014 46.6685 91.3021 46.6534 86.0425L46.6231 74.8874C46.6079 69.624 49.8924 65.9006 55.1445 65.8855Z" stroke="#11C37E" stroke-width="4.5" stroke-linecap="round" stroke-linejoin="round"/>
  <path d="M60.207 76.4062H68.2667" stroke="#11C37E" stroke-width="4.5" stroke-linecap="round" stroke-linejoin="round"/>
</svg>
