<svg width="18" height="18" viewBox="0 0 18 18" fill="none" xmlns="http://www.w3.org/2000/svg">
  <path d="M9 1.125C11.0886 1.125 13.0916 1.95468 14.5685 3.43153C16.0453 4.90838 16.875 6.91142 16.875 9C16.875 11.0886 16.0453 13.0916 14.5685 14.5685C13.0916 16.0453 11.0886 16.875 9 16.875C6.91142 16.875 4.90838 16.0453 3.43153 14.5685C1.95468 13.0916 1.125 11.0886 1.125 9C1.125 6.91142 1.95468 4.90838 3.43153 3.43153C4.90838 1.95468 6.91142 1.125 9 1.125ZM9 18C11.3869 18 13.6761 17.0518 15.364 15.364C17.0518 13.6761 18 11.3869 18 9C18 6.61305 17.0518 4.32387 15.364 2.63604C13.6761 0.948212 11.3869 0 9 0C6.61305 0 4.32387 0.948212 2.63604 2.63604C0.948212 4.32387 0 6.61305 0 9C0 11.3869 0.948212 13.6761 2.63604 15.364C4.32387 17.0518 6.61305 18 9 18ZM7.3125 12.375C7.00313 12.375 6.75 12.6281 6.75 12.9375C6.75 13.2469 7.00313 13.5 7.3125 13.5H10.6875C10.9969 13.5 11.25 13.2469 11.25 12.9375C11.25 12.6281 10.9969 12.375 10.6875 12.375H9.5625V8.4375C9.5625 8.12813 9.30937 7.875 9 7.875H7.59375C7.28438 7.875 7.03125 8.12813 7.03125 8.4375C7.03125 8.74687 7.28438 9 7.59375 9H8.4375V12.375H7.3125ZM9 6.46875C9.22378 6.46875 9.43839 6.37986 9.59662 6.22162C9.75486 6.06339 9.84375 5.84878 9.84375 5.625C9.84375 5.40122 9.75486 5.18661 9.59662 5.02838C9.43839 4.87014 9.22378 4.78125 9 4.78125C8.77622 4.78125 8.56161 4.87014 8.40338 5.02838C8.24514 5.18661 8.15625 5.40122 8.15625 5.625C8.15625 5.84878 8.24514 6.06339 8.40338 6.22162C8.56161 6.37986 8.77622 6.46875 9 6.46875Z" fill="white" fill-opacity="0.6"/>
</svg>
