<svg xmlns="http://www.w3.org/2000/svg" width="63" height="75" viewBox="0 0 53 63" fill="none">
  <path d="M40.0661 12.4496C38.1207 6.83098 32.7827 2.79504 26.5019 2.79504C18.5785 2.76362 12.1275 9.15789 12.0928 17.0814V17.1444V23.9139" stroke="url(#paint0_linear_5996_14426)" stroke-width="3.75" stroke-linecap="round" stroke-linejoin="round"/>
  <path fill-rule="evenodd" clip-rule="evenodd" d="M38.5159 61.1281H14.4239C7.82155 61.1281 2.46777 55.7743 2.46777 49.1688V35.6487C2.46777 29.0432 7.82155 23.6895 14.4239 23.6895H38.5159C45.1183 23.6895 50.4721 29.0432 50.4721 35.6487V49.1688C50.4721 55.7743 45.1183 61.1281 38.5159 61.1281Z" stroke="url(#paint1_linear_5996_14426)" stroke-width="3.75" stroke-linecap="round" stroke-linejoin="round"/>
  <path d="M26.4727 38.9062V45.9122" stroke="url(#paint2_linear_5996_14426)" stroke-width="3.75" stroke-linecap="round" stroke-linejoin="round"/>
  <defs>
    <linearGradient id="paint0_linear_5996_14426" x1="31.2474" y1="2.00296" x2="26.1221" y2="20.1397" gradientUnits="userSpaceOnUse">
      <stop stop-color="#33353F"/>
      <stop offset="1" stop-color="#262830"/>
    </linearGradient>
    <linearGradient id="paint1_linear_5996_14426" x1="35.3385" y1="22.2855" x2="25.9989" y2="54.2784" gradientUnits="userSpaceOnUse">
      <stop stop-color="#33353F"/>
      <stop offset="1" stop-color="#262830"/>
    </linearGradient>
    <linearGradient id="paint2_linear_5996_14426" x1="27.1574" y1="38.6435" x2="24.9944" y2="39.4683" gradientUnits="userSpaceOnUse">
      <stop stop-color="#33353F"/>
      <stop offset="1" stop-color="#262830"/>
    </linearGradient>
  </defs>
</svg>
