<svg xmlns="http://www.w3.org/2000/svg" width="120" height="120" viewBox="0 0 120 120" fill="none">
  <path fill-rule="evenodd" clip-rule="evenodd" d="M38.5442 31.7338C37.4683 31.1121 37.1001 29.7358 37.7218 28.6599C38.3435 27.584 39.7197 27.2157 40.7956 27.8374L46.8621 31.3428C47.9377 31.9643 48.3061 33.34 47.6849 34.4159L44.183 40.4815C43.5617 41.5576 42.1856 41.9263 41.1094 41.305C40.0333 40.6837 39.6646 39.3076 40.2859 38.2315L41.0735 36.8673L38.8286 37.4688C33.4229 38.9173 30.215 44.4735 31.6635 49.8792C31.9851 51.0795 31.2728 52.3132 30.0725 52.6348C28.8722 52.9564 27.6384 52.2441 27.3168 51.0438C25.2251 43.2376 29.8576 35.2138 37.6639 33.1221L39.9069 32.5211L38.5442 31.7338Z" fill="url(#paint0_linear_2721_9335)"/>
  <path fill-rule="evenodd" clip-rule="evenodd" d="M95 46.0001C95 36.3348 87.1662 28.5 77.5022 28.5C67.8382 28.5 60 36.3348 60 46C60 55.6653 67.8382 63.5 77.5022 63.5C87.1662 63.5 95 55.6653 95 46.0001Z" fill="url(#paint1_linear_2721_9335)" stroke="url(#paint2_linear_2721_9335)" stroke-width="7" stroke-linecap="round" stroke-linejoin="round"/>
  <path fill-rule="evenodd" clip-rule="evenodd" d="M25 77.5C25 85.2322 31.267 91.5 38.9982 91.5C46.7294 91.5 53 85.2322 53 77.5C53 69.7678 46.7294 63.5 38.9982 63.5C31.267 63.5 25 69.7678 25 77.5Z" stroke="url(#paint3_linear_2721_9335)" stroke-width="4.5" stroke-linecap="round" stroke-linejoin="round"/>
  <defs>
    <linearGradient id="paint0_linear_2721_9335" x1="41.4507" y1="26.1879" x2="32.5508" y2="46.2919" gradientUnits="userSpaceOnUse">
      <stop stop-color="#33353F"/>
      <stop offset="1" stop-color="#262830"/>
    </linearGradient>
    <linearGradient id="paint1_linear_2721_9335" x1="83.9661" y1="27.1875" x2="73.3097" y2="55.6566" gradientUnits="userSpaceOnUse">
      <stop stop-color="#33353F"/>
      <stop offset="1" stop-color="#262830"/>
    </linearGradient>
    <linearGradient id="paint2_linear_2721_9335" x1="83.9661" y1="27.1875" x2="73.3097" y2="55.6566" gradientUnits="userSpaceOnUse">
      <stop stop-color="#33353F"/>
      <stop offset="1" stop-color="#262830"/>
    </linearGradient>
    <linearGradient id="paint3_linear_2721_9335" x1="44.1729" y1="62.45" x2="35.6478" y2="85.2253" gradientUnits="userSpaceOnUse">
      <stop stop-color="#33353F"/>
      <stop offset="1" stop-color="#262830"/>
    </linearGradient>
  </defs>
</svg>
