<svg xmlns="http://www.w3.org/2000/svg" width="75" height="70" viewBox="0 0 75 70" fill="none">
  <path fill-rule="evenodd" clip-rule="evenodd" d="M53.1562 0.417969C65.0614 0.417969 74.7453 10.1018 74.7453 22.0105V47.8473C74.7453 59.7524 65.0614 69.4398 53.1562 69.4398H22.038C10.1329 69.4398 0.445312 59.7524 0.445312 47.8473V22.0105C0.445312 10.1018 10.1329 0.417969 22.038 0.417969H53.1562ZM53.1562 5.8179H22.038C13.11 5.8179 5.84528 13.0826 5.84528 22.0105V47.8473C5.84528 56.7752 13.11 64.0399 22.038 64.0399H53.1562C62.0842 64.0399 69.3453 56.7752 69.3453 47.8473V46.8393L57.473 46.8415C50.6438 46.8415 45.0854 41.2868 45.0818 34.4613C45.0818 27.6286 50.6402 22.0702 57.473 22.0666L69.3453 22.0645V22.0105C69.3453 13.0826 62.0842 5.8179 53.1562 5.8179ZM69.3453 27.4644L57.473 27.4666C53.6174 27.4702 50.4818 30.6057 50.4818 34.4577C50.4818 38.306 53.621 41.4416 57.473 41.4416L69.3453 41.4394V27.4644ZM59.1203 31.5345C60.6107 31.5345 61.8203 32.7441 61.8203 34.2345C61.8203 35.7249 60.6107 36.9344 59.1203 36.9344H57.9971C56.5067 36.9344 55.2971 35.7249 55.2971 34.2345C55.2971 32.7441 56.5067 31.5345 57.9971 31.5345H59.1203ZM38.9111 16.7549C40.4015 16.7549 41.6111 17.9645 41.6111 19.4549C41.6111 20.9453 40.4015 22.1548 38.9111 22.1548H19.4748C17.9844 22.1548 16.7748 20.9453 16.7748 19.4549C16.7748 17.9645 17.9844 16.7549 19.4748 16.7549H38.9111Z" fill="url(#paint0_linear_2855_328)"/>
  <defs>
    <linearGradient id="paint0_linear_2855_328" x1="51.3219" y1="-2.17035" x2="31.4654" y2="54.9339" gradientUnits="userSpaceOnUse">
      <stop stop-color="#33353F"/>
      <stop offset="1" stop-color="#262830"/>
    </linearGradient>
  </defs>
</svg>
