<svg width="121" height="120" viewBox="0 0 121 120" fill="none" xmlns="http://www.w3.org/2000/svg">
<path fill-rule="evenodd" clip-rule="evenodd" d="M77.3822 31.3528C81.3977 29.9072 85.8898 28.29 89.1391 31.5623C92.3885 34.8347 90.7827 39.3585 89.3472 43.4024C89.2773 43.5995 89.2077 43.7954 89.1391 43.9901C88.7022 45.2301 88.0653 46.79 87.3852 48.4557C85.7686 52.4151 83.9079 56.9726 83.9079 59.2546C83.9079 62.4966 87.5295 72.898 89.005 76.5453C90.4805 80.1926 92.3456 85.6088 88.9379 89.0406C85.5302 92.4724 80.1521 90.5941 76.5304 89.1081C72.9088 87.6222 62.5804 83.9749 59.3611 83.9749C57.0952 83.9749 52.5698 85.8489 48.6382 87.4769C46.9842 88.1618 45.4352 88.8032 44.2039 89.2432C44.0106 89.3123 43.8161 89.3823 43.6204 89.4528C39.6049 90.8984 35.1128 92.5155 31.8635 89.2432C28.6141 85.9709 30.2199 81.447 31.6554 77.4031C31.7254 77.206 31.7949 77.0101 31.8635 76.8155C32.3004 75.5754 32.9373 74.0155 33.6174 72.3498C35.234 68.3904 37.0947 63.8329 37.0947 61.551C37.0947 58.309 33.4731 47.9075 31.9976 44.2602C30.5221 40.6129 28.657 35.1968 32.0647 31.7649C35.4724 28.3331 40.8505 30.2115 44.4722 31.6974C48.0938 33.1833 58.4222 36.8306 61.6414 36.8306C63.9074 36.8306 68.4328 34.9567 72.3644 33.3287C74.0184 32.6437 75.5674 32.0023 76.7987 31.5623C76.992 31.4933 77.1865 31.4232 77.3822 31.3528Z" stroke="url(#paint0_linear_1528_5551)" stroke-width="4.5" stroke-linecap="round" stroke-linejoin="round"/>
<path fill-rule="evenodd" clip-rule="evenodd" d="M27.9998 68.5204C24.1454 66.6831 19.8335 64.6278 19.8335 60C19.8335 55.3722 24.1453 53.3169 27.9997 51.4796C28.1876 51.3901 28.3744 51.301 28.5595 51.2123C29.7391 50.6466 31.2847 49.9971 32.9352 49.3035C36.8584 47.655 41.3741 45.7575 42.9764 44.1439C45.2527 41.8514 49.9951 31.9175 51.5127 28.2877C53.0302 24.658 55.5143 19.5 60.3335 19.5C65.1527 19.5 67.6368 24.658 69.1543 28.2877C70.6719 31.9175 75.4143 41.8514 77.6906 44.1439C79.2929 45.7575 83.8086 47.655 87.7318 49.3035C89.3823 49.9971 90.9279 50.6466 92.1075 51.2123C92.2926 51.3011 92.4794 51.3901 92.6672 51.4796C96.5216 53.3169 100.833 55.3722 100.833 60C100.833 64.6278 96.5216 66.6831 92.6673 68.5204C92.4794 68.6099 92.2926 68.6989 92.1075 68.7877C90.9279 69.3534 89.3823 70.0029 87.7318 70.6964C83.8087 72.345 79.2929 74.2425 77.6906 75.8561C75.4143 78.1486 70.6719 88.0825 69.1543 91.7123C67.6368 95.342 65.1527 100.5 60.3335 100.5C55.5143 100.5 53.0302 95.342 51.5126 91.7123C49.9951 88.0825 45.2527 78.1486 42.9764 75.8561C41.3741 74.2425 36.8584 72.345 32.9352 70.6965C31.2847 70.0029 29.7391 69.3534 28.5595 68.7877C28.3744 68.6989 28.1876 68.6099 27.9998 68.5204Z" stroke="url(#paint1_linear_1528_5551)" stroke-width="4.5" stroke-linecap="round" stroke-linejoin="round"/>
<defs>
<linearGradient id="paint0_linear_1528_5551" x1="75.2979" y1="16.4625" x2="50.636" y2="82.3481" gradientUnits="userSpaceOnUse">
<stop stop-color="#33353F"/>
<stop offset="1" stop-color="#262830"/>
</linearGradient>
<linearGradient id="paint1_linear_1528_5551" x1="75.2979" y1="16.4625" x2="50.636" y2="82.3481" gradientUnits="userSpaceOnUse">
<stop stop-color="#33353F"/>
<stop offset="1" stop-color="#262830"/>
</linearGradient>
</defs>
</svg>
