<svg width="10" height="10" viewBox="0 0 10 10" xmlns="http://www.w3.org/2000/svg">
<path d="M1.73448 8.26623C1.66452 8.19595 1.62524 8.10083 1.62524 8.00167C1.62524 7.9025 1.66452 7.80738 1.73448 7.7371L2.79535 6.6766C2.51761 6.08865 2.43728 5.4267 2.56635 4.78938C2.69542 4.15207 3.02698 3.57353 3.5116 3.13998C5.4031 1.24998 8.33748 1.66248 8.33748 1.66248C8.40149 2.27812 8.38359 2.89954 8.28423 3.51048H6.49023L7.89685 4.9171C7.65864 5.50436 7.30649 6.03864 6.86073 6.4891C6.42722 6.97366 5.84876 7.30519 5.21154 7.43433C4.57432 7.56346 3.91243 7.48328 3.32448 7.20573L2.26248 8.26623C2.19225 8.33584 2.09736 8.3749 1.99848 8.3749C1.89959 8.3749 1.80471 8.33584 1.73448 8.26623Z" stroke="none"/>
</svg>
