<svg width="40" height="40" viewBox="0 0 40 40" fill="none" xmlns="http://www.w3.org/2000/svg">
<g clip-path="url(#clip0_4020_18923)">
<path d="M20.0001 39.3332C30.6776 39.3332 39.3334 30.6773 39.3334 19.9998C39.3334 9.32233 30.6776 0.666504 20.0001 0.666504C9.32258 0.666504 0.666748 9.32233 0.666748 19.9998C0.666748 30.6773 9.32258 39.3332 20.0001 39.3332Z" fill="#111114"/>
<path d="M36.6667 20.0002C36.6703 23.9417 35.2713 27.7558 32.72 30.7602C32.6037 30.8946 32.4608 31.0036 32.3004 31.0803C32.14 31.157 31.9656 31.1998 31.7879 31.206C31.6102 31.2123 31.4332 31.1819 31.2678 31.1166C31.1024 31.0514 30.9523 30.9528 30.8267 30.8269L26.9934 26.9935C26.7703 26.7737 26.634 26.4807 26.6095 26.1684C26.585 25.8562 26.6739 25.5455 26.86 25.2935C28.0328 23.7784 28.6684 21.9162 28.6667 20.0002C28.668 19.704 28.6524 19.408 28.62 19.1135L28.2334 17.3002C27.8109 16.008 27.0891 14.8339 26.1267 13.8735L28.6667 10.0002L31.78 8.22021C33.331 9.76464 34.5611 11.6005 35.3998 13.6222C36.2384 15.6439 36.669 17.8115 36.6667 20.0002Z" fill="url(#paint0_linear_4020_18923)"/>
<path d="M13.1134 25.2602C13.31 25.5091 13.409 25.8212 13.3918 26.1379C13.3746 26.4545 13.2424 26.7541 13.02 26.9802L9.17335 30.8269C9.0478 30.9528 8.89765 31.0514 8.73227 31.1166C8.56689 31.1819 8.38984 31.2123 8.21216 31.206C8.03449 31.1998 7.86002 31.157 7.69964 31.0803C7.53925 31.0036 7.39641 30.8946 7.28002 30.7602C4.57735 27.5717 3.17355 23.4828 3.34772 19.3066C3.52188 15.1304 5.26125 11.1726 8.22002 8.22021L13.88 13.8802C12.5391 15.2043 11.6721 16.9336 11.4134 18.8002C11.2555 19.9359 11.3245 21.0916 11.6163 22.2005C11.9081 23.3094 12.4169 24.3493 13.1134 25.2602Z" fill="url(#paint1_linear_4020_18923)"/>
<path d="M26.1266 13.8735L31.78 8.22017C30.2342 6.67112 28.398 5.44215 26.3766 4.60363C24.3553 3.76511 22.1884 3.3335 20 3.3335C17.8116 3.3335 15.6447 3.76511 13.6233 4.60363C11.6019 5.44215 9.76578 6.67112 8.21997 8.22017L13.88 13.8802C14.6819 13.0725 15.6356 12.4313 16.6862 11.9935C17.7369 11.5558 18.8637 11.3301 20.0019 11.3295C21.1401 11.3289 22.2672 11.5533 23.3183 11.9899C24.3694 12.4265 25.3238 13.0667 26.1266 13.8735Z" fill="url(#paint2_linear_4020_18923)"/>
<path d="M24.0001 30H16.0001C15.2637 30 14.6667 30.597 14.6667 31.3333V32C14.6667 32.7364 15.2637 33.3333 16.0001 33.3333H24.0001C24.7365 33.3333 25.3334 32.7364 25.3334 32V31.3333C25.3334 30.597 24.7365 30 24.0001 30Z" fill="#D0F6FF" fill-opacity="0.1"/>
</g>
<defs>
<linearGradient id="paint0_linear_4020_18923" x1="31.4063" y1="31.1721" x2="31.4063" y2="8.20335" gradientUnits="userSpaceOnUse">
<stop stop-color="#9747FF"/>
<stop offset="1" stop-color="#BF8EFF"/>
</linearGradient>
<linearGradient id="paint1_linear_4020_18923" x1="8.08595" y1="31.1721" x2="8.08595" y2="8.20335" gradientUnits="userSpaceOnUse">
<stop stop-color="#F14056"/>
<stop offset="1" stop-color="#FF8B99"/>
</linearGradient>
<linearGradient id="paint2_linear_4020_18923" x1="20" y1="-6.75764" x2="20" y2="14.3752" gradientUnits="userSpaceOnUse">
<stop stop-color="#308CE1"/>
<stop offset="1" stop-color="#A3D5FF"/>
</linearGradient>
<clipPath id="clip0_4020_18923">
<rect width="40" height="40" fill="white"/>
</clipPath>
</defs>
</svg>
