<svg width="24" height="24" viewBox="0 0 24 24" fill="none" xmlns="http://www.w3.org/2000/svg">
<g id="Info Informaion Square 1" clip-path="url(#clip0_3369_17678)">
<g id="Group">
<path id="Vector" d="M11.009 11.249H12.159V15.499" stroke="white" stroke-width="1.5" stroke-linecap="round" stroke-linejoin="round"/>
<path id="Vector_2" d="M11 15.4985H13.3093" stroke="white" stroke-width="1.5" stroke-linecap="round" stroke-linejoin="round"/>
<path id="Vector_3" d="M12.1 8.24585C12.1 8.29529 12.0853 8.34363 12.0578 8.38474C12.0304 8.42585 11.9913 8.4579 11.9456 8.47682C11.9 8.49574 11.8497 8.50069 11.8012 8.49105C11.7527 8.4814 11.7082 8.45759 11.6732 8.42263C11.6382 8.38766 11.6144 8.34312 11.6048 8.29462C11.5951 8.24613 11.6001 8.19586 11.619 8.15018C11.6379 8.1045 11.67 8.06545 11.7111 8.03798C11.7522 8.01051 11.8005 7.99585 11.85 7.99585" stroke="white" stroke-width="1.5" stroke-linecap="round" stroke-linejoin="round"/>
<path id="Vector_4" d="M11.85 7.99585C11.9163 7.99585 11.9799 8.02219 12.0268 8.06907C12.0736 8.11596 12.1 8.17955 12.1 8.24585" stroke="white" stroke-width="1.5" stroke-linecap="round" stroke-linejoin="round"/>
<path id="Vector_5" d="M16 2.99854H8C5.23858 2.99854 3 5.23711 3 7.99854V15.9985C3 18.76 5.23858 20.9985 8 20.9985H16C18.7614 20.9985 21 18.76 21 15.9985V7.99854C21 5.23711 18.7614 2.99854 16 2.99854Z" stroke="white" stroke-width="1.5" stroke-linecap="round" stroke-linejoin="round"/>
</g>
</g>
<defs>
<clipPath id="clip0_3369_17678">
<rect width="24" height="24" fill="white"/>
</clipPath>
</defs>
</svg>
