<svg width="132" height="23" viewBox="0 0 132 23" fill="none" xmlns="http://www.w3.org/2000/svg">
<rect width="132" height="23" rx="11.5" fill="#40F19C" fill-opacity="0.2"/>
<path d="M16.44 15L14.78 12.15H13.68V15H12.77V8.03H15.02C15.5467 8.03 15.99 8.12 16.35 8.3C16.7167 8.48 16.99 8.72333 17.17 9.03C17.35 9.33667 17.44 9.68667 17.44 10.08C17.44 10.56 17.3 10.9833 17.02 11.35C16.7467 11.7167 16.3333 11.96 15.78 12.08L17.53 15H16.44ZM13.68 11.42H15.02C15.5133 11.42 15.8833 11.3 16.13 11.06C16.3767 10.8133 16.5 10.4867 16.5 10.08C16.5 9.66667 16.3767 9.34667 16.13 9.12C15.89 8.89333 15.52 8.78 15.02 8.78H13.68V11.42ZM23.854 12.05C23.854 12.2233 23.844 12.4067 23.824 12.6H19.444C19.4773 13.14 19.6607 13.5633 19.994 13.87C20.334 14.17 20.744 14.32 21.224 14.32C21.6173 14.32 21.944 14.23 22.204 14.05C22.4707 13.8633 22.6573 13.6167 22.764 13.31H23.744C23.5973 13.8367 23.304 14.2667 22.864 14.6C22.424 14.9267 21.8773 15.09 21.224 15.09C20.704 15.09 20.2373 14.9733 19.824 14.74C19.4173 14.5067 19.0973 14.1767 18.864 13.75C18.6307 13.3167 18.514 12.8167 18.514 12.25C18.514 11.6833 18.6273 11.1867 18.854 10.76C19.0807 10.3333 19.3973 10.0067 19.804 9.78C20.2173 9.54667 20.6907 9.43 21.224 9.43C21.744 9.43 22.204 9.54333 22.604 9.77C23.004 9.99667 23.3107 10.31 23.524 10.71C23.744 11.1033 23.854 11.55 23.854 12.05ZM22.914 11.86C22.914 11.5133 22.8373 11.2167 22.684 10.97C22.5307 10.7167 22.3207 10.5267 22.054 10.4C21.794 10.2667 21.504 10.2 21.184 10.2C20.724 10.2 20.3307 10.3467 20.004 10.64C19.684 10.9333 19.5007 11.34 19.454 11.86H22.914ZM24.7152 12.24C24.7152 11.68 24.8285 11.19 25.0552 10.77C25.2818 10.3433 25.5918 10.0133 25.9852 9.78C26.3852 9.54667 26.8285 9.43 27.3152 9.43C27.7952 9.43 28.2118 9.53333 28.5652 9.74C28.9185 9.94667 29.1818 10.2067 29.3552 10.52V9.52H30.2752V15H29.3552V13.98C29.1752 14.3 28.9052 14.5667 28.5452 14.78C28.1918 14.9867 27.7785 15.09 27.3052 15.09C26.8185 15.09 26.3785 14.97 25.9852 14.73C25.5918 14.49 25.2818 14.1533 25.0552 13.72C24.8285 13.2867 24.7152 12.7933 24.7152 12.24ZM29.3552 12.25C29.3552 11.8367 29.2718 11.4767 29.1052 11.17C28.9385 10.8633 28.7118 10.63 28.4252 10.47C28.1452 10.3033 27.8352 10.22 27.4952 10.22C27.1552 10.22 26.8452 10.3 26.5652 10.46C26.2852 10.62 26.0618 10.8533 25.8952 11.16C25.7285 11.4667 25.6452 11.8267 25.6452 12.24C25.6452 12.66 25.7285 13.0267 25.8952 13.34C26.0618 13.6467 26.2852 13.8833 26.5652 14.05C26.8452 14.21 27.1552 14.29 27.4952 14.29C27.8352 14.29 28.1452 14.21 28.4252 14.05C28.7118 13.8833 28.9385 13.6467 29.1052 13.34C29.2718 13.0267 29.3552 12.6633 29.3552 12.25ZM32.723 7.6V15H31.813V7.6H32.723ZM35.3839 10.27V13.5C35.3839 13.7667 35.4406 13.9567 35.5539 14.07C35.6672 14.1767 35.8639 14.23 36.1439 14.23H36.8139V15H35.9939C35.4872 15 35.1072 14.8833 34.8539 14.65C34.6006 14.4167 34.4739 14.0333 34.4739 13.5V10.27H33.7639V9.52H34.4739V8.14H35.3839V9.52H36.8139V10.27H35.3839ZM38.3865 8.63C38.2132 8.63 38.0665 8.57 37.9465 8.45C37.8265 8.33 37.7665 8.18333 37.7665 8.01C37.7665 7.83667 37.8265 7.69 37.9465 7.57C38.0665 7.45 38.2132 7.39 38.3865 7.39C38.5532 7.39 38.6932 7.45 38.8065 7.57C38.9265 7.69 38.9865 7.83667 38.9865 8.01C38.9865 8.18333 38.9265 8.33 38.8065 8.45C38.6932 8.57 38.5532 8.63 38.3865 8.63ZM38.8265 9.52V15H37.9165V9.52H38.8265ZM46.9674 9.42C47.3941 9.42 47.7741 9.51 48.1074 9.69C48.4408 9.86333 48.7041 10.1267 48.8974 10.48C49.0908 10.8333 49.1874 11.2633 49.1874 11.77V15H48.2874V11.9C48.2874 11.3533 48.1508 10.9367 47.8774 10.65C47.6108 10.3567 47.2474 10.21 46.7874 10.21C46.3141 10.21 45.9374 10.3633 45.6574 10.67C45.3774 10.97 45.2374 11.4067 45.2374 11.98V15H44.3374V11.9C44.3374 11.3533 44.2008 10.9367 43.9274 10.65C43.6608 10.3567 43.2974 10.21 42.8374 10.21C42.3641 10.21 41.9874 10.3633 41.7074 10.67C41.4274 10.97 41.2874 11.4067 41.2874 11.98V15H40.3774V9.52H41.2874V10.31C41.4674 10.0233 41.7074 9.80333 42.0074 9.65C42.3141 9.49667 42.6508 9.42 43.0174 9.42C43.4774 9.42 43.8841 9.52333 44.2374 9.73C44.5908 9.93667 44.8541 10.24 45.0274 10.64C45.1808 10.2533 45.4341 9.95333 45.7874 9.74C46.1408 9.52667 46.5341 9.42 46.9674 9.42ZM55.6802 12.05C55.6802 12.2233 55.6702 12.4067 55.6502 12.6H51.2702C51.3035 13.14 51.4868 13.5633 51.8202 13.87C52.1602 14.17 52.5702 14.32 53.0502 14.32C53.4435 14.32 53.7702 14.23 54.0302 14.05C54.2968 13.8633 54.4835 13.6167 54.5902 13.31H55.5702C55.4235 13.8367 55.1302 14.2667 54.6902 14.6C54.2502 14.9267 53.7035 15.09 53.0502 15.09C52.5302 15.09 52.0635 14.9733 51.6502 14.74C51.2435 14.5067 50.9235 14.1767 50.6902 13.75C50.4568 13.3167 50.3402 12.8167 50.3402 12.25C50.3402 11.6833 50.4535 11.1867 50.6802 10.76C50.9068 10.3333 51.2235 10.0067 51.6302 9.78C52.0435 9.54667 52.5168 9.43 53.0502 9.43C53.5702 9.43 54.0302 9.54333 54.4302 9.77C54.8302 9.99667 55.1368 10.31 55.3502 10.71C55.5702 11.1033 55.6802 11.55 55.6802 12.05ZM54.7402 11.86C54.7402 11.5133 54.6635 11.2167 54.5102 10.97C54.3568 10.7167 54.1468 10.5267 53.8802 10.4C53.6202 10.2667 53.3302 10.2 53.0102 10.2C52.5502 10.2 52.1568 10.3467 51.8302 10.64C51.5102 10.9333 51.3268 11.34 51.2802 11.86H54.7402ZM66.6173 8.08V15H65.7073V9.84L63.4073 15H62.7673L60.4573 9.83V15H59.5473V8.08H60.5273L63.0873 13.8L65.6473 8.08H66.6173ZM67.8206 12.24C67.8206 11.68 67.934 11.19 68.1606 10.77C68.3873 10.3433 68.6973 10.0133 69.0906 9.78C69.4906 9.54667 69.934 9.43 70.4206 9.43C70.9006 9.43 71.3173 9.53333 71.6706 9.74C72.024 9.94667 72.2873 10.2067 72.4606 10.52V9.52H73.3806V15H72.4606V13.98C72.2806 14.3 72.0106 14.5667 71.6506 14.78C71.2973 14.9867 70.884 15.09 70.4106 15.09C69.924 15.09 69.484 14.97 69.0906 14.73C68.6973 14.49 68.3873 14.1533 68.1606 13.72C67.934 13.2867 67.8206 12.7933 67.8206 12.24ZM72.4606 12.25C72.4606 11.8367 72.3773 11.4767 72.2106 11.17C72.044 10.8633 71.8173 10.63 71.5306 10.47C71.2506 10.3033 70.9406 10.22 70.6006 10.22C70.2606 10.22 69.9506 10.3 69.6706 10.46C69.3906 10.62 69.1673 10.8533 69.0006 11.16C68.834 11.4667 68.7506 11.8267 68.7506 12.24C68.7506 12.66 68.834 13.0267 69.0006 13.34C69.1673 13.6467 69.3906 13.8833 69.6706 14.05C69.9506 14.21 70.2606 14.29 70.6006 14.29C70.9406 14.29 71.2506 14.21 71.5306 14.05C71.8173 13.8833 72.044 13.6467 72.2106 13.34C72.3773 13.0267 72.4606 12.6633 72.4606 12.25ZM75.8284 10.41C75.9884 10.0967 76.2151 9.85333 76.5084 9.68C76.8084 9.50667 77.1718 9.42 77.5984 9.42V10.36H77.3584C76.3384 10.36 75.8284 10.9133 75.8284 12.02V15H74.9184V9.52H75.8284V10.41ZM81.7089 15L79.5589 12.58V15H78.6489V7.6H79.5589V11.95L81.6689 9.52H82.9389L80.3589 12.25L82.9489 15H81.7089ZM88.7954 12.05C88.7954 12.2233 88.7854 12.4067 88.7654 12.6H84.3854C84.4187 13.14 84.6021 13.5633 84.9354 13.87C85.2754 14.17 85.6854 14.32 86.1654 14.32C86.5587 14.32 86.8854 14.23 87.1454 14.05C87.4121 13.8633 87.5987 13.6167 87.7054 13.31H88.6854C88.5387 13.8367 88.2454 14.2667 87.8054 14.6C87.3654 14.9267 86.8187 15.09 86.1654 15.09C85.6454 15.09 85.1787 14.9733 84.7654 14.74C84.3587 14.5067 84.0387 14.1767 83.8054 13.75C83.5721 13.3167 83.4554 12.8167 83.4554 12.25C83.4554 11.6833 83.5687 11.1867 83.7954 10.76C84.0221 10.3333 84.3387 10.0067 84.7454 9.78C85.1587 9.54667 85.6321 9.43 86.1654 9.43C86.6854 9.43 87.1454 9.54333 87.5454 9.77C87.9454 9.99667 88.2521 10.31 88.4654 10.71C88.6854 11.1033 88.7954 11.55 88.7954 12.05ZM87.8554 11.86C87.8554 11.5133 87.7787 11.2167 87.6254 10.97C87.4721 10.7167 87.2621 10.5267 86.9954 10.4C86.7354 10.2667 86.4454 10.2 86.1254 10.2C85.6654 10.2 85.2721 10.3467 84.9454 10.64C84.6254 10.9333 84.4421 11.34 84.3954 11.86H87.8554ZM91.1066 10.27V13.5C91.1066 13.7667 91.1632 13.9567 91.2766 14.07C91.3899 14.1767 91.5866 14.23 91.8666 14.23H92.5366V15H91.7166C91.2099 15 90.8299 14.8833 90.5766 14.65C90.3232 14.4167 90.1966 14.0333 90.1966 13.5V10.27H89.4866V9.52H90.1966V8.14H91.1066V9.52H92.5366V10.27H91.1066ZM98.4752 8.03C99.2352 8.03 99.8918 8.17333 100.445 8.46C101.005 8.74 101.432 9.14333 101.725 9.67C102.025 10.1967 102.175 10.8167 102.175 11.53C102.175 12.2433 102.025 12.8633 101.725 13.39C101.432 13.91 101.005 14.31 100.445 14.59C99.8918 14.8633 99.2352 15 98.4752 15H96.3052V8.03H98.4752ZM98.4752 14.25C99.3752 14.25 100.062 14.0133 100.535 13.54C101.008 13.06 101.245 12.39 101.245 11.53C101.245 10.6633 101.005 9.98667 100.525 9.5C100.052 9.01333 99.3685 8.77 98.4752 8.77H97.2152V14.25H98.4752ZM103.035 12.24C103.035 11.68 103.149 11.19 103.375 10.77C103.602 10.3433 103.912 10.0133 104.305 9.78C104.705 9.54667 105.149 9.43 105.635 9.43C106.115 9.43 106.532 9.53333 106.885 9.74C107.239 9.94667 107.502 10.2067 107.675 10.52V9.52H108.595V15H107.675V13.98C107.495 14.3 107.225 14.5667 106.865 14.78C106.512 14.9867 106.099 15.09 105.625 15.09C105.139 15.09 104.699 14.97 104.305 14.73C103.912 14.49 103.602 14.1533 103.375 13.72C103.149 13.2867 103.035 12.7933 103.035 12.24ZM107.675 12.25C107.675 11.8367 107.592 11.4767 107.425 11.17C107.259 10.8633 107.032 10.63 106.745 10.47C106.465 10.3033 106.155 10.22 105.815 10.22C105.475 10.22 105.165 10.3 104.885 10.46C104.605 10.62 104.382 10.8533 104.215 11.16C104.049 11.4667 103.965 11.8267 103.965 12.24C103.965 12.66 104.049 13.0267 104.215 13.34C104.382 13.6467 104.605 13.8833 104.885 14.05C105.165 14.21 105.475 14.29 105.815 14.29C106.155 14.29 106.465 14.21 106.745 14.05C107.032 13.8833 107.259 13.6467 107.425 13.34C107.592 13.0267 107.675 12.6633 107.675 12.25ZM111.243 10.27V13.5C111.243 13.7667 111.3 13.9567 111.413 14.07C111.527 14.1767 111.723 14.23 112.003 14.23H112.673V15H111.853C111.347 15 110.967 14.8833 110.713 14.65C110.46 14.4167 110.333 14.0333 110.333 13.5V10.27H109.623V9.52H110.333V8.14H111.243V9.52H112.673V10.27H111.243ZM113.436 12.24C113.436 11.68 113.549 11.19 113.776 10.77C114.003 10.3433 114.313 10.0133 114.706 9.78C115.106 9.54667 115.549 9.43 116.036 9.43C116.516 9.43 116.933 9.53333 117.286 9.74C117.639 9.94667 117.903 10.2067 118.076 10.52V9.52H118.996V15H118.076V13.98C117.896 14.3 117.626 14.5667 117.266 14.78C116.913 14.9867 116.499 15.09 116.026 15.09C115.539 15.09 115.099 14.97 114.706 14.73C114.313 14.49 114.003 14.1533 113.776 13.72C113.549 13.2867 113.436 12.7933 113.436 12.24ZM118.076 12.25C118.076 11.8367 117.993 11.4767 117.826 11.17C117.659 10.8633 117.433 10.63 117.146 10.47C116.866 10.3033 116.556 10.22 116.216 10.22C115.876 10.22 115.566 10.3 115.286 10.46C115.006 10.62 114.783 10.8533 114.616 11.16C114.449 11.4667 114.366 11.8267 114.366 12.24C114.366 12.66 114.449 13.0267 114.616 13.34C114.783 13.6467 115.006 13.8833 115.286 14.05C115.566 14.21 115.876 14.29 116.216 14.29C116.556 14.29 116.866 14.21 117.146 14.05C117.433 13.8833 117.659 13.6467 117.826 13.34C117.993 13.0267 118.076 12.6633 118.076 12.25Z" fill="#40F19C"/>
</svg>
