<svg width="16" height="16" viewBox="0 0 16 16" fill="none" xmlns="http://www.w3.org/2000/svg">
<g clip-path="url(#clip0_8621_22983)">
<path d="M7.99984 11.5556L5.86857 13.2605C5.8201 13.2993 5.76166 13.3236 5.69998 13.3306C5.63831 13.3377 5.5759 13.3271 5.51996 13.3002C5.46401 13.2733 5.4168 13.2312 5.38375 13.1786C5.3507 13.1261 5.33317 13.0653 5.33317 13.0032V11.5556H4.44428C3.97279 11.5556 3.5206 11.3683 3.1872 11.0349C2.85381 10.7015 2.6665 10.2493 2.6665 9.77779V4.44445C2.66651 3.97296 2.85381 3.52078 3.18721 3.18738C3.52061 2.85399 3.97279 2.66669 4.44428 2.66669H11.5554C12.0269 2.66669 12.4791 2.85399 12.8125 3.18738C13.1459 3.52078 13.3332 3.97296 13.3332 4.44445V9.77779C13.3332 10.2493 13.1459 10.7015 12.8125 11.0349C12.4791 11.3683 12.0269 11.5556 11.5554 11.5556H7.99984Z" stroke="white" stroke-opacity="1" stroke-linecap="round" stroke-linejoin="round"/>
<path d="M5.3335 5.66669H10.6668" stroke="white" stroke-opacity="1" stroke-linecap="round" stroke-linejoin="round"/>
<path d="M5.3335 8.33331H10.6668" stroke="white" stroke-opacity="1" stroke-linecap="round" stroke-linejoin="round"/>
</g>
<defs>
<clipPath id="clip0_8621_22983">
<rect width="16" height="16" fill="white"/>
</clipPath>
</defs>
</svg>
