<svg width="24" height="24" viewBox="0 0 24 24" fill="none" xmlns="http://www.w3.org/2000/svg">
<path d="M3.5 19.8644V17.1118C3.5 16.5547 3.64352 16.0425 3.93058 15.5753C4.21698 15.1086 4.59776 14.7524 5.07291 14.5067C6.08875 13.9987 6.73273 13.6176 7.78134 13.3633C8.82995 13.1097 9.89495 12.9829 10.9763 12.9829C12.0577 12.9829 13.1227 13.1097 14.1713 13.3633C15.2199 13.6176 16.0592 13.9987 17.075 14.5067C17.5502 14.7524 17.9309 15.1086 18.2173 15.5753C18.5044 16.0425 18.6479 16.5547 18.6479 17.1118V19.8644H3.5ZM10.9763 11.9998C9.89495 11.9998 8.96922 11.6148 8.19915 10.8447C7.42908 10.0746 7.04404 9.14892 7.04404 8.06754C7.04404 6.98616 7.42908 6.06044 8.19915 5.29036C8.96922 4.52029 9.89495 4.13525 10.9763 4.13525C12.0577 4.13525 12.9834 4.52029 13.7535 5.29036C14.5236 6.06044 14.9086 6.98616 14.9086 8.06754C14.9086 9.14892 14.5236 10.0746 13.7535 10.8447C12.9834 11.6148 12.0577 11.9998 10.9763 11.9998ZM5.46614 17.8983H16.6818V17.1118C16.6818 16.9316 16.6369 16.7677 16.5471 16.6203C16.4567 16.4728 16.3377 16.3581 16.1903 16.2762C15.3055 15.8338 14.6055 15.5019 13.7043 15.2803C12.8032 15.0595 11.8938 14.949 10.9763 14.949C10.0588 14.949 9.14945 15.0595 8.2483 15.2803C7.34715 15.5019 6.84244 15.8338 5.95767 16.2762C5.81021 16.3581 5.69159 16.4728 5.6018 16.6203C5.51136 16.7677 5.46614 16.9316 5.46614 17.1118V17.8983ZM10.9763 10.0337C11.517 10.0337 11.98 9.841 12.3654 9.45563C12.7501 9.07093 12.9424 8.60823 12.9424 8.06754C12.9424 7.52685 12.7501 7.06415 12.3654 6.67944C11.98 6.29408 11.517 6.1014 10.9763 6.1014C10.4356 6.1014 9.97294 6.29408 9.58823 6.67944C9.20286 7.06415 9.01018 7.52685 9.01018 8.06754C9.01018 8.60823 9.20286 9.07093 9.58823 9.45563C9.97294 9.841 10.4356 10.0337 10.9763 10.0337Z" fill="#68717A"/>
<path d="M18.7534 7.15801C18.8562 6.94733 19.1438 6.94733 19.2466 7.15801L19.9768 8.65539C20.017 8.73788 20.0925 8.79526 20.1799 8.80981L21.7664 9.07386C21.9896 9.11101 22.0785 9.39731 21.9188 9.56467L20.7836 10.7541C20.721 10.8197 20.6922 10.9125 20.706 11.004L20.9563 12.6646C20.9915 12.8982 20.7588 13.0752 20.5573 12.9679L19.1255 12.2057C19.0466 12.1637 18.9534 12.1637 18.8745 12.2057L17.4427 12.9679C17.2412 13.0752 17.0085 12.8982 17.0437 12.6646L17.294 11.004C17.3078 10.9125 17.279 10.8197 17.2164 10.7541L16.0812 9.56467C15.9215 9.39731 16.0104 9.11101 16.2336 9.07386L17.8201 8.80981C17.9075 8.79526 17.983 8.73788 18.0232 8.65539L18.7534 7.15801Z" fill="#68717A"/>
</svg>
