<svg width="24" height="25" viewBox="0 0 24 25" fill="none" xmlns="http://www.w3.org/2000/svg">
<path d="M22.78 10.87C22.6859 10.754 22.567 10.6605 22.432 10.5965C22.297 10.5325 22.1494 10.4995 22 10.5H20V9.50002C20 8.70437 19.6839 7.94131 19.1213 7.3787C18.5587 6.81609 17.7956 6.50002 17 6.50002H10.72L10.4 5.50002C10.1926 4.91325 9.80775 4.40553 9.2989 4.04718C8.79005 3.68884 8.18236 3.49762 7.56 3.50002H4C3.20435 3.50002 2.44129 3.81609 1.87868 4.3787C1.31607 4.94131 1 5.70437 1 6.50002V18.5C1 19.2957 1.31607 20.0587 1.87868 20.6213C2.44129 21.184 3.20435 21.5 4 21.5H18.4C19.0812 21.498 19.7415 21.2643 20.2722 20.8372C20.8029 20.4101 21.1724 19.8151 21.32 19.15L23 11.72C23.0304 11.5709 23.0264 11.4169 22.9883 11.2696C22.9502 11.1223 22.8789 10.9856 22.78 10.87ZM5.37 18.72C5.3192 18.9456 5.19179 19.1466 5.00946 19.2888C4.82714 19.431 4.60116 19.5057 4.37 19.5H4C3.73478 19.5 3.48043 19.3947 3.29289 19.2071C3.10536 19.0196 3 18.7652 3 18.5V6.50002C3 6.23481 3.10536 5.98045 3.29289 5.79292C3.48043 5.60538 3.73478 5.50002 4 5.50002H7.56C7.77807 5.48864 7.99386 5.54895 8.17443 5.67174C8.355 5.79452 8.49042 5.97304 8.56 6.18002L9.1 7.82002C9.16417 8.01077 9.2844 8.17771 9.44497 8.29903C9.60554 8.42035 9.79898 8.4904 10 8.50002H17C17.2652 8.50002 17.5196 8.60538 17.7071 8.79292C17.8946 8.98045 18 9.23481 18 9.50002V10.5H8C7.76884 10.4944 7.54286 10.569 7.36054 10.7112C7.17821 10.8534 7.0508 11.0544 7 11.28L5.37 18.72ZM19.37 18.72C19.3192 18.9456 19.1918 19.1466 19.0095 19.2888C18.8271 19.431 18.6012 19.5057 18.37 19.5H7.21C7.26165 19.3886 7.29862 19.271 7.32 19.15L8.8 12.5H20.8L19.37 18.72Z" fill="#00FAAC"/>
</svg>
