<svg width="14" height="14" viewBox="0 0 14 14" fill="none" xmlns="http://www.w3.org/2000/svg">
<path d="M6.42466 0.350574C6.66439 -0.116858 7.33561 -0.116858 7.57534 0.350574L9.27918 3.67277C9.37304 3.85577 9.54915 3.98309 9.75306 4.01536L13.4549 4.60119C13.9757 4.68362 14.1831 5.31883 13.8104 5.69015L11.1617 8.32921C11.0158 8.47458 10.9485 8.6806 10.9807 8.88354L11.5647 12.5678C11.6468 13.0862 11.1038 13.4788 10.6337 13.2408L7.29287 11.5496C7.10885 11.4565 6.89115 11.4565 6.70712 11.5496L3.36626 13.2408C2.8962 13.4788 2.35317 13.0862 2.43534 12.5678L3.01933 8.88354C3.0515 8.6806 2.98423 8.47458 2.83832 8.32921L0.189563 5.69015C-0.183118 5.31883 0.0243 4.68362 0.545142 4.60119L4.24693 4.01536C4.45084 3.98309 4.62697 3.85577 4.72082 3.67277L6.42466 0.350574Z" fill="url(#paint0_linear_973_4416)"/>
<defs>
<linearGradient id="paint0_linear_973_4416" x1="-1.232" y1="13.312" x2="15.236" y2="12.4192" gradientUnits="userSpaceOnUse">
<stop stop-color="#00FFF0"/>
<stop offset="0.0001" stop-color="#13DEF2"/>
<stop offset="0.855974" stop-color="#E26CFF"/>
</linearGradient>
</defs>
</svg>
