<svg width="48" height="49" viewBox="0 0 48 49" fill="none" xmlns="http://www.w3.org/2000/svg">
<path d="M8.85205 40.5564V34.9365C8.85205 33.7991 9.13909 32.7534 9.71321 31.7995C10.286 30.8467 11.0476 30.1194 11.9979 29.6178C14.0296 28.5806 15.3175 27.8025 17.4147 27.2834C19.512 26.7656 21.642 26.5067 23.8047 26.5067C25.9675 26.5067 28.0975 26.7656 30.1947 27.2834C32.2919 27.8025 33.9705 28.5806 36.0021 29.6178C36.9525 30.1194 37.7139 30.8467 38.2867 31.7995C38.8609 32.7534 39.1479 33.7991 39.1479 34.9365V40.5564H8.85205ZM23.8047 24.4995C21.642 24.4995 19.7905 23.7135 18.2504 22.1412C16.7102 20.5689 15.9401 18.679 15.9401 16.4712C15.9401 14.2634 16.7102 12.3733 18.2504 10.8011C19.7905 9.22887 21.642 8.44275 23.8047 8.44275C25.9675 8.44275 27.8189 9.22887 29.3591 10.8011C30.8993 12.3733 31.6693 14.2634 31.6693 16.4712C31.6693 18.679 30.8993 20.5689 29.3591 22.1412C27.8189 23.7135 25.9675 24.4995 23.8047 24.4995ZM12.7843 36.5423H35.2157V34.9365C35.2157 34.5686 35.1259 34.234 34.9463 33.9331C34.7655 33.6319 34.5275 33.3977 34.2327 33.2305C32.4631 32.3273 31.0631 31.6497 29.2607 31.1972C27.4585 30.7464 25.6397 30.5208 23.8047 30.5208C21.9696 30.5208 20.151 30.7464 18.3487 31.1972C16.5464 31.6497 15.5369 32.3273 13.7674 33.2305C13.4725 33.3977 13.2352 33.6319 13.0557 33.9331C12.8748 34.234 12.7843 34.5686 12.7843 34.9365V36.5423ZM23.8047 20.4854C24.8861 20.4854 25.8121 20.092 26.5829 19.3052C27.3523 18.5198 27.7369 17.5751 27.7369 16.4712C27.7369 15.3673 27.3523 14.4226 26.5829 13.6371C25.8121 12.8504 24.8861 12.457 23.8047 12.457C22.7233 12.457 21.7979 12.8504 21.0285 13.6371C20.2578 14.4226 19.8724 15.3673 19.8724 16.4712C19.8724 17.5751 20.2578 18.5198 21.0285 19.3052C21.7979 20.092 22.7233 20.4854 23.8047 20.4854Z" fill="white"/>
</svg>
