<svg xmlns="http://www.w3.org/2000/svg" width="160" height="160" viewBox="0 0 160 160" fill="none">
  <path fill-rule="evenodd" clip-rule="evenodd" d="M36.9427 77.6075C36.9427 55.5316 54.8383 37.6353 76.9205 37.6353C84.3723 37.6353 91.3418 39.6715 97.3097 43.2179C99.2879 44.3935 101.845 43.7428 103.02 41.7646C104.196 39.7863 103.545 37.2297 101.567 36.0541C94.3459 31.763 85.9109 29.302 76.9205 29.302C50.2366 29.302 28.6094 50.9286 28.6094 77.6075C28.6094 104.286 50.2359 125.919 76.9205 125.919C88.1757 125.919 98.5317 122.068 106.744 115.613L121.973 130.8C123.602 132.425 126.24 132.422 127.865 130.792C129.49 129.163 129.486 126.525 127.857 124.9L112.833 109.917C120.537 101.357 125.226 90.0291 125.226 77.6075C125.226 72.1553 124.322 66.9067 122.651 62.0091C121.909 59.8311 119.541 58.6676 117.363 59.4104C115.185 60.1531 114.021 62.5209 114.764 64.6989C116.143 68.7415 116.893 73.0819 116.893 77.6075C116.893 89.055 112.081 99.3798 104.369 106.668C104.242 106.769 104.12 106.878 104.003 106.995C103.962 107.036 103.922 107.077 103.884 107.119C96.7753 113.62 87.3107 117.585 76.9205 117.585C54.839 117.585 36.9427 99.6839 36.9427 77.6075Z" fill="url(#paint0_linear_1503_4664)"/>
  <path fill-rule="evenodd" clip-rule="evenodd" d="M136.914 48.2536C136.91 45.9529 135.042 44.0907 132.741 44.0938L116.39 44.1154C114.089 44.1184 112.226 45.9864 112.229 48.2875C112.232 50.5887 114.1 52.4517 116.401 52.4487L122.517 52.4406L99.8138 73.5303L88.5464 61.2913C87.7919 60.4718 86.7406 59.9884 85.6272 59.9493C84.5139 59.9102 83.4313 60.3186 82.6211 61.0832L58.9787 83.3957C57.3052 84.9752 57.2288 87.6122 58.8083 89.2858C60.3877 90.9594 63.0248 91.0357 64.6984 89.4563L85.2728 70.0391L96.5177 82.2537C97.2684 83.069 98.313 83.5517 99.4204 83.595C100.528 83.6383 101.607 83.2386 102.419 82.4843L128.596 58.1676L128.607 64.6125C128.611 66.9137 130.479 68.7762 132.78 68.7724C135.082 68.7687 136.944 66.9001 136.94 64.599L136.914 48.2536Z" fill="url(#paint1_linear_1503_4664)"/>
  <defs>
    <linearGradient id="paint0_linear_1503_4664" x1="97.4072" y1="25.4502" x2="65.6121" y2="108.538" gradientUnits="userSpaceOnUse">
      <stop stop-color="#33353F"/>
      <stop offset="1" stop-color="#262830"/>
    </linearGradient>
    <linearGradient id="paint1_linear_1503_4664" x1="111.951" y1="42.35" x2="102.918" y2="83.4884" gradientUnits="userSpaceOnUse">
      <stop stop-color="#33353F"/>
      <stop offset="1" stop-color="#262830"/>
    </linearGradient>
  </defs>
</svg>
