<svg xmlns="http://www.w3.org/2000/svg" width="16" height="16" viewBox="0 0 16 16" fill="none">
  <path d="M12.1762 8.52884C12.6107 8.69028 12.6107 9.30478 12.1762 9.46622L9.5825 10.43C8.9775 10.6575 8.5025 11.13 8.2775 11.735L7.31376 14.3319C7.15243 14.7666 6.53757 14.7666 6.37624 14.3319L5.4125 11.735C5.1875 11.13 4.7125 10.655 4.1075 10.43L1.51379 9.46622C1.07934 9.30478 1.07933 8.69028 1.51379 8.52884L4.1075 7.56503C4.7125 7.34003 5.1875 6.86503 5.4125 6.26003L6.37632 3.66631C6.53776 3.23186 7.15225 3.23186 7.31369 3.66631L8.2775 6.26003C8.5025 6.86503 8.9775 7.34003 9.5825 7.56503L12.1762 8.52884Z" fill="white"/>
  <path d="M14.488 4.31459C14.9226 4.47571 14.9231 5.09028 14.4887 5.252L14.145 5.37993C14.105 5.39493 14.0725 5.42993 14.055 5.46993L13.9279 5.81295C13.7667 6.24756 13.1522 6.24798 12.9904 5.81359L12.8625 5.46993C12.8475 5.42993 12.8175 5.39743 12.7725 5.37993L12.4289 5.252C11.9945 5.09028 11.9949 4.47571 12.4295 4.31459L12.7725 4.18743C12.815 4.17243 12.845 4.13743 12.8625 4.09743L12.9904 3.75378C13.1522 3.31938 13.7667 3.3198 13.9279 3.75442L14.055 4.09743C14.07 4.13743 14.105 4.16993 14.145 4.18743L14.488 4.31459Z" fill="white"/>
  <path d="M10.8189 1.43333C10.9926 1.49774 10.9929 1.74331 10.8194 1.80819L10.5 1.92759C10.4575 1.94259 10.4275 1.97759 10.41 2.01759L10.2906 2.33696C10.2257 2.51049 9.98016 2.51016 9.91575 2.33646L9.79751 2.01759C9.78251 1.97759 9.74751 1.94509 9.70501 1.92759L9.38642 1.80812C9.21314 1.74314 9.21347 1.49792 9.38693 1.4334L9.70501 1.31509C9.74751 1.30009 9.78251 1.26509 9.79751 1.22259L9.91582 0.904504C9.98034 0.73105 10.2256 0.730722 10.2905 0.904003L10.41 1.22259C10.425 1.26509 10.455 1.30009 10.5 1.31509L10.8189 1.43333Z" fill="white"/>
</svg>
