<svg width="24" height="24" viewBox="0 0 24 24" fill="none" xmlns="http://www.w3.org/2000/svg">
<g clip-path="url(#clip0_211_2548)">
<rect width="24" height="24" rx="12" fill="#131920"/>
<path opacity="0.65" fill-rule="evenodd" clip-rule="evenodd" d="M11.9897 17.9722C15.2936 17.9722 17.972 15.2938 17.972 11.9898C17.972 8.68582 15.2936 6.00742 11.9897 6.00742C8.68571 6.00742 6.00731 8.68582 6.00731 11.9898C6.00731 15.2938 8.68571 17.9722 11.9897 17.9722ZM14.0897 8.45666C14.5844 8.27982 15.1378 8.08201 15.538 8.48229C15.9383 8.88257 15.7405 9.43594 15.5637 9.9306C15.5551 9.95472 15.5465 9.9787 15.538 10.0025C15.4842 10.1542 15.4058 10.345 15.322 10.5488C15.1228 11.0331 14.8936 11.5906 14.8936 11.8697C14.8936 12.2663 15.3398 13.5387 15.5215 13.9848C15.7033 14.431 15.9331 15.0935 15.5133 15.5133C15.0935 15.9331 14.4309 15.7033 13.9848 15.5216C13.5386 15.3398 12.2663 14.8936 11.8697 14.8936C11.5905 14.8936 11.0331 15.1229 10.5487 15.322C10.345 15.4058 10.1542 15.4843 10.0025 15.5381C9.97865 15.5465 9.95467 15.5551 9.93056 15.5637C9.43589 15.7406 8.88252 15.9384 8.48224 15.5381C8.08195 15.1378 8.27978 14.5844 8.45662 14.0897C8.46523 14.0656 8.4738 14.0417 8.48225 14.0179C8.53607 13.8662 8.61453 13.6754 8.69831 13.4716C8.89745 12.9873 9.12669 12.4298 9.12669 12.1506C9.12669 11.7541 8.68054 10.4817 8.49876 10.0356C8.317 9.58941 8.08724 8.92687 8.50703 8.50707C8.92683 8.08728 9.58936 8.31705 10.0355 8.49882C10.4817 8.68058 11.754 9.12673 12.1506 9.12673C12.4297 9.12673 12.9872 8.8975 13.4716 8.69836C13.6753 8.61458 13.8661 8.53612 14.0178 8.48229C14.0416 8.47385 14.0656 8.46528 14.0897 8.45666Z" fill="url(#paint0_linear_211_2548)"/>
<path opacity="0.65" fill-rule="evenodd" clip-rule="evenodd" d="M16.2199 7.75962C13.8837 5.42336 10.0958 5.42336 7.75956 7.75962C5.4233 10.0959 5.4233 13.8837 7.75956 16.22C10.0958 18.5562 13.8836 18.5562 16.2199 16.22C18.5562 13.8837 18.5562 10.0959 16.2199 7.75962ZM8.00649 13.0032C7.53167 12.7784 7.00049 12.527 7.00049 11.9609C7.00049 11.3948 7.53166 11.1434 8.00649 10.9187C8.02963 10.9077 8.05264 10.8968 8.07544 10.886C8.22076 10.8168 8.41116 10.7373 8.61449 10.6525C9.09778 10.4508 9.65408 10.2187 9.85146 10.0213C10.1319 9.74091 10.7161 8.52574 10.903 8.08174C11.09 7.63773 11.396 7.00678 11.9897 7.00678C12.5834 7.00678 12.8894 7.63773 13.0763 8.08174C13.2633 8.52574 13.8475 9.74091 14.1279 10.0213C14.3253 10.2187 14.8816 10.4508 15.3649 10.6525C15.5682 10.7373 15.7586 10.8168 15.9039 10.886C15.9267 10.8968 15.9498 10.9077 15.9729 10.9187C16.4477 11.1434 16.9789 11.3948 16.9789 11.9609C16.9789 12.527 16.4477 12.7784 15.9729 13.0032C15.9498 13.0141 15.9267 13.025 15.9039 13.0359C15.7586 13.1051 15.5682 13.1845 15.3649 13.2694C14.8816 13.471 14.3253 13.7031 14.1279 13.9005C13.8475 14.181 13.2633 15.3961 13.0763 15.8401C12.8894 16.2841 12.5834 16.9151 11.9897 16.9151C11.396 16.9151 11.09 16.2841 10.903 15.8401C10.7161 15.3961 10.1319 14.181 9.85146 13.9005C9.65408 13.7031 9.09778 13.471 8.61449 13.2694C8.41117 13.1845 8.22076 13.1051 8.07544 13.0359C8.05264 13.025 8.02963 13.0141 8.00649 13.0032Z" fill="url(#paint1_linear_211_2548)"/>
</g>
<defs>
<linearGradient id="paint0_linear_211_2548" x1="18.2911" y1="6.00742" x2="5.87638" y2="17.8347" gradientUnits="userSpaceOnUse">
<stop stop-color="#00A3FF"/>
<stop offset="1" stop-color="#FF00C7"/>
</linearGradient>
<linearGradient id="paint1_linear_211_2548" x1="19.025" y1="6.00742" x2="4.94707" y2="6.7331" gradientUnits="userSpaceOnUse">
<stop stop-color="#00FFF0"/>
<stop offset="0.0001" stop-color="#13DEF2"/>
<stop offset="0.855974" stop-color="#E26CFF"/>
</linearGradient>
<clipPath id="clip0_211_2548">
<rect width="24" height="24" fill="white"/>
</clipPath>
</defs>
</svg>
