<svg width="38" height="43" viewBox="0 0 38 43" fill="none" xmlns="http://www.w3.org/2000/svg">
<g id="Frame 1171279350">
<path id="Vector" d="M18.9685 35C27.7874 35 34.937 27.8504 34.937 19C34.937 10.1496 27.7559 3 18.9685 3C10.1496 3 3 10.1496 3 19C3 27.8504 10.1496 35 18.9685 35Z" fill="#333F4D"/>
<g id="Group">
<g id="Vector_2" filter="url(#filter0_d_7184_2545)">
<path d="M29.8344 11L30.0863 31.2835C30.0863 31.9764 29.5194 32.5118 28.8265 32.5118H9.04695C8.35404 32.5118 7.78711 31.9449 7.78711 31.2835V5.20474C7.78711 4.51183 8.35404 3.97639 9.04695 3.97639H23.3777L29.8344 11Z" fill="#4B5868"/>
</g>
</g>
<path id="Vector_3" d="M17.4254 28.4488H16.7009C16.5435 28.4488 16.4175 28.2914 16.4175 28.1024C16.4175 27.9134 16.5435 27.7559 16.7009 27.7559H17.4254C17.5828 27.7559 17.7088 27.9134 17.7088 28.1024C17.7088 28.3229 17.5828 28.4488 17.4254 28.4488Z" fill="#CED7E2"/>
<path id="Vector_4" d="M15.2202 28.4488H10.9998C10.8423 28.4488 10.7163 28.2914 10.7163 28.1024C10.7163 27.9134 10.8423 27.7559 10.9998 27.7559H15.2202C15.3777 27.7559 15.5037 27.9134 15.5037 28.1024C15.5037 28.3229 15.3777 28.4488 15.2202 28.4488Z" fill="#A9AFC4"/>
<path id="Vector_5" d="M20.6061 8.22834H11.1258C10.9053 8.22834 10.7163 8.03936 10.7163 7.81889C10.7163 7.59842 10.9053 7.40944 11.1258 7.40944H20.6061C20.8265 7.40944 21.0155 7.59842 21.0155 7.81889C21.0155 8.03936 20.8265 8.22834 20.6061 8.22834Z" fill="#A9AFC4"/>
<path id="Vector_6" d="M14.7793 10.4961H11.1258C10.9053 10.4961 10.7163 10.3071 10.7163 10.0866C10.7163 9.86615 10.9053 9.67717 11.1258 9.67717H14.7478C14.9683 9.67717 15.1573 9.86615 15.1573 10.0866C15.1573 10.3071 14.9683 10.4961 14.7793 10.4961Z" fill="#A9AFC4"/>
<path id="Vector_7" d="M23.3779 3.97639V9.58269C23.3779 10.3701 24.0708 11 24.8582 11H29.8346" fill="#4B5868"/>
<g id="Vector_8" filter="url(#filter1_d_7184_2545)">
<path d="M31.3465 32.9843C31.0316 32.9843 30.7166 32.8583 30.4646 32.5748L25.2048 27.315L25.0158 27.441C23.315 28.7008 21.3308 29.3622 19.315 29.3622C16.8898 29.3622 14.4646 28.3859 12.6694 26.6851C10.7796 24.8898 9.74023 22.4646 9.74023 19.8189C9.74023 14.5591 14.0237 10.2756 19.2835 10.2756C22.8741 10.2756 26.0237 12.1654 27.7245 15.378C29.3938 18.5591 29.1733 22.2756 27.1261 25.2677L27.0001 25.4567L32.2914 30.7481C32.8268 31.2835 32.7009 31.8189 32.6064 32.1024C32.3544 32.6063 31.8505 32.9843 31.3465 32.9843ZM19.2835 12.8898C15.441 12.8898 12.3544 16.0079 12.3544 19.8189C12.3544 24.1654 15.9135 26.7796 19.378 26.7796C21.4883 26.7796 23.4095 25.8347 24.7639 24.1339C26.4331 22.0551 26.7166 19.252 25.5513 16.8268C24.3544 14.4016 21.9607 12.8898 19.2835 12.8898Z" fill="url(#paint0_linear_7184_2545)"/>
</g>
</g>
<defs>
<filter id="filter0_d_7184_2545" x="0.857975" y="0.511827" width="36.1576" height="42.3937" filterUnits="userSpaceOnUse" color-interpolation-filters="sRGB">
<feFlood flood-opacity="0" result="BackgroundImageFix"/>
<feColorMatrix in="SourceAlpha" type="matrix" values="0 0 0 0 0 0 0 0 0 0 0 0 0 0 0 0 0 0 127 0" result="hardAlpha"/>
<feOffset dy="3.46457"/>
<feGaussianBlur stdDeviation="3.46457"/>
<feColorMatrix type="matrix" values="0 0 0 0 0 0 0 0 0 0 0 0 0 0 0 0 0 0 0.27 0"/>
<feBlend mode="normal" in2="BackgroundImageFix" result="effect1_dropShadow_7184_2545"/>
<feBlend mode="normal" in="SourceGraphic" in2="effect1_dropShadow_7184_2545" result="shape"/>
</filter>
<filter id="filter1_d_7184_2545" x="8.48039" y="10.2756" width="25.4704" height="25.2283" filterUnits="userSpaceOnUse" color-interpolation-filters="sRGB">
<feFlood flood-opacity="0" result="BackgroundImageFix"/>
<feColorMatrix in="SourceAlpha" type="matrix" values="0 0 0 0 0 0 0 0 0 0 0 0 0 0 0 0 0 0 127 0" result="hardAlpha"/>
<feOffset dy="1.25984"/>
<feGaussianBlur stdDeviation="0.629921"/>
<feComposite in2="hardAlpha" operator="out"/>
<feColorMatrix type="matrix" values="0 0 0 0 0 0 0 0 0 0 0 0 0 0 0 0 0 0 0.25 0"/>
<feBlend mode="normal" in2="BackgroundImageFix" result="effect1_dropShadow_7184_2545"/>
<feBlend mode="normal" in="SourceGraphic" in2="effect1_dropShadow_7184_2545" result="shape"/>
</filter>
<linearGradient id="paint0_linear_7184_2545" x1="15.0047" y1="16.2366" x2="24.7237" y2="32.8657" gradientUnits="userSpaceOnUse">
<stop stop-color="#E3EAF7"/>
<stop offset="1" stop-color="#ADB6C8"/>
</linearGradient>
</defs>
</svg>
