<svg width="24" height="24" viewBox="0 0 24 24" fill="none" xmlns="http://www.w3.org/2000/svg">
<g id="sparkle 1">
<g id="Group">
<path id="1722116011159-1324775_sparkle" d="M21.137 11.5189L18.411 10.7399C17.1834 10.3939 16.0652 9.73852 15.1633 8.83664C14.2614 7.93477 13.6061 6.81653 13.26 5.58894L12.481 2.86294C12.4418 2.76757 12.3752 2.686 12.2895 2.62859C12.2039 2.57118 12.1031 2.54053 12 2.54053C11.8969 2.54053 11.7961 2.57118 11.7105 2.62859C11.6248 2.686 11.5582 2.76757 11.519 2.86294L10.74 5.58894C10.3939 6.81653 9.73856 7.93477 8.83668 8.83664C7.93481 9.73852 6.81658 10.3939 5.58899 10.7399L2.86299 11.5189C2.75832 11.5487 2.6662 11.6117 2.6006 11.6985C2.535 11.7853 2.49951 11.8911 2.49951 11.9999C2.49951 12.1087 2.535 12.2146 2.6006 12.3014C2.6662 12.3882 2.75832 12.4512 2.86299 12.4809L5.58899 13.2599C6.81658 13.606 7.93481 14.2614 8.83668 15.1632C9.73856 16.0651 10.3939 17.1834 10.74 18.4109L11.519 21.1369C11.5487 21.2416 11.6117 21.3337 11.6985 21.3993C11.7853 21.4649 11.8912 21.5004 12 21.5004C12.1088 21.5004 12.2146 21.4649 12.3014 21.3993C12.3882 21.3337 12.4513 21.2416 12.481 21.1369L13.26 18.4109C13.6061 17.1834 14.2614 16.0651 15.1633 15.1632C16.0652 14.2614 17.1834 13.606 18.411 13.2599L21.137 12.4809C21.2417 12.4512 21.3338 12.3882 21.3994 12.3014C21.465 12.2146 21.5005 12.1087 21.5005 11.9999C21.5005 11.8911 21.465 11.7853 21.3994 11.6985C21.3338 11.6117 21.2417 11.5487 21.137 11.5189ZM18.137 12.2979C16.746 12.6907 15.479 13.4336 14.4571 14.4557C13.4352 15.4778 12.6925 16.7449 12.3 18.1359L12 19.1789L11.7 18.1359C11.3073 16.7454 10.5646 15.4788 9.54287 14.4571C8.52115 13.4353 7.25452 12.6927 5.86399 12.2999L4.81999 11.9999L5.86399 11.6999C7.25452 11.3072 8.52115 10.5645 9.54287 9.54282C10.5646 8.5211 11.3073 7.25448 11.7 5.86394L12 4.82094L12.3 5.86394C12.6927 7.25448 13.4354 8.5211 14.4571 9.54282C15.4788 10.5645 16.7454 11.3072 18.136 11.6999L19.18 11.9999L18.137 12.2979Z" fill="#090C10"/>
</g>
</g>
</svg>
