<svg width="20" height="20" viewBox="0 0 20 20" fill="none" xmlns="http://www.w3.org/2000/svg">
<g clip-path="url(#clip0_7701_41226)">
<rect width="20" height="20" rx="4" fill="currentColor"/>
<path d="M16.1284 6.12833L7.79503 14.4617C7.71649 14.5394 7.61053 14.5831 7.50003 14.5833C7.39027 14.5753 7.28612 14.5317 7.20337 14.4592L3.87004 11.0733C3.82814 11.0352 3.79447 10.9889 3.77107 10.9373C3.74767 10.8857 3.73505 10.8299 3.73396 10.7732C3.73288 10.7166 3.74336 10.6603 3.76476 10.6078C3.78616 10.5554 3.81804 10.5078 3.85844 10.4681C3.89884 10.4284 3.94692 10.3973 3.99974 10.3768C4.05255 10.3563 4.10899 10.3468 4.16561 10.3488C4.22223 10.3509 4.27784 10.3645 4.32904 10.3887C4.38023 10.413 4.42594 10.4475 4.46337 10.49L7.50003 13.575L15.5359 5.53833C15.6141 5.46009 15.7202 5.41614 15.8309 5.41614C15.9415 5.41614 16.0476 5.46009 16.1259 5.53833C16.2041 5.61657 16.2481 5.72268 16.2481 5.83333C16.2481 5.94398 16.2041 6.05009 16.1259 6.12833H16.1284Z" fill="black"/>
</g>
<defs>
<clipPath id="clip0_7701_41226">
<rect width="20" height="20" rx="4" fill="white"/>
</clipPath>
</defs>
</svg>
