<svg width="87" height="24" viewBox="0 0 87 24" fill="none" xmlns="http://www.w3.org/2000/svg">
<rect x="0.5" y="0.5" width="86" height="23" rx="11.5" fill="#00FFA3" fill-opacity="0.1"/>
<rect x="0.5" y="0.5" width="86" height="23" rx="11.5" stroke="#00FFA3"/>
<path d="M16.44 15.5L14.78 12.65H13.68V15.5H12.77V8.53H15.02C15.5467 8.53 15.99 8.62 16.35 8.8C16.7167 8.98 16.99 9.22333 17.17 9.53C17.35 9.83667 17.44 10.1867 17.44 10.58C17.44 11.06 17.3 11.4833 17.02 11.85C16.7467 12.2167 16.3333 12.46 15.78 12.58L17.53 15.5H16.44ZM13.68 11.92H15.02C15.5133 11.92 15.8833 11.8 16.13 11.56C16.3767 11.3133 16.5 10.9867 16.5 10.58C16.5 10.1667 16.3767 9.84667 16.13 9.62C15.89 9.39333 15.52 9.28 15.02 9.28H13.68V11.92ZM23.854 12.55C23.854 12.7233 23.844 12.9067 23.824 13.1H19.444C19.4773 13.64 19.6607 14.0633 19.994 14.37C20.334 14.67 20.744 14.82 21.224 14.82C21.6173 14.82 21.944 14.73 22.204 14.55C22.4707 14.3633 22.6573 14.1167 22.764 13.81H23.744C23.5973 14.3367 23.304 14.7667 22.864 15.1C22.424 15.4267 21.8773 15.59 21.224 15.59C20.704 15.59 20.2373 15.4733 19.824 15.24C19.4173 15.0067 19.0973 14.6767 18.864 14.25C18.6307 13.8167 18.514 13.3167 18.514 12.75C18.514 12.1833 18.6273 11.6867 18.854 11.26C19.0807 10.8333 19.3973 10.5067 19.804 10.28C20.2173 10.0467 20.6907 9.93 21.224 9.93C21.744 9.93 22.204 10.0433 22.604 10.27C23.004 10.4967 23.3107 10.81 23.524 11.21C23.744 11.6033 23.854 12.05 23.854 12.55ZM22.914 12.36C22.914 12.0133 22.8373 11.7167 22.684 11.47C22.5307 11.2167 22.3207 11.0267 22.054 10.9C21.794 10.7667 21.504 10.7 21.184 10.7C20.724 10.7 20.3307 10.8467 20.004 11.14C19.684 11.4333 19.5007 11.84 19.454 12.36H22.914ZM24.7152 12.74C24.7152 12.18 24.8285 11.69 25.0552 11.27C25.2818 10.8433 25.5918 10.5133 25.9852 10.28C26.3852 10.0467 26.8285 9.93 27.3152 9.93C27.7952 9.93 28.2118 10.0333 28.5652 10.24C28.9185 10.4467 29.1818 10.7067 29.3552 11.02V10.02H30.2752V15.5H29.3552V14.48C29.1752 14.8 28.9052 15.0667 28.5452 15.28C28.1918 15.4867 27.7785 15.59 27.3052 15.59C26.8185 15.59 26.3785 15.47 25.9852 15.23C25.5918 14.99 25.2818 14.6533 25.0552 14.22C24.8285 13.7867 24.7152 13.2933 24.7152 12.74ZM29.3552 12.75C29.3552 12.3367 29.2718 11.9767 29.1052 11.67C28.9385 11.3633 28.7118 11.13 28.4252 10.97C28.1452 10.8033 27.8352 10.72 27.4952 10.72C27.1552 10.72 26.8452 10.8 26.5652 10.96C26.2852 11.12 26.0618 11.3533 25.8952 11.66C25.7285 11.9667 25.6452 12.3267 25.6452 12.74C25.6452 13.16 25.7285 13.5267 25.8952 13.84C26.0618 14.1467 26.2852 14.3833 26.5652 14.55C26.8452 14.71 27.1552 14.79 27.4952 14.79C27.8352 14.79 28.1452 14.71 28.4252 14.55C28.7118 14.3833 28.9385 14.1467 29.1052 13.84C29.2718 13.5267 29.3552 13.1633 29.3552 12.75ZM32.723 8.1V15.5H31.813V8.1H32.723ZM41.2299 8.53V9.27H39.3299V15.5H38.4199V9.27H36.5099V8.53H41.2299ZM42.8201 9.13C42.6467 9.13 42.5001 9.07 42.3801 8.95C42.2601 8.83 42.2001 8.68333 42.2001 8.51C42.2001 8.33667 42.2601 8.19 42.3801 8.07C42.5001 7.95 42.6467 7.89 42.8201 7.89C42.9867 7.89 43.1267 7.95 43.2401 8.07C43.3601 8.19 43.4201 8.33667 43.4201 8.51C43.4201 8.68333 43.3601 8.83 43.2401 8.95C43.1267 9.07 42.9867 9.13 42.8201 9.13ZM43.2601 10.02V15.5H42.3501V10.02H43.2601ZM51.401 9.92C51.8277 9.92 52.2077 10.01 52.541 10.19C52.8743 10.3633 53.1377 10.6267 53.331 10.98C53.5243 11.3333 53.621 11.7633 53.621 12.27V15.5H52.721V12.4C52.721 11.8533 52.5843 11.4367 52.311 11.15C52.0443 10.8567 51.681 10.71 51.221 10.71C50.7477 10.71 50.371 10.8633 50.091 11.17C49.811 11.47 49.671 11.9067 49.671 12.48V15.5H48.771V12.4C48.771 11.8533 48.6343 11.4367 48.361 11.15C48.0943 10.8567 47.731 10.71 47.271 10.71C46.7977 10.71 46.421 10.8633 46.141 11.17C45.861 11.47 45.721 11.9067 45.721 12.48V15.5H44.811V10.02H45.721V10.81C45.901 10.5233 46.141 10.3033 46.441 10.15C46.7477 9.99667 47.0843 9.92 47.451 9.92C47.911 9.92 48.3177 10.0233 48.671 10.23C49.0243 10.4367 49.2877 10.74 49.461 11.14C49.6143 10.7533 49.8677 10.4533 50.221 10.24C50.5743 10.0267 50.9677 9.92 51.401 9.92ZM60.1138 12.55C60.1138 12.7233 60.1038 12.9067 60.0838 13.1H55.7038C55.7371 13.64 55.9204 14.0633 56.2538 14.37C56.5938 14.67 57.0038 14.82 57.4838 14.82C57.8771 14.82 58.2038 14.73 58.4638 14.55C58.7304 14.3633 58.9171 14.1167 59.0238 13.81H60.0038C59.8571 14.3367 59.5638 14.7667 59.1238 15.1C58.6838 15.4267 58.1371 15.59 57.4838 15.59C56.9638 15.59 56.4971 15.4733 56.0838 15.24C55.6771 15.0067 55.3571 14.6767 55.1238 14.25C54.8904 13.8167 54.7738 13.3167 54.7738 12.75C54.7738 12.1833 54.8871 11.6867 55.1138 11.26C55.3404 10.8333 55.6571 10.5067 56.0638 10.28C56.4771 10.0467 56.9504 9.93 57.4838 9.93C58.0038 9.93 58.4638 10.0433 58.8638 10.27C59.2638 10.4967 59.5704 10.81 59.7838 11.21C60.0038 11.6033 60.1138 12.05 60.1138 12.55ZM59.1738 12.36C59.1738 12.0133 59.0971 11.7167 58.9438 11.47C58.7904 11.2167 58.5804 11.0267 58.3138 10.9C58.0538 10.7667 57.7638 10.7 57.4438 10.7C56.9838 10.7 56.5904 10.8467 56.2638 11.14C55.9438 11.4333 55.7604 11.84 55.7138 12.36H59.1738Z" fill="white"/>
<path d="M73 12C73 13.6569 71.6569 15 70 15C68.3431 15 67 13.6569 67 12C67 10.3431 68.3431 9 70 9C71.6569 9 73 10.3431 73 12Z" fill="#00FFA3"/>
<path d="M75 12C75 14.7614 72.7614 17 70 17C67.2386 17 65 14.7614 65 12C65 9.23858 67.2386 7 70 7C72.7614 7 75 9.23858 75 12Z" fill="#00FFA3" fill-opacity="0.1"/>
</svg>
