<svg width="8" height="8" viewBox="0 0 8 8" fill="none" xmlns="http://www.w3.org/2000/svg">
<path d="M4.63393 5.77453C4.4182 6.05476 4.31034 6.19488 4.17889 6.24524C4.06371 6.28938 3.93629 6.28938 3.82111 6.24524C3.68966 6.19488 3.5818 6.05476 3.36608 5.77453L0.9915 2.68987C0.673063 2.2762 0.513844 2.06937 0.515926 1.89587C0.517738 1.74492 0.587652 1.60287 0.70616 1.50936C0.842375 1.40187 1.10339 1.40187 1.62542 1.40187L6.37458 1.40187C6.89661 1.40187 7.15763 1.40187 7.29384 1.50936C7.41235 1.60287 7.48226 1.74492 7.48407 1.89587C7.48616 2.06937 7.32694 2.2762 7.0085 2.68987L4.63393 5.77453Z" fill="#F14056"/>
</svg>
