<svg width="24" height="24" viewBox="0 0 24 24" fill="none" xmlns="http://www.w3.org/2000/svg">
<g clip-path="url(#clip0_5735_27502)">
<path fill-rule="evenodd" clip-rule="evenodd" d="M2.25 16C2.25 19.1756 4.82436 21.75 8 21.75H16C19.1756 21.75 21.75 19.1756 21.75 16V8C21.75 4.82436 19.1756 2.25 16 2.25H8C4.82436 2.25 2.25 4.82436 2.25 8V16ZM15.75 7C15.75 6.58579 15.4142 6.25 15 6.25C14.5858 6.25 14.25 6.58579 14.25 7V8C14.25 8.41421 14.5858 8.75 15 8.75C15.4142 8.75 15.75 8.41421 15.75 8V7ZM16.5 11.25H15.75V17C15.75 17.4142 15.4142 17.75 15 17.75C14.5858 17.75 14.25 17.4142 14.25 17V11.25H13.5C13.0858 11.25 12.75 10.9142 12.75 10.5C12.75 10.0858 13.0858 9.75 13.5 9.75H15H16.5C16.9142 9.75 17.25 10.0858 17.25 10.5C17.25 10.9142 16.9142 11.25 16.5 11.25ZM9 15.25C9.41421 15.25 9.75 15.5858 9.75 16V17C9.75 17.4142 9.41421 17.75 9 17.75C8.58579 17.75 8.25 17.4142 8.25 17V16C8.25 15.5858 8.58579 15.25 9 15.25ZM9.75 7C9.75 6.58579 9.41421 6.25 9 6.25C8.58579 6.25 8.25 6.58579 8.25 7V12.75H7.5C7.08579 12.75 6.75 13.0858 6.75 13.5C6.75 13.9142 7.08579 14.25 7.5 14.25H9H10.5C10.9142 14.25 11.25 13.9142 11.25 13.5C11.25 13.0858 10.9142 12.75 10.5 12.75H9.75V7Z" fill="white" fill-opacity="0.96"/>
</g>
<defs>
<clipPath id="clip0_5735_27502">
<rect width="24" height="24" fill="white"/>
</clipPath>
</defs>
</svg>
