<svg xmlns="http://www.w3.org/2000/svg" width="24" height="24" viewBox="0 0 24 24" fill="none">
  <path d="M20.5504 17.9078C20.5406 19.6251 19.1405 21.0096 17.4222 20.9999H6.57638C4.85907 21.0087 3.45895 19.6222 3.45117 17.9049V10.0626C3.45895 9.38835 3.77809 8.75494 4.31615 8.34823L10.2134 3.61663C11.2535 2.79446 12.7227 2.79446 13.7628 3.61663L19.6844 8.34434C20.2205 8.75105 20.5397 9.38154 20.5504 10.0539V17.9078Z" stroke="white" stroke-width="1.5" stroke-linecap="round" stroke-linejoin="round"/>
  <path d="M16.4623 20.9991V12.5624C16.4623 11.964 15.9767 11.4785 15.3784 11.4785H8.61906C8.02067 11.4785 7.53516 11.964 7.53516 12.5624V20.9991" stroke="white" stroke-width="1.5" stroke-linecap="round" stroke-linejoin="round"/>
  <path d="M7.53516 17.7585H16.4623M7.53516 14.6191H16.4623" stroke="white" stroke-width="1.5" stroke-linecap="round" stroke-linejoin="round"/>
</svg>
