<svg xmlns="http://www.w3.org/2000/svg" width="24" height="24" viewBox="0 0 24 24" fill="none">
  <path fill-rule="evenodd" clip-rule="evenodd" d="M8.28516 17.7126C8.28516 17.8783 8.41947 18.0126 8.58516 18.0126H15.4121C15.5778 18.0126 15.7121 17.8783 15.7121 17.7126V16.6726C15.7121 16.5069 15.5778 16.3726 15.4121 16.3726H8.58516C8.41947 16.3726 8.28516 16.5069 8.28516 16.6726V17.7126Z" fill="white"/>
  <path fill-rule="evenodd" clip-rule="evenodd" d="M15.3781 13.2324H8.61916C8.43216 13.2324 8.28516 13.3774 8.28516 13.5624V14.5724C8.28516 14.7381 8.41948 14.8724 8.58516 14.8724H15.4121C15.5778 14.8724 15.7121 14.7381 15.7121 14.5724V13.5624C15.7121 13.3774 15.5651 13.2324 15.3781 13.2324Z" fill="white"/>
  <path fill-rule="evenodd" clip-rule="evenodd" d="M20.1511 7.75608L14.2311 3.03608C12.9111 1.98408 11.0671 1.98208 9.74317 3.03808L3.86817 7.75108C3.14817 8.28608 2.71217 9.14708 2.70117 10.0631V17.9061C2.70617 18.9401 3.11317 19.9101 3.84717 20.6371C4.57517 21.3571 5.53617 21.7531 6.55317 21.7531C6.68185 21.7531 6.78617 21.6488 6.78617 21.5201V13.5631C6.78617 12.5531 7.60917 11.7331 8.62017 11.7331H15.3791C16.3901 11.7331 17.2131 12.5531 17.2131 13.5631V21.5491C17.2131 21.6618 17.3045 21.7531 17.4171 21.7531C18.4291 21.7601 19.4211 21.3631 20.1541 20.6401C20.8871 19.9161 21.2951 18.9491 21.3001 17.9171V10.0411C21.2861 9.13508 20.8631 8.29908 20.1511 7.75608Z" fill="white"/>
  <path fill-rule="evenodd" clip-rule="evenodd" d="M8.28516 21.4522C8.28516 21.6179 8.41947 21.7522 8.58516 21.7522H15.4121C15.5778 21.7522 15.7121 21.6179 15.7121 21.4522V19.8122C15.7121 19.6465 15.5778 19.5122 15.4121 19.5122H8.58516C8.41947 19.5122 8.28516 19.6465 8.28516 19.8122V21.4522Z" fill="white"/>
</svg>
