<svg width="24" height="24" viewBox="0 0 24 24" fill="none" xmlns="http://www.w3.org/2000/svg">
<path d="M7.68362 19.562H16.2611C17.6097 19.562 18.4213 18.6853 18.4863 17.4643C18.5008 14.9886 15.8035 14.1313 11.7432 14.0928C8.80207 14.1137 6.5787 14.571 5.58008 15.7698H5.40625" stroke="white" stroke-miterlimit="10"/>
<path d="M11.7495 11.2559C13.6316 11.2559 15.1572 9.73015 15.1572 7.84813C15.1572 5.96611 13.6316 4.44043 11.7495 4.44043C9.86748 4.44043 8.3418 5.96611 8.3418 7.84813C8.3418 9.73015 9.86748 11.2559 11.7495 11.2559Z" stroke="white" stroke-miterlimit="10"/>
<mask id="path-3-inside-1_2990_35840" fill="white">
<path d="M8.47282 20.0169L7.88803 19.5168C7.9157 19.3472 7.92999 19.1739 7.92999 19.0007C7.92999 18.8275 7.9157 18.6543 7.88803 18.4846L8.47282 17.9846C8.51692 17.9468 8.54849 17.8965 8.56333 17.8404C8.57816 17.7842 8.57555 17.7249 8.55585 17.6703L8.54781 17.6471C8.38682 17.1971 8.14575 16.7799 7.83624 16.4157L7.82017 16.397C7.78263 16.3528 7.73258 16.3211 7.67664 16.3059C7.6207 16.2908 7.56148 16.293 7.5068 16.3121L6.78094 16.5702C6.5131 16.3505 6.21401 16.1773 5.89081 16.0559L5.75064 15.2969C5.74006 15.2398 5.71237 15.1872 5.67122 15.1463C5.63008 15.1053 5.57744 15.0778 5.5203 15.0674L5.49619 15.063C5.03104 14.979 4.54178 14.979 4.07662 15.063L4.05252 15.0674C3.99537 15.0778 3.94273 15.1053 3.90159 15.1463C3.86045 15.1872 3.83275 15.2398 3.82217 15.2969L3.68111 16.0594C3.36049 16.1809 3.06192 16.354 2.79723 16.572L2.06602 16.3121C2.01135 16.2928 1.95209 16.2906 1.89611 16.3057C1.84013 16.3209 1.7901 16.3527 1.75264 16.397L1.73657 16.4157C1.42743 16.7801 1.1864 17.1972 1.025 17.6471L1.01697 17.6703C0.976789 17.7819 1.00982 17.9069 1.1 17.9846L1.69193 18.49C1.66425 18.6578 1.65086 18.8293 1.65086 18.9998C1.65086 19.1713 1.66425 19.3427 1.69193 19.5097L1.1 20.0151C1.05589 20.0528 1.02432 20.1031 1.00949 20.1593C0.994655 20.2154 0.997264 20.2748 1.01697 20.3294L1.025 20.3526C1.1866 20.8026 1.42587 21.2178 1.73657 21.5839L1.75264 21.6027C1.79019 21.6468 1.84023 21.6786 1.89617 21.6937C1.95211 21.7089 2.01133 21.7067 2.06602 21.6875L2.79723 21.4277C3.06328 21.6464 3.36059 21.8197 3.68111 21.9402L3.82217 22.7028C3.83275 22.7599 3.86045 22.8124 3.90159 22.8534C3.94273 22.8944 3.99537 22.9219 4.05252 22.9322L4.07662 22.9367C4.54605 23.0211 5.02676 23.0211 5.49619 22.9367L5.5203 22.9322C5.57744 22.9219 5.63008 22.8944 5.67122 22.8534C5.71237 22.8124 5.74006 22.7599 5.75064 22.7028L5.89081 21.9438C6.21388 21.8227 6.51466 21.6489 6.78094 21.4295L7.5068 21.6875C7.56147 21.7069 7.62073 21.7091 7.6767 21.6939C7.73268 21.6788 7.78272 21.647 7.82017 21.6027L7.83624 21.5839C8.14694 21.2169 8.38621 20.8026 8.54781 20.3526L8.55585 20.3294C8.59602 20.2196 8.56299 20.0946 8.47282 20.0169ZM7.25413 18.59C7.27645 18.7248 7.28806 18.8632 7.28806 19.0016C7.28806 19.14 7.27645 19.2784 7.25413 19.4133L7.19521 19.7713L7.86213 20.3419C7.76103 20.5748 7.63341 20.7954 7.4818 20.9991L6.65327 20.7053L6.37293 20.9357C6.15955 21.1107 5.92206 21.2482 5.66493 21.3446L5.32477 21.4723L5.16496 22.3385C4.9128 22.367 4.65823 22.367 4.40607 22.3385L4.24626 21.4705L3.90877 21.3411C3.65432 21.2446 3.41773 21.1071 3.20613 20.933L2.92579 20.7017L2.09191 20.9982C1.94013 20.7937 1.81335 20.5732 1.71157 20.341L2.38564 19.7651L2.32761 19.4079C2.30618 19.2749 2.29458 19.1373 2.29458 19.0016C2.29458 18.865 2.30529 18.7284 2.32761 18.5953L2.38564 18.2382L1.71157 17.6622C1.81246 17.4292 1.94013 17.2095 2.09191 17.005L2.92579 17.3015L3.20613 17.0702C3.41773 16.8961 3.65432 16.7586 3.90877 16.6622L4.24715 16.5345L4.40696 15.6666C4.65784 15.638 4.91408 15.638 5.16585 15.6666L5.32566 16.5327L5.66582 16.6604C5.92206 16.7568 6.16044 16.8943 6.37382 17.0693L6.65416 17.2997L7.48269 17.0059C7.63447 17.2104 7.76125 17.431 7.86303 17.6631L7.1961 18.2337L7.25413 18.59ZM4.7873 17.3408C3.91949 17.3408 3.21595 18.0444 3.21595 18.9123C3.21595 19.7802 3.91949 20.4839 4.7873 20.4839C5.65511 20.4839 6.35864 19.7802 6.35864 18.9123C6.35864 18.0444 5.65511 17.3408 4.7873 17.3408ZM5.4944 19.6195C5.40166 19.7125 5.29144 19.7863 5.17009 19.8366C5.04874 19.8868 4.91865 19.9126 4.7873 19.9124C4.52035 19.9124 4.26947 19.8079 4.08019 19.6195C3.98718 19.5268 3.91343 19.4165 3.86317 19.2952C3.81292 19.1738 3.78715 19.0437 3.78735 18.9123C3.78735 18.6453 3.89181 18.3944 4.08019 18.2051C4.26947 18.0158 4.52035 17.9123 4.7873 17.9123C5.05425 17.9123 5.30513 18.0158 5.4944 18.2051C5.58741 18.2979 5.66117 18.4081 5.71143 18.5295C5.76168 18.6509 5.78745 18.781 5.78725 18.9123C5.78725 19.1793 5.68279 19.4302 5.4944 19.6195Z"/>
</mask>
<path d="M8.47282 20.0169L7.88803 19.5168C7.9157 19.3472 7.92999 19.1739 7.92999 19.0007C7.92999 18.8275 7.9157 18.6543 7.88803 18.4846L8.47282 17.9846C8.51692 17.9468 8.54849 17.8965 8.56333 17.8404C8.57816 17.7842 8.57555 17.7249 8.55585 17.6703L8.54781 17.6471C8.38682 17.1971 8.14575 16.7799 7.83624 16.4157L7.82017 16.397C7.78263 16.3528 7.73258 16.3211 7.67664 16.3059C7.6207 16.2908 7.56148 16.293 7.5068 16.3121L6.78094 16.5702C6.5131 16.3505 6.21401 16.1773 5.89081 16.0559L5.75064 15.2969C5.74006 15.2398 5.71237 15.1872 5.67122 15.1463C5.63008 15.1053 5.57744 15.0778 5.5203 15.0674L5.49619 15.063C5.03104 14.979 4.54178 14.979 4.07662 15.063L4.05252 15.0674C3.99537 15.0778 3.94273 15.1053 3.90159 15.1463C3.86045 15.1872 3.83275 15.2398 3.82217 15.2969L3.68111 16.0594C3.36049 16.1809 3.06192 16.354 2.79723 16.572L2.06602 16.3121C2.01135 16.2928 1.95209 16.2906 1.89611 16.3057C1.84013 16.3209 1.7901 16.3527 1.75264 16.397L1.73657 16.4157C1.42743 16.7801 1.1864 17.1972 1.025 17.6471L1.01697 17.6703C0.976789 17.7819 1.00982 17.9069 1.1 17.9846L1.69193 18.49C1.66425 18.6578 1.65086 18.8293 1.65086 18.9998C1.65086 19.1713 1.66425 19.3427 1.69193 19.5097L1.1 20.0151C1.05589 20.0528 1.02432 20.1031 1.00949 20.1593C0.994655 20.2154 0.997264 20.2748 1.01697 20.3294L1.025 20.3526C1.1866 20.8026 1.42587 21.2178 1.73657 21.5839L1.75264 21.6027C1.79019 21.6468 1.84023 21.6786 1.89617 21.6937C1.95211 21.7089 2.01133 21.7067 2.06602 21.6875L2.79723 21.4277C3.06328 21.6464 3.36059 21.8197 3.68111 21.9402L3.82217 22.7028C3.83275 22.7599 3.86045 22.8124 3.90159 22.8534C3.94273 22.8944 3.99537 22.9219 4.05252 22.9322L4.07662 22.9367C4.54605 23.0211 5.02676 23.0211 5.49619 22.9367L5.5203 22.9322C5.57744 22.9219 5.63008 22.8944 5.67122 22.8534C5.71237 22.8124 5.74006 22.7599 5.75064 22.7028L5.89081 21.9438C6.21388 21.8227 6.51466 21.6489 6.78094 21.4295L7.5068 21.6875C7.56147 21.7069 7.62073 21.7091 7.6767 21.6939C7.73268 21.6788 7.78272 21.647 7.82017 21.6027L7.83624 21.5839C8.14694 21.2169 8.38621 20.8026 8.54781 20.3526L8.55585 20.3294C8.59602 20.2196 8.56299 20.0946 8.47282 20.0169ZM7.25413 18.59C7.27645 18.7248 7.28806 18.8632 7.28806 19.0016C7.28806 19.14 7.27645 19.2784 7.25413 19.4133L7.19521 19.7713L7.86213 20.3419C7.76103 20.5748 7.63341 20.7954 7.4818 20.9991L6.65327 20.7053L6.37293 20.9357C6.15955 21.1107 5.92206 21.2482 5.66493 21.3446L5.32477 21.4723L5.16496 22.3385C4.9128 22.367 4.65823 22.367 4.40607 22.3385L4.24626 21.4705L3.90877 21.3411C3.65432 21.2446 3.41773 21.1071 3.20613 20.933L2.92579 20.7017L2.09191 20.9982C1.94013 20.7937 1.81335 20.5732 1.71157 20.341L2.38564 19.7651L2.32761 19.4079C2.30618 19.2749 2.29458 19.1373 2.29458 19.0016C2.29458 18.865 2.30529 18.7284 2.32761 18.5953L2.38564 18.2382L1.71157 17.6622C1.81246 17.4292 1.94013 17.2095 2.09191 17.005L2.92579 17.3015L3.20613 17.0702C3.41773 16.8961 3.65432 16.7586 3.90877 16.6622L4.24715 16.5345L4.40696 15.6666C4.65784 15.638 4.91408 15.638 5.16585 15.6666L5.32566 16.5327L5.66582 16.6604C5.92206 16.7568 6.16044 16.8943 6.37382 17.0693L6.65416 17.2997L7.48269 17.0059C7.63447 17.2104 7.76125 17.431 7.86303 17.6631L7.1961 18.2337L7.25413 18.59ZM4.7873 17.3408C3.91949 17.3408 3.21595 18.0444 3.21595 18.9123C3.21595 19.7802 3.91949 20.4839 4.7873 20.4839C5.65511 20.4839 6.35864 19.7802 6.35864 18.9123C6.35864 18.0444 5.65511 17.3408 4.7873 17.3408ZM5.4944 19.6195C5.40166 19.7125 5.29144 19.7863 5.17009 19.8366C5.04874 19.8868 4.91865 19.9126 4.7873 19.9124C4.52035 19.9124 4.26947 19.8079 4.08019 19.6195C3.98718 19.5268 3.91343 19.4165 3.86317 19.2952C3.81292 19.1738 3.78715 19.0437 3.78735 18.9123C3.78735 18.6453 3.89181 18.3944 4.08019 18.2051C4.26947 18.0158 4.52035 17.9123 4.7873 17.9123C5.05425 17.9123 5.30513 18.0158 5.4944 18.2051C5.58741 18.2979 5.66117 18.4081 5.71143 18.5295C5.76168 18.6509 5.78745 18.781 5.78725 18.9123C5.78725 19.1793 5.68279 19.4302 5.4944 19.6195Z" fill="white" stroke="white" stroke-width="0.0178573" mask="url(#path-3-inside-1_2990_35840)"/>
</svg>
