<svg width="24" height="24" viewBox="0 0 24 24" fill="none" xmlns="http://www.w3.org/2000/svg">
<path d="M9.65431 19.2364V16.7064C9.6543 16.0628 10.1789 15.5399 10.8289 15.5356H13.21C13.8631 15.5356 14.3925 16.0598 14.3925 16.7064V19.2443C14.3924 19.7906 14.8329 20.2372 15.3846 20.25H16.972C18.5543 20.25 19.8371 18.9801 19.8371 17.4135V10.2162C19.8287 9.59993 19.5364 9.02121 19.0434 8.64475L13.6147 4.31537C12.6637 3.56154 11.3117 3.56154 10.3607 4.31537L4.95578 8.65261C4.46097 9.02754 4.1682 9.60722 4.16211 10.2241V17.4135C4.16211 18.9801 5.44488 20.25 7.02726 20.25H8.6146C9.18005 20.25 9.63844 19.7962 9.63844 19.2364" stroke="white" stroke-opacity="0.96" stroke-width="1.5" stroke-linecap="round" stroke-linejoin="round"/>
</svg>
