<svg xmlns="http://www.w3.org/2000/svg" width="28" height="28" viewBox="0 0 28 28" fill="none">
  <g clip-path="url(#clip0_488_2763)">
    <path d="M9.33334 17.5L12.25 14.5833L15.1667 17.5L18.6667 14" stroke="currentColor" stroke-linecap="round" stroke-linejoin="round"/>
    <path d="M3.5 19.8333V12.95C3.5 12.1627 3.67709 11.3854 4.01815 10.6758C4.35922 9.96613 4.85553 9.3423 5.47034 8.85045L10.7203 4.65045C11.6512 3.90573 12.8079 3.5 14 3.5C15.1921 3.5 16.3488 3.90573 17.2797 4.65045L22.5297 8.85045C23.1445 9.3423 23.6408 9.96613 23.9818 10.6758C24.3229 11.3854 24.5 12.1627 24.5 12.95V19.8333C24.5 21.071 24.0083 22.258 23.1332 23.1332C22.258 24.0083 21.071 24.5 19.8333 24.5H8.16667C6.92899 24.5 5.742 24.0083 4.86683 23.1332C3.99167 22.258 3.5 21.071 3.5 19.8333Z" stroke="currentColor" stroke-linecap="round" stroke-linejoin="round"/>
  </g>
  <defs>
    <clipPath id="clip0_488_2763">
      <rect width="28" height="28" fill="white"/>
    </clipPath>
  </defs>
</svg>
