<svg xmlns="http://www.w3.org/2000/svg" width="24" height="24" viewBox="0 0 24 24" fill="none">
  <path fill-rule="evenodd" clip-rule="evenodd" d="M21.1143 12.0723C18.3744 12.9605 16.2267 15.1082 15.3384 17.8493C14.4501 15.1082 12.3024 12.9605 9.5625 12.0723C12.3024 11.184 14.4501 9.03627 15.3384 6.29639C16.2267 9.03627 18.3744 11.184 21.1143 12.0723Z" stroke="white" stroke-width="1.5" stroke-linecap="round" stroke-linejoin="round"/>
  <path fill-rule="evenodd" clip-rule="evenodd" d="M8.98358 5.56871C8.02774 5.87858 7.2785 6.62783 6.9686 7.58409C6.6587 6.62783 5.90945 5.87858 4.95361 5.56871C5.90945 5.2588 6.6587 4.50955 6.9686 3.55371C7.2785 4.50955 8.02774 5.2588 8.98358 5.56871Z" fill="white" stroke="white" stroke-width="1.5" stroke-linecap="round" stroke-linejoin="round"/>
  <path fill-rule="evenodd" clip-rule="evenodd" d="M9.09278 17.4561C7.67478 17.9158 6.56328 19.0273 6.10354 20.446C5.64379 19.0273 4.53227 17.9158 3.11426 17.4561C4.53227 16.9964 5.64379 15.8848 6.10354 14.4668C6.56328 15.8848 7.67478 16.9964 9.09278 17.4561Z" stroke="white" stroke-width="1.5" stroke-linecap="round" stroke-linejoin="round"/>
</svg>
