<svg width="24" height="24" viewBox="0 0 24 24" fill="none" xmlns="http://www.w3.org/2000/svg">
<path fill-rule="evenodd" clip-rule="evenodd" d="M13.25 10.7849C13.25 10.9689 13.4142 11.1096 13.5961 11.0813L21.4255 9.86567C21.598 9.8389 21.7117 9.67086 21.6663 9.50235C20.667 5.79279 17.4775 2.9783 13.5733 2.53702C13.3994 2.51737 13.25 2.65562 13.25 2.83057V10.7849Z" fill="white" fill-opacity="0.96"/>
<path fill-rule="evenodd" clip-rule="evenodd" d="M13.9906 12.5377C13.7935 12.5683 13.6806 12.779 13.7643 12.96L16.9981 19.958C17.0715 20.1169 17.2651 20.1798 17.4147 20.0889C20.1593 18.4212 21.9993 15.4069 21.9993 11.9678C21.9993 11.8527 21.9945 11.7384 21.9879 11.6246C21.9775 11.4495 21.8169 11.3228 21.6436 11.3497L13.9906 12.5377Z" fill="white" fill-opacity="0.96"/>
<path fill-rule="evenodd" clip-rule="evenodd" d="M11.827 12.3401C11.822 12.3311 11.818 12.3211 11.813 12.3111C11.794 12.2671 11.779 12.2211 11.768 12.1721C11.755 12.1121 11.749 12.0531 11.75 11.9941V2.83062C11.75 2.65565 11.6004 2.51742 11.4265 2.5371C6.69269 3.07291 3 7.09356 3 11.9681C3 17.2061 7.262 21.4681 12.5 21.4681C13.5366 21.4681 14.5303 21.2929 15.4641 20.9834C15.6304 20.9282 15.7081 20.74 15.6346 20.5809L11.827 12.3401Z" fill="white" fill-opacity="0.96"/>
</svg>
