<svg xmlns="http://www.w3.org/2000/svg" width="24" height="24" viewBox="0 0 24 24" fill="none">
  <path d="M7.8641 4.24304C8.99449 3.49576 10.3062 3.0687 11.6599 3.00723C13.0136 2.94577 14.3586 3.2522 15.5521 3.89396C16.7456 4.53572 17.7429 5.48883 18.438 6.65201C19.1332 7.81518 19.5002 9.14497 19.5001 10.5C19.5001 13.42 18.9441 16.209 17.9321 18.768M5.7421 6.36404C4.92966 7.59023 4.49757 9.02912 4.5001 10.5C4.50245 11.9131 4.10366 13.2977 3.3501 14.493M5.3391 18.052C7.21612 15.9851 8.25419 13.2921 8.2501 10.5C8.2501 9.50547 8.64519 8.55165 9.34845 7.84839C10.0517 7.14512 11.0055 6.75004 12.0001 6.75004C12.9947 6.75004 13.9485 7.14512 14.6517 7.84839C15.355 8.55165 15.7501 9.50547 15.7501 10.5C15.7501 11.027 15.7291 11.549 15.6861 12.065M12.0001 10.5C12.0057 14.0761 10.7283 17.5356 8.4001 20.25M15.0331 15.654C14.4916 17.5508 13.6529 19.3498 12.5481 20.984" stroke="currentColor" stroke-width="1.5" stroke-linecap="round" stroke-linejoin="round"/>
</svg>