<svg xmlns="http://www.w3.org/2000/svg" width="24" height="24" viewBox="0 0 24 24" fill="none">
    <path d="M20.7956 10.1129H16.3159M20.7956 10.1129L18.9885 8.31348M20.7956 10.1129L18.9885 11.9114" stroke="currentColor" stroke-width="1.5" stroke-linecap="round" stroke-linejoin="round"/>
    <path d="M5.71449 19.562C4.36345 19.562 3.54705 18.6853 3.48926 17.4643C3.48926 14.979 6.17929 14.1217 10.2324 14.0928C14.2927 14.1313 16.9901 14.9886 16.9756 17.4643C16.9106 18.6853 16.099 19.562 14.7504 19.562H5.71449Z" stroke="currentColor" stroke-width="1.5" stroke-miterlimit="10"/>
    <path d="M10.2382 11.2559C12.1203 11.2559 13.646 9.73015 13.646 7.84813C13.646 5.96611 12.1203 4.44043 10.2382 4.44043C8.35625 4.44043 6.83057 5.96611 6.83057 7.84813C6.83057 9.73015 8.35625 11.2559 10.2382 11.2559Z" stroke="currentColor" stroke-width="1.5" stroke-miterlimit="10"/>
</svg>
