<svg xmlns="http://www.w3.org/2000/svg" width="20" height="21" viewBox="0 0 20 21" fill="none">
  <path fill-rule="evenodd" clip-rule="evenodd" d="M13.7886 4.13395C14.6809 3.8127 15.6792 3.45333 16.4013 4.18052C17.1233 4.9077 16.7665 5.913 16.4475 6.81164C16.4319 6.85544 16.4165 6.89899 16.4013 6.94223C16.3042 7.2178 16.1626 7.56444 16.0115 7.9346C15.6523 8.81447 15.2387 9.82724 15.2387 10.3343C15.2387 11.0548 16.0436 13.3662 16.3714 14.1767C16.6993 14.9872 17.1138 16.1908 16.3565 16.9535C15.5993 17.7161 14.4041 17.2987 13.5993 16.9685C12.7945 16.6383 10.4993 15.8278 9.78392 15.8278C9.28038 15.8278 8.27473 16.2442 7.40105 16.606C7.03348 16.7582 6.68927 16.9007 6.41564 16.9985C6.3727 17.0138 6.32946 17.0294 6.28597 17.0451C5.39364 17.3663 4.3954 17.7257 3.67333 16.9985C2.95125 16.2713 3.3081 15.266 3.62709 14.3674C3.64263 14.3236 3.65809 14.28 3.67333 14.2368C3.77042 13.9612 3.91195 13.6146 4.06309 13.2444C4.42233 12.3645 4.83583 11.3518 4.83583 10.8447C4.83583 10.1242 4.03102 7.81277 3.70314 7.00227C3.37525 6.19177 2.96077 4.98817 3.71804 4.22554C4.47531 3.46292 5.67045 3.88033 6.47526 4.21053C7.28007 4.54074 9.57527 5.35124 10.2907 5.35124C10.7942 5.35124 11.7998 4.93482 12.6735 4.57304C13.0411 4.42083 13.3853 4.2783 13.6589 4.18052C13.7019 4.16517 13.7451 4.14961 13.7886 4.13395Z" stroke="currentColor" stroke-width="1.5" stroke-linecap="round" stroke-linejoin="round"/>
  <path fill-rule="evenodd" clip-rule="evenodd" d="M2.81473 12.3934C1.95819 11.9851 1 11.5284 1 10.5C1 9.4716 1.95819 9.01486 2.81472 8.60658C2.85647 8.58668 2.89797 8.5669 2.93911 8.54717C3.20125 8.42146 3.54472 8.27713 3.91149 8.12301C4.7833 7.75667 5.7868 7.33499 6.14286 6.97641C6.64871 6.46698 7.70258 4.25943 8.03981 3.45283C8.37705 2.64623 8.92906 1.5 10 1.5C11.0709 1.5 11.623 2.64623 11.9602 3.45283C12.2974 4.25943 13.3513 6.46698 13.8571 6.97642C14.2132 7.33499 15.2167 7.75667 16.0885 8.12301C16.4553 8.27713 16.7987 8.42146 17.0609 8.54717C17.102 8.5669 17.1435 8.58669 17.1853 8.60658C18.0418 9.01487 19 9.47161 19 10.5C19 11.5284 18.0418 11.9851 17.1853 12.3934C17.1435 12.4133 17.102 12.4331 17.0609 12.4528C16.7987 12.5785 16.4553 12.7229 16.0885 12.877C15.2167 13.2433 14.2132 13.665 13.8571 14.0236C13.3513 14.533 12.2974 16.7406 11.9602 17.5472C11.6229 18.3538 11.0709 19.5 10 19.5C8.92906 19.5 8.37705 18.3538 8.03981 17.5472C7.70257 16.7406 6.64871 14.533 6.14286 14.0236C5.7868 13.665 4.7833 13.2433 3.91149 12.877C3.54472 12.7229 3.20125 12.5785 2.93911 12.4528C2.89797 12.4331 2.85647 12.4133 2.81473 12.3934Z" stroke="currentColor" stroke-width="1.5" stroke-linecap="round" stroke-linejoin="round"/>
</svg>
