<svg xmlns="http://www.w3.org/2000/svg" width="28" height="28" viewBox="0 0 28 28" fill="none">
  <path d="M13.9933 24.6735C7.13045 25.7892 3.88496 22.138 3.40936 17.0136C3.36763 16.7572 3.39591 16.4942 3.49121 16.2524C3.58651 16.0107 3.75655 15.8127 3.95081 15.6401C5.37488 14.375 5.99988 14.0243 8.3137 14.0243H19.6729C22.5127 14.0243 22.5127 10.4745 19.6729 10.4745H18.679C18.5488 10.4734 18.4213 10.4365 18.3107 10.3678C18.2001 10.2991 18.1105 10.2012 18.0518 10.0849C17.9931 9.96867 17.9676 9.83848 17.9781 9.70866C17.9885 9.57884 18.0345 9.4544 18.111 9.349C18.5362 8.77979 19.0961 8.32514 19.7405 8.02591C20.3849 7.72668 21.0936 7.59225 21.8028 7.63471C21.7939 7.01224 21.9525 6.39883 22.2621 5.85873C22.5717 5.31864 23.0209 4.87175 23.5625 4.56488C23.6701 4.49881 23.7933 4.46266 23.9195 4.46016C24.0457 4.45766 24.1703 4.4889 24.2804 4.55066C24.3905 4.61241 24.4821 4.70244 24.5458 4.81144C24.6095 4.92045 24.6429 5.04447 24.6426 5.1707V16.1513C24.5751 17.3458 24.2485 18.5114 23.6856 19.5672C23.1226 20.623 22.3368 21.5436 21.3825 22.2654" stroke="currentColor" stroke-linecap="round" stroke-linejoin="round"/>
  <path d="M3.52051 17.574H7.60415C11.1539 17.574 9.00029 21.625 15.4136 21.1238C15.4136 21.1238 15.6351 22.6544 18.2534 23.9636C21.0932 25.3835 22.5131 23.9636 22.5131 23.9636L19.6733 19.7039" fill="#1D262F"/>
  <path d="M3.52051 17.574H7.60415C11.1539 17.574 9.00029 21.625 15.4136 21.1238C15.4136 21.1238 15.6351 22.6544 18.2534 23.9636C21.0932 25.3835 22.5131 23.9636 22.5131 23.9636L19.6733 19.7039" stroke="currentColor" stroke-linecap="round" stroke-linejoin="round"/>
  <path d="M5.47559 9.21481C5.47559 8.46164 5.77478 7.73933 6.30735 7.20676C6.83991 6.67419 7.56223 6.375 8.31539 6.375C9.06855 6.375 9.79087 6.67419 10.3234 7.20676C10.856 7.73933 11.1552 8.46164 11.1552 9.21481" stroke="currentColor" stroke-linecap="round" stroke-linejoin="round"/>
  <path d="M16.8324 6.21481C16.8324 5.46164 16.5333 4.73933 16.0007 4.20676C15.4681 3.67419 14.7458 3.375 13.9926 3.375C13.2395 3.375 12.5172 3.67419 11.9846 4.20676C11.452 4.73933 11.1528 5.46164 11.1528 6.21481V11.1845" stroke="currentColor" stroke-linecap="round" stroke-linejoin="round"/>
  <path d="M14.2515 17.25C14.2515 17.3881 14.1395 17.5 14.0015 17.5C13.8634 17.5 13.7515 17.3881 13.7515 17.25C13.7515 17.1119 13.8634 17 14.0015 17C14.1395 17 14.2515 17.1119 14.2515 17.25Z" fill="currentColor" stroke="currentColor"/>
</svg>
