<svg width="12" height="12" viewBox="0 0 12 12" fill="none" xmlns="http://www.w3.org/2000/svg">
<circle cx="6" cy="6" r="6" fill="#00FFA3"/>
<g clip-path="url(#clip0_11846_12281)">
<path d="M4.50365 4.16668C4.50365 3.90297 4.58185 3.64518 4.72836 3.42592C4.87487 3.20665 5.08311 3.03575 5.32674 2.93484C5.57037 2.83392 5.83846 2.80752 6.0971 2.85896C6.35575 2.91041 6.59332 3.0374 6.77979 3.22387C6.96626 3.41034 7.09325 3.64792 7.1447 3.90656C7.19615 4.1652 7.16974 4.43329 7.06882 4.67692C6.96791 4.92056 6.79701 5.1288 6.57774 5.2753C6.35848 5.42181 6.10069 5.50001 5.83698 5.50001C5.48336 5.50001 5.14422 5.35954 4.89418 5.10949C4.64413 4.85944 4.50365 4.5203 4.50365 4.16668ZM7.47032 7.13668C7.57349 7.03136 7.70585 6.95938 7.85032 6.93001C7.86387 6.92943 7.87731 6.92719 7.89032 6.92334C7.90842 6.91545 7.92377 6.90237 7.93445 6.88576C7.94513 6.86915 7.95065 6.84975 7.95032 6.83001C7.95065 6.81687 7.94814 6.80382 7.94296 6.79173C7.93778 6.77965 7.93006 6.76883 7.92032 6.76001C7.74414 6.55997 7.52478 6.4026 7.27883 6.29981C7.03288 6.19702 6.76678 6.1515 6.50065 6.16668H5.16732C3.81398 6.16668 3.33398 7.15668 3.33398 8.00668C3.33398 8.76668 3.73732 9.16668 4.50065 9.16668H6.53732C6.56384 9.16668 6.58927 9.15614 6.60803 9.13739C6.62678 9.11863 6.63732 9.0932 6.63732 9.06668C6.63434 9.0393 6.62266 9.01359 6.60398 8.99334C6.48228 8.85802 6.41568 8.68201 6.41732 8.50001C6.41661 8.40143 6.43572 8.30372 6.47351 8.21268C6.5113 8.12163 6.56701 8.03911 6.63732 7.97001L7.47032 7.13668ZM10.0113 8.32334L9.17798 7.49001C9.15493 7.46612 9.12736 7.44706 9.09686 7.43395C9.06637 7.42083 9.03357 7.41392 9.00037 7.41362C8.96718 7.41331 8.93425 7.41962 8.90352 7.43218C8.87279 7.44473 8.84487 7.46328 8.82139 7.48675C8.7979 7.51021 8.77933 7.53811 8.76674 7.56883C8.75416 7.59955 8.74782 7.63246 8.74809 7.66566C8.74836 7.69885 8.75524 7.73166 8.76833 7.76217C8.78142 7.79268 8.80045 7.82027 8.82432 7.84334L9.48098 8.50001L8.82432 9.15668C8.80045 9.17975 8.78142 9.20735 8.76833 9.23785C8.75524 9.26836 8.74836 9.30117 8.74809 9.33436C8.74782 9.36756 8.75416 9.40047 8.76674 9.43119C8.77933 9.46191 8.7979 9.48981 8.82139 9.51328C8.84487 9.53674 8.87279 9.55529 8.90352 9.56784C8.93425 9.5804 8.96718 9.58671 9.00037 9.58641C9.03357 9.5861 9.06637 9.57919 9.09686 9.56607C9.12736 9.55296 9.15493 9.5339 9.17798 9.51001L10.0113 8.67668C10.0346 8.65351 10.053 8.62599 10.0656 8.59569C10.0782 8.56539 10.0847 8.5329 10.0847 8.50008C10.0848 8.46726 10.0783 8.43476 10.0658 8.40444C10.0532 8.37411 10.0349 8.34655 10.0117 8.32334H10.0113ZM8.17798 7.49001C8.15477 7.46678 8.1272 7.44835 8.09686 7.43578C8.06652 7.4232 8.03399 7.41673 8.00115 7.41673C7.96831 7.41673 7.93579 7.4232 7.90544 7.43578C7.8751 7.44835 7.84753 7.46678 7.82432 7.49001L6.99098 8.32334C6.96776 8.34653 6.94934 8.37407 6.93677 8.40439C6.9242 8.4347 6.91773 8.46719 6.91773 8.50001C6.91773 8.53283 6.9242 8.56532 6.93677 8.59564C6.94934 8.62595 6.96776 8.65349 6.99098 8.67668L7.82432 9.51001C7.84737 9.5339 7.87495 9.55296 7.90544 9.56607C7.93594 9.57919 7.96874 9.5861 8.00193 9.58641C8.03513 9.58671 8.06805 9.5804 8.09878 9.56784C8.12951 9.55529 8.15743 9.53674 8.18091 9.51328C8.2044 9.48981 8.22297 9.46191 8.23556 9.43119C8.24814 9.40047 8.25449 9.36756 8.25421 9.33436C8.25394 9.30117 8.24706 9.26836 8.23397 9.23785C8.22088 9.20735 8.20185 9.17975 8.17798 9.15668L7.52132 8.50001L8.17798 7.84334C8.20123 7.82018 8.21968 7.79266 8.23227 7.76235C8.24487 7.73205 8.25137 7.69956 8.2514 7.66675C8.25143 7.63393 8.24499 7.60143 8.23245 7.5711C8.21991 7.54078 8.20152 7.51322 8.17832 7.49001H8.17798Z" fill="#131920"/>
</g>
<defs>
<clipPath id="clip0_11846_12281">
<rect width="8" height="8" fill="white" transform="translate(2.5 2)"/>
</clipPath>
</defs>
</svg>
