<svg width="32" height="32" viewBox="0 0 32 32" fill="none" xmlns="http://www.w3.org/2000/svg">
<rect width="32" height="32" rx="16" fill="#F7931A"/>
<path d="M23.0651 13.7165C23.3836 11.5873 21.7625 10.4427 19.5458 9.67921L20.265 6.79495L18.5092 6.35746L17.8092 9.16578C17.3476 9.05066 16.8736 8.94219 16.4025 8.83465L17.1076 6.0078L15.353 5.57031L14.6335 8.45363C14.2515 8.36667 13.8763 8.28072 13.5124 8.19015L13.5144 8.18108L11.0932 7.57647L10.6262 9.4517C10.6262 9.4517 11.9288 9.75029 11.9013 9.76867C12.6123 9.94612 12.7409 10.4168 12.7195 10.7898L11.9004 14.0757C11.9493 14.0881 12.0128 14.1061 12.0829 14.1342C12.0243 14.1197 11.962 14.1038 11.8973 14.0883L10.7492 18.6913C10.6623 18.9073 10.4417 19.2315 9.94466 19.1084C9.96226 19.1339 8.66857 18.79 8.66857 18.79L7.79688 20.7997L10.0817 21.3693C10.5067 21.4759 10.9233 21.5874 11.3335 21.6923L10.6069 24.6096L12.3606 25.0471L13.0801 22.1607C13.5592 22.2908 14.0241 22.4108 14.4793 22.5238L13.7622 25.3966L15.518 25.8341L16.2445 22.9222C19.2384 23.4888 21.4896 23.2604 22.4371 20.5524C23.2007 18.3722 22.3991 17.1146 20.824 16.2945C21.9713 16.03 22.8347 15.2752 23.0651 13.7165ZM19.0537 19.3416C18.5111 21.5219 14.8402 20.3433 13.6501 20.0477L14.6142 16.1828C15.8043 16.4799 19.6207 17.0678 19.0537 19.3416ZM19.5967 13.6849C19.1017 15.6681 16.0464 14.6606 15.0553 14.4135L15.9294 10.9082C16.9205 11.1553 20.1121 11.6164 19.5967 13.6849Z" fill="white"/>
</svg>
