<svg width="32" height="32" viewBox="0 0 31 31" fill="none" xmlns="http://www.w3.org/2000/svg">
  <circle cx="15.4922" cy="15.5" r="15" fill="#EDF0F4"/>
  <path d="M19.9909 12.4874C19.671 12.3034 19.2598 12.3034 18.8943 12.4874L16.3355 14.0052L14.5992 14.9711L12.0862 16.4889C11.7663 16.6728 11.3551 16.6728 10.9896 16.4889L9.02483 15.293C8.70499 15.1091 8.47653 14.7411 8.47653 14.3272V12.0274C8.47653 11.6595 8.65929 11.2915 9.02483 11.0616L10.9896 9.91172C11.3094 9.72774 11.7207 9.72774 12.0862 9.91172L14.0509 11.1076C14.3708 11.2915 14.5992 11.6595 14.5992 12.0734V13.5912L16.3355 12.5794V11.0156C16.3355 10.6476 16.1528 10.2797 15.7872 10.0497L12.1319 7.88798C11.812 7.70401 11.4008 7.70401 11.0353 7.88798L7.28854 10.0957C6.923 10.2797 6.74023 10.6476 6.74023 11.0156V15.339C6.74023 15.707 6.923 16.0749 7.28854 16.3049L10.9896 18.4666C11.3094 18.6506 11.7207 18.6506 12.0862 18.4666L14.5992 16.9948L16.3355 15.9829L18.8486 14.5111C19.1684 14.3272 19.5797 14.3272 19.9452 14.5111L21.9099 15.661C22.2298 15.845 22.4583 16.2129 22.4583 16.6269V18.9266C22.4583 19.2945 22.2755 19.6625 21.9099 19.8924L19.9909 21.0423C19.671 21.2263 19.2598 21.2263 18.8943 21.0423L16.9295 19.8924C16.6097 19.7085 16.3812 19.3405 16.3812 18.9266V17.4547L14.6449 18.4666V19.9844C14.6449 20.3524 14.8277 20.7203 15.1932 20.9503L18.8943 23.112C19.2141 23.296 19.6254 23.296 19.9909 23.112L23.6919 20.9503C24.0118 20.7663 24.2402 20.3984 24.2402 19.9844V15.615C24.2402 15.247 24.0575 14.8791 23.6919 14.6491L19.9909 12.4874Z" fill="#8247E5"/>
</svg>
