<svg width="32" height="32" fill="none" viewBox="0 0 30 30" xmlns="http://www.w3.org/2000/svg">
  <circle cx="15" cy="15" r="15" fill="#FF007A" />
  <g clip-path="url(#prefix__clip0_2439_89377)" fill="#fff">
    <path
      d="M13.274 10.096c-.2-.028-.21-.037-.114-.046.18-.028.599.009.894.074.684.158 1.302.566 1.958 1.282l.171.195.247-.038c1.056-.167 2.14-.037 3.043.372.247.111.637.334.684.39.019.019.048.14.067.26.066.437.038.762-.105 1.012-.076.14-.076.177-.029.298.038.093.153.158.257.158.228 0 .466-.353.58-.846l.048-.195.085.093c.485.53.865 1.263.922 1.784l.02.139-.086-.12a1.586 1.586 0 00-.457-.475c-.323-.213-.665-.278-1.568-.325-.818-.046-1.284-.111-1.74-.26-.78-.25-1.179-.576-2.1-1.774-.41-.53-.666-.817-.923-1.059-.561-.529-1.122-.808-1.854-.919z" />
    <path
      d="M20.356 11.275c.02-.352.067-.585.171-.798a.638.638 0 01.086-.158c.01 0-.01.065-.038.14-.076.204-.086.491-.038.816.066.418.095.474.551.93.21.213.457.482.552.594l.161.204-.161-.149c-.2-.185-.656-.538-.76-.585-.067-.037-.077-.037-.124.01-.038.037-.048.092-.048.362-.01.418-.067.678-.21.947-.075.14-.085.112-.018-.046.047-.121.057-.177.057-.576 0-.808-.095-1.003-.675-1.328a7.151 7.151 0 00-.532-.27 2.12 2.12 0 01-.257-.12c.019-.019.58.139.798.232.333.13.39.14.428.13.029-.028.048-.102.057-.335zM13.664 12.66c-.4-.54-.656-1.375-.6-1.997l.02-.196.095.02c.17.027.466.138.608.222.38.223.551.53.713 1.291.048.223.114.483.143.567.047.139.228.464.38.668.104.149.038.223-.2.205-.36-.037-.846-.363-1.16-.78zM19.872 16.7c-1.882-.743-2.548-1.384-2.548-2.47 0-.159.01-.289.01-.289.01 0 .076.056.161.12.38.298.808.428 1.997.595.694.102 1.093.177 1.454.297 1.15.372 1.864 1.134 2.035 2.165.047.297.019.863-.057 1.16-.067.233-.257.66-.305.67-.009 0-.028-.047-.028-.121-.019-.39-.219-.762-.551-1.05-.4-.334-.913-.585-2.168-1.077zM18.541 17.006a2.159 2.159 0 00-.095-.39l-.047-.14.085.103c.124.14.219.306.304.539.067.176.067.232.067.52 0 .278-.01.343-.067.501-.095.251-.209.428-.399.623-.342.343-.789.529-1.426.613-.114.009-.437.037-.722.055-.713.038-1.189.112-1.617.26-.057.019-.114.038-.123.028-.02-.018.276-.186.513-.297.333-.158.675-.241 1.426-.371.371-.056.751-.13.846-.168.942-.288 1.407-1.003 1.255-1.876z" />
    <path
      d="M19.407 18.502c-.247-.53-.304-1.031-.171-1.505.019-.046.038-.093.057-.093.019 0 .076.028.133.065.114.074.352.204.96.53.77.408 1.208.724 1.512 1.086.266.316.428.678.504 1.124.047.25.019.855-.048 1.105-.209.79-.684 1.421-1.378 1.784-.105.055-.19.092-.2.092-.01 0 .029-.092.086-.204.228-.474.256-.929.085-1.44-.104-.315-.323-.696-.76-1.337-.523-.743-.647-.938-.78-1.207zM12.325 21.344c.703-.576 1.568-.985 2.367-1.115.342-.056.912-.037 1.226.047.504.13.96.408 1.198.752.228.334.333.622.437 1.263.038.25.086.51.095.567.076.334.229.594.419.733.294.214.808.223 1.312.037.085-.027.161-.055.161-.046.02.019-.237.186-.409.27-.237.12-.427.157-.684.157-.456 0-.846-.232-1.16-.696a5.186 5.186 0 01-.313-.613c-.333-.753-.504-.976-.894-1.226-.342-.214-.78-.26-1.112-.102-.438.204-.552.752-.248 1.086a.98.98 0 00.542.279.575.575 0 00.656-.567c0-.223-.085-.353-.313-.455-.305-.13-.638.019-.628.307 0 .12.057.195.18.25.077.038.077.038.02.028-.276-.055-.343-.39-.124-.603.266-.26.827-.149 1.017.213.076.149.086.446.02.632-.162.409-.619.622-1.084.501-.314-.083-.447-.167-.828-.548-.665-.668-.922-.798-1.872-.938l-.181-.028.2-.185z" />
    <path fill-rule="evenodd" clip-rule="evenodd"
      d="M7.324 6.4c2.215 2.628 5.628 6.715 5.799 6.938.142.185.085.362-.152.492a1.481 1.481 0 01-.542.148.694.694 0 01-.457-.195c-.085-.083-.456-.613-1.292-1.885a120.44 120.44 0 00-1.189-1.793c-.038-.018-.038-.018 1.122 2.006.732 1.273.97 1.728.97 1.784 0 .12-.038.186-.19.353-.257.278-.371.594-.457 1.254-.095.733-.351 1.253-1.084 2.136-.427.52-.494.613-.598.826-.134.26-.172.41-.19.743-.02.353.018.576.123.91.095.298.2.493.456.874.219.334.352.585.352.678 0 .074.02.074.361 0 .818-.186 1.493-.502 1.864-.892.228-.241.285-.371.285-.706 0-.213-.01-.26-.067-.39-.095-.204-.275-.371-.665-.632-.514-.343-.732-.622-.79-.993-.047-.316.01-.53.295-1.115.295-.604.371-.854.419-1.467.028-.39.076-.548.19-.669.123-.13.228-.176.523-.214.485-.065.798-.185 1.046-.418a.865.865 0 00.323-.678l.01-.213-.124-.13C13.218 12.65 7.029 6 7 6c-.01 0 .143.176.324.4zm2.918 13.207a.378.378 0 00-.123-.511c-.162-.102-.41-.056-.41.084 0 .037.02.074.077.092.085.047.095.093.028.196-.066.102-.066.195.02.26.133.102.313.046.408-.121zM14.091 14.721c-.228.065-.446.307-.513.548-.038.149-.019.418.048.502.104.13.2.167.465.167.523 0 .97-.223 1.018-.492.047-.223-.152-.53-.428-.669a.988.988 0 00-.59-.056zm.609.465c.076-.112.047-.232-.095-.316-.257-.158-.647-.028-.647.214 0 .12.2.25.39.25.124 0 .295-.074.352-.148z" />
  </g>
  <defs>
    <clipPath id="prefix__clip0_2439_89377">
      <path fill="#fff" transform="translate(7 6)" d="M0 0h16v18H0z" />
    </clipPath>
  </defs>
</svg>
