<svg xmlns="http://www.w3.org/2000/svg" width="55" height="12" viewBox="0 0 55 12" fill="none">
  <g clip-path="url(#clip0_13107_8877)">
    <path d="M17.1077 11.2264V3.66372H18.2373L18.3362 4.27691H18.3956C18.7121 3.86152 19.2659 3.56482 20.0198 3.56482C21.4066 3.56482 22.534 4.69449 22.534 6.37581C22.534 8.05713 21.4241 9.1868 20.0176 9.1868C19.2659 9.1868 18.7494 8.87031 18.4725 8.51427H18.4132V11.2066H17.1055V11.2264H17.1077ZM21.2263 6.37581C21.2263 5.3868 20.5934 4.77141 19.8198 4.77141C19.0461 4.77141 18.4132 5.3846 18.4132 6.37581C18.4132 7.36702 19.0461 7.9802 19.8198 7.9802C20.5934 7.9802 21.2263 7.36702 21.2263 6.37581Z" fill="white"/>
    <path d="M23.1855 6.37581C23.1855 4.73185 24.3746 3.56482 25.9372 3.56482C27.5218 3.56482 28.6888 4.75383 28.6888 6.37581C28.6888 8.01977 27.4998 9.1868 25.9372 9.1868C24.3526 9.1868 23.1855 7.99998 23.1855 6.37581ZM27.3812 6.37581C27.3812 5.40658 26.7482 4.77141 25.935 4.77141C25.1438 4.77141 24.4888 5.40438 24.4888 6.37581C24.4888 7.34724 25.1416 7.9802 25.935 7.9802C26.7284 7.9802 27.3812 7.34724 27.3812 6.37581Z" fill="white"/>
    <path d="M29.6406 9.08789V1.58459H30.9483V9.08789H29.6406Z" fill="white"/>
    <path d="M35.8184 3.6637H37.2052L34.8492 10.2571C34.6118 10.9099 34.2954 11.2263 33.4426 11.2263H32.1767V10.0175H33.2448C33.4426 10.0175 33.5415 9.91864 33.6009 9.7604L33.7195 9.40436L31.502 3.6615H32.8888L34.2954 7.42414H34.5129L35.7811 3.6615H35.8184V3.6637Z" fill="white"/>
    <path d="M37.4607 9.36702H38.7882C38.8475 9.72306 39.2036 10.1978 40.0366 10.1978C40.8278 10.1978 41.3442 9.70328 41.3442 8.94944V8.19779H41.2849C40.9882 8.51427 40.4541 8.79119 39.7794 8.79119C38.3926 8.79119 37.3047 7.72306 37.3047 6.17801C37.3047 4.63295 38.3728 3.56482 39.7794 3.56482C40.4915 3.56482 41.0278 3.86152 41.364 4.25713H41.4234L41.5223 3.66372H42.6519V8.94944C42.6519 10.3956 41.6827 11.345 40.0388 11.345C38.1926 11.345 37.5003 10.1384 37.4607 9.36702ZM41.3223 6.17801C41.3223 5.32746 40.7289 4.73185 39.9552 4.73185C39.2036 4.73185 38.608 5.32526 38.608 6.17801C38.608 7.03075 39.2014 7.62416 39.9552 7.62416C40.7091 7.62416 41.3223 7.02856 41.3223 6.17801Z" fill="white"/>
    <path d="M43.541 6.37581C43.541 4.73185 44.73 3.56482 46.2927 3.56482C47.8773 3.56482 49.0443 4.75383 49.0443 6.37581C49.0443 8.01977 47.8553 9.1868 46.2927 9.1868C44.7081 9.1868 43.541 7.99998 43.541 6.37581ZM47.7388 6.37581C47.7388 5.40658 47.0861 4.77141 46.2927 4.77141C45.5015 4.77141 44.8465 5.40438 44.8465 6.37581C44.8465 7.34724 45.4993 7.9802 46.2927 7.9802C47.0839 7.9802 47.7388 7.34724 47.7388 6.37581Z" fill="white"/>
    <path d="M49.9551 9.0879V3.66372H51.0847L51.1836 4.17801H51.243C51.4606 3.94064 51.9946 3.56482 52.8078 3.56482C54.0562 3.56482 54.9463 4.45493 54.9463 5.84174V9.10768H53.6386V6.01976C53.6386 5.32746 53.1441 4.81097 52.4694 4.81097C51.7946 4.81097 51.2606 5.34504 51.2606 6.01976V9.10768H49.9551V9.0879Z" fill="white"/>
    <path d="M10.0593 8.45489L13.2659 6.59335C13.444 6.49445 13.5429 6.31643 13.5429 6.11862V2.39555C13.5429 2.19775 13.444 2.01972 13.2659 1.92082L10.0593 0.0592833C9.88132 -0.0396179 9.68352 -0.0396179 9.50549 0.0592833L6.2967 1.92082C6.11868 2.01972 6.01978 2.19775 6.01978 2.39555V9.02851L3.76264 10.3362L1.50549 9.02851V6.43511L3.76264 5.12742L5.24835 5.97796V4.23511L4.03956 3.5428C3.96044 3.50324 3.86154 3.46368 3.76264 3.46368C3.66374 3.46368 3.56484 3.48346 3.48571 3.5428L0.276923 5.40654C0.0989011 5.50544 0 5.68346 0 5.88126L0 9.60434C0 9.80214 0.0989011 9.98016 0.276923 10.0791L3.48352 11.9406C3.66154 12.0395 3.85934 12.0395 4.03736 11.9406L7.24396 10.0791C7.42198 9.98016 7.52088 9.80214 7.52088 9.60434V2.97137L7.56044 2.95159L9.78022 1.66368L12.0374 2.97137V5.56478L9.78022 6.87027L8.29451 6.01972V7.76258L9.5033 8.45489C9.68132 8.55379 9.87912 8.55379 10.0593 8.45489Z" fill="url(#paint0_linear_13107_8877)"/>
  </g>
  <defs>
    <linearGradient id="paint0_linear_13107_8877" x1="-0.0221905" y1="9.96994" x2="12.8874" y2="2.42614" gradientUnits="userSpaceOnUse">
      <stop stop-color="#A726C1"/>
      <stop offset="0.8784" stop-color="#803BDF"/>
      <stop offset="1" stop-color="#7B3FE4"/>
    </linearGradient>
    <clipPath id="clip0_13107_8877">
      <rect width="54.9451" height="12" fill="white"/>
    </clipPath>
  </defs>
</svg>
