<svg width="24" height="24" viewBox="0 0 24 24" fill="none" xmlns="http://www.w3.org/2000/svg">
<g id="wallet_2672229 1">
<g id="_x31_4-wallet">
<g id="Group">
<path id="Vector" d="M22.5 8.99995V19.35C22.5 20.625 21.45 21.675 20.175 21.675H6.675C5.475 21.675 4.425 21.3 3.525 20.625C2.25 19.725 1.5 18.225 1.5 16.575V7.42495C1.5 3.89995 4.575 2.32495 6.6 2.32495H17.1C18.375 2.32495 19.425 3.37495 19.425 4.64995V8.17495H21.675C22.35 8.17495 22.5 8.69995 22.5 8.99995Z" fill="#81B9FC"/>
<path id="Vector_2" d="M17.25 16.4249C18.4926 16.4249 19.5 15.4176 19.5 14.1749C19.5 12.9323 18.4926 11.9249 17.25 11.9249C16.0074 11.9249 15 12.9323 15 14.1749C15 15.4176 16.0074 16.4249 17.25 16.4249Z" fill="#F1F2F2"/>
<path id="Vector_3" d="M17.25 14.9249C17.6642 14.9249 18 14.5891 18 14.1749C18 13.7607 17.6642 13.4249 17.25 13.4249C16.8358 13.4249 16.5 13.7607 16.5 14.1749C16.5 14.5891 16.8358 14.9249 17.25 14.9249Z" fill="#037EF9"/>
<path id="Vector_4" d="M19.5 4.64997V8.17497H5.25C3.6 8.17497 2.25 6.82497 2.25 5.09997C2.25 3.82497 4.65 2.24997 6.6 2.32497H17.1C18.45 2.32497 19.5 3.37497 19.5 4.64997Z" fill="#037EF9"/>
<path id="Vector_5" d="M22.5001 14.4V19.35C22.5001 20.625 21.4501 21.675 20.1751 21.675H6.67508C5.47508 21.675 19.7251 21 22.5001 14.4Z" fill="#65A2FC"/>
</g>
</g>
</g>
</svg>
