<svg xmlns="http://www.w3.org/2000/svg" width="16" height="16" viewBox="0 0 16 16" fill="none">
  <g clip-path="url(#clip0_77_875)">
    <path fill-rule="evenodd" clip-rule="evenodd" d="M4.35373 2.66666H11.6584C11.9375 2.66666 12.1702 2.71324 12.4493 2.85298C12.775 2.99272 12.9611 3.22562 13.0542 3.41193C13.0542 3.41193 13.0542 3.45851 13.1007 3.45851C13.2403 3.69141 13.3333 3.97089 13.3333 4.29694C13.3333 4.57642 13.2868 4.85589 13.1007 5.13537L8.49459 13.0539C8.40153 13.2402 8.21543 13.3333 7.98279 13.3333C7.79669 13.3333 7.61058 13.2402 7.471 13.0539L2.95793 5.13537C2.86488 4.94905 2.67877 4.71615 2.67877 4.34352C2.63225 4.01746 2.7253 3.73799 2.86488 3.45851C3.00446 3.17904 3.23709 2.94614 3.56278 2.85298C3.84194 2.66666 4.16762 2.66666 4.35373 2.66666ZM7.42448 3.78457H4.35373C4.16762 3.78457 4.07457 3.78457 4.02804 3.83115C3.93499 3.87773 3.88846 3.92431 3.84194 4.01746C3.79541 4.06404 3.79541 4.1572 3.79541 4.25036C3.79541 4.29694 3.84194 4.34352 3.93499 4.52984L7.42448 10.5851V3.78457ZM8.54111 3.78457V10.6317L12.0771 4.52984C12.1236 4.43668 12.1237 4.34352 12.1237 4.25036C12.1237 4.1572 12.1236 4.06404 12.0771 4.01746C12.0306 3.97089 12.0306 3.92431 11.9841 3.92431L11.9375 3.87773C11.8445 3.83115 11.7514 3.83115 11.6119 3.83115H8.54111V3.78457Z" fill="white"/>
  </g>
  <defs>
    <clipPath id="clip0_77_875">
      <rect width="16" height="16" fill="white"/>
    </clipPath>
  </defs>
</svg>
