<svg width="21" height="20" viewBox="0 0 21 20" fill="none" xmlns="http://www.w3.org/2000/svg">
<g clip-path="url(#clip0_5942_6983)">
<path d="M11.9732 8.5267C12.7867 9.34029 12.7867 10.6594 11.9732 11.473C11.1596 12.2866 9.84047 12.2866 9.02688 11.473C8.21329 10.6594 8.21329 9.34029 9.02688 8.5267C9.84047 7.71311 11.1596 7.71311 11.9732 8.5267Z" stroke="white" stroke-linecap="round" stroke-linejoin="round"/>
<path d="M12.8742 3.43317L13.36 3.59484C13.805 3.74317 14.1058 4.15984 14.1058 4.62901V5.32651C14.1058 5.91984 14.5792 6.40401 15.1725 6.41651L15.8708 6.43151C16.275 6.43984 16.6417 6.67234 16.8225 7.03401L17.0517 7.49234C17.2617 7.91234 17.1792 8.41901 16.8475 8.75067L16.3542 9.24401C15.935 9.66317 15.9275 10.3407 16.3375 10.769L16.8208 11.274C17.1008 11.5665 17.1958 11.989 17.0675 12.3732L16.9058 12.859C16.7575 13.304 16.3408 13.6048 15.8717 13.6048H15.1742C14.5808 13.6048 14.0967 14.0782 14.0842 14.6715L14.0692 15.3698C14.0608 15.774 13.8283 16.1407 13.4667 16.3215L13.0083 16.5507C12.5883 16.7607 12.0817 16.6782 11.75 16.3465L11.2567 15.8532C10.8375 15.434 10.16 15.4265 9.73167 15.8365L9.22667 16.3198C8.93417 16.5998 8.51167 16.6948 8.1275 16.5665L7.64167 16.4048C7.19667 16.2565 6.89584 15.8398 6.89584 15.3707V14.6732C6.89584 14.0798 6.4225 13.5957 5.82917 13.5832L5.13084 13.5682C4.72667 13.5598 4.36 13.3273 4.17917 12.9657L3.95 12.5073C3.74 12.0873 3.82251 11.5807 4.15417 11.249L4.64751 10.7557C5.06667 10.3365 5.07417 9.65901 4.66417 9.23067L4.18084 8.72567C3.9 8.43234 3.805 8.00901 3.93334 7.62567L4.095 7.13984C4.24334 6.69484 4.66 6.39401 5.12917 6.39401H5.82667C6.42001 6.39401 6.90417 5.92067 6.91667 5.32734L6.93167 4.62901C6.94167 4.22484 7.17334 3.85817 7.535 3.67734L7.99334 3.44817C8.41334 3.23817 8.92 3.32067 9.25167 3.65234L9.745 4.14567C10.1642 4.56484 10.8417 4.57234 11.27 4.16234L11.775 3.67901C12.0675 3.39984 12.4908 3.30484 12.8742 3.43317Z" stroke="white" stroke-linecap="round" stroke-linejoin="round"/>
</g>
<defs>
<clipPath id="clip0_5942_6983">
<rect width="20" height="20" fill="white" transform="translate(0.5)"/>
</clipPath>
</defs>
</svg>
