<svg width="21" height="20" viewBox="0 0 21 20" fill="none" xmlns="http://www.w3.org/2000/svg">
<path d="M11.6 6.5625V6.7125H11.75H13C13.6075 6.7125 14.1 7.205 14.1 7.8125V12.1875C14.1 12.4498 13.8873 12.6625 13.625 12.6625H6.125C5.86266 12.6625 5.65 12.4498 5.65 12.1875V9.6875C5.65 9.08 6.1425 8.5875 6.75 8.5875H8H8.15V8.4375V5.9375C8.15 5.33 8.6425 4.8375 9.25 4.8375H10.5C11.1075 4.8375 11.6 5.33 11.6 5.9375V6.5625ZM11.75 7.6625H11.6V7.8125V11.5625V11.7125H11.75H13H13.15V11.5625V7.8125V7.6625H13H11.75ZM10.65 5.9375V5.7875H10.5H9.25H9.1V5.9375V11.5625V11.7125H9.25H10.5H10.65V11.5625V5.9375ZM8.15 9.6875V9.5375H8H6.75H6.6V9.6875V11.5625V11.7125H6.75H8H8.15V11.5625V9.6875Z" fill="white" stroke="#00A3FF" stroke-width="0.3"/>
<path fill-rule="evenodd" clip-rule="evenodd" d="M16.1373 3.20069C12.703 -0.233563 7.13497 -0.233563 3.70069 3.20069C0.266437 6.63497 0.266437 12.203 3.70069 15.6373C6.98638 18.9229 12.2252 19.0651 15.6799 16.0638L18.8081 19.1919C19.0521 19.436 19.4479 19.436 19.6919 19.1919C19.936 18.9479 19.936 18.5521 19.6919 18.3081L16.5638 15.1799C19.5651 11.7252 19.4229 6.48638 16.1373 3.20069ZM4.5846 4.0846C7.53069 1.13847 12.3073 1.13847 15.2534 4.0846C18.1995 7.03069 18.1995 11.8073 15.2534 14.7534C12.3073 17.6995 7.53069 17.6995 4.5846 14.7534C1.63847 11.8073 1.63847 7.03069 4.5846 4.0846Z" fill="white"/>
</svg>
