<svg width="80" height="80" viewBox="0 0 80 80" fill="none" xmlns="http://www.w3.org/2000/svg">
<g clip-path="url(#clip0_5663_114)">
<path d="M15.162 27.3649C16.093 26.1679 16.758 24.5719 16.5585 22.9759C15.162 23.0424 13.4995 23.9069 12.502 25.0374C11.6375 26.0349 10.8395 27.6974 11.039 29.2269C12.635 29.4264 14.1645 28.5619 15.162 27.3649ZM16.5585 29.6259C14.2975 29.4929 12.369 30.8894 11.305 30.8894C10.2409 30.8894 8.57844 29.6924 6.78293 29.6924C4.45541 29.7589 2.3274 31.0224 1.13039 33.1505C-1.26362 37.34 0.465387 43.5245 2.8594 46.916C3.98991 48.5786 5.38642 50.4406 7.18193 50.3741C8.91094 50.3076 9.57594 49.2436 11.6375 49.2436C13.699 49.2436 14.2975 50.3741 16.1595 50.3076C18.0215 50.2411 19.2185 48.6451 20.349 46.916C21.679 44.9875 22.211 43.1255 22.211 43.059C22.1445 42.9925 18.5535 41.6625 18.5535 37.5395C18.487 34.0815 21.3465 32.419 21.4795 32.3525C19.95 29.9584 17.423 29.6924 16.5585 29.6259Z" fill="white"/>
<path d="M36.1098 24.9044C41.0308 24.9044 44.4224 28.2959 44.4224 33.1505C44.4224 38.0715 40.9643 41.463 35.9768 41.463H30.5903V50.0416H26.6667V24.9044H36.1098ZM30.5903 38.2045H35.0458C38.4373 38.2045 40.3658 36.3425 40.3658 33.217C40.3658 30.025 38.4373 28.2294 35.0458 28.2294H30.5238V38.2045H30.5903ZM45.4199 44.921C45.4199 41.729 47.8804 39.734 52.2694 39.468L57.3234 39.202V37.8055C57.3234 35.744 55.9269 34.547 53.6659 34.547C51.4714 34.547 50.1414 35.611 49.8089 37.207H46.2179C46.4174 33.882 49.2769 31.4215 53.7989 31.4215C58.2544 31.4215 61.114 33.749 61.114 37.473V50.1081H57.5229V47.1156H57.4564C56.3924 49.1771 54.0649 50.4406 51.6709 50.4406C47.9469 50.4406 45.4199 48.1796 45.4199 44.921ZM57.3234 43.2585V41.7955L52.8014 42.0615C50.5404 42.1945 49.2769 43.192 49.2769 44.788C49.2769 46.3841 50.6069 47.4481 52.6019 47.4481C55.2619 47.4481 57.3234 45.6525 57.3234 43.2585ZM64.439 56.8911V53.8321C64.705 53.8986 65.37 53.8986 65.636 53.8986C67.365 53.8986 68.296 53.1671 68.8945 51.3051C68.8945 51.2386 69.227 50.1746 69.227 50.1746L62.577 31.8205H66.6335L71.2885 46.7831H71.355L76.0101 31.8205H80.0001L73.1505 51.1721C71.5545 55.6276 69.759 57.0241 65.9685 57.0241C65.7025 56.9576 64.7715 56.9576 64.439 56.8911Z" fill="white"/>
</g>
<defs>
<clipPath id="clip0_5663_114">
<rect width="80" height="80" fill="white"/>
</clipPath>
</defs>
</svg>
