<svg width="120" height="36" viewBox="0 0 120 36" fill="none" xmlns="http://www.w3.org/2000/svg">
<path fill-rule="evenodd" clip-rule="evenodd" d="M36.7104 7.50241C37.7267 7.50241 38.6038 7.68227 39.3412 8.03675C40.0822 8.39397 40.6945 8.8755 41.1846 9.48108C41.6684 10.0897 42.0287 10.8014 42.2612 11.6162C42.4922 12.434 42.6081 13.3126 42.6081 14.2538C42.6081 15.6981 42.3411 17.0642 41.8009 18.3511C41.2614 19.6397 40.5285 20.7575 39.5966 21.7113C38.6656 22.6639 37.5662 23.4145 36.2984 23.9687C35.0322 24.5248 33.6565 24.8015 32.1789 24.8015C31.9876 24.8015 31.6517 24.7968 31.1773 24.7861C30.7027 24.7766 30.157 24.7285 29.5463 24.6463C28.9315 24.5619 28.2817 24.4363 27.5948 24.2682C26.9089 24.103 26.2573 23.8711 25.6436 23.5774L31.1295 0.754302L36.043 0L34.0793 8.09877C34.4998 7.91119 34.9234 7.76522 35.3462 7.65985C35.7714 7.55746 36.2248 7.50241 36.7104 7.50241ZM32.5891 20.9428C33.3291 20.9428 34.026 20.763 34.6813 20.4087C35.3384 20.0552 35.9054 19.5767 36.3797 18.9806C36.8543 18.383 37.2311 17.7084 37.5051 16.9548C37.7792 16.202 37.9177 15.4166 37.9177 14.5988C37.9177 13.5946 37.7487 12.8109 37.4103 12.2449C37.0721 11.6805 36.4471 11.3975 35.5389 11.3975C35.2413 11.3975 34.8575 11.4533 34.3822 11.5534C33.9053 11.661 33.4785 11.882 33.0958 12.2148L31.0041 20.8165C31.1303 20.8374 31.2422 20.8591 31.3371 20.8786C31.4302 20.8995 31.5328 20.9149 31.6354 20.9259C31.7441 20.9383 31.868 20.9436 32.0174 20.9436C32.1671 20.9436 32.3566 20.9428 32.5891 20.9428Z" fill="white"/>
<path fill-rule="evenodd" clip-rule="evenodd" d="M47.7059 24.3636H43.0122L46.976 7.85071H51.7018L47.7059 24.3636ZM49.9893 5.84041C49.3338 5.84041 48.7402 5.6466 48.2133 5.26048C47.6817 4.87611 47.4186 4.28373 47.4186 3.48583C47.4186 3.04715 47.5084 2.63463 47.6872 2.24701C47.8679 1.8594 48.1052 1.52435 48.4021 1.24136C48.6987 0.960118 49.0416 0.735172 49.4316 0.56528C49.8239 0.398626 50.2414 0.315674 50.6862 0.315674C51.3408 0.315674 51.9321 0.508732 52.4605 0.895598C52.9874 1.28396 53.253 1.87634 53.253 2.6695C53.253 3.10993 53.1636 3.52394 52.9829 3.91156C52.8034 4.29917 52.5671 4.63248 52.2702 4.91696C51.9766 5.19845 51.6297 5.42265 51.2404 5.5908C50.8482 5.75969 50.4331 5.84041 49.9893 5.84041Z" fill="white"/>
<path fill-rule="evenodd" clip-rule="evenodd" d="M55.8135 3.73849L60.7295 2.98419L59.5222 7.85078H64.7866L63.8359 11.6798H58.6028L57.209 17.4564C57.0806 17.9379 57.0077 18.3876 56.9874 18.8046C56.9647 19.2248 57.018 19.5853 57.1446 19.8885C57.2708 20.1924 57.4978 20.4265 57.8268 20.5932C58.1542 20.7616 58.623 20.846 59.2371 20.846C59.743 20.846 60.2363 20.7987 60.7132 20.7033C61.1868 20.6111 61.6677 20.4808 62.154 20.3112L62.504 23.8921C61.8697 24.1223 61.183 24.3209 60.4428 24.4875C59.7021 24.6559 58.8243 24.7371 57.8102 24.7371C56.3524 24.7371 55.2217 24.5239 54.4167 24.0969C53.6124 23.6664 53.0439 23.0795 52.7032 22.3362C52.3673 21.5958 52.2179 20.7414 52.2602 19.7793C52.304 18.8148 52.4504 17.8007 52.7032 16.7332L55.8135 3.73849Z" fill="white"/>
<path fill-rule="evenodd" clip-rule="evenodd" d="M64.5798 17.7722C64.5798 16.3495 64.8124 15.0091 65.2775 13.7523C65.7411 12.4956 66.4097 11.397 67.2773 10.4534C68.1419 9.51446 69.1942 8.77112 70.433 8.22607C71.6663 7.68252 73.0469 7.40875 74.569 7.40875C75.5213 7.40875 76.3723 7.49718 77.121 7.67629C77.8728 7.85615 78.5531 8.08956 79.1679 8.38177L77.5493 12.0265C77.1266 11.8566 76.6872 11.7071 76.2339 11.5706C75.7796 11.4326 75.2251 11.3658 74.5698 11.3658C73.0038 11.3658 71.765 11.9002 70.8433 12.9654C69.9256 14.0321 69.4628 15.4672 69.4628 17.2682C69.4628 18.3357 69.6953 19.1978 70.1619 19.8585C70.6265 20.5181 71.4839 20.8462 72.7297 20.8462C73.3445 20.8462 73.9372 20.7826 74.5057 20.6586C75.0779 20.5328 75.5831 20.3756 76.0287 20.188L76.3786 23.9232C75.7851 24.1518 75.1305 24.3581 74.4123 24.538C73.6929 24.7126 72.8361 24.8018 71.8426 24.8018C70.5317 24.8018 69.4212 24.6124 68.5138 24.238C67.6054 23.8581 66.8545 23.3535 66.2632 22.7145C65.669 22.0743 65.2422 21.326 64.9783 20.4678C64.7135 19.6126 64.5798 18.7118 64.5798 17.7722Z" fill="white"/>
<path fill-rule="evenodd" clip-rule="evenodd" d="M85.4276 24.8032C84.3069 24.8032 83.3344 24.635 82.5091 24.3007C81.6861 23.9659 81.005 23.4968 80.4653 22.8883C79.9258 22.2827 79.5211 21.5647 79.2445 20.7382C78.9674 19.9127 78.835 18.9969 78.835 17.9945C78.835 16.7363 79.0395 15.4788 79.4512 14.2243C79.8615 12.9685 80.47 11.8395 81.2766 10.8356C82.0761 9.82998 83.0618 9.00817 84.2241 8.36697C85.3838 7.73124 86.7187 7.41113 88.2176 7.41113C89.317 7.41113 90.2855 7.58003 91.1218 7.91434C91.9542 8.24914 92.6403 8.72145 93.1827 9.32678C93.7192 9.93535 94.1272 10.6503 94.4013 11.4783C94.6776 12.3024 94.813 13.2204 94.813 14.2235C94.813 15.478 94.6118 16.7355 94.2125 17.9938C93.8125 19.245 93.2195 20.377 92.4365 21.3826C91.655 22.3866 90.6778 23.2076 89.504 23.8463C88.3303 24.4838 86.9701 24.8032 85.4276 24.8032ZM87.7728 11.3675C87.0767 11.3675 86.4619 11.5675 85.935 11.9628C85.4063 12.3622 84.9625 12.8644 84.6045 13.47C84.2428 14.0778 83.9743 14.7429 83.7933 15.4633C83.614 16.1865 83.5254 16.8695 83.5254 17.5192C83.5254 18.5667 83.6961 19.3823 84.0313 19.9699C84.372 20.5539 84.9828 20.8476 85.8714 20.8476C86.57 20.8476 87.1816 20.6493 87.7118 20.2499C88.2372 19.8536 88.681 19.3514 89.0422 18.7443C89.4014 18.1395 89.6725 17.4729 89.8532 16.751C90.031 16.03 90.1211 15.343 90.1211 14.6948C90.1211 13.6498 89.9511 12.8327 89.6129 12.2458C89.2747 11.6604 88.6607 11.3675 87.7728 11.3675Z" fill="white"/>
<path fill-rule="evenodd" clip-rule="evenodd" d="M99.9267 24.3636H95.23L99.1938 7.85071H103.922L99.9267 24.3636ZM102.207 5.84041C101.552 5.84041 100.959 5.6466 100.433 5.26048C99.9032 4.87611 99.6378 4.28373 99.6378 3.48583C99.6378 3.04715 99.7285 2.63463 99.9079 2.24701C100.087 1.8594 100.325 1.52435 100.622 1.24136C100.917 0.960118 101.263 0.735172 101.652 0.56528C102.042 0.398626 102.46 0.315674 102.904 0.315674C103.56 0.315674 104.153 0.508732 104.681 0.895598C105.209 1.28396 105.475 1.87634 105.475 2.6695C105.475 3.10993 105.381 3.52394 105.203 3.91156C105.025 4.29917 104.788 4.63248 104.492 4.91696C104.194 5.19845 103.853 5.42265 103.463 5.5908C103.07 5.75969 102.653 5.84041 102.207 5.84041Z" fill="white"/>
<path fill-rule="evenodd" clip-rule="evenodd" d="M107.301 8.60349C107.658 8.50036 108.055 8.3763 108.489 8.24153C108.923 8.10652 109.408 7.98097 109.95 7.86787C110.486 7.75154 111.091 7.65762 111.756 7.58339C112.422 7.5089 113.179 7.47253 114.022 7.47253C116.497 7.47253 118.204 8.18573 119.146 9.60914C120.086 11.0325 120.25 12.9801 119.638 15.4477L117.48 24.3636H112.756L114.848 15.6353C114.975 15.0903 115.076 14.5632 115.15 14.0485C115.225 13.5391 115.22 13.0894 115.133 12.7001C115.051 12.3157 114.854 12.0016 114.549 11.7575C114.239 11.5163 113.771 11.397 113.136 11.397C112.524 11.397 111.902 11.462 111.266 11.5876L108.189 24.3636H103.464L107.301 8.60349Z" fill="white"/>
<path fill-rule="evenodd" clip-rule="evenodd" d="M50.5952 34.2053L49.6742 35.8614H48.6782C49.3799 34.6084 50.0642 33.4547 50.7313 32.4005C51.3984 31.346 52.0578 30.3506 52.7094 29.4139H53.602C53.6959 29.8793 53.782 30.3498 53.8603 30.8234C53.9387 31.2979 54.0155 31.7957 54.0906 32.3168C54.1657 32.8377 54.2378 33.3905 54.3066 33.9734C54.3757 34.5565 54.4476 35.1853 54.5229 35.8621H53.602C53.5707 35.5831 53.5424 35.3024 53.5174 35.0201C53.4923 34.7379 53.4641 34.4666 53.4328 34.206L50.5952 34.2053ZM53.3482 33.4789C53.2981 32.9772 53.2403 32.4772 53.1744 31.981C53.1086 31.4848 53.032 30.9731 52.9441 30.446C52.7249 30.7624 52.4525 31.1709 52.1266 31.6694C51.8009 32.1693 51.4312 32.7719 51.018 33.4789H53.3482Z" fill="white"/>
<path fill-rule="evenodd" clip-rule="evenodd" d="M57.8532 36C57.446 36 57.0873 35.941 56.7774 35.8231C56.4672 35.7053 56.2089 35.5379 56.0021 35.3209C55.7954 35.1045 55.6402 34.8416 55.537 34.5347C55.4337 34.2276 55.3818 33.8818 55.3818 33.4974C55.3818 32.9392 55.4712 32.4059 55.6497 31.8972C55.8282 31.3892 56.082 30.9396 56.4109 30.549C56.7396 30.1581 57.1358 29.8465 57.5994 29.6131C58.063 29.3807 58.5792 29.2643 59.1499 29.2643C59.6385 29.2643 60.0285 29.3139 60.3199 29.4131C60.611 29.5125 60.8193 29.6054 60.9447 29.6923L60.5687 30.4364C60.424 30.3435 60.229 30.2551 59.9814 30.1714C59.7341 30.0884 59.4413 30.0458 59.1028 30.0458C58.6708 30.0458 58.2823 30.1467 57.9378 30.349C57.5931 30.5505 57.3018 30.8111 57.064 31.1304C56.8259 31.4498 56.6442 31.8095 56.5188 32.2096C56.3936 32.6096 56.331 33.005 56.331 33.3958C56.331 34.6052 56.8602 35.2101 57.9191 35.2101C58.1443 35.2101 58.3466 35.1936 58.5251 35.1627C58.7036 35.1323 58.8618 35.096 58.9994 35.0556C59.1374 35.0153 59.2595 34.9712 59.3659 34.9209C59.4725 34.8713 59.5664 34.8277 59.648 34.7906L59.7607 35.572C59.6856 35.6154 59.5869 35.662 59.4648 35.7115C59.3426 35.7611 59.1999 35.8077 59.0372 35.852C58.8743 35.8954 58.6925 35.931 58.492 35.9589C58.2918 35.9868 58.0788 36 57.8532 36Z" fill="white"/>
<path fill-rule="evenodd" clip-rule="evenodd" d="M63.1325 36C62.7255 36 62.3668 35.941 62.0567 35.8231C61.7468 35.7053 61.4882 35.5379 61.2814 35.3209C61.0749 35.1045 60.9197 34.8416 60.8163 34.5347C60.7129 34.2276 60.6614 33.8818 60.6614 33.4974C60.6614 32.9392 60.7505 32.4059 60.9292 31.8972C61.1077 31.3892 61.3613 30.9396 61.6902 30.549C62.0191 30.1581 62.4154 29.8465 62.8789 29.6131C63.3425 29.3807 63.8584 29.2643 64.4294 29.2643C64.918 29.2643 65.308 29.3139 65.5992 29.4131C65.8905 29.5125 66.0988 29.6054 66.2242 29.6923L65.8482 30.4364C65.7033 30.3435 65.5083 30.2551 65.261 30.1714C65.0134 30.0884 64.7205 30.0458 64.3824 30.0458C63.9501 30.0458 63.5618 30.1467 63.2171 30.349C62.8727 30.5505 62.5813 30.8111 62.3433 31.1304C62.1052 31.4498 61.9235 31.8095 61.7983 32.2096C61.6729 32.6096 61.6103 33.005 61.6103 33.3958C61.6103 34.6052 62.1398 35.2101 63.1984 35.2101C63.4239 35.2101 63.6259 35.1936 63.8044 35.1627C63.9831 35.1323 64.1413 35.096 64.279 35.0556C64.4169 35.0153 64.5391 34.9712 64.6454 34.9209C64.7521 34.8713 64.8459 34.8277 64.9273 34.7906L65.0402 35.572C64.9649 35.6154 64.8662 35.662 64.7441 35.7115C64.6219 35.7611 64.4795 35.8077 64.3165 35.852C64.1538 35.8954 63.9721 35.931 63.7716 35.9589C63.5711 35.9868 63.3581 36 63.1325 36Z" fill="white"/>
<path fill-rule="evenodd" clip-rule="evenodd" d="M65.6558 35.8606L67.2155 29.4134H71.0586L70.8802 30.1669H67.9389L67.4693 32.1115H70.0814L69.9029 32.8464H67.3001L66.7456 35.107H69.9029L69.7244 35.8606H65.6558Z" fill="white"/>
<path fill-rule="evenodd" clip-rule="evenodd" d="M73.7788 29.3478C74.537 29.3478 75.1085 29.4906 75.4937 29.7758C75.8789 30.0613 76.0717 30.4768 76.0717 31.0226C76.0717 31.4443 75.9918 31.8095 75.8321 32.1157C75.6722 32.4228 75.4451 32.6754 75.1508 32.8747C74.8564 33.0733 74.5024 33.2197 74.0889 33.3159C73.6754 33.412 73.2151 33.4609 72.7077 33.4609H72.0593L71.4766 35.861H70.5652L72.1064 29.4976C72.3695 29.4355 72.6481 29.3952 72.9425 29.3767C73.2371 29.3573 73.5157 29.3478 73.7788 29.3478ZM73.6661 30.1109C73.2213 30.1109 72.952 30.1233 72.8581 30.148L72.2378 32.7066H72.8298C73.0929 32.7066 73.3622 32.6839 73.6378 32.6368C73.9134 32.5902 74.161 32.508 74.3803 32.391C74.5996 32.2731 74.7795 32.1102 74.9205 31.9017C75.0614 31.6939 75.132 31.4264 75.132 31.0978C75.132 30.7443 75.0003 30.4915 74.7372 30.3388C74.4742 30.1868 74.1172 30.1109 73.6661 30.1109Z" fill="white"/>
<path fill-rule="evenodd" clip-rule="evenodd" d="M81.6304 29.4134L81.4517 30.1669H79.488L78.1067 35.8606H77.1953L78.5765 30.1669H76.6125L76.791 29.4134H81.6304Z" fill="white"/>
<path fill-rule="evenodd" clip-rule="evenodd" d="M80.7849 35.8606L82.3446 29.4134H86.1878L86.0093 30.1669H83.0683L82.5985 32.1115H85.2105L85.0321 32.8464H82.4293L81.8748 35.107H85.0321L84.8536 35.8606H80.7849Z" fill="white"/>
<path fill-rule="evenodd" clip-rule="evenodd" d="M88.894 29.3478C89.8588 29.3478 90.5792 29.5728 91.0553 30.0224C91.5314 30.4721 91.7695 31.0784 91.7695 31.8412C91.7695 32.3748 91.6849 32.8879 91.5156 33.3802C91.3467 33.8741 91.0833 34.3091 90.7264 34.6882C90.3694 35.0656 89.9136 35.3673 89.3591 35.5905C88.8047 35.814 88.1423 35.9256 87.3719 35.9256C87.1088 35.9256 86.8237 35.9131 86.5168 35.8882C86.2099 35.8635 85.9403 35.8199 85.7085 35.7582L87.2214 29.4968C87.4845 29.4348 87.7634 29.3944 88.0577 29.376C88.3521 29.3573 88.631 29.3478 88.894 29.3478ZM88.819 30.1109C88.3491 30.1109 88.0673 30.1233 87.9731 30.148L86.7703 35.1162C86.8207 35.1284 86.905 35.1394 87.0242 35.1486C87.1431 35.1581 87.3373 35.1625 87.6067 35.1625C88.1015 35.1625 88.5479 35.0813 88.9456 34.9169C89.3436 34.7525 89.6803 34.5231 89.9559 34.2276C90.2315 33.9329 90.4445 33.5834 90.5947 33.1771C90.7452 32.7708 90.8202 32.3259 90.8202 31.8422C90.8202 31.2964 90.6605 30.8714 90.3411 30.5667C90.0217 30.2636 89.5143 30.1109 88.819 30.1109Z" fill="white"/>
<path fill-rule="evenodd" clip-rule="evenodd" d="M98.7886 35.8606H97.8772L98.6006 32.865H95.5843L94.8609 35.8606H93.9495L95.5092 29.4134H96.4206L95.763 32.1115H98.7801L99.4377 29.4134H100.349L98.7886 35.8606Z" fill="white"/>
<path fill-rule="evenodd" clip-rule="evenodd" d="M100.226 35.8606L101.786 29.4134H105.629L105.45 30.1669H102.509L102.039 32.1115H104.651L104.472 32.8464H101.869L101.316 35.107H104.472L104.293 35.8606H100.226Z" fill="white"/>
<path fill-rule="evenodd" clip-rule="evenodd" d="M108.35 29.3478C109.045 29.3478 109.596 29.4876 110.003 29.7666C110.41 30.0456 110.613 30.4551 110.613 30.994C110.613 31.5397 110.453 31.9979 110.13 32.367C109.807 32.736 109.355 33.001 108.772 33.1617C108.847 33.2927 108.935 33.4586 109.035 33.6602C109.136 33.8617 109.239 34.0849 109.346 34.33C109.451 34.5741 109.555 34.8292 109.656 35.092C109.756 35.3563 109.843 35.6114 109.919 35.8595H108.988C108.902 35.6239 108.81 35.3852 108.716 35.1434C108.623 34.9012 108.527 34.6688 108.43 34.4454C108.332 34.2222 108.236 34.0129 108.138 33.8176C108.042 33.622 107.952 33.4492 107.87 33.3012C107.789 33.3074 107.708 33.3119 107.626 33.3151C107.545 33.3181 107.464 33.3199 107.382 33.3199H106.658L106.047 35.8595H105.136L106.678 29.4961C106.941 29.434 107.219 29.3937 107.514 29.375C107.808 29.3573 108.086 29.3478 108.35 29.3478ZM108.237 30.1109C107.792 30.1109 107.523 30.1233 107.428 30.148L106.836 32.5863H107.391C107.648 32.5863 107.911 32.5678 108.18 32.5305C108.45 32.4933 108.696 32.4203 108.917 32.312C109.14 32.2034 109.321 32.0514 109.462 31.8561C109.603 31.6606 109.675 31.4017 109.675 31.0791C109.675 30.7319 109.541 30.4838 109.275 30.3348C109.009 30.1853 108.662 30.1109 108.237 30.1109Z" fill="white"/>
<path fill-rule="evenodd" clip-rule="evenodd" d="M110.683 35.8606L112.243 29.4134H116.086L115.907 30.1669H112.966L112.496 32.1115H115.108L114.929 32.8464H112.326L111.772 35.107H114.929L114.75 35.8606H110.683Z" fill="white"/>
<path fill-rule="evenodd" clip-rule="evenodd" d="M12.5242 24.802C19.441 24.802 25.0481 19.2504 25.0481 12.4021C25.0481 5.55389 19.441 0.0022583 12.5242 0.0022583C5.60721 0.0022583 0 5.55389 0 12.4021C0 19.2504 5.60721 24.802 12.5242 24.802ZM18.0462 10.6345C18.295 8.98388 17.0259 8.0968 15.2905 7.50466L15.8537 5.26792L14.4794 4.92838L13.9312 7.10609C13.5703 7.01691 13.199 6.93246 12.8296 6.84951L13.3815 4.65785L12.0081 4.31807L11.4443 6.55407C11.1451 6.48656 10.8515 6.42005 10.5664 6.3493L10.568 6.34232L8.67226 5.87425L8.30657 7.3278C8.30657 7.3278 9.32612 7.55897 9.30497 7.57367C9.8617 7.71168 9.96273 8.07587 9.94551 8.36509L9.30419 10.912C9.34254 10.9212 9.39188 10.9344 9.44747 10.9578C9.40129 10.9454 9.35273 10.9336 9.30184 10.9212L8.40289 14.4907C8.33476 14.6573 8.16171 14.9087 7.77254 14.8133C7.78663 14.8327 6.77337 14.5666 6.77337 14.5666L6.09055 16.1251L7.87903 16.5662C8.21182 16.6484 8.53837 16.7351 8.85862 16.8166L8.29012 19.078L9.66282 19.4175L10.2266 17.1803C10.6017 17.2802 10.9658 17.3741 11.3221 17.4615L10.7606 19.6883L12.1349 20.0279L12.7042 17.7709C15.0486 18.2099 16.8111 18.033 17.5528 15.9335C18.1511 14.2426 17.523 13.268 16.2897 12.6323C17.1886 12.4276 17.8652 11.8431 18.0462 10.6345ZM14.9052 14.9954C14.4802 16.6856 11.6063 15.7716 10.6745 15.5419L11.4294 12.5464C12.3612 12.7766 15.3493 13.2324 14.9052 14.9954ZM15.3305 10.6103C14.943 12.1471 12.5507 11.3663 11.7747 11.1755L12.4591 8.45751C13.2351 8.64982 15.7338 9.00704 15.3305 10.6103Z" fill="white"/>
</svg>
