<svg width="84" height="32" viewBox="0 0 84 32" fill="none" xmlns="http://www.w3.org/2000/svg">
<g id="Frame 1171279319">
<path id="Vector" fill-rule="evenodd" clip-rule="evenodd" d="M39.7262 25.0136V15.6336L44.8511 15.6317C46.9639 15.6329 48.7397 14.9757 50.1782 13.6597C51.6321 12.4106 52.4448 10.6149 52.4034 8.74333C52.4322 6.88193 51.6209 5.09954 50.1782 3.85444C48.7523 2.53137 46.8346 1.80944 44.8511 1.84915H36.6245V25.0136H39.7262ZM39.7262 12.7872V4.70114L44.9282 4.69927C46.0876 4.66787 47.2052 5.11555 47.9974 5.92835C48.7943 6.67171 49.2439 7.69265 49.2439 8.75893C49.2439 9.8252 48.7943 10.8464 47.9974 11.5895C47.1954 12.3853 46.0813 12.82 44.9282 12.7872H39.7262Z" fill="white"/>
<path id="Vector_2" fill-rule="evenodd" clip-rule="evenodd" d="M64.9805 10.4103C63.6537 9.23465 61.8441 8.64703 59.5513 8.64703C56.6062 8.64703 54.3821 9.68191 52.8793 11.7521L55.6114 13.4026C56.6209 12.0003 57.992 11.2992 59.7247 11.2992C60.8294 11.2869 61.8985 11.6743 62.7187 12.3842C63.5365 13.0329 64.0069 14 64 15.0181V15.6982C62.808 15.0513 61.2911 14.7278 59.4492 14.7278C57.2915 14.7303 55.5665 15.2158 54.2744 16.1843C52.9822 17.1527 52.3361 18.457 52.3361 20.097C52.3079 21.5904 52.9833 23.0164 54.1742 23.9785C55.3993 25.0135 56.9221 25.5311 58.7421 25.5311C60.8743 25.5311 62.5824 24.6253 63.867 22.814H64.0019V25.0135H66.9688V15.2453C66.97 13.1974 66.3072 11.5857 64.9805 10.4103ZM56.5669 22.1025C55.9172 21.6532 55.534 20.9302 55.5382 20.1617C55.5382 19.2985 55.96 18.5797 56.8097 17.9882C57.651 17.4053 58.7016 17.114 59.9616 17.114C61.6918 17.114 63.0405 17.4835 64.0075 18.2229C64.0075 19.4724 63.4939 20.5609 62.4663 21.4889C61.5408 22.3768 60.2861 22.8766 58.9771 22.8787C58.1046 22.8943 57.253 22.6203 56.5669 22.1025Z" fill="white"/>
<path id="Vector_3" fill-rule="evenodd" clip-rule="evenodd" d="M83.9999 9.16455L73.6424 32H70.4403L74.284 24.0098L67.4734 9.16455H70.845L75.7674 20.5499H75.8348L80.6224 9.16455H83.9999Z" fill="white"/>
<path id="Vector_4" fill-rule="evenodd" clip-rule="evenodd" d="M27.1917 13.6117C27.193 12.7049 27.113 11.7996 26.9529 10.9059H13.8711V16.0312H21.3637C21.054 17.6853 20.0531 19.1462 18.5932 20.0753V23.4022H23.065C25.6833 21.0862 27.1917 17.6614 27.1917 13.6117Z" fill="white"/>
<path id="Vector_5" fill-rule="evenodd" clip-rule="evenodd" d="M13.871 26.6162C17.6145 26.6162 20.7664 25.4368 23.0649 23.4038L18.5931 20.0769C17.3486 20.8864 15.7457 21.3484 13.871 21.3484C10.2529 21.3484 7.18181 19.0086 6.08371 15.8553H1.47705V19.2839C3.83165 23.7789 8.62725 26.6158 13.871 26.6162Z" fill="white"/>
<path id="Vector_6" fill-rule="evenodd" clip-rule="evenodd" d="M6.08374 15.8554C5.50308 14.2032 5.50308 12.4137 6.08374 10.7615V7.33289H1.47708C-0.492359 11.0925 -0.492359 15.5244 1.47708 19.284L6.08374 15.8554Z" fill="white"/>
<path id="Vector_7" fill-rule="evenodd" clip-rule="evenodd" d="M13.871 5.26861C15.8492 5.23742 17.7606 5.95458 19.1924 7.26476L23.1516 3.46647C20.641 1.20438 17.315 -0.0375997 13.871 0.000867618C8.62725 0.00107555 3.83165 2.8381 1.47705 7.33296L6.08371 10.7615C7.18181 7.60847 10.2529 5.26861 13.871 5.26861Z" fill="white"/>
</g>
</svg>
