<svg width="104" height="28" viewBox="0 0 104 28" fill="none" xmlns="http://www.w3.org/2000/svg">
<path d="M17.6041 1.48347C16.3006 0.587335 14.5996 0.138184 12.5011 0.138184H4.37694C3.73363 0.138184 3.37822 0.459915 3.31071 1.1026L0.0103592 21.8195C-0.0239402 22.0229 0.0269657 22.209 0.162611 22.3782C0.297481 22.5477 0.467116 22.6319 0.670274 22.6319H4.52919C5.20602 22.6319 5.57804 22.311 5.64633 21.6674L6.56015 16.0823C6.59352 15.8116 6.71256 15.5915 6.91572 15.4221C7.11872 15.2529 7.37263 15.1422 7.67729 15.0915C7.98195 15.0412 8.26923 15.0159 8.54052 15.0159C8.81103 15.0159 9.13245 15.033 9.5054 15.0667C9.87742 15.1005 10.1146 15.1169 10.2162 15.1169C13.1272 15.1169 15.412 14.2967 17.071 12.6545C18.7292 11.013 19.5592 8.73663 19.5592 5.82506C19.5592 3.82809 18.907 2.38099 17.6041 1.48347ZM13.4152 7.70392C13.2454 8.88888 12.8059 9.66706 12.0951 10.0395C11.3841 10.4125 10.3686 10.5978 9.04865 10.5978L7.37294 10.6487L8.23632 5.21558C8.30368 4.84357 8.5236 4.65733 8.89624 4.65733H9.86128C11.2146 4.65733 12.1969 4.85241 12.8062 5.24104C13.4152 5.63059 13.6184 6.45191 13.4152 7.70392Z" fill="white"/>
<path d="M103.34 0.138184H99.5824C99.2092 0.138184 98.9894 0.324425 98.9224 0.696752L95.6217 21.8195L95.5708 21.921C95.5708 22.0911 95.6386 22.2511 95.7743 22.4035C95.909 22.5556 96.0789 22.6318 96.2818 22.6318H99.6333C100.276 22.6318 100.631 22.3108 100.7 21.6672L104 0.899444V0.849004C104 0.375175 103.779 0.138184 103.34 0.138184Z" fill="white"/>
<path d="M57.9455 8.31287C57.9455 8.14401 57.8774 7.98291 57.7428 7.83082C57.607 7.67856 57.4545 7.60205 57.2858 7.60205H53.3759C53.0028 7.60205 52.6983 7.77215 52.462 8.10971L47.0797 16.0312L44.8458 8.41468C44.6758 7.87334 44.3037 7.60205 43.7286 7.60205H39.92C39.7504 7.60205 39.598 7.67841 39.4634 7.83082C39.3276 7.98291 39.2603 8.14417 39.2603 8.31287C39.2603 8.38116 39.5904 9.37926 40.2503 11.3087C40.9102 13.2385 41.6212 15.3204 42.3829 17.5548C43.1446 19.7886 43.5419 20.974 43.5761 21.1086C40.8002 24.9001 39.4125 26.9313 39.4125 27.2016C39.4125 27.6421 39.6324 27.8618 40.0726 27.8618H43.9824C44.3547 27.8618 44.6592 27.693 44.8964 27.3543L57.8443 8.66828C57.9117 8.60092 57.9455 8.48297 57.9455 8.31287Z" fill="white"/>
<path d="M94.3522 7.60203H90.493C90.0189 7.60203 89.7319 8.16059 89.6304 9.27773C88.7493 7.92438 87.1424 7.24646 84.8063 7.24646C82.369 7.24646 80.2952 8.16059 78.5863 9.98855C76.8766 11.8167 76.0222 13.9665 76.0222 16.4373C76.0222 18.4349 76.6059 20.0257 77.7737 21.2101C78.9415 22.3956 80.5071 22.9873 82.471 22.9873C83.4523 22.9873 84.4509 22.7838 85.4664 22.3779C86.482 21.9718 87.2768 21.4304 87.8532 20.7531C87.8532 20.7871 87.8187 20.9392 87.7515 21.2099C87.6832 21.4812 87.6499 21.6847 87.6499 21.8192C87.6499 22.3615 87.8693 22.6315 88.3101 22.6315H91.8139C92.4561 22.6315 92.8291 22.3106 92.9304 21.667L95.0125 8.4145C95.0458 8.21134 94.9951 8.02541 94.86 7.85593C94.7242 7.68692 94.5554 7.60203 94.3522 7.60203ZM87.7261 17.605C86.8628 18.4514 85.8221 18.8743 84.6034 18.8743C83.6213 18.8743 82.8265 18.6039 82.2169 18.062C81.6074 17.5212 81.3028 16.7764 81.3028 15.8278C81.3028 14.5761 81.7259 13.5177 82.5723 12.6544C83.4177 11.7912 84.4679 11.3596 85.7206 11.3596C86.6675 11.3596 87.4546 11.639 88.0815 12.1974C88.7073 12.7559 89.0211 13.5264 89.0211 14.508C89.0209 15.7265 88.5891 16.7592 87.7261 17.605Z" fill="white"/>
<path d="M36.6709 7.60203H32.812C32.3374 7.60203 32.0503 8.16059 31.9486 9.27773C31.0346 7.92438 29.4266 7.24646 27.1248 7.24646C24.6875 7.24646 22.6139 8.16059 20.9047 9.98855C19.195 11.8167 18.3406 13.9665 18.3406 16.4373C18.3406 18.4349 18.9246 20.0257 20.0925 21.2101C21.2604 22.3956 22.8256 22.9873 24.7892 22.9873C25.7365 22.9873 26.7188 22.7838 27.7341 22.3779C28.7496 21.9718 29.5621 21.4304 30.1714 20.7531C30.0356 21.1593 29.9682 21.5149 29.9682 21.8192C29.9682 22.3615 30.1882 22.6315 30.6283 22.6315H34.1318C34.7745 22.6315 35.1473 22.3106 35.249 21.667L37.3307 8.4145C37.364 8.21134 37.3133 8.02541 37.1784 7.85593C37.0429 7.68692 36.8739 7.60203 36.6709 7.60203ZM30.0446 17.6302C29.1812 18.4605 28.1229 18.8743 26.8712 18.8743C25.8889 18.8743 25.1019 18.6039 24.51 18.062C23.9173 17.5212 23.6213 16.7764 23.6213 15.8278C23.6213 14.5761 24.0442 13.5177 24.8908 12.6544C25.7365 11.7912 26.786 11.3596 28.0389 11.3596C28.9863 11.3596 29.7733 11.639 30.4002 12.1974C31.0259 12.7559 31.3394 13.5264 31.3394 14.508C31.3394 15.7605 30.9078 16.8017 30.0446 17.6302Z" fill="white"/>
<path d="M75.2855 1.48347C73.9821 0.587335 72.2814 0.138184 70.1827 0.138184H62.1093C61.4318 0.138184 61.0593 0.459915 60.9921 1.1026L57.6918 21.8193C57.6575 22.0228 57.7082 22.2089 57.844 22.378C57.9784 22.5475 58.1485 22.6318 58.3517 22.6318H62.5151C62.9213 22.6318 63.1919 22.412 63.3276 21.9719L64.2417 16.0821C64.2752 15.8115 64.3938 15.5914 64.5971 15.4219C64.8003 15.2527 65.0539 15.1421 65.3589 15.0913C65.6634 15.041 65.9506 15.0158 66.2221 15.0158C66.4926 15.0158 66.814 15.0328 67.1865 15.0665C67.5588 15.1003 67.7964 15.1168 67.8973 15.1168C70.8087 15.1168 73.0933 14.2965 74.7522 12.6544C76.4109 11.0128 77.2403 8.73647 77.2403 5.8249C77.2404 3.82809 76.5884 2.38099 75.2855 1.48347ZM70.081 9.83638C69.3362 10.344 68.2191 10.5978 66.7299 10.5978L65.1049 10.6487L65.9683 5.21558C66.0354 4.84357 66.2553 4.65733 66.6282 4.65733H67.5419C68.2864 4.65733 68.8788 4.69116 69.3196 4.75867C69.759 4.82696 70.1827 5.03788 70.5888 5.39329C70.9953 5.74885 71.1981 6.26521 71.1981 6.94219C71.1981 8.36384 70.8253 9.32841 70.081 9.83638Z" fill="white"/>
</svg>
