<svg width="80" height="80" viewBox="0 0 80 80" fill="none" xmlns="http://www.w3.org/2000/svg">
<path d="M5.62222 36.3257C5.62222 35.459 6.33333 35.1257 7.51111 35.1257C9.2 35.1257 11.3333 35.6368 13.0222 36.5479V31.3257C11.1778 30.5924 9.35556 30.3035 7.51111 30.3035C3 30.3035 0 32.659 0 36.5924C0 42.7257 8.44444 41.7479 8.44444 44.3924C8.44444 45.4146 7.55556 45.7479 6.31111 45.7479C4.46667 45.7479 2.11111 44.9924 0.244444 43.9701V49.259C2.31111 50.1479 4.4 50.5257 6.31111 50.5257C10.9333 50.5257 14.1111 48.2368 14.1111 44.259C14.0889 37.6368 5.62222 38.8146 5.62222 36.3257ZM20.6444 25.859L15.2222 27.0146L15.2 44.8146C15.2 48.1035 17.6667 50.5257 20.9556 50.5257C22.7778 50.5257 24.1111 50.1924 24.8444 49.7924V45.2813C24.1333 45.5701 20.6222 46.5924 20.6222 43.3035V35.4146H24.8444V30.6813H20.6222L20.6444 25.859ZM31.7556 32.3257L31.4 30.6813H26.6V50.1257H32.1556V36.9479C33.4667 35.2368 35.6889 35.5479 36.3778 35.7924V30.6813C35.6667 30.4146 33.0667 29.9257 31.7556 32.3257ZM37.7333 30.6813H43.3111V50.1257H37.7333V30.6813ZM37.7333 28.9924L43.3111 27.7924V23.2812L37.7333 24.459V28.9924ZM54.9111 30.3035C52.7333 30.3035 51.3333 31.3257 50.5556 32.0368L50.2667 30.659H45.3778V56.5701L50.9333 55.3924L50.9556 49.1035C51.7556 49.6813 52.9333 50.5035 54.8889 50.5035C58.8667 50.5035 62.4889 47.3035 62.4889 40.259C62.4667 33.8146 58.8 30.3035 54.9111 30.3035ZM53.5778 45.6146C52.2667 45.6146 51.4889 45.1479 50.9556 44.5701L50.9333 36.3257C51.5111 35.6813 52.3111 35.2368 53.5778 35.2368C55.6 35.2368 57 37.5035 57 40.4146C57 43.3924 55.6222 45.6146 53.5778 45.6146ZM80 40.4813C80 34.7924 77.2444 30.3035 71.9778 30.3035C66.6889 30.3035 63.4889 34.7924 63.4889 40.4368C63.4889 47.1257 67.2667 50.5035 72.6889 50.5035C75.3333 50.5035 77.3333 49.9035 78.8444 49.059V44.6146C77.3333 45.3701 75.6 45.8368 73.4 45.8368C71.2444 45.8368 69.3333 45.0813 69.0889 42.459H79.9556C79.9556 42.1701 80 41.0146 80 40.4813ZM69.0222 38.3701C69.0222 35.859 70.5556 34.8146 71.9556 34.8146C73.3111 34.8146 74.7556 35.859 74.7556 38.3701H69.0222Z" fill="white"/>
</svg>
