<svg width="231" height="172" viewBox="0 0 231 172" fill="none" xmlns="http://www.w3.org/2000/svg">
<g filter="url(#filter0_d_1609_17966)">
<path d="M143.998 110.333H88.1943C85.8149 110.333 83.8887 108.406 83.8887 106.027V29.4882C83.8887 27.1087 85.8149 25.1825 88.1943 25.1825H143.998C146.377 25.1825 148.304 27.1087 148.304 29.4882V106.027C148.304 108.406 146.377 110.333 143.998 110.333Z" fill="url(#paint0_linear_1609_17966)"/>
</g>
<path d="M123.348 89.6825H108.844C107.23 89.6825 105.927 88.3794 105.927 86.7648C105.927 85.1502 107.23 83.8472 108.844 83.8472H123.348C124.962 83.8472 126.265 85.1502 126.265 86.7648C126.265 88.3794 124.962 89.6825 123.348 89.6825Z" fill="#A9AFC3"/>
<path d="M130.005 95.9993H102.16C101.31 95.9993 100.63 95.3194 100.63 94.4696C100.63 93.6198 101.31 92.94 102.16 92.94H130.005C130.855 92.94 131.534 93.6198 131.534 94.4696C131.534 95.2911 130.855 95.9993 130.005 95.9993Z" fill="#A9AFC3"/>
<path d="M135.132 55.5487C135.132 61.2707 132.611 66.3978 128.617 69.882C125.274 72.7997 120.883 74.556 116.096 74.556C111.309 74.556 106.918 72.7997 103.576 69.8537C99.5816 66.3695 97.0605 61.2424 97.0605 55.5204C97.0605 45.0112 105.587 36.4848 116.096 36.4848C126.605 36.4848 135.132 45.0395 135.132 55.5487Z" fill="#4B5161"/>
<g filter="url(#filter1_d_1609_17966)">
<path d="M68.1957 97.1607H32.3057C29.9262 97.1607 28 95.2345 28 92.855V42.66C28 40.2806 29.9262 38.3544 32.3057 38.3544H68.1957C70.5751 38.3544 72.5013 40.2806 72.5013 42.66V92.8834C72.5013 95.2628 70.5751 97.1607 68.1957 97.1607Z" fill="#414758"/>
</g>
<path d="M55.2508 82.9124H45.2231C44.1184 82.9124 43.2119 82.0059 43.2119 80.9012C43.2119 79.7964 44.1184 78.89 45.2231 78.89H55.2508C56.3555 78.89 57.262 79.7964 57.262 80.9012C57.262 82.0059 56.3555 82.9124 55.2508 82.9124Z" fill="#8E94A7"/>
<path d="M59.8679 87.2747H40.634C40.0392 87.2747 39.5859 86.7931 39.5859 86.2266C39.5859 85.6318 40.0675 85.1785 40.634 85.1785H59.8679C60.4628 85.1785 60.916 85.6601 60.916 86.2266C60.916 86.7931 60.4344 87.2747 59.8679 87.2747Z" fill="#8E94A7"/>
<path d="M63.38 59.3162C63.38 63.2819 61.6237 66.8227 58.876 69.2305C56.5533 71.2417 53.5506 72.4598 50.2364 72.4598C46.9222 72.4598 43.8912 71.2417 41.5967 69.2305C38.849 66.8227 37.0928 63.2819 37.0928 59.3162C37.0928 52.0645 42.9847 46.1725 50.2364 46.1725C57.488 46.1725 63.38 52.0645 63.38 59.3162Z" fill="#4B5161"/>
<g filter="url(#filter2_d_1609_17966)">
<path d="M199.036 97.1607H163.146C160.767 97.1607 158.841 95.2345 158.841 92.855V42.66C158.841 40.2806 160.767 38.3544 163.146 38.3544H199.036C201.416 38.3544 203.342 40.2806 203.342 42.66V92.8834C203.342 95.2628 201.416 97.1607 199.036 97.1607Z" fill="#414758"/>
</g>
<path d="M186.092 82.9124H176.064C174.959 82.9124 174.053 82.0059 174.053 80.9012C174.053 79.7964 174.959 78.89 176.064 78.89H186.092C187.196 78.89 188.103 79.7964 188.103 80.9012C188.131 82.0059 187.225 82.9124 186.092 82.9124Z" fill="#8E94A7"/>
<path d="M190.709 87.2747H171.475C170.88 87.2747 170.427 86.7931 170.427 86.2266C170.427 85.6318 170.908 85.1785 171.475 85.1785H190.709C191.304 85.1785 191.757 85.6601 191.757 86.2266C191.757 86.7931 191.304 87.2747 190.709 87.2747Z" fill="#8E94A7"/>
<path d="M56.75 59.375C56.75 55.9232 53.9518 53.125 50.5 53.125C47.0482 53.125 44.25 55.9232 44.25 59.375C44.25 62.8268 47.0482 65.625 50.5 65.625C53.9518 65.625 56.75 62.8268 56.75 59.375Z" fill="#848B9B"/>
<path d="M48.1264 60.803C48.1696 60.7599 48.228 60.7358 48.2889 60.7358H53.9005C54.0033 60.7358 54.0546 60.8595 53.9817 60.932L52.8733 62.0405C52.8302 62.0835 52.7717 62.1077 52.7108 62.1077H47.0992C47.0765 62.1076 47.0543 62.1009 47.0354 62.0882C47.0165 62.0756 47.0018 62.0576 46.9931 62.0366C46.9844 62.0156 46.9822 61.9925 46.9866 61.9703C46.991 61.948 47.0019 61.9275 47.018 61.9114L48.1264 60.803Z" fill="white"/>
<path d="M48.1264 56.6642C48.1699 56.6217 48.2281 56.5977 48.2889 56.597H53.9005C54.0033 56.597 54.0546 56.7207 53.9817 56.7932L52.8736 57.9017C52.8305 57.9447 52.772 57.9688 52.7111 57.9689H47.0992C47.0765 57.9688 47.0543 57.9621 47.0354 57.9494C47.0165 57.9368 47.0018 57.9188 46.9931 57.8979C46.9844 57.8769 46.9822 57.8538 46.9866 57.8315C46.991 57.8092 47.0019 57.7887 47.018 57.7726L48.1264 56.6642Z" fill="white"/>
<path d="M52.8733 58.7205C52.8302 58.6775 52.7717 58.6533 52.7108 58.6533H47.0992C47.0765 58.6533 47.0543 58.6601 47.0354 58.6727C47.0165 58.6854 47.0018 58.7033 46.9931 58.7243C46.9844 58.7453 46.9822 58.7684 46.9866 58.7907C46.991 58.813 47.0019 58.8335 47.018 58.8496L48.1264 59.958C48.1696 60.001 48.228 60.0252 48.2889 60.0252H53.9005C53.9232 60.0252 53.9454 60.0184 53.9643 60.0058C53.9832 59.9931 53.9979 59.9752 54.0066 59.9542C54.0153 59.9332 54.0176 59.9101 54.0132 59.8878C54.0087 59.8655 53.9978 59.845 53.9817 59.8289L52.8733 58.7205Z" fill="white"/>
<path d="M194.25 59.3162C194.25 63.2819 192.494 66.8227 189.746 69.2305C187.423 71.2417 184.421 72.4598 181.107 72.4598C177.792 72.4598 174.761 71.2417 172.467 69.2305C169.719 66.8227 167.963 63.2819 167.963 59.3162C167.963 52.0645 173.855 46.1725 181.107 46.1725C188.358 46.1725 194.25 52.0645 194.25 59.3162Z" fill="#4B5161"/>
<path d="M188 59.375C188 55.9232 185.202 53.125 181.75 53.125C178.298 53.125 175.5 55.9232 175.5 59.375C175.5 62.8268 178.298 65.625 181.75 65.625C185.202 65.625 188 62.8268 188 59.375Z" fill="#848B9B"/>
<path d="M178.955 59.3992L178.959 61.052L180.363 61.8781V62.8457L178.137 61.5403V58.916L178.955 59.3992ZM178.955 57.7469V58.7098L178.137 58.2258V57.2629L178.955 56.7789L179.776 57.2629L178.955 57.7469ZM180.95 57.2629L181.768 56.7789L182.589 57.2629L181.768 57.7465L180.95 57.2629Z" fill="white"/>
<path d="M179.545 60.7094V59.7418L180.363 60.2258V61.1887L179.545 60.7094ZM180.949 62.225L181.767 62.7086L182.589 62.225V63.1879L181.767 63.6715L180.949 63.1879V62.225ZM183.762 57.2629L184.58 56.7789L185.402 57.2629V58.2258L184.58 58.7098V57.7461L183.762 57.2625V57.2629ZM184.58 61.052L184.584 59.3996L185.402 58.9153V61.5399L183.176 62.8453V61.8778L184.58 61.052Z" fill="white"/>
<path d="M183.994 60.7094L183.176 61.1887V60.2258L183.994 59.7418V60.7094Z" fill="white"/>
<path d="M183.993 58.0891L183.998 59.0566L182.589 59.8832V61.5395L181.771 62.0191L180.954 61.5398V59.8828L179.546 59.0563V58.0887L180.367 57.6051L181.767 58.4352L183.175 57.6051L183.997 58.0887H183.993L183.993 58.0891ZM179.545 56.4367L181.767 55.127L183.993 56.4371L183.175 56.9207L181.767 56.0906L180.363 56.9207L179.545 56.4371V56.4367Z" fill="white"/>
<path d="M192.324 151.18L156.49 115.375L164.705 107.16L200.51 142.993L192.324 151.18Z" fill="#858B9B"/>
<path d="M210.169 169.167L182.693 141.69C180.398 139.396 180.398 135.657 182.693 133.362C184.987 131.068 188.726 131.068 191.021 133.362L218.498 160.839C220.792 163.134 220.792 166.873 218.498 169.167C216.203 171.462 212.464 171.462 210.169 169.167Z" fill="#858B9B"/>
<path d="M208.215 170.924L172.863 135.572C172.042 134.75 172.042 133.419 172.863 132.569L181.899 123.533C182.721 122.711 184.052 122.711 184.902 123.533L220.254 158.885C221.075 159.706 221.075 161.038 220.254 161.887L211.218 170.924C210.368 171.745 209.036 171.745 208.215 170.924Z" fill="url(#paint1_linear_1609_17966)"/>
<path d="M115.927 0C78.4219 0 48.0273 30.3946 48.0273 67.8992C48.0273 105.376 78.4219 135.798 115.898 135.798C153.403 135.798 183.797 105.404 183.797 67.8992C183.797 30.3946 153.403 0 115.927 0ZM115.927 123.221C85.8152 123.221 61.4259 98.4355 61.4259 67.8709C61.4259 37.3063 85.8152 12.5487 115.927 12.5487C146.038 12.5487 170.427 37.3347 170.427 67.8992C170.427 98.4638 146.01 123.221 115.927 123.221Z" fill="url(#paint2_linear_1609_17966)"/>
<path d="M127.375 55.75C127.375 49.5368 122.338 44.5 116.125 44.5C109.912 44.5 104.875 49.5368 104.875 55.75C104.875 61.9632 109.912 67 116.125 67C122.338 67 127.375 61.9632 127.375 55.75Z" fill="#848B9B"/>
<path d="M121.054 54.1353C121.278 52.6376 120.138 51.8329 118.579 51.296L119.085 49.2675L117.85 48.9603L117.358 50.935C117.034 50.8541 116.7 50.7778 116.369 50.7023L116.865 48.7142L115.631 48.4066L115.125 50.4344C114.856 50.3732 114.592 50.3127 114.336 50.2491L114.338 50.2424L112.635 49.8174L112.307 51.1361C112.307 51.1361 113.223 51.346 113.203 51.359C113.704 51.4838 113.794 51.8146 113.779 52.0769L113.203 54.3877C113.237 54.3965 113.282 54.4088 113.331 54.4288L113.201 54.3965L112.393 57.6333C112.332 57.7852 112.177 58.013 111.828 57.9265C111.84 57.9444 110.93 57.7029 110.93 57.7029L110.317 59.1162L111.924 59.5166C112.223 59.5915 112.516 59.6699 112.804 59.7437L112.294 61.7951L113.527 62.1027L114.033 60.0732C114.369 60.1646 114.696 60.2489 115.016 60.3284L114.512 62.3485L115.747 62.6561L116.258 60.6086C118.363 61.0069 119.946 60.8462 120.613 58.9422C121.149 57.409 120.586 56.5245 119.478 55.9479C120.285 55.7619 120.892 55.2314 121.054 54.1353H121.054ZM118.233 58.0907C117.852 59.6239 115.27 58.7952 114.433 58.5871L115.111 55.8695C115.948 56.0784 118.632 56.4918 118.233 58.0907ZM118.615 54.1128C118.267 55.5074 116.119 54.799 115.421 54.6253L116.036 52.1602C116.733 52.3339 118.978 52.6584 118.615 54.1128Z" fill="white"/>
<path d="M217.175 28.9611H212.214V24H207.961V28.9611H203V33.3553H207.961V38.3165H212.214V33.3553H217.175V28.9611Z" fill="#5C6479"/>
<path d="M45.7325 133.465C48.3462 133.465 50.465 131.346 50.465 128.732C50.465 126.119 48.3462 124 45.7325 124C43.1188 124 41 126.119 41 128.732C41 131.346 43.1188 133.465 45.7325 133.465Z" fill="#2A2E37"/>
<path d="M18.7325 17.4649C21.3462 17.4649 23.465 15.3461 23.465 12.7325C23.465 10.1188 21.3462 8 18.7325 8C16.1188 8 14 10.1188 14 12.7325C14 15.3461 16.1188 17.4649 18.7325 17.4649Z" fill="#2A2E37"/>
<path d="M183.732 21.4649C186.346 21.4649 188.465 19.3461 188.465 16.7325C188.465 14.1188 186.346 12 183.732 12C181.119 12 179 14.1188 179 16.7325C179 19.3461 181.119 21.4649 183.732 21.4649Z" fill="#2A2E37"/>
<path d="M13.606 107.822H8.78359V103H4.65014V107.822H0V111.956H4.65014V116.606H8.78359V111.956H13.606V107.822Z" fill="#5C6479"/>
<defs>
<filter id="filter0_d_1609_17966" x="56.3887" y="11.4325" width="119.415" height="140.15" filterUnits="userSpaceOnUse" color-interpolation-filters="sRGB">
<feFlood flood-opacity="0" result="BackgroundImageFix"/>
<feColorMatrix in="SourceAlpha" type="matrix" values="0 0 0 0 0 0 0 0 0 0 0 0 0 0 0 0 0 0 127 0" result="hardAlpha"/>
<feOffset dy="13.75"/>
<feGaussianBlur stdDeviation="13.75"/>
<feColorMatrix type="matrix" values="0 0 0 0 0 0 0 0 0 0 0 0 0 0 0 0 0 0 0.27 0"/>
<feBlend mode="normal" in2="BackgroundImageFix" result="effect1_dropShadow_1609_17966"/>
<feBlend mode="normal" in="SourceGraphic" in2="effect1_dropShadow_1609_17966" result="shape"/>
</filter>
<filter id="filter1_d_1609_17966" x="0.5" y="24.6044" width="99.501" height="113.806" filterUnits="userSpaceOnUse" color-interpolation-filters="sRGB">
<feFlood flood-opacity="0" result="BackgroundImageFix"/>
<feColorMatrix in="SourceAlpha" type="matrix" values="0 0 0 0 0 0 0 0 0 0 0 0 0 0 0 0 0 0 127 0" result="hardAlpha"/>
<feOffset dy="13.75"/>
<feGaussianBlur stdDeviation="13.75"/>
<feColorMatrix type="matrix" values="0 0 0 0 0 0 0 0 0 0 0 0 0 0 0 0 0 0 0.27 0"/>
<feBlend mode="normal" in2="BackgroundImageFix" result="effect1_dropShadow_1609_17966"/>
<feBlend mode="normal" in="SourceGraphic" in2="effect1_dropShadow_1609_17966" result="shape"/>
</filter>
<filter id="filter2_d_1609_17966" x="131.341" y="24.6044" width="99.501" height="113.806" filterUnits="userSpaceOnUse" color-interpolation-filters="sRGB">
<feFlood flood-opacity="0" result="BackgroundImageFix"/>
<feColorMatrix in="SourceAlpha" type="matrix" values="0 0 0 0 0 0 0 0 0 0 0 0 0 0 0 0 0 0 127 0" result="hardAlpha"/>
<feOffset dy="13.75"/>
<feGaussianBlur stdDeviation="13.75"/>
<feColorMatrix type="matrix" values="0 0 0 0 0 0 0 0 0 0 0 0 0 0 0 0 0 0 0.27 0"/>
<feBlend mode="normal" in2="BackgroundImageFix" result="effect1_dropShadow_1609_17966"/>
<feBlend mode="normal" in="SourceGraphic" in2="effect1_dropShadow_1609_17966" result="shape"/>
</filter>
<linearGradient id="paint0_linear_1609_17966" x1="116.075" y1="23.2129" x2="116.075" y2="111.251" gradientUnits="userSpaceOnUse">
<stop stop-color="#5C6479"/>
<stop offset="0.9964" stop-color="#5C6479"/>
</linearGradient>
<linearGradient id="paint1_linear_1609_17966" x1="172.225" y1="147.234" x2="220.879" y2="147.234" gradientUnits="userSpaceOnUse">
<stop stop-color="#B0BACC"/>
<stop offset="1" stop-color="#969EAE"/>
</linearGradient>
<linearGradient id="paint2_linear_1609_17966" x1="47.9652" y1="67.914" x2="183.822" y2="67.914" gradientUnits="userSpaceOnUse">
<stop stop-color="#B0BACC"/>
<stop offset="1" stop-color="#969EAE"/>
</linearGradient>
</defs>
</svg>
