<?xml version="1.0" encoding="utf-8"?>
<svg viewBox="4.681 0 42.319 28.776" fill="none" xmlns="http://www.w3.org/2000/svg">
  <defs>
    <filter id="filter0_dddd_7186_22690" x="0.129883" y="0.642578" width="31.74" height="32.7402" filterUnits="userSpaceOnUse" color-interpolation-filters="sRGB">
      <feFlood flood-opacity="0" result="BackgroundImageFix"/>
      <feColorMatrix in="SourceAlpha" type="matrix" values="0 0 0 0 0 0 0 0 0 0 0 0 0 0 0 0 0 0 127 0" result="hardAlpha"/>
      <feOffset/>
      <feGaussianBlur stdDeviation="0.5"/>
      <feColorMatrix type="matrix" values="0 0 0 0 0.101961 0 0 0 0 0.105882 0 0 0 0 0.12549 0 0 0 0.24 0"/>
      <feBlend mode="normal" in2="BackgroundImageFix" result="effect1_dropShadow_7186_22690"/>
      <feColorMatrix in="SourceAlpha" type="matrix" values="0 0 0 0 0 0 0 0 0 0 0 0 0 0 0 0 0 0 127 0" result="hardAlpha"/>
      <feOffset dx="-2" dy="2"/>
      <feGaussianBlur stdDeviation="1"/>
      <feColorMatrix type="matrix" values="0 0 0 0 0.101961 0 0 0 0 0.105882 0 0 0 0 0.12549 0 0 0 0.2 0"/>
      <feBlend mode="normal" in2="effect1_dropShadow_7186_22690" result="effect2_dropShadow_7186_22690"/>
      <feColorMatrix in="SourceAlpha" type="matrix" values="0 0 0 0 0 0 0 0 0 0 0 0 0 0 0 0 0 0 127 0" result="hardAlpha"/>
      <feOffset dx="-4" dy="4"/>
      <feGaussianBlur stdDeviation="1.5"/>
      <feColorMatrix type="matrix" values="0 0 0 0 0.101961 0 0 0 0 0.105882 0 0 0 0 0.12549 0 0 0 0.12 0"/>
      <feBlend mode="normal" in2="effect2_dropShadow_7186_22690" result="effect3_dropShadow_7186_22690"/>
      <feColorMatrix in="SourceAlpha" type="matrix" values="0 0 0 0 0 0 0 0 0 0 0 0 0 0 0 0 0 0 127 0" result="hardAlpha"/>
      <feOffset dx="-6" dy="7"/>
      <feGaussianBlur stdDeviation="2"/>
      <feColorMatrix type="matrix" values="0 0 0 0 0.101961 0 0 0 0 0.105882 0 0 0 0 0.12549 0 0 0 0.04 0"/>
      <feBlend mode="normal" in2="effect3_dropShadow_7186_22690" result="effect4_dropShadow_7186_22690"/>
      <feBlend mode="normal" in="SourceGraphic" in2="effect4_dropShadow_7186_22690" result="shape"/>
    </filter>
    <linearGradient id="paint0_linear_7186_22690" x1="31.0001" y1="22.2819" x2="10.0001" y2="1.28186" gradientUnits="userSpaceOnUse">
      <stop stop-color="#006BB3"/>
      <stop offset="1" stop-color="#1D9BF0"/>
    </linearGradient>
    <filter id="filter1_dddd_7186_22690" x="16.5" y="0.5" width="30" height="31" filterUnits="userSpaceOnUse" color-interpolation-filters="sRGB">
      <feFlood flood-opacity="0" result="BackgroundImageFix"/>
      <feColorMatrix in="SourceAlpha" type="matrix" values="0 0 0 0 0 0 0 0 0 0 0 0 0 0 0 0 0 0 127 0" result="hardAlpha"/>
      <feOffset/>
      <feGaussianBlur stdDeviation="0.5"/>
      <feColorMatrix type="matrix" values="0 0 0 0 0.101961 0 0 0 0 0.105882 0 0 0 0 0.12549 0 0 0 0.24 0"/>
      <feBlend mode="normal" in2="BackgroundImageFix" result="effect1_dropShadow_7186_22690"/>
      <feColorMatrix in="SourceAlpha" type="matrix" values="0 0 0 0 0 0 0 0 0 0 0 0 0 0 0 0 0 0 127 0" result="hardAlpha"/>
      <feOffset dx="-1" dy="1"/>
      <feGaussianBlur stdDeviation="1"/>
      <feColorMatrix type="matrix" values="0 0 0 0 0.101961 0 0 0 0 0.105882 0 0 0 0 0.12549 0 0 0 0.2 0"/>
      <feBlend mode="normal" in2="effect1_dropShadow_7186_22690" result="effect2_dropShadow_7186_22690"/>
      <feColorMatrix in="SourceAlpha" type="matrix" values="0 0 0 0 0 0 0 0 0 0 0 0 0 0 0 0 0 0 127 0" result="hardAlpha"/>
      <feOffset dx="-3" dy="3"/>
      <feGaussianBlur stdDeviation="1.5"/>
      <feColorMatrix type="matrix" values="0 0 0 0 0.101961 0 0 0 0 0.105882 0 0 0 0 0.12549 0 0 0 0.12 0"/>
      <feBlend mode="normal" in2="effect2_dropShadow_7186_22690" result="effect3_dropShadow_7186_22690"/>
      <feColorMatrix in="SourceAlpha" type="matrix" values="0 0 0 0 0 0 0 0 0 0 0 0 0 0 0 0 0 0 127 0" result="hardAlpha"/>
      <feOffset dx="-5" dy="6"/>
      <feGaussianBlur stdDeviation="1.5"/>
      <feColorMatrix type="matrix" values="0 0 0 0 0.101961 0 0 0 0 0.105882 0 0 0 0 0.12549 0 0 0 0.04 0"/>
      <feBlend mode="normal" in2="effect3_dropShadow_7186_22690" result="effect4_dropShadow_7186_22690"/>
      <feBlend mode="normal" in="SourceGraphic" in2="effect4_dropShadow_7186_22690" result="shape"/>
    </filter>
    <clipPath id="clip0_7186_22690">
      <rect width="16.8543" height="14.7294" fill="white" transform="matrix(1 0 0 -1 26.5955 19.2568)"/>
    </clipPath>
    <radialGradient id="paint1_radial_7186_22690" cx="0" cy="0" r="1" gradientUnits="userSpaceOnUse" gradientTransform="translate(41.043 10.4164) scale(4.97 4.3239)">
      <stop stop-color="#FEFFFF"/>
      <stop offset="0.4" stop-color="#FEFFFF"/>
      <stop offset="0.51" stop-color="#F9FCFC"/>
      <stop offset="0.62" stop-color="#EDF3F5"/>
      <stop offset="0.7" stop-color="#DEE9EC"/>
      <stop offset="0.72" stop-color="#D8E4E8"/>
      <stop offset="0.76" stop-color="#CCD8DF"/>
      <stop offset="0.8" stop-color="#C8D5DD"/>
      <stop offset="0.83" stop-color="#CCD6DE"/>
      <stop offset="0.85" stop-color="#D8DBE2"/>
      <stop offset="0.88" stop-color="#EDE3E9"/>
      <stop offset="0.9" stop-color="#FFEBEF"/>
    </radialGradient>
    <radialGradient id="paint2_radial_7186_22690" cx="0" cy="0" r="1" gradientUnits="userSpaceOnUse" gradientTransform="translate(29.106 10.4389) scale(4.96999)">
      <stop stop-color="#FEFFFF"/>
      <stop offset="0.4" stop-color="#FEFFFF"/>
      <stop offset="0.51" stop-color="#F9FCFC"/>
      <stop offset="0.62" stop-color="#EDF3F5"/>
      <stop offset="0.7" stop-color="#DEE9EC"/>
      <stop offset="0.72" stop-color="#D8E4E8"/>
      <stop offset="0.76" stop-color="#CCD8DF"/>
      <stop offset="0.8" stop-color="#C8D5DD"/>
      <stop offset="0.83" stop-color="#CCD6DE"/>
      <stop offset="0.85" stop-color="#D8DBE2"/>
      <stop offset="0.88" stop-color="#EDE3E9"/>
      <stop offset="0.9" stop-color="#FFEBEF"/>
    </radialGradient>
    <radialGradient id="paint3_radial_7186_22690" cx="0" cy="0" r="1" gradientUnits="userSpaceOnUse" gradientTransform="translate(35.18 9.78819) scale(14.9915 10.494)">
      <stop stop-color="#FEFFFF"/>
      <stop offset="0.4" stop-color="#FEFFFF"/>
      <stop offset="0.51" stop-color="#F9FCFC"/>
      <stop offset="0.62" stop-color="#EDF3F5"/>
      <stop offset="0.7" stop-color="#DEE9EC"/>
      <stop offset="0.72" stop-color="#D8E4E8"/>
      <stop offset="0.76" stop-color="#CCD8DF"/>
      <stop offset="0.8" stop-color="#C8D5DD"/>
      <stop offset="0.83" stop-color="#CCD6DE"/>
      <stop offset="0.85" stop-color="#D8DBE2"/>
      <stop offset="0.88" stop-color="#EDE3E9"/>
      <stop offset="0.9" stop-color="#FFEBEF"/>
    </radialGradient>
    <radialGradient id="paint4_radial_7186_22690" cx="0" cy="0" r="1" gradientUnits="userSpaceOnUse" gradientTransform="translate(31.8483 13.9277) scale(1.25254 1.82871)">
      <stop stop-color="#FF6600"/>
      <stop offset="0.5" stop-color="#FF4500"/>
      <stop offset="0.7" stop-color="#FC4301"/>
      <stop offset="0.82" stop-color="#F43F07"/>
      <stop offset="0.92" stop-color="#E53812"/>
      <stop offset="1" stop-color="#D4301F"/>
    </radialGradient>
    <radialGradient id="paint5_radial_7186_22690" cx="0" cy="0" r="1" gradientUnits="userSpaceOnUse" gradientTransform="translate(38.2092 13.9277) rotate(180) scale(1.25254 1.82871)">
      <stop stop-color="#FF6600"/>
      <stop offset="0.5" stop-color="#FF4500"/>
      <stop offset="0.7" stop-color="#FC4301"/>
      <stop offset="0.82" stop-color="#F43F07"/>
      <stop offset="0.92" stop-color="#E53812"/>
      <stop offset="1" stop-color="#D4301F"/>
    </radialGradient>
    <radialGradient id="paint6_radial_7186_22690" cx="0" cy="0" r="1" gradientUnits="userSpaceOnUse" gradientTransform="translate(35.0158 17.7788) scale(4.41665 2.91499)">
      <stop stop-color="#172E35"/>
      <stop offset="0.29" stop-color="#0E1C21"/>
      <stop offset="0.73" stop-color="#030708"/>
      <stop offset="1"/>
    </radialGradient>
    <radialGradient id="paint7_radial_7186_22690" cx="0" cy="0" r="1" gradientUnits="userSpaceOnUse" gradientTransform="translate(38.9108 4.66235) scale(3.87695 3.79941)">
      <stop stop-color="#FEFFFF"/>
      <stop offset="0.4" stop-color="#FEFFFF"/>
      <stop offset="0.51" stop-color="#F9FCFC"/>
      <stop offset="0.62" stop-color="#EDF3F5"/>
      <stop offset="0.7" stop-color="#DEE9EC"/>
      <stop offset="0.72" stop-color="#D8E4E8"/>
      <stop offset="0.76" stop-color="#CCD8DF"/>
      <stop offset="0.8" stop-color="#C8D5DD"/>
      <stop offset="0.83" stop-color="#CCD6DE"/>
      <stop offset="0.85" stop-color="#D8DBE2"/>
      <stop offset="0.88" stop-color="#EDE3E9"/>
      <stop offset="0.9" stop-color="#FFEBEF"/>
    </radialGradient>
    <radialGradient id="paint8_radial_7186_22690" cx="0" cy="0" r="1" gradientUnits="userSpaceOnUse" gradientTransform="translate(37.295 8.57574) scale(3.17776)">
      <stop offset="0.48" stop-color="#7A9299"/>
      <stop offset="0.67" stop-color="#172E35"/>
      <stop offset="0.75"/>
      <stop offset="0.82" stop-color="#172E35"/>
    </radialGradient>
  </defs>
  <g filter="url(#filter0_dddd_7186_22690)" transform="matrix(0.9999999999999999, 0, 0, 0.9999999999999999, 0, -4.440892098500626e-16)">
    <g style="mix-blend-mode:multiply">
      <path d="M22.305 22.1949C27.9355 21.198 31.6919 15.8254 30.695 10.1949C29.6981 4.56433 24.3256 0.807998 18.695 1.80487C13.0645 2.80174 9.30812 8.17432 10.305 13.8049C11.3019 19.4354 16.6744 23.1918 22.305 22.1949Z" fill="#B8B8B8"/>
    </g>
    <path d="M20.4999 22.3827C26.2271 22.3827 30.87 17.7398 30.87 12.0126C30.87 6.2854 26.2271 1.64258 20.4999 1.64258C14.7727 1.64258 10.1299 6.2854 10.1299 12.0126C10.1299 17.7398 14.7727 22.3827 20.4999 22.3827Z" fill="url(#paint0_linear_7186_22690)"/>
    <path d="M16.6013 13.3862L17.7119 16.783C17.7303 16.8388 17.7619 16.8892 17.8041 16.93C17.8464 16.9708 17.8979 17.0006 17.9543 17.0169C18.0107 17.0333 18.0702 17.0356 18.1277 17.0237C18.1852 17.0118 18.2389 16.9861 18.2842 16.9488L21.5986 14.2102C21.5986 14.2102 18.0745 12.8368 18.0745 12.9101C18.0745 12.9833 16.6013 13.3862 16.6013 13.3862Z" fill="#B5D1DB"/>
    <path d="M25.3526 6.85366C23.1863 7.71065 16.1967 10.5756 13.5488 11.6605C13.472 11.6922 13.4068 11.7467 13.3621 11.8167C13.3173 11.8867 13.2952 11.9687 13.2987 12.0517C13.3022 12.1347 13.3311 12.2146 13.3816 12.2806C13.4321 12.3466 13.5016 12.3954 13.5808 12.4205L16.6023 13.3828L17.7093 16.7705C17.7297 16.8334 17.7668 16.8896 17.8166 16.9331C17.8664 16.9767 17.9271 17.0059 17.9922 17.0177C18.0938 17.0369 18.244 14.2755 18.244 14.2755C18.244 14.2755 21.4202 16.6313 22.9263 17.7438C23.0116 17.8068 23.1115 17.8471 23.2166 17.8611C23.3217 17.8751 23.4286 17.8623 23.5274 17.8238C23.6262 17.7853 23.7137 17.7225 23.7817 17.6411C23.8496 17.5597 23.8959 17.4624 23.9161 17.3583L25.87 7.28673C25.8837 7.21901 25.8789 7.14882 25.8561 7.08359C25.8333 7.01835 25.7933 6.9605 25.7403 6.91613C25.6873 6.87177 25.6233 6.84255 25.5551 6.83155C25.4868 6.82055 25.4169 6.82819 25.3526 6.85366Z" fill="white"/>
    <path d="M17.9912 17.0159C18.0928 17.0351 18.243 14.2736 18.243 14.2736L23.4619 9.37246C23.4696 9.36576 23.4745 9.35637 23.4755 9.34621C23.4766 9.33605 23.4737 9.32587 23.4676 9.31773C23.4614 9.30958 23.4524 9.30408 23.4423 9.30235C23.4322 9.30061 23.4219 9.30276 23.4134 9.30836L16.6013 13.3864L17.7083 16.7741C17.7295 16.836 17.767 16.8911 17.8167 16.9336C17.8665 16.9761 17.9267 17.0045 17.9912 17.0159Z" fill="#D6E2EA"/>
  </g>
  <g filter="url(#filter1_dddd_7186_22690)" transform="matrix(0.9999999999999999, 0, 0, 0.9999999999999999, 0, -4.440892098500626e-16)">
    <path d="M35 1.5C32.2152 1.5 29.5445 2.60624 27.5754 4.57538C25.6063 6.54451 24.5 9.21523 24.5 12C24.4985 13.3791 24.7694 14.7449 25.2972 16.019C25.825 17.2931 26.5993 18.4504 27.5756 19.4244L25.5749 21.4251C25.4873 21.5134 25.4278 21.6256 25.4038 21.7476C25.3798 21.8697 25.3924 21.9961 25.4401 22.111C25.4877 22.2258 25.5683 22.3241 25.6716 22.3933C25.775 22.4625 25.8965 22.4996 26.0208 22.5H35.0068C37.7904 22.4982 40.4594 21.3912 42.427 19.4222C44.3947 17.4533 45.5 14.7836 45.5 12C45.5 9.21523 44.3938 6.54451 42.4246 4.57538C40.4555 2.60624 37.7848 1.5 35 1.5Z" fill="#FF4500"/>
    <g clip-path="url(#clip0_7186_22690)">
      <path d="M40.9911 9.42152C42.349 9.42152 43.4498 10.5223 43.4498 11.8802C43.4498 13.2381 42.349 14.3389 40.9911 14.3389C39.6333 14.3389 38.5325 13.2381 38.5325 11.8802C38.5325 10.5223 39.6333 9.42152 40.9911 9.42152Z" fill="url(#paint1_radial_7186_22690)"/>
      <path d="M29.0541 9.42152C30.412 9.42152 31.5128 10.5223 31.5128 11.8802C31.5128 13.2381 30.412 14.3389 29.0541 14.3389C27.6962 14.3389 26.5955 13.2381 26.5955 11.8802C26.5955 10.5223 27.6962 9.42152 29.0541 9.42152Z" fill="url(#paint2_radial_7186_22690)"/>
      <path d="M35.0287 8.72801C38.9053 8.72801 42.048 11.085 42.048 13.9924C42.048 16.8999 38.9053 19.2568 35.0287 19.2568C31.1521 19.2568 28.0095 16.8999 28.0095 13.9924C28.0095 11.085 31.1521 8.72801 35.0287 8.72801Z" fill="url(#paint3_radial_7186_22690)"/>
      <path d="M32.9519 13.4804C32.9129 14.3722 32.3205 14.6943 31.6311 14.6943C30.9416 14.6943 30.4171 14.2393 30.4561 13.3474C30.4951 12.4556 31.089 11.8656 31.7785 11.8656C32.4679 11.8656 32.9948 12.5886 32.9519 13.4804Z" fill="#842123"/>
      <path d="M39.5998 13.3473C39.6388 14.2392 39.1155 14.6958 38.4264 14.6958C37.7374 14.6958 37.1454 14.3721 37.1041 13.4803C37.0628 12.5885 37.5884 11.8651 38.2775 11.8651C38.9665 11.8651 39.5585 12.4551 39.5998 13.3469V13.3473Z" fill="#842123"/>
      <path d="M32.9538 13.5583C32.9148 14.3932 32.3614 14.6958 31.7165 14.6958C31.0715 14.6958 30.5797 14.2423 30.6183 13.4089C30.6569 12.5756 31.2107 12.0281 31.8557 12.0281C32.5007 12.0281 32.9924 12.7246 32.9538 13.5595V13.5583Z" fill="url(#paint4_radial_7186_22690)"/>
      <path d="M37.1037 13.5583C37.1427 14.3932 37.696 14.6958 38.341 14.6958C38.986 14.6958 39.4777 14.2423 39.4391 13.4089C39.4005 12.5756 38.8468 12.0281 38.2018 12.0281C37.5568 12.0281 37.0651 12.7246 37.1037 13.5595V13.5583Z" fill="url(#paint5_radial_7186_22690)"/>
      <path d="M32.2573 12.4979C32.4081 12.4979 32.5303 12.6313 32.5303 12.7958C32.5303 12.9604 32.4081 13.0938 32.2573 13.0938C32.1066 13.0938 31.9844 12.9604 31.9844 12.7958C31.9844 12.6313 32.1066 12.4979 32.2573 12.4979Z" fill="#FFC49C"/>
      <path d="M38.7481 12.4979C38.8988 12.4979 39.021 12.6313 39.021 12.7958C39.021 12.9604 38.8988 13.0938 38.7481 13.0938C38.5973 13.0938 38.4751 12.9604 38.4751 12.7958C38.4751 12.6313 38.5973 12.4979 38.7481 12.4979Z" fill="#FFC49C"/>
      <path d="M35.0285 15.2909C34.1582 15.2909 33.324 15.333 32.5527 15.4079C32.5223 15.4105 32.4929 15.4202 32.4669 15.4362C32.4409 15.4522 32.419 15.4741 32.4031 15.5002C32.3871 15.5262 32.3775 15.5556 32.3749 15.5861C32.3724 15.6165 32.3771 15.6471 32.3885 15.6754C32.6137 16.1881 32.9832 16.6241 33.452 16.9302C33.9208 17.2364 34.4686 17.3994 35.0285 17.3994C35.5885 17.3994 36.1363 17.2364 36.6051 16.9302C37.0739 16.6241 37.4434 16.1881 37.6686 15.6754C37.68 15.6471 37.6847 15.6165 37.6822 15.5861C37.6796 15.5556 37.67 15.5262 37.654 15.5002C37.6381 15.4741 37.6162 15.4522 37.5902 15.4362C37.5642 15.4202 37.5348 15.4105 37.5044 15.4079C36.733 15.3299 35.8989 15.2909 35.0285 15.2909Z" fill="#BBCFDA"/>
      <path d="M35.0287 15.4844C34.2049 15.4833 33.3816 15.5235 32.5618 15.6049C32.531 15.6078 32.5013 15.618 32.4751 15.6345C32.4489 15.651 32.4269 15.6735 32.411 15.7C32.3951 15.7266 32.3856 15.7565 32.3833 15.7874C32.3811 15.8183 32.3861 15.8493 32.3981 15.8779C32.6152 16.3969 32.9809 16.8401 33.4493 17.1518C33.9176 17.4636 34.4677 17.6299 35.0303 17.6299C35.5929 17.6299 36.1429 17.4636 36.6113 17.1518C37.0796 16.8401 37.4453 16.3969 37.6625 15.8779C37.6743 15.8493 37.6793 15.8183 37.677 15.7875C37.6747 15.7566 37.6652 15.7267 37.6493 15.7001C37.6334 15.6736 37.6115 15.6512 37.5853 15.6346C37.5592 15.6181 37.5295 15.6079 37.4987 15.6049C36.6786 15.5234 35.8548 15.4832 35.0307 15.4844H35.0287Z" fill="white"/>
      <path d="M35.0287 15.3839C34.2174 15.3823 33.4066 15.4213 32.5993 15.5008C32.5691 15.5039 32.5401 15.5139 32.5145 15.5301C32.4889 15.5463 32.4674 15.5683 32.4518 15.5943C32.4361 15.6202 32.4268 15.6495 32.4244 15.6797C32.4221 15.7099 32.4268 15.7403 32.4382 15.7683C32.6517 16.2795 33.0115 16.7161 33.4726 17.0232C33.9336 17.3303 34.4752 17.4941 35.0291 17.4941C35.583 17.4941 36.1246 17.3303 36.5856 17.0232C37.0466 16.7161 37.4065 16.2795 37.62 15.7683C37.6314 15.7403 37.6361 15.7099 37.6338 15.6797C37.6314 15.6495 37.622 15.6202 37.6064 15.5943C37.5908 15.5683 37.5693 15.5463 37.5437 15.5301C37.5181 15.5139 37.4891 15.5039 37.4589 15.5008C36.6514 15.4211 35.8405 15.3821 35.0291 15.3839H35.0287Z" fill="url(#paint6_radial_7186_22690)"/>
      <path d="M38.8729 4.52756C39.8352 4.52756 40.6153 5.30762 40.6153 6.26988C40.6153 7.23214 39.8352 8.01221 38.8729 8.01221C37.9107 8.01221 37.1306 7.23214 37.1306 6.26988C37.1306 5.30762 37.9107 4.52756 38.8729 4.52756Z" fill="url(#paint7_radial_7186_22690)"/>
      <path d="M35.0036 8.94971C34.795 8.94971 34.6257 8.86236 34.6257 8.72782C34.6266 7.97733 34.9251 7.25781 35.4557 6.72713C35.9864 6.19645 36.7059 5.89795 37.4564 5.89713C37.5566 5.89713 37.6528 5.93694 37.7236 6.0078C37.7945 6.07867 37.8343 6.17478 37.8343 6.275C37.8343 6.37521 37.7945 6.47132 37.7236 6.54219C37.6528 6.61305 37.5566 6.65286 37.4564 6.65286C36.9063 6.65348 36.3788 6.87228 35.9898 7.26127C35.6007 7.65025 35.3818 8.17766 35.3811 8.72782C35.3811 8.86236 35.2118 8.94971 35.0032 8.94971H35.0036Z" fill="url(#paint8_radial_7186_22690)"/>
      <path d="M32.4951 13.9715C32.4951 14.2944 32.1516 14.4395 31.7273 14.4395C31.303 14.4395 30.9595 14.2944 30.9595 13.9715C30.9595 13.6486 31.303 13.3866 31.7273 13.3866C32.1516 13.3866 32.4951 13.6486 32.4951 13.9715Z" fill="#FF6101"/>
      <path d="M39.0974 13.9715C39.0974 14.2944 38.7539 14.4395 38.3296 14.4395C37.9053 14.4395 37.5618 14.2944 37.5618 13.9715C37.5618 13.6486 37.9053 13.3866 38.3296 13.3866C38.7539 13.3866 39.0974 13.6486 39.0974 13.9715Z" fill="#FF6101"/>
    </g>
  </g>
</svg>
