<svg xmlns="http://www.w3.org/2000/svg" width="24" height="24" viewBox="0 0 24 24" fill="none">
  <g style="mix-blend-mode:multiply">
    <path d="M13.805 22.195C19.4355 21.1981 23.1919 15.8255 22.195 10.195C21.1981 4.56446 15.8256 0.80812 10.195 1.80499C4.56446 2.80186 0.808124 8.17445 1.80499 13.805C2.80186 19.4355 8.17445 23.1919 13.805 22.195Z" fill="#B8B8B8"/>
  </g>
  <path d="M11.9999 22.3829C17.7271 22.3829 22.3699 17.74 22.3699 12.0128C22.3699 6.28562 17.7271 1.64279 11.9999 1.64279C6.27269 1.64279 1.62987 6.28562 1.62987 12.0128C1.62987 17.74 6.27269 22.3829 11.9999 22.3829Z" fill="url(#paint0_linear_4491_23065)"/>
  <path d="M8.10129 13.3863L9.21191 16.7831C9.23023 16.8389 9.26188 16.8893 9.30412 16.9301C9.34635 16.9709 9.3979 17.0007 9.45428 17.017C9.51067 17.0334 9.57018 17.0357 9.62767 17.0238C9.68515 17.0119 9.73887 16.9862 9.78415 16.9488L13.0986 14.2103C13.0986 14.2103 9.57448 12.8369 9.57448 12.9101C9.57448 12.9834 8.10129 13.3863 8.10129 13.3863Z" fill="#B5D1DB"/>
  <path d="M16.8526 6.85347C14.6863 7.71047 7.69659 10.5754 5.04869 11.6604C4.9719 11.692 4.90671 11.7465 4.86197 11.8165C4.81723 11.8865 4.79511 11.9686 4.79861 12.0515C4.80211 12.1345 4.83106 12.2144 4.88153 12.2804C4.932 12.3464 5.00155 12.3952 5.08074 12.4203L8.1022 13.3826L9.20916 16.7703C9.22959 16.8332 9.26669 16.8894 9.3165 16.9329C9.36632 16.9765 9.42699 17.0057 9.49208 17.0175C9.59371 17.0367 9.74387 14.2753 9.74387 14.2753C9.74387 14.2753 12.9201 16.6311 14.4262 17.7436C14.5115 17.8066 14.6114 17.847 14.7165 17.861C14.8216 17.875 14.9285 17.8621 15.0273 17.8236C15.1262 17.7852 15.2136 17.7223 15.2816 17.6409C15.3495 17.5595 15.3958 17.4622 15.416 17.3581L17.3699 7.28655C17.3836 7.21883 17.3789 7.14864 17.356 7.0834C17.3332 7.01817 17.2932 6.96032 17.2402 6.91595C17.1872 6.87159 17.1232 6.84236 17.055 6.83137C16.9867 6.82037 16.9168 6.82801 16.8526 6.85347Z" fill="white"/>
  <path d="M9.49116 17.0157C9.59279 17.0349 9.74295 14.2735 9.74295 14.2735L14.9618 9.37227C14.9696 9.36557 14.9744 9.35619 14.9755 9.34603C14.9766 9.33587 14.9737 9.32569 14.9675 9.31754C14.9614 9.3094 14.9523 9.3039 14.9423 9.30216C14.9322 9.30042 14.9219 9.30258 14.9133 9.30818L8.10129 13.3862L9.20824 16.7739C9.2295 16.8358 9.26696 16.8909 9.31672 16.9334C9.36647 16.9759 9.42671 17.0043 9.49116 17.0157Z" fill="#D6E2EA"/>
  <defs>
    <linearGradient id="paint0_linear_4491_23065" x1="22.5" y1="22.2821" x2="1.50005" y2="1.28207" gradientUnits="userSpaceOnUse">
      <stop stop-color="#006BB3"/>
      <stop offset="1" stop-color="#1D9BF0"/>
    </linearGradient>
  </defs>
</svg>
