<svg width="14" height="14" viewBox="0 0 14 14" fill="none" xmlns="http://www.w3.org/2000/svg">
<path d="M11.7899 9.03922C8.7092 7.84183 5.29168 7.84183 2.21094 9.03922" stroke="#838C95" stroke-linecap="round" stroke-linejoin="round"/>
<path d="M2.33327 8.43632L1.7826 10.7943C1.73444 11.0053 1.74458 11.2254 1.81195 11.4311C1.87931 11.6368 2.00137 11.8203 2.16503 11.9619C2.3287 12.1036 2.52781 12.198 2.74104 12.2351C2.95427 12.2723 3.17358 12.2507 3.37548 12.1727C5.71971 11.3382 8.28013 11.3382 10.6244 12.1727C10.8263 12.2507 11.0456 12.2723 11.2588 12.2352C11.472 12.198 11.6712 12.1036 11.8348 11.962C11.9985 11.8203 12.1206 11.6369 12.1879 11.4312C12.2553 11.2255 12.2654 11.0053 12.2173 10.7943C12.0193 9.9465 11.8236 9.10856 11.6666 8.43622" stroke="#838C95" stroke-linecap="round" stroke-linejoin="round"/>
<path d="M11.6663 8.43617V6.41667C11.6663 5.17899 11.1747 3.992 10.2995 3.11684C9.42434 2.24167 8.23735 1.75 6.99967 1.75C5.762 1.75 4.57501 2.24167 3.69984 3.11684C2.82467 3.992 2.33301 5.17899 2.33301 6.41667V8.43629" stroke="#838C95" stroke-linecap="round" stroke-linejoin="round"/>
<path d="M5.25 8.2448V5.94096C5.25001 4.52564 5.76458 3.15859 6.69783 2.09455L7 1.75" stroke="#838C95" stroke-linecap="round" stroke-linejoin="round"/>
<path d="M8.75 8.2448V5.94096C8.74999 4.52564 8.23542 3.15859 7.30217 2.09455L7 1.75" stroke="#838C95" stroke-linecap="round" stroke-linejoin="round"/>
</svg>
