<svg xmlns="http://www.w3.org/2000/svg" width="22" height="22" viewBox="0 0 22 22" fill="none">
  <g clip-path="url(#clip0_1503_1316)">
    <path d="M20.3957 11.6875H7.104C6.92167 11.6875 6.7468 11.6151 6.61787 11.4861C6.48894 11.3572 6.4165 11.1823 6.4165 11C6.4165 10.8177 6.48894 10.6428 6.61787 10.5139C6.7468 10.3849 6.92167 10.3125 7.104 10.3125H20.3957C20.578 10.3125 20.7529 10.3849 20.8818 10.5139C21.0107 10.6428 21.0832 10.8177 21.0832 11C21.0832 11.1823 21.0107 11.3572 20.8818 11.4861C20.7529 11.6151 20.578 11.6875 20.3957 11.6875Z" fill="currentColor"/>
    <path d="M10.771 15.354C10.6807 15.3543 10.5913 15.3365 10.5079 15.3019C10.4245 15.2673 10.3488 15.2165 10.2852 15.1524L6.61851 11.4857C6.55462 11.4219 6.50394 11.346 6.46937 11.2626C6.43479 11.1792 6.41699 11.0897 6.41699 10.9994C6.41699 10.9091 6.43479 10.8197 6.46937 10.7362C6.50394 10.6528 6.55462 10.577 6.61851 10.5131L10.2852 6.84645C10.349 6.78259 10.4249 6.73193 10.5083 6.69737C10.5917 6.66281 10.6812 6.64502 10.7715 6.64502C10.8618 6.64502 10.9512 6.66281 11.0346 6.69737C11.1181 6.73193 11.1939 6.78259 11.2578 6.84645C11.3216 6.91031 11.3723 6.98612 11.4068 7.06956C11.4414 7.153 11.4592 7.24243 11.4592 7.33274C11.4592 7.42305 11.4414 7.51248 11.4068 7.59592C11.3723 7.67936 11.3216 7.75517 11.2578 7.81903L8.07693 10.9999L11.2578 14.1807C11.3538 14.2769 11.4192 14.3994 11.4457 14.5328C11.4721 14.6662 11.4584 14.8044 11.4063 14.93C11.3543 15.0556 11.2661 15.1629 11.153 15.2384C11.0399 15.3138 10.907 15.3541 10.771 15.354Z" fill="currentColor"/>
    <path d="M10.0833 21.0832C4.52375 21.0832 0 16.5594 0 10.9998C0 5.44025 4.52375 0.916504 10.0833 0.916504C14.2551 0.916504 17.9383 3.42634 19.4682 7.31117C19.5244 7.47853 19.5141 7.66108 19.4396 7.82111C19.365 7.98113 19.2318 8.10639 19.0675 8.171C18.9032 8.23561 18.7204 8.23464 18.5568 8.16827C18.3932 8.10191 18.2613 7.97523 18.1885 7.81442C17.5537 6.18272 16.4395 4.78161 14.9926 3.7957C13.5458 2.8098 11.8342 2.28537 10.0833 2.2915C5.28183 2.2915 1.375 6.19834 1.375 10.9998C1.375 15.8013 5.28183 19.7082 10.0833 19.7082C11.834 19.7144 13.5456 19.1901 14.9924 18.2043C16.4393 17.2186 17.5536 15.8177 18.1885 14.1862C18.2552 14.0165 18.3866 13.8802 18.5538 13.8074C18.721 13.7346 18.9103 13.7312 19.08 13.798C19.2497 13.8647 19.3859 13.9961 19.4587 14.1633C19.5315 14.3305 19.5349 14.5197 19.4682 14.6894C18.733 16.5786 17.4428 18.2007 15.7675 19.342C14.0922 20.4834 12.1105 21.0904 10.0833 21.0832Z" fill="currentColor"/>
  </g>
  <defs>
    <clipPath id="clip0_1503_1316">
      <rect width="22" height="22" fill="currentColor"/>
    </clipPath>
  </defs>
</svg>
