<svg xmlns="http://www.w3.org/2000/svg" xmlns:xlink="http://www.w3.org/1999/xlink" version="1.1" id="prefix__Layer_1"
  x="0" y="0" viewBox="0 0 2500 2500" xml:space="preserve">
  <style></style>
  <g id="prefix__Layer_x0020_1">
    <defs>
      <path id="prefix__SVGID_1_"
        d="M1250 2500C559.6 2500 0 1940.4 0 1250S559.6 0 1250 0s1250 559.6 1250 1250-559.6 1250-1250 1250z" />
    </defs>
    <clipPath id="prefix__SVGID_00000137130877621503601290000017679510272143242652_">
      <use xlink:href="#prefix__SVGID_1_" overflow="visible" />
    </clipPath>
    <g clip-path="url(#prefix__SVGID_00000137130877621503601290000017679510272143242652_)" fill-rule="evenodd"
      clip-rule="evenodd">
      <path fill="#fefeff" d="M1250 1250l-1768-10.9 1.6-65z" />
      <path id="prefix___1" fill="#fdfeff" d="M1250 1250l-1766.7-65.1 2.7-54.2z" />
      <path id="prefix___2" fill="#fcfdff" d="M1250 1250l-1764.6-108.4 4-54.1z" />
      <path id="prefix___3" fill="#fbfcff" d="M1250 1250l-1761.4-151.7 5.3-54z" />
      <path id="prefix___4" fill="#fafcff" d="M1250 1250l-1757.1-194.9 6.6-53.8z" />
      <path id="prefix___5" fill="#f9fbff" d="M1250 1250l-1751.8-237.9 7.9-53.7z" />
      <path id="prefix___6" fill="#f8faff" d="M1250 1250L-495.4 969.1l9.2-53.4z" />
      <path id="prefix___7" fill="#f7faff" d="M1250 1250L-488 926.4l10.5-53.2z" />
      <path id="prefix___8" fill="#f6f9ff" d="M1250 1250L-479.6 883.9l11.9-53z" />
      <path id="prefix___9" fill="#f5f8ff" d="M1250 1250L-470.1 841.5l13.2-52.6z" />
      <path id="prefix___10" fill="#f4f8ff" d="M1250 1250L-459.5 799.4l14.4-52.3z" />
      <path id="prefix___11" fill="#f3f7ff" d="M1250 1250L-448 757.6l15.8-51.9z" />
      <path id="prefix___12" fill="#f2f6ff" d="M1250 1250L-435.4 716.1l17.1-51.5z" />
      <path id="prefix___13" fill="#f1f6ff" d="M1250 1250L-421.8 674.9l18.3-51.1z" />
      <path id="prefix___14" fill="#f0f5ff" d="M1250 1250L-407.1 634l19.5-50.6z" />
      <path id="prefix___15" fill="#eff4ff" d="M1250 1250L-391.5 593.5l20.7-50.1z" />
      <path id="prefix___16" fill="#eef3ff" d="M1250 1250L-374.9 553.4l22-49.5z" />
      <path id="prefix___17" fill="#edf3ff" d="M1250 1250L-357.3 513.8l23.2-49z" />
      <path id="prefix___18" fill="#ecf2ff" d="M1250 1250L-338.8 474.6l24.4-48.5z" />
      <path id="prefix___19" fill="#ebf1ff" d="M1250 1250L-319.3 435.8l25.6-47.8z" />
      <path id="prefix___20" fill="#eaf1ff" d="M1250 1250L-298.8 397.6l26.7-47.3z" />
      <path id="prefix___21" fill="#e9f0ff" d="M1250 1250L-277.4 359.8l27.9-46.5z" />
      <path id="prefix___22" fill="#e8efff" d="M1250 1250L-255.1 322.6l29-45.9z" />
      <path id="prefix___23" fill="#e7efff" d="M1250 1250L-231.9 285.9l30.2-45.1z" />
      <path id="prefix___24" fill="#e6eeff" d="M1250 1250L-207.8 249.8l31.2-44.3z" />
      <path id="prefix___25" fill="#e5edff" d="M1250 1250L-182.8 214.4l32.3-43.6z" />
      <path id="prefix___26" fill="#e4edff" d="M1250 1250L-157 179.5l33.4-42.8z" />
      <path id="prefix___27" fill="#e3ecff" d="M1250 1250L-130.3 145.3l34.4-41.9z" />
      <path id="prefix___28" fill="#e2ebff" d="M1250 1250L-102.7 111.8l35.4-41.1z" />
      <path id="prefix___29" fill="#e1ebff" d="M1250 1250L-74.4 78.9-38 38.7z" />
      <path id="prefix___30" fill="#e0eaff" d="M1250 1250L-45.3 46.8-7.9 7.5z" />
      <path id="prefix___31" fill="#dfe9ff" d="M1250 1250L-15.4 15.4 23-23z" />
      <path id="prefix___32" fill="#dee9ff" d="M1250 1250L15.4-15.4l39.2-37.3z" />
      <path id="prefix___33" fill="#dde8ff" d="M1250 1250L46.8-45.3 87-81.7z" />
      <path id="prefix___34" fill="#dce7ff" d="M1250 1250L78.9-74.4l41.1-35.4z" />
      <path id="prefix___35" fill="#dbe7ff" d="M1250 1250L111.8-102.7l41.9-34.4z" />
      <path id="prefix___36" fill="#dae6ff" d="M1250 1250L145.3-130.3l42.8-33.3z" />
      <path id="prefix___37" fill="#d9e5ff" d="M1250 1250L179.5-157l43.6-32.3z" />
      <path id="prefix___38" fill="#d8e5ff" d="M1250 1250L214.4-182.8l44.3-31.2z" />
      <path id="prefix___39" fill="#d7e4ff" d="M1250 1250L249.8-207.8l45.1-30.1z" />
      <path id="prefix___40" fill="#d6e3ff" d="M1250 1250L285.9-231.9l45.9-29z" />
      <path id="prefix___41" fill="#d5e3ff" d="M1250 1250L322.6-255.1l46.5-27.9z" />
      <path id="prefix___42" fill="#d4e2ff" d="M1250 1250L359.8-277.4l47.2-26.7z" />
      <path id="prefix___43" fill="#d3e1ff" d="M1250 1250L397.6-298.8l47.8-25.6z" />
      <path id="prefix___44" fill="#d2e0ff" d="M1250 1250L435.8-319.3l48.5-24.3z" />
      <path id="prefix___45" fill="#d1e0ff" d="M1250 1250L474.6-338.8l49-23.1z" />
      <path id="prefix___46" fill="#d0dfff" d="M1250 1250L513.8-357.3l49.6-22z" />
      <path id="prefix___47" fill="#cfdeff" d="M1250 1250L553.4-374.9l50.2-20.8z" />
      <path id="prefix___48" fill="#cedeff" d="M1250 1250L593.5-391.5l50.7-19.5z" />
      <path id="prefix___49" fill="#cdddff" d="M1250 1250L634-407.1l51.1-18.3z" />
      <path id="prefix___50" fill="#ccdcff" d="M1250 1250L674.9-421.8l51.5-16.9z" />
      <path id="prefix___51" fill="#cbdcff" d="M1250 1250L716.1-435.4l51.9-15.7z" />
      <path id="prefix___52" fill="#cadbff" d="M1250 1250L757.6-448l52.3-14.4z" />
      <path id="prefix___53" fill="#c9daff" d="M1250 1250L799.4-459.5l52.6-13.2z" />
      <path id="prefix___54" fill="#c8daff" d="M1250 1250L841.5-470.1l52.9-11.8z" />
      <path id="prefix___55" fill="#c7d9ff" d="M1250 1250L883.9-479.6l53.1-10.5z" />
      <path id="prefix___56" fill="#c6d8ff" d="M1250 1250L926.4-488l53.4-9.3z" />
      <path id="prefix___57" fill="#c5d8ff" d="M1250 1250L969.1-495.4l53.7-8z" />
      <path id="prefix___58" fill="#c4d7ff" d="M1250 1250L1012.1-501.8l53.8-6.6z" />
      <path id="prefix___59" fill="#c3d6ff" d="M1250 1250L1055.1-507.1l54-5.3z" />
      <path id="prefix___60" fill="#c2d6ff" d="M1250 1250L1098.3-511.4l54.1-4z" />
      <path id="prefix___61" fill="#c1d5ff" d="M1250 1250L1141.6-514.6l54.2-2.6z" />
      <path id="prefix___62" fill="#c0d4ff" d="M1250 1250l-65.1-1766.7 54.2-1.3z" />
      <path id="prefix___63" fill="#bfd4ff" d="M1250 1250l-21.7-1767.8h54.2z" />
      <path id="prefix___64" fill="#bed3ff" d="M1250 1250l21.7-1767.8 54.2 1.4z" />
      <path id="prefix___65" fill="#bdd2ff" d="M1250 1250l65.1-1766.7 54.1 2.7z" />
      <path id="prefix___66" fill="#bcd2ff" d="M1250 1250l108.4-1764.6 54.1 4z" />
      <path id="prefix___67" fill="#bbd1ff" d="M1250 1250l151.7-1761.4 54 5.3z" />
      <path id="prefix___68" fill="#bad0ff" d="M1250 1250l194.8-1757.1 53.9 6.6z" />
      <path id="prefix___69" fill="#b9d0ff" d="M1250 1250l237.9-1751.8 53.7 7.9z" />
      <path id="prefix___70" fill="#b8cfff" d="M1250 1250l280.8-1745.4 53.5 9.2z" />
      <path id="prefix___71" fill="#b7ceff" d="M1250 1250l323.6-1738 53.2 10.5z" />
      <path id="prefix___72" fill="#b6cdff" d="M1250 1250l366.1-1729.6 53 11.9z" />
      <path id="prefix___73" fill="#b5cdff" d="M1250 1250l408.5-1720.1 52.6 13.2z" />
      <path id="prefix___74" fill="#b4ccff" d="M1250 1250l450.6-1709.5 52.2 14.4z" />
      <path id="prefix___75" fill="#b3cbff" d="M1250 1250l492.4-1698 51.9 15.8z" />
      <path id="prefix___76" fill="#b2cbff" d="M1250 1250l533.9-1685.4 51.5 17.1z" />
      <path id="prefix___77" fill="#b1caff" d="M1250 1250l575.1-1671.8 51.1 18.3z" />
      <path id="prefix___78" fill="#b0c9ff" d="M1250 1250l616-1657.1 50.6 19.5z" />
      <path id="prefix___79" fill="#afc9ff" d="M1250 1250l656.4-1641.5 50.2 20.7z" />
      <path id="prefix___80" fill="#aec8ff" d="M1250 1250l696.5-1624.9 49.6 22z" />
      <path id="prefix___81" fill="#adc7ff" d="M1250 1250l736.2-1607.3 49 23.2z" />
      <path id="prefix___82" fill="#acc7ff" d="M1250 1250l775.4-1588.8 48.5 24.4z" />
      <path id="prefix___83" fill="#abc6ff" d="M1250 1250l814.2-1569.3 47.8 25.6z" />
      <path id="prefix___84" fill="#aac5ff" d="M1250 1250l852.4-1548.8 47.3 26.7z" />
      <path id="prefix___85" fill="#a9c5ff" d="M1250 1250l890.2-1527.4 46.5 27.9z" />
      <path id="prefix___86" fill="#a8c4ff" d="M1250 1250l927.4-1505.1 45.8 29z" />
      <path id="prefix___87" fill="#a7c3ff" d="M1250 1250l964.1-1481.9 45.1 30.2z" />
      <path id="prefix___88" fill="#a6c3ff" d="M1250 1250L2250.2-207.8l44.3 31.2z" />
      <path id="prefix___89" fill="#a5c2ff" d="M1250 1250L2285.6-182.8l43.6 32.3z" />
      <path id="prefix___90" fill="#a4c1ff" d="M1250 1250L2320.5-157l42.7 33.4z" />
      <path id="prefix___91" fill="#a3c1ff" d="M1250 1250L2354.7-130.3l41.9 34.4z" />
      <path id="prefix___92" fill="#a2c0ff" d="M1250 1250L2388.2-102.7l41.1 35.4z" />
      <path id="prefix___93" fill="#a1bfff" d="M1250 1250L2421.1-74.4l40.2 36.4z" />
      <path id="prefix___94" fill="#a0bfff" d="M1250 1250L2453.2-45.3l39.3 37.4z" />
      <path id="prefix___95" fill="#9fbeff" d="M1250 1250L2484.6-15.4 2523 23z" />
      <path id="prefix___96" fill="#9ebdff" d="M1250 1250L2515.3 15.4l37.4 39.2z" />
      <path id="prefix___97" fill="#9dbdff" d="M1250 1250L2545.3 46.8l36.4 40.2z" />
      <path id="prefix___98" fill="#9cbcff" d="M1250 1250L2574.4 78.9l35.4 41.1z" />
      <path id="prefix___99" fill="#9bbbff" d="M1250 1250L2602.7 111.8l34.4 41.9z" />
      <path id="prefix___100" fill="#9abaff" d="M1250 1250L2630.3 145.3l33.3 42.8z" />
      <path id="prefix___101" fill="#99baff" d="M1250 1250L2657 179.5l32.3 43.6z" />
      <path id="prefix___102" fill="#98b9ff" d="M1250 1250L2682.8 214.4l31.2 44.3z" />
      <path id="prefix___103" fill="#97b8ff" d="M1250 1250L2707.8 249.8l30.1 45.1z" />
      <path id="prefix___104" fill="#96b8ff" d="M1250 1250l1481.9-964.1 29 45.9z" />
      <path id="prefix___105" fill="#95b7ff" d="M1250 1250l1505.1-927.4 27.9 46.5z" />
      <path id="prefix___106" fill="#94b6ff" d="M1250 1250l1527.4-890.2 26.7 47.2z" />
      <path id="prefix___107" fill="#93b6ff" d="M1250 1250l1548.8-852.4 25.5 47.8z" />
      <path id="prefix___108" fill="#92b5ff" d="M1250 1250l1569.2-814.2 24.4 48.5z" />
      <path id="prefix___109" fill="#91b4ff" d="M1250 1250l1588.8-775.4 23.1 49z" />
      <path id="prefix___110" fill="#90b4ff" d="M1250 1250l1607.3-736.2 22 49.6z" />
      <path id="prefix___111" fill="#8fb3ff" d="M1250 1250l1624.9-696.6 20.7 50.2z" />
      <path id="prefix___112" fill="#8eb2ff" d="M1250 1250l1641.5-656.5 19.5 50.7z" />
      <path id="prefix___113" fill="#8db2ff" d="M1250 1250l1657.1-616 18.3 51.1z" />
      <path id="prefix___114" fill="#8cb1ff" d="M1250 1250l1671.7-575.1 17 51.5z" />
      <path id="prefix___115" fill="#8bb0ff" d="M1250 1250l1685.3-533.9 15.8 51.9z" />
      <path id="prefix___116" fill="#8ab0ff" d="M1250 1250l1697.9-492.4 14.5 52.3z" />
      <path id="prefix___117" fill="#89afff" d="M1250 1250l1709.5-450.6 13.2 52.6z" />
      <path id="prefix___118" fill="#88aeff" d="M1250 1250l1720.1-408.5 11.8 52.9z" />
      <path id="prefix___119" fill="#87aeff" d="M1250 1250l1729.5-366.1 10.6 53.1z" />
      <path id="prefix___120" fill="#86adff" d="M1250 1250l1738-323.6 9.3 53.4z" />
      <path id="prefix___121" fill="#85acff" d="M1250 1250l1745.4-280.9 8 53.7z" />
      <path id="prefix___122" fill="#84acff" d="M1250 1250l1751.8-237.9 6.6 53.8z" />
      <path id="prefix___123" fill="#83abff" d="M1250 1250l1757.1-194.9 5.3 54z" />
      <path id="prefix___124" fill="#82aaff" d="M1250 1250l1761.4-151.7 4 54.1z" />
      <path id="prefix___125" fill="#81aaff" d="M1250 1250l1764.6-108.4 2.6 54.2z" />
      <path id="prefix___126" fill="#80a9ff" d="M1250 1250l1766.7-65.1 1.3 54.2z" />
      <path id="prefix___127" fill="#7fa8ff" d="M1250 1250l1767.7-21.7v54.2z" />
      <path id="prefix___128" fill="#7ea7ff" d="M1250 1250l1767.7 21.7-1.3 54.2z" />
      <path id="prefix___129" fill="#7da7ff" d="M1250 1250l1766.7 65.1-2.7 54.1z" />
      <path id="prefix___130" fill="#7ca6ff" d="M1250 1250l1764.6 108.4-4 54.1z" />
      <path id="prefix___131" fill="#7ba5ff" d="M1250 1250l1761.4 151.7-5.3 54z" />
      <path id="prefix___132" fill="#7aa5ff" d="M1250 1250l1757.1 194.8-6.6 53.9z" />
      <path id="prefix___133" fill="#79a4ff" d="M1250 1250l1751.8 237.9-8 53.7z" />
      <path id="prefix___134" fill="#78a3ff" d="M1250 1250l1745.4 280.8-9.2 53.5z" />
      <path id="prefix___135" fill="#77a3ff" d="M1250 1250l1738 323.6-10.6 53.2z" />
      <path id="prefix___136" fill="#76a2ff" d="M1250 1250l1729.5 366.1-11.8 53z" />
      <path id="prefix___137" fill="#75a1ff" d="M1250 1250l1720.1 408.5-13.2 52.6z" />
      <path id="prefix___138" fill="#74a1ff" d="M1250 1250l1709.5 450.6-14.4 52.2z" />
      <path id="prefix___139" fill="#73a0ff" d="M1250 1250l1697.9 492.4-15.7 51.9z" />
      <path id="prefix___140" fill="#729fff" d="M1250 1250l1685.3 533.9-17 51.5z" />
      <path id="prefix___141" fill="#719fff" d="M1250 1250l1671.7 575.1-18.2 51.1z" />
      <path id="prefix___142" fill="#709eff" d="M1250 1250l1657.1 616-19.5 50.6z" />
      <path id="prefix___143" fill="#6f9dff" d="M1250 1250l1641.5 656.4-20.8 50.2z" />
      <path id="prefix___144" fill="#6e9dff" d="M1250 1250l1624.9 696.5-22 49.6z" />
      <path id="prefix___145" fill="#6d9cff" d="M1250 1250l1607.3 736.2-23.2 49z" />
      <path id="prefix___146" fill="#6c9bff" d="M1250 1250l1588.8 775.4-24.4 48.5z" />
      <path id="prefix___147" fill="#6b9bff" d="M1250 1250l1569.2 814.2-25.5 47.8z" />
      <path id="prefix___148" fill="#6a9aff" d="M1250 1250l1548.8 852.4-26.7 47.3z" />
      <path id="prefix___149" fill="#6999ff" d="M1250 1250l1527.4 890.2-27.9 46.5z" />
      <path id="prefix___150" fill="#6899ff" d="M1250 1250l1505.1 927.4-29 45.8z" />
      <path id="prefix___151" fill="#6798ff" d="M1250 1250l1481.9 964.1-30.2 45.1z" />
      <path id="prefix___152" fill="#6697ff" d="M1250 1250l1457.8 1000.2-31.2 44.3z" />
      <path id="prefix___153" fill="#6597ff" d="M1250 1250l1432.8 1035.6-32.3 43.6z" />
      <path id="prefix___154" fill="#6496ff" d="M1250 1250l1407 1070.5-33.4 42.7z" />
      <path id="prefix___155" fill="#6395ff" d="M1250 1250l1380.3 1104.7-34.4 41.9z" />
      <path id="prefix___156" fill="#6294ff" d="M1250 1250l1352.7 1138.2-35.4 41.1z" />
      <path id="prefix___157" fill="#6194ff" d="M1250 1250l1324.4 1171.1-36.4 40.2z" />
      <path id="prefix___158" fill="#6093ff" d="M1250 1250l1295.3 1203.2-37.4 39.3z" />
      <path id="prefix___159" fill="#5f92ff" d="M1250 1250l1265.3 1234.6-38.3 38.4z" />
      <path id="prefix___160" fill="#5e92ff" d="M1250 1250l1234.6 1265.3-39.2 37.4z" />
      <path id="prefix___161" fill="#5d91ff" d="M1250 1250l1203.2 1295.3-40.2 36.4z" />
      <path id="prefix___162" fill="#5c90ff" d="M1250 1250l1171.1 1324.4-41.1 35.4z" />
      <path id="prefix___163" fill="#5b90ff" d="M1250 1250l1138.2 1352.7-41.9 34.4z" />
      <path id="prefix___164" fill="#5a8fff" d="M1250 1250l1104.7 1380.3-42.8 33.3z" />
      <path id="prefix___165" fill="#598eff" d="M1250 1250l1070.5 1407-43.6 32.3z" />
      <path id="prefix___166" fill="#588eff" d="M1250 1250l1035.6 1432.8-44.3 31.2z" />
      <path id="prefix___167" fill="#578dff" d="M1250 1250l1000.2 1457.8-45.2 30.1z" />
      <path id="prefix___168" fill="#568cff" d="M1250 1250l964.1 1481.9-45.9 29z" />
      <path id="prefix___169" fill="#558cff" d="M1250 1250l927.4 1505.1-46.5 27.9z" />
      <path id="prefix___170" fill="#548bff" d="M1250 1250l890.2 1527.4-47.2 26.7z" />
      <path id="prefix___171" fill="#538aff" d="M1250 1250l852.4 1548.8-47.8 25.5z" />
      <path id="prefix___172" fill="#528aff" d="M1250 1250l814.2 1569.2-48.5 24.4z" />
      <path id="prefix___173" fill="#5189ff" d="M1250 1250l775.4 1588.8-49 23.1z" />
      <path id="prefix___174" fill="#5088ff" d="M1250 1250l736.2 1607.3-49.6 22z" />
      <path id="prefix___175" fill="#4f88ff" d="M1250 1250l696.5 1624.9-50.1 20.7z" />
      <path id="prefix___176" fill="#4e87ff" d="M1250 1250l656.4 1641.5-50.6 19.5z" />
      <path id="prefix___177" fill="#4d86ff" d="M1250 1250l616 1657.1-51.1 18.3z" />
      <path id="prefix___178" fill="#4c86ff" d="M1250 1250l575.1 1671.7-51.5 17z" />
      <path id="prefix___179" fill="#4b85ff" d="M1250 1250l533.9 1685.3-51.9 15.8z" />
      <path id="prefix___180" fill="#4a84ff" d="M1250 1250l492.4 1697.9-52.3 14.5z" />
      <path id="prefix___181" fill="#4984ff" d="M1250 1250l450.6 1709.5-52.7 13.2z" />
      <path id="prefix___182" fill="#4883ff" d="M1250 1250l408.5 1720.1-52.9 11.8z" />
      <path id="prefix___183" fill="#4782ff" d="M1250 1250l366.1 1729.5-53.2 10.6z" />
      <path id="prefix___184" fill="#4681ff" d="M1250 1250l323.6 1738-53.4 9.3z" />
      <path id="prefix___185" fill="#4581ff" d="M1250 1250l280.8 1745.4-53.6 8z" />
      <path id="prefix___186" fill="#4480ff" d="M1250 1250l237.9 1751.8-53.8 6.6z" />
      <path id="prefix___187" fill="#437fff" d="M1250 1250l194.8 1757.1-53.9 5.3z" />
      <path id="prefix___188" fill="#427fff" d="M1250 1250l151.7 1761.4-54.1 4z" />
      <path id="prefix___189" fill="#417eff" d="M1250 1250l108.4 1764.6-54.2 2.6z" />
      <path id="prefix___190" fill="#407dff" d="M1250 1250l65.1 1766.7-54.3 1.3z" />
      <path id="prefix___191" fill="#3f7dff" d="M1250 1250l21.7 1767.7h-54.3z" />
      <path id="prefix___192" fill="#3e7cff" d="M1250 1250l-21.7 1767.7-54.2-1.3z" />
      <path id="prefix___193" fill="#3d7bff" d="M1250 1250l-65.1 1766.7-54.2-2.7z" />
      <path id="prefix___194" fill="#3c7bff" d="M1250 1250l-108.4 1764.6-54.1-4z" />
      <path id="prefix___195" fill="#3b7aff" d="M1250 1250l-151.7 1761.4-54-5.3z" />
      <path id="prefix___196" fill="#3a79ff" d="M1250 1250l-194.9 1757.1-53.8-6.6z" />
      <path id="prefix___197" fill="#3979ff" d="M1250 1250l-237.9 1751.8-53.7-8z" />
      <path id="prefix___198" fill="#3878ff" d="M1250 1250L969.1 2995.4l-53.4-9.2z" />
      <path id="prefix___199" fill="#3777ff" d="M1250 1250L926.4 2988l-53.2-10.6z" />
      <path id="prefix___200" fill="#3677ff" d="M1250 1250L883.9 2979.5l-53-11.8z" />
      <path id="prefix___201" fill="#3576ff" d="M1250 1250L841.5 2970.1l-52.6-13.2z" />
      <path id="prefix___202" fill="#3475ff" d="M1250 1250L799.4 2959.5l-52.3-14.4z" />
      <path id="prefix___203" fill="#3375ff" d="M1250 1250L757.6 2947.9l-51.9-15.7z" />
      <path id="prefix___204" fill="#3274ff" d="M1250 1250L716.1 2935.3l-51.5-17z" />
      <path id="prefix___205" fill="#3173ff" d="M1250 1250L674.9 2921.7l-51.1-18.2z" />
      <path id="prefix___206" fill="#3073ff" d="M1250 1250L634 2907.1l-50.6-19.5z" />
      <path id="prefix___207" fill="#2f72ff" d="M1250 1250L593.5 2891.5l-50.1-20.8z" />
      <path id="prefix___208" fill="#2e71ff" d="M1250 1250L553.4 2874.9l-49.5-22z" />
      <path id="prefix___209" fill="#2d71ff" d="M1250 1250L513.8 2857.3l-49-23.2z" />
      <path id="prefix___210" fill="#2c70ff" d="M1250 1250L474.6 2838.8l-48.5-24.4z" />
      <path id="prefix___211" fill="#2b6fff" d="M1250 1250L435.8 2819.2l-47.8-25.5z" />
      <path id="prefix___212" fill="#2a6eff" d="M1250 1250L397.6 2798.8l-47.3-26.7z" />
      <path id="prefix___213" fill="#296eff" d="M1250 1250L359.8 2777.4l-46.5-27.9z" />
      <path id="prefix___214" fill="#286dff" d="M1250 1250L322.6 2755.1l-45.9-29z" />
      <path id="prefix___215" fill="#276cff" d="M1250 1250L285.9 2731.9l-45.1-30.2z" />
      <path id="prefix___216" fill="#266cff" d="M1250 1250L249.8 2707.8l-44.3-31.2z" />
      <path id="prefix___217" fill="#256bff" d="M1250 1250L214.4 2682.8l-43.6-32.3z" />
      <path id="prefix___218" fill="#246aff" d="M1250 1250L179.5 2657l-42.8-33.4z" />
      <path id="prefix___219" fill="#236aff" d="M1250 1250L145.3 2630.3l-41.9-34.4z" />
      <path id="prefix___220" fill="#2269ff" d="M1250 1250L111.8 2602.7l-41.1-35.4z" />
      <path id="prefix___221" fill="#2168ff" d="M1250 1250L78.9 2574.4 38.7 2538z" />
      <path id="prefix___222" fill="#2068ff" d="M1250 1250L46.8 2545.3l-39.3-37.4z" />
      <path id="prefix___223" fill="#1f67ff" d="M1250 1250L15.4 2515.3-23 2477z" />
      <path id="prefix___224" fill="#1e66ff" d="M1250 1250L-15.4 2484.6l-37.3-39.2z" />
      <path id="prefix___225" fill="#1d66ff" d="M1250 1250L-45.3 2453.2l-36.4-40.2z" />
      <path id="prefix___226" fill="#1c65ff" d="M1250 1250L-74.4 2421.1l-35.4-41.1z" />
      <path id="prefix___227" fill="#1b64ff" d="M1250 1250L-102.7 2388.2l-34.4-41.9z" />
      <path id="prefix___228" fill="#1a64ff" d="M1250 1250L-130.3 2354.7l-33.3-42.8z" />
      <path id="prefix___229" fill="#1963ff" d="M1250 1250L-157 2320.5l-32.3-43.6z" />
      <path id="prefix___230" fill="#1862ff" d="M1250 1250L-182.8 2285.6l-31.2-44.3z" />
      <path id="prefix___231" fill="#1762ff" d="M1250 1250L-207.8 2250.2l-30.1-45.2z" />
      <path id="prefix___232" fill="#1661ff" d="M1250 1250l-1481.9 964.1-29-45.9z" />
      <path id="prefix___233" fill="#1560ff" d="M1250 1250l-1505.1 927.4-27.9-46.5z" />
      <path id="prefix___234" fill="#1460ff" d="M1250 1250l-1527.4 890.2-26.7-47.2z" />
      <path id="prefix___235" fill="#135fff" d="M1250 1250l-1548.8 852.4-25.6-47.8z" />
      <path id="prefix___236" fill="#125eff" d="M1250 1250l-1569.3 814.2-24.3-48.5z" />
      <path id="prefix___237" fill="#115eff" d="M1250 1250l-1588.8 775.4-23.1-49z" />
      <path id="prefix___238" fill="#105dff" d="M1250 1250l-1607.3 736.2-22-49.6z" />
      <path id="prefix___239" fill="#0f5cff" d="M1250 1250l-1624.9 696.5-20.8-50.1z" />
      <path id="prefix___240" fill="#0e5bff" d="M1250 1250l-1641.5 656.4-19.5-50.6z" />
      <path id="prefix___241" fill="#0d5bff" d="M1250 1250l-1657.1 616-18.3-51.1z" />
      <path id="prefix___242" fill="#0c5aff" d="M1250 1250l-1671.8 575.1-16.9-51.5z" />
      <path id="prefix___243" fill="#0b59ff" d="M1250 1250l-1685.4 533.9-15.7-51.9z" />
      <path id="prefix___244" fill="#0a59ff" d="M1250 1250l-1698 492.4-14.4-52.3z" />
      <path id="prefix___245" fill="#0958ff" d="M1250 1250l-1709.5 450.6-13.2-52.7z" />
      <path id="prefix___246" fill="#0857ff" d="M1250 1250l-1720.1 408.5-11.8-52.9z" />
      <path id="prefix___247" fill="#0757ff" d="M1250 1250l-1729.6 366.1-10.5-53.2z" />
      <path id="prefix___248" fill="#0656ff" d="M1250 1250l-1738 323.6-9.3-53.4z" />
      <path id="prefix___249" fill="#0555ff" d="M1250 1250l-1745.4 280.8-8-53.6z" />
      <path id="prefix___250" fill="#0455ff" d="M1250 1250l-1751.8 237.9-6.6-53.8z" />
      <path id="prefix___251" fill="#0354ff" d="M1250 1250l-1757.1 194.8-5.3-53.9z" />
      <path id="prefix___252" fill="#0253ff" d="M1250 1250l-1761.4 151.7-4-54.1z" />
      <path id="prefix___253" fill="#0153ff" d="M1250 1250l-1764.6 108.4-2.6-54.2z" />
      <path id="prefix___254" fill="#0052ff" d="M1250 1250l-1766.7 65.1-1.3-54.3z" />
      <path id="prefix___255" fill="#fff" d="M1250 1250l-1767.8 21.7v-43.4z" />
    </g>
  </g>
</svg>
