<svg width="24" height="24" viewBox="0 0 24 24" fill="none" xmlns="http://www.w3.org/2000/svg">
<rect width="24" height="24" rx="6" fill="#9747FF"/>
<path d="M9.50007 17C9.3901 16.9993 9.28135 16.9769 9.18008 16.934C9.07882 16.8911 8.98706 16.8285 8.91007 16.75L5.57674 13.3642C5.49295 13.2879 5.4256 13.1953 5.37881 13.0921C5.33202 12.9889 5.30677 12.8772 5.3046 12.7639C5.30243 12.6506 5.32338 12.5381 5.36619 12.4332C5.40899 12.3283 5.47275 12.2332 5.55355 12.1537C5.63435 12.0743 5.73051 12.0122 5.83614 11.9711C5.94177 11.9301 6.05466 11.9111 6.1679 11.9152C6.28114 11.9193 6.39235 11.9464 6.49475 11.995C6.59714 12.0435 6.68855 12.1124 6.76341 12.1975L9.50424 14.9833L17.2442 7.24415C17.3211 7.16456 17.4131 7.10108 17.5147 7.0574C17.6164 7.01373 17.7258 6.99074 17.8364 6.98978C17.9471 6.98882 18.0568 7.0099 18.1592 7.0518C18.2616 7.0937 18.3547 7.15558 18.4329 7.23382C18.5111 7.31207 18.573 7.40511 18.6149 7.50752C18.6568 7.60994 18.6779 7.71967 18.6769 7.83032C18.676 7.94097 18.653 8.05032 18.6093 8.15199C18.5656 8.25366 18.5022 8.34561 18.4226 8.42249L10.0892 16.7558C9.933 16.9121 9.72107 16.9999 9.50007 17Z" fill="white"/>
</svg>
