<svg width="17" height="16" viewBox="0 0 17 16" fill="none" xmlns="http://www.w3.org/2000/svg">
	<g>
		<path d="M8.41954 11.3331V7.59245M8.41954 6.76327V5.33342M8.41927 2.66732C7.71889 2.66732 7.02536 2.80527 6.37829 3.07329C5.73122 3.34132 5.14328 3.73417 4.64803 4.22941C4.15279 4.72466 3.75994 5.3126 3.49191 5.95967C3.22389 6.60674 3.08594 7.30027 3.08594 8.00065C3.08594 8.70103 3.22389 9.39456 3.49191 10.0416C3.75994 10.6887 4.15279 11.2766 4.64803 11.7719C5.14328 12.2671 5.73122 12.66 6.37829 12.928C7.02536 13.196 7.71889 13.334 8.41927 13.334C9.83376 13.334 11.1903 12.7721 12.1905 11.7719C13.1907 10.7717 13.7526 9.41514 13.7526 8.00065C13.7526 6.58616 13.1907 5.22961 12.1905 4.22941C11.1903 3.22922 9.83376 2.66732 8.41927 2.66732Z" stroke="currentColor" stroke-width="1.5" />
	</g>
</svg>
