<svg width="12" height="13" viewBox="0 0 12 13" fill="none" xmlns="http://www.w3.org/2000/svg">
    <path d="M6 7.56836V8.65186" stroke="black" stroke-width="1.125" stroke-linecap="round" stroke-linejoin="round" />
    <path
        d="M8.2234 5.22905V4.18106C8.2083 2.95256 7.1997 1.96906 5.9716 1.98456C4.7684 1.99956 3.79535 2.96856 3.7749 4.17106V5.22905"
        stroke="black" stroke-width="1.125" stroke-linecap="round" stroke-linejoin="round" />
    <path
        d="M4.65139 11.0065H7.34734C8.14499 11.0065 8.54383 11.0065 8.85168 10.8585C9.15903 10.711 9.40693 10.463 9.55453 10.156C9.70233 9.84797 9.70234 9.44897 9.70234 8.65147V7.58547C9.70234 6.78797 9.70233 6.38897 9.55453 6.08147C9.40693 5.77397 9.15903 5.52597 8.85168 5.37847C8.54383 5.23047 8.14499 5.23047 7.34734 5.23047H4.65139C3.85374 5.23047 3.45489 5.23047 3.14709 5.37847C2.83969 5.52597 2.59179 5.77397 2.44419 6.08147C2.29639 6.38897 2.29639 6.78797 2.29639 7.58547V8.65147C2.29639 9.44897 2.29639 9.84797 2.44419 10.156C2.59179 10.463 2.83969 10.711 3.14709 10.8585C3.45489 11.0065 3.85374 11.0065 4.65139 11.0065Z"
        stroke="black" stroke-width="1.125" stroke-linecap="round" stroke-linejoin="round" />
</svg>