<svg width="33" height="32" viewBox="0 0 33 32" fill="none" xmlns="http://www.w3.org/2000/svg">
	<path d="M20.625 14.166L26.5833 11.416M19.709 19.209L24.2923 23.7923M16.5 11.4167V5M16.5 5C10.4249 5 5.5 9.92487 5.5 16C5.5 22.0751 10.4249 27 16.5 27C22.5751 27 27.5 22.0751 27.5 16C27.5 9.92487 22.5751 5 16.5 5ZM21 15.9998C21 18.4851 18.9853 20.4998 16.5 20.4998C14.0147 20.4998 12 18.4851 12 15.9998C12 13.5145 14.0147 11.4998 16.5 11.4998C18.9853 11.4998 21 13.5145 21 15.9998Z" stroke="white" stroke-width="2" />
</svg>
