<svg width="480" height="480" viewBox="0 0 480 480" fill="none" xmlns="http://www.w3.org/2000/svg">
<g clip-path="url(#clip0_7095_1372)">
<rect width="416" height="408" transform="translate(52 20)" fill="url(#paint0_linear_7095_1372)"/>
<line x1="52" y1="384.5" x2="468" y2="384.5" stroke="white" stroke-opacity="0.03"/>
<line x1="52" y1="332.5" x2="468" y2="332.5" stroke="white" stroke-opacity="0.03"/>
<line x1="52" y1="280.5" x2="468" y2="280.5" stroke="white" stroke-opacity="0.03"/>
<line x1="52" y1="228.5" x2="468" y2="228.5" stroke="white" stroke-opacity="0.03"/>
<line x1="52" y1="176.5" x2="468" y2="176.5" stroke="white" stroke-opacity="0.03"/>
<line x1="52" y1="124.5" x2="468" y2="124.5" stroke="white" stroke-opacity="0.03"/>
<line x1="52" y1="72.5001" x2="468" y2="72.5" stroke="white" stroke-opacity="0.03"/>
<line x1="52" y1="20.5001" x2="468" y2="20.5" stroke="white" stroke-opacity="0.03"/>
<line x1="103.5" y1="21" x2="103.5" y2="428" stroke="white" stroke-opacity="0.03"/>
<line x1="155.5" y1="21" x2="155.5" y2="428" stroke="white" stroke-opacity="0.03"/>
<line x1="207.5" y1="21" x2="207.5" y2="428" stroke="white" stroke-opacity="0.03"/>
<line x1="259.5" y1="21" x2="259.5" y2="428" stroke="white" stroke-opacity="0.03"/>
<line x1="311.5" y1="21" x2="311.5" y2="428" stroke="white" stroke-opacity="0.03"/>
<line x1="363.5" y1="21" x2="363.5" y2="428" stroke="white" stroke-opacity="0.03"/>
<line x1="415.5" y1="21" x2="415.5" y2="428" stroke="white" stroke-opacity="0.03"/>
<line x1="467.5" y1="21" x2="467.5" y2="428" stroke="white" stroke-opacity="0.03"/>
</g>
<rect x="52" y="436" width="8.00004" height="428" rx="4.00002" transform="rotate(-180 52 436)" fill="url(#paint1_linear_7095_1372)"/>
<rect x="44" y="436" width="7.99998" height="428" rx="3.99999" transform="rotate(-90 44 436)" fill="url(#paint2_linear_7095_1372)"/>
<path d="M35 17L48 4L61 17" stroke="#F14156" stroke-width="8" stroke-linecap="round" stroke-linejoin="round"/>
<path d="M463 419L476 432L463 445" stroke="#F14056" stroke-width="8" stroke-linecap="round" stroke-linejoin="round"/>
<rect x="88" y="25" width="28" height="79" rx="14" transform="rotate(90 88 25)" fill="#333F4D"/>
<path d="M21.2601 35.524V38.32H24.3081V39.22H21.2601V42.1H24.6681V43H20.1681V34.624H24.6681V35.524H21.2601ZM29.7525 43L28.1925 40.552L26.6925 43H25.5525L27.6765 39.736L25.5525 36.424H26.7885L28.3485 38.86L29.8365 36.424H30.9765L28.8645 39.676L30.9885 43H29.7525ZM33.1547 37.636C33.3707 37.26 33.6907 36.948 34.1147 36.7C34.5467 36.444 35.0467 36.316 35.6147 36.316C36.1987 36.316 36.7267 36.456 37.1987 36.736C37.6787 37.016 38.0547 37.412 38.3267 37.924C38.5987 38.428 38.7347 39.016 38.7347 39.688C38.7347 40.352 38.5987 40.944 38.3267 41.464C38.0547 41.984 37.6787 42.388 37.1987 42.676C36.7267 42.964 36.1987 43.108 35.6147 43.108C35.0547 43.108 34.5587 42.984 34.1267 42.736C33.7027 42.48 33.3787 42.164 33.1547 41.788V46.12H32.0627V36.424H33.1547V37.636ZM37.6187 39.688C37.6187 39.192 37.5187 38.76 37.3187 38.392C37.1187 38.024 36.8467 37.744 36.5027 37.552C36.1667 37.36 35.7947 37.264 35.3867 37.264C34.9867 37.264 34.6147 37.364 34.2707 37.564C33.9347 37.756 33.6627 38.04 33.4547 38.416C33.2547 38.784 33.1547 39.212 33.1547 39.7C33.1547 40.196 33.2547 40.632 33.4547 41.008C33.6627 41.376 33.9347 41.66 34.2707 41.86C34.6147 42.052 34.9867 42.148 35.3867 42.148C35.7947 42.148 36.1667 42.052 36.5027 41.86C36.8467 41.66 37.1187 41.376 37.3187 41.008C37.5187 40.632 37.6187 40.192 37.6187 39.688ZM46.172 39.46C46.172 39.668 46.16 39.888 46.136 40.12H40.88C40.92 40.768 41.14 41.276 41.54 41.644C41.948 42.004 42.44 42.184 43.016 42.184C43.488 42.184 43.88 42.076 44.192 41.86C44.512 41.636 44.736 41.34 44.864 40.972H46.04C45.864 41.604 45.512 42.12 44.984 42.52C44.456 42.912 43.8 43.108 43.016 43.108C42.392 43.108 41.832 42.968 41.336 42.688C40.848 42.408 40.464 42.012 40.184 41.5C39.904 40.98 39.764 40.38 39.764 39.7C39.764 39.02 39.9 38.424 40.172 37.912C40.444 37.4 40.824 37.008 41.312 36.736C41.808 36.456 42.376 36.316 43.016 36.316C43.64 36.316 44.192 36.452 44.672 36.724C45.152 36.996 45.52 37.372 45.776 37.852C46.04 38.324 46.172 38.86 46.172 39.46ZM45.044 39.232C45.044 38.816 44.952 38.46 44.768 38.164C44.584 37.86 44.332 37.632 44.012 37.48C43.7 37.32 43.352 37.24 42.968 37.24C42.416 37.24 41.944 37.416 41.552 37.768C41.168 38.12 40.948 38.608 40.892 39.232H45.044ZM50.8175 36.304C51.6175 36.304 52.2655 36.548 52.7615 37.036C53.2575 37.516 53.5055 38.212 53.5055 39.124V43H52.4255V39.28C52.4255 38.624 52.2615 38.124 51.9335 37.78C51.6055 37.428 51.1575 37.252 50.5895 37.252C50.0135 37.252 49.5535 37.432 49.2095 37.792C48.8735 38.152 48.7055 38.676 48.7055 39.364V43H47.6135V36.424H48.7055V37.36C48.9215 37.024 49.2135 36.764 49.5815 36.58C49.9575 36.396 50.3695 36.304 50.8175 36.304ZM57.6172 43.108C57.1132 43.108 56.6612 43.024 56.2612 42.856C55.8612 42.68 55.5452 42.44 55.3132 42.136C55.0812 41.824 54.9532 41.468 54.9292 41.068H56.0572C56.0892 41.396 56.2412 41.664 56.5132 41.872C56.7932 42.08 57.1572 42.184 57.6052 42.184C58.0212 42.184 58.3492 42.092 58.5892 41.908C58.8292 41.724 58.9492 41.492 58.9492 41.212C58.9492 40.924 58.8212 40.712 58.5652 40.576C58.3092 40.432 57.9132 40.292 57.3772 40.156C56.8892 40.028 56.4892 39.9 56.1772 39.772C55.8732 39.636 55.6092 39.44 55.3852 39.184C55.1692 38.92 55.0612 38.576 55.0612 38.152C55.0612 37.816 55.1612 37.508 55.3612 37.228C55.5612 36.948 55.8452 36.728 56.2132 36.568C56.5812 36.4 57.0012 36.316 57.4732 36.316C58.2012 36.316 58.7892 36.5 59.2372 36.868C59.6852 37.236 59.9252 37.74 59.9572 38.38H58.8652C58.8412 38.036 58.7012 37.76 58.4452 37.552C58.1972 37.344 57.8612 37.24 57.4372 37.24C57.0452 37.24 56.7332 37.324 56.5012 37.492C56.2692 37.66 56.1532 37.88 56.1532 38.152C56.1532 38.368 56.2212 38.548 56.3572 38.692C56.5012 38.828 56.6772 38.94 56.8852 39.028C57.1012 39.108 57.3972 39.2 57.7732 39.304C58.2452 39.432 58.6292 39.56 58.9252 39.688C59.2212 39.808 59.4732 39.992 59.6812 40.24C59.8972 40.488 60.0092 40.812 60.0172 41.212C60.0172 41.572 59.9172 41.896 59.7172 42.184C59.5172 42.472 59.2332 42.7 58.8652 42.868C58.5052 43.028 58.0892 43.108 57.6172 43.108ZM62.1228 35.356C61.9148 35.356 61.7388 35.284 61.5948 35.14C61.4508 34.996 61.3788 34.82 61.3788 34.612C61.3788 34.404 61.4508 34.228 61.5948 34.084C61.7388 33.94 61.9148 33.868 62.1228 33.868C62.3228 33.868 62.4908 33.94 62.6268 34.084C62.7708 34.228 62.8428 34.404 62.8428 34.612C62.8428 34.82 62.7708 34.996 62.6268 35.14C62.4908 35.284 62.3228 35.356 62.1228 35.356ZM62.6508 36.424V43H61.5588V36.424H62.6508ZM66.9599 41.992L68.9999 36.424H70.1639L67.5839 43H66.3119L63.7319 36.424H64.9079L66.9599 41.992ZM77.2385 39.46C77.2385 39.668 77.2265 39.888 77.2025 40.12H71.9465C71.9865 40.768 72.2065 41.276 72.6065 41.644C73.0145 42.004 73.5065 42.184 74.0825 42.184C74.5545 42.184 74.9465 42.076 75.2585 41.86C75.5785 41.636 75.8025 41.34 75.9305 40.972H77.1065C76.9305 41.604 76.5785 42.12 76.0505 42.52C75.5225 42.912 74.8665 43.108 74.0825 43.108C73.4585 43.108 72.8985 42.968 72.4025 42.688C71.9145 42.408 71.5305 42.012 71.2505 41.5C70.9705 40.98 70.8305 40.38 70.8305 39.7C70.8305 39.02 70.9665 38.424 71.2385 37.912C71.5105 37.4 71.8905 37.008 72.3785 36.736C72.8745 36.456 73.4425 36.316 74.0825 36.316C74.7065 36.316 75.2585 36.452 75.7385 36.724C76.2185 36.996 76.5865 37.372 76.8425 37.852C77.1065 38.324 77.2385 38.86 77.2385 39.46ZM76.1105 39.232C76.1105 38.816 76.0185 38.46 75.8345 38.164C75.6505 37.86 75.3985 37.632 75.0785 37.48C74.7665 37.32 74.4185 37.24 74.0345 37.24C73.4825 37.24 73.0105 37.416 72.6185 37.768C72.2345 38.12 72.0145 38.608 71.9585 39.232H76.1105Z" fill="white"/>
<rect x="455" y="418" width="28" height="65" rx="14" transform="rotate(90 455 418)" fill="#333F4D"/>
<path d="M405.469 431.692C405.773 431.74 406.049 431.864 406.297 432.064C406.553 432.264 406.753 432.512 406.897 432.808C407.049 433.104 407.125 433.42 407.125 433.756C407.125 434.18 407.017 434.564 406.801 434.908C406.585 435.244 406.269 435.512 405.853 435.712C405.445 435.904 404.961 436 404.401 436H401.281V427.636H404.281C404.849 427.636 405.333 427.732 405.733 427.924C406.133 428.108 406.433 428.36 406.633 428.68C406.833 429 406.933 429.36 406.933 429.76C406.933 430.256 406.797 430.668 406.525 430.996C406.261 431.316 405.909 431.548 405.469 431.692ZM402.373 431.248H404.209C404.721 431.248 405.117 431.128 405.397 430.888C405.677 430.648 405.817 430.316 405.817 429.892C405.817 429.468 405.677 429.136 405.397 428.896C405.117 428.656 404.713 428.536 404.185 428.536H402.373V431.248ZM404.305 435.1C404.849 435.1 405.273 434.972 405.577 434.716C405.881 434.46 406.033 434.104 406.033 433.648C406.033 433.184 405.873 432.82 405.553 432.556C405.233 432.284 404.805 432.148 404.269 432.148H402.373V435.1H404.305ZM414.641 432.46C414.641 432.668 414.629 432.888 414.605 433.12H409.349C409.389 433.768 409.609 434.276 410.009 434.644C410.417 435.004 410.909 435.184 411.485 435.184C411.957 435.184 412.349 435.076 412.661 434.86C412.981 434.636 413.205 434.34 413.333 433.972H414.509C414.333 434.604 413.981 435.12 413.453 435.52C412.925 435.912 412.269 436.108 411.485 436.108C410.861 436.108 410.301 435.968 409.805 435.688C409.317 435.408 408.933 435.012 408.653 434.5C408.373 433.98 408.233 433.38 408.233 432.7C408.233 432.02 408.369 431.424 408.641 430.912C408.913 430.4 409.293 430.008 409.781 429.736C410.277 429.456 410.845 429.316 411.485 429.316C412.109 429.316 412.661 429.452 413.141 429.724C413.621 429.996 413.989 430.372 414.245 430.852C414.509 431.324 414.641 431.86 414.641 432.46ZM413.513 432.232C413.513 431.816 413.421 431.46 413.237 431.164C413.053 430.86 412.801 430.632 412.481 430.48C412.169 430.32 411.821 430.24 411.437 430.24C410.885 430.24 410.413 430.416 410.021 430.768C409.637 431.12 409.417 431.608 409.361 432.232H413.513ZM415.674 432.688C415.674 432.016 415.81 431.428 416.082 430.924C416.354 430.412 416.726 430.016 417.198 429.736C417.678 429.456 418.21 429.316 418.794 429.316C419.37 429.316 419.87 429.44 420.294 429.688C420.718 429.936 421.034 430.248 421.242 430.624V429.424H422.346V436H421.242V434.776C421.026 435.16 420.702 435.48 420.27 435.736C419.846 435.984 419.35 436.108 418.782 436.108C418.198 436.108 417.67 435.964 417.198 435.676C416.726 435.388 416.354 434.984 416.082 434.464C415.81 433.944 415.674 433.352 415.674 432.688ZM421.242 432.7C421.242 432.204 421.142 431.772 420.942 431.404C420.742 431.036 420.47 430.756 420.126 430.564C419.79 430.364 419.418 430.264 419.01 430.264C418.602 430.264 418.23 430.36 417.894 430.552C417.558 430.744 417.29 431.024 417.09 431.392C416.89 431.76 416.79 432.192 416.79 432.688C416.79 433.192 416.89 433.632 417.09 434.008C417.29 434.376 417.558 434.66 417.894 434.86C418.23 435.052 418.602 435.148 419.01 435.148C419.418 435.148 419.79 435.052 420.126 434.86C420.47 434.66 420.742 434.376 420.942 434.008C421.142 433.632 421.242 433.196 421.242 432.7ZM425.284 430.492C425.476 430.116 425.748 429.824 426.1 429.616C426.46 429.408 426.896 429.304 427.408 429.304V430.432H427.12C425.896 430.432 425.284 431.096 425.284 432.424V436H424.192V429.424H425.284V430.492ZM429.232 428.356C429.024 428.356 428.848 428.284 428.704 428.14C428.56 427.996 428.488 427.82 428.488 427.612C428.488 427.404 428.56 427.228 428.704 427.084C428.848 426.94 429.024 426.868 429.232 426.868C429.432 426.868 429.6 426.94 429.736 427.084C429.88 427.228 429.952 427.404 429.952 427.612C429.952 427.82 429.88 427.996 429.736 428.14C429.6 428.284 429.432 428.356 429.232 428.356ZM429.76 429.424V436H428.668V429.424H429.76ZM433.949 436.108C433.445 436.108 432.993 436.024 432.593 435.856C432.193 435.68 431.877 435.44 431.645 435.136C431.413 434.824 431.285 434.468 431.261 434.068H432.389C432.421 434.396 432.573 434.664 432.845 434.872C433.125 435.08 433.489 435.184 433.937 435.184C434.353 435.184 434.681 435.092 434.921 434.908C435.161 434.724 435.281 434.492 435.281 434.212C435.281 433.924 435.153 433.712 434.897 433.576C434.641 433.432 434.245 433.292 433.709 433.156C433.221 433.028 432.821 432.9 432.509 432.772C432.205 432.636 431.941 432.44 431.717 432.184C431.501 431.92 431.393 431.576 431.393 431.152C431.393 430.816 431.493 430.508 431.693 430.228C431.893 429.948 432.177 429.728 432.545 429.568C432.913 429.4 433.333 429.316 433.805 429.316C434.533 429.316 435.121 429.5 435.569 429.868C436.017 430.236 436.257 430.74 436.289 431.38H435.197C435.173 431.036 435.033 430.76 434.777 430.552C434.529 430.344 434.193 430.24 433.769 430.24C433.377 430.24 433.065 430.324 432.833 430.492C432.601 430.66 432.485 430.88 432.485 431.152C432.485 431.368 432.553 431.548 432.689 431.692C432.833 431.828 433.009 431.94 433.217 432.028C433.433 432.108 433.729 432.2 434.105 432.304C434.577 432.432 434.961 432.56 435.257 432.688C435.553 432.808 435.805 432.992 436.013 433.24C436.229 433.488 436.341 433.812 436.349 434.212C436.349 434.572 436.249 434.896 436.049 435.184C435.849 435.472 435.565 435.7 435.197 435.868C434.837 436.028 434.421 436.108 433.949 436.108ZM441.155 429.304C441.651 429.304 442.099 429.412 442.499 429.628C442.899 429.836 443.211 430.152 443.435 430.576C443.667 431 443.783 431.516 443.783 432.124V436H442.703V432.28C442.703 431.624 442.539 431.124 442.211 430.78C441.883 430.428 441.435 430.252 440.867 430.252C440.291 430.252 439.831 430.432 439.487 430.792C439.151 431.152 438.983 431.676 438.983 432.364V436H437.891V427.12H438.983V430.36C439.199 430.024 439.495 429.764 439.871 429.58C440.255 429.396 440.683 429.304 441.155 429.304Z" fill="white"/>
<path d="M20 245.317L16.58 247.309L16.58 248.629L20 248.629L20 249.721L11.636 249.721L11.636 247.021C11.636 246.389 11.744 245.857 11.96 245.425C12.176 244.985 12.468 244.657 12.836 244.441C13.204 244.225 13.624 244.117 14.096 244.117C14.672 244.117 15.18 244.285 15.62 244.621C16.06 244.949 16.352 245.445 16.496 246.109L20 244.009L20 245.317ZM15.704 248.629L15.704 247.021C15.704 246.429 15.56 245.985 15.272 245.689C14.976 245.393 14.584 245.245 14.096 245.245C13.6 245.245 13.216 245.393 12.944 245.689C12.672 245.977 12.536 246.421 12.536 247.021L12.536 248.629L15.704 248.629ZM20.084 239.768C20.084 240.32 19.988 240.816 19.796 241.256C19.596 241.688 19.324 242.028 18.98 242.276C18.628 242.524 18.224 242.652 17.768 242.66L17.768 241.496C18.16 241.456 18.492 241.296 18.764 241.016C19.028 240.728 19.16 240.312 19.16 239.768C19.16 239.248 19.032 238.84 18.776 238.544C18.512 238.24 18.176 238.088 17.768 238.088C17.448 238.088 17.188 238.176 16.988 238.352C16.788 238.528 16.636 238.748 16.532 239.012C16.428 239.276 16.316 239.632 16.196 240.08C16.052 240.632 15.908 241.076 15.764 241.412C15.62 241.74 15.396 242.024 15.092 242.264C14.78 242.496 14.364 242.612 13.844 242.612C13.388 242.612 12.984 242.496 12.632 242.264C12.28 242.032 12.008 241.708 11.816 241.292C11.624 240.868 11.528 240.384 11.528 239.84C11.528 239.056 11.724 238.416 12.116 237.92C12.508 237.416 13.028 237.132 13.676 237.068L13.676 238.268C13.356 238.308 13.076 238.476 12.836 238.772C12.588 239.068 12.464 239.46 12.464 239.948C12.464 240.404 12.584 240.776 12.824 241.064C13.056 241.352 13.384 241.496 13.808 241.496C14.112 241.496 14.36 241.412 14.552 241.244C14.744 241.068 14.892 240.856 14.996 240.608C15.092 240.352 15.204 239.996 15.332 239.54C15.484 238.988 15.636 238.544 15.788 238.208C15.932 237.872 16.16 237.584 16.472 237.344C16.776 237.104 17.192 236.984 17.72 236.984C18.128 236.984 18.512 237.092 18.872 237.308C19.232 237.524 19.524 237.844 19.748 238.268C19.972 238.692 20.084 239.192 20.084 239.768ZM11.636 234.285L20 234.285L20 235.377L11.636 235.377L11.636 234.285ZM11.636 218.712L20 221.136L20 222.36L13.268 224.304L20 226.32L20.012 227.532L11.636 229.872L11.636 228.708L18.728 226.884L11.636 224.868L11.636 223.644L18.704 221.724L11.636 219.888L11.636 218.712ZM12.356 216.953C12.356 217.161 12.284 217.337 12.14 217.481C11.996 217.625 11.82 217.697 11.612 217.697C11.404 217.697 11.228 217.625 11.084 217.481C10.94 217.337 10.868 217.161 10.868 216.953C10.868 216.753 10.94 216.585 11.084 216.449C11.228 216.305 11.404 216.233 11.612 216.233C11.82 216.233 11.996 216.305 12.14 216.449C12.284 216.585 12.356 216.753 12.356 216.953ZM13.424 216.425L20 216.425L20 217.517L13.424 217.517L13.424 216.425ZM20.108 212.236C20.108 212.74 20.024 213.192 19.856 213.592C19.68 213.992 19.44 214.308 19.136 214.54C18.824 214.772 18.468 214.9 18.068 214.924L18.068 213.796C18.396 213.764 18.664 213.612 18.872 213.34C19.08 213.06 19.184 212.696 19.184 212.248C19.184 211.832 19.092 211.504 18.908 211.264C18.724 211.024 18.492 210.904 18.212 210.904C17.924 210.904 17.712 211.032 17.576 211.288C17.432 211.544 17.292 211.94 17.156 212.476C17.028 212.964 16.9 213.364 16.772 213.676C16.636 213.98 16.44 214.244 16.184 214.468C15.92 214.684 15.576 214.792 15.152 214.792C14.816 214.792 14.508 214.692 14.228 214.492C13.948 214.292 13.728 214.008 13.568 213.64C13.4 213.272 13.316 212.852 13.316 212.38C13.316 211.652 13.5 211.064 13.868 210.616C14.236 210.168 14.74 209.928 15.38 209.896L15.38 210.988C15.036 211.012 14.76 211.152 14.552 211.408C14.344 211.656 14.24 211.992 14.24 212.416C14.24 212.808 14.324 213.12 14.492 213.352C14.66 213.584 14.88 213.7 15.152 213.7C15.368 213.7 15.548 213.632 15.692 213.496C15.828 213.352 15.94 213.176 16.028 212.968C16.108 212.752 16.2 212.456 16.304 212.08C16.432 211.608 16.56 211.224 16.688 210.928C16.808 210.632 16.992 210.38 17.24 210.172C17.488 209.956 17.812 209.844 18.212 209.836C18.572 209.836 18.896 209.936 19.184 210.136C19.472 210.336 19.7 210.62 19.868 210.988C20.028 211.348 20.108 211.764 20.108 212.236ZM16.46 202.295C16.668 202.295 16.888 202.307 17.12 202.331L17.12 207.587C17.768 207.547 18.276 207.327 18.644 206.927C19.004 206.519 19.184 206.027 19.184 205.451C19.184 204.979 19.076 204.587 18.86 204.275C18.636 203.955 18.34 203.731 17.972 203.603L17.972 202.427C18.604 202.603 19.12 202.955 19.52 203.483C19.912 204.011 20.108 204.667 20.108 205.451C20.108 206.075 19.968 206.635 19.688 207.131C19.408 207.619 19.012 208.003 18.5 208.283C17.98 208.563 17.38 208.703 16.7 208.703C16.02 208.703 15.424 208.567 14.912 208.295C14.4 208.023 14.008 207.643 13.736 207.155C13.456 206.659 13.316 206.091 13.316 205.451C13.316 204.827 13.452 204.275 13.724 203.795C13.996 203.315 14.372 202.947 14.852 202.691C15.324 202.427 15.86 202.295 16.46 202.295ZM16.232 203.423C15.816 203.423 15.46 203.515 15.164 203.699C14.86 203.883 14.632 204.135 14.48 204.455C14.32 204.767 14.24 205.115 14.24 205.499C14.24 206.051 14.416 206.523 14.768 206.915C15.12 207.299 15.608 207.519 16.232 207.575L16.232 203.423ZM20.084 195.002C20.084 195.554 19.988 196.05 19.796 196.49C19.596 196.922 19.324 197.262 18.98 197.51C18.628 197.758 18.224 197.886 17.768 197.894L17.768 196.73C18.16 196.69 18.492 196.53 18.764 196.25C19.028 195.962 19.16 195.546 19.16 195.002C19.16 194.482 19.032 194.074 18.776 193.778C18.512 193.474 18.176 193.322 17.768 193.322C17.448 193.322 17.188 193.41 16.988 193.586C16.788 193.762 16.636 193.982 16.532 194.246C16.428 194.51 16.316 194.866 16.196 195.314C16.052 195.866 15.908 196.31 15.764 196.646C15.62 196.974 15.396 197.258 15.092 197.498C14.78 197.73 14.364 197.846 13.844 197.846C13.388 197.846 12.984 197.73 12.632 197.498C12.28 197.266 12.008 196.942 11.816 196.526C11.624 196.102 11.528 195.618 11.528 195.074C11.528 194.29 11.724 193.65 12.116 193.154C12.508 192.65 13.028 192.366 13.676 192.302L13.676 193.502C13.356 193.542 13.076 193.71 12.836 194.006C12.588 194.302 12.464 194.694 12.464 195.182C12.464 195.638 12.584 196.01 12.824 196.298C13.056 196.586 13.384 196.73 13.808 196.73C14.112 196.73 14.36 196.646 14.552 196.478C14.744 196.302 14.892 196.09 14.996 195.842C15.092 195.586 15.204 195.23 15.332 194.774C15.484 194.222 15.636 193.778 15.788 193.442C15.932 193.106 16.16 192.818 16.472 192.578C16.776 192.338 17.192 192.218 17.72 192.218C18.128 192.218 18.512 192.326 18.872 192.542C19.232 192.758 19.524 193.078 19.748 193.502C19.972 193.926 20.084 194.426 20.084 195.002ZM16.7 191.019C16.02 191.019 15.428 190.883 14.924 190.611C14.412 190.339 14.016 189.963 13.736 189.483C13.456 188.995 13.316 188.439 13.316 187.815C13.316 187.007 13.512 186.343 13.904 185.823C14.296 185.295 14.84 184.947 15.536 184.779L15.536 185.955C15.136 186.067 14.82 186.287 14.588 186.615C14.356 186.935 14.24 187.335 14.24 187.815C14.24 188.439 14.456 188.943 14.888 189.327C15.312 189.711 15.916 189.903 16.7 189.903C17.492 189.903 18.104 189.711 18.536 189.327C18.968 188.943 19.184 188.439 19.184 187.815C19.184 187.335 19.072 186.935 18.848 186.615C18.624 186.295 18.304 186.075 17.888 185.955L17.888 184.779C18.56 184.955 19.1 185.307 19.508 185.835C19.908 186.363 20.108 187.023 20.108 187.815C20.108 188.439 19.968 188.995 19.688 189.483C19.408 189.963 19.012 190.339 18.5 190.611C17.988 190.883 17.388 191.019 16.7 191.019ZM20.108 180.454C20.108 181.07 19.968 181.63 19.688 182.134C19.408 182.63 19.012 183.022 18.5 183.31C17.98 183.59 17.38 183.73 16.7 183.73C16.028 183.73 15.436 183.586 14.924 183.298C14.404 183.002 14.008 182.602 13.736 182.098C13.456 181.594 13.316 181.03 13.316 180.406C13.316 179.782 13.456 179.218 13.736 178.714C14.008 178.21 14.4 177.814 14.912 177.526C15.424 177.23 16.02 177.082 16.7 177.082C17.38 177.082 17.98 177.234 18.5 177.538C19.012 177.834 19.408 178.238 19.688 178.75C19.968 179.262 20.108 179.83 20.108 180.454ZM19.148 180.454C19.148 180.062 19.056 179.694 18.872 179.35C18.688 179.006 18.412 178.73 18.044 178.522C17.676 178.306 17.228 178.198 16.7 178.198C16.172 178.198 15.724 178.302 15.356 178.51C14.988 178.718 14.716 178.99 14.54 179.326C14.356 179.662 14.264 180.026 14.264 180.418C14.264 180.818 14.356 181.186 14.54 181.522C14.716 181.85 14.988 182.114 15.356 182.314C15.724 182.514 16.172 182.614 16.7 182.614C17.236 182.614 17.688 182.518 18.056 182.326C18.424 182.126 18.7 181.862 18.884 181.534C19.06 181.206 19.148 180.846 19.148 180.454ZM14.492 174.554C14.116 174.362 13.824 174.09 13.616 173.738C13.408 173.378 13.304 172.942 13.304 172.43L14.432 172.43L14.432 172.718C14.432 173.942 15.096 174.554 16.424 174.554L20 174.554L20 175.646L13.424 175.646L13.424 174.554L14.492 174.554ZM12.356 170.606C12.356 170.814 12.284 170.99 12.14 171.134C11.996 171.278 11.82 171.35 11.612 171.35C11.404 171.35 11.228 171.278 11.084 171.134C10.94 170.99 10.868 170.814 10.868 170.606C10.868 170.406 10.94 170.238 11.084 170.102C11.228 169.958 11.404 169.886 11.612 169.886C11.82 169.886 11.996 169.958 12.14 170.102C12.284 170.238 12.356 170.406 12.356 170.606ZM13.424 170.078L20 170.078L20 171.17L13.424 171.17L13.424 170.078ZM13.304 165.013C13.304 164.213 13.548 163.565 14.036 163.069C14.516 162.573 15.212 162.325 16.124 162.325L20 162.325L20 163.405L16.28 163.405C15.624 163.405 15.124 163.569 14.78 163.897C14.428 164.225 14.252 164.673 14.252 165.241C14.252 165.817 14.432 166.277 14.792 166.621C15.152 166.957 15.676 167.125 16.364 167.125L20 167.125L20 168.217L13.424 168.217L13.424 167.125L14.36 167.125C14.024 166.909 13.764 166.617 13.58 166.249C13.396 165.873 13.304 165.461 13.304 165.013ZM13.316 157.829C13.316 157.261 13.44 156.765 13.688 156.341C13.936 155.909 14.248 155.589 14.624 155.381L13.424 155.381L13.424 154.277L20.144 154.277C20.744 154.277 21.276 154.405 21.74 154.661C22.212 154.917 22.58 155.285 22.844 155.765C23.108 156.237 23.24 156.789 23.24 157.421C23.24 158.285 23.036 159.005 22.628 159.581C22.22 160.157 21.664 160.497 20.96 160.601L20.96 159.521C21.36 159.401 21.68 159.153 21.92 158.777C22.168 158.401 22.292 157.949 22.292 157.421C22.292 156.821 22.104 156.333 21.728 155.957C21.352 155.573 20.824 155.381 20.144 155.381L18.764 155.381C19.148 155.597 19.468 155.917 19.724 156.341C19.98 156.765 20.108 157.261 20.108 157.829C20.108 158.413 19.964 158.945 19.676 159.425C19.388 159.897 18.984 160.269 18.464 160.541C17.944 160.813 17.352 160.949 16.688 160.949C16.016 160.949 15.428 160.813 14.924 160.541C14.412 160.269 14.016 159.897 13.736 159.425C13.456 158.945 13.316 158.413 13.316 157.829ZM16.7 155.381C16.204 155.381 15.772 155.481 15.404 155.681C15.036 155.881 14.756 156.153 14.564 156.497C14.364 156.833 14.264 157.205 14.264 157.613C14.264 158.021 14.36 158.393 14.552 158.729C14.744 159.065 15.024 159.333 15.392 159.533C15.76 159.733 16.192 159.833 16.688 159.833C17.192 159.833 17.632 159.733 18.008 159.533C18.376 159.333 18.66 159.065 18.86 158.729C19.052 158.393 19.148 158.021 19.148 157.613C19.148 157.205 19.052 156.833 18.86 156.497C18.66 156.153 18.376 155.881 18.008 155.681C17.632 155.481 17.196 155.381 16.7 155.381Z" fill="white"/>
<rect y="291" width="32" height="32" rx="16" transform="rotate(-90 0 291)" fill="url(#paint3_linear_7095_1372)"/>
<path d="M20.3334 279.202L16.7067 281.255L16.7067 282.135L20.3334 282.135L20.3334 284.002L11.0267 284.002L11.0267 280.509C11.0267 279.789 11.1556 279.175 11.4134 278.669C11.6623 278.162 12.0045 277.784 12.44 277.535C12.8667 277.278 13.3467 277.149 13.88 277.149C14.4934 277.149 15.0489 277.327 15.5467 277.682C16.0356 278.038 16.3734 278.567 16.56 279.269L20.3334 277.042L20.3334 279.202ZM15.3067 282.135L15.3067 280.575C15.3067 280.069 15.1867 279.691 14.9467 279.442C14.6978 279.193 14.3556 279.069 13.92 279.069C13.4934 279.069 13.1645 279.193 12.9334 279.442C12.6934 279.691 12.5734 280.069 12.5734 280.575L12.5734 282.135L15.3067 282.135ZM20.4267 272.514C20.4267 273.163 20.3156 273.749 20.0934 274.274C19.8712 274.789 19.5512 275.198 19.1334 275.5C18.7156 275.803 18.2223 275.958 17.6534 275.967L17.6534 273.967C18.0356 273.94 18.3378 273.807 18.56 273.567C18.7823 273.318 18.8934 272.98 18.8934 272.554C18.8934 272.118 18.7912 271.776 18.5867 271.527C18.3734 271.278 18.0978 271.154 17.76 271.154C17.4845 271.154 17.2578 271.238 17.08 271.407C16.9023 271.576 16.7645 271.789 16.6667 272.047C16.56 272.296 16.4445 272.643 16.32 273.087C16.1423 273.692 15.9689 274.185 15.8 274.567C15.6223 274.94 15.36 275.265 15.0134 275.54C14.6578 275.807 14.1867 275.94 13.6 275.94C13.0489 275.94 12.5689 275.803 12.16 275.527C11.7512 275.252 11.44 274.865 11.2267 274.367C11.0045 273.869 10.8934 273.3 10.8934 272.66C10.8934 271.7 11.1289 270.923 11.6 270.327C12.0623 269.723 12.7112 269.389 13.5467 269.327L13.5467 271.38C13.2267 271.398 12.9645 271.536 12.76 271.794C12.5467 272.043 12.44 272.376 12.44 272.794C12.44 273.158 12.5334 273.452 12.72 273.674C12.9067 273.887 13.1778 273.994 13.5334 273.994C13.7823 273.994 13.9912 273.914 14.16 273.754C14.32 273.585 14.4534 273.38 14.56 273.14C14.6578 272.892 14.7734 272.545 14.9067 272.1C15.0845 271.496 15.2623 271.003 15.44 270.62C15.6178 270.238 15.8845 269.909 16.24 269.634C16.5956 269.358 17.0623 269.22 17.64 269.22C18.1378 269.22 18.6 269.349 19.0267 269.607C19.4534 269.865 19.7956 270.243 20.0534 270.74C20.3023 271.238 20.4267 271.829 20.4267 272.514ZM11.0267 266.002L20.3334 266.002L20.3334 267.869L11.0267 267.869L11.0267 266.002Z" fill="white"/>
<path d="M229.824 459.696V468H228.732V461.808L225.972 468H225.204L222.432 461.796V468H221.34V459.696H222.516L225.588 466.56L228.66 459.696H229.824ZM236.62 466.14H232.972L232.3 468H231.148L234.172 459.684H235.432L238.444 468H237.292L236.62 466.14ZM236.308 465.252L234.796 461.028L233.284 465.252H236.308ZM239.354 463.812C239.354 462.996 239.538 462.264 239.906 461.616C240.274 460.96 240.774 460.448 241.406 460.08C242.046 459.712 242.754 459.528 243.53 459.528C244.442 459.528 245.238 459.748 245.918 460.188C246.598 460.628 247.094 461.252 247.406 462.06H246.098C245.866 461.556 245.53 461.168 245.09 460.896C244.658 460.624 244.138 460.488 243.53 460.488C242.946 460.488 242.422 460.624 241.958 460.896C241.494 461.168 241.13 461.556 240.866 462.06C240.602 462.556 240.47 463.14 240.47 463.812C240.47 464.476 240.602 465.06 240.866 465.564C241.13 466.06 241.494 466.444 241.958 466.716C242.422 466.988 242.946 467.124 243.53 467.124C244.138 467.124 244.658 466.992 245.09 466.728C245.53 466.456 245.866 466.068 246.098 465.564H247.406C247.094 466.364 246.598 466.984 245.918 467.424C245.238 467.856 244.442 468.072 243.53 468.072C242.754 468.072 242.046 467.892 241.406 467.532C240.774 467.164 240.274 466.656 239.906 466.008C239.538 465.36 239.354 464.628 239.354 463.812ZM251.635 459.636C252.547 459.636 253.335 459.808 253.999 460.152C254.671 460.488 255.183 460.972 255.535 461.604C255.895 462.236 256.075 462.98 256.075 463.836C256.075 464.692 255.895 465.436 255.535 466.068C255.183 466.692 254.671 467.172 253.999 467.508C253.335 467.836 252.547 468 251.635 468H249.031V459.636H251.635ZM251.635 467.1C252.715 467.1 253.539 466.816 254.107 466.248C254.675 465.672 254.959 464.868 254.959 463.836C254.959 462.796 254.671 461.984 254.095 461.4C253.527 460.816 252.707 460.524 251.635 460.524H250.123V467.1H251.635ZM271.227 459.636L268.803 468H267.579L265.635 461.268L263.619 468L262.407 468.012L260.067 459.636H261.231L263.055 466.728L265.071 459.636H266.295L268.215 466.704L270.051 459.636H271.227ZM272.986 460.356C272.778 460.356 272.602 460.284 272.458 460.14C272.314 459.996 272.242 459.82 272.242 459.612C272.242 459.404 272.314 459.228 272.458 459.084C272.602 458.94 272.778 458.868 272.986 458.868C273.186 458.868 273.354 458.94 273.49 459.084C273.634 459.228 273.706 459.404 273.706 459.612C273.706 459.82 273.634 459.996 273.49 460.14C273.354 460.284 273.186 460.356 272.986 460.356ZM273.514 461.424V468H272.422V461.424H273.514ZM277.703 468.108C277.199 468.108 276.747 468.024 276.347 467.856C275.947 467.68 275.631 467.44 275.399 467.136C275.167 466.824 275.039 466.468 275.015 466.068H276.143C276.175 466.396 276.327 466.664 276.599 466.872C276.879 467.08 277.243 467.184 277.691 467.184C278.107 467.184 278.435 467.092 278.675 466.908C278.915 466.724 279.035 466.492 279.035 466.212C279.035 465.924 278.907 465.712 278.651 465.576C278.395 465.432 277.999 465.292 277.463 465.156C276.975 465.028 276.575 464.9 276.263 464.772C275.959 464.636 275.695 464.44 275.471 464.184C275.255 463.92 275.147 463.576 275.147 463.152C275.147 462.816 275.247 462.508 275.447 462.228C275.647 461.948 275.931 461.728 276.299 461.568C276.667 461.4 277.087 461.316 277.559 461.316C278.287 461.316 278.875 461.5 279.323 461.868C279.771 462.236 280.011 462.74 280.043 463.38H278.951C278.927 463.036 278.787 462.76 278.531 462.552C278.283 462.344 277.947 462.24 277.523 462.24C277.131 462.24 276.819 462.324 276.587 462.492C276.355 462.66 276.239 462.88 276.239 463.152C276.239 463.368 276.307 463.548 276.443 463.692C276.587 463.828 276.763 463.94 276.971 464.028C277.187 464.108 277.483 464.2 277.859 464.304C278.331 464.432 278.715 464.56 279.011 464.688C279.307 464.808 279.559 464.992 279.767 465.24C279.983 465.488 280.095 465.812 280.103 466.212C280.103 466.572 280.003 466.896 279.803 467.184C279.603 467.472 279.319 467.7 278.951 467.868C278.591 468.028 278.175 468.108 277.703 468.108ZM287.645 464.46C287.645 464.668 287.633 464.888 287.609 465.12H282.353C282.393 465.768 282.613 466.276 283.013 466.644C283.421 467.004 283.913 467.184 284.489 467.184C284.961 467.184 285.353 467.076 285.665 466.86C285.985 466.636 286.209 466.34 286.337 465.972H287.513C287.337 466.604 286.985 467.12 286.457 467.52C285.929 467.912 285.273 468.108 284.489 468.108C283.865 468.108 283.305 467.968 282.809 467.688C282.321 467.408 281.937 467.012 281.657 466.5C281.377 465.98 281.237 465.38 281.237 464.7C281.237 464.02 281.373 463.424 281.645 462.912C281.917 462.4 282.297 462.008 282.785 461.736C283.281 461.456 283.849 461.316 284.489 461.316C285.113 461.316 285.665 461.452 286.145 461.724C286.625 461.996 286.993 462.372 287.249 462.852C287.513 463.324 287.645 463.86 287.645 464.46ZM286.517 464.232C286.517 463.816 286.425 463.46 286.241 463.164C286.057 462.86 285.805 462.632 285.485 462.48C285.173 462.32 284.825 462.24 284.441 462.24C283.889 462.24 283.417 462.416 283.025 462.768C282.641 463.12 282.421 463.608 282.365 464.232H286.517ZM294.937 468.084C294.385 468.084 293.889 467.988 293.449 467.796C293.017 467.596 292.677 467.324 292.429 466.98C292.181 466.628 292.053 466.224 292.045 465.768H293.209C293.249 466.16 293.409 466.492 293.689 466.764C293.977 467.028 294.393 467.16 294.937 467.16C295.457 467.16 295.865 467.032 296.161 466.776C296.465 466.512 296.617 466.176 296.617 465.768C296.617 465.448 296.529 465.188 296.353 464.988C296.177 464.788 295.957 464.636 295.693 464.532C295.429 464.428 295.073 464.316 294.625 464.196C294.073 464.052 293.629 463.908 293.293 463.764C292.965 463.62 292.681 463.396 292.441 463.092C292.209 462.78 292.093 462.364 292.093 461.844C292.093 461.388 292.209 460.984 292.441 460.632C292.673 460.28 292.997 460.008 293.413 459.816C293.837 459.624 294.321 459.528 294.865 459.528C295.649 459.528 296.289 459.724 296.785 460.116C297.289 460.508 297.573 461.028 297.637 461.676H296.437C296.397 461.356 296.229 461.076 295.933 460.836C295.637 460.588 295.245 460.464 294.757 460.464C294.301 460.464 293.929 460.584 293.641 460.824C293.353 461.056 293.209 461.384 293.209 461.808C293.209 462.112 293.293 462.36 293.461 462.552C293.637 462.744 293.849 462.892 294.097 462.996C294.353 463.092 294.709 463.204 295.165 463.332C295.717 463.484 296.161 463.636 296.497 463.788C296.833 463.932 297.121 464.16 297.361 464.472C297.601 464.776 297.721 465.192 297.721 465.72C297.721 466.128 297.613 466.512 297.397 466.872C297.181 467.232 296.861 467.524 296.437 467.748C296.013 467.972 295.513 468.084 294.937 468.084ZM298.92 464.7C298.92 464.02 299.056 463.428 299.328 462.924C299.6 462.412 299.976 462.016 300.456 461.736C300.944 461.456 301.5 461.316 302.124 461.316C302.932 461.316 303.596 461.512 304.116 461.904C304.644 462.296 304.992 462.84 305.16 463.536H303.984C303.872 463.136 303.652 462.82 303.324 462.588C303.004 462.356 302.604 462.24 302.124 462.24C301.5 462.24 300.996 462.456 300.612 462.888C300.228 463.312 300.036 463.916 300.036 464.7C300.036 465.492 300.228 466.104 300.612 466.536C300.996 466.968 301.5 467.184 302.124 467.184C302.604 467.184 303.004 467.072 303.324 466.848C303.644 466.624 303.864 466.304 303.984 465.888H305.16C304.984 466.56 304.632 467.1 304.104 467.508C303.576 467.908 302.916 468.108 302.124 468.108C301.5 468.108 300.944 467.968 300.456 467.688C299.976 467.408 299.6 467.012 299.328 466.5C299.056 465.988 298.92 465.388 298.92 464.7ZM309.485 468.108C308.869 468.108 308.309 467.968 307.805 467.688C307.309 467.408 306.917 467.012 306.629 466.5C306.349 465.98 306.209 465.38 306.209 464.7C306.209 464.028 306.353 463.436 306.641 462.924C306.937 462.404 307.337 462.008 307.841 461.736C308.345 461.456 308.909 461.316 309.533 461.316C310.157 461.316 310.721 461.456 311.225 461.736C311.729 462.008 312.125 462.4 312.413 462.912C312.709 463.424 312.857 464.02 312.857 464.7C312.857 465.38 312.705 465.98 312.401 466.5C312.105 467.012 311.701 467.408 311.189 467.688C310.677 467.968 310.109 468.108 309.485 468.108ZM309.485 467.148C309.877 467.148 310.245 467.056 310.589 466.872C310.933 466.688 311.209 466.412 311.417 466.044C311.633 465.676 311.741 465.228 311.741 464.7C311.741 464.172 311.637 463.724 311.429 463.356C311.221 462.988 310.949 462.716 310.613 462.54C310.277 462.356 309.913 462.264 309.521 462.264C309.121 462.264 308.753 462.356 308.417 462.54C308.089 462.716 307.825 462.988 307.625 463.356C307.425 463.724 307.325 464.172 307.325 464.7C307.325 465.236 307.421 465.688 307.613 466.056C307.813 466.424 308.077 466.7 308.405 466.884C308.733 467.06 309.093 467.148 309.485 467.148ZM315.385 462.492C315.577 462.116 315.849 461.824 316.201 461.616C316.561 461.408 316.997 461.304 317.509 461.304V462.432H317.221C315.997 462.432 315.385 463.096 315.385 464.424V468H314.293V461.424H315.385V462.492ZM319.334 460.356C319.126 460.356 318.95 460.284 318.806 460.14C318.662 459.996 318.59 459.82 318.59 459.612C318.59 459.404 318.662 459.228 318.806 459.084C318.95 458.94 319.126 458.868 319.334 458.868C319.534 458.868 319.702 458.94 319.838 459.084C319.982 459.228 320.054 459.404 320.054 459.612C320.054 459.82 319.982 459.996 319.838 460.14C319.702 460.284 319.534 460.356 319.334 460.356ZM319.862 461.424V468H318.77V461.424H319.862ZM324.927 461.304C325.727 461.304 326.375 461.548 326.871 462.036C327.367 462.516 327.615 463.212 327.615 464.124V468H326.535V464.28C326.535 463.624 326.371 463.124 326.043 462.78C325.715 462.428 325.267 462.252 324.699 462.252C324.123 462.252 323.663 462.432 323.319 462.792C322.983 463.152 322.815 463.676 322.815 464.364V468H321.723V461.424H322.815V462.36C323.031 462.024 323.323 461.764 323.691 461.58C324.067 461.396 324.479 461.304 324.927 461.304ZM332.111 461.316C332.679 461.316 333.175 461.44 333.599 461.688C334.031 461.936 334.351 462.248 334.559 462.624V461.424H335.663V468.144C335.663 468.744 335.535 469.276 335.279 469.74C335.023 470.212 334.655 470.58 334.175 470.844C333.703 471.108 333.151 471.24 332.519 471.24C331.655 471.24 330.935 471.036 330.359 470.628C329.783 470.22 329.443 469.664 329.339 468.96H330.419C330.539 469.36 330.787 469.68 331.163 469.92C331.539 470.168 331.991 470.292 332.519 470.292C333.119 470.292 333.607 470.104 333.983 469.728C334.367 469.352 334.559 468.824 334.559 468.144V466.764C334.343 467.148 334.023 467.468 333.599 467.724C333.175 467.98 332.679 468.108 332.111 468.108C331.527 468.108 330.995 467.964 330.515 467.676C330.043 467.388 329.671 466.984 329.399 466.464C329.127 465.944 328.991 465.352 328.991 464.688C328.991 464.016 329.127 463.428 329.399 462.924C329.671 462.412 330.043 462.016 330.515 461.736C330.995 461.456 331.527 461.316 332.111 461.316ZM334.559 464.7C334.559 464.204 334.459 463.772 334.259 463.404C334.059 463.036 333.787 462.756 333.443 462.564C333.107 462.364 332.735 462.264 332.327 462.264C331.919 462.264 331.547 462.36 331.211 462.552C330.875 462.744 330.607 463.024 330.407 463.392C330.207 463.76 330.107 464.192 330.107 464.688C330.107 465.192 330.207 465.632 330.407 466.008C330.607 466.376 330.875 466.66 331.211 466.86C331.547 467.052 331.919 467.148 332.327 467.148C332.735 467.148 333.107 467.052 333.443 466.86C333.787 466.66 334.059 466.376 334.259 466.008C334.459 465.632 334.559 465.196 334.559 464.7Z" fill="white"/>
<rect x="180" y="448" width="32" height="32" rx="16" fill="url(#paint4_linear_7095_1372)"/>
<path d="M190.315 461.749V467.333H189.195V463.701L187.699 467.333H186.851L185.347 463.701V467.333H184.227V461.749H185.499L187.275 465.901L189.051 461.749H190.315ZM194.686 466.269H192.462L192.094 467.333H190.918L192.926 461.741H194.23L196.238 467.333H195.054L194.686 466.269ZM194.382 465.373L193.574 463.037L192.766 465.373H194.382ZM196.557 464.533C196.557 463.984 196.679 463.493 196.925 463.061C197.175 462.624 197.514 462.285 197.941 462.045C198.373 461.8 198.855 461.677 199.389 461.677C200.013 461.677 200.559 461.837 201.029 462.157C201.498 462.477 201.826 462.92 202.013 463.485H200.725C200.597 463.219 200.415 463.019 200.181 462.885C199.951 462.752 199.685 462.685 199.381 462.685C199.055 462.685 198.765 462.763 198.509 462.917C198.258 463.067 198.061 463.28 197.917 463.557C197.778 463.835 197.709 464.16 197.709 464.533C197.709 464.901 197.778 465.227 197.917 465.509C198.061 465.787 198.258 466.003 198.509 466.157C198.765 466.307 199.055 466.381 199.381 466.381C199.685 466.381 199.951 466.315 200.181 466.181C200.415 466.043 200.597 465.84 200.725 465.573H202.013C201.826 466.144 201.498 466.589 201.029 466.909C200.565 467.224 200.018 467.381 199.389 467.381C198.855 467.381 198.373 467.261 197.941 467.021C197.514 466.776 197.175 466.437 196.925 466.005C196.679 465.573 196.557 465.083 196.557 464.533ZM204.761 461.749C205.348 461.749 205.863 461.864 206.305 462.093C206.753 462.323 207.097 462.651 207.337 463.077C207.583 463.499 207.705 463.989 207.705 464.549C207.705 465.109 207.583 465.6 207.337 466.021C207.097 466.437 206.753 466.76 206.305 466.989C205.863 467.219 205.348 467.333 204.761 467.333H202.809V461.749H204.761ZM204.721 466.381C205.308 466.381 205.761 466.221 206.081 465.901C206.401 465.581 206.561 465.131 206.561 464.549C206.561 463.968 206.401 463.515 206.081 463.189C205.761 462.859 205.308 462.693 204.721 462.693H203.929V466.381H204.721Z" fill="white"/>
<defs>
<linearGradient id="paint0_linear_7095_1372" x1="416" y1="0" x2="73.5311" y2="345.509" gradientUnits="userSpaceOnUse">
<stop stop-color="#601A22"/>
<stop offset="1" stop-color="#28323E" stop-opacity="0"/>
</linearGradient>
<linearGradient id="paint1_linear_7095_1372" x1="56" y1="436" x2="56" y2="864" gradientUnits="userSpaceOnUse">
<stop stop-color="#FF6174"/>
<stop offset="1" stop-color="#F14056"/>
</linearGradient>
<linearGradient id="paint2_linear_7095_1372" x1="48" y1="436" x2="48" y2="864" gradientUnits="userSpaceOnUse">
<stop stop-color="#FF6174"/>
<stop offset="1" stop-color="#F14056"/>
</linearGradient>
<linearGradient id="paint3_linear_7095_1372" x1="-27.5556" y1="351.444" x2="68.5232" y2="331.136" gradientUnits="userSpaceOnUse">
<stop stop-color="#FF00C7"/>
<stop offset="1" stop-color="#00A3FF"/>
</linearGradient>
<linearGradient id="paint4_linear_7095_1372" x1="152.444" y1="508.444" x2="248.523" y2="488.136" gradientUnits="userSpaceOnUse">
<stop stop-color="#FF00C7"/>
<stop offset="1" stop-color="#00A3FF"/>
</linearGradient>
<clipPath id="clip0_7095_1372">
<rect width="416" height="408" fill="white" transform="translate(52 20)"/>
</clipPath>
</defs>
</svg>
