<svg width="15" height="16" viewBox="0 0 15 16" fill="none"
    xmlns="http://www.w3.org/2000/svg">
    <g clip-path="url(#clip0_748_42148)">
        <circle cx="7.5" cy="7.5" r="6.5" fill="white" fill-opacity="0.05"/>
        <path d="M10.2141 4.8451L5.72989 4.8451C5.67263 4.84067 5.61508 4.84813 5.56084 4.867C5.5066 4.88586 5.45685 4.91574 5.41471 4.95475C5.37257 4.99376 5.33894 5.04106 5.31595 5.09368C5.29295 5.1463 5.28108 5.2031 5.28108 5.26053C5.28108 5.31795 5.29295 5.37476 5.31595 5.42738C5.33894 5.48 5.37257 5.5273 5.41471 5.56631C5.45685 5.60532 5.5066 5.63519 5.56084 5.65406C5.61508 5.67293 5.67263 5.68038 5.72989 5.67595L8.74098 5.68185L4.32156 10.1013C4.24342 10.1794 4.19953 10.2854 4.19953 10.3959C4.19953 10.5064 4.24342 10.6124 4.32156 10.6905C4.39971 10.7687 4.50569 10.8126 4.61619 10.8126C4.7267 10.8126 4.83268 10.7687 4.91082 10.6905L9.38327 6.21807V9.32934C9.37884 9.38659 9.38629 9.44415 9.40516 9.49838C9.42403 9.55262 9.45391 9.60237 9.49292 9.64451C9.53193 9.68666 9.57922 9.72028 9.63184 9.74328C9.68446 9.76628 9.74127 9.77815 9.7987 9.77815C9.85612 9.77815 9.91293 9.76628 9.96555 9.74328C10.0182 9.72028 10.0655 9.68666 10.1045 9.64452C10.1435 9.60237 10.1734 9.55262 10.1922 9.49838C10.2111 9.44415 10.2186 9.38659 10.2141 9.32934L10.2141 4.8451Z" fill="currentColor"/>
    </g>
    <defs>
        <clipPath id="clip0_748_42148">
            <rect width="15" height="15" fill="white" transform="translate(0 0.5)"/>
        </clipPath>
    </defs>
</svg>
