<svg width="8" height="8" viewBox="0 0 8 8" fill="none" xmlns="http://www.w3.org/2000/svg">
<path d="M3.36607 2.22547C3.5818 1.94524 3.68966 1.80512 3.82111 1.75476C3.93629 1.71062 4.06371 1.71062 4.17889 1.75476C4.31034 1.80512 4.4182 1.94524 4.63392 2.22547L7.0085 5.31013C7.32694 5.7238 7.48616 5.93063 7.48407 6.10413C7.48226 6.25508 7.41235 6.39713 7.29384 6.49064C7.15763 6.59813 6.89661 6.59813 6.37458 6.59813H1.62542C1.10339 6.59813 0.842374 6.59813 0.70616 6.49064C0.587652 6.39713 0.517738 6.25508 0.515926 6.10413C0.513844 5.93063 0.673062 5.7238 0.991499 5.31013L3.36607 2.22547Z" fill="#00FFA3"/>
</svg>
