<svg width="16" height="16" viewBox="0 0 16 16" fill="none" xmlns="http://www.w3.org/2000/svg">
<g id="Code Text Square 1" clip-path="url(#clip0_4074_19704)">
<g id="Group">
<path id="Vector" d="M8.63483 5.7749L7.36499 10.2193" stroke="#F1AA40" stroke-linecap="round" stroke-linejoin="round"/>
<path id="Vector_2" d="M5.93608 8.63211L4.66675 7.36211L5.93608 6.09277" stroke="#F1AA40" stroke-linecap="round" stroke-linejoin="round"/>
<path id="Vector_3" d="M10.064 9.90188L11.3333 8.63188L10.064 7.36255" stroke="#F1AA40" stroke-linecap="round" stroke-linejoin="round"/>
<path id="Vector_4" d="M5.33333 1.99707H10.6667C11.5507 1.99707 12.3986 2.34826 13.0237 2.97338C13.6488 3.5985 14 4.44635 14 5.3304V10.6637C14 11.1015 13.9138 11.5349 13.7463 11.9393C13.5788 12.3438 13.3332 12.7112 13.0237 13.0208C12.7142 13.3303 12.3467 13.5758 11.9423 13.7433C11.5379 13.9109 11.1044 13.9971 10.6667 13.9971H5.33333C4.44928 13.9971 3.60143 13.6459 2.97631 13.0208C2.35119 12.3956 2 11.5478 2 10.6637V5.3304C2 4.44635 2.35119 3.5985 2.97631 2.97338C3.60143 2.34826 4.44928 1.99707 5.33333 1.99707Z" stroke="#F1AA40" stroke-linecap="round" stroke-linejoin="round"/>
</g>
</g>
<defs>
<clipPath id="clip0_4074_19704">
<rect width="16" height="16" fill="white"/>
</clipPath>
</defs>
</svg>
