<svg width="21" height="20" viewBox="0 0 21 20" fill="none" xmlns="http://www.w3.org/2000/svg">
<path fill-rule="evenodd" clip-rule="evenodd" d="M5.0315 7.97203C5.0315 4.9494 7.48172 2.5 10.5035 2.5C13.5253 2.5 15.9756 4.9494 15.9756 7.97203L15.9764 9.07067C15.9764 9.72092 16.1191 10.3622 16.3963 10.9501L16.7847 11.7754C17.3782 13.037 16.458 14.4876 15.0634 14.4876H5.94364C4.54908 14.4876 3.62883 13.037 4.22233 11.7754L4.6107 10.9501C4.88718 10.3622 5.03069 9.72092 5.03069 9.07067L5.0315 7.97203Z" fill="white" stroke="white" stroke-opacity="0.96" stroke-width="1.5" stroke-linecap="round" stroke-linejoin="round"/>
<path d="M7.91406 14.9141C7.91406 16.3402 9.07024 17.4972 10.4964 17.4972C11.9234 17.4972 13.0796 16.3402 13.0796 14.9141" stroke="white" stroke-opacity="0.96" stroke-width="1.5" stroke-linecap="round" stroke-linejoin="round"/>
</svg>
