<svg width="209" height="98" viewBox="0 0 209 98" fill="none" xmlns="http://www.w3.org/2000/svg">
<g clip-path="url(#clip0_7889_36005)">
<g style="mix-blend-mode:multiply">
<path d="M55.22 88.78C77.7422 84.7925 92.7675 63.3022 88.78 40.78C84.7925 18.2578 63.3022 3.23248 40.78 7.21996C18.2578 11.2074 3.23249 32.6978 7.21998 55.22C11.2075 77.7421 32.6978 92.7675 55.22 88.78Z" fill="#B8B8B8"/>
</g>
<path d="M47.9997 89.5311C70.9085 89.5311 89.4798 70.9598 89.4798 48.051C89.4798 25.1421 70.9085 6.5708 47.9997 6.5708C25.0908 6.5708 6.51953 25.1421 6.51953 48.051C6.51953 70.9598 25.0908 89.5311 47.9997 89.5311Z" fill="url(#paint0_linear_7889_36005)"/>
<path d="M32.4053 53.5452L36.8477 67.1326C36.921 67.3557 37.0476 67.5575 37.2166 67.7205C37.3855 67.8836 37.5917 68.003 37.8173 68.0683C38.0428 68.1336 38.2809 68.1429 38.5108 68.0954C38.7407 68.0478 38.9556 67.9449 39.1367 67.7955L52.3946 56.8413C52.3946 56.8413 38.298 51.3477 38.298 51.6407C38.298 51.9337 32.4053 53.5452 32.4053 53.5452Z" fill="#B5D1DB"/>
<path d="M67.4106 27.4137C58.7454 30.8416 30.7867 42.3012 20.1951 46.6412C19.888 46.7678 19.6272 46.9859 19.4482 47.2658C19.2693 47.5458 19.1808 47.874 19.1948 48.2059C19.2088 48.5379 19.3246 48.8575 19.5265 49.1214C19.7284 49.3853 20.0066 49.5806 20.3233 49.6809L32.4092 53.5301L36.837 67.0809C36.9187 67.3326 37.0671 67.5574 37.2664 67.7315C37.4656 67.9056 37.7083 68.0225 37.9687 68.0698C38.3752 68.1467 38.9758 57.1009 38.9758 57.1009C38.9758 57.1009 51.6806 66.5242 57.7053 70.974C58.0464 71.226 58.4459 71.3876 58.8663 71.4436C59.2867 71.4996 59.7145 71.4482 60.1097 71.2943C60.505 71.1404 60.8548 70.8889 61.1266 70.5633C61.3985 70.2377 61.5834 69.8486 61.6643 69.4322L69.4798 29.146C69.5349 28.8751 69.5158 28.5943 69.4245 28.3334C69.3332 28.0724 69.1731 27.841 68.9611 27.6636C68.7491 27.4861 68.4932 27.3692 68.2202 27.3252C67.9473 27.2812 67.6676 27.3118 67.4106 27.4137Z" fill="white"/>
<path d="M37.9648 68.0614C38.3713 68.1384 38.9719 57.0926 38.9719 57.0926L59.8475 37.4879C59.8784 37.4611 59.8979 37.4235 59.9021 37.3829C59.9063 37.3423 59.895 37.3015 59.8703 37.269C59.8456 37.2364 59.8095 37.2144 59.7692 37.2074C59.729 37.2005 59.6876 37.2091 59.6534 37.2315L32.4053 53.5438L36.8331 67.0946C36.9181 67.3421 37.068 67.5624 37.267 67.7324C37.466 67.9025 37.707 68.0161 37.9648 68.0614Z" fill="#D6E2EA"/>
</g>
<path d="M104.844 7C93.9699 7 83.5414 11.3196 75.8524 19.0086C68.1634 26.6976 63.8438 37.1261 63.8438 48C63.8378 53.385 64.8957 58.7182 66.9566 63.6933C69.0175 68.6683 72.0409 73.1873 75.8531 76.9906L68.0411 84.8027C67.699 85.1474 67.4666 85.5856 67.3729 86.0622C67.2792 86.5387 67.3285 87.0323 67.5146 87.4809C67.7007 87.9295 68.0152 88.313 68.4187 88.5833C68.8222 88.8536 69.2966 88.9986 69.7823 89H104.87C115.74 88.993 126.161 84.6702 133.844 76.982C141.528 69.2938 145.844 58.8693 145.844 48C145.844 37.1261 141.524 26.6976 133.835 19.0086C126.146 11.3196 115.718 7 104.844 7Z" fill="#FF4500"/>
<g clip-path="url(#clip1_7889_36005)">
<path d="M128.238 37.93C133.54 37.93 137.839 42.2283 137.839 47.5306C137.839 52.8328 133.54 57.1311 128.238 57.1311C122.936 57.1311 118.638 52.8328 118.638 47.5306C118.638 42.2283 122.936 37.93 128.238 37.93Z" fill="url(#paint1_radial_7889_36005)"/>
<path d="M81.6269 37.93C86.9291 37.93 91.2274 42.2283 91.2274 47.5306C91.2274 52.8328 86.9291 57.1311 81.6269 57.1311C76.3247 57.1311 72.0264 52.8328 72.0264 47.5306C72.0264 42.2283 76.3247 37.93 81.6269 37.93Z" fill="url(#paint2_radial_7889_36005)"/>
<path d="M104.956 35.2227C120.093 35.2227 132.365 44.426 132.365 55.7789C132.365 67.1318 120.093 76.3352 104.956 76.3352C89.819 76.3352 77.5479 67.1318 77.5479 55.7789C77.5479 44.426 89.819 35.2227 104.956 35.2227Z" fill="url(#paint3_radial_7889_36005)"/>
<path d="M96.8459 53.7797C96.6937 57.262 94.3807 58.5198 91.6886 58.5198C88.9965 58.5198 86.9485 56.7428 87.1007 53.2604C87.253 49.778 89.5721 47.4742 92.2642 47.4742C94.9563 47.4742 97.0134 50.2973 96.8459 53.7797Z" fill="#842123"/>
<path d="M122.805 53.2604C122.957 56.7428 120.914 58.5259 118.223 58.5259C115.533 58.5259 113.221 57.262 113.06 53.7797C112.898 50.2973 114.951 47.4727 117.641 47.4727C120.332 47.4727 122.643 49.7765 122.805 53.2589V53.2604Z" fill="#842123"/>
<path d="M96.8542 54.0842C96.702 57.3443 94.5413 58.5259 92.0228 58.5259C89.5042 58.5259 87.5841 56.755 87.7349 53.501C87.8856 50.247 90.0478 48.1092 92.5663 48.1092C95.0849 48.1092 97.005 50.8287 96.8542 54.0888V54.0842Z" fill="url(#paint4_radial_7889_36005)"/>
<path d="M113.058 54.0842C113.21 57.3443 115.371 58.5259 117.89 58.5259C120.408 58.5259 122.328 56.755 122.177 53.501C122.027 50.247 119.865 48.1092 117.346 48.1092C114.827 48.1092 112.907 50.8287 113.058 54.0888V54.0842Z" fill="url(#paint5_radial_7889_36005)"/>
<path d="M94.1342 49.9441C94.7229 49.9441 95.2001 50.4649 95.2001 51.1074C95.2001 51.7499 94.7229 52.2708 94.1342 52.2708C93.5456 52.2708 93.0684 51.7499 93.0684 51.1074C93.0684 50.4649 93.5456 49.9441 94.1342 49.9441Z" fill="#FFC49C"/>
<path d="M119.479 49.9441C120.068 49.9441 120.545 50.4649 120.545 51.1074C120.545 51.7499 120.068 52.2708 119.479 52.2708C118.89 52.2708 118.413 51.7499 118.413 51.1074C118.413 50.4649 118.89 49.9441 119.479 49.9441Z" fill="#FFC49C"/>
<path d="M104.956 60.8495C101.557 60.8495 98.3005 61.0139 95.2886 61.3063C95.1698 61.3164 95.055 61.3543 94.9535 61.4169C94.852 61.4795 94.7666 61.565 94.7042 61.6667C94.6419 61.7683 94.6042 61.8832 94.5944 62.002C94.5845 62.1209 94.6028 62.2403 94.6475 62.3509C95.5266 64.3527 96.9695 66.0553 98.8001 67.2507C100.631 68.4462 102.77 69.0828 104.956 69.0828C107.142 69.0828 109.282 68.4462 111.112 67.2507C112.943 66.0553 114.386 64.3527 115.265 62.3509C115.31 62.2403 115.328 62.1209 115.318 62.002C115.308 61.8832 115.27 61.7683 115.208 61.6667C115.146 61.565 115.06 61.4795 114.959 61.4169C114.857 61.3543 114.742 61.3164 114.624 61.3063C111.612 61.0018 108.355 60.8495 104.956 60.8495Z" fill="#BBCFDA"/>
<path d="M104.956 61.6046C101.739 61.6001 98.524 61.7571 95.3231 62.0751C95.2027 62.0866 95.0866 62.1261 94.9843 62.1906C94.882 62.2551 94.7963 62.3428 94.734 62.4465C94.6718 62.5502 94.6348 62.6671 94.6261 62.7877C94.6173 62.9084 94.637 63.0294 94.6836 63.141C95.5315 65.1676 96.9596 66.8983 98.7884 68.1155C100.617 69.3327 102.765 69.9822 104.962 69.9822C107.159 69.9822 109.306 69.3327 111.135 68.1155C112.964 66.8983 114.392 65.1676 115.24 63.141C115.286 63.0294 115.306 62.9084 115.297 62.7879C115.288 62.6674 115.251 62.5507 115.188 62.447C115.126 62.3434 115.041 62.2558 114.939 62.1912C114.836 62.1266 114.721 62.0869 114.6 62.0751C111.398 61.757 108.181 61.5999 104.963 61.6046H104.956Z" fill="white"/>
<path d="M104.956 61.212C101.788 61.2059 98.6218 61.3584 95.4692 61.6688C95.3515 61.6806 95.2381 61.7198 95.1381 61.7831C95.0381 61.8464 94.9543 61.9322 94.8933 62.0336C94.8322 62.135 94.7957 62.2492 94.7865 62.3672C94.7773 62.4852 94.7957 62.6037 94.8404 62.7133C95.6738 64.7093 97.0791 66.4141 98.8793 67.6132C100.679 68.8123 102.794 69.4521 104.957 69.4521C107.12 69.4521 109.235 68.8123 111.035 67.6132C112.835 66.4141 114.24 64.7093 115.074 62.7133C115.118 62.6037 115.137 62.4852 115.128 62.3672C115.119 62.2492 115.082 62.135 115.021 62.0336C114.96 61.9322 114.876 61.8464 114.776 61.7831C114.676 61.7198 114.563 61.6806 114.445 61.6688C111.292 61.3576 108.125 61.2051 104.957 61.212H104.956Z" fill="url(#paint6_radial_7889_36005)"/>
<path d="M119.966 18.8203C123.724 18.8203 126.77 21.8662 126.77 25.6236C126.77 29.381 123.724 32.427 119.966 32.427C116.209 32.427 113.163 29.381 113.163 25.6236C113.163 21.8662 116.209 18.8203 119.966 18.8203Z" fill="url(#paint7_radial_7889_36005)"/>
<path d="M104.858 36.0891C104.044 36.0891 103.383 35.748 103.383 35.2227C103.386 32.2922 104.552 29.4827 106.624 27.4105C108.696 25.3383 111.505 24.1727 114.436 24.1695C114.827 24.1695 115.203 24.325 115.479 24.6017C115.756 24.8784 115.911 25.2537 115.911 25.645C115.911 26.0363 115.756 26.4116 115.479 26.6883C115.203 26.965 114.827 27.1205 114.436 27.1205C112.288 27.1229 110.228 27.9773 108.709 29.4961C107.19 31.015 106.335 33.0745 106.332 35.2227C106.332 35.748 105.671 36.0891 104.857 36.0891H104.858Z" fill="url(#paint8_radial_7889_36005)"/>
<path d="M95.0627 55.6967C95.0627 56.9575 93.7213 57.5239 92.0646 57.5239C90.4079 57.5239 89.0664 56.9575 89.0664 55.6967C89.0664 54.4359 90.4079 53.4127 92.0646 53.4127C93.7213 53.4127 95.0627 54.4359 95.0627 55.6967Z" fill="#FF6101"/>
<path d="M120.844 55.6967C120.844 56.9575 119.503 57.5239 117.846 57.5239C116.189 57.5239 114.848 56.9575 114.848 55.6967C114.848 54.4359 116.189 53.4127 117.846 53.4127C119.503 53.4127 120.844 54.4359 120.844 55.6967Z" fill="#FF6101"/>
</g>
<g style="mix-blend-mode:multiply">
<path d="M168.22 90.2798C190.742 86.2923 205.768 64.802 201.78 42.2798C197.793 19.7576 176.302 4.73224 153.78 8.71972C131.258 12.7072 116.232 34.1975 120.22 56.7197C124.207 79.2419 145.698 94.2673 168.22 90.2798Z" fill="#B8B8B8"/>
</g>
<path d="M160.948 91.2482C183.857 91.2482 202.428 72.6768 202.428 49.768C202.428 26.8591 183.857 8.28784 160.948 8.28784C138.039 8.28784 119.468 26.8591 119.468 49.768C119.468 72.6768 138.039 91.2482 160.948 91.2482Z" fill="url(#paint9_linear_7889_36005)"/>
<g clip-path="url(#clip2_7889_36005)">
<path d="M174.384 29.2878L181.284 29.2878L166.134 46.5378L183.834 69.9378L169.944 69.9378L159.069 55.7178L146.619 69.9378L139.719 69.9378L155.769 51.4878L138.819 29.2878L153.054 29.2878L162.879 42.2778L174.384 29.2878ZM171.969 65.8878L175.794 65.8878L151.044 33.1878L146.934 33.1878L171.969 65.8878Z" fill="white"/>
</g>
<defs>
<linearGradient id="paint0_linear_7889_36005" x1="90.0002" y1="89.1279" x2="6.00024" y2="5.12793" gradientUnits="userSpaceOnUse">
<stop stop-color="#006BB3"/>
<stop offset="1" stop-color="#1D9BF0"/>
</linearGradient>
<radialGradient id="paint1_radial_7889_36005" cx="0" cy="0" r="1" gradientUnits="userSpaceOnUse" gradientTransform="translate(128.441 41.8149) scale(19.4066 16.8838)">
<stop stop-color="#FEFFFF"/>
<stop offset="0.4" stop-color="#FEFFFF"/>
<stop offset="0.51" stop-color="#F9FCFC"/>
<stop offset="0.62" stop-color="#EDF3F5"/>
<stop offset="0.7" stop-color="#DEE9EC"/>
<stop offset="0.72" stop-color="#D8E4E8"/>
<stop offset="0.76" stop-color="#CCD8DF"/>
<stop offset="0.8" stop-color="#C8D5DD"/>
<stop offset="0.83" stop-color="#CCD6DE"/>
<stop offset="0.85" stop-color="#D8DBE2"/>
<stop offset="0.88" stop-color="#EDE3E9"/>
<stop offset="0.9" stop-color="#FFEBEF"/>
</radialGradient>
<radialGradient id="paint2_radial_7889_36005" cx="0" cy="0" r="1" gradientUnits="userSpaceOnUse" gradientTransform="translate(81.8294 41.9027) scale(19.4066 19.4066)">
<stop stop-color="#FEFFFF"/>
<stop offset="0.4" stop-color="#FEFFFF"/>
<stop offset="0.51" stop-color="#F9FCFC"/>
<stop offset="0.62" stop-color="#EDF3F5"/>
<stop offset="0.7" stop-color="#DEE9EC"/>
<stop offset="0.72" stop-color="#D8E4E8"/>
<stop offset="0.76" stop-color="#CCD8DF"/>
<stop offset="0.8" stop-color="#C8D5DD"/>
<stop offset="0.83" stop-color="#CCD6DE"/>
<stop offset="0.85" stop-color="#D8DBE2"/>
<stop offset="0.88" stop-color="#EDE3E9"/>
<stop offset="0.9" stop-color="#FFEBEF"/>
</radialGradient>
<radialGradient id="paint3_radial_7889_36005" cx="0" cy="0" r="1" gradientUnits="userSpaceOnUse" gradientTransform="translate(105.547 39.3624) scale(58.5382 40.9767)">
<stop stop-color="#FEFFFF"/>
<stop offset="0.4" stop-color="#FEFFFF"/>
<stop offset="0.51" stop-color="#F9FCFC"/>
<stop offset="0.62" stop-color="#EDF3F5"/>
<stop offset="0.7" stop-color="#DEE9EC"/>
<stop offset="0.72" stop-color="#D8E4E8"/>
<stop offset="0.76" stop-color="#CCD8DF"/>
<stop offset="0.8" stop-color="#C8D5DD"/>
<stop offset="0.83" stop-color="#CCD6DE"/>
<stop offset="0.85" stop-color="#D8DBE2"/>
<stop offset="0.88" stop-color="#EDE3E9"/>
<stop offset="0.9" stop-color="#FFEBEF"/>
</radialGradient>
<radialGradient id="paint4_radial_7889_36005" cx="0" cy="0" r="1" gradientUnits="userSpaceOnUse" gradientTransform="translate(92.5374 55.5265) scale(4.89087 7.14067)">
<stop stop-color="#FF6600"/>
<stop offset="0.5" stop-color="#FF4500"/>
<stop offset="0.7" stop-color="#FC4301"/>
<stop offset="0.82" stop-color="#F43F07"/>
<stop offset="0.92" stop-color="#E53812"/>
<stop offset="1" stop-color="#D4301F"/>
</radialGradient>
<radialGradient id="paint5_radial_7889_36005" cx="0" cy="0" r="1" gradientUnits="userSpaceOnUse" gradientTransform="translate(117.375 55.5265) rotate(180) scale(4.89087 7.14067)">
<stop stop-color="#FF6600"/>
<stop offset="0.5" stop-color="#FF4500"/>
<stop offset="0.7" stop-color="#FC4301"/>
<stop offset="0.82" stop-color="#F43F07"/>
<stop offset="0.92" stop-color="#E53812"/>
<stop offset="1" stop-color="#D4301F"/>
</radialGradient>
<radialGradient id="paint6_radial_7889_36005" cx="0" cy="0" r="1" gradientUnits="userSpaceOnUse" gradientTransform="translate(104.905 70.5638) scale(17.2459 11.3823)">
<stop stop-color="#172E35"/>
<stop offset="0.29" stop-color="#0E1C21"/>
<stop offset="0.73" stop-color="#030708"/>
<stop offset="1"/>
</radialGradient>
<radialGradient id="paint7_radial_7889_36005" cx="0" cy="0" r="1" gradientUnits="userSpaceOnUse" gradientTransform="translate(120.114 19.3466) scale(15.1385 14.8358)">
<stop stop-color="#FEFFFF"/>
<stop offset="0.4" stop-color="#FEFFFF"/>
<stop offset="0.51" stop-color="#F9FCFC"/>
<stop offset="0.62" stop-color="#EDF3F5"/>
<stop offset="0.7" stop-color="#DEE9EC"/>
<stop offset="0.72" stop-color="#D8E4E8"/>
<stop offset="0.76" stop-color="#CCD8DF"/>
<stop offset="0.8" stop-color="#C8D5DD"/>
<stop offset="0.83" stop-color="#CCD6DE"/>
<stop offset="0.85" stop-color="#D8DBE2"/>
<stop offset="0.88" stop-color="#EDE3E9"/>
<stop offset="0.9" stop-color="#FFEBEF"/>
</radialGradient>
<radialGradient id="paint8_radial_7889_36005" cx="0" cy="0" r="1" gradientUnits="userSpaceOnUse" gradientTransform="translate(113.806 34.6289) scale(12.4084 12.4084)">
<stop offset="0.48" stop-color="#7A9299"/>
<stop offset="0.67" stop-color="#172E35"/>
<stop offset="0.75"/>
<stop offset="0.82" stop-color="#172E35"/>
</radialGradient>
<linearGradient id="paint9_linear_7889_36005" x1="202.948" y1="90.845" x2="118.948" y2="6.84497" gradientUnits="userSpaceOnUse">
<stop stop-color="#141414"/>
<stop offset="1" stop-color="#353535"/>
</linearGradient>
<clipPath id="clip0_7889_36005">
<rect width="96" height="96" fill="white"/>
</clipPath>
<clipPath id="clip1_7889_36005">
<rect width="65.812" height="57.5149" fill="white" transform="matrix(1 0 0 -1 72.0264 76.3352)"/>
</clipPath>
<clipPath id="clip2_7889_36005">
<rect width="45" height="40.65" fill="white" transform="translate(138.984 29.2878)"/>
</clipPath>
</defs>
</svg>
