<svg xmlns="http://www.w3.org/2000/svg" width="160" height="160" viewBox="0 0 160 160" fill="none">
  <path fill-rule="evenodd" clip-rule="evenodd" d="M88.3409 27.6994C83.0742 25.2112 76.9275 25.2112 71.6609 27.6994L39.0341 43.1139C30.4476 47.1706 30.2034 59.0823 38.6548 63.4544L44.4466 66.4507L39.0341 69.0079C30.4476 73.0646 30.2034 84.9762 38.6548 89.3485L44.4428 92.3428L39.0341 94.8982C30.4476 98.9548 30.2034 110.866 38.6548 115.239L71.0364 131.991C76.642 134.891 83.3598 134.891 88.9648 131.991L121.347 115.239C129.798 110.866 129.554 98.9548 120.968 94.8982L115.559 92.3429L121.347 89.3485C129.798 84.9762 129.554 73.0646 120.968 69.0079L115.555 66.4508L121.347 63.4544C129.798 59.0823 129.554 47.1707 120.968 43.1139L88.3409 27.6994ZM106.243 71.2679L88.9648 80.2066C83.3598 83.1066 76.642 83.1066 71.0364 80.2066L53.7581 71.2679L42.5939 76.5424C40.2237 77.6624 40.1826 80.7562 42.4839 81.9468L55.6352 88.7504C55.718 88.7898 55.7995 88.832 55.8797 88.8769L74.8659 98.699C78.0698 100.356 81.932 100.356 85.1359 98.699L104.121 88.8773C104.202 88.8321 104.284 88.7897 104.367 88.75L117.518 81.9468C119.819 80.7562 119.778 77.6624 117.408 76.5424L106.243 71.2679ZM75.2203 35.2342C78.2331 33.8107 81.7681 33.8107 84.7809 35.2342L117.408 50.6487C119.778 51.7685 119.819 54.8624 117.518 56.0529L85.1359 72.8055C81.932 74.4627 78.0698 74.4627 74.8659 72.8055L42.4839 56.0529C40.1826 54.8624 40.2237 51.7685 42.5939 50.6487L75.2203 35.2342ZM42.5939 102.433L53.7548 97.1603L71.0364 106.101C76.642 109 83.3598 109 88.9648 106.101L106.247 97.1602L117.408 102.433C119.778 103.553 119.819 106.646 117.518 107.837L85.1359 124.59C81.932 126.247 78.0698 126.247 74.8659 124.59L42.4839 107.837C40.1826 106.646 40.2237 103.553 42.5939 102.433Z" fill="url(#paint0_linear_1503_552)"/>
  <defs>
  <linearGradient id="paint0_linear_1503_552" x1="97.5692" y1="21.7708" x2="61.3204" y2="106.778" gradientUnits="userSpaceOnUse">
  <stop stop-color="#33353F"/>
  <stop offset="1" stop-color="#262830"/>
  </linearGradient>
  </defs>
</svg>
