<svg width="24" height="24" viewBox="0 0 24 24" fill="none" xmlns="http://www.w3.org/2000/svg">
<rect width="24" height="24" rx="4" fill="#28323E"/>
<path opacity="0.65" fill-rule="evenodd" clip-rule="evenodd" d="M11.9864 19.9626C16.3917 19.9626 19.9629 16.3914 19.9629 11.9862C19.9629 7.58086 16.3917 4.00966 11.9864 4.00966C7.5811 4.00966 4.0099 7.58085 4.0099 11.9862C4.0099 16.3914 7.5811 19.9626 11.9864 19.9626ZM14.7866 7.27519C15.4461 7.03941 16.184 6.77565 16.7177 7.30937C17.2514 7.84308 16.9876 8.58092 16.7519 9.24048C16.7404 9.27262 16.7289 9.30458 16.7177 9.33633C16.6459 9.53858 16.5413 9.79299 16.4296 10.0647C16.1641 10.7104 15.8584 11.4538 15.8584 11.826C15.8584 12.3547 16.4533 14.0512 16.6956 14.6461C16.938 15.2409 17.2444 16.1243 16.6846 16.6841C16.1249 17.2438 15.2415 16.9374 14.6466 16.6951C14.0518 16.4527 12.3553 15.8578 11.8265 15.8578C11.4543 15.8578 10.711 16.1635 10.0652 16.429C9.79357 16.5407 9.53915 16.6453 9.3369 16.7171C9.30516 16.7284 9.2732 16.7398 9.24105 16.7513C8.58149 16.9871 7.84365 17.2508 7.30994 16.7171C6.77622 16.1834 7.03998 15.4455 7.27576 14.786C7.28725 14.7538 7.29868 14.7219 7.30994 14.6901C7.3817 14.4879 7.48631 14.2335 7.59802 13.9618C7.86355 13.316 8.16919 12.5727 8.16919 12.2005C8.16919 11.6717 7.57432 9.97526 7.33197 9.38039C7.08962 8.78552 6.78326 7.90214 7.34299 7.34241C7.90272 6.78269 8.78609 7.08905 9.38096 7.3314C9.97583 7.57375 11.6723 8.16862 12.2011 8.16862C12.5733 8.16862 13.3166 7.86298 13.9624 7.59745C14.234 7.48574 14.4885 7.38113 14.6907 7.30937C14.7225 7.2981 14.7544 7.28668 14.7866 7.27519Z" fill="url(#paint0_linear_2042_15198)"/>
<path opacity="0.65" fill-rule="evenodd" clip-rule="evenodd" d="M17.6266 6.34592C14.5116 3.2309 9.46118 3.2309 6.34616 6.34592C3.23115 9.46093 3.23115 14.5114 6.34616 17.6264C9.46118 20.7414 14.5116 20.7414 17.6266 17.6264C20.7416 14.5114 20.7416 9.46093 17.6266 6.34592ZM6.67539 13.3369C6.04229 13.0372 5.33405 12.702 5.33405 11.9472C5.33405 11.1924 6.04229 10.8572 6.67539 10.5575C6.70624 10.5429 6.73692 10.5284 6.76733 10.5139C6.96109 10.4217 7.21496 10.3157 7.48605 10.2026C8.13044 9.93375 8.87217 9.62426 9.13535 9.36108C9.50925 8.98719 10.2882 7.36696 10.5375 6.77496C10.7867 6.18295 11.1947 5.34168 11.9863 5.34168C12.7779 5.34168 13.1859 6.18295 13.4352 6.77496C13.6844 7.36696 14.4634 8.98719 14.8373 9.36109C15.1005 9.62426 15.8422 9.93375 16.4866 10.2026C16.7577 10.3157 17.0116 10.4217 17.2053 10.5139C17.2357 10.5284 17.2664 10.5429 17.2973 10.5575C17.9304 10.8572 18.6386 11.1924 18.6386 11.9472C18.6386 12.702 17.9304 13.0372 17.2973 13.3369C17.2664 13.3515 17.2357 13.366 17.2053 13.3805C17.0116 13.4728 16.7577 13.5787 16.4866 13.6918C15.8422 13.9607 15.1005 14.2702 14.8373 14.5333C14.4634 14.9072 13.6844 16.5275 13.4352 17.1195C13.1859 17.7115 12.7779 18.5528 11.9863 18.5528C11.1947 18.5528 10.7867 17.7115 10.5375 17.1195C10.2882 16.5275 9.50925 14.9072 9.13535 14.5333C8.87217 14.2702 8.13045 13.9607 7.48606 13.6918C7.21496 13.5787 6.96109 13.4728 6.76733 13.3805C6.73692 13.366 6.70625 13.3515 6.67539 13.3369Z" fill="url(#paint1_linear_2042_15198)"/>
<defs>
<linearGradient id="paint0_linear_2042_15198" x1="20.3883" y1="4.00966" x2="3.83534" y2="19.7794" gradientUnits="userSpaceOnUse">
<stop stop-color="#00A3FF"/>
<stop offset="1" stop-color="#FF00C7"/>
</linearGradient>
<linearGradient id="paint1_linear_2042_15198" x1="21.3668" y1="4.00965" x2="2.59618" y2="4.97722" gradientUnits="userSpaceOnUse">
<stop stop-color="#00FFF0"/>
<stop offset="0.0001" stop-color="#13DEF2"/>
<stop offset="0.855974" stop-color="#E26CFF"/>
</linearGradient>
</defs>
</svg>
