<svg width="28" height="28" viewBox="0 0 28 28" fill="none" xmlns="http://www.w3.org/2000/svg">
<g clip-path="url(#clip0_5566_17719)">
<path d="M15.1668 24.5H8.16683C6.87816 24.5 5.8335 23.4553 5.8335 22.1667V14C5.8335 12.7113 6.87816 11.6667 8.16683 11.6667H19.8335C21.1222 11.6667 22.1668 12.7113 22.1668 14V15.1667" stroke="white" stroke-linecap="round" stroke-linejoin="round"/>
<path d="M17.5 20.9044V19.3502C17.5 19.0313 17.7073 18.7494 18.0117 18.6543L20.1992 17.9707C20.3408 17.9264 20.4925 17.9264 20.6342 17.9707L22.8217 18.6543C23.1261 18.7494 23.3333 19.0313 23.3333 19.3502V20.9044C23.3333 22.4242 22.3906 23.7845 20.9677 24.3181L20.5447 24.4768C20.4622 24.5077 20.3712 24.5077 20.2887 24.4768L19.8657 24.3181C18.4427 23.7845 17.5 22.4242 17.5 20.9044Z" stroke="white" stroke-linecap="round" stroke-linejoin="round"/>
<path d="M9.3335 11.6667V8.16667C9.3335 5.58934 11.4228 3.5 14.0002 3.5C16.5775 3.5 18.6668 5.58934 18.6668 8.16667V11.6667" stroke="white" stroke-linecap="round" stroke-linejoin="round"/>
</g>
<defs>
<clipPath id="clip0_5566_17719">
<rect width="28" height="28" fill="white"/>
</clipPath>
</defs>
</svg>
