<svg width="28" height="28" viewBox="0 0 28 28" fill="none" xmlns="http://www.w3.org/2000/svg">
<g clip-path="url(#clip0_5566_17711)">
<path d="M4.66654 22.1667C4.66399 21.5564 4.78166 20.9516 5.01284 20.3868C5.24402 19.822 5.58419 19.3082 6.01391 18.8749C6.44364 18.4416 6.95451 18.0971 7.51735 17.8612C8.0802 17.6253 8.684 17.5026 9.29428 17.5C9.30725 17.5 9.32022 17.5 9.33321 17.5H12.0295" stroke="white" stroke-linecap="round" stroke-linejoin="round"/>
<path fill-rule="evenodd" clip-rule="evenodd" d="M15.1664 19.2388C15.223 20.4062 15.6884 21.5165 16.4813 22.3753C17.1145 23.1108 17.8701 23.7314 18.7147 24.2096C19.0757 24.411 19.4845 24.5109 19.8977 24.4987C20.3109 24.4865 20.7131 24.3627 21.0617 24.1404C21.8272 23.6511 22.5156 23.0503 23.104 22.358C23.9115 21.508 24.404 20.4073 24.4998 19.2388C24.5053 18.5437 24.2454 17.8725 23.773 17.3625C23.5485 17.1178 23.276 16.9219 22.9724 16.787C22.6689 16.6522 22.3409 16.5812 22.0088 16.5785C21.5941 16.5495 21.1787 16.6256 20.8012 16.7998C20.4237 16.974 20.0962 17.2406 19.8492 17.575L19.8332 17.5984L19.817 17.575C19.592 17.2583 19.2926 17.0019 18.9452 16.8281C18.5978 16.6543 18.213 16.5686 17.8247 16.5785C17.4738 16.5725 17.1253 16.6373 16.7999 16.7689C16.4746 16.9005 16.1791 17.0963 15.931 17.3445C15.6829 17.5928 15.4874 17.8885 15.356 18.2139C15.2247 18.5394 15.1602 18.8879 15.1664 19.2388Z" stroke="white" stroke-linecap="round" stroke-linejoin="round"/>
<path d="M13.9998 13.4167C16.7382 13.4167 18.9582 11.1967 18.9582 8.45833C18.9582 5.71992 16.7382 3.5 13.9998 3.5C11.2614 3.5 9.0415 5.71992 9.0415 8.45833C9.0415 11.1967 11.2614 13.4167 13.9998 13.4167Z" stroke="white" stroke-linecap="round" stroke-linejoin="round"/>
</g>
<defs>
<clipPath id="clip0_5566_17711">
<rect width="28" height="28" fill="white"/>
</clipPath>
</defs>
</svg>
