<svg width="16" height="16" viewBox="0 0 16 16" fill="none" xmlns="http://www.w3.org/2000/svg">
<path fill-rule="evenodd" clip-rule="evenodd" d="M3.62207 6.37762C3.62207 3.95952 5.58225 2 7.99967 2C10.4171 2 12.3773 3.95952 12.3773 6.37762L12.378 7.25653C12.378 7.77673 12.4921 8.2898 12.7139 8.76007L13.0247 9.42033C13.4995 10.4296 12.7633 11.5901 11.6476 11.5901H4.35179C3.23614 11.5901 2.49994 10.4296 2.97474 9.42033L3.28543 8.76007C3.50662 8.2898 3.62143 7.77673 3.62143 7.25653L3.62207 6.37762Z" stroke="current" stroke-opacity="0.96" stroke-linecap="round" stroke-linejoin="round"/>
<path d="M5.93359 11.9336C5.93359 13.0745 6.85853 14.0001 7.99947 14.0001C9.14107 14.0001 10.066 13.0745 10.066 11.9336" stroke="current" stroke-opacity="0.96" stroke-linecap="round" stroke-linejoin="round"/>
</svg>
