<svg width="16" height="16" viewBox="0 0 16 16" fill="none" xmlns="http://www.w3.org/2000/svg">
<path d="M11.3515 12.4715C11.2819 12.3656 11.2148 12.2576 11.1502 12.1479C11.3795 12.0398 11.6026 11.9204 11.8184 11.7903L12.4543 11.407L11.86 10.9619C11.7752 10.8983 11.691 10.8317 11.6085 10.7628L11.3631 10.5583L11.0744 10.695C9.09711 11.631 6.9291 11.6321 4.92348 10.694L4.63378 10.5585L4.3893 10.7647C4.30926 10.8322 4.22648 10.8977 4.14202 10.9603L3.54144 11.4052L4.18194 11.7905C4.39678 11.9197 4.61897 12.0388 4.84769 12.1467C4.7831 12.2564 4.7159 12.3643 4.64617 12.4703C3.79243 12.1723 2.92585 11.7469 2.03425 11.1077C1.86425 8.85719 2.30601 6.58259 3.82231 4.23888C4.47966 3.94161 5.17379 3.7128 5.89533 3.56101C5.95357 3.67983 6.009 3.8005 6.0527 3.90546L6.20313 4.2668L6.59001 4.20753C7.52097 4.0649 8.46116 4.06469 9.41232 4.20774L9.79824 4.26577L9.94826 3.9055C9.99222 3.79992 10.0468 3.67955 10.1037 3.56149C10.8241 3.71319 11.5171 3.94123 12.174 4.2376C13.4966 6.2594 14.1631 8.51606 13.9659 11.1077C13.074 11.7479 12.2065 12.1735 11.3515 12.4715Z" stroke="current" stroke-opacity="1"/>
<circle cx="6" cy="8" r="1" fill="white" fill-opacity="1"/>
<circle cx="10" cy="8" r="1" fill="white" fill-opacity="1"/>
</svg>
