<svg width="25" height="24" viewBox="0 0 25 24" fill="none"
    xmlns="http://www.w3.org/2000/svg">
    <path d="M6.78627 11.9999V8.24273C6.79743 7.5042 6.9542 6.77514 7.24761 6.09731C7.54102 5.41947 7.9653 4.8062 8.49613 4.29262C9.02696 3.77904 9.65391 3.37525 10.3411 3.10439C11.0282 2.83353 11.7621 2.70092 12.5006 2.71416C13.2391 2.70092 13.9729 2.83353 14.6601 3.10439C15.3472 3.37525 15.9742 3.77904 16.505 4.29262C17.0358 4.8062 17.4601 5.41947 17.7535 6.09731C18.0469 6.77514 18.2037 7.5042 18.2148 8.24273V11.9999M15.3577 19.4999C16.1155 19.4999 16.8422 19.1989 17.378 18.663C17.9138 18.1272 18.2148 17.4005 18.2148 16.6427V13.4284M15.3577 19.4999C15.3577 19.9735 15.1696 20.4277 14.8347 20.7626C14.4998 21.0975 14.0456 21.2856 13.572 21.2856H11.4291C10.9555 21.2856 10.5013 21.0975 10.1664 20.7626C9.83155 20.4277 9.64342 19.9735 9.64342 19.4999C9.64342 19.0263 9.83155 18.5721 10.1664 18.2372C10.5013 17.9023 10.9555 17.7142 11.4291 17.7142H13.572C14.0456 17.7142 14.4998 17.9023 14.8347 18.2372C15.1696 18.5721 15.3577 19.0263 15.3577 19.4999ZM4.64342 9.85702H6.07199C6.26143 9.85702 6.44311 9.93227 6.57706 10.0662C6.71102 10.2002 6.78627 10.3819 6.78627 10.5713V14.857C6.78627 15.0465 6.71102 15.2281 6.57706 15.3621C6.44311 15.496 6.26143 15.5713 6.07199 15.5713H4.64342C4.26453 15.5713 3.90117 15.4208 3.63326 15.1529C3.36535 14.885 3.21484 14.5216 3.21484 14.1427V11.2856C3.21484 10.9067 3.36535 10.5433 3.63326 10.2754C3.90117 10.0075 4.26453 9.85702 4.64342 9.85702ZM20.3577 15.5713H18.9291C18.7397 15.5713 18.558 15.496 18.4241 15.3621C18.2901 15.2281 18.2148 15.0465 18.2148 14.857V10.5713C18.2148 10.3819 18.2901 10.2002 18.4241 10.0662C18.558 9.93227 18.7397 9.85702 18.9291 9.85702H20.3577C20.7366 9.85702 21.0999 10.0075 21.3679 10.2754C21.6358 10.5433 21.7863 10.9067 21.7863 11.2856V14.1427C21.7863 14.5216 21.6358 14.885 21.3679 15.1529C21.0999 15.4208 20.7366 15.5713 20.3577 15.5713Z" stroke="black" stroke-width="1.5" stroke-linecap="round" stroke-linejoin="round"/>
</svg>
